<svg width="280" height="494" viewBox="0 0 280 494" fill="none" xmlns="http://www.w3.org/2000/svg">
<g opacity="0.4">
<path opacity="0.2" fill-rule="evenodd" clip-rule="evenodd" d="M1146.03 27.5073L1310.7 322.893C1328.89 355.524 1329.78 395.036 1313.07 428.451L1047.01 960.573L1048.8 961.467L1314.86 429.345C1331.86 395.34 1330.96 355.127 1312.45 321.919L1147.78 26.5327L1146.03 27.5073ZM1130.03 27.5073L1294.7 322.893C1312.89 355.524 1313.78 395.036 1297.07 428.451L1031.01 960.573L1032.8 961.467L1298.86 429.345C1315.86 395.34 1314.96 355.127 1296.45 321.919L1131.78 26.5327L1130.03 27.5073ZM1114.03 27.5073L1278.7 322.893C1296.89 355.524 1297.78 395.036 1281.07 428.451L1015.01 960.573L1016.8 961.467L1282.86 429.345C1299.86 395.34 1298.96 355.127 1280.45 321.919L1115.78 26.5327L1114.03 27.5073ZM1098.03 27.5073L1262.7 322.893C1280.89 355.524 1281.78 395.036 1265.07 428.451L999.009 960.573L1000.8 961.467L1266.86 429.345C1283.86 395.34 1282.96 355.127 1264.45 321.919L1099.78 26.5327L1098.03 27.5073ZM1082.03 27.5073L1246.7 322.893C1264.89 355.524 1265.78 395.036 1249.07 428.451L983.009 960.573L984.798 961.467L1250.86 429.345C1267.86 395.34 1266.96 355.127 1248.45 321.919L1083.78 26.5327L1082.03 27.5073ZM1066.03 27.5073L1230.7 322.893C1248.89 355.524 1249.78 395.036 1233.07 428.451L967.009 960.573L968.798 961.467L1234.86 429.345C1251.86 395.34 1250.96 355.127 1232.45 321.919L1067.78 26.5327L1066.03 27.5073ZM1050.03 27.5073L1214.7 322.893C1232.89 355.524 1233.78 395.036 1217.07 428.451L951.009 960.573L952.798 961.467L1218.86 429.345C1235.86 395.34 1234.96 355.127 1216.45 321.919L1051.78 26.5327L1050.03 27.5073ZM1034.03 27.5073L1198.7 322.893C1216.89 355.524 1217.78 395.036 1201.07 428.451L935.009 960.573L936.798 961.467L1202.86 429.345C1219.86 395.34 1218.96 355.127 1200.45 321.919L1035.78 26.5327L1034.03 27.5073ZM1018.03 27.5073L1182.7 322.893C1200.89 355.524 1201.78 395.036 1185.07 428.451L919.009 960.573L920.798 961.467L1186.86 429.345C1203.86 395.34 1202.96 355.127 1184.45 321.919L1019.78 26.5327L1018.03 27.5073ZM1002.03 27.5073L1166.7 322.893C1184.89 355.524 1185.78 395.036 1169.07 428.451L903.009 960.573L904.798 961.467L1170.86 429.345C1187.86 395.34 1186.96 355.127 1168.45 321.919L1003.78 26.5327L1002.03 27.5073ZM986.03 27.5073L1150.7 322.893C1168.89 355.524 1169.78 395.036 1153.07 428.451L887.009 960.573L888.798 961.467L1154.86 429.345C1171.86 395.34 1170.96 355.127 1152.45 321.919L987.776 26.5327L986.03 27.5073ZM970.03 27.5073L1134.7 322.893C1152.89 355.524 1153.78 395.036 1137.07 428.451L871.009 960.573L872.798 961.467L1138.86 429.345C1155.86 395.34 1154.96 355.127 1136.45 321.919L971.776 26.5327L970.03 27.5073ZM954.03 27.5073L1118.7 322.893C1136.89 355.524 1137.78 395.036 1121.07 428.451L855.009 960.573L856.798 961.467L1122.86 429.345C1139.86 395.34 1138.96 355.127 1120.45 321.919L955.776 26.5327L954.03 27.5073ZM938.03 27.5073L1102.7 322.893C1120.89 355.524 1121.78 395.036 1105.07 428.451L839.009 960.573L840.798 961.467L1106.86 429.345C1123.86 395.34 1122.96 355.127 1104.45 321.919L939.776 26.5327L938.03 27.5073ZM922.03 27.5073L1086.7 322.893C1104.89 355.524 1105.78 395.036 1089.07 428.451L823.009 960.573L824.798 961.467L1090.86 429.345C1107.86 395.34 1106.96 355.127 1088.45 321.919L923.776 26.5327L922.03 27.5073ZM906.03 27.5073L1070.7 322.893C1088.89 355.524 1089.78 395.036 1073.07 428.451L807.009 960.573L808.798 961.467L1074.86 429.345C1091.86 395.34 1090.96 355.127 1072.45 321.919L907.776 26.5327L906.03 27.5073ZM890.03 27.5073L1054.7 322.893C1072.89 355.524 1073.78 395.036 1057.07 428.451L791.009 960.573L792.798 961.467L1058.86 429.345C1075.86 395.34 1074.96 355.127 1056.45 321.919L891.776 26.5327L890.03 27.5073ZM874.03 27.5073L1038.7 322.893C1056.89 355.524 1057.78 395.036 1041.07 428.451L775.009 960.573L776.798 961.467L1042.86 429.345C1059.86 395.34 1058.96 355.127 1040.45 321.919L875.776 26.5327L874.03 27.5073ZM858.03 27.5073L1022.7 322.893C1040.89 355.524 1041.78 395.036 1025.07 428.451L759.009 960.573L760.798 961.467L1026.86 429.345C1043.86 395.34 1042.96 355.127 1024.45 321.919L859.776 26.5327L858.03 27.5073ZM842.03 27.5073L1006.7 322.893C1024.89 355.524 1025.78 395.036 1009.07 428.451L743.009 960.573L744.798 961.467L1010.86 429.345C1027.86 395.34 1026.96 355.127 1008.45 321.919L843.776 26.5327L842.03 27.5073ZM826.03 27.5073L990.699 322.893C1008.89 355.524 1009.78 395.036 993.07 428.451L727.009 960.573L728.798 961.467L994.859 429.345C1011.86 395.34 1010.96 355.127 992.446 321.919L827.776 26.5327L826.03 27.5073ZM810.03 27.5073L974.699 322.893C992.89 355.524 993.777 395.036 977.07 428.451L711.009 960.573L712.798 961.467L978.859 429.345C995.862 395.34 994.959 355.127 976.446 321.919L811.776 26.5327L810.03 27.5073ZM794.03 27.5073L958.699 322.893C976.89 355.524 977.777 395.036 961.07 428.451L695.009 960.573L696.798 961.467L962.859 429.345C979.862 395.34 978.959 355.127 960.446 321.919L795.776 26.5327L794.03 27.5073ZM778.03 27.5073L942.699 322.893C960.89 355.524 961.777 395.036 945.07 428.451L679.009 960.573L680.798 961.467L946.859 429.345C963.862 395.34 962.959 355.127 944.446 321.919L779.776 26.5327L778.03 27.5073ZM762.03 27.5073L926.699 322.893C944.89 355.524 945.777 395.036 929.07 428.451L663.009 960.573L664.798 961.467L930.859 429.345C947.862 395.34 946.959 355.127 928.446 321.919L763.776 26.5327L762.03 27.5073ZM746.03 27.5073L910.699 322.893C928.89 355.524 929.777 395.036 913.07 428.451L647.009 960.573L648.798 961.467L914.859 429.345C931.862 395.34 930.959 355.127 912.446 321.919L747.776 26.5327L746.03 27.5073ZM730.03 27.5073L894.699 322.893C912.89 355.524 913.777 395.036 897.07 428.451L631.009 960.573L632.798 961.467L898.859 429.345C915.862 395.34 914.959 355.127 896.446 321.919L731.776 26.5327L730.03 27.5073ZM714.03 27.5073L878.699 322.893C896.89 355.524 897.777 395.036 881.07 428.451L615.009 960.573L616.798 961.467L882.859 429.345C899.862 395.34 898.959 355.127 880.446 321.919L715.776 26.5327L714.03 27.5073ZM698.03 27.5073L862.699 322.893C880.89 355.524 881.777 395.036 865.07 428.451L599.009 960.573L600.798 961.467L866.859 429.345C883.862 395.34 882.959 355.127 864.446 321.919L699.776 26.5327L698.03 27.5073ZM682.03 27.5073L846.699 322.893C864.89 355.524 865.777 395.036 849.07 428.451L583.009 960.573L584.798 961.467L850.859 429.345C867.862 395.34 866.959 355.127 848.446 321.919L683.776 26.5327L682.03 27.5073ZM666.03 27.5073L830.699 322.893C848.89 355.524 849.777 395.036 833.07 428.451L567.009 960.573L568.798 961.467L834.859 429.345C851.862 395.34 850.959 355.127 832.446 321.919L667.776 26.5327L666.03 27.5073ZM650.03 27.5073L814.699 322.893C832.89 355.524 833.777 395.036 817.07 428.451L551.009 960.573L552.798 961.467L818.859 429.345C835.862 395.34 834.959 355.127 816.446 321.919L651.776 26.5327L650.03 27.5073ZM634.03 27.5073L798.699 322.893C816.89 355.524 817.777 395.036 801.07 428.451L535.009 960.573L536.798 961.467L802.859 429.345C819.862 395.34 818.959 355.127 800.446 321.919L635.776 26.5327L634.03 27.5073ZM618.03 27.5073L782.699 322.893C800.89 355.524 801.777 395.036 785.07 428.451L519.009 960.573L520.798 961.467L786.859 429.345C803.862 395.34 802.959 355.127 784.446 321.919L619.776 26.5327L618.03 27.5073ZM602.03 27.5073L766.699 322.893C784.89 355.524 785.777 395.036 769.07 428.451L503.009 960.573L504.798 961.467L770.859 429.345C787.862 395.34 786.959 355.127 768.446 321.919L603.776 26.5327L602.03 27.5073ZM586.03 27.5073L750.699 322.893C768.89 355.524 769.777 395.036 753.07 428.451L487.009 960.573L488.798 961.467L754.859 429.345C771.862 395.34 770.959 355.127 752.446 321.919L587.776 26.5327L586.03 27.5073ZM570.03 27.5073L734.699 322.893C752.89 355.524 753.777 395.036 737.07 428.451L471.009 960.573L472.798 961.467L738.859 429.345C755.862 395.34 754.959 355.127 736.446 321.919L571.776 26.5327L570.03 27.5073ZM554.03 27.5073L718.699 322.893C736.89 355.524 737.777 395.036 721.07 428.451L455.009 960.573L456.798 961.467L722.859 429.345C739.862 395.34 738.959 355.127 720.446 321.919L555.776 26.5327L554.03 27.5073ZM538.03 27.5073L702.699 322.893C720.89 355.524 721.777 395.036 705.07 428.451L439.009 960.573L440.798 961.467L706.859 429.345C723.862 395.34 722.959 355.127 704.446 321.919L539.776 26.5327L538.03 27.5073ZM522.03 27.5073L686.699 322.893C704.89 355.524 705.777 395.036 689.07 428.451L423.009 960.573L424.798 961.467L690.859 429.345C707.862 395.34 706.959 355.127 688.446 321.919L523.776 26.5327L522.03 27.5073ZM506.03 27.5073L670.699 322.893C688.89 355.524 689.777 395.036 673.07 428.451L407.009 960.573L408.798 961.467L674.859 429.345C691.862 395.34 690.959 355.127 672.446 321.919L507.776 26.5327L506.03 27.5073ZM490.03 27.5073L654.699 322.893C672.89 355.524 673.777 395.036 657.07 428.451L391.009 960.573L392.798 961.467L658.859 429.345C675.862 395.34 674.959 355.127 656.446 321.919L491.776 26.5327L490.03 27.5073ZM474.03 27.5073L638.699 322.893C656.89 355.524 657.777 395.036 641.07 428.451L375.009 960.573L376.798 961.467L642.859 429.345C659.862 395.34 658.959 355.127 640.446 321.919L475.776 26.5327L474.03 27.5073ZM458.03 27.5073L622.699 322.893C640.89 355.524 641.777 395.036 625.07 428.451L359.009 960.573L360.798 961.467L626.859 429.345C643.862 395.34 642.959 355.127 624.446 321.919L459.776 26.5327L458.03 27.5073ZM442.03 27.5073L606.699 322.893C624.89 355.524 625.777 395.036 609.07 428.451L343.009 960.573L344.798 961.467L610.859 429.345C627.862 395.34 626.959 355.127 608.446 321.919L443.776 26.5327L442.03 27.5073ZM426.03 27.5073L590.699 322.893C608.89 355.524 609.777 395.036 593.07 428.451L327.009 960.573L328.798 961.467L594.859 429.345C611.862 395.34 610.959 355.127 592.446 321.919L427.776 26.5327L426.03 27.5073ZM410.03 27.5073L574.699 322.893C592.89 355.524 593.777 395.036 577.07 428.451L311.009 960.573L312.798 961.467L578.859 429.345C595.862 395.34 594.959 355.127 576.446 321.919L411.776 26.5327L410.03 27.5073ZM394.03 27.5073L558.699 322.893C576.89 355.524 577.777 395.036 561.07 428.451L295.009 960.573L296.798 961.467L562.859 429.345C579.862 395.34 578.959 355.127 560.446 321.919L395.776 26.5327L394.03 27.5073ZM378.03 27.5073L542.699 322.893C560.89 355.524 561.777 395.036 545.07 428.451L279.009 960.573L280.798 961.467L546.859 429.345C563.862 395.34 562.959 355.127 544.446 321.919L379.776 26.5327L378.03 27.5073ZM362.03 27.5073L526.699 322.893C544.89 355.524 545.777 395.036 529.07 428.451L263.009 960.573L264.798 961.467L530.859 429.345C547.862 395.34 546.959 355.127 528.446 321.919L363.776 26.5327L362.03 27.5073ZM346.03 27.5073L510.699 322.893C528.89 355.524 529.777 395.036 513.07 428.451L247.009 960.573L248.798 961.467L514.859 429.345C531.862 395.34 530.959 355.127 512.446 321.919L347.776 26.5327L346.03 27.5073ZM330.03 27.5073L494.699 322.893C512.89 355.524 513.777 395.036 497.07 428.451L231.009 960.573L232.798 961.467L498.859 429.345C515.862 395.34 514.959 355.127 496.446 321.919L331.776 26.5327L330.03 27.5073ZM314.03 27.5073L478.699 322.893C496.89 355.524 497.777 395.036 481.07 428.451L215.009 960.573L216.798 961.467L482.859 429.345C499.862 395.34 498.959 355.127 480.446 321.919L315.776 26.5327L314.03 27.5073ZM298.03 27.5073L462.699 322.893C480.89 355.524 481.777 395.036 465.07 428.451L199.009 960.573L200.798 961.467L466.859 429.345C483.862 395.34 482.959 355.127 464.446 321.919L299.776 26.5327L298.03 27.5073ZM282.03 27.5073L446.699 322.893C464.89 355.524 465.777 395.036 449.07 428.451L183.009 960.573L184.798 961.467L450.859 429.345C467.862 395.34 466.959 355.127 448.446 321.919L283.776 26.5327L282.03 27.5073ZM266.03 27.5073L430.699 322.893C448.89 355.524 449.777 395.036 433.07 428.451L167.009 960.573L168.798 961.467L434.859 429.345C451.862 395.34 450.959 355.127 432.446 321.919L267.776 26.5327L266.03 27.5073ZM250.03 27.5073L414.699 322.893C432.89 355.524 433.777 395.036 417.07 428.451L151.009 960.573L152.798 961.467L418.859 429.345C435.862 395.34 434.959 355.127 416.446 321.919L251.776 26.5327L250.03 27.5073ZM234.03 27.5073L398.699 322.893C416.89 355.524 417.777 395.036 401.07 428.451L135.009 960.573L136.798 961.467L402.859 429.345C419.862 395.34 418.959 355.127 400.446 321.919L235.776 26.5327L234.03 27.5073ZM218.03 27.5073L382.699 322.893C400.89 355.524 401.777 395.036 385.07 428.451L119.009 960.573L120.798 961.467L386.859 429.345C403.862 395.34 402.959 355.127 384.446 321.919L219.776 26.5327L218.03 27.5073ZM202.03 27.5073L366.699 322.893C384.89 355.524 385.777 395.036 369.07 428.451L103.009 960.573L104.798 961.467L370.859 429.345C387.862 395.34 386.959 355.127 368.446 321.919L203.776 26.5327L202.03 27.5073ZM186.03 27.5073L350.699 322.893C368.89 355.524 369.777 395.036 353.07 428.451L87.0087 960.573L88.7977 961.467L354.859 429.345C371.862 395.34 370.959 355.127 352.446 321.919L187.776 26.5327L186.03 27.5073ZM170.03 27.5073L334.699 322.893C352.89 355.524 353.777 395.036 337.07 428.451L71.0087 960.573L72.7977 961.467L338.859 429.345C355.862 395.34 354.959 355.127 336.446 321.919L171.776 26.5327L170.03 27.5073ZM154.03 27.5073L318.699 322.893C336.89 355.524 337.777 395.036 321.07 428.451L55.0087 960.573L56.7977 961.467L322.859 429.345C339.862 395.34 338.959 355.127 320.446 321.919L155.776 26.5327L154.03 27.5073ZM138.03 27.5073L302.699 322.893C320.89 355.524 321.777 395.036 305.07 428.451L39.0087 960.573L40.7977 961.467L306.859 429.345C323.862 395.34 322.959 355.127 304.446 321.919L139.776 26.5327L138.03 27.5073ZM122.03 27.5073L286.699 322.893C304.89 355.524 305.777 395.036 289.07 428.451L23.0087 960.573L24.7977 961.467L290.859 429.345C307.862 395.34 306.959 355.127 288.446 321.919L123.776 26.5327L122.03 27.5073ZM106.03 27.5073L270.699 322.893C288.89 355.524 289.777 395.036 273.07 428.451L7.00867 960.573L8.79773 961.467L274.859 429.345C291.862 395.34 290.958 355.127 272.446 321.919L107.776 26.5327L106.03 27.5073ZM90.0302 27.5073L254.699 322.893C272.89 355.524 273.777 395.036 257.07 428.451L-8.99133 960.573L-7.20227 961.467L258.859 429.345C275.862 395.34 274.958 355.127 256.446 321.919L91.7762 26.5327L90.0302 27.5073ZM74.0302 27.5073L238.699 322.893C256.89 355.524 257.777 395.036 241.07 428.451L-24.9913 960.573L-23.2023 961.467L242.859 429.345C259.862 395.34 258.958 355.127 240.446 321.919L75.7762 26.5327L74.0302 27.5073ZM58.0302 27.5073L222.699 322.893C240.89 355.524 241.777 395.036 225.07 428.451L-40.9913 960.573L-39.2023 961.467L226.859 429.345C243.862 395.34 242.958 355.127 224.446 321.919L59.7762 26.5327L58.0302 27.5073ZM42.0302 27.5073L206.699 322.893C224.89 355.524 225.777 395.036 209.07 428.451L-56.9913 960.573L-55.2023 961.467L210.859 429.345C227.862 395.34 226.958 355.127 208.446 321.919L43.7762 26.5327L42.0302 27.5073ZM26.0302 27.5073L190.699 322.893C208.89 355.524 209.777 395.036 193.07 428.451L-72.9913 960.573L-71.2023 961.467L194.859 429.345C211.862 395.34 210.958 355.127 192.446 321.919L27.7762 26.5327L26.0302 27.5073ZM10.0302 27.5073L174.699 322.893C192.89 355.524 193.777 395.036 177.07 428.451L-88.9913 960.573L-87.2023 961.467L178.859 429.345C195.862 395.34 194.958 355.127 176.446 321.919L11.7762 26.5327L10.0302 27.5073ZM-5.96985 27.5073L158.699 322.893C176.89 355.524 177.777 395.036 161.07 428.451L-104.991 960.573L-103.202 961.467L162.859 429.345C179.862 395.34 178.958 355.127 160.446 321.919L-4.22375 26.5327L-5.96985 27.5073ZM-21.9698 27.5073L142.699 322.893C160.89 355.524 161.777 395.036 145.07 428.451L-120.991 960.573L-119.202 961.467L146.859 429.345C163.862 395.34 162.958 355.127 144.446 321.919L-20.2238 26.5327L-21.9698 27.5073ZM-37.9698 27.5073L126.699 322.893C144.89 355.524 145.777 395.036 129.07 428.451L-136.991 960.573L-135.202 961.467L130.859 429.345C147.862 395.34 146.958 355.127 128.446 321.919L-36.2238 26.5327L-37.9698 27.5073ZM-53.9698 27.5073L110.699 322.893C128.89 355.524 129.777 395.036 113.07 428.451L-152.991 960.573L-151.202 961.467L114.859 429.345C131.862 395.34 130.958 355.127 112.446 321.919L-52.2238 26.5327L-53.9698 27.5073ZM-69.9698 27.5073L94.6991 322.893C112.89 355.524 113.777 395.036 97.0702 428.451L-168.991 960.573L-167.202 961.467L98.8593 429.345C115.862 395.34 114.958 355.127 96.4462 321.919L-68.2238 26.5327L-69.9698 27.5073ZM-85.9698 27.5073L78.6991 322.893C96.8895 355.524 97.7773 395.036 81.0702 428.451L-184.991 960.573L-183.202 961.467L82.8593 429.345C99.8621 395.34 98.9585 355.127 80.4462 321.919L-84.2238 26.5327L-85.9698 27.5073ZM-101.97 27.5073L62.6991 322.893C80.8895 355.524 81.7773 395.036 65.0702 428.451L-200.991 960.573L-199.202 961.467L66.8593 429.345C83.8621 395.34 82.9585 355.127 64.4462 321.919L-100.224 26.5327L-101.97 27.5073ZM-117.97 27.5073L46.6991 322.893C64.8895 355.524 65.7773 395.036 49.0702 428.451L-216.991 960.573L-215.202 961.467L50.8593 429.345C67.8621 395.34 66.9585 355.127 48.4462 321.919L-116.224 26.5327L-117.97 27.5073ZM-133.97 27.5073L30.6991 322.893C48.8895 355.524 49.7773 395.036 33.0702 428.451L-232.991 960.573L-231.202 961.467L34.8593 429.345C51.8621 395.34 50.9585 355.127 32.4462 321.919L-132.224 26.5327L-133.97 27.5073ZM-149.97 27.5073L14.6991 322.893C32.8895 355.524 33.7773 395.036 17.0702 428.451L-248.991 960.573L-247.202 961.467L18.8593 429.345C35.8621 395.34 34.9585 355.127 16.4462 321.919L-148.224 26.5327L-149.97 27.5073ZM-165.97 27.5073L-1.3009 322.893C16.8895 355.524 17.7773 395.036 1.07019 428.451L-264.991 960.573L-263.202 961.467L2.85925 429.345C19.8621 395.34 18.9585 355.127 0.446167 321.919L-164.224 26.5327L-165.97 27.5073Z" fill="url(#paint0_radial_1971_497)" fill-opacity="0.5"/>
</g>
<defs>
<radialGradient id="paint0_radial_1971_497" cx="0" cy="0" r="1" gradientUnits="userSpaceOnUse" gradientTransform="translate(-40.5003 308.5) rotate(70.7079) scale(655.298 298.982)">
<stop stop-opacity="0"/>
<stop offset="0.456507" stop-color="#171C1E"/>
<stop offset="0.759596" stop-opacity="0"/>
</radialGradient>
</defs>
</svg>
