<svg width="32" height="32" viewBox="0 0 32 32" fill="none" xmlns="http://www.w3.org/2000/svg">
<path d="M15.995 19.329C17.8335 19.329 19.324 17.8385 19.324 16C19.324 14.1615 17.8335 12.671 15.995 12.671C14.1564 12.671 12.666 14.1615 12.666 16C12.666 17.8385 14.1564 19.329 15.995 19.329Z" class="logo-accent"/>
<path d="M9.84072 21.0949C7.02751 17.6959 7.50222 12.6589 10.9013 9.84574C11.8168 9.08718 12.8907 8.54362 14.0442 8.25252L22.5672 5.96959C17.0338 2.33501 9.60276 3.87388 5.96818 9.40607C3.43159 13.2677 3.33979 18.2431 5.73385 22.1941L9.84072 21.0937V21.0949Z" class="logo-accent"/>
<path d="M26.2573 9.80469L22.1504 10.9051C24.9636 14.3041 24.4889 19.3411 21.0899 22.1543C20.1743 22.9128 19.1004 23.4564 17.9469 23.7475L9.42395 26.0304C14.9561 29.665 22.3871 28.1261 26.0205 22.5939C28.5571 18.7323 28.6489 13.7569 26.2548 9.8059L26.2573 9.80469Z" class="logo-accent"/>
</svg>
