<svg width="32" height="32" viewBox="0 0 32 32" fill="none" xmlns="http://www.w3.org/2000/svg">
<path d="M22.0006 17.2004V14.8008H18.4007V17.2004C18.4007 17.8623 17.8623 18.4007 17.2004 18.4007H8.80025C8.13831 18.4007 7.59988 17.8623 7.59988 17.2004V8.80024C7.59988 8.1383 8.13831 7.59988 8.80025 7.59988H17.2004C17.8623 7.59988 18.4007 8.1383 18.4007 8.80024H22.0006C22.0006 6.15369 19.8469 4 17.2004 4H8.80025C6.15369 4 4 6.15369 4 8.80024V17.2004C4 19.8469 6.15369 22.0006 8.80025 22.0006H17.2004C19.8469 22.0006 22.0006 19.8469 22.0006 17.2004Z" class="logo-accent"/>
<path d="M23.1998 9.99951H14.7996C12.1531 9.99951 9.99939 12.1532 9.99939 14.7998V17.1993H13.5993V14.7998C13.5993 14.1378 14.1377 13.5994 14.7996 13.5994H23.1998C23.8617 13.5994 24.4001 14.1378 24.4001 14.7998V23.1999C24.4001 23.8618 23.8617 24.4002 23.1998 24.4002H14.7996C14.1377 24.4002 13.5993 23.8618 13.5993 23.1999H9.99939C9.99939 25.8464 12.1531 28.0001 14.7996 28.0001H23.1998C25.8463 28.0001 28 25.8464 28 23.1999V14.7998C28 12.1532 25.8463 9.99951 23.1998 9.99951Z" class="logo-accent"/>
</svg>
