<svg width="385.21" height="30.89" viewBox="12 8.55 385.21 30.89" fill="none" xmlns="http://www.w3.org/2000/svg">
<path d="M22.8188 33.1485L25.3228 23.986L21.1766 8.55499H12L20.1941 39.445H29.4353L27.7706 33.2187L22.8188 33.1485Z" fill="#0063A3"/>
<path d="M30.968 8.55499L26.8442 23.986L28.9356 31.5709H34.0025L40.2288 8.55499H30.968Z" fill="#0063A3"/>
<path d="M57.0167 31.2018L50.229 11.5994H53.5976L58.6252 26.8338H58.6786L63.7988 11.6106H66.912L60.1299 31.213L57.0167 31.2018Z" fill="#171C1E"/>
<path d="M68.8208 14.687V11.863H72.1473V14.687H68.8208ZM68.8489 31.123V17.1124H72.1248V31.123H68.8489Z" fill="#171C1E"/>
<path d="M74.4434 24.133C74.4434 18.7994 78.2162 16.8484 81.1188 16.8484C84.2572 16.8484 87.2665 18.7236 87.2665 24.4277V25.1941H77.6884C77.8204 27.7205 79.3727 28.8434 81.4332 28.8434C83.255 28.8434 84.3105 28.2342 85.3632 27.2068L87.0784 28.8911C85.6271 30.5024 83.7098 31.4176 81.1833 31.4176C77.6884 31.4147 74.4434 29.2757 74.4434 24.133ZM84.2853 22.7603C84.1 20.6212 83.0445 19.4871 81.0907 19.4871C79.5075 19.4871 78.0562 20.3854 77.7418 22.7603H84.2853Z" fill="#171C1E"/>
<path d="M91.9211 31.1231L87.7524 17.1125H91.0509L92.5808 22.9178C93.0018 24.501 93.2657 25.5818 93.6362 27.3783H93.6896C94.1107 25.4779 94.3493 24.4757 94.7956 22.8644L96.2666 17.1125H98.9053L100.477 22.9711C100.926 24.5263 101.165 25.5818 101.561 27.3783H101.6C102.021 25.5565 102.26 24.5543 102.706 23.0244L104.289 17.1125H107.245L103.077 31.1231H100.048L97.5214 21.3879H97.468L94.9416 31.1231H91.9211Z" fill="#171C1E"/>
<path d="M108.898 36.4006V17.1126H112.155V18.9738C112.69 18.3081 113.369 17.7724 114.141 17.4068C114.913 17.0412 115.758 16.8552 116.613 16.8628C119.807 16.8628 122.154 19.2629 122.154 24.1193C122.154 28.9757 119.754 31.3253 116.163 31.3253C115.408 31.3311 114.66 31.1765 113.969 30.8716C113.278 30.5668 112.66 30.1186 112.155 29.5568V36.3894L108.898 36.4006ZM118.898 24.1333C118.898 21.1774 117.632 19.6194 115.546 19.6194C114.201 19.6194 112.907 20.4616 112.144 21.3879V27.0022C112.526 27.5228 113.021 27.9499 113.593 28.2513C114.164 28.5528 114.796 28.7208 115.442 28.7427C117.907 28.7483 118.909 27.2465 118.909 24.1333H118.898Z" fill="#171C1E"/>
<path d="M123.776 24.133C123.776 18.9594 127.179 16.8484 130.609 16.8484C134.039 16.8484 137.442 18.9594 137.442 24.133C137.442 29.2504 134.014 31.4147 130.609 31.4147C127.204 31.4147 123.776 29.2504 123.776 24.133ZM134.163 24.133C134.163 21.5195 133.054 19.6191 130.601 19.6191C128.254 19.6191 127.038 21.3034 127.038 24.133C127.038 26.797 128.122 28.6974 130.601 28.6974C132.956 28.6974 134.163 27.0075 134.163 24.133Z" fill="#171C1E"/>
<path d="M139.777 14.687V11.863H143.09V14.687H139.777ZM139.803 31.123V17.1124H143.076V31.123H139.803Z" fill="#171C1E"/>
<path d="M146.113 31.1232V17.1126H149.358V19.3584C150.414 18.1457 152.05 16.8516 154.372 16.8516C156.932 16.8516 158.515 18.1709 158.515 20.9416V31.126H155.27V21.8623C155.27 20.3324 154.636 19.5408 153.159 19.5408C151.733 19.5408 150.546 20.2538 149.358 21.3599V31.1232H146.113Z" fill="#171C1E"/>
<path d="M162.555 27.4568V19.6978H160.127V17.1124H162.555V12.2363H165.8V17.1124H169.413V19.6978H165.8V26.6371C165.8 28.1417 166.247 28.7481 167.858 28.7481C168.332 28.7495 168.804 28.6881 169.261 28.5656V31.1229C168.476 31.2433 167.682 31.3052 166.887 31.3082C163.319 31.3082 162.555 29.9888 162.555 27.4568Z" fill="#171C1E"/>
<path d="M179.413 14.2396H181.342L187.172 31.2846H187.225L193.081 14.2396H194.903L188.054 33.842H186.285L179.413 14.2396Z" fill="#171C1E"/>
<path d="M197.317 14.6859H199.243V16.6509H197.317V14.6859ZM197.368 19.8594H199.19V33.7633H197.368V19.8594Z" fill="#171C1E"/>
<path d="M201.688 31.5485L202.847 30.493C203.369 31.134 204.03 31.6476 204.78 31.9949C205.53 32.3422 206.35 32.514 207.176 32.4974C209.551 32.4974 210.792 31.6271 210.792 30.0692C210.792 28.5112 209.669 27.9329 206.965 27.2985C203.771 26.5069 202.137 25.6647 202.137 23.2365C202.137 21.2715 203.852 19.5872 206.859 19.5872C209.234 19.5872 210.764 20.3788 212.004 21.5915L210.974 22.8042C210.45 22.2566 209.819 21.8222 209.12 21.5277C208.422 21.2332 207.67 21.0849 206.912 21.0919C204.748 21.0919 203.903 22.094 203.903 23.1495C203.903 24.4941 204.854 25.05 207.271 25.6282C210.755 26.4704 212.549 27.3125 212.549 30.0355C212.549 32.5619 210.281 34.0188 207.139 34.0188C204.669 34.0273 202.743 32.9718 201.688 31.5485Z" fill="#171C1E"/>
<path d="M216.504 30.518V21.4144H214.076V19.8592H216.504V14.8765H218.323V19.8592H221.939V21.4144H218.323V30.1503C218.323 31.6269 218.801 32.4185 220.513 32.4185C221.003 32.4305 221.493 32.3681 221.964 32.2332V33.7912C221.372 33.8921 220.772 33.9447 220.171 33.9484C217.507 33.9484 216.504 32.9182 216.504 30.518Z" fill="#171C1E"/>
<path d="M223.82 30.5179C223.82 27.7753 226.169 25.7682 233.241 24.6875V23.9744C233.241 22.0487 232.239 21.1252 230.417 21.1252C228.227 21.1252 226.672 22.0487 225.221 23.3148L224.244 22.1919C225.906 20.662 227.831 19.6065 230.577 19.6065C233.69 19.6065 235.034 21.2683 235.034 24.039V30.3439C235.034 32.0282 235.141 33.0612 235.43 33.7742H233.558C233.346 33.1361 233.238 32.4677 233.241 31.7952C231.632 33.2465 229.836 34.0129 227.753 34.0129C225.271 34.0016 223.82 32.6823 223.82 30.5179ZM233.249 30.3158V25.9788C227.287 26.9837 225.625 28.4603 225.625 30.2821C225.625 31.7334 226.599 32.497 228.151 32.497C230.099 32.497 231.815 31.6801 233.249 30.3158Z" fill="#171C1E"/>
<path d="M245.457 14.2396H256.882V15.98H247.338V22.7172H254.409V24.4015H247.332V33.769H245.457V14.2396Z" fill="#171C1E"/>
<path d="M259.355 14.6859H261.281V16.6509H259.355V14.6859ZM259.409 19.8594H261.231V33.7633H259.409V19.8594Z" fill="#171C1E"/>
<path d="M264.041 26.7985C264.041 21.8635 267.207 19.5953 270.135 19.5953C273.38 19.5953 275.808 22.074 275.808 26.8237V27.1662H265.86C265.888 30.5965 267.839 32.5223 270.239 32.5223C272.324 32.5223 273.512 31.6268 274.567 29.9958L275.69 30.8941C274.478 32.8591 272.762 34.0606 270.124 34.0606C266.89 34.055 264.041 31.5482 264.041 26.7985ZM274.04 25.7149C273.854 23.079 272.588 21.1252 270.11 21.1252C268.105 21.1252 266.233 22.5765 265.899 25.7149H274.04Z" fill="#171C1E"/>
<path d="M278.725 14.2396H280.544V33.7634H278.725V14.2396Z" fill="#171C1E"/>
<path d="M283.452 26.8241C283.452 21.9705 286.012 19.5956 289.347 19.5956C291.141 19.5956 292.752 20.5444 293.839 21.7599V14.2396H295.658V30.333C295.658 32.0173 295.764 33.0503 296.082 33.7634H294.156C293.952 33.1059 293.845 32.4222 293.839 31.7338C292.716 32.9465 291.279 34.002 289.196 34.002C285.984 34.002 283.452 31.6805 283.452 26.8241ZM293.822 30.1758V23.4218C292.449 21.9424 291.104 21.1255 289.493 21.1255C287.04 21.1255 285.282 22.9193 285.282 26.8521C285.282 30.6783 287.18 32.444 289.493 32.444C291.208 32.444 292.502 31.5738 293.822 30.1758Z" fill="#171C1E"/>
<path d="M305.247 28.9631L306.909 28.3539C307.782 31.0712 309.761 32.472 312.504 32.472C315.431 32.472 317.332 31.1246 317.332 28.935C317.332 26.9026 316.355 25.8752 312.214 24.5558C308.004 23.2365 305.881 22.1024 305.881 18.8825C305.881 16.0754 308.388 13.869 311.951 13.869C315.617 13.869 317.728 15.7413 318.651 18.3604L317.068 19.0875C316.091 16.561 314.379 15.5533 311.923 15.5533C309.312 15.5533 307.729 16.9568 307.729 18.745C307.729 20.9346 309.02 21.6729 313.138 22.9922C317.2 24.2863 319.207 25.631 319.207 28.7974C319.207 32.0425 316.33 34.131 312.425 34.131C308.762 34.1339 306.171 32.1267 305.247 28.9631Z" fill="#171C1E"/>
<path d="M321.551 26.7985C321.551 21.8635 324.717 19.5953 327.648 19.5953C330.893 19.5953 333.321 22.074 333.321 26.8237V27.1662H323.373C323.398 30.5965 325.338 32.5223 327.752 32.5223C329.838 32.5223 331.025 31.6268 332.08 29.9958L333.203 30.8941C331.991 32.8591 330.275 34.0606 327.637 34.0606C324.403 34.055 321.551 31.5482 321.551 26.7985ZM331.553 25.7149C331.367 23.079 330.101 21.1252 327.623 21.1252C325.618 21.1252 323.746 22.5765 323.412 25.7149H331.553Z" fill="#171C1E"/>
<path d="M336.123 19.8591H337.956V22.6017H338.009C339.093 20.8866 340.78 19.5953 343.526 19.5953H343.843L343.657 21.2796L343.096 21.2543C340.828 21.2543 339.034 22.5203 337.951 24.7099V33.7602H336.131L336.123 19.8591Z" fill="#171C1E"/>
<path d="M345.325 19.8594H347.29L351.408 31.6018H351.458L355.548 19.8594H357.395L352.272 33.8166H350.451L345.325 19.8594Z" fill="#171C1E"/>
<path d="M359.588 14.6859H361.514V16.6509H359.588V14.6859ZM359.641 19.8594H361.463V33.7633H359.641V19.8594Z" fill="#171C1E"/>
<path d="M364.276 26.8237C364.276 21.8382 367.364 19.5953 370.477 19.5953C373.458 19.5953 374.937 21.361 375.81 23.3934L374.253 24.0811C373.489 22.2059 372.38 21.1504 370.429 21.1504C368.369 21.1504 366.101 22.6298 366.101 26.7985C366.101 30.4478 367.948 32.497 370.376 32.497C372.302 32.497 373.382 31.6015 374.359 29.541L375.836 30.1755C374.73 32.5223 373.118 34.055 370.297 34.055C367.1 34.055 364.276 31.4387 364.276 26.8237Z" fill="#171C1E"/>
<path d="M377.624 26.7985C377.624 21.8635 380.79 19.5953 383.718 19.5953C386.963 19.5953 389.392 22.074 389.392 26.8237V27.1662H379.443C379.471 30.5965 381.408 32.5223 383.825 32.5223C385.908 32.5223 387.095 31.6268 388.151 29.9958L389.274 30.8941C388.061 32.8591 386.346 34.0606 383.707 34.0606C380.473 34.055 377.624 31.5482 377.624 26.7985ZM387.623 25.7149C387.438 23.079 386.172 21.1252 383.693 21.1252C381.686 21.1252 379.814 22.5765 379.482 25.7149H387.623Z" fill="#171C1E"/>
<path d="M390.978 14.6465H389.717V14.1973H392.735V14.6465H391.483V18.2453H390.978V14.6465ZM393.451 14.1973H394.099L395.312 17.5659L396.544 14.1973H397.212V18.2453H396.696V15.0647L395.531 18.2453H395.101L393.928 15.076V18.2453H393.451V14.1973Z" fill="#171C1E"/>
</svg>
