<svg width="130" height="30" viewBox="0 0 130 30" fill="none" xmlns="http://www.w3.org/2000/svg">
<path d="M3.65277 7.8974H2.0514V1.78668H0V0.476562H5.70418V1.78595H3.65277V7.89666V7.8974Z" class="logo-accent"/>
<path d="M8.56749 2.11597C8.647 2.11597 8.7385 2.12039 8.84426 2.1285C8.94927 2.13734 9.03478 2.14766 9.10003 2.16166L8.98152 3.61325C8.92977 3.59631 8.85626 3.58378 8.76175 3.57494C8.66725 3.56683 8.58549 3.56241 8.51648 3.56241C8.31322 3.56241 8.11596 3.5882 7.92469 3.63831C7.73343 3.68915 7.56241 3.77094 7.4109 3.88442C7.25939 3.99789 7.13938 4.14673 7.05163 4.33095C6.96387 4.51516 6.91962 4.74137 6.91962 5.00885V7.89657H5.34375V2.22281H6.53709L6.76961 3.17704H6.84686C6.96087 2.98398 7.10263 2.80714 7.27289 2.6465C7.44316 2.48587 7.63817 2.35692 7.85644 2.26039C8.07545 2.16387 8.31172 2.11523 8.56674 2.11523L8.56749 2.11597Z" class="logo-accent"/>
<path d="M10.2284 0C10.4624 0 10.6642 0.0530533 10.833 0.159897C11.0017 0.26674 11.0865 0.464954 11.0865 0.75601C11.0865 1.04707 11.0017 1.24233 10.833 1.35212C10.6642 1.46191 10.4624 1.51718 10.2284 1.51718C9.99439 1.51718 9.78812 1.46191 9.62161 1.35212C9.45435 1.24233 9.37109 1.04338 9.37109 0.75601C9.37109 0.468638 9.45435 0.266004 9.62161 0.159897C9.78887 0.0530533 9.99139 0 10.2284 0ZM11.0137 2.22308V7.89758H9.43785V2.22308H11.0137Z" class="logo-accent"/>
<path d="M18.7239 2.11621C19.378 2.11621 19.8738 2.28127 20.209 2.61138C20.5451 2.94148 20.7131 3.46981 20.7131 4.19782V7.89755H19.132V4.58319C19.132 4.17719 19.0615 3.87066 18.9204 3.66434C18.7794 3.45802 18.5604 3.35486 18.2641 3.35486C17.8471 3.35486 17.5508 3.50149 17.3753 3.79402C17.1998 4.08655 17.1121 4.50508 17.1121 5.05035V7.89755H15.5362V4.58319C15.5362 4.31277 15.5054 4.08582 15.4432 3.90308C15.3809 3.72034 15.2864 3.58328 15.1589 3.49191C15.0314 3.40054 14.8679 3.35486 14.6684 3.35486C14.3759 3.35486 14.1456 3.42707 13.9783 3.57076C13.8111 3.71444 13.6926 3.92592 13.6221 4.20519C13.5515 4.48445 13.5163 4.82488 13.5163 5.22794V7.89755H11.9404V2.22305H13.1443L13.3558 2.94885H13.4435C13.5605 2.75285 13.7076 2.59369 13.8853 2.47211C14.0623 2.35053 14.2581 2.26063 14.4719 2.20316C14.6856 2.14569 14.9024 2.11695 15.1229 2.11695C15.5467 2.11695 15.906 2.18474 16.2 2.32032C16.4948 2.4559 16.7213 2.66517 16.8795 2.94959H17.0191C17.1916 2.65853 17.4346 2.44706 17.7504 2.31516C18.0654 2.18326 18.3902 2.11695 18.7239 2.11695V2.11621Z" class="logo-accent"/>
<path d="M23.1845 0V1.83771C23.1845 2.05066 23.1785 2.26213 23.1665 2.47214C23.1545 2.68214 23.1395 2.84425 23.1222 2.9592H23.1845C23.336 2.72561 23.543 2.52666 23.8048 2.36308C24.0666 2.19877 24.4056 2.11698 24.8226 2.11698C25.4699 2.11698 25.9957 2.36603 26.3985 2.86341C26.8013 3.36078 27.003 4.09026 27.003 5.05112C27.003 5.69734 26.91 6.23966 26.724 6.67809C26.538 7.11651 26.2777 7.44662 25.9439 7.66768C25.6102 7.88947 25.2224 8 24.7814 8C24.3403 8 24.0238 7.92558 23.7793 7.77673C23.5348 7.62789 23.3368 7.46062 23.1852 7.2742H23.0765L22.8132 7.89831H21.6094V0H23.1852H23.1845ZM24.3156 3.35489C24.0403 3.35489 23.8213 3.41089 23.6593 3.52215C23.4973 3.63415 23.3795 3.80142 23.3053 4.02468C23.231 4.24795 23.1905 4.5309 23.1837 4.87206V5.03933C23.1837 5.59123 23.2662 6.01345 23.432 6.30598C23.597 6.59851 23.8985 6.74514 24.3358 6.74514C24.6599 6.74514 24.9171 6.59777 25.1084 6.30377C25.2997 6.00903 25.3949 5.5846 25.3949 5.02975C25.3949 4.4749 25.2981 4.05711 25.1054 3.77563C24.9126 3.49489 24.6486 3.35415 24.3148 3.35415L24.3156 3.35489Z" class="logo-accent"/>
<path d="M29.2272 7.89758H27.6514V0H29.2272V7.89758Z" class="logo-accent"/>
<path d="M32.5881 2.11621C33.1222 2.11621 33.582 2.21716 33.9675 2.41832C34.353 2.61948 34.6508 2.91127 34.8616 3.2937C35.0716 3.67613 35.1766 4.14329 35.1766 4.69446V5.44531H31.4518C31.4691 5.88226 31.6026 6.22416 31.8523 6.47322C32.1021 6.72153 32.4494 6.84606 32.8934 6.84606C33.2617 6.84606 33.5992 6.80922 33.906 6.7348C34.2128 6.66038 34.5278 6.54837 34.8518 6.39953V7.59765C34.566 7.73618 34.2668 7.83786 33.9555 7.90197C33.6435 7.96608 33.2654 7.9985 32.8214 7.9985C32.2431 7.9985 31.7301 7.89387 31.2845 7.68386C30.8383 7.47386 30.4887 7.15407 30.236 6.72448C29.9825 6.2949 29.8564 5.75331 29.8564 5.10046C29.8564 4.44761 29.9712 3.88466 30.2 3.44328C30.4287 3.00191 30.7483 2.67032 31.1585 2.44853C31.5681 2.22674 32.0451 2.11621 32.5896 2.11621H32.5881ZM32.5986 3.2178C32.2919 3.2178 32.0384 3.31433 31.8366 3.50739C31.6348 3.69971 31.5186 4.00329 31.4878 4.41593H33.699C33.6952 4.18603 33.6532 3.98118 33.5722 3.80139C33.4912 3.62234 33.3705 3.48012 33.2107 3.37475C33.0502 3.27012 32.8462 3.2178 32.5986 3.2178Z" class="logo-accent"/>
<path d="M35.5782 7.23467C35.5737 6.85298 35.8849 6.53982 36.2735 6.53613C36.2787 6.53613 36.284 6.53613 36.2892 6.53613C36.6823 6.53613 37.0003 6.8493 37.0003 7.23467C37.0003 7.62078 36.6815 7.9332 36.2892 7.9332C35.8962 7.9332 35.5782 7.62004 35.5782 7.23467ZM36.8713 7.23467C36.8653 6.91782 36.5997 6.66508 36.2772 6.67098C35.9547 6.67687 35.6974 6.93772 35.7034 7.25456C35.7087 7.56846 35.9705 7.81973 36.29 7.81825C36.611 7.81825 36.872 7.56257 36.872 7.24646C36.872 7.24204 36.872 7.23835 36.872 7.23393L36.8713 7.23467ZM36.0132 6.83677H36.3042C36.488 6.83677 36.5952 6.91487 36.5952 7.07109C36.6042 7.16983 36.5405 7.2612 36.443 7.28772L36.611 7.60162H36.4482L36.2915 7.30909H36.1685V7.60162H36.0125V6.83677H36.0132ZM36.2952 7.19193C36.3905 7.19193 36.443 7.16172 36.443 7.07993C36.443 6.99814 36.3905 6.96793 36.2915 6.96793H36.1685V7.19119H36.2945L36.2952 7.19193Z" class="logo-accent"/>
<path d="M9.10547 21.502C9.10547 22.2637 8.91797 22.9199 8.54297 23.4707C8.17383 24.0215 7.64062 24.4434 6.94336 24.7363C6.25195 25.0293 5.42578 25.1758 4.46484 25.1758C3.99609 25.1758 3.54785 25.1494 3.12012 25.0967C2.69238 25.0439 2.28809 24.9678 1.90723 24.8682C1.53223 24.7627 1.18945 24.6367 0.878906 24.4902V22.5039C1.40039 22.7324 1.9834 22.9404 2.62793 23.1279C3.27246 23.3096 3.92871 23.4004 4.59668 23.4004C5.1416 23.4004 5.59277 23.3301 5.9502 23.1895C6.31348 23.043 6.58301 22.8379 6.75879 22.5742C6.93457 22.3047 7.02246 21.9912 7.02246 21.6338C7.02246 21.2529 6.91992 20.9307 6.71484 20.667C6.50977 20.4033 6.19922 20.1631 5.7832 19.9463C5.37305 19.7236 4.85742 19.4863 4.23633 19.2344C3.81445 19.0645 3.41016 18.8711 3.02344 18.6543C2.64258 18.4375 2.30273 18.1826 2.00391 17.8896C1.70508 17.5967 1.46777 17.251 1.29199 16.8525C1.12207 16.4482 1.03711 15.9736 1.03711 15.4287C1.03711 14.7021 1.20996 14.0811 1.55566 13.5654C1.90723 13.0498 2.39941 12.6543 3.03223 12.3789C3.6709 12.1035 4.41504 11.9658 5.26465 11.9658C5.93848 11.9658 6.57129 12.0361 7.16309 12.1768C7.76074 12.3174 8.34668 12.5166 8.9209 12.7744L8.25293 14.4707C7.72559 14.2539 7.21289 14.0811 6.71484 13.9521C6.22266 13.8232 5.71875 13.7588 5.20312 13.7588C4.75781 13.7588 4.37988 13.8262 4.06934 13.9609C3.75879 14.0957 3.52148 14.2861 3.35742 14.5322C3.19922 14.7725 3.12012 15.0596 3.12012 15.3936C3.12012 15.7686 3.21094 16.085 3.39258 16.3428C3.58008 16.5947 3.86719 16.8262 4.25391 17.0371C4.64648 17.248 5.15039 17.4824 5.76562 17.7402C6.47461 18.0332 7.0752 18.3408 7.56738 18.6631C8.06543 18.9854 8.44629 19.3721 8.70996 19.8232C8.97363 20.2686 9.10547 20.8281 9.10547 21.502ZM21.4682 15.0859C22.558 15.0859 23.3783 15.3672 23.9291 15.9297C24.4857 16.4922 24.7641 17.3945 24.7641 18.6367V25H22.6986V19.0059C22.6986 18.2676 22.5551 17.7109 22.268 17.3359C21.9809 16.9609 21.5443 16.7734 20.9584 16.7734C20.1381 16.7734 19.5463 17.0371 19.183 17.5645C18.8256 18.0859 18.6469 18.8447 18.6469 19.8408V25H16.5814V19.0059C16.5814 18.5137 16.517 18.1035 16.3881 17.7754C16.265 17.4414 16.0746 17.1924 15.8168 17.0283C15.559 16.8584 15.2338 16.7734 14.8412 16.7734C14.2729 16.7734 13.8188 16.9023 13.4789 17.1602C13.1449 17.418 12.9047 17.7988 12.7582 18.3027C12.6117 18.8008 12.5385 19.4131 12.5385 20.1396V25H10.473V15.2705H12.0814L12.3715 16.5801H12.4857C12.685 16.2402 12.9311 15.9619 13.224 15.7451C13.5229 15.5225 13.8539 15.3584 14.2172 15.2529C14.5805 15.1416 14.9584 15.0859 15.351 15.0859C16.0775 15.0859 16.6898 15.2148 17.1879 15.4727C17.6859 15.7246 18.058 16.1113 18.3041 16.6328H18.4623C18.767 16.1055 19.1918 15.7158 19.7367 15.4639C20.2816 15.2119 20.8588 15.0859 21.4682 15.0859ZM30.5613 15.0859C31.7918 15.0859 32.7205 15.3584 33.3475 15.9033C33.9803 16.4482 34.2967 17.2979 34.2967 18.4521V25H32.8289L32.4334 23.6201H32.3631C32.0877 23.9717 31.8035 24.2617 31.5105 24.4902C31.2176 24.7188 30.8777 24.8887 30.491 25C30.1102 25.1172 29.6443 25.1758 29.0936 25.1758C28.5135 25.1758 27.9949 25.0703 27.5379 24.8594C27.0809 24.6426 26.7205 24.3145 26.4568 23.875C26.1932 23.4355 26.0613 22.8789 26.0613 22.2051C26.0613 21.2031 26.4334 20.4502 27.1775 19.9463C27.9275 19.4424 29.0584 19.1641 30.5701 19.1113L32.2576 19.0498V18.54C32.2576 17.8662 32.0994 17.3857 31.783 17.0986C31.4725 16.8115 31.033 16.668 30.4646 16.668C29.9783 16.668 29.5066 16.7383 29.0496 16.8789C28.5926 17.0195 28.1473 17.1924 27.7137 17.3975L27.0457 15.9385C27.5203 15.6865 28.0594 15.4814 28.6629 15.3232C29.2723 15.165 29.9051 15.0859 30.5613 15.0859ZM32.2488 20.3506L30.992 20.3945C29.9607 20.4297 29.2371 20.6055 28.8211 20.9219C28.4051 21.2383 28.1971 21.6719 28.1971 22.2227C28.1971 22.7031 28.3406 23.0547 28.6277 23.2773C28.9148 23.4941 29.2928 23.6025 29.7615 23.6025C30.4764 23.6025 31.0682 23.4004 31.5369 22.9961C32.0115 22.5859 32.2488 21.9854 32.2488 21.1943V20.3506ZM41.2189 15.0859C41.383 15.0859 41.5617 15.0947 41.7551 15.1123C41.9484 15.1299 42.1154 15.1533 42.2561 15.1826L42.0627 17.1162C41.9396 17.0811 41.7873 17.0547 41.6057 17.0371C41.4299 17.0195 41.2717 17.0107 41.1311 17.0107C40.7619 17.0107 40.4104 17.0723 40.0764 17.1953C39.7424 17.3125 39.4465 17.4941 39.1887 17.7402C38.9309 17.9805 38.7287 18.2822 38.5822 18.6455C38.4357 19.0088 38.3625 19.4307 38.3625 19.9111V25H36.2883V15.2705H37.9055L38.1867 16.9844H38.2834C38.4768 16.6387 38.717 16.3223 39.0041 16.0352C39.2912 15.748 39.6193 15.5195 39.9885 15.3496C40.3635 15.1738 40.7736 15.0859 41.2189 15.0859ZM46.7789 23.5059C47.0484 23.5059 47.315 23.4824 47.5787 23.4355C47.8424 23.3828 48.0826 23.3213 48.2994 23.251V24.8154C48.0709 24.915 47.775 25 47.4117 25.0703C47.0484 25.1406 46.6705 25.1758 46.2779 25.1758C45.7271 25.1758 45.232 25.085 44.7926 24.9033C44.3531 24.7158 44.0045 24.3965 43.7467 23.9453C43.4889 23.4941 43.36 22.8701 43.36 22.0732V16.8438H42.0328V15.9209L43.4566 15.1914L44.1334 13.1084H45.4342V15.2705H48.2203V16.8438H45.4342V22.0469C45.4342 22.5391 45.5572 22.9053 45.8033 23.1455C46.0494 23.3857 46.3746 23.5059 46.7789 23.5059ZM68.56 12.1504L65.2025 25H62.8998L60.7553 17.3008C60.7025 17.1133 60.6439 16.8906 60.5795 16.6328C60.515 16.375 60.4506 16.1113 60.3861 15.8418C60.3275 15.5723 60.2748 15.3262 60.2279 15.1035C60.1869 14.875 60.1576 14.6992 60.14 14.5762C60.1283 14.6992 60.102 14.8721 60.0609 15.0947C60.0199 15.3174 59.9701 15.5635 59.9115 15.833C59.8588 16.0967 59.8002 16.3604 59.7357 16.624C59.6713 16.8818 59.6127 17.1104 59.56 17.3096L57.4506 25H55.1566L51.808 12.1504H53.9262L55.7807 19.6826C55.8393 19.9229 55.8979 20.1836 55.9564 20.4648C56.0209 20.7402 56.0795 21.0186 56.1322 21.2998C56.1908 21.5811 56.2436 21.8564 56.2904 22.126C56.3373 22.3896 56.3754 22.6299 56.4047 22.8467C56.434 22.624 56.4721 22.3779 56.5189 22.1084C56.5658 21.833 56.6156 21.5547 56.6684 21.2734C56.727 20.9863 56.7855 20.7109 56.8441 20.4473C56.9086 20.1836 56.973 19.9463 57.0375 19.7354L59.1293 12.1504H61.1859L63.3217 19.7617C63.3861 19.9785 63.4477 20.2217 63.5062 20.4912C63.5707 20.7607 63.6322 21.0361 63.6908 21.3174C63.7494 21.5986 63.8021 21.8711 63.849 22.1348C63.8959 22.3984 63.934 22.6357 63.9633 22.8467C64.0043 22.5596 64.057 22.2314 64.1215 21.8623C64.1859 21.4932 64.2592 21.1182 64.3412 20.7373C64.4232 20.3564 64.5053 20.0049 64.5873 19.6826L66.433 12.1504H68.56ZM77.8816 20.1133C77.8816 20.9219 77.7762 21.6396 77.5652 22.2666C77.3543 22.8936 77.0467 23.4238 76.6424 23.8574C76.2381 24.2852 75.7518 24.6133 75.1834 24.8418C74.615 25.0645 73.9734 25.1758 73.2586 25.1758C72.5906 25.1758 71.9783 25.0645 71.4217 24.8418C70.865 24.6133 70.3816 24.2852 69.9715 23.8574C69.5672 23.4238 69.2537 22.8936 69.0311 22.2666C68.8084 21.6396 68.6971 20.9219 68.6971 20.1133C68.6971 19.041 68.8816 18.1328 69.2508 17.3887C69.6258 16.6387 70.159 16.0674 70.8504 15.6748C71.5418 15.2822 72.365 15.0859 73.3201 15.0859C74.2166 15.0859 75.0076 15.2822 75.6932 15.6748C76.3787 16.0674 76.9148 16.6387 77.3016 17.3887C77.6883 18.1387 77.8816 19.0469 77.8816 20.1133ZM70.824 20.1133C70.824 20.8223 70.909 21.4287 71.0789 21.9326C71.2547 22.4365 71.5242 22.8232 71.8875 23.0928C72.2508 23.3564 72.7195 23.4883 73.2937 23.4883C73.868 23.4883 74.3367 23.3564 74.7 23.0928C75.0633 22.8232 75.3299 22.4365 75.4998 21.9326C75.6697 21.4287 75.7547 20.8223 75.7547 20.1133C75.7547 19.4043 75.6697 18.8037 75.4998 18.3115C75.3299 17.8135 75.0633 17.4355 74.7 17.1777C74.3367 16.9141 73.865 16.7822 73.285 16.7822C72.4295 16.7822 71.8055 17.0693 71.4129 17.6436C71.0203 18.2178 70.824 19.041 70.824 20.1133ZM84.2854 15.0859C84.4494 15.0859 84.6281 15.0947 84.8215 15.1123C85.0148 15.1299 85.1818 15.1533 85.3225 15.1826L85.1291 17.1162C85.0061 17.0811 84.8537 17.0547 84.6721 17.0371C84.4963 17.0195 84.3381 17.0107 84.1975 17.0107C83.8283 17.0107 83.4768 17.0723 83.1428 17.1953C82.8088 17.3125 82.5129 17.4941 82.2551 17.7402C81.9973 17.9805 81.7951 18.2822 81.6486 18.6455C81.5022 19.0088 81.4289 19.4307 81.4289 19.9111V25H79.3547V15.2705H80.9719L81.2531 16.9844H81.3498C81.5432 16.6387 81.7834 16.3223 82.0705 16.0352C82.3576 15.748 82.6857 15.5195 83.0549 15.3496C83.4299 15.1738 83.84 15.0859 84.2854 15.0859ZM88.2896 11.3242V17.9336C88.2896 18.2324 88.2779 18.5605 88.2545 18.918C88.2311 19.2695 88.2076 19.6006 88.1842 19.9111H88.2281C88.3805 19.7061 88.5621 19.4658 88.773 19.1904C88.9898 18.915 89.1949 18.6748 89.3883 18.4697L92.359 15.2705H94.732L90.8385 19.4541L94.9869 25H92.5611L89.4498 20.7285L88.2896 21.7217V25H86.2242V11.3242H88.2896ZM100.503 16.8438H98.1387V25H96.0732V16.8438H94.4824V15.8506L96.0732 15.2441V14.5674C96.0732 13.7412 96.2021 13.085 96.46 12.5986C96.7236 12.1123 97.0986 11.7637 97.585 11.5527C98.0771 11.3359 98.6631 11.2275 99.3428 11.2275C99.7881 11.2275 100.195 11.2656 100.564 11.3418C100.934 11.4121 101.244 11.4941 101.496 11.5879L100.96 13.1523C100.761 13.0879 100.538 13.0293 100.292 12.9766C100.046 12.918 99.7822 12.8887 99.501 12.8887C99.0322 12.8887 98.6865 13.0352 98.4639 13.3281C98.2471 13.6211 98.1387 14.0488 98.1387 14.6113V15.2705H100.503V16.8438ZM104.229 25H102.155V11.3242H104.229V25ZM114.887 20.1133C114.887 20.9219 114.782 21.6396 114.571 22.2666C114.36 22.8936 114.052 23.4238 113.648 23.8574C113.244 24.2852 112.757 24.6133 112.189 24.8418C111.621 25.0645 110.979 25.1758 110.264 25.1758C109.596 25.1758 108.984 25.0645 108.427 24.8418C107.871 24.6133 107.387 24.2852 106.977 23.8574C106.573 23.4238 106.259 22.8936 106.037 22.2666C105.814 21.6396 105.703 20.9219 105.703 20.1133C105.703 19.041 105.887 18.1328 106.256 17.3887C106.631 16.6387 107.164 16.0674 107.856 15.6748C108.547 15.2822 109.371 15.0859 110.326 15.0859C111.222 15.0859 112.013 15.2822 112.699 15.6748C113.384 16.0674 113.92 16.6387 114.307 17.3887C114.694 18.1387 114.887 19.0469 114.887 20.1133ZM107.829 20.1133C107.829 20.8223 107.914 21.4287 108.084 21.9326C108.26 22.4365 108.53 22.8232 108.893 23.0928C109.256 23.3564 109.725 23.4883 110.299 23.4883C110.873 23.4883 111.342 23.3564 111.705 23.0928C112.069 22.8232 112.335 22.4365 112.505 21.9326C112.675 21.4287 112.76 20.8223 112.76 20.1133C112.76 19.4043 112.675 18.8037 112.505 18.3115C112.335 17.8135 112.069 17.4355 111.705 17.1777C111.342 16.9141 110.871 16.7822 110.29 16.7822C109.435 16.7822 108.811 17.0693 108.418 17.6436C108.026 18.2178 107.829 19.041 107.829 20.1133ZM124.314 24.9912L123.084 20.4648C123.025 20.2422 122.955 19.9727 122.873 19.6562C122.791 19.3398 122.709 19.0146 122.627 18.6807C122.545 18.3408 122.469 18.0273 122.398 17.7402C122.334 17.4531 122.284 17.2305 122.249 17.0723H122.179C122.149 17.2305 122.102 17.4531 122.038 17.7402C121.973 18.0273 121.9 18.3408 121.818 18.6807C121.736 19.0205 121.654 19.3516 121.572 19.6738C121.496 19.9961 121.426 20.2715 121.361 20.5L120.069 24.9912H117.802L115.077 15.2617H117.169L118.434 20.0957C118.516 20.4238 118.596 20.7783 118.672 21.1592C118.754 21.54 118.824 21.9033 118.883 22.249C118.941 22.5947 118.985 22.8789 119.014 23.1016H119.085C119.108 22.9434 119.14 22.7441 119.181 22.5039C119.222 22.2578 119.269 22.0029 119.322 21.7393C119.375 21.4697 119.428 21.2178 119.48 20.9834C119.533 20.7432 119.583 20.5498 119.63 20.4033L121.124 15.2617H123.383L124.815 20.4033C124.88 20.626 124.95 20.9072 125.026 21.2471C125.102 21.5811 125.17 21.918 125.228 22.2578C125.293 22.5918 125.334 22.8701 125.351 23.0928H125.422C125.445 22.8936 125.486 22.624 125.545 22.2842C125.609 21.9385 125.682 21.5723 125.764 21.1855C125.846 20.793 125.931 20.4297 126.019 20.0957L127.311 15.2617H129.368L126.626 24.9912H124.314Z" class="logo-text"/>
</svg>
