<svg width="86" height="30" viewBox="0 0 86 30" fill="none" xmlns="http://www.w3.org/2000/svg">
<path d="M3.65277 7.8974H2.0514V1.78668H0V0.476562H5.70418V1.78595H3.65277V7.89666V7.8974Z" class="logo-accent"/>
<path d="M8.56749 2.11597C8.647 2.11597 8.7385 2.12039 8.84426 2.1285C8.94927 2.13734 9.03478 2.14766 9.10003 2.16166L8.98152 3.61325C8.92977 3.59631 8.85626 3.58378 8.76175 3.57494C8.66725 3.56683 8.58549 3.56241 8.51648 3.56241C8.31322 3.56241 8.11596 3.5882 7.92469 3.63831C7.73343 3.68915 7.56241 3.77094 7.4109 3.88442C7.25939 3.99789 7.13938 4.14673 7.05163 4.33095C6.96387 4.51516 6.91962 4.74137 6.91962 5.00885V7.89657H5.34375V2.22281H6.53709L6.76961 3.17704H6.84686C6.96087 2.98398 7.10263 2.80714 7.27289 2.6465C7.44316 2.48587 7.63817 2.35692 7.85644 2.26039C8.07545 2.16387 8.31172 2.11523 8.56674 2.11523L8.56749 2.11597Z" class="logo-accent"/>
<path d="M10.2284 0C10.4624 0 10.6642 0.0530533 10.833 0.159897C11.0017 0.26674 11.0865 0.464954 11.0865 0.75601C11.0865 1.04707 11.0017 1.24233 10.833 1.35212C10.6642 1.46191 10.4624 1.51718 10.2284 1.51718C9.99439 1.51718 9.78812 1.46191 9.62161 1.35212C9.45435 1.24233 9.37109 1.04338 9.37109 0.75601C9.37109 0.468638 9.45435 0.266004 9.62161 0.159897C9.78887 0.0530533 9.99139 0 10.2284 0ZM11.0137 2.22308V7.89758H9.43785V2.22308H11.0137Z" class="logo-accent"/>
<path d="M18.7239 2.11621C19.378 2.11621 19.8738 2.28127 20.209 2.61138C20.5451 2.94148 20.7131 3.46981 20.7131 4.19782V7.89755H19.132V4.58319C19.132 4.17719 19.0615 3.87066 18.9204 3.66434C18.7794 3.45802 18.5604 3.35486 18.2641 3.35486C17.8471 3.35486 17.5508 3.50149 17.3753 3.79402C17.1998 4.08655 17.1121 4.50508 17.1121 5.05035V7.89755H15.5362V4.58319C15.5362 4.31277 15.5054 4.08582 15.4432 3.90308C15.3809 3.72034 15.2864 3.58328 15.1589 3.49191C15.0314 3.40054 14.8679 3.35486 14.6684 3.35486C14.3759 3.35486 14.1456 3.42707 13.9783 3.57076C13.8111 3.71444 13.6926 3.92592 13.6221 4.20519C13.5515 4.48445 13.5163 4.82488 13.5163 5.22794V7.89755H11.9404V2.22305H13.1443L13.3558 2.94885H13.4435C13.5605 2.75285 13.7076 2.59369 13.8853 2.47211C14.0623 2.35053 14.2581 2.26063 14.4719 2.20316C14.6856 2.14569 14.9024 2.11695 15.1229 2.11695C15.5467 2.11695 15.906 2.18474 16.2 2.32032C16.4948 2.4559 16.7213 2.66517 16.8795 2.94959H17.0191C17.1916 2.65853 17.4346 2.44706 17.7504 2.31516C18.0654 2.18326 18.3902 2.11695 18.7239 2.11695V2.11621Z" class="logo-accent"/>
<path d="M23.1845 0V1.83771C23.1845 2.05066 23.1785 2.26213 23.1665 2.47214C23.1545 2.68214 23.1395 2.84425 23.1222 2.9592H23.1845C23.336 2.72561 23.543 2.52666 23.8048 2.36308C24.0666 2.19877 24.4056 2.11698 24.8226 2.11698C25.4699 2.11698 25.9957 2.36603 26.3985 2.86341C26.8013 3.36078 27.003 4.09026 27.003 5.05112C27.003 5.69734 26.91 6.23966 26.724 6.67809C26.538 7.11651 26.2777 7.44662 25.9439 7.66768C25.6102 7.88947 25.2224 8 24.7814 8C24.3403 8 24.0238 7.92558 23.7793 7.77673C23.5348 7.62789 23.3368 7.46062 23.1852 7.2742H23.0765L22.8132 7.89831H21.6094V0H23.1852H23.1845ZM24.3156 3.35489C24.0403 3.35489 23.8213 3.41089 23.6593 3.52215C23.4973 3.63415 23.3795 3.80142 23.3053 4.02468C23.231 4.24795 23.1905 4.5309 23.1837 4.87206V5.03933C23.1837 5.59123 23.2662 6.01345 23.432 6.30598C23.597 6.59851 23.8985 6.74514 24.3358 6.74514C24.6599 6.74514 24.9171 6.59777 25.1084 6.30377C25.2997 6.00903 25.3949 5.5846 25.3949 5.02975C25.3949 4.4749 25.2981 4.05711 25.1054 3.77563C24.9126 3.49489 24.6486 3.35415 24.3148 3.35415L24.3156 3.35489Z" class="logo-accent"/>
<path d="M29.2272 7.89758H27.6514V0H29.2272V7.89758Z" class="logo-accent"/>
<path d="M32.5881 2.11621C33.1222 2.11621 33.582 2.21716 33.9675 2.41832C34.353 2.61948 34.6508 2.91127 34.8616 3.2937C35.0716 3.67613 35.1766 4.14329 35.1766 4.69446V5.44531H31.4518C31.4691 5.88226 31.6026 6.22416 31.8523 6.47322C32.1021 6.72153 32.4494 6.84606 32.8934 6.84606C33.2617 6.84606 33.5992 6.80922 33.906 6.7348C34.2128 6.66038 34.5278 6.54837 34.8518 6.39953V7.59765C34.566 7.73618 34.2668 7.83786 33.9555 7.90197C33.6435 7.96608 33.2654 7.9985 32.8214 7.9985C32.2431 7.9985 31.7301 7.89387 31.2845 7.68386C30.8383 7.47386 30.4887 7.15407 30.236 6.72448C29.9825 6.2949 29.8564 5.75331 29.8564 5.10046C29.8564 4.44761 29.9712 3.88466 30.2 3.44328C30.4287 3.00191 30.7483 2.67032 31.1585 2.44853C31.5681 2.22674 32.0451 2.11621 32.5896 2.11621H32.5881ZM32.5986 3.2178C32.2919 3.2178 32.0384 3.31433 31.8366 3.50739C31.6348 3.69971 31.5186 4.00329 31.4878 4.41593H33.699C33.6952 4.18603 33.6532 3.98118 33.5722 3.80139C33.4912 3.62234 33.3705 3.48012 33.2107 3.37475C33.0502 3.27012 32.8462 3.2178 32.5986 3.2178Z" class="logo-accent"/>
<path d="M35.5782 7.23467C35.5737 6.85298 35.8849 6.53982 36.2735 6.53613C36.2787 6.53613 36.284 6.53613 36.2892 6.53613C36.6823 6.53613 37.0003 6.8493 37.0003 7.23467C37.0003 7.62078 36.6815 7.9332 36.2892 7.9332C35.8962 7.9332 35.5782 7.62004 35.5782 7.23467ZM36.8713 7.23467C36.8653 6.91782 36.5997 6.66508 36.2772 6.67098C35.9547 6.67687 35.6974 6.93772 35.7034 7.25456C35.7087 7.56846 35.9705 7.81973 36.29 7.81825C36.611 7.81825 36.872 7.56257 36.872 7.24646C36.872 7.24204 36.872 7.23835 36.872 7.23393L36.8713 7.23467ZM36.0132 6.83677H36.3042C36.488 6.83677 36.5952 6.91487 36.5952 7.07109C36.6042 7.16983 36.5405 7.2612 36.443 7.28772L36.611 7.60162H36.4482L36.2915 7.30909H36.1685V7.60162H36.0125V6.83677H36.0132ZM36.2952 7.19193C36.3905 7.19193 36.443 7.16172 36.443 7.07993C36.443 6.99814 36.3905 6.96793 36.2915 6.96793H36.1685V7.19119H36.2945L36.2952 7.19193Z" class="logo-accent"/>
<path d="M6.14355 25H4.02539V13.9434H0.263672V12.1504H9.89648V13.9434H6.14355V25ZM16.5111 25L12.8109 14.2686H12.7318C12.7494 14.5088 12.7699 14.8369 12.7934 15.2529C12.8168 15.6689 12.8373 16.1143 12.8549 16.5889C12.8725 17.0635 12.8813 17.5176 12.8813 17.9512V25H10.9652V12.1504H13.9271L17.4867 22.4072H17.5395L21.2221 12.1504H24.1752V25H22.1625V17.8457C22.1625 17.4531 22.1684 17.0283 22.1801 16.5713C22.1977 16.1143 22.2152 15.6807 22.2328 15.2705C22.2563 14.8604 22.2738 14.5322 22.2855 14.2861H22.2152L18.3744 25H16.5111ZM41.8553 12.1504L38.4979 25H36.1951L34.0506 17.3008C33.9979 17.1133 33.9393 16.8906 33.8748 16.6328C33.8104 16.375 33.7459 16.1113 33.6814 15.8418C33.6229 15.5723 33.5701 15.3262 33.5232 15.1035C33.4822 14.875 33.4529 14.6992 33.4354 14.5762C33.4236 14.6992 33.3973 14.8721 33.3563 15.0947C33.3152 15.3174 33.2654 15.5635 33.2068 15.833C33.1541 16.0967 33.0955 16.3604 33.0311 16.624C32.9666 16.8818 32.908 17.1104 32.8553 17.3096L30.7459 25H28.452L25.1033 12.1504H27.2215L29.076 19.6826C29.1346 19.9229 29.1932 20.1836 29.2518 20.4648C29.3162 20.7402 29.3748 21.0186 29.4275 21.2998C29.4861 21.5811 29.5389 21.8564 29.5857 22.126C29.6326 22.3896 29.6707 22.6299 29.7 22.8467C29.7293 22.624 29.7674 22.3779 29.8143 22.1084C29.8611 21.833 29.9109 21.5547 29.9637 21.2734C30.0223 20.9863 30.0809 20.7109 30.1395 20.4473C30.2039 20.1836 30.2684 19.9463 30.3328 19.7354L32.4246 12.1504H34.4813L36.617 19.7617C36.6814 19.9785 36.743 20.2217 36.8016 20.4912C36.866 20.7607 36.9275 21.0361 36.9861 21.3174C37.0447 21.5986 37.0975 21.8711 37.1443 22.1348C37.1912 22.3984 37.2293 22.6357 37.2586 22.8467C37.2996 22.5596 37.3523 22.2314 37.4168 21.8623C37.4813 21.4932 37.5545 21.1182 37.6365 20.7373C37.7186 20.3564 37.8006 20.0049 37.8826 19.6826L39.7283 12.1504H41.8553ZM42.2648 23.9102C42.2648 23.4297 42.3879 23.0928 42.634 22.8994C42.8859 22.7002 43.1906 22.6006 43.548 22.6006C43.9055 22.6006 44.2102 22.7002 44.4621 22.8994C44.7199 23.0928 44.8488 23.4297 44.8488 23.9102C44.8488 24.3789 44.7199 24.7188 44.4621 24.9297C44.2102 25.1348 43.9055 25.2373 43.548 25.2373C43.1906 25.2373 42.8859 25.1348 42.634 24.9297C42.3879 24.7188 42.2648 24.3789 42.2648 23.9102ZM54.232 21.502C54.232 22.2637 54.0445 22.9199 53.6695 23.4707C53.3004 24.0215 52.7672 24.4434 52.0699 24.7363C51.3785 25.0293 50.5523 25.1758 49.5914 25.1758C49.1227 25.1758 48.6744 25.1494 48.2467 25.0967C47.8189 25.0439 47.4146 24.9678 47.0338 24.8682C46.6588 24.7627 46.316 24.6367 46.0055 24.4902V22.5039C46.527 22.7324 47.11 22.9404 47.7545 23.1279C48.399 23.3096 49.0553 23.4004 49.7232 23.4004C50.2682 23.4004 50.7193 23.3301 51.0768 23.1895C51.44 23.043 51.7096 22.8379 51.8854 22.5742C52.0611 22.3047 52.149 21.9912 52.149 21.6338C52.149 21.2529 52.0465 20.9307 51.8414 20.667C51.6363 20.4033 51.3258 20.1631 50.9098 19.9463C50.4996 19.7236 49.984 19.4863 49.3629 19.2344C48.941 19.0645 48.5367 18.8711 48.15 18.6543C47.7691 18.4375 47.4293 18.1826 47.1305 17.8896C46.8316 17.5967 46.5943 17.251 46.4186 16.8525C46.2486 16.4482 46.1637 15.9736 46.1637 15.4287C46.1637 14.7021 46.3365 14.0811 46.6822 13.5654C47.0338 13.0498 47.526 12.6543 48.1588 12.3789C48.7975 12.1035 49.5416 11.9658 50.3912 11.9658C51.065 11.9658 51.6979 12.0361 52.2896 12.1768C52.8873 12.3174 53.4732 12.5166 54.0475 12.7744L53.3795 14.4707C52.8521 14.2539 52.3395 14.0811 51.8414 13.9521C51.3492 13.8232 50.8453 13.7588 50.3297 13.7588C49.8844 13.7588 49.5064 13.8262 49.1959 13.9609C48.8854 14.0957 48.648 14.2861 48.484 14.5322C48.3258 14.7725 48.2467 15.0596 48.2467 15.3936C48.2467 15.7686 48.3375 16.085 48.5191 16.3428C48.7066 16.5947 48.9938 16.8262 49.3805 17.0371C49.773 17.248 50.277 17.4824 50.8922 17.7402C51.6012 18.0332 52.2018 18.3408 52.6939 18.6631C53.192 18.9854 53.5729 19.3721 53.8365 19.8232C54.1002 20.2686 54.232 20.8281 54.232 21.502ZM64.0811 15.2705V25H62.4551L62.1738 23.6904H62.0596C61.8545 24.0244 61.5938 24.3027 61.2773 24.5254C60.9609 24.7422 60.6094 24.9033 60.2227 25.0088C59.8359 25.1201 59.4287 25.1758 59.001 25.1758C58.2686 25.1758 57.6416 25.0527 57.1201 24.8066C56.6045 24.5547 56.209 24.168 55.9336 23.6465C55.6582 23.125 55.5205 22.4512 55.5205 21.625V15.2705H57.5947V21.2383C57.5947 21.9941 57.7471 22.5596 58.0518 22.9346C58.3623 23.3096 58.8428 23.4971 59.4932 23.4971C60.1201 23.4971 60.6182 23.3682 60.9873 23.1104C61.3564 22.8525 61.6172 22.4717 61.7695 21.9678C61.9277 21.4639 62.0068 20.8457 62.0068 20.1133V15.2705H64.0811ZM68.2084 15.2705V25H66.143V15.2705H68.2084ZM67.1889 11.5439C67.5053 11.5439 67.7777 11.6289 68.0062 11.7988C68.2406 11.9688 68.3578 12.2617 68.3578 12.6777C68.3578 13.0879 68.2406 13.3809 68.0062 13.5566C67.7777 13.7266 67.5053 13.8115 67.1889 13.8115C66.8607 13.8115 66.5824 13.7266 66.3539 13.5566C66.1312 13.3809 66.0199 13.0879 66.0199 12.6777C66.0199 12.2617 66.1312 11.9688 66.3539 11.7988C66.5824 11.6289 66.8607 11.5439 67.1889 11.5439ZM73.8914 23.5059C74.1609 23.5059 74.4275 23.4824 74.6912 23.4355C74.9549 23.3828 75.1951 23.3213 75.4119 23.251V24.8154C75.1834 24.915 74.8875 25 74.5242 25.0703C74.1609 25.1406 73.783 25.1758 73.3904 25.1758C72.8396 25.1758 72.3445 25.085 71.9051 24.9033C71.4656 24.7158 71.117 24.3965 70.8592 23.9453C70.6014 23.4941 70.4725 22.8701 70.4725 22.0732V16.8438H69.1453V15.9209L70.5691 15.1914L71.2459 13.1084H72.5467V15.2705H75.3328V16.8438H72.5467V22.0469C72.5467 22.5391 72.6697 22.9053 72.9158 23.1455C73.1619 23.3857 73.4871 23.5059 73.8914 23.5059ZM80.3654 15.0859C81.2326 15.0859 81.9768 15.2646 82.5979 15.6221C83.2189 15.9795 83.6965 16.4863 84.0305 17.1426C84.3645 17.7988 84.5314 18.584 84.5314 19.498V20.6055H78.0363C78.0598 21.5488 78.3117 22.2754 78.7922 22.7852C79.2785 23.2949 79.9582 23.5498 80.8313 23.5498C81.4523 23.5498 82.009 23.4912 82.5012 23.374C82.9992 23.251 83.5119 23.0723 84.0393 22.8379V24.5166C83.5529 24.7451 83.0578 24.9121 82.5539 25.0176C82.05 25.123 81.4465 25.1758 80.7434 25.1758C79.7883 25.1758 78.9475 24.9912 78.2209 24.6221C77.5002 24.2471 76.9348 23.6904 76.5246 22.9521C76.1203 22.2139 75.9182 21.2969 75.9182 20.2012C75.9182 19.1113 76.1027 18.1855 76.4719 17.4238C76.841 16.6621 77.3596 16.082 78.0275 15.6836C78.6955 15.2852 79.4748 15.0859 80.3654 15.0859ZM80.3654 16.6416C79.715 16.6416 79.1877 16.8525 78.7834 17.2744C78.385 17.6963 78.1506 18.3145 78.0803 19.1289H82.51C82.5041 18.6426 82.4221 18.2119 82.2639 17.8369C82.1115 17.4619 81.8772 17.1689 81.5607 16.958C81.2502 16.7471 80.8518 16.6416 80.3654 16.6416Z" class="logo-text"/>
</svg>
