<svg width="18.62" height="18.01" viewBox="12 14.99 18.62 18.01" fill="none" xmlns="http://www.w3.org/2000/svg">
<path d="M20.7646 15.027C20.9197 14.9824 21.0844 14.9812 21.2402 15.0231L29.9678 17.3698C30.3549 17.474 30.624 17.8252 30.624 18.2262V28.9996C30.624 29.3706 30.3928 29.7028 30.0449 29.8317L21.6201 32.9518C21.4214 33.0254 21.2027 33.0254 21.0039 32.9518L12.5791 29.8317C12.2312 29.7028 12 29.3706 12 28.9996V18.2135C12.0001 17.8182 12.2617 17.4702 12.6416 17.361L13.7246 17.0504L13.7324 17.0299L13.7588 17.0406L20.7646 15.027ZM14.2168 28.0739L20.292 30.3239V21.9606L14.2168 19.5973V28.0739ZM22.5098 21.9371V30.2584L28.4072 28.0739V19.9713L22.5098 21.9371ZM17.1699 18.3668L21.3408 19.9889L25.7305 18.526L21.0215 17.2604L17.1699 18.3668Z" fill="#004F83"/>
</svg>
