<svg width="301" height="48" viewBox="0 0 301 48" fill="none" xmlns="http://www.w3.org/2000/svg">
<path d="M22.8188 33.1485L25.3228 23.986L21.1766 8.55499H12L20.1941 39.445H29.4353L27.7706 33.2187L22.8188 33.1485Z" fill="#0063A3"/>
<path d="M30.968 8.55499L26.8442 23.986L28.9356 31.5709H34.0025L40.2288 8.55499H30.968Z" fill="#0063A3"/>
<path d="M55.0167 34.249L48.229 14.6437H51.5976L56.6252 29.8782H56.6786L61.796 14.655H64.912L58.1299 34.2602L55.0167 34.249Z" fill="#171C1E"/>
<path d="M66.8208 17.7316V14.9076H70.1473V17.7316H66.8208ZM66.8489 34.1675V20.157H70.1248V34.1675H66.8489Z" fill="#171C1E"/>
<path d="M72.4438 27.1778C72.4438 21.8442 76.2167 19.8932 79.1193 19.8932C82.2577 19.8932 85.267 21.7684 85.267 27.4725V28.2389H75.6889C75.8209 30.7653 77.3732 31.8882 79.4337 31.8882C81.2555 31.8882 82.311 31.2818 83.3637 30.2516L85.0789 31.9359C83.6276 33.5472 81.7103 34.4624 79.1838 34.4624C75.6889 34.4595 72.4438 32.3233 72.4438 27.1778ZM82.2858 25.8051C82.1005 23.6688 81.045 22.5319 79.0912 22.5319C77.508 22.5319 76.0567 23.4302 75.7395 25.8051H82.2858Z" fill="#171C1E"/>
<path d="M89.9211 34.1675L85.7524 20.157H89.0509L90.5808 25.9622C91.0018 27.5454 91.2657 28.6262 91.6362 30.4228H91.6896C92.1107 28.5223 92.3493 27.5202 92.7984 25.9089L94.2666 20.157H96.9053L98.4773 26.0155C98.9264 27.5735 99.165 28.6262 99.5609 30.4228H99.6002C100.021 28.6009 100.26 27.5988 100.706 26.0689L102.289 20.157H105.245L101.077 34.1675H98.0478L95.5214 24.4323H95.468L92.9416 34.1675H89.9211Z" fill="#171C1E"/>
<path d="M106.899 39.445V20.157H110.155V22.0182C110.691 21.3526 111.37 20.8168 112.142 20.4512C112.914 20.0856 113.759 19.8996 114.613 19.9072C117.808 19.9072 120.154 22.3101 120.154 27.1637C120.154 32.0173 117.754 34.3697 114.164 34.3697C113.409 34.3756 112.661 34.2209 111.97 33.9161C111.279 33.6112 110.66 33.163 110.155 32.6012V39.4338L106.899 39.445ZM116.898 27.1778C116.898 24.2218 115.632 22.6638 113.546 22.6638C112.202 22.6638 110.908 23.506 110.144 24.4323V30.0467C110.526 30.5672 111.022 30.9943 111.593 31.2958C112.165 31.5972 112.797 31.7652 113.442 31.7871C115.907 31.7927 116.909 30.2909 116.909 27.1778H116.898Z" fill="#171C1E"/>
<path d="M121.777 27.1778C121.777 22.0042 125.179 19.8932 128.609 19.8932C132.04 19.8932 135.442 22.0042 135.442 27.1778C135.442 32.2952 132.015 34.4595 128.609 34.4595C125.204 34.4595 121.777 32.2952 121.777 27.1778ZM132.163 27.1778C132.163 24.5643 131.055 22.6639 128.601 22.6639C126.251 22.6639 125.039 24.3482 125.039 27.1778C125.039 29.8418 126.122 31.7422 128.601 31.7422C130.956 31.7422 132.163 30.0523 132.163 27.1778Z" fill="#171C1E"/>
<path d="M137.777 17.7316V14.9076H141.09V17.7316H137.777ZM137.803 34.1675V20.157H141.076V34.1675H137.803Z" fill="#171C1E"/>
<path d="M144.113 34.1675V20.157H147.358V22.4027C148.414 21.19 150.05 19.8959 152.372 19.8959C154.932 19.8959 156.515 21.2153 156.515 23.986V34.1703H153.27V24.9067C153.27 23.3768 152.636 22.5852 151.159 22.5852C149.733 22.5852 148.546 23.2982 147.358 24.407V34.1675H144.113Z" fill="#171C1E"/>
<path d="M160.555 30.5014V22.7424H158.126V20.157H160.555V15.281H163.8V20.157H167.413V22.7424H163.8V29.6817C163.8 31.1864 164.246 31.7927 165.857 31.7927C166.331 31.7942 166.803 31.7328 167.261 31.6103V34.1676C166.475 34.2894 165.681 34.3513 164.886 34.3529C161.318 34.3529 160.555 33.0335 160.555 30.5014Z" fill="#171C1E"/>
<path d="M182.34 14.5154H184.373L191.284 34.1178H189.319L187.233 28.102H179.317L177.234 34.1178H175.412L182.34 14.5154ZM186.669 26.4402L183.317 16.7302H183.264L179.912 26.4402H186.669Z" fill="#171C1E"/>
<path d="M193.709 20.2139H195.529V22.4035C196.873 21.0842 198.642 19.9501 200.831 19.9501C203.577 19.9501 204.975 21.48 204.975 24.0654V34.1178H203.156V24.4078C203.156 22.4428 202.283 21.5052 200.385 21.5052C198.588 21.5052 197.086 22.4288 195.529 23.9334V34.1178H193.709V20.2139Z" fill="#171C1E"/>
<path d="M207.532 30.8727C207.532 28.1301 209.881 26.123 216.953 25.0423V24.3292C216.953 22.4035 215.95 21.48 214.129 21.48C211.939 21.48 210.381 22.4035 208.93 23.6696L207.956 22.5467C209.617 21.0168 211.543 19.9613 214.286 19.9613C217.402 19.9613 218.746 21.6231 218.746 24.3938V30.6987C218.746 32.383 218.853 33.4188 219.142 34.129H217.27C217.058 33.4909 216.95 32.8225 216.953 32.15C215.341 33.6013 213.547 34.3677 211.465 34.3677C208.983 34.3564 207.532 33.0371 207.532 30.8727ZM216.953 30.6622V26.3336C210.99 27.3385 209.326 28.8151 209.326 30.6369C209.326 32.0882 210.302 32.8518 211.852 32.8518C213.823 32.8518 215.527 32.0349 216.953 30.6706V30.6622Z" fill="#171C1E"/>
<path d="M222.272 14.594H224.091V34.1178H222.272V14.594Z" fill="#171C1E"/>
<path d="M225.916 39.1595L226.337 37.6549C226.968 37.8078 227.616 37.8786 228.265 37.8654C229.767 37.8654 230.533 37.2057 231.114 35.7292L231.695 34.1993L226.311 20.214H228.276L232.602 31.9563H232.656L236.956 20.214H238.857L232.855 35.7236C231.931 38.2023 230.89 39.443 228.212 39.443C227.437 39.4602 226.663 39.3647 225.916 39.1595Z" fill="#171C1E"/>
<path d="M242.795 30.8727V21.7691H240.367V20.2139H242.795V15.2312H244.617V20.2139H248.23V21.7691H244.617V30.505C244.617 31.9815 245.092 32.7731 246.807 32.7731C247.297 32.7852 247.787 32.7227 248.258 32.5879V34.1459C247.665 34.2465 247.066 34.2991 246.464 34.3031C243.798 34.3031 242.795 33.2756 242.795 30.8727Z" fill="#171C1E"/>
<path d="M250.641 15.0432H252.561V17.0082H250.636L250.641 15.0432ZM250.692 20.2139H252.514V34.1178H250.692V20.2139Z" fill="#171C1E"/>
<path d="M255.329 27.1785C255.329 22.193 258.417 19.9501 261.53 19.9501C264.511 19.9501 265.988 21.7186 266.864 23.7482L265.306 24.4359C264.539 22.5607 263.433 21.5052 261.48 21.5052C259.422 21.5052 257.154 22.9846 257.154 27.1532C257.154 30.8026 258.998 32.8518 261.426 32.8518C263.352 32.8518 264.436 31.9563 265.412 29.8958L266.878 30.5303C265.769 32.8799 264.16 34.4098 261.336 34.4098C258.153 34.4098 255.329 31.7935 255.329 27.1785Z" fill="#171C1E"/>
<path d="M268.576 31.903L269.736 30.8475C270.257 31.4884 270.918 32.0021 271.668 32.3494C272.419 32.6966 273.238 32.8685 274.064 32.8518C276.439 32.8518 277.677 31.9816 277.677 30.4236C277.677 28.8656 276.571 28.2873 273.854 27.6529C270.659 26.8613 269.023 26.0192 269.023 23.591C269.023 21.6259 270.738 19.9417 273.747 19.9417C276.122 19.9417 277.652 20.7333 278.892 21.946L277.862 23.1615C277.339 22.6129 276.708 22.1777 276.009 21.8827C275.31 21.5877 274.559 21.4392 273.8 21.4463C271.636 21.4463 270.791 22.4484 270.791 23.5039C270.791 24.8486 271.743 25.4044 274.16 25.9827C277.643 26.8248 279.437 27.667 279.437 30.3899C279.437 32.9163 277.169 34.3733 274.028 34.3733C271.557 34.3817 269.632 33.3262 268.576 31.903Z" fill="#171C1E"/>
<path d="M281.829 15.0431H280.568V14.594H283.586V15.0431H282.334V18.6307H281.829V15.0431ZM284.302 14.594H284.959L286.171 17.9626L287.401 14.594H288.069V18.6307H287.555V15.4614L286.382 18.6307H285.967L284.793 15.4614V18.6307H284.316L284.302 14.594Z" fill="#171C1E"/>
</svg>
