<svg width="64" height="48" viewBox="0 0 64 48" fill="none" xmlns="http://www.w3.org/2000/svg">
<path d="M40.75 26.0724C40.75 26.0724 40.75 26.0724 40.75 31.9058C40.75 37.5088 32.6667 39.965 32 40.1952V37.2786C33.6667 36.9715 34.0833 34.1316 34.0833 32.9036V25.8422H40.5C40.6667 25.9957 40.75 26.0724 40.75 26.0724Z" fill="#004F83"/>
<path d="M38.0833 8.03507C38.0833 8.03507 38.0833 10.6447 38 11.5658C37.6667 13.7149 36.4167 15.557 34.6667 16.4013V24.5373C38.5833 24.7675 40 25.3816 40.5 25.7653H33.3333H32V15.0197H32.0833C34.1667 15.0197 35.6667 12.7938 35.6667 10.7215V9.80042H32V7.80481H37.8333C38 7.80481 38.0833 7.95832 38.0833 8.03507Z" fill="#004F83"/>
<path d="M29.9168 25.8421H23.5835C24.0835 25.4583 25.5002 24.8443 29.4168 24.614V16.4013C27.6668 15.557 26.4168 13.7149 26.0835 11.5658C25.9168 10.7215 26.0002 8.03507 26.0002 8.03507C26.0002 7.88156 26.1668 7.80481 26.3335 7.80481H32.1668V9.80042H28.5002V10.7982C28.5002 12.7938 30.0002 15.0965 32.0835 15.0965H32.0002V25.9188V37.3552C30.3335 37.0482 29.9168 34.0548 29.9168 32.9802V25.8421Z" fill="#004F83"/>
<path d="M23.4998 25.8422H29.8332V32.9036C29.8332 33.9781 30.3332 36.9715 31.9165 37.2786V40.1952C31.2498 40.0417 23.1665 37.5088 23.1665 31.9058C23.1665 26.0724 23.1665 26.0724 23.1665 26.0724C23.1665 26.0724 23.3332 25.9957 23.4998 25.8422Z" fill="#004F83"/>
</svg>
