<svg width="32" height="32" viewBox="0 0 32 32" fill="none" xmlns="http://www.w3.org/2000/svg">
<path d="M17.5712 18.6671H4.29932C5.51094 24.0097 10.2883 28 15.997 28C18.1961 28 20.2556 27.4061 22.0265 26.3733L17.5676 18.6659L17.57 18.6683L17.5712 18.6671Z" class="logo-accent"/>
<path d="M17.5403 13.2792L20.1734 17.8395L24.1827 24.7718C26.5297 22.5823 27.9989 19.4638 27.9989 15.9994C27.9989 11.5524 25.5804 7.67662 21.9861 5.60278L17.5391 13.2792H17.5403Z" class="logo-accent"/>
<path d="M12.8904 15.997L15.9994 10.6115L19.5258 4.5283C18.4107 4.18604 17.2253 4 15.9994 4C9.37362 4 4 9.37004 4 15.997H12.8904Z" class="logo-accent"/>
</svg>
