<svg width="32" height="32" viewBox="0 0 32 32" fill="none" xmlns="http://www.w3.org/2000/svg">
<path d="M9.24698 17.3649H13.9396V22.5971C13.9396 23.3933 14.3101 25.6113 15.4833 25.8388V28C14.9893 27.8862 9 26.0094 9 21.8578C9 17.5355 9 17.5355 9 17.5355C9 17.5355 9.12349 17.4786 9.24698 17.3649Z" class="logo-accent"/>
<path d="M14.0015 17.3649H9.30884C9.67931 17.0806 10.729 16.6256 13.631 16.455V10.3697C12.3344 9.74408 11.4082 8.37915 11.1612 6.78673C11.0377 6.16114 11.0995 4.17062 11.0995 4.17062C11.0995 4.05687 11.223 4 11.3464 4H15.6686V5.47868H12.9518V6.21801C12.9518 7.69669 14.0632 9.40285 15.6069 9.40285H15.5451V17.4218V25.8958C14.3102 25.6683 14.0015 23.4503 14.0015 22.6541V17.3649Z" class="logo-accent"/>
<path d="M20.0527 4.17062C20.0527 4.17062 20.0527 6.10427 19.991 6.78673C19.744 8.37915 18.8178 9.74408 17.5211 10.3697V16.3981C20.4232 16.5687 21.4729 17.0237 21.8433 17.3081H16.5332H15.5453V9.34598H15.607C17.1507 9.34598 18.2621 7.69669 18.2621 6.16114V5.47868H15.5453V4H19.8675C19.991 4 20.0527 4.11374 20.0527 4.17062Z" class="logo-accent"/>
<path d="M22.0286 17.5355C22.0286 17.5355 22.0286 17.5355 22.0286 21.8578C22.0286 26.0094 16.0393 27.8293 15.5453 28V25.8388C16.7802 25.6113 17.0889 23.5071 17.0889 22.5971V17.3649H21.8433C21.9668 17.4786 22.0286 17.5355 22.0286 17.5355Z" class="logo-accent"/>
</svg>
