<svg width="32" height="32" viewBox="0 0 32 32" fill="none" xmlns="http://www.w3.org/2000/svg">
<path d="M14.7953 28C8.84267 28 4 23.1562 4 17.2035C4 11.2509 8.84267 6.4082 14.7953 6.4082V10.0198C10.8337 10.0198 7.61043 13.2431 7.61043 17.2047C7.61043 21.1664 10.8337 24.3896 14.7953 24.3896C18.757 24.3896 21.9802 21.1664 21.9802 17.2047H25.5918C25.5918 23.1574 20.7492 28 14.7965 28H14.7953Z" class="logo-accent"/>
<path d="M27.9988 14.7953H24.3872C24.3872 10.8337 21.1639 7.61043 17.2023 7.61043V4C23.1549 4 27.9976 8.84267 27.9976 14.7953H27.9988Z" class="logo-accent"/>
</svg>
