<svg width="32" height="32" viewBox="0 0 32 32" fill="none" xmlns="http://www.w3.org/2000/svg">
<path d="M15.9994 23.1714L17.802 9.95227H14.1968L15.9994 23.1714Z" class="logo-accent"/>
<path d="M28 11.7067H21.8855V11.7018H18.785L18.451 14.1149H21.8855V14.1089H25.5965V16.0101C25.5965 21.3014 21.2919 25.606 16.0006 25.606C13.4373 25.606 11.0278 24.6074 9.21436 22.7951C7.40213 20.9829 6.40349 18.5722 6.40349 16.0089C6.40349 13.4456 7.40213 11.0361 9.21436 9.22265C11.0266 7.41042 13.4373 6.41178 16.0006 6.41178H17.6878H20.0433L20.3978 3.99988H17.1158V4.00829H15.9994C12.7944 4.00829 9.78038 5.2569 7.5139 7.52339C5.24741 9.78987 4 12.8062 4 16.0125C4 19.2175 5.24861 22.2315 7.5151 24.498C9.78158 26.7645 12.7956 28.0131 16.0006 28.0131C22.6174 28.0131 28 22.6305 28 16.0137V11.7091V11.7067Z" class="logo-accent"/>
<path d="M9.82239 14.1163H13.5358L13.2161 11.7032H10.1481L9.82239 14.1163Z" class="logo-accent"/>
</svg>
