<svg width="32" height="32" viewBox="0 0 32 32" fill="none" xmlns="http://www.w3.org/2000/svg">
<path d="M16.036 5H7.4332H4.0156L4.3696 7.30911H7.4344H16.0372C21.31 7.30911 25.6012 11.4325 25.6012 16.5017C25.6012 18.9573 24.6064 21.2653 22.8004 23.0012C20.9944 24.737 18.592 25.6932 16.0384 25.6932H12.1336V18.0992C13.744 17.609 14.9152 16.158 14.9152 14.4498C14.9152 12.3391 13.1284 10.6228 10.9336 10.6228C9.1564 10.6228 7.6468 11.7486 7.1368 13.2964H4V15.6032H7.1344C7.5244 16.7878 8.4988 17.7243 9.7312 18.0992V28H16.036C19.2316 28 22.2364 26.8039 24.496 24.6321C26.7556 22.4602 28 19.5721 28 16.5006C28 10.1603 22.6336 5.00115 16.036 5.00115V5ZM10.9312 12.9273C11.8036 12.9273 12.5128 13.609 12.5128 14.4475C12.5128 15.286 11.8036 15.9677 10.9312 15.9677C10.0588 15.9677 9.3496 15.286 9.3496 14.4475C9.3496 13.609 10.0588 12.9273 10.9312 12.9273Z" class="logo-accent"/>
</svg>
