<svg width="32" height="32" viewBox="0 0 32 32" fill="none" xmlns="http://www.w3.org/2000/svg">
<path d="M18.8576 13.0157C17.7719 13.0157 16.8858 13.8693 16.8267 14.9407C16.8186 14.9774 16.8125 15.014 16.8125 15.0528V16.0794H14.7836V14.9285C14.7836 14.8857 14.7775 14.845 14.7673 14.8063C14.6451 13.8 13.7855 13.0157 12.7466 13.0157C11.6242 13.0157 10.7096 13.9304 10.7096 15.0528C10.7096 16.1751 11.5631 17.0246 12.6346 17.0836C12.6712 17.0918 12.7099 17.0979 12.7486 17.0979H13.7651V22.9278H14.7836V17.0979H16.8125V22.9278H17.831V17.0979H18.8556C18.8943 17.0979 18.933 17.0918 18.9697 17.0836C20.0391 17.0246 20.8926 16.1364 20.8926 15.0528C20.8926 13.9691 19.978 13.0157 18.8556 13.0157H18.8576ZM12.7466 16.0713C12.1844 16.0713 11.7281 15.615 11.7281 15.0528C11.7281 14.4905 12.1844 14.0342 12.7466 14.0342C13.3088 14.0342 13.7651 14.4905 13.7651 15.0528C13.7651 15.615 13.3088 16.0713 12.7466 16.0713ZM18.8576 16.0713C18.2954 16.0713 17.8391 15.615 17.8391 15.0528C17.8391 14.4905 18.2954 14.0342 18.8576 14.0342C19.4198 14.0342 19.8761 14.4905 19.8761 15.0528C19.8761 15.615 19.4198 16.0713 18.8576 16.0713Z" class="logo-accent"/>
<path d="M15.8752 24.4963L7 19.3712V9.12307L15.8752 4L24.7505 9.12307V19.3712L15.8752 24.4963ZM8.0185 18.7825L15.8752 23.321L23.732 18.7825V9.71176L15.8752 5.17535L8.0185 9.71176V18.7825Z" class="logo-accent"/>
<path d="M19.9514 21.8706H11.728V25.0585H19.9514V21.8706Z" class="logo-accent"/>
<path d="M19.988 26.8409H11.7646V28H19.988V26.8409Z" class="logo-accent"/>
</svg>
