<svg width="32" height="32" viewBox="0 0 32 32" fill="none" xmlns="http://www.w3.org/2000/svg">
<path d="M16.0004 3.78955C17.9634 3.78962 19.8171 4.25538 21.4603 5.07861C20.7952 5.65609 20.3193 6.44574 20.1381 7.34229C18.8852 6.74232 17.4821 6.40583 16.0004 6.40576C10.7017 6.40576 6.40564 10.7019 6.40564 16.0005C6.4059 21.2989 10.7019 25.5942 16.0004 25.5942C21.2986 25.594 25.5939 21.2987 25.5941 16.0005C25.5941 14.6375 25.3077 13.3417 24.7953 12.1675C25.7013 12.0179 26.5056 11.5694 27.1049 10.9263C27.8123 12.472 28.2103 14.1894 28.2103 16.0005C28.2101 22.7438 22.7437 28.2102 16.0004 28.2104C9.25682 28.2104 3.78968 22.744 3.78943 16.0005C3.78943 9.25679 9.25667 3.78955 16.0004 3.78955Z" class="logo-accent"/>
<ellipse cx="15.9589" cy="16.1216" rx="6.2942" ry="6.2942" class="logo-accent"/>
<ellipse cx="24.0154" cy="8.25384" rx="2.64356" ry="2.58062" class="logo-accent"/>
</svg>
