<svg width="32" height="32" viewBox="0 0 32 32" fill="none" xmlns="http://www.w3.org/2000/svg">
<path d="M16.2961 19.5963C17.2966 18.6997 18.2876 17.8102 19.2796 16.9218C20.0493 16.2323 20.8215 15.5455 21.5884 14.8529C21.6603 14.788 21.7015 14.6898 21.757 14.6071C21.654 14.5841 21.5508 14.5404 21.448 14.5414C20.7147 14.5482 19.9815 14.5695 19.2483 14.5758C18.1647 14.5852 17.0811 14.5869 15.9976 14.5891C15.9073 14.5893 15.8171 14.5691 15.6916 14.5542C15.7512 14.4345 15.7856 14.3428 15.8383 14.2631C16.8276 12.7668 17.8191 11.272 18.81 9.77682C18.9758 9.52655 19.1405 9.27557 19.3058 9.02492C19.2942 9.01386 19.2826 9.00281 19.271 8.99175C16.5018 11.4346 13.7325 13.8774 10.9631 16.3203C10.9669 16.3345 10.9707 16.3488 10.9745 16.3631C12.6644 16.3631 14.3543 16.3631 16.0442 16.3631C16.0509 16.3784 16.0576 16.3938 16.0642 16.4092C15.99 16.4914 15.9198 16.5776 15.841 16.6553C13.3586 19.1022 10.8771 21.5501 8.39134 23.9937C7.27648 25.0898 6.15411 26.1783 5.03242 27.2674C4.78684 27.5059 4.53309 27.7365 4.27439 27.961C4.23035 27.9992 4.13813 28.007 4.07518 27.9945C3.9823 27.976 3.99208 27.9011 4.01726 27.8239C4.19873 27.2678 4.37678 26.7105 4.55642 26.1538C5.34127 23.7216 6.1303 21.2907 6.91028 18.8569C8.04386 15.3197 9.17442 11.7816 10.2985 8.24153C10.6014 7.28757 10.8766 6.32499 11.1639 5.36621C11.2555 5.06044 11.3184 5.00678 11.645 5.00501C11.8725 5.00377 12.1001 5.02767 12.3276 5.02701C14.7003 5.0201 17.0732 4.98275 19.4455 5.00957C21.7379 5.03548 23.7571 5.81268 25.414 7.39706C26.719 8.64496 27.504 10.1843 27.8383 11.9477C27.9861 12.7272 28.0452 13.5125 27.9622 14.3029C27.7925 15.9173 27.2136 17.3711 26.1774 18.6362C24.874 20.2275 23.1949 21.2111 21.1717 21.6301C20.4946 21.7702 19.8082 21.7957 19.1199 21.793C17.5307 21.7869 15.9416 21.778 14.3524 21.7702C14.3302 21.7701 14.3056 21.776 14.2862 21.7686C14.222 21.7444 14.1597 21.7153 14.0967 21.6881C14.1246 21.6338 14.1401 21.5663 14.1824 21.5271C14.624 21.1177 15.0696 20.7126 15.5145 20.3067C15.7716 20.072 16.0295 19.8381 16.2961 19.5963Z" class="logo-accent"/>
</svg>
