<svg width="32" height="32" viewBox="0 0 32 32" fill="none" xmlns="http://www.w3.org/2000/svg">
<path d="M4.58664 8.09888C4.44418 8.63586 4.23596 9.57832 4.09898 10.8769V10.8797C4.08254 11.0632 4.06336 11.2495 4.04692 11.4441C3.95651 12.6413 3.99487 13.8221 4.17843 14.9043C4.88253 18.6988 6.83593 22.9974 15.4961 27.8686C15.5728 27.9124 15.6468 27.9562 15.7235 28.0001C15.8002 27.9562 15.8742 27.9151 15.9509 27.8713C24.611 23.0028 26.5644 18.7015 27.2713 14.907C27.3096 14.6769 27.3398 14.4413 27.3672 14.2029L4.58664 8.09888Z" class="logo-accent"/>
<path d="M27.1098 9.4794C26.8906 8.24106 26.644 7.56983 26.644 7.56983L26.6331 7.57531C26.2084 6.15888 25.0112 4 25.0112 4H6.32649C6.32649 4 5.49636 5.42738 5.1539 6.3397C5.15116 6.35066 5.15116 6.35888 5.14842 6.3671C5.06349 6.58628 4.98404 6.77532 4.90733 6.99449C4.86623 7.10408 4.81692 7.27394 4.77856 7.41915L27.1125 9.4794H27.1098Z" class="logo-accent"/>
</svg>
