<svg width="32" height="32" viewBox="0 0 32 32" fill="none" xmlns="http://www.w3.org/2000/svg">
<path d="M10.0752 14.7668C10.5541 12.4101 12.4101 10.5533 14.7668 10.0752V4C9.08379 4.56388 4.56388 9.08379 4 14.7668H10.0752Z" class="logo-accent"/>
<path d="M17.1731 10.0752C19.5297 10.5533 21.3858 12.4101 21.8647 14.7668H27.9398C27.376 9.08379 22.8561 4.56388 17.1731 4V10.0752Z" class="logo-accent"/>
<path d="M14.7668 21.8646C12.4101 21.3866 10.5541 19.5297 10.0752 17.1731H4C4.56388 22.8561 9.08379 27.376 14.7668 27.9398V21.8646Z" class="logo-accent"/>
<path d="M17.1731 21.8646V28H28V17.1731H21.8647C21.3858 19.5297 19.5297 21.3866 17.1731 21.8646Z" class="logo-accent"/>
</svg>
