<svg width="32" height="32" viewBox="0 0 32 32" fill="none" xmlns="http://www.w3.org/2000/svg">
<path d="M14.6483 11.02H13.5345V12.3374C13.0394 12.5584 12.5855 12.8273 12.2128 13.1131L14.6983 8.49996V10.9271L14.6483 11.02Z" class="logo-accent"/>
<path d="M17.8517 11.02L17.8017 10.9271V8.49996L20.2872 13.1131C19.9145 12.8273 19.4606 12.5584 18.9655 12.3374V11.02H17.8517Z" class="logo-accent"/>
<path d="M21.4456 15.34H21.4871L27.5 26.5H18.1049L18.4298 25.4145H25.6074L20.9933 16.8507L21.4456 15.34Z" class="logo-accent"/>
<path d="M11.0129 15.34H11.0551L11.5071 16.85L6.89258 25.4145H14.0709L14.3958 26.5H5L11.0129 15.34Z" class="logo-accent"/>
<path fill-rule="evenodd" clip-rule="evenodd" d="M16.892 25.75L16.25 28L15.6065 25.75H16.892ZM19.9992 14.875L17.1065 25H15.3927L12.5007 14.875H19.9992ZM16.6357 4L16.6355 11.875H17.7929L17.7936 12.8772C18.7626 13.1915 19.524 13.735 19.8826 14.1257H12.6174C12.976 13.735 13.7373 13.1915 14.7064 12.8772L14.7071 11.875H15.8637L15.8643 4H16.6357Z" class="logo-accent"/>
<path fill-rule="evenodd" clip-rule="evenodd" d="M16.892 25.75L16.25 28L16.25 25.75H16.892ZM19.9992 14.875L17.1065 25H16.25V14.875H19.9992ZM16.625 4L16.6242 11.875H17.7929L17.7936 12.8772C18.7626 13.1915 19.524 13.735 19.8826 14.1257L16.25 14.125V4H16.625Z" class="logo-accent"/>
</svg>
