<svg width="32" height="32" viewBox="0 0 32 32" fill="none" xmlns="http://www.w3.org/2000/svg">
<path d="M23.631 10.7128H28C26.2956 6.76482 22.3702 4 17.7969 4C11.6597 4 6.68555 8.97496 6.68555 15.1113C6.68555 15.4345 6.70652 15.753 6.73371 16.07C7.21536 11.1882 11.3311 7.37387 16.3395 7.37387C19.2542 7.37387 21.8606 8.67121 23.631 10.7128Z" class="logo-accent"/>
<path d="M8.36902 20.5927H4C5.70441 24.5407 9.62985 27.3055 14.2032 27.3055C20.3403 27.3055 25.3145 22.3305 25.3145 16.1934C25.3145 15.8702 25.2935 15.5517 25.2663 15.2347C24.7847 20.1165 20.6689 23.9308 15.6606 23.9308C12.7458 23.9308 10.1395 22.6335 8.36902 20.5919V20.5927Z" class="logo-accent"/>
<path d="M18.1969 10.9637L15.9953 15.447L13.8768 10.9661C12.125 11.7825 10.9077 13.5545 10.9077 15.6148C10.9077 18.4487 13.2056 20.7466 16.0396 20.7466C18.8736 20.7466 21.1715 18.4487 21.1715 15.6148C21.1715 13.5522 19.9526 11.7787 18.1977 10.9637H18.1969Z" class="logo-accent"/>
</svg>
