<svg width="56" height="48" viewBox="0 0 56 48" fill="none" xmlns="http://www.w3.org/2000/svg">
<g clip-path="url(#clip0_2337_63093)">
<path d="M43.985 14.18L32.6604 7.65252C32.6604 7.65252 30.8662 6.60352 28.0038 6.60352C25.0231 6.60352 23.2961 7.6845 23.2961 7.6845L12.806 13.6875L28.765 22.8599V41.3966L39.2678 35.4001C39.2678 35.4001 41.1451 34.3637 42.5715 31.9012C43.8284 29.7328 43.985 27.6348 43.985 27.6348V14.18ZM26.91 17.1959C26.91 17.1959 29.2511 16.7641 31.2308 17.9059C33.2104 19.0477 34.3778 19.7193 34.3778 19.7193C34.3778 19.7193 34.381 21.3088 34.381 23.685C34.381 25.5879 32.7691 27.5612 32.7691 27.5612L32.7723 20.5796L26.91 17.1959ZM36.188 32.5088L32.7691 34.4694V32.6304L35.43 31.108C37.9629 29.2819 38.3819 26.589 38.3819 25.6551L38.3723 17.3846L31.1188 13.211C31.1188 13.211 30.0155 12.4882 28.0326 12.4882C26.0497 12.4882 24.9687 13.1566 24.9687 13.1566L22.4198 14.6214L20.8111 13.6907L24.3323 11.679C24.3323 11.679 25.7107 10.9147 28.0198 10.9147C30.1402 10.9147 31.7905 11.743 31.7905 11.743L39.9906 16.4731L39.981 25.4984C40.029 26.8864 39.3829 30.2797 36.188 32.5088Z" fill="#019AEB"/>
<path d="M12 19.6904L23.1873 26.1092L23.1777 28.0217L16.8165 24.3726L12.8091 26.6465L23.1713 32.6175L23.1777 34.4595L12.0768 28.0729C12.1055 28.8212 12.7836 31.1272 14.082 32.9117C15.3997 34.7186 16.9028 35.4864 16.9028 35.4864L27.1626 41.3934V23.7809L12.0128 15.0754L12 19.6904Z" fill="#019AEB"/>
</g>
<defs>
<clipPath id="clip0_2337_63093">
<rect width="31.985" height="36.7931" fill="white" transform="translate(12 5.60352)"/>
</clipPath>
</defs>
</svg>
