<svg width="32" height="32" viewBox="0 0 32 32" fill="none" xmlns="http://www.w3.org/2000/svg">
<path d="M28 8.66174L19.5026 3.7839C19.5026 3.7839 18.1563 3 16.0086 3C13.772 3 12.4761 3.8078 12.4761 3.8078L4.60499 8.29368L16.5797 15.148V29L24.4605 24.519C24.4605 24.519 25.8691 23.7445 26.9394 21.9043C27.8825 20.2839 28 18.7162 28 18.7162V8.66174ZM15.1879 10.9154C15.1879 10.9154 16.9445 10.5928 18.4299 11.446C19.9153 12.2992 20.7913 12.8011 20.7913 12.8011C20.7913 12.8011 20.7937 13.9889 20.7937 15.7646C20.7937 17.1866 19.5842 18.6612 19.5842 18.6612L19.5866 13.444L15.1879 10.9154ZM22.1495 22.3584L19.5842 23.8235V22.4492L21.5808 21.3116C23.4814 19.947 23.7957 17.9346 23.7957 17.2368L23.7885 11.0564L18.3459 7.93759C18.3459 7.93759 17.518 7.39747 16.0302 7.39747C14.5423 7.39747 13.7312 7.89695 13.7312 7.89695L11.8186 8.99155L10.6115 8.29607L13.2537 6.7928C13.2537 6.7928 14.288 6.22162 16.0206 6.22162C17.6116 6.22162 18.8499 6.8406 18.8499 6.8406L25.0028 10.3753L24.9956 17.1197C25.0316 18.1569 24.5468 20.6926 22.1495 22.3584Z" class="logo-accent"/>
<path d="M4 12.7796L12.3943 17.5762L12.3871 19.0054L7.61402 16.2785L4.60714 17.9777L12.3823 22.4397L12.3871 23.8162L4.05759 19.0436C4.07919 19.6029 4.58794 21.326 5.56223 22.6596C6.55093 24.0098 7.6788 24.5836 7.6788 24.5836L15.3772 28.9977V15.8363L4.0096 9.33095L4 12.7796Z" class="logo-accent"/>
</svg>
