<svg width="32" height="32" viewBox="0 0 32 32" fill="none" xmlns="http://www.w3.org/2000/svg">
<path d="M27.7482 9.04673C26.7311 5.39457 22.903 3.24167 19.2143 4.24727C15.5598 5.24373 13.3932 8.97359 14.3417 12.596H14.3394L14.3645 12.6875C14.3645 12.6875 14.3645 12.692 14.3645 12.6943L14.3714 12.7149C14.3805 12.7492 14.6228 13.5422 15.0959 14.7261C15.3656 15.4026 15.6604 16.0745 15.9666 16.7213C16.3049 17.4321 16.5609 18.0149 16.794 18.6159C17.0499 19.2741 17.2099 19.7678 17.2716 19.9621C17.907 22.5263 16.3666 25.1523 13.7795 25.8585C11.1443 26.5784 8.41093 25.0403 7.68415 22.4303C7.30705 21.0728 7.54703 19.6901 8.23495 18.5725L11.0232 20.1586V16.4333V15.9488V12.1367L4 16.1636L6.51857 17.5966C5.57696 19.153 5.25014 21.0705 5.77351 22.9537C6.62142 25.9979 9.4211 28 12.4653 28C13.0733 28 13.6926 27.92 14.3051 27.7532C17.8613 26.7841 20.0096 23.2257 19.2486 19.6969L19.244 19.6764L19.212 19.5438L19.2028 19.5095C19.2028 19.5095 19.2028 19.505 19.2006 19.5004C19.1846 19.4364 19.1708 19.3701 19.1526 19.3061H19.1411C19.0589 19.0479 18.892 18.5519 18.6429 17.912C18.3915 17.2652 18.1195 16.6413 17.7607 15.8871C17.4705 15.2769 17.1939 14.6461 16.9402 14.0062C16.506 12.9183 16.2775 12.1778 16.2775 12.1755C15.553 9.56781 17.1048 6.85955 19.7399 6.14192C22.3751 5.422 25.1085 6.96011 25.8352 9.5701C26.562 12.1778 25.0079 14.8861 22.3728 15.6037L22.8984 17.4961C26.5871 16.4905 28.7629 12.7012 27.7459 9.04901L27.7482 9.04673Z" class="logo-accent"/>
<path d="M18.1492 5.08601C19.1708 5.82878 19.3902 7.25262 18.6406 8.26508C17.8887 9.27753 16.4534 9.49465 15.4295 8.75188C14.4079 8.00911 14.1885 6.58527 14.9381 5.57281C15.6901 4.56036 17.1253 4.34324 18.1492 5.08601Z" class="logo-accent"/>
<path d="M24.8821 14.317C25.9037 15.0597 26.1231 16.4836 25.3735 17.496C24.6216 18.5085 23.1863 18.7256 22.1624 17.9828C21.1408 17.2401 20.9214 15.8162 21.671 14.8038C22.423 13.7913 23.8582 13.5742 24.8821 14.317Z" class="logo-accent"/>
<path d="M19.027 21.619C20.0486 22.3617 20.268 23.7856 19.5184 24.798C18.7665 25.8105 17.3312 26.0276 16.3073 25.2848C15.2857 24.5421 15.0663 23.1182 15.8159 22.1058C16.5679 21.0933 18.0031 20.8762 19.027 21.619Z" class="logo-accent"/>
</svg>
