<svg width="32" height="32" viewBox="0 0 32 32" fill="none" xmlns="http://www.w3.org/2000/svg">
<path d="M24.4706 4H7.52941C5.58017 4 4 5.58017 4 7.52941V24.4706C4 26.4198 5.58017 28 7.52941 28H24.4706C26.4198 28 28 26.4198 28 24.4706V7.52941C28 5.58017 26.4198 4 24.4706 4Z" class="logo-accent"/>
<path d="M17.3176 15.6706V16.7059C17.3176 17.0353 17.0353 17.3176 16.7059 17.3176H11.4824C11.1529 17.3176 10.8706 17.0353 10.8706 16.7059V11.4824C10.8706 11.1529 11.1529 10.8706 11.4824 10.8706H16.7059C17.0353 10.8706 17.3176 11.1529 17.3176 11.4824V11.7647H19.2471V10.9647C19.2471 9.88235 18.3529 8.98824 17.2706 8.98824H10.9647C9.88235 8.98824 8.98824 9.88235 8.98824 10.9647V17.2706C8.98824 18.3529 9.88235 19.2471 10.9647 19.2471H17.2706C18.3529 19.2471 19.2471 18.3529 19.2471 17.2706V15.7176H17.3176V15.6706Z" fill="white"/>
<path d="M21.0824 12.7529H14.7765C13.6941 12.7529 12.8 13.6471 12.8 14.7294V16.2824H14.7294V15.2471C14.7294 14.9176 15.0118 14.6353 15.3412 14.6353H20.5647C20.8941 14.6353 21.1765 14.9176 21.1765 15.2471V20.4706C21.1765 20.8 20.8941 21.0824 20.5647 21.0824H15.3412C15.0118 21.0824 14.7294 20.8 14.7294 20.4706V20.1882H12.8V21.0353C12.8 22.1176 13.6941 23.0118 14.7765 23.0118H21.0824C22.1647 23.0118 23.0588 22.1176 23.0588 21.0353V14.7294C23.0588 13.6471 22.1647 12.7529 21.0824 12.7529Z" fill="white"/>
</svg>
