<svg width="282" height="48" viewBox="0 0 282 48" fill="none" xmlns="http://www.w3.org/2000/svg">
<path d="M23.8916 19.8984V14.1538L18.9916 17.0247L14.7916 14.5632L25.9916 8L37.1916 14.5632L32.9916 17.0247L28.0916 14.1538V19.8984L25.9916 21.1292L23.8916 19.8984Z" fill="#004F83"/>
<path d="M27.4 31.7968V23.5907L40 16.2061V21.1292L31.6 26.0522V29.3352L27.4 31.7968Z" fill="#004F83"/>
<path d="M35.8 26.8708V30.1538L27.4 35.0769V40L40 32.6154V24.4093L35.8 26.8708Z" fill="#004F83"/>
<path d="M12 21.1292V16.2061L24.6 23.5907V28.5138L20.4 26.0522V37.5385L16.2 35.0769V23.5907L12 21.1292Z" fill="#004F83"/>
<path d="M135.363 28.1229L132.525 29.6136C133.873 32.8235 136.851 35 141.064 35C146.106 35 149.059 32.2778 149.059 28.8118C149.059 24.8276 145.859 23.5107 141.826 22.3493C138.363 21.3251 136.839 20.6666 136.839 18.6913C136.839 17.1427 138.186 16.2831 140.536 16.2831C142.829 16.2831 144.633 17.2433 145.895 19.3772L148.502 17.5725C147.224 15.0637 144.761 13 140.576 13C136.278 13 133.327 15.3808 133.327 18.99C133.327 23.0291 136.622 24.1326 140.719 25.3519C144.216 26.3823 145.532 27.248 145.532 29.077C145.532 30.9884 143.786 31.8206 141.207 31.8206C138.57 31.8206 136.622 30.6165 135.363 28.1229Z" fill="#004F83"/>
<path d="M56.5418 16.719V34.6007H60.1145V16.719H66.6471V13.3963H50V16.719H56.5418Z" fill="#004F83"/>
<path d="M66.1167 19.3833V34.6007H69.665V24.9709C70.6679 23.34 72.1006 22.2792 74.3655 22.2792C74.6813 22.2824 74.9967 22.3017 75.3105 22.3371L75.4264 19.0998H75.1947C72.2866 19.0998 70.6526 20.3526 69.7076 21.8768H69.6497V19.3833H66.1167Z" fill="#004F83"/>
<path fill-rule="evenodd" clip-rule="evenodd" d="M76.4445 30.9304C76.4445 27.6352 79.252 25.4434 86.3578 24.6295V24.1692C86.3578 22.645 85.556 21.9927 83.8642 21.9927C81.7456 21.9927 80.0263 23.023 78.7369 24.0564L77.0176 21.8494C79.0377 20.0573 81.6516 19.0795 84.3519 19.1059C88.4215 19.1059 89.839 21.0538 89.839 24.5929V30.8756C89.839 32.7046 89.9548 33.8264 90.2688 34.6007H86.7022C86.4706 33.9765 86.3539 33.3155 86.3578 32.6497C84.8092 34.2257 83.0046 34.8293 80.7427 34.8293C78.2766 34.8293 76.4445 33.4606 76.4445 30.9304ZM86.3578 30.3574V27.0042C82.1449 27.5773 79.9105 28.6076 79.9105 30.269C79.9105 31.4731 80.7427 32.098 82.0443 32.098C82.8424 32.1054 83.6341 31.9555 84.3742 31.6568C85.1143 31.3581 85.7884 30.9166 86.3578 30.3574Z" fill="#004F83"/>
<path fill-rule="evenodd" clip-rule="evenodd" d="M98.6853 19.1089C94.7895 19.1089 92.1801 21.764 92.1801 27.0346C92.1801 32.3083 94.7316 34.8293 98.1976 34.8384C100.463 34.8384 101.923 33.8355 103.041 32.5461C103.03 33.246 103.145 33.9421 103.383 34.6006H107.023C106.678 33.8264 106.565 32.7046 106.565 30.8756V13.4054H103.041V21.0263C102.492 20.4172 101.82 19.9313 101.069 19.6008C100.318 19.2703 99.5057 19.1027 98.6853 19.1089ZM103.041 23.9192V30.0159C102.209 31.0219 100.804 31.9364 99.3438 31.9364C97.0849 31.9364 95.704 30.3299 95.704 27.1261C95.704 23.7454 96.7923 22.0262 99.4596 22.0262C100.161 22.0505 100.848 22.2335 101.468 22.5614C102.088 22.8893 102.626 23.3535 103.041 23.9192Z" fill="#004F83"/>
<path fill-rule="evenodd" clip-rule="evenodd" d="M109.001 27.0072C109.001 21.2153 113.098 19.0998 116.25 19.0998C119.658 19.0998 122.926 21.133 122.926 27.3303V28.1625H112.525C112.668 30.9061 114.354 32.1254 116.594 32.1254C118.57 32.1254 119.716 31.467 120.862 30.3482L122.725 32.1772C121.149 33.9239 119.067 34.9207 116.323 34.9207C112.525 34.9146 109.001 32.5948 109.001 27.0072ZM119.689 25.5166C119.487 23.1968 118.341 21.9622 116.223 21.9622C114.503 21.9622 112.927 22.9376 112.583 25.5166H119.689Z" fill="#004F83"/>
<path fill-rule="evenodd" clip-rule="evenodd" d="M151.059 27.0072C151.059 21.2153 155.156 19.0998 158.308 19.0998C161.719 19.0998 164.984 21.133 164.984 27.3303V28.1625H154.583C154.726 30.9061 156.412 32.1254 158.653 32.1254C160.628 32.1254 161.774 31.467 162.92 30.3482L164.783 32.1772C163.207 33.9239 161.125 34.9207 158.381 34.9207C154.583 34.9146 151.059 32.5948 151.059 27.0072ZM161.747 25.5166C161.546 23.1968 160.399 21.9622 158.281 21.9622C156.561 21.9622 154.985 22.9376 154.641 25.5166H161.747Z" fill="#004F83"/>
<path d="M167.502 19.3833V34.6007H171.041V24.9709C172.044 23.34 173.477 22.2792 175.739 22.2792C176.054 22.2824 176.37 22.3017 176.684 22.3371L176.8 19.0998H176.571C173.66 19.0998 172.029 20.3526 171.084 21.8768H171.026V19.3833H167.502Z" fill="#004F83"/>
<path d="M183.353 34.6281L177.866 19.3863H181.555L185.28 30.6195H185.338L189.033 19.3863H192.444L186.941 34.6281H183.353Z" fill="#004F83"/>
<path d="M194.209 13.6828V16.7495H197.821V13.6828H194.209Z" fill="#004F83"/>
<path d="M194.239 19.3833V34.6007H197.79V19.3833H194.239Z" fill="#004F83"/>
<path d="M200.311 27.0072C200.311 21.1909 204.238 19.0998 207.628 19.0998C211.411 19.0998 213.014 21.1909 213.932 23.5382L210.953 24.599C210.344 22.8797 209.261 22.0506 207.57 22.0506C205.564 22.0506 203.875 23.3675 203.875 27.0072C203.875 30.2446 205.192 32.0218 207.515 32.0218C209.118 32.0218 210.237 31.534 211.066 29.3849L213.989 30.4458C212.901 32.8844 211.097 34.9146 207.426 34.9146C203.893 34.9146 200.311 32.5644 200.311 27.0072Z" fill="#004F83"/>
<path fill-rule="evenodd" clip-rule="evenodd" d="M222.61 19.0998C219.458 19.0998 215.361 21.2153 215.361 27.0072C215.361 32.5948 218.87 34.9146 222.665 34.9207C225.409 34.9207 227.491 33.9239 229.067 32.1772L227.204 30.3482C226.061 31.467 224.915 32.1254 222.936 32.1254C220.699 32.1254 219.013 30.9061 218.87 28.1625H229.286V27.3303C229.286 21.133 226.018 19.0998 222.61 19.0998ZM222.561 21.9622C224.683 21.9622 225.829 23.1968 226.03 25.5166H218.925C219.266 22.9376 220.842 21.9622 222.561 21.9622Z" fill="#004F83"/>
<path d="M232.042 13.3963H234.017V34.6007H232.042V13.3963Z" fill="#004F83"/>
<path d="M240.01 13.884H237.919V16.0179H240.01V13.884Z" fill="#004F83"/>
<path d="M239.952 19.4991H237.977V34.6007H239.952V19.4991Z" fill="#004F83"/>
<path d="M242.351 19.4991H244.485L248.942 32.2412H249L253.438 19.4991H255.444L249.887 34.6555H247.909L242.351 19.4991Z" fill="#004F83"/>
<path fill-rule="evenodd" clip-rule="evenodd" d="M263.031 19.2126C259.849 19.2126 256.41 21.6756 256.41 27.0346C256.41 32.1925 259.505 34.9146 263.019 34.9238C265.885 34.9238 267.747 33.6191 269.064 31.4852L267.845 30.5098C266.699 32.2778 265.409 33.2533 263.144 33.2533C260.538 33.2533 258.416 31.1621 258.389 27.437H269.189V27.0651C269.189 21.9073 266.555 19.2126 263.031 19.2126ZM263.004 20.8739C265.696 20.8739 267.071 22.9956 267.272 25.861H258.431C258.791 22.4499 260.827 20.8739 263.004 20.8739Z" fill="#004F83"/>
</svg>
