<svg width="84" height="30" viewBox="0 0 84 30" fill="none" xmlns="http://www.w3.org/2000/svg">
<path d="M3.65277 7.8974H2.0514V1.78668H0V0.476562H5.70418V1.78595H3.65277V7.89666V7.8974Z" class="logo-accent"/>
<path d="M8.56749 2.11597C8.647 2.11597 8.7385 2.12039 8.84426 2.1285C8.94927 2.13734 9.03478 2.14766 9.10003 2.16166L8.98152 3.61325C8.92977 3.59631 8.85626 3.58378 8.76175 3.57494C8.66725 3.56683 8.58549 3.56241 8.51648 3.56241C8.31322 3.56241 8.11596 3.5882 7.92469 3.63831C7.73343 3.68915 7.56241 3.77094 7.4109 3.88442C7.25939 3.99789 7.13938 4.14673 7.05163 4.33095C6.96387 4.51516 6.91962 4.74137 6.91962 5.00885V7.89657H5.34375V2.22281H6.53709L6.76961 3.17704H6.84686C6.96087 2.98398 7.10263 2.80714 7.27289 2.6465C7.44316 2.48587 7.63817 2.35692 7.85644 2.26039C8.07545 2.16387 8.31172 2.11523 8.56674 2.11523L8.56749 2.11597Z" class="logo-accent"/>
<path d="M10.2284 0C10.4624 0 10.6642 0.0530533 10.833 0.159897C11.0017 0.26674 11.0865 0.464954 11.0865 0.75601C11.0865 1.04707 11.0017 1.24233 10.833 1.35212C10.6642 1.46191 10.4624 1.51718 10.2284 1.51718C9.99439 1.51718 9.78812 1.46191 9.62161 1.35212C9.45435 1.24233 9.37109 1.04338 9.37109 0.75601C9.37109 0.468638 9.45435 0.266004 9.62161 0.159897C9.78887 0.0530533 9.99139 0 10.2284 0ZM11.0137 2.22308V7.89758H9.43785V2.22308H11.0137Z" class="logo-accent"/>
<path d="M18.7239 2.11621C19.378 2.11621 19.8738 2.28127 20.209 2.61138C20.5451 2.94148 20.7131 3.46981 20.7131 4.19782V7.89755H19.132V4.58319C19.132 4.17719 19.0615 3.87066 18.9204 3.66434C18.7794 3.45802 18.5604 3.35486 18.2641 3.35486C17.8471 3.35486 17.5508 3.50149 17.3753 3.79402C17.1998 4.08655 17.1121 4.50508 17.1121 5.05035V7.89755H15.5362V4.58319C15.5362 4.31277 15.5054 4.08582 15.4432 3.90308C15.3809 3.72034 15.2864 3.58328 15.1589 3.49191C15.0314 3.40054 14.8679 3.35486 14.6684 3.35486C14.3759 3.35486 14.1456 3.42707 13.9783 3.57076C13.8111 3.71444 13.6926 3.92592 13.6221 4.20519C13.5515 4.48445 13.5163 4.82488 13.5163 5.22794V7.89755H11.9404V2.22305H13.1443L13.3558 2.94885H13.4435C13.5605 2.75285 13.7076 2.59369 13.8853 2.47211C14.0623 2.35053 14.2581 2.26063 14.4719 2.20316C14.6856 2.14569 14.9024 2.11695 15.1229 2.11695C15.5467 2.11695 15.906 2.18474 16.2 2.32032C16.4948 2.4559 16.7213 2.66517 16.8795 2.94959H17.0191C17.1916 2.65853 17.4346 2.44706 17.7504 2.31516C18.0654 2.18326 18.3902 2.11695 18.7239 2.11695V2.11621Z" class="logo-accent"/>
<path d="M23.1845 0V1.83771C23.1845 2.05066 23.1785 2.26213 23.1665 2.47214C23.1545 2.68214 23.1395 2.84425 23.1222 2.9592H23.1845C23.336 2.72561 23.543 2.52666 23.8048 2.36308C24.0666 2.19877 24.4056 2.11698 24.8226 2.11698C25.4699 2.11698 25.9957 2.36603 26.3985 2.86341C26.8013 3.36078 27.003 4.09026 27.003 5.05112C27.003 5.69734 26.91 6.23966 26.724 6.67809C26.538 7.11651 26.2777 7.44662 25.9439 7.66768C25.6102 7.88947 25.2224 8 24.7814 8C24.3403 8 24.0238 7.92558 23.7793 7.77673C23.5348 7.62789 23.3368 7.46062 23.1852 7.2742H23.0765L22.8132 7.89831H21.6094V0H23.1852H23.1845ZM24.3156 3.35489C24.0403 3.35489 23.8213 3.41089 23.6593 3.52215C23.4973 3.63415 23.3795 3.80142 23.3053 4.02468C23.231 4.24795 23.1905 4.5309 23.1837 4.87206V5.03933C23.1837 5.59123 23.2662 6.01345 23.432 6.30598C23.597 6.59851 23.8985 6.74514 24.3358 6.74514C24.6599 6.74514 24.9171 6.59777 25.1084 6.30377C25.2997 6.00903 25.3949 5.5846 25.3949 5.02975C25.3949 4.4749 25.2981 4.05711 25.1054 3.77563C24.9126 3.49489 24.6486 3.35415 24.3148 3.35415L24.3156 3.35489Z" class="logo-accent"/>
<path d="M29.2272 7.89758H27.6514V0H29.2272V7.89758Z" class="logo-accent"/>
<path d="M32.5881 2.11621C33.1222 2.11621 33.582 2.21716 33.9675 2.41832C34.353 2.61948 34.6508 2.91127 34.8616 3.2937C35.0716 3.67613 35.1766 4.14329 35.1766 4.69446V5.44531H31.4518C31.4691 5.88226 31.6026 6.22416 31.8523 6.47322C32.1021 6.72153 32.4494 6.84606 32.8934 6.84606C33.2617 6.84606 33.5992 6.80922 33.906 6.7348C34.2128 6.66038 34.5278 6.54837 34.8518 6.39953V7.59765C34.566 7.73618 34.2668 7.83786 33.9555 7.90197C33.6435 7.96608 33.2654 7.9985 32.8214 7.9985C32.2431 7.9985 31.7301 7.89387 31.2845 7.68386C30.8383 7.47386 30.4887 7.15407 30.236 6.72448C29.9825 6.2949 29.8564 5.75331 29.8564 5.10046C29.8564 4.44761 29.9712 3.88466 30.2 3.44328C30.4287 3.00191 30.7483 2.67032 31.1585 2.44853C31.5681 2.22674 32.0451 2.11621 32.5896 2.11621H32.5881ZM32.5986 3.2178C32.2919 3.2178 32.0384 3.31433 31.8366 3.50739C31.6348 3.69971 31.5186 4.00329 31.4878 4.41593H33.699C33.6952 4.18603 33.6532 3.98118 33.5722 3.80139C33.4912 3.62234 33.3705 3.48012 33.2107 3.37475C33.0502 3.27012 32.8462 3.2178 32.5986 3.2178Z" class="logo-accent"/>
<path d="M35.5782 7.23467C35.5737 6.85298 35.8849 6.53982 36.2735 6.53613C36.2787 6.53613 36.284 6.53613 36.2892 6.53613C36.6823 6.53613 37.0003 6.8493 37.0003 7.23467C37.0003 7.62078 36.6815 7.9332 36.2892 7.9332C35.8962 7.9332 35.5782 7.62004 35.5782 7.23467ZM36.8713 7.23467C36.8653 6.91782 36.5997 6.66508 36.2772 6.67098C35.9547 6.67687 35.6974 6.93772 35.7034 7.25456C35.7087 7.56846 35.9705 7.81973 36.29 7.81825C36.611 7.81825 36.872 7.56257 36.872 7.24646C36.872 7.24204 36.872 7.23835 36.872 7.23393L36.8713 7.23467ZM36.0132 6.83677H36.3042C36.488 6.83677 36.5952 6.91487 36.5952 7.07109C36.6042 7.16983 36.5405 7.2612 36.443 7.28772L36.611 7.60162H36.4482L36.2915 7.30909H36.1685V7.60162H36.0125V6.83677H36.0132ZM36.2952 7.19193C36.3905 7.19193 36.443 7.16172 36.443 7.07993C36.443 6.99814 36.3905 6.96793 36.2915 6.96793H36.1685V7.19119H36.2945L36.2952 7.19193Z" class="logo-accent"/>
<path d="M1.6875 25V12.1504H3.79688V25H1.6875ZM11.1498 15.0859C12.2455 15.0859 13.098 15.3701 13.7074 15.9385C14.3227 16.501 14.6303 17.4062 14.6303 18.6543V25H12.5648V19.041C12.5648 18.2852 12.4096 17.7197 12.099 17.3447C11.7885 16.9639 11.308 16.7734 10.6576 16.7734C9.71426 16.7734 9.05801 17.0635 8.68887 17.6436C8.32559 18.2236 8.14395 19.0645 8.14395 20.166V25H6.07852V15.2705H7.68691L7.97695 16.5889H8.09121C8.30215 16.249 8.56289 15.9707 8.87344 15.7539C9.18984 15.5312 9.54141 15.3643 9.92812 15.2529C10.3207 15.1416 10.7279 15.0859 11.1498 15.0859ZM21.6932 15.0859C22.7889 15.0859 23.6414 15.3701 24.2508 15.9385C24.866 16.501 25.1736 17.4062 25.1736 18.6543V25H23.1082V19.041C23.1082 18.2852 22.9529 17.7197 22.6424 17.3447C22.3318 16.9639 21.8514 16.7734 21.201 16.7734C20.2576 16.7734 19.6014 17.0635 19.2322 17.6436C18.8689 18.2236 18.6873 19.0645 18.6873 20.166V25H16.6219V15.2705H18.2303L18.5203 16.5889H18.6346C18.8455 16.249 19.1062 15.9707 19.4168 15.7539C19.7332 15.5312 20.0848 15.3643 20.4715 15.2529C20.8641 15.1416 21.2713 15.0859 21.6932 15.0859ZM35.7785 20.1133C35.7785 20.9219 35.673 21.6396 35.4621 22.2666C35.2512 22.8936 34.9436 23.4238 34.5393 23.8574C34.135 24.2852 33.6486 24.6133 33.0803 24.8418C32.5119 25.0645 31.8703 25.1758 31.1555 25.1758C30.4875 25.1758 29.8752 25.0645 29.3186 24.8418C28.7619 24.6133 28.2785 24.2852 27.8684 23.8574C27.4641 23.4238 27.1506 22.8936 26.9279 22.2666C26.7053 21.6396 26.5939 20.9219 26.5939 20.1133C26.5939 19.041 26.7785 18.1328 27.1477 17.3887C27.5227 16.6387 28.0559 16.0674 28.7473 15.6748C29.4387 15.2822 30.2619 15.0859 31.217 15.0859C32.1135 15.0859 32.9045 15.2822 33.59 15.6748C34.2756 16.0674 34.8117 16.6387 35.1984 17.3887C35.5852 18.1387 35.7785 19.0469 35.7785 20.1133ZM28.7209 20.1133C28.7209 20.8223 28.8059 21.4287 28.9758 21.9326C29.1516 22.4365 29.4211 22.8232 29.7844 23.0928C30.1477 23.3564 30.6164 23.4883 31.1906 23.4883C31.7648 23.4883 32.2336 23.3564 32.5969 23.0928C32.9602 22.8232 33.2268 22.4365 33.3967 21.9326C33.5666 21.4287 33.6516 20.8223 33.6516 20.1133C33.6516 19.4043 33.5666 18.8037 33.3967 18.3115C33.2268 17.8135 32.9602 17.4355 32.5969 17.1777C32.2336 16.9141 31.7619 16.7822 31.1818 16.7822C30.3264 16.7822 29.7023 17.0693 29.3098 17.6436C28.9172 18.2178 28.7209 19.041 28.7209 20.1133ZM39.4752 25L35.775 15.2705H37.9635L39.9674 20.9834C40.0963 21.3467 40.2135 21.7393 40.3189 22.1611C40.4244 22.583 40.4977 22.9375 40.5387 23.2246H40.609C40.65 22.9258 40.7291 22.5684 40.8463 22.1523C40.9635 21.7305 41.0836 21.3408 41.2066 20.9834L43.2105 15.2705H45.3902L41.69 25H39.4752ZM49.7812 15.0859C51.0117 15.0859 51.9404 15.3584 52.5674 15.9033C53.2002 16.4482 53.5166 17.2979 53.5166 18.4521V25H52.0488L51.6533 23.6201H51.583C51.3076 23.9717 51.0234 24.2617 50.7305 24.4902C50.4375 24.7188 50.0977 24.8887 49.7109 25C49.3301 25.1172 48.8643 25.1758 48.3135 25.1758C47.7334 25.1758 47.2148 25.0703 46.7578 24.8594C46.3008 24.6426 45.9404 24.3145 45.6768 23.875C45.4131 23.4355 45.2812 22.8789 45.2812 22.2051C45.2812 21.2031 45.6533 20.4502 46.3975 19.9463C47.1475 19.4424 48.2783 19.1641 49.79 19.1113L51.4775 19.0498V18.54C51.4775 17.8662 51.3193 17.3857 51.0029 17.0986C50.6924 16.8115 50.2529 16.668 49.6846 16.668C49.1982 16.668 48.7266 16.7383 48.2695 16.8789C47.8125 17.0195 47.3672 17.1924 46.9336 17.3975L46.2656 15.9385C46.7402 15.6865 47.2793 15.4814 47.8828 15.3232C48.4922 15.165 49.125 15.0859 49.7812 15.0859ZM51.4688 20.3506L50.2119 20.3945C49.1807 20.4297 48.457 20.6055 48.041 20.9219C47.625 21.2383 47.417 21.6719 47.417 22.2227C47.417 22.7031 47.5605 23.0547 47.8477 23.2773C48.1348 23.4941 48.5127 23.6025 48.9814 23.6025C49.6963 23.6025 50.2881 23.4004 50.7568 22.9961C51.2314 22.5859 51.4688 21.9854 51.4688 21.1943V20.3506ZM59.1293 23.5059C59.3988 23.5059 59.6654 23.4824 59.9291 23.4355C60.1928 23.3828 60.433 23.3213 60.6498 23.251V24.8154C60.4213 24.915 60.1254 25 59.7621 25.0703C59.3988 25.1406 59.0209 25.1758 58.6283 25.1758C58.0775 25.1758 57.5824 25.085 57.143 24.9033C56.7035 24.7158 56.3549 24.3965 56.0971 23.9453C55.8393 23.4941 55.7104 22.8701 55.7104 22.0732V16.8438H54.3832V15.9209L55.807 15.1914L56.4838 13.1084H57.7846V15.2705H60.5707V16.8438H57.7846V22.0469C57.7846 22.5391 57.9076 22.9053 58.1537 23.1455C58.3998 23.3857 58.725 23.5059 59.1293 23.5059ZM63.7928 15.2705V25H61.7273V15.2705H63.7928ZM62.7732 11.5439C63.0896 11.5439 63.3621 11.6289 63.5906 11.7988C63.825 11.9688 63.9422 12.2617 63.9422 12.6777C63.9422 13.0879 63.825 13.3809 63.5906 13.5566C63.3621 13.7266 63.0896 13.8115 62.7732 13.8115C62.4451 13.8115 62.1668 13.7266 61.9383 13.5566C61.7156 13.3809 61.6043 13.0879 61.6043 12.6777C61.6043 12.2617 61.7156 11.9688 61.9383 11.7988C62.1668 11.6289 62.4451 11.5439 62.7732 11.5439ZM68.0783 25L64.3781 15.2705H66.5666L68.5705 20.9834C68.6994 21.3467 68.8166 21.7393 68.9221 22.1611C69.0275 22.583 69.1008 22.9375 69.1418 23.2246H69.2121C69.2531 22.9258 69.3322 22.5684 69.4494 22.1523C69.5666 21.7305 69.6867 21.3408 69.8098 20.9834L71.8137 15.2705H73.9934L70.2932 25H68.0783ZM78.4459 15.0859C79.3131 15.0859 80.0572 15.2646 80.6783 15.6221C81.2994 15.9795 81.777 16.4863 82.1109 17.1426C82.4449 17.7988 82.6119 18.584 82.6119 19.498V20.6055H76.1168C76.1402 21.5488 76.3922 22.2754 76.8727 22.7852C77.359 23.2949 78.0387 23.5498 78.9117 23.5498C79.5328 23.5498 80.0895 23.4912 80.5816 23.374C81.0797 23.251 81.5924 23.0723 82.1197 22.8379V24.5166C81.6334 24.7451 81.1383 24.9121 80.6344 25.0176C80.1305 25.123 79.527 25.1758 78.8238 25.1758C77.8688 25.1758 77.0279 24.9912 76.3014 24.6221C75.5807 24.2471 75.0152 23.6904 74.6051 22.9521C74.2008 22.2139 73.9986 21.2969 73.9986 20.2012C73.9986 19.1113 74.1832 18.1855 74.5523 17.4238C74.9215 16.6621 75.44 16.082 76.108 15.6836C76.776 15.2852 77.5553 15.0859 78.4459 15.0859ZM78.4459 16.6416C77.7955 16.6416 77.2682 16.8525 76.8639 17.2744C76.4654 17.6963 76.2311 18.3145 76.1607 19.1289H80.5904C80.5846 18.6426 80.5025 18.2119 80.3443 17.8369C80.192 17.4619 79.9576 17.1689 79.6412 16.958C79.3307 16.7471 78.9322 16.6416 78.4459 16.6416Z" class="logo-text"/>
</svg>
