<svg width="134" height="30" viewBox="0 0 134 30" fill="none" xmlns="http://www.w3.org/2000/svg">
<path d="M3.65277 7.8974H2.0514V1.78668H0V0.476562H5.70418V1.78595H3.65277V7.89666V7.8974Z" class="logo-accent"/>
<path d="M8.56749 2.11597C8.647 2.11597 8.7385 2.12039 8.84426 2.1285C8.94927 2.13734 9.03478 2.14766 9.10003 2.16166L8.98152 3.61325C8.92977 3.59631 8.85626 3.58378 8.76175 3.57494C8.66725 3.56683 8.58549 3.56241 8.51648 3.56241C8.31322 3.56241 8.11596 3.5882 7.92469 3.63831C7.73343 3.68915 7.56241 3.77094 7.4109 3.88442C7.25939 3.99789 7.13938 4.14673 7.05163 4.33095C6.96387 4.51516 6.91962 4.74137 6.91962 5.00885V7.89657H5.34375V2.22281H6.53709L6.76961 3.17704H6.84686C6.96087 2.98398 7.10263 2.80714 7.27289 2.6465C7.44316 2.48587 7.63817 2.35692 7.85644 2.26039C8.07545 2.16387 8.31172 2.11523 8.56674 2.11523L8.56749 2.11597Z" class="logo-accent"/>
<path d="M10.2284 0C10.4624 0 10.6642 0.0530533 10.833 0.159897C11.0017 0.26674 11.0865 0.464954 11.0865 0.75601C11.0865 1.04707 11.0017 1.24233 10.833 1.35212C10.6642 1.46191 10.4624 1.51718 10.2284 1.51718C9.99439 1.51718 9.78812 1.46191 9.62161 1.35212C9.45435 1.24233 9.37109 1.04338 9.37109 0.75601C9.37109 0.468638 9.45435 0.266004 9.62161 0.159897C9.78887 0.0530533 9.99139 0 10.2284 0ZM11.0137 2.22308V7.89758H9.43785V2.22308H11.0137Z" class="logo-accent"/>
<path d="M18.7239 2.11621C19.378 2.11621 19.8738 2.28127 20.209 2.61138C20.5451 2.94148 20.7131 3.46981 20.7131 4.19782V7.89755H19.132V4.58319C19.132 4.17719 19.0615 3.87066 18.9204 3.66434C18.7794 3.45802 18.5604 3.35486 18.2641 3.35486C17.8471 3.35486 17.5508 3.50149 17.3753 3.79402C17.1998 4.08655 17.1121 4.50508 17.1121 5.05035V7.89755H15.5362V4.58319C15.5362 4.31277 15.5054 4.08582 15.4432 3.90308C15.3809 3.72034 15.2864 3.58328 15.1589 3.49191C15.0314 3.40054 14.8679 3.35486 14.6684 3.35486C14.3759 3.35486 14.1456 3.42707 13.9783 3.57076C13.8111 3.71444 13.6926 3.92592 13.6221 4.20519C13.5515 4.48445 13.5163 4.82488 13.5163 5.22794V7.89755H11.9404V2.22305H13.1443L13.3558 2.94885H13.4435C13.5605 2.75285 13.7076 2.59369 13.8853 2.47211C14.0623 2.35053 14.2581 2.26063 14.4719 2.20316C14.6856 2.14569 14.9024 2.11695 15.1229 2.11695C15.5467 2.11695 15.906 2.18474 16.2 2.32032C16.4948 2.4559 16.7213 2.66517 16.8795 2.94959H17.0191C17.1916 2.65853 17.4346 2.44706 17.7504 2.31516C18.0654 2.18326 18.3902 2.11695 18.7239 2.11695V2.11621Z" class="logo-accent"/>
<path d="M23.1845 0V1.83771C23.1845 2.05066 23.1785 2.26213 23.1665 2.47214C23.1545 2.68214 23.1395 2.84425 23.1222 2.9592H23.1845C23.336 2.72561 23.543 2.52666 23.8048 2.36308C24.0666 2.19877 24.4056 2.11698 24.8226 2.11698C25.4699 2.11698 25.9957 2.36603 26.3985 2.86341C26.8013 3.36078 27.003 4.09026 27.003 5.05112C27.003 5.69734 26.91 6.23966 26.724 6.67809C26.538 7.11651 26.2777 7.44662 25.9439 7.66768C25.6102 7.88947 25.2224 8 24.7814 8C24.3403 8 24.0238 7.92558 23.7793 7.77673C23.5348 7.62789 23.3368 7.46062 23.1852 7.2742H23.0765L22.8132 7.89831H21.6094V0H23.1852H23.1845ZM24.3156 3.35489C24.0403 3.35489 23.8213 3.41089 23.6593 3.52215C23.4973 3.63415 23.3795 3.80142 23.3053 4.02468C23.231 4.24795 23.1905 4.5309 23.1837 4.87206V5.03933C23.1837 5.59123 23.2662 6.01345 23.432 6.30598C23.597 6.59851 23.8985 6.74514 24.3358 6.74514C24.6599 6.74514 24.9171 6.59777 25.1084 6.30377C25.2997 6.00903 25.3949 5.5846 25.3949 5.02975C25.3949 4.4749 25.2981 4.05711 25.1054 3.77563C24.9126 3.49489 24.6486 3.35415 24.3148 3.35415L24.3156 3.35489Z" class="logo-accent"/>
<path d="M29.2272 7.89758H27.6514V0H29.2272V7.89758Z" class="logo-accent"/>
<path d="M32.5881 2.11621C33.1222 2.11621 33.582 2.21716 33.9675 2.41832C34.353 2.61948 34.6508 2.91127 34.8616 3.2937C35.0716 3.67613 35.1766 4.14329 35.1766 4.69446V5.44531H31.4518C31.4691 5.88226 31.6026 6.22416 31.8523 6.47322C32.1021 6.72153 32.4494 6.84606 32.8934 6.84606C33.2617 6.84606 33.5992 6.80922 33.906 6.7348C34.2128 6.66038 34.5278 6.54837 34.8518 6.39953V7.59765C34.566 7.73618 34.2668 7.83786 33.9555 7.90197C33.6435 7.96608 33.2654 7.9985 32.8214 7.9985C32.2431 7.9985 31.7301 7.89387 31.2845 7.68386C30.8383 7.47386 30.4887 7.15407 30.236 6.72448C29.9825 6.2949 29.8564 5.75331 29.8564 5.10046C29.8564 4.44761 29.9712 3.88466 30.2 3.44328C30.4287 3.00191 30.7483 2.67032 31.1585 2.44853C31.5681 2.22674 32.0451 2.11621 32.5896 2.11621H32.5881ZM32.5986 3.2178C32.2919 3.2178 32.0384 3.31433 31.8366 3.50739C31.6348 3.69971 31.5186 4.00329 31.4878 4.41593H33.699C33.6952 4.18603 33.6532 3.98118 33.5722 3.80139C33.4912 3.62234 33.3705 3.48012 33.2107 3.37475C33.0502 3.27012 32.8462 3.2178 32.5986 3.2178Z" class="logo-accent"/>
<path d="M35.5782 7.23467C35.5737 6.85298 35.8849 6.53982 36.2735 6.53613C36.2787 6.53613 36.284 6.53613 36.2892 6.53613C36.6823 6.53613 37.0003 6.8493 37.0003 7.23467C37.0003 7.62078 36.6815 7.9332 36.2892 7.9332C35.8962 7.9332 35.5782 7.62004 35.5782 7.23467ZM36.8713 7.23467C36.8653 6.91782 36.5997 6.66508 36.2772 6.67098C35.9547 6.67687 35.6974 6.93772 35.7034 7.25456C35.7087 7.56846 35.9705 7.81973 36.29 7.81825C36.611 7.81825 36.872 7.56257 36.872 7.24646C36.872 7.24204 36.872 7.23835 36.872 7.23393L36.8713 7.23467ZM36.0132 6.83677H36.3042C36.488 6.83677 36.5952 6.91487 36.5952 7.07109C36.6042 7.16983 36.5405 7.2612 36.443 7.28772L36.611 7.60162H36.4482L36.2915 7.30909H36.1685V7.60162H36.0125V6.83677H36.0132ZM36.2952 7.19193C36.3905 7.19193 36.443 7.16172 36.443 7.07993C36.443 6.99814 36.3905 6.96793 36.2915 6.96793H36.1685V7.19119H36.2945L36.2952 7.19193Z" class="logo-accent"/>
<path d="M9.10547 21.502C9.10547 22.2637 8.91797 22.9199 8.54297 23.4707C8.17383 24.0215 7.64062 24.4434 6.94336 24.7363C6.25195 25.0293 5.42578 25.1758 4.46484 25.1758C3.99609 25.1758 3.54785 25.1494 3.12012 25.0967C2.69238 25.0439 2.28809 24.9678 1.90723 24.8682C1.53223 24.7627 1.18945 24.6367 0.878906 24.4902V22.5039C1.40039 22.7324 1.9834 22.9404 2.62793 23.1279C3.27246 23.3096 3.92871 23.4004 4.59668 23.4004C5.1416 23.4004 5.59277 23.3301 5.9502 23.1895C6.31348 23.043 6.58301 22.8379 6.75879 22.5742C6.93457 22.3047 7.02246 21.9912 7.02246 21.6338C7.02246 21.2529 6.91992 20.9307 6.71484 20.667C6.50977 20.4033 6.19922 20.1631 5.7832 19.9463C5.37305 19.7236 4.85742 19.4863 4.23633 19.2344C3.81445 19.0645 3.41016 18.8711 3.02344 18.6543C2.64258 18.4375 2.30273 18.1826 2.00391 17.8896C1.70508 17.5967 1.46777 17.251 1.29199 16.8525C1.12207 16.4482 1.03711 15.9736 1.03711 15.4287C1.03711 14.7021 1.20996 14.0811 1.55566 13.5654C1.90723 13.0498 2.39941 12.6543 3.03223 12.3789C3.6709 12.1035 4.41504 11.9658 5.26465 11.9658C5.93848 11.9658 6.57129 12.0361 7.16309 12.1768C7.76074 12.3174 8.34668 12.5166 8.9209 12.7744L8.25293 14.4707C7.72559 14.2539 7.21289 14.0811 6.71484 13.9521C6.22266 13.8232 5.71875 13.7588 5.20312 13.7588C4.75781 13.7588 4.37988 13.8262 4.06934 13.9609C3.75879 14.0957 3.52148 14.2861 3.35742 14.5322C3.19922 14.7725 3.12012 15.0596 3.12012 15.3936C3.12012 15.7686 3.21094 16.085 3.39258 16.3428C3.58008 16.5947 3.86719 16.8262 4.25391 17.0371C4.64648 17.248 5.15039 17.4824 5.76562 17.7402C6.47461 18.0332 7.0752 18.3408 7.56738 18.6631C8.06543 18.9854 8.44629 19.3721 8.70996 19.8232C8.97363 20.2686 9.10547 20.8281 9.10547 21.502ZM18.9545 15.2705V25H17.3285L17.0473 23.6904H16.933C16.7279 24.0244 16.4672 24.3027 16.1508 24.5254C15.8344 24.7422 15.4828 24.9033 15.0961 25.0088C14.7094 25.1201 14.3021 25.1758 13.8744 25.1758C13.142 25.1758 12.515 25.0527 11.9936 24.8066C11.4779 24.5547 11.0824 24.168 10.807 23.6465C10.5316 23.125 10.3939 22.4512 10.3939 21.625V15.2705H12.4682V21.2383C12.4682 21.9941 12.6205 22.5596 12.9252 22.9346C13.2357 23.3096 13.7162 23.4971 14.3666 23.4971C14.9936 23.4971 15.4916 23.3682 15.8607 23.1104C16.2299 22.8525 16.4906 22.4717 16.643 21.9678C16.8012 21.4639 16.8803 20.8457 16.8803 20.1133V15.2705H18.9545ZM26.0086 15.0859C27.1629 15.0859 28.0887 15.5078 28.7859 16.3516C29.4891 17.1953 29.8406 18.4492 29.8406 20.1133C29.8406 21.2148 29.6766 22.1436 29.3484 22.8994C29.0262 23.6494 28.5721 24.2178 27.9861 24.6045C27.4061 24.9854 26.7293 25.1758 25.9559 25.1758C25.4637 25.1758 25.0359 25.1113 24.6727 24.9824C24.3094 24.8535 23.9988 24.6865 23.741 24.4814C23.4832 24.2705 23.2664 24.042 23.0906 23.7959H22.9676C22.9969 24.0303 23.0232 24.291 23.0467 24.5781C23.076 24.8594 23.0906 25.1172 23.0906 25.3516V29.3154H21.0164V15.2705H22.7039L22.9939 16.6152H23.0906C23.2723 16.3398 23.492 16.085 23.7498 15.8506C24.0135 15.6162 24.3299 15.4316 24.699 15.2969C25.074 15.1562 25.5105 15.0859 26.0086 15.0859ZM25.4549 16.7734C24.8865 16.7734 24.4295 16.8877 24.0838 17.1162C23.7439 17.3389 23.4949 17.6758 23.3367 18.127C23.1844 18.5781 23.1023 19.1436 23.0906 19.8232V20.1133C23.0906 20.834 23.1639 21.4463 23.3104 21.9502C23.4627 22.4482 23.7117 22.8291 24.0574 23.0928C24.409 23.3506 24.8836 23.4795 25.4813 23.4795C25.9852 23.4795 26.4012 23.3418 26.7293 23.0664C27.0633 22.791 27.3123 22.3984 27.4764 21.8887C27.6404 21.3789 27.7225 20.7783 27.7225 20.0869C27.7225 19.0381 27.535 18.2236 27.16 17.6436C26.7908 17.0635 26.2225 16.7734 25.4549 16.7734ZM36.3234 15.0859C37.4777 15.0859 38.4035 15.5078 39.1008 16.3516C39.8039 17.1953 40.1555 18.4492 40.1555 20.1133C40.1555 21.2148 39.9914 22.1436 39.6633 22.8994C39.341 23.6494 38.8869 24.2178 38.301 24.6045C37.7209 24.9854 37.0441 25.1758 36.2707 25.1758C35.7785 25.1758 35.3508 25.1113 34.9875 24.9824C34.6242 24.8535 34.3137 24.6865 34.0559 24.4814C33.798 24.2705 33.5812 24.042 33.4055 23.7959H33.2824C33.3117 24.0303 33.3381 24.291 33.3615 24.5781C33.3908 24.8594 33.4055 25.1172 33.4055 25.3516V29.3154H31.3312V15.2705H33.0187L33.3088 16.6152H33.4055C33.5871 16.3398 33.8068 16.085 34.0646 15.8506C34.3283 15.6162 34.6447 15.4316 35.0139 15.2969C35.3889 15.1562 35.8254 15.0859 36.3234 15.0859ZM35.7697 16.7734C35.2014 16.7734 34.7443 16.8877 34.3986 17.1162C34.0588 17.3389 33.8098 17.6758 33.6516 18.127C33.4992 18.5781 33.4172 19.1436 33.4055 19.8232V20.1133C33.4055 20.834 33.4787 21.4463 33.6252 21.9502C33.7775 22.4482 34.0266 22.8291 34.3723 23.0928C34.7238 23.3506 35.1984 23.4795 35.7961 23.4795C36.3 23.4795 36.716 23.3418 37.0441 23.0664C37.3781 22.791 37.6271 22.3984 37.7912 21.8887C37.9553 21.3789 38.0373 20.7783 38.0373 20.0869C38.0373 19.0381 37.8498 18.2236 37.4748 17.6436C37.1057 17.0635 36.5373 16.7734 35.7697 16.7734ZM43.7203 25H41.6461V11.3242H43.7203V25ZM47.8389 15.2705V25H45.7734V15.2705H47.8389ZM46.8193 11.5439C47.1357 11.5439 47.4082 11.6289 47.6367 11.7988C47.8711 11.9688 47.9883 12.2617 47.9883 12.6777C47.9883 13.0879 47.8711 13.3809 47.6367 13.5566C47.4082 13.7266 47.1357 13.8115 46.8193 13.8115C46.4912 13.8115 46.2129 13.7266 45.9844 13.5566C45.7617 13.3809 45.6504 13.0879 45.6504 12.6777C45.6504 12.2617 45.7617 11.9688 45.9844 11.7988C46.2129 11.6289 46.4912 11.5439 46.8193 11.5439ZM53.7768 15.0859C54.6439 15.0859 55.3881 15.2646 56.0092 15.6221C56.6303 15.9795 57.1078 16.4863 57.4418 17.1426C57.7758 17.7988 57.9428 18.584 57.9428 19.498V20.6055H51.4477C51.4711 21.5488 51.723 22.2754 52.2035 22.7852C52.6898 23.2949 53.3695 23.5498 54.2426 23.5498C54.8637 23.5498 55.4203 23.4912 55.9125 23.374C56.4105 23.251 56.9232 23.0723 57.4506 22.8379V24.5166C56.9643 24.7451 56.4691 24.9121 55.9652 25.0176C55.4613 25.123 54.8578 25.1758 54.1547 25.1758C53.1996 25.1758 52.3588 24.9912 51.6322 24.6221C50.9115 24.2471 50.3461 23.6904 49.9359 22.9521C49.5316 22.2139 49.3295 21.2969 49.3295 20.2012C49.3295 19.1113 49.5141 18.1855 49.8832 17.4238C50.2523 16.6621 50.7709 16.082 51.4389 15.6836C52.1068 15.2852 52.8861 15.0859 53.7768 15.0859ZM53.7768 16.6416C53.1264 16.6416 52.599 16.8525 52.1947 17.2744C51.7963 17.6963 51.5619 18.3145 51.4916 19.1289H55.9213C55.9154 18.6426 55.8334 18.2119 55.6752 17.8369C55.5229 17.4619 55.2885 17.1689 54.9721 16.958C54.6615 16.7471 54.2631 16.6416 53.7768 16.6416ZM64.3025 15.0859C64.4666 15.0859 64.6453 15.0947 64.8387 15.1123C65.032 15.1299 65.199 15.1533 65.3396 15.1826L65.1463 17.1162C65.0232 17.0811 64.8709 17.0547 64.6893 17.0371C64.5135 17.0195 64.3553 17.0107 64.2146 17.0107C63.8455 17.0107 63.4939 17.0723 63.16 17.1953C62.826 17.3125 62.5301 17.4941 62.2723 17.7402C62.0145 17.9805 61.8123 18.2822 61.6658 18.6455C61.5193 19.0088 61.4461 19.4307 61.4461 19.9111V25H59.3719V15.2705H60.9891L61.2703 16.9844H61.367C61.5604 16.6387 61.8006 16.3223 62.0877 16.0352C62.3748 15.748 62.7029 15.5195 63.0721 15.3496C63.4471 15.1738 63.8572 15.0859 64.3025 15.0859ZM75.9357 25H73.5363L70.302 19.7354L67.05 25H64.7912L69.0627 18.3379L65.0813 12.1504H67.4104L70.3986 17.0195L73.3693 12.1504H75.6281L71.6291 18.3994L75.9357 25ZM80.4762 25.1758C79.5563 25.1758 78.7594 24.9971 78.0855 24.6396C77.4117 24.2822 76.8932 23.7344 76.5299 22.9961C76.1666 22.2578 75.985 21.3203 75.985 20.1836C75.985 19 76.1842 18.0332 76.5826 17.2832C76.9811 16.5332 77.5318 15.9795 78.235 15.6221C78.9439 15.2646 79.7555 15.0859 80.6695 15.0859C81.2496 15.0859 81.774 15.1445 82.2428 15.2617C82.7174 15.373 83.1188 15.5107 83.4469 15.6748L82.8316 17.3271C82.4742 17.1807 82.108 17.0576 81.733 16.958C81.358 16.8584 80.9977 16.8086 80.652 16.8086C80.0836 16.8086 79.609 16.9346 79.2281 17.1865C78.8531 17.4385 78.5719 17.8135 78.3844 18.3115C78.2027 18.8096 78.1119 19.4277 78.1119 20.166C78.1119 20.8809 78.2057 21.4844 78.3932 21.9766C78.5807 22.4629 78.859 22.832 79.2281 23.084C79.5973 23.3301 80.0514 23.4531 80.5904 23.4531C81.1236 23.4531 81.6012 23.3887 82.023 23.2598C82.4449 23.1309 82.8434 22.9639 83.2184 22.7588V24.5518C82.8492 24.7627 82.4537 24.918 82.0318 25.0176C81.61 25.123 81.0914 25.1758 80.4762 25.1758ZM86.6689 11.3242V14.7607C86.6689 15.1182 86.6572 15.4668 86.6338 15.8066C86.6162 16.1465 86.5957 16.4102 86.5723 16.5977H86.6865C86.8916 16.2578 87.1436 15.9795 87.4424 15.7627C87.7412 15.54 88.0752 15.373 88.4443 15.2617C88.8193 15.1504 89.2178 15.0947 89.6396 15.0947C90.3838 15.0947 91.0166 15.2207 91.5381 15.4727C92.0596 15.7188 92.458 16.1025 92.7334 16.624C93.0146 17.1455 93.1553 17.8223 93.1553 18.6543V25H91.0898V19.041C91.0898 18.2852 90.9346 17.7197 90.624 17.3447C90.3135 16.9639 89.833 16.7734 89.1826 16.7734C88.5557 16.7734 88.0576 16.9053 87.6885 17.1689C87.3252 17.4268 87.0645 17.8105 86.9062 18.3203C86.748 18.8242 86.6689 19.4395 86.6689 20.166V25H84.6035V11.3242H86.6689ZM98.9613 15.0859C100.192 15.0859 101.121 15.3584 101.747 15.9033C102.38 16.4482 102.697 17.2979 102.697 18.4521V25H101.229L100.833 23.6201H100.763C100.488 23.9717 100.204 24.2617 99.9105 24.4902C99.6176 24.7188 99.2777 24.8887 98.891 25C98.5102 25.1172 98.0443 25.1758 97.4936 25.1758C96.9135 25.1758 96.3949 25.0703 95.9379 24.8594C95.4809 24.6426 95.1205 24.3145 94.8568 23.875C94.5932 23.4355 94.4613 22.8789 94.4613 22.2051C94.4613 21.2031 94.8334 20.4502 95.5775 19.9463C96.3275 19.4424 97.4584 19.1641 98.9701 19.1113L100.658 19.0498V18.54C100.658 17.8662 100.499 17.3857 100.183 17.0986C99.8725 16.8115 99.433 16.668 98.8646 16.668C98.3783 16.668 97.9066 16.7383 97.4496 16.8789C96.9926 17.0195 96.5473 17.1924 96.1137 17.3975L95.4457 15.9385C95.9203 15.6865 96.4594 15.4814 97.0629 15.3232C97.6723 15.165 98.3051 15.0859 98.9613 15.0859ZM100.649 20.3506L99.392 20.3945C98.3607 20.4297 97.6371 20.6055 97.2211 20.9219C96.8051 21.2383 96.5971 21.6719 96.5971 22.2227C96.5971 22.7031 96.7406 23.0547 97.0277 23.2773C97.3148 23.4941 97.6928 23.6025 98.1615 23.6025C98.8764 23.6025 99.4682 23.4004 99.9369 22.9961C100.412 22.5859 100.649 21.9854 100.649 21.1943V20.3506ZM109.76 15.0859C110.855 15.0859 111.708 15.3701 112.317 15.9385C112.932 16.501 113.24 17.4062 113.24 18.6543V25H111.175V19.041C111.175 18.2852 111.019 17.7197 110.709 17.3447C110.398 16.9639 109.918 16.7734 109.267 16.7734C108.324 16.7734 107.668 17.0635 107.299 17.6436C106.935 18.2236 106.754 19.0645 106.754 20.166V25H104.688V15.2705H106.297L106.587 16.5889H106.701C106.912 16.249 107.173 15.9707 107.483 15.7539C107.8 15.5312 108.151 15.3643 108.538 15.2529C108.93 15.1416 109.338 15.0859 109.76 15.0859ZM118.009 29.3242C116.691 29.3242 115.68 29.0869 114.977 28.6123C114.274 28.1377 113.922 27.4727 113.922 26.6172C113.922 26.0195 114.11 25.5127 114.485 25.0967C114.86 24.6865 115.396 24.4023 116.093 24.2441C115.829 24.127 115.601 23.9453 115.407 23.6992C115.22 23.4473 115.126 23.1689 115.126 22.8643C115.126 22.501 115.229 22.1904 115.434 21.9326C115.639 21.6748 115.946 21.4258 116.357 21.1855C115.847 20.9688 115.437 20.6172 115.126 20.1309C114.821 19.6387 114.669 19.0615 114.669 18.3994C114.669 17.6963 114.819 17.0986 115.117 16.6064C115.416 16.1084 115.853 15.7305 116.427 15.4727C117.001 15.209 117.696 15.0771 118.51 15.0771C118.686 15.0771 118.876 15.0889 119.081 15.1123C119.292 15.1299 119.486 15.1533 119.661 15.1826C119.843 15.2061 119.981 15.2324 120.074 15.2617H123.441V16.4131L121.788 16.7207C121.946 16.9434 122.072 17.1982 122.166 17.4854C122.26 17.7666 122.307 18.0742 122.307 18.4082C122.307 19.416 121.958 20.21 121.261 20.79C120.57 21.3643 119.614 21.6514 118.396 21.6514C118.103 21.6396 117.819 21.6162 117.543 21.5811C117.332 21.71 117.171 21.8535 117.06 22.0117C116.948 22.1641 116.893 22.3369 116.893 22.5303C116.893 22.6885 116.948 22.8174 117.06 22.917C117.171 23.0107 117.335 23.0811 117.552 23.1279C117.775 23.1748 118.044 23.1982 118.361 23.1982H120.039C121.106 23.1982 121.92 23.4238 122.483 23.875C123.045 24.3262 123.326 24.9883 123.326 25.8613C123.326 26.9688 122.869 27.8213 121.955 28.4189C121.041 29.0225 119.726 29.3242 118.009 29.3242ZM118.088 27.874C118.809 27.874 119.415 27.8037 119.907 27.6631C120.4 27.5225 120.772 27.3203 121.024 27.0566C121.276 26.7988 121.402 26.4912 121.402 26.1338C121.402 25.8174 121.322 25.5742 121.164 25.4043C121.006 25.2344 120.769 25.1172 120.452 25.0527C120.136 24.9883 119.743 24.9561 119.275 24.9561H117.745C117.364 24.9561 117.028 25.0146 116.735 25.1318C116.442 25.2549 116.213 25.4307 116.049 25.6592C115.891 25.8877 115.812 26.1631 115.812 26.4854C115.812 26.9307 116.008 27.2734 116.401 27.5137C116.799 27.7539 117.362 27.874 118.088 27.874ZM118.492 20.2979C119.096 20.2979 119.544 20.1338 119.837 19.8057C120.13 19.4717 120.277 19.0029 120.277 18.3994C120.277 17.7432 120.124 17.251 119.82 16.9229C119.521 16.5947 119.075 16.4307 118.484 16.4307C117.904 16.4307 117.461 16.5977 117.156 16.9316C116.858 17.2656 116.708 17.7607 116.708 18.417C116.708 19.0088 116.858 19.4717 117.156 19.8057C117.461 20.1338 117.906 20.2979 118.492 20.2979ZM128.192 15.0859C129.059 15.0859 129.803 15.2646 130.424 15.6221C131.046 15.9795 131.523 16.4863 131.857 17.1426C132.191 17.7988 132.358 18.584 132.358 19.498V20.6055H125.863C125.886 21.5488 126.138 22.2754 126.619 22.7852C127.105 23.2949 127.785 23.5498 128.658 23.5498C129.279 23.5498 129.836 23.4912 130.328 23.374C130.826 23.251 131.338 23.0723 131.866 22.8379V24.5166C131.379 24.7451 130.884 24.9121 130.38 25.0176C129.877 25.123 129.273 25.1758 128.57 25.1758C127.615 25.1758 126.774 24.9912 126.047 24.6221C125.327 24.2471 124.761 23.6904 124.351 22.9521C123.947 22.2139 123.745 21.2969 123.745 20.2012C123.745 19.1113 123.929 18.1855 124.298 17.4238C124.668 16.6621 125.186 16.082 125.854 15.6836C126.522 15.2852 127.301 15.0859 128.192 15.0859ZM128.192 16.6416C127.542 16.6416 127.014 16.8525 126.61 17.2744C126.212 17.6963 125.977 18.3145 125.907 19.1289H130.337C130.331 18.6426 130.249 18.2119 130.09 17.8369C129.938 17.4619 129.704 17.1689 129.387 16.958C129.077 16.7471 128.678 16.6416 128.192 16.6416Z" class="logo-text"/>
</svg>
