<svg width="119" height="30" viewBox="0 0 119 30" fill="none" xmlns="http://www.w3.org/2000/svg">
<path d="M3.65277 7.8974H2.0514V1.78668H0V0.476562H5.70418V1.78595H3.65277V7.89666V7.8974Z" class="logo-accent"/>
<path d="M8.56749 2.11597C8.647 2.11597 8.7385 2.12039 8.84426 2.1285C8.94927 2.13734 9.03478 2.14766 9.10003 2.16166L8.98152 3.61325C8.92977 3.59631 8.85626 3.58378 8.76175 3.57494C8.66725 3.56683 8.58549 3.56241 8.51648 3.56241C8.31322 3.56241 8.11596 3.5882 7.92469 3.63831C7.73343 3.68915 7.56241 3.77094 7.4109 3.88442C7.25939 3.99789 7.13938 4.14673 7.05163 4.33095C6.96387 4.51516 6.91962 4.74137 6.91962 5.00885V7.89657H5.34375V2.22281H6.53709L6.76961 3.17704H6.84686C6.96087 2.98398 7.10263 2.80714 7.27289 2.6465C7.44316 2.48587 7.63817 2.35692 7.85644 2.26039C8.07545 2.16387 8.31172 2.11523 8.56674 2.11523L8.56749 2.11597Z" class="logo-accent"/>
<path d="M10.2284 0C10.4624 0 10.6642 0.0530533 10.833 0.159897C11.0017 0.26674 11.0865 0.464954 11.0865 0.75601C11.0865 1.04707 11.0017 1.24233 10.833 1.35212C10.6642 1.46191 10.4624 1.51718 10.2284 1.51718C9.99439 1.51718 9.78812 1.46191 9.62161 1.35212C9.45435 1.24233 9.37109 1.04338 9.37109 0.75601C9.37109 0.468638 9.45435 0.266004 9.62161 0.159897C9.78887 0.0530533 9.99139 0 10.2284 0ZM11.0137 2.22308V7.89758H9.43785V2.22308H11.0137Z" class="logo-accent"/>
<path d="M18.7239 2.11621C19.378 2.11621 19.8738 2.28127 20.209 2.61138C20.5451 2.94148 20.7131 3.46981 20.7131 4.19782V7.89755H19.132V4.58319C19.132 4.17719 19.0615 3.87066 18.9204 3.66434C18.7794 3.45802 18.5604 3.35486 18.2641 3.35486C17.8471 3.35486 17.5508 3.50149 17.3753 3.79402C17.1998 4.08655 17.1121 4.50508 17.1121 5.05035V7.89755H15.5362V4.58319C15.5362 4.31277 15.5054 4.08582 15.4432 3.90308C15.3809 3.72034 15.2864 3.58328 15.1589 3.49191C15.0314 3.40054 14.8679 3.35486 14.6684 3.35486C14.3759 3.35486 14.1456 3.42707 13.9783 3.57076C13.8111 3.71444 13.6926 3.92592 13.6221 4.20519C13.5515 4.48445 13.5163 4.82488 13.5163 5.22794V7.89755H11.9404V2.22305H13.1443L13.3558 2.94885H13.4435C13.5605 2.75285 13.7076 2.59369 13.8853 2.47211C14.0623 2.35053 14.2581 2.26063 14.4719 2.20316C14.6856 2.14569 14.9024 2.11695 15.1229 2.11695C15.5467 2.11695 15.906 2.18474 16.2 2.32032C16.4948 2.4559 16.7213 2.66517 16.8795 2.94959H17.0191C17.1916 2.65853 17.4346 2.44706 17.7504 2.31516C18.0654 2.18326 18.3902 2.11695 18.7239 2.11695V2.11621Z" class="logo-accent"/>
<path d="M23.1845 0V1.83771C23.1845 2.05066 23.1785 2.26213 23.1665 2.47214C23.1545 2.68214 23.1395 2.84425 23.1222 2.9592H23.1845C23.336 2.72561 23.543 2.52666 23.8048 2.36308C24.0666 2.19877 24.4056 2.11698 24.8226 2.11698C25.4699 2.11698 25.9957 2.36603 26.3985 2.86341C26.8013 3.36078 27.003 4.09026 27.003 5.05112C27.003 5.69734 26.91 6.23966 26.724 6.67809C26.538 7.11651 26.2777 7.44662 25.9439 7.66768C25.6102 7.88947 25.2224 8 24.7814 8C24.3403 8 24.0238 7.92558 23.7793 7.77673C23.5348 7.62789 23.3368 7.46062 23.1852 7.2742H23.0765L22.8132 7.89831H21.6094V0H23.1852H23.1845ZM24.3156 3.35489C24.0403 3.35489 23.8213 3.41089 23.6593 3.52215C23.4973 3.63415 23.3795 3.80142 23.3053 4.02468C23.231 4.24795 23.1905 4.5309 23.1837 4.87206V5.03933C23.1837 5.59123 23.2662 6.01345 23.432 6.30598C23.597 6.59851 23.8985 6.74514 24.3358 6.74514C24.6599 6.74514 24.9171 6.59777 25.1084 6.30377C25.2997 6.00903 25.3949 5.5846 25.3949 5.02975C25.3949 4.4749 25.2981 4.05711 25.1054 3.77563C24.9126 3.49489 24.6486 3.35415 24.3148 3.35415L24.3156 3.35489Z" class="logo-accent"/>
<path d="M29.2272 7.89758H27.6514V0H29.2272V7.89758Z" class="logo-accent"/>
<path d="M32.5881 2.11621C33.1222 2.11621 33.582 2.21716 33.9675 2.41832C34.353 2.61948 34.6508 2.91127 34.8616 3.2937C35.0716 3.67613 35.1766 4.14329 35.1766 4.69446V5.44531H31.4518C31.4691 5.88226 31.6026 6.22416 31.8523 6.47322C32.1021 6.72153 32.4494 6.84606 32.8934 6.84606C33.2617 6.84606 33.5992 6.80922 33.906 6.7348C34.2128 6.66038 34.5278 6.54837 34.8518 6.39953V7.59765C34.566 7.73618 34.2668 7.83786 33.9555 7.90197C33.6435 7.96608 33.2654 7.9985 32.8214 7.9985C32.2431 7.9985 31.7301 7.89387 31.2845 7.68386C30.8383 7.47386 30.4887 7.15407 30.236 6.72448C29.9825 6.2949 29.8564 5.75331 29.8564 5.10046C29.8564 4.44761 29.9712 3.88466 30.2 3.44328C30.4287 3.00191 30.7483 2.67032 31.1585 2.44853C31.5681 2.22674 32.0451 2.11621 32.5896 2.11621H32.5881ZM32.5986 3.2178C32.2919 3.2178 32.0384 3.31433 31.8366 3.50739C31.6348 3.69971 31.5186 4.00329 31.4878 4.41593H33.699C33.6952 4.18603 33.6532 3.98118 33.5722 3.80139C33.4912 3.62234 33.3705 3.48012 33.2107 3.37475C33.0502 3.27012 32.8462 3.2178 32.5986 3.2178Z" class="logo-accent"/>
<path d="M35.5782 7.23467C35.5737 6.85298 35.8849 6.53982 36.2735 6.53613C36.2787 6.53613 36.284 6.53613 36.2892 6.53613C36.6823 6.53613 37.0003 6.8493 37.0003 7.23467C37.0003 7.62078 36.6815 7.9332 36.2892 7.9332C35.8962 7.9332 35.5782 7.62004 35.5782 7.23467ZM36.8713 7.23467C36.8653 6.91782 36.5997 6.66508 36.2772 6.67098C35.9547 6.67687 35.6974 6.93772 35.7034 7.25456C35.7087 7.56846 35.9705 7.81973 36.29 7.81825C36.611 7.81825 36.872 7.56257 36.872 7.24646C36.872 7.24204 36.872 7.23835 36.872 7.23393L36.8713 7.23467ZM36.0132 6.83677H36.3042C36.488 6.83677 36.5952 6.91487 36.5952 7.07109C36.6042 7.16983 36.5405 7.2612 36.443 7.28772L36.611 7.60162H36.4482L36.2915 7.30909H36.1685V7.60162H36.0125V6.83677H36.0132ZM36.2952 7.19193C36.3905 7.19193 36.443 7.16172 36.443 7.07993C36.443 6.99814 36.3905 6.96793 36.2915 6.96793H36.1685V7.19119H36.2945L36.2952 7.19193Z" class="logo-accent"/>
<path d="M11.7773 12.1504V20.4648C11.7773 21.3613 11.5869 22.1641 11.2061 22.873C10.8311 23.582 10.2627 24.1445 9.50098 24.5605C8.73926 24.9707 7.78125 25.1758 6.62695 25.1758C4.98047 25.1758 3.72656 24.7451 2.86523 23.8838C2.00977 23.0166 1.58203 21.8652 1.58203 20.4297V12.1504H3.69141V20.2451C3.69141 21.3174 3.94336 22.1084 4.44727 22.6182C4.95117 23.1279 5.7041 23.3828 6.70605 23.3828C7.39746 23.3828 7.95996 23.2627 8.39355 23.0225C8.83301 22.7764 9.15527 22.4189 9.36035 21.9502C9.57129 21.4756 9.67676 20.9043 9.67676 20.2363V12.1504H11.7773ZM19.0248 15.0859C20.1205 15.0859 20.973 15.3701 21.5824 15.9385C22.1977 16.501 22.5053 17.4062 22.5053 18.6543V25H20.4398V19.041C20.4398 18.2852 20.2846 17.7197 19.974 17.3447C19.6635 16.9639 19.183 16.7734 18.5326 16.7734C17.5893 16.7734 16.933 17.0635 16.5639 17.6436C16.2006 18.2236 16.0189 19.0645 16.0189 20.166V25H13.9535V15.2705H15.5619L15.852 16.5889H15.9662C16.1771 16.249 16.4379 15.9707 16.7484 15.7539C17.0648 15.5312 17.4164 15.3643 17.8031 15.2529C18.1957 15.1416 18.6029 15.0859 19.0248 15.0859ZM26.5623 15.2705V25H24.4969V15.2705H26.5623ZM25.5428 11.5439C25.8592 11.5439 26.1316 11.6289 26.3602 11.7988C26.5945 11.9688 26.7117 12.2617 26.7117 12.6777C26.7117 13.0879 26.5945 13.3809 26.3602 13.5566C26.1316 13.7266 25.8592 13.8115 25.5428 13.8115C25.2146 13.8115 24.9363 13.7266 24.7078 13.5566C24.4852 13.3809 24.3738 13.0879 24.3738 12.6777C24.3738 12.2617 24.4852 11.9688 24.7078 11.7988C24.9363 11.6289 25.2146 11.5439 25.5428 11.5439ZM32.2453 23.5059C32.5148 23.5059 32.7814 23.4824 33.0451 23.4355C33.3088 23.3828 33.549 23.3213 33.7658 23.251V24.8154C33.5373 24.915 33.2414 25 32.8781 25.0703C32.5148 25.1406 32.1369 25.1758 31.7443 25.1758C31.1936 25.1758 30.6984 25.085 30.259 24.9033C29.8195 24.7158 29.4709 24.3965 29.2131 23.9453C28.9553 23.4941 28.8264 22.8701 28.8264 22.0732V16.8438H27.4992V15.9209L28.923 15.1914L29.5998 13.1084H30.9006V15.2705H33.6867V16.8438H30.9006V22.0469C30.9006 22.5391 31.0236 22.9053 31.2697 23.1455C31.5158 23.3857 31.841 23.5059 32.2453 23.5059ZM33.3756 15.2705H35.6256L37.6207 20.8252C37.7086 21.0771 37.7877 21.3262 37.858 21.5723C37.9342 21.8125 37.9986 22.0498 38.0514 22.2842C38.11 22.5186 38.1568 22.7529 38.192 22.9873H38.2447C38.3033 22.6826 38.3854 22.3428 38.4908 21.9678C38.6021 21.5869 38.7252 21.2061 38.86 20.8252L40.776 15.2705H42.9996L38.8248 26.3359C38.5846 26.9688 38.2887 27.5078 37.9371 27.9531C37.5914 28.4043 37.1813 28.7441 36.7066 28.9727C36.232 29.207 35.69 29.3242 35.0807 29.3242C34.7877 29.3242 34.5328 29.3066 34.316 29.2715C34.0992 29.2422 33.9146 29.21 33.7623 29.1748V27.5225C33.8854 27.5518 34.0406 27.5781 34.2281 27.6016C34.4156 27.625 34.609 27.6367 34.8082 27.6367C35.1773 27.6367 35.4967 27.5635 35.7662 27.417C36.0357 27.2705 36.2643 27.0625 36.4518 26.793C36.6393 26.5293 36.7945 26.2275 36.9176 25.8877L37.2604 24.9736L33.3756 15.2705Z" class="logo-text"/>
<path d="M54.2686 12.7832C53.4482 12.7832 52.7158 12.9238 52.0713 13.2051C51.4268 13.4805 50.8818 13.873 50.4365 14.3828C49.9912 14.8926 49.6514 15.502 49.417 16.2109C49.1826 16.9141 49.0654 17.6904 49.0654 18.54C49.0654 19.7119 49.25 20.7373 49.6191 21.6162C49.9883 22.4893 50.542 23.166 51.2803 23.6465C52.0244 24.127 52.9502 24.3672 54.0576 24.3672C54.7021 24.3672 55.2881 24.3203 55.8154 24.2266C56.3428 24.127 56.832 24.001 57.2832 23.8486V24.6396C56.8555 24.7979 56.3721 24.9268 55.833 25.0264C55.2998 25.126 54.6787 25.1758 53.9697 25.1758C52.6865 25.1758 51.6084 24.9004 50.7354 24.3496C49.8682 23.7988 49.2148 23.0254 48.7754 22.0293C48.3359 21.0332 48.1162 19.8701 48.1162 18.54C48.1162 17.585 48.2539 16.709 48.5293 15.9121C48.8047 15.1094 49.2061 14.415 49.7334 13.8291C50.2666 13.2373 50.9141 12.7803 51.6758 12.458C52.4375 12.1299 53.3047 11.9658 54.2773 11.9658C54.8926 11.9658 55.4785 12.0273 56.0352 12.1504C56.5977 12.2676 57.125 12.4404 57.6172 12.6689L57.2656 13.46C56.791 13.2256 56.3047 13.0557 55.8066 12.9502C55.3086 12.8389 54.7959 12.7832 54.2686 12.7832ZM66.7895 20.21C66.7895 20.9482 66.6986 21.6221 66.517 22.2314C66.3354 22.835 66.0658 23.3564 65.7084 23.7959C65.351 24.2354 64.9057 24.5752 64.3725 24.8154C63.8451 25.0557 63.2299 25.1758 62.5268 25.1758C61.8588 25.1758 61.2641 25.0586 60.7426 24.8242C60.2211 24.584 59.7787 24.2441 59.4154 23.8047C59.058 23.3652 58.7855 22.8438 58.598 22.2402C58.4105 21.6309 58.3168 20.9541 58.3168 20.21C58.3168 19.1846 58.4867 18.3027 58.8266 17.5645C59.1723 16.8203 59.6645 16.252 60.3031 15.8594C60.9477 15.4609 61.7182 15.2617 62.6146 15.2617C63.5404 15.2617 64.3109 15.4727 64.9262 15.8945C65.5473 16.3105 66.0131 16.8906 66.3236 17.6348C66.6342 18.3789 66.7895 19.2373 66.7895 20.21ZM59.2309 20.21C59.2309 21.0479 59.351 21.7803 59.5912 22.4072C59.8314 23.0342 60.1947 23.5234 60.6811 23.875C61.1732 24.2266 61.7943 24.4023 62.5443 24.4023C63.3119 24.4023 63.9418 24.2266 64.434 23.875C64.9262 23.5234 65.2895 23.0312 65.5238 22.3984C65.7582 21.7656 65.8754 21.0361 65.8754 20.21C65.8754 19.4072 65.7641 18.6924 65.5414 18.0654C65.3188 17.4385 64.9672 16.9463 64.4867 16.5889C64.0063 16.2256 63.3793 16.0439 62.6059 16.0439C61.4984 16.0439 60.6576 16.4131 60.0834 17.1514C59.515 17.8896 59.2309 18.9092 59.2309 20.21ZM72.7361 15.2617C73.8084 15.2617 74.6316 15.543 75.2059 16.1055C75.7801 16.668 76.0672 17.5498 76.0672 18.751V25H75.1883V18.8037C75.1883 17.8545 74.9715 17.1572 74.5379 16.7119C74.1043 16.2666 73.4744 16.0439 72.6482 16.0439C71.5994 16.0439 70.7967 16.3516 70.24 16.9668C69.6893 17.5762 69.4139 18.499 69.4139 19.7354V25H68.5262V15.4463H69.2469L69.3787 17.1865H69.4314C69.6014 16.8291 69.8328 16.5068 70.1258 16.2197C70.4246 15.9268 70.7908 15.6953 71.2244 15.5254C71.658 15.3496 72.1619 15.2617 72.7361 15.2617ZM84.2375 22.4951C84.2375 23.0635 84.0939 23.5498 83.8068 23.9541C83.5256 24.3525 83.1125 24.6572 82.5676 24.8682C82.0227 25.0732 81.3518 25.1758 80.5549 25.1758C79.8928 25.1758 79.301 25.1172 78.7795 25C78.258 24.8828 77.8215 24.7393 77.4699 24.5693V23.6904C77.9094 23.9072 78.3957 24.083 78.9289 24.2178C79.4621 24.3525 80.01 24.4199 80.5725 24.4199C81.5568 24.4199 82.2658 24.2529 82.6994 23.9189C83.133 23.585 83.3498 23.1279 83.3498 22.5479C83.3498 22.167 83.2414 21.8535 83.0246 21.6074C82.8137 21.3555 82.509 21.1387 82.1105 20.957C81.7121 20.7754 81.2316 20.5908 80.6691 20.4033C80.0832 20.2041 79.5617 20.0078 79.1047 19.8145C78.6535 19.6152 78.299 19.3545 78.0412 19.0322C77.7834 18.7041 77.6545 18.2588 77.6545 17.6963C77.6545 16.9287 77.9621 16.3311 78.5773 15.9033C79.1926 15.4756 80.0187 15.2617 81.0559 15.2617C81.6301 15.2617 82.1633 15.3174 82.6555 15.4287C83.1535 15.5342 83.6047 15.6719 84.009 15.8418L83.6926 16.5977C83.3293 16.4277 82.9104 16.29 82.4357 16.1846C81.9611 16.0791 81.4865 16.0264 81.0119 16.0264C80.2326 16.0264 79.6232 16.1641 79.1838 16.4395C78.7443 16.7148 78.5246 17.1191 78.5246 17.6523C78.5246 18.0625 78.6301 18.3848 78.841 18.6191C79.052 18.8477 79.3537 19.041 79.7463 19.1992C80.1389 19.3516 80.6047 19.5215 81.1437 19.709C81.7004 19.9023 82.2131 20.1045 82.6818 20.3154C83.1564 20.5264 83.5344 20.7988 83.8156 21.1328C84.0969 21.4668 84.2375 21.9209 84.2375 22.4951ZM88.3297 24.4111C88.6051 24.4111 88.86 24.3906 89.0943 24.3496C89.3346 24.3086 89.5455 24.2559 89.7271 24.1914V24.9297C89.5396 24.9941 89.3199 25.0498 89.068 25.0967C88.816 25.1494 88.5377 25.1758 88.233 25.1758C87.6939 25.1758 87.2457 25.0762 86.8883 24.877C86.5309 24.6719 86.2613 24.3643 86.0797 23.9541C85.898 23.5381 85.8072 23.0107 85.8072 22.3721V16.1846H84.3834V15.6572L85.7984 15.3848L86.1061 13.1348H86.6949V15.4463H89.6744V16.1846H86.6949V22.3193C86.6949 23.0049 86.8209 23.5264 87.0729 23.8838C87.3307 24.2354 87.7496 24.4111 88.3297 24.4111ZM94.6807 15.2793C94.9326 15.2793 95.1699 15.2939 95.3926 15.3232C95.6152 15.3525 95.8232 15.3936 96.0166 15.4463L95.876 16.2637C95.6826 16.2109 95.4863 16.1729 95.2871 16.1494C95.0879 16.1201 94.874 16.1055 94.6455 16.1055C94.1943 16.1055 93.79 16.1904 93.4326 16.3604C93.0811 16.5303 92.7822 16.7734 92.5361 17.0898C92.29 17.4062 92.1025 17.7871 91.9736 18.2324C91.8447 18.6777 91.7803 19.1758 91.7803 19.7266V25H90.8838V15.4463H91.6484L91.7363 17.248H91.7891C91.9355 16.8789 92.1406 16.5479 92.4043 16.2549C92.6738 15.9561 92.999 15.7188 93.3799 15.543C93.7607 15.3672 94.1943 15.2793 94.6807 15.2793ZM104.415 15.4463V25H103.695L103.563 23.2773H103.51C103.346 23.6289 103.115 23.9482 102.816 24.2354C102.517 24.5225 102.151 24.751 101.717 24.9209C101.284 25.0908 100.78 25.1758 100.205 25.1758C99.473 25.1758 98.8578 25.0498 98.3598 24.7979C97.8676 24.54 97.4955 24.1533 97.2436 23.6377C96.9916 23.1221 96.8656 22.4775 96.8656 21.7041V15.4463H97.7533V21.6162C97.7533 22.5713 97.9672 23.2744 98.3949 23.7256C98.8285 24.1768 99.4613 24.4023 100.293 24.4023C100.996 24.4023 101.585 24.2676 102.06 23.998C102.54 23.7285 102.904 23.3213 103.15 22.7764C103.402 22.2256 103.528 21.54 103.528 20.7197V15.4463H104.415ZM110.555 25.1758C109.606 25.1758 108.804 24.9795 108.147 24.5869C107.497 24.1885 107.005 23.623 106.671 22.8906C106.343 22.1523 106.179 21.2793 106.179 20.2715C106.179 19.2227 106.369 18.3262 106.75 17.582C107.131 16.832 107.667 16.2578 108.358 15.8594C109.05 15.4609 109.861 15.2617 110.793 15.2617C111.25 15.2617 111.675 15.3027 112.067 15.3848C112.46 15.4668 112.814 15.5811 113.131 15.7275L112.893 16.5098C112.565 16.3633 112.217 16.252 111.847 16.1758C111.478 16.0996 111.124 16.0615 110.784 16.0615C109.999 16.0615 109.331 16.2344 108.78 16.5801C108.235 16.9199 107.816 17.4062 107.523 18.0391C107.236 18.666 107.093 19.4072 107.093 20.2627C107.093 21.0654 107.216 21.7773 107.462 22.3984C107.708 23.0137 108.086 23.5 108.596 23.8574C109.105 24.209 109.759 24.3848 110.555 24.3848C111.018 24.3848 111.458 24.3379 111.874 24.2441C112.296 24.1504 112.679 24.0303 113.025 23.8838V24.6924C112.715 24.833 112.354 24.9473 111.944 25.0352C111.54 25.1289 111.077 25.1758 110.555 25.1758ZM116.968 24.4111C117.243 24.4111 117.498 24.3906 117.733 24.3496C117.973 24.3086 118.184 24.2559 118.365 24.1914V24.9297C118.178 24.9941 117.958 25.0498 117.706 25.0967C117.454 25.1494 117.176 25.1758 116.871 25.1758C116.332 25.1758 115.884 25.0762 115.527 24.877C115.169 24.6719 114.9 24.3643 114.718 23.9541C114.536 23.5381 114.446 23.0107 114.446 22.3721V16.1846H113.022V15.6572L114.437 15.3848L114.744 13.1348H115.333V15.4463H118.313V16.1846H115.333V22.3193C115.333 23.0049 115.459 23.5264 115.711 23.8838C115.969 24.2354 116.388 24.4111 116.968 24.4111Z" class="logo-text"/>
</svg>
