<svg width="410" height="48" viewBox="0 0 410 48" fill="none" xmlns="http://www.w3.org/2000/svg">
<path d="M22.8188 33.1485L25.3228 23.986L21.1766 8.55499H12L20.1941 39.445H29.4353L27.7706 33.2187L22.8188 33.1485Z" fill="#019AEB"/>
<path d="M30.968 8.55499L26.8442 23.986L28.9356 31.5709H34.0025L40.2288 8.55499H30.968Z" fill="#019AEB"/>
<path d="M57.0167 31.2045L50.229 11.5993H53.5976L58.6252 26.8338H58.6786L63.796 11.6105H66.912L60.1299 31.2157L57.0167 31.2045Z" fill="#F1F1F6"/>
<path d="M68.8208 14.6844V11.8772H72.1473V14.6844H68.8208ZM68.8489 31.1231V17.1126H72.1248V31.1231H68.8489Z" fill="#F1F1F6"/>
<path d="M74.4434 24.1333C74.4434 18.7997 78.2162 16.8488 81.1188 16.8488C84.2572 16.8488 87.2665 18.7239 87.2665 24.4281V25.1916H77.6884C77.8204 27.7181 79.3727 28.8409 81.4332 28.8409C83.255 28.8409 84.3105 28.2318 85.3632 27.2044L87.0784 28.8887C85.6271 30.5 83.7098 31.4151 81.1833 31.4151C77.6884 31.4151 74.4434 29.2761 74.4434 24.1333ZM84.2853 22.7606C84.1 20.6216 83.0445 19.4875 81.0907 19.4875C79.5075 19.4875 78.0562 20.3858 77.739 22.7606H84.2853Z" fill="#F1F1F6"/>
<path d="M91.9211 31.1231L87.7524 17.1126H91.0509L92.5808 22.9178C93.0018 24.5011 93.2657 25.5818 93.6362 27.3784H93.6896C94.1107 25.4779 94.3493 24.4758 94.7984 22.8645L96.2666 17.1126H98.9053L100.477 22.9712C100.926 24.5263 101.165 25.5818 101.561 27.3784H101.6C102.021 25.5565 102.26 24.5544 102.706 23.0245L104.289 17.1126H107.245L103.077 31.1231H100.048L97.5214 21.3879H97.468L94.9416 31.1231H91.9211Z" fill="#F1F1F6"/>
<path d="M108.899 36.4007V17.1127H112.155V18.9738C112.691 18.3082 113.37 17.7725 114.142 17.4068C114.914 17.0412 115.759 16.8552 116.613 16.8628C119.808 16.8628 122.154 19.2658 122.154 24.1193C122.154 28.9729 119.754 31.3253 116.164 31.3253C115.409 31.3312 114.661 31.1766 113.97 30.8717C113.279 30.5668 112.66 30.1186 112.155 29.5568V36.3894L108.899 36.4007ZM118.898 24.1334C118.898 21.1774 117.632 19.6195 115.546 19.6195C114.202 19.6195 112.908 20.4616 112.144 21.388V27.0023C112.526 27.5229 113.022 27.9499 113.593 28.2514C114.165 28.5529 114.797 28.7209 115.442 28.7427C117.907 28.7484 118.909 27.2465 118.909 24.1334H118.898Z" fill="#F1F1F6"/>
<path d="M123.777 24.1333C123.777 18.9597 127.179 16.8488 130.609 16.8488C134.04 16.8488 137.442 18.9597 137.442 24.1333C137.442 29.2508 134.015 31.4151 130.609 31.4151C127.204 31.4151 123.777 29.2508 123.777 24.1333ZM134.163 24.1333C134.163 21.5199 133.055 19.6194 130.601 19.6194C128.251 19.6194 127.039 21.3037 127.039 24.1333C127.039 26.7973 128.122 28.6978 130.601 28.6978C132.956 28.6978 134.163 27.0079 134.163 24.1333Z" fill="#F1F1F6"/>
<path d="M139.777 14.6844V11.8772H143.09V14.6844H139.777ZM139.803 31.1231V17.1126H143.076V31.1231H139.803Z" fill="#F1F1F6"/>
<path d="M146.113 31.1231V17.1126H149.358V19.3583C150.414 18.1456 152.05 16.8515 154.372 16.8515C156.932 16.8515 158.515 18.1709 158.515 20.9415V31.1259H155.27V21.8623C155.27 20.3324 154.636 19.5408 153.159 19.5408C151.733 19.5408 150.546 20.2538 149.358 21.3598V31.1231H146.113Z" fill="#F1F1F6"/>
<path d="M162.555 27.457V19.698H160.126V17.1126H162.555V12.2366H165.8V17.1126H169.413V19.698H165.8V26.6373C165.8 28.1419 166.246 28.7483 167.857 28.7483C168.331 28.7497 168.803 28.6884 169.261 28.5658V31.1231C168.475 31.245 167.681 31.3069 166.886 31.3084C163.318 31.3084 162.555 29.9891 162.555 27.457Z" fill="#F1F1F6"/>
<path d="M179.412 11.5741H190.834V13.3145H181.29V20.0517H188.361V21.736H181.284V31.1007H179.412V11.5741Z" fill="#F1F1F6"/>
<path d="M193.302 12.0233H195.231V13.9883H193.302V12.0233ZM193.356 17.194H195.186V31.0979H193.364L193.356 17.194Z" fill="#F1F1F6"/>
<path d="M197.993 24.1334C197.993 19.1984 201.159 16.9302 204.087 16.9302C207.332 16.9302 209.76 19.409 209.76 24.1587V24.504H199.812C199.84 27.9315 201.777 29.86 204.194 29.86C206.277 29.86 207.464 28.9617 208.52 27.3336L209.642 28.2319C208.43 30.1969 206.715 31.3983 204.076 31.3983C200.842 31.3899 197.993 28.8831 197.993 24.1334ZM207.992 23.0527C207.807 20.4139 206.54 18.4601 204.062 18.4601C202.055 18.4601 200.182 19.9114 199.851 23.0527H207.992Z" fill="#F1F1F6"/>
<path d="M212.666 11.5741H214.488V31.0979H212.666V11.5741Z" fill="#F1F1F6"/>
<path d="M217.404 24.1586C217.404 19.305 219.964 16.9302 223.299 16.9302C225.093 16.9302 226.704 17.879 227.791 19.0945V11.5741H229.613V27.6675C229.613 29.3518 229.717 30.3877 230.034 31.0979H228.108C227.905 30.4401 227.798 29.7566 227.791 29.0683C226.668 30.281 225.231 31.3365 223.148 31.3365C219.939 31.3365 217.404 29.015 217.404 24.1586ZM227.774 27.5103V20.7563C226.401 19.2769 225.057 18.4601 223.448 18.4601C220.995 18.4601 219.237 20.2538 219.237 24.1867C219.237 28.0128 221.138 29.7785 223.448 29.7785C225.163 29.7785 226.455 28.9083 227.774 27.5103Z" fill="#F1F1F6"/>
<path d="M238.461 11.5741H240.889L247.433 28.6725H247.486L253.976 11.5741H256.458V31.0979H254.582V14.7378H254.532C254.265 15.608 253.791 16.8993 253.316 18.1681L248.241 31.0979H246.526L241.473 18.185C240.999 16.9161 240.681 16.0992 240.258 14.7013H240.207V31.1119H238.464L238.461 11.5741Z" fill="#F1F1F6"/>
<path d="M259.534 27.8528C259.534 25.1102 261.884 23.1031 268.955 22.0224V21.3093C268.955 19.3836 267.95 18.4601 266.131 18.4601C263.941 18.4601 262.383 19.3836 260.932 20.6497L259.955 19.5268C261.62 17.9969 263.546 16.9414 266.288 16.9414C269.401 16.9414 270.749 18.6032 270.749 21.3739V27.6788C270.749 29.3631 270.853 30.3989 271.145 31.1091H269.269C269.059 30.4705 268.953 29.8023 268.955 29.1301C267.344 30.5814 265.55 31.3478 263.467 31.3478C260.985 31.3365 259.534 30.0172 259.534 27.8528ZM268.955 27.6423V23.3137C262.99 24.3186 261.328 25.7952 261.328 27.617C261.328 29.0683 262.305 29.8319 263.854 29.8319C265.814 29.8319 267.529 29.015 268.955 27.6507V27.6423Z" fill="#F1F1F6"/>
<path d="M274.182 17.1941H276.001V19.3837C277.348 18.0643 279.117 16.9302 281.306 16.9302C284.049 16.9302 285.447 18.4601 285.447 21.0455V31.098H283.628V21.388C283.628 19.423 282.758 18.4854 280.857 18.4854C279.063 18.4854 277.559 19.409 276.001 20.9136V31.098H274.182V17.1941Z" fill="#F1F1F6"/>
<path d="M288.007 27.8528C288.007 25.1102 290.354 23.1031 297.425 22.0224V21.3093C297.425 19.3836 296.423 18.4601 294.601 18.4601C292.412 18.4601 290.857 19.3836 289.405 20.6497L288.428 19.5268C290.09 17.9969 292.016 16.9414 294.761 16.9414C297.875 16.9414 299.219 18.6032 299.219 21.3739V27.6788C299.219 29.3631 299.326 30.3989 299.615 31.1091H297.743C297.53 30.471 297.423 29.8026 297.425 29.1301C295.817 30.5814 294.023 31.3478 291.937 31.3478C289.459 31.3365 288.007 30.0172 288.007 27.8528ZM297.425 27.6423V23.3137C291.463 24.3186 289.801 25.7952 289.801 27.617C289.801 29.0683 290.775 29.8319 292.328 29.8319C294.279 29.8319 296.002 29.015 297.425 27.6507V27.6423Z" fill="#F1F1F6"/>
<path d="M301.263 32.9451C301.263 31.5218 302.212 30.4186 303.823 29.7786C302.981 29.4361 302.582 28.855 302.582 28.0129C302.582 27.1707 303.267 26.4549 304.266 25.9272C303.602 25.5003 303.059 24.9096 302.689 24.2119C302.319 23.5143 302.136 22.7331 302.155 21.9438C302.155 18.9879 304.502 16.9302 307.643 16.9302C309.095 16.8893 310.508 17.3976 311.601 18.3534C312.558 17.6826 313.661 17.2487 314.819 17.0874V18.8026C313.953 18.7922 313.095 18.9534 312.292 19.277C312.851 20.0516 313.138 20.9891 313.109 21.9438C313.109 24.9783 310.734 26.876 307.649 26.876C306.882 26.8851 306.121 26.7509 305.403 26.4802C304.744 26.744 304.28 27.1399 304.28 27.6676C304.28 28.2487 304.783 28.5659 306.338 28.7231L309.373 28.9617C312.592 29.2256 314.28 30.3344 314.28 32.4959C314.28 35.0224 311.641 36.4259 307.843 36.4259C303.348 36.4287 301.263 35.0841 301.263 32.9451ZM312.609 32.6643C312.609 31.345 311.554 30.6853 308.808 30.4748L306.038 30.2642L305.327 30.1828C303.769 30.6853 303.003 31.6622 303.003 32.7093C303.003 34.1606 304.536 35.0027 308.056 35.0027C310.894 35.0027 312.609 34.0539 312.609 32.6559V32.6643ZM311.402 21.9691C311.402 19.7542 310.032 18.3815 307.657 18.3815C305.361 18.3815 303.935 19.8047 303.935 21.9691C303.935 24.1334 305.414 25.478 307.683 25.478C309.951 25.478 311.402 24.1081 311.402 21.9691Z" fill="#F1F1F6"/>
<path d="M315.894 24.1334C315.894 19.1984 319.06 16.9302 321.988 16.9302C325.236 16.9302 327.661 19.409 327.661 24.1587V24.504H317.718C317.743 27.9315 319.683 29.86 322.097 29.86C324.183 29.86 325.371 28.9617 326.426 27.3336L327.549 28.2319C326.333 30.1969 324.618 31.3983 321.979 31.3983C318.746 31.3899 315.894 28.8831 315.894 24.1334ZM325.895 23.0527C325.71 20.4139 324.444 18.4601 321.965 18.4601C319.961 18.4601 318.086 19.9114 317.755 23.0527H325.895Z" fill="#F1F1F6"/>
<path d="M330.468 17.1941H332.287V19.3837C333.691 18.011 335.297 16.9302 337.379 16.9302C339.729 16.9302 340.785 17.9577 341.206 19.437C342.657 18.0643 344.4 16.9302 346.458 16.9302C349.307 16.9302 350.469 18.5387 350.469 21.0455V31.098H348.647V21.388C348.647 19.423 347.988 18.4854 346.037 18.4854C344.352 18.4854 342.949 19.409 341.391 20.9136V31.098H339.572V21.388C339.572 19.423 338.912 18.4854 336.933 18.4854C335.271 18.4854 333.845 19.409 332.287 20.9136V31.098H330.468V17.1941Z" fill="#F1F1F6"/>
<path d="M353.243 24.1334C353.243 19.1984 356.409 16.9302 359.337 16.9302C362.582 16.9302 365.01 19.409 365.01 24.1587V24.504H355.065C355.09 27.9315 357.03 29.86 359.444 29.86C361.527 29.86 362.714 28.9617 363.77 27.3336L364.892 28.2319C363.68 30.1969 361.965 31.3983 359.326 31.3983C356.092 31.3899 353.243 28.8831 353.243 24.1334ZM363.242 23.0527C363.059 20.4139 361.79 18.4601 359.312 18.4601C357.305 18.4601 355.432 19.9114 355.101 23.0527H363.242Z" fill="#F1F1F6"/>
<path d="M367.826 17.1941H369.645V19.3837C370.99 18.0643 372.758 16.9302 374.948 16.9302C377.693 16.9302 379.091 18.4601 379.091 21.0455V31.098H377.272V21.388C377.272 19.423 376.399 18.4854 374.502 18.4854C372.705 18.4854 371.203 19.409 369.645 20.9136V31.098H367.826V17.1941Z" fill="#F1F1F6"/>
<path d="M383.397 27.8529V18.7492H380.969V17.1941H383.397V12.2114H385.23V17.1941H388.843V18.7492H385.23V27.4851C385.23 28.9617 385.704 29.7533 387.42 29.7533C387.91 29.7654 388.399 29.7029 388.871 29.568V31.126C388.278 31.2267 387.678 31.2793 387.077 31.2832C384.388 31.2832 383.397 30.2558 383.397 27.8529Z" fill="#F1F1F6"/>
<path d="M391.243 12.0232H389.983V11.5741H392.998V12.0232H391.749V15.6108H391.243V12.0232ZM393.714 11.5741H394.373L395.583 14.9427L396.816 11.5741H397.484V15.6108H396.967V12.4415L395.794 15.6108H395.364L394.191 12.4415V15.6108H393.714V11.5741Z" fill="#F1F1F6"/>
</svg>
