<svg width="281.65" height="23.37" viewBox="13 14 281.65 23.37" fill="none" xmlns="http://www.w3.org/2000/svg">
<mask id="mask0_2337_63104" style="mask-type:luminance" maskUnits="userSpaceOnUse" x="13" y="14" width="11" height="19">
<path d="M22.3643 14.9714C20.703 15.8578 19.4673 17.5033 18.9762 19.4833C15.9755 19.7082 13.6001 22.6093 13.6001 26.1485C13.6001 29.6877 15.9721 32.592 18.9663 32.8246C19.096 32.8393 19.2261 32.8469 19.3566 32.8467L23.9251 32.8467V24.6368H21.9779C21.6605 25.7027 20.674 26.4807 19.5046 26.4807C18.0791 26.4807 16.9232 25.3256 16.9232 23.9004C16.9232 22.4754 18.0791 21.3202 19.5046 21.3202C20.674 21.3202 21.6605 22.0982 21.9779 23.1644H23.9251V14.4C23.3968 14.5119 22.8725 14.7005 22.3643 14.9714Z" fill="#FABC15"/>
</mask>
<g mask="url(#mask0_2337_63104)">
<path fill-rule="evenodd" clip-rule="evenodd" d="M13.1035 33.3457H24.4219V13.9009H13.1035V33.3457Z" class="logo-secondary"/>
</g>
<path fill-rule="evenodd" clip-rule="evenodd" d="M38.7106 24.3705H38.3565C38.1409 20.8799 35.5258 18.1699 32.3715 18.1687C31.83 18.171 31.2915 18.2537 30.7701 18.4145C29.6431 15.8013 27.256 14.3097 24.8027 14.4043V25.7842H30.3483C30.6654 24.724 31.6522 23.9506 32.8216 23.9506C34.2473 23.9506 35.4031 25.0993 35.4031 26.5161C35.4031 27.9333 34.2473 29.0821 32.8216 29.0821C31.6522 29.0821 30.6654 28.3083 30.3483 27.2484H24.8027V32.866H38.7106C40.7771 32.8601 42.4529 31.0077 42.4658 28.7155V28.5285C42.4567 26.2333 40.7797 24.3766 38.7106 24.3705Z" class="logo-emblem-trimble"/>
<mask id="mask1_2337_63104" style="mask-type:luminance" maskUnits="userSpaceOnUse" x="24" y="14" width="19" height="19">
<path d="M24.8027 14.4042V25.7409H30.345C30.6619 24.6848 31.648 23.9142 32.8168 23.9142C34.2415 23.9142 35.3967 25.0586 35.3967 26.4701C35.3967 27.8818 34.2415 29.0263 32.8168 29.0263C31.648 29.0263 30.6619 28.2554 30.345 27.1995H24.8027V32.7958H38.7022C40.7674 32.7899 42.4423 30.9445 42.4551 28.6612V28.4747C42.446 26.1883 40.7701 24.3387 38.7022 24.3325H38.3483C38.1328 20.8553 35.5192 18.1555 32.3668 18.1543C31.8258 18.1566 31.2876 18.239 30.7664 18.3991C29.674 15.8739 27.3961 14.4 25.0227 14.4C24.9494 14.4 24.8762 14.4014 24.8027 14.4042Z" fill="#005F9E"/>
</mask>
<g mask="url(#mask1_2337_63104)">
<path fill-rule="evenodd" clip-rule="evenodd" d="M11.0317 69.5016H128.785V11.24H11.0317V69.5016Z" class="logo-emblem-trimble"/>
</g>
<mask id="mask2_2337_63104" style="mask-type:luminance" maskUnits="userSpaceOnUse" x="24" y="14" width="19" height="19">
<path d="M24.8027 14.5024V25.7788H30.345C30.6619 24.7283 31.648 23.9619 32.8168 23.9619C34.2415 23.9619 35.3967 25.1002 35.3967 26.5042C35.3967 27.9084 34.2415 29.0468 32.8168 29.0468C31.648 29.0468 30.6619 28.28 30.345 27.2297H24.8027V32.7962H38.7022C40.7674 32.7904 42.4423 30.9548 42.4551 28.6836V28.4981C42.446 26.2239 40.7701 24.384 38.7022 24.3779H38.3483C38.1328 20.9192 35.5192 18.2338 32.3668 18.2326C31.8258 18.2349 31.2876 18.3168 30.7664 18.4761C29.674 15.9644 27.3961 14.4983 25.0228 14.4982C24.9493 14.4982 24.8762 14.4995 24.8027 14.5024Z" fill="#005F9E"/>
</mask>
<g mask="url(#mask2_2337_63104)">
<path fill-rule="evenodd" clip-rule="evenodd" d="M24.3037 33.2872H42.9541V14.0072H24.3037V33.2872Z" class="logo-emblem-trimble"/>
</g>
<path d="M57.72 32.5H53.808V18.004H48.528V14.74H63.024V18.004H57.72V32.5ZM65.3346 32.5H61.4706V19.708H65.3346V21.844H65.3586C66.0546 20.764 67.2786 19.444 69.6786 19.444H69.7986L69.7506 22.876C69.6066 22.852 68.9826 22.804 68.7426 22.804C67.2066 22.804 66.0546 23.62 65.3346 24.556V32.5ZM74.907 17.956H71.019V14.86H74.907V17.956ZM74.883 32.5H71.043V19.708H74.883V32.5ZM81.0977 32.5H77.2337V19.708H81.0977V21.724C81.8657 20.716 83.2817 19.444 85.2977 19.444C87.4337 19.444 88.4417 20.332 88.8017 21.724C89.5697 20.74 91.0097 19.444 93.0257 19.444C95.6177 19.444 96.7697 21.076 96.7697 23.356V32.5H92.9057V24.388C92.9057 23.236 92.6417 22.636 91.5137 22.636C90.5537 22.636 89.7857 23.164 88.9457 23.908V32.5H85.0817V24.388C85.0817 23.236 84.8177 22.636 83.6897 22.636C82.7297 22.636 81.9617 23.164 81.0977 23.908V32.5ZM106.625 32.692C104.897 32.692 103.697 32.068 102.737 30.988V32.5H98.8731V14.74H102.737V21.676C103.577 20.5 104.777 19.444 106.673 19.444C109.577 19.444 111.593 21.676 111.593 26.092C111.593 30.508 109.553 32.692 106.625 32.692ZM105.305 29.788C106.913 29.788 107.729 28.444 107.729 26.116C107.729 23.98 106.985 22.636 105.257 22.636C104.273 22.636 103.385 23.236 102.737 23.884V28.612C103.577 29.404 104.273 29.788 105.305 29.788ZM117.114 32.5H113.274V14.74H117.114V32.5ZM125.296 32.764C121.96 32.764 118.768 31.06 118.768 26.116C118.768 21.148 122.56 19.444 125.2 19.444C127.84 19.444 131.08 20.764 131.08 26.572V27.148H122.608C122.8 29.26 123.976 30.076 125.584 30.076C127.096 30.076 128.512 29.332 129.376 28.54L130.864 30.844C129.376 32.116 127.528 32.764 125.296 32.764ZM122.656 24.868H127.624C127.432 23.068 126.616 22.204 125.176 22.204C123.976 22.204 122.944 22.996 122.656 24.868Z" class="logo-emblem-trimble"/>
<path d="M143.536 32.5H141.592L136.864 14.74H139L141.616 25.036C142.024 26.596 142.408 28.108 142.648 29.38H142.696C142.936 28.132 143.296 26.596 143.704 25.06L146.176 14.74H148.312L150.856 25.132C151.24 26.716 151.6 28.012 151.84 29.38H151.888C152.176 27.94 152.488 26.764 152.872 25.204L155.464 14.74H157.48L152.776 32.5H150.832L147.256 17.644H147.208L143.536 32.5ZM162.936 32.764C159.84 32.764 157.032 30.508 157.032 26.164C157.032 21.796 159.816 19.564 162.936 19.564C166.032 19.564 168.816 21.796 168.816 26.164C168.816 30.508 166.032 32.764 162.936 32.764ZM162.936 31.012C165.336 31.012 166.728 29.068 166.728 26.164C166.728 23.524 165.456 21.34 162.936 21.34C160.512 21.34 159.12 23.308 159.12 26.164C159.12 28.852 160.368 31.012 162.936 31.012ZM173.089 32.5H171.025V19.828H173.089V22.18H173.137C174.073 20.716 175.561 19.564 178.033 19.564H178.297L178.153 21.484C178.081 21.46 177.625 21.46 177.553 21.46C175.537 21.46 174.025 22.516 173.089 24.316V32.5ZM181.978 32.5H179.914V14.74H181.978V26.164L187.642 19.828H189.994L185.842 24.364L190.45 32.5H188.242L184.498 25.9L181.978 28.612V32.5ZM196.122 32.74C193.842 32.74 191.97 31.828 190.938 30.58L192.186 29.332C193.146 30.364 194.418 31.084 196.146 31.084C198.114 31.084 199.194 30.388 199.194 29.092C199.194 27.82 198.09 27.34 195.93 26.836C193.242 26.188 191.394 25.468 191.394 23.02C191.394 21.1 193.074 19.564 195.834 19.564C198.066 19.564 199.506 20.284 200.682 21.388L199.602 22.756C198.642 21.868 197.346 21.244 195.93 21.244C194.082 21.244 193.362 22.06 193.362 22.948C193.362 24.124 194.37 24.556 196.362 25.012C199.218 25.708 201.186 26.404 201.186 29.02C201.186 31.444 199.002 32.74 196.122 32.74ZM205.716 32.5H203.772V14.74H206.532L212.124 29.836H212.172L217.668 14.74H220.476V32.5H218.388V18.124H218.34C218.1 19.06 217.668 20.212 217.26 21.388L213.012 32.5H211.116L206.868 21.388C206.436 20.212 206.148 19.468 205.764 18.052H205.716V32.5ZM227.17 31.06C228.85 31.06 230.29 30.364 231.466 29.212V25.66C226.642 26.428 225.034 27.604 225.034 29.188C225.034 30.412 225.85 31.06 227.17 31.06ZM226.57 32.692C224.386 32.692 222.994 31.54 222.994 29.5C222.994 26.932 225.178 25.108 231.466 24.22V23.644C231.466 22.06 230.626 21.292 229.066 21.292C227.146 21.292 225.73 22.132 224.482 23.212L223.402 21.916C224.866 20.572 226.762 19.564 229.282 19.564C232.306 19.564 233.506 21.148 233.506 23.788V29.38C233.506 30.916 233.602 31.852 233.866 32.5H231.754C231.586 31.972 231.466 31.468 231.466 30.748C230.05 32.068 228.466 32.692 226.57 32.692ZM238.395 32.5H236.307V19.828H238.395V21.724C239.499 20.644 241.083 19.564 243.147 19.564C245.571 19.564 246.891 20.956 246.891 23.356V32.5H244.827V23.812C244.827 22.132 244.107 21.34 242.499 21.34C240.987 21.34 239.715 22.132 238.395 23.38V32.5ZM253.105 31.06C254.785 31.06 256.225 30.364 257.401 29.212V25.66C252.577 26.428 250.969 27.604 250.969 29.188C250.969 30.412 251.785 31.06 253.105 31.06ZM252.505 32.692C250.321 32.692 248.929 31.54 248.929 29.5C248.929 26.932 251.113 25.108 257.401 24.22V23.644C257.401 22.06 256.561 21.292 255.001 21.292C253.081 21.292 251.665 22.132 250.417 23.212L249.337 21.916C250.801 20.572 252.697 19.564 255.217 19.564C258.241 19.564 259.441 21.148 259.441 23.788V29.38C259.441 30.916 259.537 31.852 259.801 32.5H257.689C257.521 31.972 257.401 31.468 257.401 30.748C255.985 32.068 254.401 32.692 252.505 32.692ZM266.874 27.124C268.818 27.124 270.042 25.996 270.042 24.172C270.042 22.324 268.89 21.172 266.85 21.172C264.882 21.172 263.658 22.348 263.658 24.172C263.658 25.996 264.93 27.124 266.874 27.124ZM266.946 37.372C262.674 37.372 260.826 36.148 260.826 34.228C260.826 32.932 261.714 31.972 263.13 31.42C262.41 31.084 262.05 30.556 262.05 29.812C262.05 28.996 262.722 28.3 263.634 27.772C262.41 26.98 261.69 25.708 261.69 24.124C261.69 21.46 263.826 19.564 266.85 19.564C268.41 19.564 269.706 20.092 270.594 20.884C271.362 20.308 272.562 19.828 273.594 19.708V21.532C272.898 21.532 272.058 21.652 271.314 21.94C271.722 22.516 271.962 23.26 271.962 24.124C271.962 26.86 269.802 28.636 266.85 28.636C266.106 28.636 265.482 28.516 264.834 28.324C264.306 28.564 263.946 28.876 263.946 29.308C263.946 29.836 264.354 30.076 265.698 30.196L268.29 30.412C271.506 30.628 273.138 31.66 273.138 33.7C273.138 36.1 270.618 37.372 266.946 37.372ZM267.21 35.812C269.73 35.812 271.242 35.044 271.242 33.892C271.242 32.764 270.402 32.26 267.738 32.068L265.338 31.9C265.098 31.876 264.858 31.852 264.618 31.828C263.394 32.26 262.746 33.052 262.746 33.916C262.746 35.188 264.066 35.812 267.21 35.812ZM279.874 32.764C276.874 32.764 274.138 30.58 274.138 26.164C274.138 21.556 277.21 19.564 279.874 19.564C282.874 19.564 285.154 21.676 285.154 26.26V26.692H276.202C276.274 29.548 277.93 31.084 280.018 31.084C281.842 31.084 282.874 30.34 283.834 29.02L285.034 30.076C283.858 31.756 282.25 32.764 279.874 32.764ZM276.25 25.084H283.186C283.018 22.828 281.938 21.292 279.85 21.292C278.146 21.292 276.538 22.468 276.25 25.084ZM289.445 32.5H287.381V19.828H289.445V22.18H289.493C290.429 20.716 291.917 19.564 294.389 19.564H294.653L294.509 21.484C294.437 21.46 293.981 21.46 293.909 21.46C291.893 21.46 290.381 22.516 289.445 24.316V32.5Z" class="logo-emblem-trimble"/>
</svg>
