<svg width="257.08" height="32.39" viewBox="23.17 7.8 257.08 32.39" fill="none" xmlns="http://www.w3.org/2000/svg">
<path d="M40.75 26.0724C40.75 26.0724 40.75 26.0724 40.75 31.9058C40.75 37.5088 32.6667 39.965 32 40.1952V37.2786C33.6667 36.9715 34.0833 34.1316 34.0833 32.9036V25.8422H40.5C40.6667 25.9957 40.75 26.0724 40.75 26.0724Z" fill="#004F83"/>
<path d="M38.0833 8.03507C38.0833 8.03507 38.0833 10.6447 38 11.5658C37.6667 13.7149 36.4167 15.557 34.6667 16.4013V24.5373C38.5833 24.7675 40 25.3816 40.5 25.7653H33.3333H32V15.0197H32.0833C34.1667 15.0197 35.6667 12.7938 35.6667 10.7215V9.80042H32V7.80481H37.8333C38 7.80481 38.0833 7.95832 38.0833 8.03507Z" fill="#004F83"/>
<path d="M29.9168 25.8421H23.5835C24.0835 25.4583 25.5002 24.8443 29.4168 24.614V16.4013C27.6668 15.557 26.4168 13.7149 26.0835 11.5658C25.9168 10.7215 26.0002 8.03507 26.0002 8.03507C26.0002 7.88156 26.1668 7.80481 26.3335 7.80481H32.1668V9.80042H28.5002V10.7982C28.5002 12.7938 30.0002 15.0965 32.0835 15.0965H32.0002V25.9188V37.3552C30.3335 37.0482 29.9168 34.0548 29.9168 32.9802V25.8421Z" fill="#004F83"/>
<path d="M23.4998 25.8422H29.8332V32.9036C29.8332 33.9781 30.3332 36.9715 31.9165 37.2786V40.1952C31.2498 40.0417 23.1665 37.5088 23.1665 31.9058C23.1665 26.0724 23.1665 26.0724 23.1665 26.0724C23.1665 26.0724 23.3332 25.9957 23.4998 25.8422Z" fill="#004F83"/>
<path d="M64.7656 33H61.1328V18.8906H56.4805V15.8672H69.418V18.8906H64.7656V33ZM79.0859 19.6523C79.2656 19.6523 79.4727 19.6641 79.707 19.6875C79.9492 19.7031 80.1445 19.7266 80.293 19.7578L80.0234 23.1094C79.9062 23.0703 79.7383 23.043 79.5195 23.0273C79.3086 23.0039 79.125 22.9922 78.9688 22.9922C78.5078 22.9922 78.0586 23.0508 77.6211 23.168C77.1914 23.2852 76.8047 23.4766 76.4609 23.7422C76.1172 24 75.8438 24.3438 75.6406 24.7734C75.4453 25.1953 75.3477 25.7148 75.3477 26.332V33H71.7734V19.8984H74.4805L75.0078 22.1016H75.1836C75.4414 21.6562 75.7617 21.25 76.1445 20.8828C76.5352 20.5078 76.9766 20.2109 77.4688 19.9922C77.9688 19.7656 78.5078 19.6523 79.0859 19.6523ZM86.2461 19.8984V33H82.6719V19.8984H86.2461ZM84.4648 14.7656C84.9961 14.7656 85.4531 14.8906 85.8359 15.1406C86.2188 15.3828 86.4102 15.8398 86.4102 16.5117C86.4102 17.1758 86.2188 17.6367 85.8359 17.8945C85.4531 18.1445 84.9961 18.2695 84.4648 18.2695C83.9258 18.2695 83.4648 18.1445 83.082 17.8945C82.707 17.6367 82.5195 17.1758 82.5195 16.5117C82.5195 15.8398 82.707 15.3828 83.082 15.1406C83.4648 14.8906 83.9258 14.7656 84.4648 14.7656ZM105.395 19.6523C106.879 19.6523 108 20.0352 108.758 20.8008C109.523 21.5586 109.906 22.7773 109.906 24.457V33H106.32V25.3477C106.32 24.4102 106.16 23.7031 105.84 23.2266C105.52 22.75 105.023 22.5117 104.352 22.5117C103.406 22.5117 102.734 22.8516 102.336 23.5312C101.938 24.2031 101.738 25.168 101.738 26.4258V33H98.1641V25.3477C98.1641 24.7227 98.0938 24.1992 97.9531 23.7773C97.8125 23.3555 97.5977 23.0391 97.3086 22.8281C97.0195 22.6172 96.6484 22.5117 96.1953 22.5117C95.5312 22.5117 95.0078 22.6797 94.625 23.0156C94.25 23.3438 93.9805 23.832 93.8164 24.4805C93.6602 25.1211 93.582 25.9062 93.582 26.8359V33H90.0078V19.8984H92.7383L93.2188 21.5742H93.418C93.6836 21.1211 94.0156 20.7539 94.4141 20.4727C94.8203 20.1914 95.2656 19.9844 95.75 19.8516C96.2344 19.7188 96.7266 19.6523 97.2266 19.6523C98.1875 19.6523 99 19.8086 99.6641 20.1211C100.336 20.4336 100.852 20.918 101.211 21.5742H101.527C101.918 20.9023 102.469 20.4141 103.18 20.1094C103.898 19.8047 104.637 19.6523 105.395 19.6523ZM117.16 14.7656V19.0078C117.16 19.5 117.145 19.9883 117.113 20.4727C117.09 20.957 117.059 21.332 117.02 21.5977H117.16C117.504 21.0586 117.973 20.6016 118.566 20.2266C119.16 19.8438 119.93 19.6523 120.875 19.6523C122.344 19.6523 123.535 20.2266 124.449 21.375C125.363 22.5234 125.82 24.207 125.82 26.4258C125.82 27.918 125.609 29.1719 125.188 30.1875C124.766 31.1953 124.176 31.957 123.418 32.4727C122.66 32.9805 121.781 33.2344 120.781 33.2344C119.82 33.2344 119.062 33.0625 118.508 32.7188C117.953 32.375 117.504 31.9883 117.16 31.5586H116.914L116.316 33H113.586V14.7656H117.16ZM119.727 22.5117C119.102 22.5117 118.605 22.6406 118.238 22.8984C117.871 23.1562 117.602 23.543 117.43 24.0586C117.266 24.5742 117.176 25.2266 117.16 26.0156V26.4023C117.16 27.6758 117.348 28.6523 117.723 29.332C118.098 30.0039 118.781 30.3398 119.773 30.3398C120.508 30.3398 121.09 30 121.52 29.3203C121.957 28.6406 122.176 27.6602 122.176 26.3789C122.176 25.0977 121.957 24.1328 121.52 23.4844C121.082 22.8359 120.484 22.5117 119.727 22.5117ZM132.348 33H128.773V14.7656H132.348V33ZM141.512 19.6523C142.723 19.6523 143.766 19.8867 144.641 20.3555C145.516 20.8164 146.191 21.4883 146.668 22.3711C147.145 23.2539 147.383 24.332 147.383 25.6055V27.3398H138.934C138.973 28.3477 139.273 29.1406 139.836 29.7188C140.406 30.2891 141.195 30.5742 142.203 30.5742C143.039 30.5742 143.805 30.4883 144.5 30.3164C145.195 30.1445 145.91 29.8867 146.645 29.543V32.3086C145.996 32.6289 145.316 32.8633 144.605 33.0117C143.902 33.1602 143.047 33.2344 142.039 33.2344C140.727 33.2344 139.562 32.9922 138.547 32.5078C137.539 32.0234 136.746 31.2852 136.168 30.293C135.598 29.3008 135.312 28.0508 135.312 26.543C135.312 25.0117 135.57 23.7383 136.086 22.7227C136.609 21.6992 137.336 20.9336 138.266 20.4258C139.195 19.9102 140.277 19.6523 141.512 19.6523ZM141.535 22.1953C140.84 22.1953 140.262 22.418 139.801 22.8633C139.348 23.3086 139.086 24.0078 139.016 24.9609H144.031C144.023 24.4297 143.926 23.957 143.738 23.543C143.559 23.1289 143.285 22.8008 142.918 22.5586C142.559 22.3164 142.098 22.1953 141.535 22.1953ZM166.531 33H156.992V15.8672H166.531V17.625H158.984V23.168H166.098V24.9023H158.984V31.2422H166.531V33ZM174.84 19.9453C176.371 19.9453 177.508 20.2891 178.25 20.9766C178.992 21.6641 179.363 22.7617 179.363 24.2695V33H177.945L177.57 31.1016H177.477C177.117 31.5703 176.742 31.9648 176.352 32.2852C175.961 32.5977 175.508 32.8359 174.992 33C174.484 33.1562 173.859 33.2344 173.117 33.2344C172.336 33.2344 171.641 33.0977 171.031 32.8242C170.43 32.5508 169.953 32.1367 169.602 31.582C169.258 31.0273 169.086 30.3242 169.086 29.4727C169.086 28.1914 169.594 27.207 170.609 26.5195C171.625 25.832 173.172 25.457 175.25 25.3945L177.465 25.3008V24.5156C177.465 23.4062 177.227 22.6289 176.75 22.1836C176.273 21.7383 175.602 21.5156 174.734 21.5156C174.062 21.5156 173.422 21.6133 172.812 21.8086C172.203 22.0039 171.625 22.2344 171.078 22.5L170.48 21.0234C171.059 20.7266 171.723 20.4727 172.473 20.2617C173.223 20.0508 174.012 19.9453 174.84 19.9453ZM177.441 26.6719L175.484 26.7539C173.883 26.8164 172.754 27.0781 172.098 27.5391C171.441 28 171.113 28.6523 171.113 29.4961C171.113 30.2305 171.336 30.7734 171.781 31.125C172.227 31.4766 172.816 31.6523 173.551 31.6523C174.691 31.6523 175.625 31.3359 176.352 30.7031C177.078 30.0703 177.441 29.1211 177.441 27.8555V26.6719ZM189.207 19.9219C189.465 19.9219 189.734 19.9375 190.016 19.9688C190.297 19.9922 190.547 20.0273 190.766 20.0742L190.52 21.8789C190.309 21.8242 190.074 21.7812 189.816 21.75C189.559 21.7188 189.316 21.7031 189.09 21.7031C188.574 21.7031 188.086 21.8086 187.625 22.0195C187.172 22.2227 186.773 22.5195 186.43 22.9102C186.086 23.293 185.816 23.7578 185.621 24.3047C185.426 24.8438 185.328 25.4453 185.328 26.1094V33H183.371V20.1562H184.988L185.199 22.5234H185.281C185.547 22.0469 185.867 21.6133 186.242 21.2227C186.617 20.8242 187.051 20.5078 187.543 20.2734C188.043 20.0391 188.598 19.9219 189.207 19.9219ZM197.34 31.6406C197.66 31.6406 197.988 31.6133 198.324 31.5586C198.66 31.5039 198.934 31.4375 199.145 31.3594V32.8711C198.918 32.9727 198.602 33.0586 198.195 33.1289C197.797 33.1992 197.406 33.2344 197.023 33.2344C196.344 33.2344 195.727 33.1172 195.172 32.8828C194.617 32.6406 194.172 32.2344 193.836 31.6641C193.508 31.0938 193.344 30.3047 193.344 29.2969V21.6797H191.516V20.7305L193.355 19.9688L194.129 17.1797H195.301V20.1562H199.062V21.6797H195.301V29.2383C195.301 30.043 195.484 30.6445 195.852 31.043C196.227 31.4414 196.723 31.6406 197.34 31.6406ZM203.691 14.7656V20.2148C203.691 20.5273 203.684 20.8438 203.668 21.1641C203.652 21.4766 203.625 21.7656 203.586 22.0312H203.715C203.98 21.5781 204.316 21.1992 204.723 20.8945C205.137 20.582 205.605 20.3477 206.129 20.1914C206.652 20.0273 207.207 19.9453 207.793 19.9453C208.824 19.9453 209.684 20.1094 210.371 20.4375C211.066 20.7656 211.586 21.2734 211.93 21.9609C212.281 22.6484 212.457 23.5391 212.457 24.6328V33H210.535V24.7617C210.535 23.6914 210.289 22.8906 209.797 22.3594C209.312 21.8281 208.566 21.5625 207.559 21.5625C206.605 21.5625 205.844 21.7461 205.273 22.1133C204.711 22.4727 204.305 23.0039 204.055 23.707C203.812 24.4102 203.691 25.2695 203.691 26.2852V33H201.746V14.7656H203.691ZM226.918 32.9766L224.633 25.5C224.531 25.1797 224.434 24.8672 224.34 24.5625C224.254 24.25 224.172 23.9531 224.094 23.6719C224.023 23.3828 223.957 23.1172 223.895 22.875C223.84 22.625 223.793 22.4102 223.754 22.2305H223.672C223.641 22.4102 223.598 22.625 223.543 22.875C223.488 23.1172 223.422 23.3828 223.344 23.6719C223.273 23.9609 223.195 24.2656 223.109 24.5859C223.023 24.8984 222.926 25.2148 222.816 25.5352L220.426 32.9766H218.234L214.695 20.1328H216.711L218.562 27.2227C218.688 27.6914 218.805 28.1562 218.914 28.6172C219.031 29.0703 219.129 29.5 219.207 29.9062C219.293 30.3047 219.355 30.6523 219.395 30.9492H219.488C219.535 30.7539 219.586 30.5195 219.641 30.2461C219.703 29.9727 219.77 29.6836 219.84 29.3789C219.918 29.0664 220 28.7578 220.086 28.4531C220.172 28.1406 220.258 27.8477 220.344 27.5742L222.711 20.1328H224.809L227.094 27.5625C227.211 27.9375 227.324 28.3281 227.434 28.7344C227.551 29.1406 227.656 29.5352 227.75 29.918C227.844 30.293 227.91 30.6289 227.949 30.9258H228.043C228.074 30.6602 228.133 30.332 228.219 29.9414C228.305 29.5508 228.402 29.1211 228.512 28.6523C228.629 28.1836 228.75 27.707 228.875 27.2227L230.75 20.1328H232.73L229.18 32.9766H226.918ZM246.148 26.5547C246.148 27.6094 246.012 28.5508 245.738 29.3789C245.465 30.207 245.07 30.9062 244.555 31.4766C244.039 32.0469 243.414 32.4844 242.68 32.7891C241.953 33.0859 241.129 33.2344 240.207 33.2344C239.348 33.2344 238.559 33.0859 237.84 32.7891C237.129 32.4844 236.512 32.0469 235.988 31.4766C235.473 30.9062 235.07 30.207 234.781 29.3789C234.5 28.5508 234.359 27.6094 234.359 26.5547C234.359 25.1484 234.598 23.9531 235.074 22.9688C235.551 21.9766 236.23 21.2227 237.113 20.707C238.004 20.1836 239.062 19.9219 240.289 19.9219C241.461 19.9219 242.484 20.1836 243.359 20.707C244.242 21.2305 244.926 21.9883 245.41 22.9805C245.902 23.9648 246.148 25.1562 246.148 26.5547ZM236.375 26.5547C236.375 27.5859 236.512 28.4805 236.785 29.2383C237.059 29.9961 237.48 30.582 238.051 30.9961C238.621 31.4102 239.355 31.6172 240.254 31.6172C241.145 31.6172 241.875 31.4102 242.445 30.9961C243.023 30.582 243.449 29.9961 243.723 29.2383C243.996 28.4805 244.133 27.5859 244.133 26.5547C244.133 25.5312 243.996 24.6484 243.723 23.9062C243.449 23.1562 243.027 22.5781 242.457 22.1719C241.887 21.7656 241.148 21.5625 240.242 21.5625C238.906 21.5625 237.926 22.0039 237.301 22.8867C236.684 23.7695 236.375 24.9922 236.375 26.5547ZM255.348 19.9219C255.605 19.9219 255.875 19.9375 256.156 19.9688C256.438 19.9922 256.688 20.0273 256.906 20.0742L256.66 21.8789C256.449 21.8242 256.215 21.7812 255.957 21.75C255.699 21.7188 255.457 21.7031 255.23 21.7031C254.715 21.7031 254.227 21.8086 253.766 22.0195C253.312 22.2227 252.914 22.5195 252.57 22.9102C252.227 23.293 251.957 23.7578 251.762 24.3047C251.566 24.8438 251.469 25.4453 251.469 26.1094V33H249.512V20.1562H251.129L251.34 22.5234H251.422C251.688 22.0469 252.008 21.6133 252.383 21.2227C252.758 20.8242 253.191 20.5078 253.684 20.2734C254.184 20.0391 254.738 19.9219 255.348 19.9219ZM261.266 14.7656V24.2344C261.266 24.5469 261.254 24.9297 261.23 25.3828C261.207 25.8281 261.188 26.2227 261.172 26.5664H261.254C261.418 26.3633 261.656 26.0625 261.969 25.6641C262.289 25.2656 262.559 24.9453 262.777 24.7031L267.043 20.1562H269.328L264.16 25.6406L269.703 33H267.359L262.824 26.918L261.266 28.3477V33H259.332V14.7656H261.266ZM280.25 29.4844C280.25 30.3047 280.043 30.9961 279.629 31.5586C279.223 32.1133 278.637 32.5312 277.871 32.8125C277.113 33.0938 276.207 33.2344 275.152 33.2344C274.254 33.2344 273.477 33.1641 272.82 33.0234C272.164 32.8828 271.59 32.6836 271.098 32.4258V30.6328C271.621 30.8906 272.246 31.125 272.973 31.3359C273.699 31.5469 274.441 31.6523 275.199 31.6523C276.309 31.6523 277.113 31.4727 277.613 31.1133C278.113 30.7539 278.363 30.2656 278.363 29.6484C278.363 29.2969 278.262 28.9883 278.059 28.7227C277.863 28.4492 277.531 28.1875 277.062 27.9375C276.594 27.6797 275.945 27.3984 275.117 27.0938C274.297 26.7812 273.586 26.4727 272.984 26.168C272.391 25.8555 271.93 25.4766 271.602 25.0312C271.281 24.5859 271.121 24.0078 271.121 23.2969C271.121 22.2109 271.559 21.3789 272.434 20.8008C273.316 20.2148 274.473 19.9219 275.902 19.9219C276.676 19.9219 277.398 20 278.07 20.1562C278.75 20.3047 279.383 20.5078 279.969 20.7656L279.312 22.3242C278.781 22.0977 278.215 21.9062 277.613 21.75C277.012 21.5938 276.398 21.5156 275.773 21.5156C274.875 21.5156 274.184 21.6641 273.699 21.9609C273.223 22.2578 272.984 22.6641 272.984 23.1797C272.984 23.5781 273.094 23.9062 273.312 24.1641C273.539 24.4219 273.898 24.6641 274.391 24.8906C274.883 25.1172 275.531 25.3828 276.336 25.6875C277.141 25.9844 277.836 26.293 278.422 26.6133C279.008 26.9258 279.457 27.3086 279.77 27.7617C280.09 28.207 280.25 28.7812 280.25 29.4844Z" fill="#004F83"/>
</svg>
