<svg width="142" height="30" viewBox="0 0 142 30" fill="none" xmlns="http://www.w3.org/2000/svg">
<path d="M3.65277 7.8974H2.0514V1.78668H0V0.476562H5.70418V1.78595H3.65277V7.89666V7.8974Z" class="logo-accent"/>
<path d="M8.56749 2.11597C8.647 2.11597 8.7385 2.12039 8.84426 2.1285C8.94927 2.13734 9.03478 2.14766 9.10003 2.16166L8.98152 3.61325C8.92977 3.59631 8.85626 3.58378 8.76175 3.57494C8.66725 3.56683 8.58549 3.56241 8.51648 3.56241C8.31322 3.56241 8.11596 3.5882 7.92469 3.63831C7.73343 3.68915 7.56241 3.77094 7.4109 3.88442C7.25939 3.99789 7.13938 4.14673 7.05163 4.33095C6.96387 4.51516 6.91962 4.74137 6.91962 5.00885V7.89657H5.34375V2.22281H6.53709L6.76961 3.17704H6.84686C6.96087 2.98398 7.10263 2.80714 7.27289 2.6465C7.44316 2.48587 7.63817 2.35692 7.85644 2.26039C8.07545 2.16387 8.31172 2.11523 8.56674 2.11523L8.56749 2.11597Z" class="logo-accent"/>
<path d="M10.2284 0C10.4624 0 10.6642 0.0530533 10.833 0.159897C11.0017 0.26674 11.0865 0.464954 11.0865 0.75601C11.0865 1.04707 11.0017 1.24233 10.833 1.35212C10.6642 1.46191 10.4624 1.51718 10.2284 1.51718C9.99439 1.51718 9.78812 1.46191 9.62161 1.35212C9.45435 1.24233 9.37109 1.04338 9.37109 0.75601C9.37109 0.468638 9.45435 0.266004 9.62161 0.159897C9.78887 0.0530533 9.99139 0 10.2284 0ZM11.0137 2.22308V7.89758H9.43785V2.22308H11.0137Z" class="logo-accent"/>
<path d="M18.7239 2.11621C19.378 2.11621 19.8738 2.28127 20.209 2.61138C20.5451 2.94148 20.7131 3.46981 20.7131 4.19782V7.89755H19.132V4.58319C19.132 4.17719 19.0615 3.87066 18.9204 3.66434C18.7794 3.45802 18.5604 3.35486 18.2641 3.35486C17.8471 3.35486 17.5508 3.50149 17.3753 3.79402C17.1998 4.08655 17.1121 4.50508 17.1121 5.05035V7.89755H15.5362V4.58319C15.5362 4.31277 15.5054 4.08582 15.4432 3.90308C15.3809 3.72034 15.2864 3.58328 15.1589 3.49191C15.0314 3.40054 14.8679 3.35486 14.6684 3.35486C14.3759 3.35486 14.1456 3.42707 13.9783 3.57076C13.8111 3.71444 13.6926 3.92592 13.6221 4.20519C13.5515 4.48445 13.5163 4.82488 13.5163 5.22794V7.89755H11.9404V2.22305H13.1443L13.3558 2.94885H13.4435C13.5605 2.75285 13.7076 2.59369 13.8853 2.47211C14.0623 2.35053 14.2581 2.26063 14.4719 2.20316C14.6856 2.14569 14.9024 2.11695 15.1229 2.11695C15.5467 2.11695 15.906 2.18474 16.2 2.32032C16.4948 2.4559 16.7213 2.66517 16.8795 2.94959H17.0191C17.1916 2.65853 17.4346 2.44706 17.7504 2.31516C18.0654 2.18326 18.3902 2.11695 18.7239 2.11695V2.11621Z" class="logo-accent"/>
<path d="M23.1845 0V1.83771C23.1845 2.05066 23.1785 2.26213 23.1665 2.47214C23.1545 2.68214 23.1395 2.84425 23.1222 2.9592H23.1845C23.336 2.72561 23.543 2.52666 23.8048 2.36308C24.0666 2.19877 24.4056 2.11698 24.8226 2.11698C25.4699 2.11698 25.9957 2.36603 26.3985 2.86341C26.8013 3.36078 27.003 4.09026 27.003 5.05112C27.003 5.69734 26.91 6.23966 26.724 6.67809C26.538 7.11651 26.2777 7.44662 25.9439 7.66768C25.6102 7.88947 25.2224 8 24.7814 8C24.3403 8 24.0238 7.92558 23.7793 7.77673C23.5348 7.62789 23.3368 7.46062 23.1852 7.2742H23.0765L22.8132 7.89831H21.6094V0H23.1852H23.1845ZM24.3156 3.35489C24.0403 3.35489 23.8213 3.41089 23.6593 3.52215C23.4973 3.63415 23.3795 3.80142 23.3053 4.02468C23.231 4.24795 23.1905 4.5309 23.1837 4.87206V5.03933C23.1837 5.59123 23.2662 6.01345 23.432 6.30598C23.597 6.59851 23.8985 6.74514 24.3358 6.74514C24.6599 6.74514 24.9171 6.59777 25.1084 6.30377C25.2997 6.00903 25.3949 5.5846 25.3949 5.02975C25.3949 4.4749 25.2981 4.05711 25.1054 3.77563C24.9126 3.49489 24.6486 3.35415 24.3148 3.35415L24.3156 3.35489Z" class="logo-accent"/>
<path d="M29.2272 7.89758H27.6514V0H29.2272V7.89758Z" class="logo-accent"/>
<path d="M32.5881 2.11621C33.1222 2.11621 33.582 2.21716 33.9675 2.41832C34.353 2.61948 34.6508 2.91127 34.8616 3.2937C35.0716 3.67613 35.1766 4.14329 35.1766 4.69446V5.44531H31.4518C31.4691 5.88226 31.6026 6.22416 31.8523 6.47322C32.1021 6.72153 32.4494 6.84606 32.8934 6.84606C33.2617 6.84606 33.5992 6.80922 33.906 6.7348C34.2128 6.66038 34.5278 6.54837 34.8518 6.39953V7.59765C34.566 7.73618 34.2668 7.83786 33.9555 7.90197C33.6435 7.96608 33.2654 7.9985 32.8214 7.9985C32.2431 7.9985 31.7301 7.89387 31.2845 7.68386C30.8383 7.47386 30.4887 7.15407 30.236 6.72448C29.9825 6.2949 29.8564 5.75331 29.8564 5.10046C29.8564 4.44761 29.9712 3.88466 30.2 3.44328C30.4287 3.00191 30.7483 2.67032 31.1585 2.44853C31.5681 2.22674 32.0451 2.11621 32.5896 2.11621H32.5881ZM32.5986 3.2178C32.2919 3.2178 32.0384 3.31433 31.8366 3.50739C31.6348 3.69971 31.5186 4.00329 31.4878 4.41593H33.699C33.6952 4.18603 33.6532 3.98118 33.5722 3.80139C33.4912 3.62234 33.3705 3.48012 33.2107 3.37475C33.0502 3.27012 32.8462 3.2178 32.5986 3.2178Z" class="logo-accent"/>
<path d="M35.5782 7.23467C35.5737 6.85298 35.8849 6.53982 36.2735 6.53613C36.2787 6.53613 36.284 6.53613 36.2892 6.53613C36.6823 6.53613 37.0003 6.8493 37.0003 7.23467C37.0003 7.62078 36.6815 7.9332 36.2892 7.9332C35.8962 7.9332 35.5782 7.62004 35.5782 7.23467ZM36.8713 7.23467C36.8653 6.91782 36.5997 6.66508 36.2772 6.67098C35.9547 6.67687 35.6974 6.93772 35.7034 7.25456C35.7087 7.56846 35.9705 7.81973 36.29 7.81825C36.611 7.81825 36.872 7.56257 36.872 7.24646C36.872 7.24204 36.872 7.23835 36.872 7.23393L36.8713 7.23467ZM36.0132 6.83677H36.3042C36.488 6.83677 36.5952 6.91487 36.5952 7.07109C36.6042 7.16983 36.5405 7.2612 36.443 7.28772L36.611 7.60162H36.4482L36.2915 7.30909H36.1685V7.60162H36.0125V6.83677H36.0132ZM36.2952 7.19193C36.3905 7.19193 36.443 7.16172 36.443 7.07993C36.443 6.99814 36.3905 6.96793 36.2915 6.96793H36.1685V7.19119H36.2945L36.2952 7.19193Z" class="logo-accent"/>
<path d="M9.65039 25L8.39355 21.4316H3.48047L2.22363 25H0L4.78125 12.0977H7.11914L11.8916 25H9.65039ZM7.84863 19.6211L6.62695 16.1055C6.58008 15.9531 6.5127 15.7393 6.4248 15.4639C6.33691 15.1826 6.24902 14.8984 6.16113 14.6113C6.07324 14.3184 6 14.0723 5.94141 13.873C5.88281 14.1133 5.80957 14.3828 5.72168 14.6816C5.63965 14.9746 5.55762 15.25 5.47559 15.5078C5.39941 15.7656 5.34082 15.9648 5.2998 16.1055L4.06934 19.6211H7.84863ZM16.3969 25.1758C15.477 25.1758 14.6801 24.9971 14.0063 24.6396C13.3324 24.2822 12.8139 23.7344 12.4506 22.9961C12.0873 22.2578 11.9057 21.3203 11.9057 20.1836C11.9057 19 12.1049 18.0332 12.5033 17.2832C12.9018 16.5332 13.4525 15.9795 14.1557 15.6221C14.8646 15.2646 15.6762 15.0859 16.5902 15.0859C17.1703 15.0859 17.6947 15.1445 18.1635 15.2617C18.6381 15.373 19.0395 15.5107 19.3676 15.6748L18.7523 17.3271C18.3949 17.1807 18.0287 17.0576 17.6537 16.958C17.2787 16.8584 16.9184 16.8086 16.5727 16.8086C16.0043 16.8086 15.5297 16.9346 15.1488 17.1865C14.7738 17.4385 14.4926 17.8135 14.3051 18.3115C14.1234 18.8096 14.0326 19.4277 14.0326 20.166C14.0326 20.8809 14.1264 21.4844 14.3139 21.9766C14.5014 22.4629 14.7797 22.832 15.1488 23.084C15.518 23.3301 15.9721 23.4531 16.5111 23.4531C17.0443 23.4531 17.5219 23.3887 17.9438 23.2598C18.3656 23.1309 18.7641 22.9639 19.1391 22.7588V24.5518C18.7699 24.7627 18.3744 24.918 17.9525 25.0176C17.5307 25.123 17.0121 25.1758 16.3969 25.1758ZM24.4441 25.1758C23.5242 25.1758 22.7273 24.9971 22.0535 24.6396C21.3797 24.2822 20.8611 23.7344 20.4979 22.9961C20.1346 22.2578 19.9529 21.3203 19.9529 20.1836C19.9529 19 20.1521 18.0332 20.5506 17.2832C20.949 16.5332 21.4998 15.9795 22.2029 15.6221C22.9119 15.2646 23.7234 15.0859 24.6375 15.0859C25.2176 15.0859 25.742 15.1445 26.2107 15.2617C26.6854 15.373 27.0867 15.5107 27.4148 15.6748L26.7996 17.3271C26.4422 17.1807 26.076 17.0576 25.701 16.958C25.326 16.8584 24.9656 16.8086 24.6199 16.8086C24.0516 16.8086 23.577 16.9346 23.1961 17.1865C22.8211 17.4385 22.5398 17.8135 22.3523 18.3115C22.1707 18.8096 22.0799 19.4277 22.0799 20.166C22.0799 20.8809 22.1736 21.4844 22.3611 21.9766C22.5486 22.4629 22.827 22.832 23.1961 23.084C23.5652 23.3301 24.0193 23.4531 24.5584 23.4531C25.0916 23.4531 25.5691 23.3887 25.991 23.2598C26.4129 23.1309 26.8113 22.9639 27.1863 22.7588V24.5518C26.8172 24.7627 26.4217 24.918 25.9998 25.0176C25.5779 25.123 25.0594 25.1758 24.4441 25.1758ZM37.0529 15.2705V25H35.427L35.1457 23.6904H35.0314C34.8264 24.0244 34.5656 24.3027 34.2492 24.5254C33.9328 24.7422 33.5812 24.9033 33.1945 25.0088C32.8078 25.1201 32.4006 25.1758 31.9729 25.1758C31.2404 25.1758 30.6135 25.0527 30.092 24.8066C29.5764 24.5547 29.1809 24.168 28.9055 23.6465C28.6301 23.125 28.4924 22.4512 28.4924 21.625V15.2705H30.5666V21.2383C30.5666 21.9941 30.7189 22.5596 31.0236 22.9346C31.3342 23.3096 31.8146 23.4971 32.465 23.4971C33.092 23.4971 33.59 23.3682 33.9592 23.1104C34.3283 22.8525 34.5891 22.4717 34.7414 21.9678C34.8996 21.4639 34.9787 20.8457 34.9787 20.1133V15.2705H37.0529ZM41.1803 11.3242V14.6201C41.1803 15.001 41.1686 15.376 41.1451 15.7451C41.1275 16.1084 41.11 16.3926 41.0924 16.5977H41.1803C41.4439 16.1758 41.8102 15.8213 42.2789 15.5342C42.7535 15.2412 43.36 15.0947 44.0982 15.0947C45.2525 15.0947 46.1813 15.5195 46.8844 16.3691C47.5875 17.2129 47.9391 18.4639 47.9391 20.1221C47.9391 21.2236 47.7779 22.1494 47.4557 22.8994C47.1334 23.6494 46.6793 24.2178 46.0934 24.6045C45.5133 24.9854 44.8307 25.1758 44.0455 25.1758C43.3072 25.1758 42.7096 25.041 42.2525 24.7715C41.8014 24.4961 41.4469 24.1768 41.1891 23.8135H41.0396L40.6617 25H39.1148V11.3242H41.1803ZM43.5533 16.7734C42.9674 16.7734 42.5016 16.8906 42.1559 17.125C41.816 17.3594 41.5699 17.7109 41.4176 18.1797C41.2652 18.6426 41.1861 19.2314 41.1803 19.9463V20.1309C41.1803 21.2148 41.3502 22.0439 41.69 22.6182C42.0357 23.1924 42.6627 23.4795 43.5709 23.4795C44.2916 23.4795 44.8453 23.1895 45.232 22.6094C45.6188 22.0234 45.8121 21.1855 45.8121 20.0957C45.8121 18.9941 45.6188 18.165 45.232 17.6084C44.8512 17.0518 44.2916 16.7734 43.5533 16.7734ZM51.4951 15.2705V25H49.4297V15.2705H51.4951ZM50.4756 11.5439C50.792 11.5439 51.0645 11.6289 51.293 11.7988C51.5273 11.9688 51.6445 12.2617 51.6445 12.6777C51.6445 13.0879 51.5273 13.3809 51.293 13.5566C51.0645 13.7266 50.792 13.8115 50.4756 13.8115C50.1475 13.8115 49.8691 13.7266 49.6406 13.5566C49.418 13.3809 49.3066 13.0879 49.3066 12.6777C49.3066 12.2617 49.418 11.9688 49.6406 11.7988C49.8691 11.6289 50.1475 11.5439 50.4756 11.5439ZM56.8266 25.1758C55.6664 25.1758 54.7348 24.7539 54.0316 23.9102C53.3344 23.0605 52.9857 21.8096 52.9857 20.1572C52.9857 18.4873 53.3402 17.2246 54.0492 16.3691C54.7641 15.5137 55.7045 15.0859 56.8705 15.0859C57.3627 15.0859 57.7934 15.1533 58.1625 15.2881C58.5316 15.417 58.848 15.5928 59.1117 15.8154C59.3812 16.0381 59.6098 16.2871 59.7973 16.5625H59.8939C59.8646 16.3809 59.8295 16.1201 59.7885 15.7803C59.7533 15.4346 59.7357 15.1152 59.7357 14.8223V11.3242H61.81V25H60.1928L59.8236 23.6729H59.7357C59.56 23.9541 59.3373 24.209 59.0678 24.4375C58.8041 24.6602 58.4877 24.8389 58.1186 24.9736C57.7553 25.1084 57.3246 25.1758 56.8266 25.1758ZM57.4066 23.4971C58.2914 23.4971 58.9154 23.2422 59.2787 22.7324C59.642 22.2227 59.8295 21.458 59.8412 20.4385V20.166C59.8412 19.0762 59.6654 18.2412 59.3139 17.6611C58.9623 17.0752 58.3207 16.7822 57.3891 16.7822C56.6449 16.7822 56.0766 17.084 55.684 17.6875C55.2973 18.2852 55.1039 19.1201 55.1039 20.1924C55.1039 21.2646 55.2973 22.085 55.684 22.6533C56.0766 23.2158 56.6508 23.4971 57.4066 23.4971Z" class="logo-text"/>
<path d="M77.8525 25L76.1035 20.4561H70.707L68.9229 25H68L73.0537 12.1064H73.8799L78.8018 25H77.8525ZM75.8135 19.6387L74.0381 14.8223C73.9912 14.6992 73.9326 14.541 73.8623 14.3477C73.7979 14.1543 73.7275 13.9492 73.6514 13.7324C73.5811 13.5156 73.5107 13.3105 73.4404 13.1172C73.3818 13.3223 73.3174 13.5273 73.2471 13.7324C73.1768 13.9375 73.1094 14.1367 73.0449 14.3301C72.9805 14.5176 72.9189 14.6875 72.8604 14.8398L71.0146 19.6387H75.8135ZM83.7025 15.2617C84.7748 15.2617 85.598 15.543 86.1723 16.1055C86.7465 16.668 87.0336 17.5498 87.0336 18.751V25H86.1547V18.8037C86.1547 17.8545 85.9379 17.1572 85.5043 16.7119C85.0707 16.2666 84.4408 16.0439 83.6146 16.0439C82.5658 16.0439 81.7631 16.3516 81.2064 16.9668C80.6557 17.5762 80.3803 18.499 80.3803 19.7354V25H79.4926V15.4463H80.2133L80.3451 17.1865H80.3979C80.5678 16.8291 80.7992 16.5068 81.0922 16.2197C81.391 15.9268 81.7572 15.6953 82.1908 15.5254C82.6244 15.3496 83.1283 15.2617 83.7025 15.2617ZM87.6541 15.4463H88.5945L90.9148 21.5107C91.0555 21.8682 91.1785 22.1992 91.284 22.5039C91.3953 22.8027 91.492 23.0781 91.574 23.3301C91.6561 23.5762 91.7234 23.8018 91.7762 24.0068H91.8289C91.9168 23.7373 92.034 23.3916 92.1805 22.9697C92.327 22.542 92.4939 22.0674 92.6814 21.5459L94.9754 15.4463H95.9246L91.5652 26.793C91.3543 27.3438 91.1229 27.8096 90.8709 28.1904C90.6189 28.5771 90.323 28.8672 89.9832 29.0605C89.6434 29.2598 89.2332 29.3594 88.7527 29.3594C88.5359 29.3594 88.3396 29.3418 88.1639 29.3066C87.9881 29.2773 87.8182 29.2363 87.6541 29.1836V28.4189C87.8064 28.4658 87.9617 28.5039 88.1199 28.5332C88.284 28.5684 88.4627 28.5859 88.6561 28.5859C88.99 28.5859 89.2771 28.5156 89.5174 28.375C89.7635 28.2402 89.9832 28.0293 90.1766 27.7422C90.3699 27.4551 90.5516 27.0889 90.7215 26.6436L91.3719 24.9473L87.6541 15.4463ZM104.227 25L102.196 18.584C102.132 18.3906 102.073 18.2061 102.021 18.0303C101.968 17.8545 101.918 17.6846 101.871 17.5205C101.824 17.3564 101.78 17.1982 101.739 17.0459C101.698 16.8877 101.657 16.7324 101.616 16.5801H101.572C101.531 16.7324 101.49 16.8877 101.449 17.0459C101.408 17.2041 101.364 17.3682 101.318 17.5381C101.271 17.708 101.221 17.8809 101.168 18.0566C101.115 18.2324 101.057 18.4141 100.992 18.6016L98.8918 25H97.9777L95.2619 15.4463H96.2023L97.8811 21.5547C97.9807 21.9121 98.0656 22.2314 98.1359 22.5127C98.2062 22.7939 98.2678 23.0488 98.3205 23.2773C98.3732 23.5059 98.4201 23.7227 98.4611 23.9277H98.5051C98.5402 23.7812 98.5783 23.6289 98.6193 23.4707C98.6604 23.3066 98.7043 23.1309 98.7512 22.9434C98.798 22.7559 98.8537 22.5566 98.9182 22.3457C98.9826 22.1348 99.0529 21.9062 99.1291 21.6602L101.177 15.4463H102.056L104.025 21.6426C104.118 21.9414 104.203 22.2285 104.279 22.5039C104.362 22.7734 104.432 23.0254 104.49 23.2598C104.555 23.4941 104.608 23.7139 104.649 23.9189H104.701C104.725 23.7256 104.76 23.5146 104.807 23.2861C104.86 23.0518 104.921 22.791 104.991 22.5039C105.068 22.2168 105.153 21.9004 105.246 21.5547L106.863 15.4463H107.76L105.167 25H104.227ZM109.585 11.3242V15.7891C109.585 16.0469 109.579 16.2871 109.567 16.5098C109.561 16.7324 109.549 16.958 109.532 17.1865H109.593C109.752 16.8232 109.977 16.498 110.27 16.2109C110.569 15.9238 110.935 15.6953 111.369 15.5254C111.808 15.3555 112.315 15.2705 112.889 15.2705C113.616 15.2705 114.225 15.3965 114.717 15.6484C115.215 15.8945 115.593 16.2725 115.851 16.7822C116.109 17.292 116.238 17.9482 116.238 18.751V25H115.359V18.8037C115.359 17.8545 115.142 17.1572 114.709 16.7119C114.275 16.2666 113.645 16.0439 112.819 16.0439C112.116 16.0439 111.524 16.1816 111.044 16.457C110.563 16.7266 110.2 17.1367 109.954 17.6875C109.708 18.2324 109.585 18.915 109.585 19.7354V25H108.697V11.3242H109.585ZM122.053 15.2617C122.867 15.2617 123.544 15.4521 124.083 15.833C124.628 16.2139 125.032 16.7354 125.296 17.3975C125.565 18.0596 125.7 18.8184 125.7 19.6738V20.3154H118.801C118.801 21.6279 119.103 22.6357 119.706 23.3389C120.315 24.042 121.186 24.3936 122.316 24.3936C122.908 24.3936 123.421 24.3467 123.854 24.2529C124.294 24.1533 124.78 23.9863 125.313 23.752V24.5693C124.845 24.7803 124.376 24.9326 123.907 25.0264C123.438 25.126 122.899 25.1758 122.29 25.1758C121.323 25.1758 120.512 24.9766 119.855 24.5781C119.205 24.1738 118.713 23.6055 118.379 22.873C118.051 22.1406 117.887 21.2852 117.887 20.3066C117.887 19.3516 118.045 18.4932 118.361 17.7314C118.684 16.9697 119.152 16.3691 119.768 15.9297C120.389 15.4844 121.15 15.2617 122.053 15.2617ZM122.044 16.0264C121.13 16.0264 120.389 16.3311 119.82 16.9404C119.258 17.5439 118.927 18.417 118.827 19.5596H124.777C124.777 18.8623 124.678 18.2471 124.479 17.7139C124.279 17.1807 123.978 16.7676 123.573 16.4746C123.175 16.1758 122.665 16.0264 122.044 16.0264ZM131.234 15.2793C131.486 15.2793 131.723 15.2939 131.946 15.3232C132.168 15.3525 132.376 15.3936 132.57 15.4463L132.429 16.2637C132.236 16.2109 132.039 16.1729 131.84 16.1494C131.641 16.1201 131.427 16.1055 131.199 16.1055C130.747 16.1055 130.343 16.1904 129.986 16.3604C129.634 16.5303 129.335 16.7734 129.089 17.0898C128.843 17.4062 128.656 17.7871 128.527 18.2324C128.398 18.6777 128.333 19.1758 128.333 19.7266V25H127.437V15.4463H128.202L128.289 17.248H128.342C128.489 16.8789 128.694 16.5479 128.957 16.2549C129.227 15.9561 129.552 15.7188 129.933 15.543C130.314 15.3672 130.747 15.2793 131.234 15.2793ZM137.163 15.2617C137.977 15.2617 138.654 15.4521 139.193 15.833C139.738 16.2139 140.142 16.7354 140.406 17.3975C140.676 18.0596 140.81 18.8184 140.81 19.6738V20.3154H133.911C133.911 21.6279 134.213 22.6357 134.816 23.3389C135.426 24.042 136.296 24.3936 137.427 24.3936C138.018 24.3936 138.531 24.3467 138.965 24.2529C139.404 24.1533 139.89 23.9863 140.424 23.752V24.5693C139.955 24.7803 139.486 24.9326 139.017 25.0264C138.549 25.126 138.01 25.1758 137.4 25.1758C136.433 25.1758 135.622 24.9766 134.966 24.5781C134.315 24.1738 133.823 23.6055 133.489 22.873C133.161 22.1406 132.997 21.2852 132.997 20.3066C132.997 19.3516 133.155 18.4932 133.471 17.7314C133.794 16.9697 134.263 16.3691 134.878 15.9297C135.499 15.4844 136.261 15.2617 137.163 15.2617ZM137.154 16.0264C136.24 16.0264 135.499 16.3311 134.93 16.9404C134.368 17.5439 134.037 18.417 133.937 19.5596H139.888C139.888 18.8623 139.788 18.2471 139.589 17.7139C139.389 17.1807 139.088 16.7676 138.683 16.4746C138.285 16.1758 137.775 16.0264 137.154 16.0264Z" class="logo-text"/>
</svg>
