<svg width="32" height="32" viewBox="0 0 32 32" fill="none" xmlns="http://www.w3.org/2000/svg">
<path d="M16.0001 22.9578C19.5988 22.9578 22.516 20.0708 22.516 16.5095C22.516 12.9483 19.5988 10.0613 16.0001 10.0613C12.4015 10.0613 9.48425 12.9483 9.48425 16.5095C9.48425 20.0708 12.4015 22.9578 16.0001 22.9578Z" class="logo-accent"/>
<path d="M19.4205 8L18.1211 9.3426C21.2357 10.2503 23.5287 13.1057 23.5287 16.4905C23.5287 19.8754 21.2548 22.7308 18.1211 23.6573L19.4205 24.9999L28 16.4716L19.4205 8Z" class="logo-accent"/>
<path d="M12.5796 24.9999L13.8789 23.6573C10.7452 22.7497 8.47132 19.8943 8.47132 16.5094C8.47132 13.1246 10.7452 10.2692 13.8789 9.3426L12.5796 8L4 16.5283L12.5796 24.9999Z" class="logo-accent"/>
</svg>
