<svg width="119.15" height="28" viewBox="12 10 119.15 28" fill="none" xmlns="http://www.w3.org/2000/svg">
<path d="M13.7383 31.3945C15.268 33.0579 17.2755 34.2072 19.4844 34.6846L13.7383 38V31.3945ZM17.7178 27.3604C20.5906 29.6197 25.2051 30.3812 28.5537 28.3877C28.5734 29.4712 28.3827 30.5483 27.9932 31.5596C26.2955 32.9466 24.182 33.7244 21.9902 33.7686C19.7986 33.8127 17.6554 33.1211 15.9033 31.8037C16.0657 31.0001 16.5082 29.4519 17.7178 27.3604ZM120.703 18.7197C123.631 18.7198 127.228 20.1946 127.229 26.6289V27.2676H117.827C118.043 29.6037 119.346 30.5146 121.132 30.5146C122.692 30.4683 124.185 29.8646 125.339 28.8125L126.99 31.3691C125.339 32.7811 123.289 33.4999 120.812 33.5C117.109 33.5 113.568 31.6155 113.568 26.123C113.568 20.61 117.775 18.7199 120.703 18.7197ZM96.834 21.1963C97.7658 19.8986 99.0971 18.7199 101.199 18.7197C104.423 18.7199 106.65 21.1968 106.65 26.0947C106.65 30.9925 104.389 33.4324 101.14 33.4326C99.2218 33.4325 97.8903 32.7263 96.834 31.5273V33.207H92.5381V13.5H96.834V21.1963ZM56.2295 17.1338H50.2598V33.2275L45.9199 33.207V17.1133H39.9883V13.5H56.2295V17.1338ZM61.9219 22.5303C61.7632 22.5017 61.0159 22.4502 60.751 22.4502C60.013 22.4576 59.2863 22.6372 58.6299 22.9746C57.9735 23.3121 57.4052 23.7987 56.9697 24.3945V33.2197L52.6816 33.207V19.0889H56.9697V21.3828H56.9951C57.7738 20.1836 59.1271 18.7197 61.79 18.7197H61.9219V22.5303ZM67.5654 33.207L63.3057 33.2168V19.0107H67.5654V33.207ZM86.7656 18.7197C89.6409 18.7201 90.9178 20.537 90.918 23.0596V33.207H86.6299V24.2051C86.6299 22.9282 86.3366 22.2609 85.0859 22.2607C84.0218 22.2607 83.1674 22.8475 82.2305 23.6729V33.207H77.9502V24.2051C77.9502 22.9281 77.6564 22.2609 76.3926 22.2607C75.3286 22.2609 74.4768 22.8476 73.5166 23.6729V33.207H69.2422V19.0107H73.5273V21.248C74.3813 20.1294 75.9517 18.7198 78.1992 18.7197C80.5687 18.7198 81.6878 19.7038 82.0928 21.248C82.9442 20.1579 84.5439 18.7197 86.7656 18.7197ZM112.239 33.207H107.979V13.5H112.239V33.207ZM14.3291 17.6299C13.5507 20.4215 14.3997 24.0529 16.8301 26.5449C15.9886 27.9094 15.3359 29.3822 14.8896 30.9219C13.1414 29.1832 12.1127 26.8492 12.0088 24.3857C11.905 21.9222 12.7332 19.5095 14.3291 17.6299ZM99.6289 22.2607C98.5365 22.2609 97.5529 22.9277 96.834 23.6465V28.8926C97.7657 29.7697 98.5371 30.1904 99.6895 30.1904C101.459 30.1952 102.365 28.7053 102.365 26.123H102.373C102.373 23.7533 101.547 22.2609 99.6289 22.2607ZM31.6055 23.1797C31.8024 25.6415 31.0723 28.0886 29.5586 30.04C29.6733 29.2165 29.7134 28.3835 29.6787 27.5527C30.7799 26.3436 31.4567 24.8083 31.6055 23.1797ZM21.5391 22.2666C23.1658 23.675 25.6074 24.2487 27.5674 23.3584C28.0225 24.5405 28.3251 25.7764 28.4668 27.0352C25.6333 29.1687 21.0969 28.5783 18.3389 26.3301C19.2725 24.876 20.3441 23.5148 21.5391 22.2666ZM37.9893 24L32.2295 27.3262C32.9195 25.167 32.9252 22.8472 32.2461 20.6846L37.9893 24ZM29.9258 19.1982C30.9279 21.3792 30.9725 24.1062 29.5029 26.0156C29.3103 24.8882 28.9973 23.7847 28.5703 22.7236C29.0728 22.2961 29.4596 21.7486 29.6963 21.1328C29.9329 20.5172 30.0124 19.8521 29.9258 19.1982ZM129.692 23.0381C129.981 23.0382 130.265 23.1236 130.505 23.2842C130.745 23.4448 130.932 23.6734 131.043 23.9404C131.154 24.2076 131.182 24.5016 131.126 24.7852C131.07 25.0687 130.931 25.3297 130.727 25.5342C130.522 25.7386 130.261 25.8781 129.978 25.9346C129.694 25.9909 129.4 25.962 129.133 25.8516C128.866 25.7409 128.637 25.5528 128.477 25.3125C128.316 25.072 128.229 24.7892 128.229 24.5C128.227 24.3074 128.264 24.1159 128.337 23.9375C128.41 23.7593 128.517 23.597 128.653 23.4609C128.789 23.3249 128.952 23.2172 129.13 23.1445C129.308 23.0719 129.5 23.0359 129.692 23.0381ZM129.438 23.3467C129.207 23.3957 128.996 23.5119 128.83 23.6807C128.665 23.8498 128.552 24.0644 128.508 24.2969C128.464 24.5295 128.49 24.7702 128.582 24.9883C128.674 25.2063 128.829 25.393 129.026 25.5234C129.224 25.6536 129.456 25.7226 129.692 25.7217C129.851 25.7216 130.01 25.6905 130.156 25.6289C130.303 25.5672 130.436 25.476 130.547 25.3623C130.658 25.2486 130.746 25.1138 130.805 24.9658C130.863 24.8178 130.892 24.6592 130.889 24.5C130.885 24.2633 130.81 24.0326 130.676 23.8379C130.541 23.6433 130.352 23.4928 130.132 23.4053C129.912 23.3178 129.67 23.2977 129.438 23.3467ZM16.2617 16.2637C17.5369 15.9333 18.874 15.9244 20.1533 16.2383C19.1398 17.809 19.5932 20.0013 20.7354 21.4209C19.5241 22.6779 18.4324 24.0452 17.4736 25.5039C15.228 23.0063 14.3325 18.9993 16.2617 16.2637ZM129.723 23.668C130.101 23.6681 130.32 23.8323 130.32 24.1592C130.329 24.2593 130.303 24.3596 130.246 24.4424C130.189 24.525 130.105 24.5853 130.008 24.6123L130.354 25.2686H130.02L129.697 24.6562H129.444V25.2686H129.124V23.668H129.723ZM120.678 21.7803C119.346 21.7803 118.201 22.6608 117.882 24.7373H123.396C123.183 22.7414 122.276 21.7805 120.678 21.7803ZM129.444 24.4111H129.704C129.9 24.411 130.008 24.348 130.008 24.1777C130.008 24.0074 129.9 23.9445 129.697 23.9443H129.444V24.4111ZM25.165 19.2852C25.9529 20.197 26.6125 21.2121 27.125 22.3027C25.7642 22.9243 23.838 22.6835 22.3652 21.46C23.24 20.6627 24.1764 19.9358 25.165 19.2852ZM28.1191 17.4678C28.9339 18.571 29.1495 20.4865 28.0771 21.6064C27.5476 20.542 26.8916 19.5447 26.123 18.6377C26.7304 18.1562 27.4024 17.7626 28.1191 17.4678ZM21.2959 16.5859C22.4148 17.0006 23.4434 17.6268 24.3252 18.4307C23.3532 19.0873 22.4324 19.8169 21.5703 20.6123C20.6631 19.3887 20.3832 17.8095 21.2959 16.5859ZM22.2812 15.7373C23.3705 15.0457 25.8739 15.0035 27.4307 16.5771C26.6745 16.8849 25.958 17.2827 25.2969 17.7617C24.4181 16.9154 23.3973 16.2301 22.2812 15.7373ZM67.5908 17.0791H63.2773V13.6328H67.5908V17.0791ZM19.4424 13.2871C17.2515 13.7734 15.261 14.9178 13.7383 16.5664V10L19.4424 13.2871ZM17.5215 15.0176C19.5256 14.1858 21.724 13.9373 23.8633 14.3008C22.8209 14.3261 21.8098 14.6625 20.96 15.2666C20.0556 15.0174 18.3448 14.8356 17.5215 15.0176Z" class="logo-emblem-trimble"/>
</svg>
