<svg width="147.73" height="32" viewBox="12 8 147.73 32" fill="none" xmlns="http://www.w3.org/2000/svg">
<path d="M107.994 32.3378C108.484 32.3378 108.913 32.4051 109.282 32.5399C109.651 32.6747 109.956 32.855 110.197 33.0819C110.446 33.3089 110.633 33.5648 110.761 33.8485C110.888 34.1252 110.959 34.4128 110.974 34.7108C110.981 34.7745 110.96 34.8275 110.91 34.87C110.868 34.9126 110.814 34.9344 110.75 34.9344H110.165C110.101 34.9344 110.045 34.9162 109.995 34.8807C109.953 34.8453 109.921 34.7815 109.899 34.6893C109.779 34.1359 109.551 33.7564 109.218 33.5507C108.891 33.345 108.48 33.2421 107.983 33.2421C107.416 33.2421 106.965 33.405 106.632 33.7313C106.298 34.0505 106.117 34.565 106.089 35.2743C106.068 35.856 106.068 36.4523 106.089 37.0624C106.117 37.7717 106.298 38.2897 106.632 38.6161C106.965 38.9353 107.416 39.0956 107.983 39.0956C108.48 39.0956 108.891 38.9926 109.218 38.787C109.551 38.5813 109.779 38.2015 109.899 37.6483C109.921 37.5561 109.953 37.4914 109.995 37.4559C110.045 37.4207 110.101 37.4032 110.165 37.4032H110.75C110.814 37.4032 110.868 37.4242 110.91 37.4667C110.96 37.5092 110.981 37.563 110.974 37.6268C110.959 37.9247 110.888 38.2152 110.761 38.4989C110.633 38.7755 110.445 39.0278 110.197 39.2548C109.956 39.4817 109.651 39.6629 109.282 39.7977C108.913 39.9325 108.484 39.9999 107.994 39.9999C107.341 39.9999 106.799 39.8788 106.366 39.6376C105.941 39.3963 105.617 39.0596 105.397 38.6268C105.178 38.1941 105.056 37.6906 105.035 37.1161C105.028 36.8253 105.025 36.5129 105.025 36.1796C105.025 35.8461 105.028 35.5266 105.035 35.2216C105.056 34.6469 105.178 34.1426 105.397 33.7098C105.617 33.2772 105.941 32.9403 106.366 32.6991C106.799 32.458 107.342 32.3378 107.994 32.3378ZM116.364 32.3378C116.946 32.3378 117.454 32.4469 117.887 32.6669C118.327 32.8797 118.671 33.2065 118.919 33.6464C119.167 34.079 119.302 34.6218 119.323 35.2743C119.337 35.5865 119.345 35.8887 119.345 36.1796C119.345 36.4632 119.337 36.7611 119.323 37.0731C119.302 37.7328 119.171 38.2827 118.93 38.7225C118.696 39.1553 118.361 39.4784 117.929 39.6913C117.496 39.897 116.974 39.9999 116.364 39.9999C115.761 39.9999 115.243 39.897 114.811 39.6913C114.378 39.4784 114.045 39.1553 113.811 38.7225C113.576 38.2827 113.445 37.7329 113.417 37.0731C113.41 36.7611 113.406 36.4632 113.406 36.1796C113.406 35.8887 113.41 35.5865 113.417 35.2743C113.445 34.6217 113.58 34.0791 113.821 33.6464C114.07 33.2066 114.41 32.8797 114.843 32.6669C115.283 32.4471 115.79 32.3378 116.364 32.3378ZM122.923 32.4442C123.008 32.4442 123.072 32.4652 123.114 32.5077C123.157 32.543 123.181 32.5714 123.188 32.5927L126.722 38.0204V32.6991C126.722 32.6211 126.744 32.561 126.786 32.5184C126.829 32.4688 126.889 32.4442 126.967 32.4442H127.478C127.555 32.4442 127.616 32.4689 127.658 32.5184C127.708 32.561 127.733 32.6211 127.733 32.6991V39.6376C127.733 39.7085 127.708 39.7696 127.658 39.8192C127.616 39.8686 127.559 39.8934 127.488 39.8934H126.978C126.9 39.8934 126.839 39.8723 126.797 39.83C126.761 39.7874 126.736 39.7582 126.722 39.744L123.199 34.37V39.6483C123.199 39.7193 123.175 39.7803 123.125 39.83C123.082 39.8723 123.022 39.8934 122.944 39.8934H122.434C122.356 39.8934 122.295 39.8725 122.252 39.83C122.209 39.7803 122.188 39.7193 122.188 39.6483V32.6991C122.188 32.6213 122.21 32.561 122.252 32.5184C122.295 32.4688 122.356 32.4442 122.434 32.4442H122.923ZM135.586 32.4442C135.664 32.4443 135.724 32.4689 135.767 32.5184C135.816 32.561 135.841 32.6212 135.841 32.6991V33.1464C135.841 33.2172 135.816 33.2774 135.767 33.327C135.724 33.3695 135.664 33.3914 135.586 33.3915H133.553V39.6483C133.553 39.7193 133.528 39.7803 133.479 39.83C133.436 39.8724 133.376 39.8933 133.298 39.8934H132.744C132.673 39.8934 132.613 39.8723 132.563 39.83C132.521 39.7803 132.499 39.7193 132.499 39.6483V33.3915H130.456C130.385 33.3915 130.325 33.3695 130.275 33.327C130.233 33.2774 130.211 33.2172 130.211 33.1464V32.6991C130.211 32.6211 130.233 32.561 130.275 32.5184C130.325 32.4689 130.385 32.4442 130.456 32.4442H135.586ZM142.967 32.4442C143.045 32.4442 143.105 32.4689 143.147 32.5184C143.19 32.561 143.212 32.6211 143.212 32.6991V33.1034C143.212 33.1814 143.19 33.2425 143.147 33.285C143.105 33.3273 143.045 33.3485 142.967 33.3485H139.349V35.6796H142.732C142.81 35.6796 142.871 35.7041 142.914 35.7538C142.956 35.7963 142.978 35.8566 142.978 35.9344V36.328C142.978 36.399 142.957 36.46 142.914 36.5096C142.871 36.5522 142.81 36.5731 142.732 36.5731H139.349V38.9891H143.052C143.13 38.9891 143.191 39.01 143.233 39.0526C143.276 39.0951 143.297 39.1555 143.297 39.2333V39.6483C143.297 39.7193 143.276 39.7803 143.233 39.83C143.191 39.8725 143.13 39.8934 143.052 39.8934H138.571C138.494 39.8934 138.433 39.8724 138.391 39.83C138.348 39.7803 138.327 39.7193 138.327 39.6483V32.6991C138.327 32.6212 138.348 32.561 138.391 32.5184C138.433 32.4689 138.493 32.4443 138.571 32.4442H142.967ZM146.809 32.4442C146.894 32.4443 146.957 32.4652 147 32.5077C147.042 32.543 147.067 32.5714 147.074 32.5927L150.607 38.0204V32.6991C150.607 32.6211 150.629 32.561 150.672 32.5184C150.714 32.4689 150.775 32.4442 150.853 32.4442H151.363C151.441 32.4442 151.501 32.4688 151.544 32.5184C151.594 32.561 151.618 32.6211 151.618 32.6991V39.6376C151.618 39.7085 151.594 39.7696 151.544 39.8192C151.501 39.8687 151.445 39.8934 151.374 39.8934H150.863C150.785 39.8934 150.724 39.8725 150.682 39.83C150.646 39.7874 150.622 39.7582 150.607 39.744L147.085 34.37V39.6483C147.085 39.7193 147.06 39.7803 147.011 39.83C146.968 39.8725 146.907 39.8934 146.829 39.8934H146.318C146.241 39.8934 146.18 39.8724 146.138 39.83C146.095 39.7803 146.074 39.7193 146.074 39.6483V32.6991C146.074 32.6212 146.095 32.561 146.138 32.5184C146.18 32.4688 146.24 32.4443 146.318 32.4442H146.809ZM159.471 32.4442C159.549 32.4442 159.609 32.4689 159.651 32.5184C159.701 32.561 159.727 32.6211 159.727 32.6991V33.1464C159.727 33.2172 159.701 33.2774 159.651 33.327C159.609 33.3695 159.549 33.3915 159.471 33.3915H157.438V39.6483C157.438 39.7193 157.413 39.7803 157.363 39.83C157.321 39.8723 157.26 39.8934 157.183 39.8934H156.629C156.558 39.8933 156.498 39.8724 156.448 39.83C156.406 39.7803 156.385 39.7193 156.385 39.6483V33.3915H154.341C154.27 33.3914 154.21 33.3695 154.16 33.327C154.118 33.2774 154.097 33.2172 154.097 33.1464V32.6991C154.097 32.6212 154.118 32.561 154.16 32.5184C154.21 32.4689 154.27 32.4443 154.341 32.4442H159.471ZM116.364 33.2421C116.017 33.2421 115.704 33.3131 115.428 33.455C115.151 33.5968 114.928 33.8201 114.758 34.1249C114.595 34.43 114.502 34.8277 114.48 35.3173C114.473 35.6294 114.47 35.9134 114.47 36.1688C114.47 36.4171 114.473 36.7012 114.48 37.0204C114.509 37.7509 114.697 38.279 115.045 38.6053C115.393 38.9317 115.832 39.0955 116.364 39.0956C116.911 39.0956 117.354 38.9317 117.694 38.6053C118.042 38.279 118.23 37.751 118.259 37.0204C118.273 36.7012 118.28 36.4171 118.28 36.1688C118.28 35.9134 118.273 35.6294 118.259 35.3173C118.245 34.8277 118.153 34.43 117.982 34.1249C117.819 33.8199 117.599 33.5968 117.322 33.455C117.046 33.3131 116.726 33.2421 116.364 33.2421ZM20.7646 8.03406C20.9197 7.9895 21.0844 7.98827 21.2402 8.03015L29.9678 10.3768C30.3549 10.4811 30.624 10.8323 30.624 11.2333V22.0067C30.624 22.3777 30.3928 22.7099 30.0449 22.8387L21.6201 25.9589C21.4214 26.0325 21.2027 26.0325 21.0039 25.9589L12.5791 22.8387C12.2312 22.7099 12 22.3777 12 22.0067V11.2206C12.0001 10.8253 12.2617 10.4773 12.6416 10.368L13.7246 10.0575L13.7324 10.037L13.7588 10.0477L20.7646 8.03406ZM57.7236 9.03015C57.8796 9.03023 58.0072 9.08031 58.1064 9.17957C58.2057 9.27883 58.2558 9.40643 58.2559 9.56238V18.2255C58.2559 19.1478 58.4752 19.8431 58.915 20.3114C59.3691 20.7655 60.0008 20.9921 60.8096 20.9921C61.6041 20.9921 62.2213 20.7654 62.6611 20.3114C63.1152 19.8431 63.3428 19.1478 63.3428 18.2255V9.56238C63.3428 9.40647 63.392 9.27882 63.4912 9.17957C63.6047 9.08024 63.7331 9.03015 63.875 9.03015H66.6416C66.7834 9.03017 66.9037 9.08038 67.0029 9.17957C67.1164 9.27884 67.1738 9.40641 67.1738 9.56238V18.2469C67.1738 19.5949 66.9107 20.709 66.3857 21.5887C65.8608 22.454 65.1233 23.0996 64.1729 23.5253C63.2221 23.9368 62.1008 24.1425 60.8096 24.1425C59.5325 24.1425 58.4112 23.9368 57.4463 23.5253C56.4959 23.0996 55.7584 22.454 55.2334 21.5887C54.7084 20.709 54.4453 19.5949 54.4453 18.2469V9.56238C54.4454 9.40641 54.4955 9.27884 54.5947 9.17957C54.694 9.08032 54.8215 9.03016 54.9775 9.03015H57.7236ZM46.5791 9.03015C47.7992 9.0302 48.7997 9.20038 49.5801 9.54089C50.3603 9.88139 50.9348 10.3713 51.3037 11.0096C51.6868 11.634 51.8789 12.3794 51.8789 13.245C51.8789 13.7558 51.7787 14.21 51.5801 14.6073C51.3956 14.9903 51.1616 15.31 50.8779 15.5653C50.6086 15.8204 50.3533 16.0045 50.1123 16.118C50.6514 16.3735 51.1267 16.7922 51.5381 17.3739C51.9638 17.9557 52.1768 18.6374 52.1768 19.4178C52.1767 20.3541 51.9636 21.1627 51.5381 21.8436C51.1266 22.5105 50.5158 23.0284 49.707 23.3973C48.9125 23.752 47.9338 23.9295 46.7705 23.9296H40.0869C39.931 23.9296 39.8034 23.8802 39.7041 23.7811C39.6048 23.6818 39.5547 23.5534 39.5547 23.3973V9.56238C39.5547 9.40641 39.6048 9.27884 39.7041 9.17957C39.8034 9.08036 39.9309 9.03015 40.0869 9.03015H46.5791ZM73.4121 9.03015C73.5682 9.03015 73.6966 9.08024 73.7959 9.17957C73.895 9.27881 73.9443 9.40653 73.9443 9.56238V23.3973C73.9443 23.5534 73.8952 23.6818 73.7959 23.7811C73.6966 23.8805 73.5682 23.9296 73.4121 23.9296H70.5605C70.4045 23.9296 70.2761 23.8805 70.1768 23.7811C70.0774 23.6818 70.0283 23.5534 70.0283 23.3973V9.56238C70.0284 9.40651 70.0776 9.27881 70.1768 9.17957C70.2761 9.08024 70.4045 9.03015 70.5605 9.03015H73.4121ZM80.3027 9.03015C80.4445 9.03018 80.5648 9.08038 80.6641 9.17957C80.7775 9.27884 80.8349 9.40641 80.835 9.56238V20.7157H87.2627C87.4186 20.7157 87.5462 20.7724 87.6455 20.8856C87.759 20.9849 87.8164 21.1133 87.8164 21.2694V23.3973C87.8164 23.5534 87.759 23.6818 87.6455 23.7811C87.5462 23.8802 87.4186 23.9296 87.2627 23.9296H77.4932C77.3373 23.9296 77.2096 23.8802 77.1104 23.7811C77.011 23.6818 76.9609 23.5534 76.9609 23.3973V9.56238C76.961 9.40641 77.0111 9.27884 77.1104 9.17957C77.2097 9.08036 77.3372 9.03015 77.4932 9.03015H80.3027ZM95.7588 9.03015C97.1494 9.03015 98.3344 9.25773 99.3135 9.71179C100.292 10.1516 101.044 10.8043 101.569 11.6698C102.094 12.5212 102.378 13.5788 102.421 14.8417C102.435 15.4658 102.442 16.0122 102.442 16.4803C102.442 16.9485 102.435 17.4876 102.421 18.0975C102.364 19.4172 102.08 20.5103 101.569 21.3759C101.073 22.2411 100.342 22.8867 99.3779 23.3124C98.4272 23.7239 97.2558 23.9296 95.8652 23.9296H90.2246C90.0688 23.9295 89.941 23.8803 89.8418 23.7811C89.7425 23.6818 89.6934 23.5534 89.6934 23.3973V9.56238C89.6934 9.40646 89.7426 9.27882 89.8418 9.17957C89.941 9.08033 90.0687 9.03025 90.2246 9.03015H95.7588ZM112.354 9.03015C112.596 9.03022 112.78 9.0949 112.907 9.22253C113.049 9.33604 113.142 9.47077 113.185 9.62683L118.165 23.2909C118.193 23.3475 118.207 23.4115 118.207 23.4823C118.207 23.5957 118.158 23.7024 118.059 23.8016C117.973 23.8867 117.867 23.9295 117.739 23.9296H115.121C114.908 23.9296 114.745 23.8803 114.632 23.7811C114.533 23.6676 114.469 23.5674 114.44 23.4823L113.61 21.3114H107.927L107.118 23.4823C107.09 23.5674 107.026 23.6676 106.927 23.7811C106.827 23.8804 106.657 23.9295 106.416 23.9296H103.798C103.684 23.9296 103.578 23.8868 103.479 23.8016C103.393 23.7024 103.351 23.5957 103.351 23.4823C103.351 23.4115 103.358 23.3475 103.372 23.2909L108.374 9.62683C108.417 9.47092 108.501 9.33597 108.629 9.22253C108.771 9.09483 108.963 9.03015 109.204 9.03015H112.354ZM126.94 9.03015C128.161 9.03015 129.162 9.20034 129.942 9.54089C130.723 9.8814 131.297 10.3713 131.666 11.0096C132.049 11.634 132.241 12.3794 132.241 13.245C132.241 13.7558 132.141 14.21 131.942 14.6073C131.758 14.9903 131.524 15.31 131.24 15.5653C130.971 15.8204 130.716 16.0045 130.475 16.118C131.014 16.3735 131.489 16.7922 131.9 17.3739C132.326 17.9557 132.539 18.6374 132.539 19.4178C132.539 20.3541 132.326 21.1627 131.9 21.8436C131.489 22.5105 130.878 23.0284 130.069 23.3973C129.275 23.752 128.296 23.9295 127.133 23.9296H120.449C120.293 23.9296 120.166 23.8802 120.066 23.7811C119.967 23.6818 119.917 23.5534 119.917 23.3973V9.56238C119.917 9.40641 119.967 9.27884 120.066 9.17957C120.166 9.08037 120.293 9.03015 120.449 9.03015H126.94ZM138.277 9.03015C138.419 9.03021 138.539 9.08037 138.639 9.17957C138.752 9.27884 138.81 9.40641 138.81 9.56238V20.7157H145.237C145.393 20.7157 145.521 20.7724 145.62 20.8856C145.734 20.9849 145.791 21.1133 145.791 21.2694V23.3973C145.791 23.5534 145.734 23.6818 145.62 23.7811C145.521 23.8802 145.393 23.9295 145.237 23.9296H135.468C135.312 23.9296 135.183 23.8805 135.084 23.7811C134.985 23.6818 134.936 23.5534 134.936 23.3973V9.56238C134.936 9.40653 134.985 9.2788 135.084 9.17957C135.183 9.08024 135.312 9.03015 135.468 9.03015H138.277ZM158.14 9.03015C158.296 9.03019 158.423 9.0803 158.522 9.17957C158.622 9.27884 158.672 9.40641 158.672 9.56238V11.5634C158.672 11.7194 158.622 11.8469 158.522 11.9462C158.423 12.0455 158.296 12.0955 158.14 12.0956H151.35V14.9686H157.671C157.827 14.9686 157.955 15.026 158.055 15.1395C158.154 15.2388 158.203 15.3664 158.203 15.5223V17.3739C158.203 17.5158 158.154 17.6442 158.055 17.7577C157.955 17.857 157.827 17.9061 157.671 17.9061H151.35V20.8651H158.31C158.466 20.8651 158.594 20.9142 158.693 21.0135C158.793 21.1129 158.842 21.2413 158.842 21.3973V23.3973C158.842 23.5534 158.793 23.6818 158.693 23.7811C158.594 23.8805 158.466 23.9296 158.31 23.9296H148.199C148.043 23.9295 147.916 23.8803 147.816 23.7811C147.717 23.6818 147.667 23.5534 147.667 23.3973V9.56238C147.667 9.40643 147.717 9.27883 147.816 9.17957C147.916 9.08031 148.043 9.03022 148.199 9.03015H158.14ZM14.2168 21.0809L20.292 23.3309V14.9677L14.2168 12.6044V21.0809ZM22.5098 14.9442V23.2655L28.4072 21.0809V12.9784L22.5098 14.9442ZM43.3643 21.163H46.3447C46.9546 21.1629 47.4154 20.9852 47.7275 20.6307C48.0396 20.2761 48.1962 19.8717 48.1963 19.4178C48.1963 18.9214 48.0332 18.5025 47.707 18.162C47.3949 17.8215 46.9406 17.6513 46.3447 17.6512H43.3643V21.163ZM123.727 21.163H126.707C127.317 21.1629 127.778 20.9853 128.09 20.6307C128.402 20.2761 128.558 19.8717 128.559 19.4178C128.559 18.9214 128.395 18.5025 128.069 18.162C127.757 17.8215 127.303 17.6513 126.707 17.6512H123.727V21.163ZM93.5029 20.8651H95.7588C96.3689 20.8651 96.8732 20.7722 97.2705 20.5878C97.6819 20.3891 97.9869 20.0841 98.1855 19.6727C98.3983 19.2613 98.5121 18.7223 98.5264 18.0555C98.5547 17.644 98.5684 17.2745 98.5684 16.9481C98.5825 16.6219 98.5825 16.2958 98.5684 15.9696C98.5684 15.6432 98.5547 15.281 98.5264 14.8837C98.498 13.9188 98.2422 13.2161 97.7598 12.7762C97.2915 12.3223 96.5887 12.0956 95.6523 12.0956H93.5029V20.8651ZM108.8 18.2469H112.759L110.758 12.6278L108.8 18.2469ZM43.3643 14.9481H46.1533C46.7348 14.9481 47.1674 14.7987 47.4512 14.5009C47.7491 14.2029 47.8984 13.8196 47.8984 13.3514C47.8984 12.8974 47.7492 12.5278 47.4512 12.244C47.1674 11.9463 46.7347 11.7978 46.1533 11.7977H43.3643V14.9481ZM123.727 14.9481H126.516C127.097 14.948 127.53 14.7987 127.813 14.5009C128.111 14.2029 128.261 13.8196 128.261 13.3514C128.261 12.8974 128.111 12.5278 127.813 12.244C127.53 11.9463 127.097 11.7978 126.516 11.7977H123.727V14.9481ZM17.1699 11.3739L21.3408 12.996L25.7305 11.5331L21.0215 10.2675L17.1699 11.3739Z" fill="white"/>
</svg>
