<svg width="32.61" height="35.15" viewBox="12 6.43 32.61 35.15" fill="none" xmlns="http://www.w3.org/2000/svg">
<path d="M14.1753 33.2828V41.5746L21.3844 37.4129C18.6182 36.8154 16.1015 35.3742 14.1753 33.2828Z" fill="#0063A3"/>
<path d="M21.3317 10.5518L14.1753 6.42529V14.6678C16.1823 12.4851 18.7658 11.1107 21.3317 10.5518Z" fill="#0063A3"/>
<path d="M44.6145 24.0035C44.2736 23.8067 37.8272 20.0843 37.4054 19.8418C38.2525 22.5342 38.256 25.4552 37.3843 28.1792L44.6145 24.0035Z" fill="#0063A3"/>
<path d="M18.9238 12.7274C19.9572 12.499 22.1049 12.7169 23.2402 13.0368C24.147 12.3162 25.5214 11.8944 26.8852 11.8276C23.7463 11.2617 20.843 11.9225 18.9238 12.7274Z" fill="#0063A3"/>
<path d="M32.6602 27.8102C32.4985 26.3093 32.1224 24.7346 31.5354 23.1986C29.0644 24.3128 26.01 23.5958 23.9678 21.8278C22.4774 23.3497 21.0363 25.2443 19.9502 26.9279C23.4124 29.7504 29.1066 30.4921 32.6637 27.8102H32.6602Z" fill="#0063A3"/>
<path d="M18.0558 27.195C15.0049 24.0702 13.9399 19.5078 14.917 16.007C10.7764 20.8927 11.0681 28.1546 15.6376 32.6924C16.1367 30.8014 17.0611 28.8716 18.0558 27.1985V27.195Z" fill="#0063A3"/>
<path d="M30.9625 21.8736C30.3158 20.5203 29.4933 19.2303 28.4915 18.0809C27.3808 18.8191 26.1892 19.7294 25.0117 20.8156C26.8535 22.3516 29.2718 22.6504 30.9625 21.8736Z" fill="#0063A3"/>
<path d="M28.6849 16.1687C29.4758 15.5922 30.5759 14.9771 31.3633 14.6854C29.409 12.7065 26.2666 12.7592 24.9028 13.6204C26.2842 14.232 27.5461 15.0756 28.6884 16.1722L28.6849 16.1687Z" fill="#0063A3"/>
<path d="M19.1667 28.2003C17.6483 30.826 17.0929 32.7522 16.8926 33.7785C21.3987 37.1845 27.6694 37.0861 32.0701 33.5009C32.527 32.3972 32.759 31.0263 32.759 29.5184C28.5727 32.0105 22.7801 31.0509 19.1703 28.2003H19.1667Z" fill="#0063A3"/>
<path d="M32.1756 20.9981C33.5183 19.5851 33.2512 17.1844 32.2283 15.803C31.5991 16.0174 30.2881 16.7801 29.7222 17.2722C30.6431 18.3548 31.4972 19.6307 32.1756 21.0016V20.9981Z" fill="#0063A3"/>
<path d="M34.4986 17.9718C34.706 19.7855 34.017 21.3567 32.7974 22.3971C33.3316 23.7328 33.7253 25.1282 33.9608 26.5307C35.8062 24.1335 35.7499 20.7135 34.4986 17.9718Z" fill="#0063A3"/>
<path d="M24.003 19.7503C25.1524 18.6888 26.3228 17.7749 27.4441 17.0121C26.3053 15.9823 25.0118 15.202 23.6409 14.6958C22.5161 16.2318 22.8676 18.2142 24.003 19.7503Z" fill="#0063A3"/>
<path d="M34.1858 28.4606C34.2491 29.4905 34.1542 30.6574 34.0347 31.5818C36.1436 28.8929 36.8572 25.5643 36.6076 22.9738C36.3545 25.1565 35.5566 26.9843 34.1858 28.4641V28.4606Z" fill="#0063A3"/>
<path d="M22.228 14.2601C20.6709 13.8805 18.8572 13.863 17.3422 14.2918C14.9204 17.7259 16.0452 22.7558 18.8642 25.9052C19.9363 24.2742 21.4864 22.2426 22.9591 20.7628C21.525 18.9842 20.9556 16.2285 22.228 14.2566V14.2601Z" fill="#0063A3"/>
</svg>
