<svg width="175.09" height="31.47" viewBox="12 8.26 175.09 31.47" fill="none" xmlns="http://www.w3.org/2000/svg">
<g>
<path d="M28.6275 28.2367C29.9804 27.0099 31.3206 25.7928 32.662 24.5771C33.7029 23.6337 34.7471 22.694 35.7841 21.7463C35.8814 21.6575 35.937 21.5231 36.0121 21.4099C35.8728 21.3785 35.7332 21.3188 35.5943 21.3201C34.6026 21.3294 33.6112 21.3585 32.6196 21.3672C31.1544 21.3801 29.6891 21.3823 28.2238 21.3854C28.1018 21.3857 27.9798 21.358 27.81 21.3376C27.8907 21.1738 27.9372 21.0484 28.0085 20.9393C29.3463 18.8919 30.6871 16.8467 32.027 14.8008C32.2512 14.4584 32.474 14.115 32.6974 13.772C32.6818 13.7569 32.6661 13.7417 32.6504 13.7266C28.9056 17.0691 25.1608 20.4116 21.416 23.7541C21.4211 23.7736 21.4262 23.7931 21.4313 23.8127C23.7165 23.8127 26.0017 23.8127 28.2869 23.8127C28.2959 23.8337 28.305 23.8547 28.314 23.8757C28.2136 23.9882 28.1187 24.1061 28.0122 24.2125C24.6552 27.5605 21.2996 30.9099 17.9382 34.2536C16.4307 35.7533 14.9129 37.2427 13.3961 38.7329C13.064 39.0593 12.7209 39.3748 12.3711 39.6819C12.3115 39.7342 12.1868 39.7449 12.1017 39.7277C11.9761 39.7024 11.9893 39.5999 12.0233 39.4943C12.2687 38.7334 12.5095 37.9709 12.7524 37.2092C13.8137 33.8812 14.8807 30.555 15.9355 27.2249C17.4684 22.3851 18.9972 17.5439 20.5172 12.7001C20.9268 11.3948 21.2989 10.0777 21.6874 8.76585C21.8114 8.34747 21.8964 8.27405 22.3381 8.27163C22.6457 8.26994 22.9535 8.30263 23.2611 8.30173C26.4696 8.29227 29.6784 8.24117 32.8863 8.27786C35.9862 8.31332 38.7168 9.37675 40.9574 11.5446C42.722 13.2521 43.7836 15.3583 44.2356 17.7711C44.4354 18.8377 44.5154 19.9123 44.4031 20.9937C44.1736 23.2027 43.3908 25.1919 41.9896 26.923C40.2271 29.1003 37.9566 30.4462 35.2206 31.0194C34.305 31.2112 33.3768 31.246 32.446 31.2424C30.2971 31.234 28.1481 31.2219 25.9992 31.2112C25.9691 31.2111 25.9358 31.2191 25.9096 31.209C25.8228 31.1758 25.7386 31.1361 25.6534 31.0989C25.6912 31.0245 25.7121 30.9322 25.7693 30.8785C26.3664 30.3183 26.969 29.7641 27.5706 29.2087C27.9183 28.8876 28.267 28.5675 28.6275 28.2367Z" fill="#0063A3"/>
<path d="M173.499 35.5921L174.274 33.0643C174.604 33.1533 175.111 33.2401 175.882 33.2401C177.138 33.2401 178.064 32.7777 178.549 31.5451L178.802 30.468L173.707 17.328H177.052L180.458 27.1432H180.503L183.576 17.328H187.086L182.056 30.468C180.438 36.5079 177.8 35.9947 175.576 35.9947C174.695 35.9947 173.965 35.7233 173.501 35.5921H173.499Z" fill="#171C1E"/>
<path d="M146.458 30.6612V11.9945H153.123C157.24 11.9945 160.458 13.4072 160.458 17.72C160.458 22.0328 156.932 23.571 153.019 23.571H149.649V30.6585H146.458V30.6612ZM149.649 20.8231H153.175C156.005 20.8231 157.292 19.9659 157.292 17.8215C157.292 15.6771 156.005 14.8706 153.147 14.8706H149.646V20.8231H149.649Z" fill="#171C1E"/>
<path fill-rule="evenodd" clip-rule="evenodd" d="M160.845 27.4364C160.845 24.5418 163.311 22.6166 169.553 21.9016V21.4973C169.553 20.1585 168.849 19.5855 167.362 19.5855C165.501 19.5855 163.991 20.4905 162.858 21.3983L161.348 19.4596C163.123 17.8854 165.419 17.0265 167.791 17.0496C171.365 17.0496 172.611 18.7607 172.611 21.8695V27.3882C172.611 28.9948 172.712 29.9802 172.988 30.6604H169.855C169.652 30.1121 169.549 29.5315 169.553 28.9467C168.192 30.331 166.607 30.8612 164.62 30.8612C162.454 30.8612 160.845 29.659 160.845 27.4364ZM169.553 26.933V23.9876C165.852 24.491 163.889 25.396 163.889 26.8554C163.889 27.9131 164.62 28.462 165.763 28.462C166.465 28.4685 167.16 28.3368 167.81 28.0745C168.46 27.8122 169.053 27.4242 169.553 26.933Z" fill="#171C1E"/>
<path d="M58.239 30.7739V14.9418H52.4541V11.9994H67.1956V14.9418H61.4108V30.7739H58.239Z" fill="#171C1E"/>
<path d="M66.4607 30.7743V17.3015H69.5813V19.5096H69.6325C70.4693 18.1653 71.9163 17.0477 74.478 17.0477H74.6805L74.5779 19.9145C74.4267 19.8902 73.9192 19.8632 73.7411 19.8632C71.7354 19.8632 70.4693 20.8026 69.5785 22.2495V30.7743H66.458H66.4607Z" fill="#171C1E"/>
<path d="M77.0166 14.9665V12.2509H80.2125V14.9665H77.0166ZM77.0409 30.7743V17.3015H80.1885V30.7743H77.0409Z" fill="#171C1E"/>
<path d="M82.7998 30.7743V17.3015H85.9205V19.1533C86.9598 18.0114 88.4825 17.0477 90.5391 17.0477C92.7985 17.0477 93.6871 17.9359 94.2185 19.2559C95.2851 18.0897 96.8831 17.0477 98.9371 17.0477C101.677 17.0477 102.87 18.6971 102.87 21.1077V30.7743H99.7498V21.8932C99.7498 20.3977 99.3178 19.7121 97.8465 19.7121C96.5778 19.7121 95.5631 20.422 94.3965 21.464V30.777H91.2765V21.8959C91.2765 20.4004 90.8445 19.7147 89.3731 19.7147C88.1285 19.7147 87.0891 20.4247 85.9231 21.4667V30.7797H82.8025L82.7998 30.7743Z" fill="#171C1E"/>
<path d="M108.353 29.276V30.7742H105.233V11.9969H108.353V19.0748C109.242 18.0086 110.637 17.0449 112.643 17.0449C115.712 17.0449 117.971 19.3529 117.971 24.0229C117.971 28.6929 115.663 30.9739 112.211 30.9739C110.764 30.9739 109.344 30.3908 108.353 29.2732V29.276ZM114.849 24.0499C114.849 21.2074 113.631 19.7119 111.625 19.7119C110.332 19.7119 109.088 20.5244 108.351 21.4126V26.8168C109.188 27.9074 110.405 28.4904 111.523 28.4904C113.882 28.4904 114.846 27.0436 114.846 24.0499H114.849Z" fill="#171C1E"/>
<path d="M119.847 30.7742V11.9969H122.995V30.7742H119.847Z" fill="#171C1E"/>
<path d="M125.354 24.05C125.354 18.9238 128.982 17.0477 131.774 17.0477C134.794 17.0477 137.686 18.8483 137.686 24.3307V25.0677H128.475C128.602 27.5026 130.1 28.5689 132.079 28.5689C133.83 28.5689 134.846 27.9858 135.858 26.9951L137.507 28.6201C136.112 30.1669 134.26 31.055 131.849 31.055C128.475 31.055 125.354 29.0008 125.354 24.0527V24.05ZM134.818 22.73C134.64 20.6757 133.626 19.5825 131.75 19.5825C130.227 19.5825 128.831 20.4463 128.526 22.73H134.818Z" fill="#171C1E"/>
</g></svg>
