<svg width="238.64" height="36" viewBox="12 6 238.64 36" fill="none" xmlns="http://www.w3.org/2000/svg">
<path d="M14.1753 32.8577V41.1494L21.3844 36.9877C18.6182 36.3902 16.1015 34.9491 14.1753 32.8577Z" fill="#019AEB"/>
<path d="M21.3317 10.1267L14.1753 6.00012V14.2427C16.1823 12.0599 18.7658 10.6855 21.3317 10.1267Z" fill="#019AEB"/>
<path d="M44.6145 23.5783C44.2736 23.3815 37.8272 19.6592 37.4054 19.4166C38.2525 22.1091 38.256 25.03 37.3843 27.7541L44.6145 23.5783Z" fill="#019AEB"/>
<path d="M18.9238 12.3023C19.9572 12.0738 22.1049 12.2917 23.2402 12.6116C24.147 11.891 25.5214 11.4692 26.8852 11.4025C23.7463 10.8365 20.843 11.4974 18.9238 12.3023Z" fill="#019AEB"/>
<path d="M32.6602 27.385C32.4985 25.8841 32.1224 24.3094 31.5354 22.7734C29.0644 23.8876 26.01 23.1706 23.9678 21.4026C22.4774 22.9246 21.0363 24.8191 19.9502 26.5028C23.4124 29.3253 29.1066 30.0669 32.6637 27.385H32.6602Z" fill="#019AEB"/>
<path d="M18.0558 26.7699C15.0049 23.6451 13.9399 19.0827 14.917 15.5818C10.7764 20.4676 11.0681 27.7294 15.6376 32.2672C16.1367 30.3762 17.0611 28.4465 18.0558 26.7734V26.7699Z" fill="#019AEB"/>
<path d="M30.9625 21.4484C30.3158 20.0951 29.4933 18.8051 28.4915 17.6558C27.3808 18.3939 26.1892 19.3043 25.0117 20.3904C26.8535 21.9264 29.2718 22.2252 30.9625 21.4484Z" fill="#019AEB"/>
<path d="M28.6849 15.7435C29.4758 15.1671 30.5759 14.552 31.3633 14.2602C29.409 12.2813 26.2666 12.334 24.9028 13.1952C26.2842 13.8068 27.5461 14.6504 28.6884 15.747L28.6849 15.7435Z" fill="#019AEB"/>
<path d="M19.1667 27.7751C17.6483 30.4008 17.0929 32.327 16.8926 33.3534C21.3987 36.7593 27.6694 36.6609 32.0701 33.0757C32.527 31.972 32.759 30.6012 32.759 29.0932C28.5727 31.5853 22.7801 30.6258 19.1703 27.7751H19.1667Z" fill="#019AEB"/>
<path d="M32.1756 20.5729C33.5183 19.1599 33.2512 16.7592 32.2283 15.3778C31.5991 15.5922 30.2881 16.355 29.7222 16.8471C30.6431 17.9297 31.4972 19.2056 32.1756 20.5764V20.5729Z" fill="#019AEB"/>
<path d="M34.4986 17.5466C34.706 19.3603 34.017 20.9315 32.7974 21.9719C33.3316 23.3076 33.7253 24.7031 33.9608 26.1055C35.8062 23.7083 35.7499 20.2883 34.4986 17.5466Z" fill="#019AEB"/>
<path d="M24.003 19.3251C25.1524 18.2636 26.3228 17.3497 27.4441 16.587C26.3053 15.5571 25.0118 14.7768 23.6409 14.2706C22.5161 15.8067 22.8676 17.7891 24.003 19.3251Z" fill="#019AEB"/>
<path d="M34.1858 28.0354C34.2491 29.0653 34.1542 30.2322 34.0347 31.1567C36.1436 28.4677 36.8572 25.1391 36.6076 22.5486C36.3545 24.7314 35.5566 26.5591 34.1858 28.0389V28.0354Z" fill="#019AEB"/>
<path d="M22.228 13.835C20.6709 13.4554 18.8572 13.4378 17.3422 13.8666C14.9204 17.3007 16.0452 22.3306 18.8642 25.48C19.9363 23.849 21.4864 21.8174 22.9591 20.3376C21.525 18.5591 20.9556 15.8034 22.228 13.8315V13.835Z" fill="#019AEB"/>
<path d="M60.4285 35.3286V14.7135H52.896V10.8822H72.0911V14.7135H64.5586V35.3286H60.4285Z" fill="#F1F1F6"/>
<path d="M71.1349 35.3286V17.7855H75.1981V20.6607H75.2649C76.3546 18.9103 78.2386 17.4551 81.5742 17.4551H81.8379L81.7043 21.1879C81.5075 21.1563 80.8466 21.1212 80.6147 21.1212C78.0031 21.1212 76.3546 22.3444 75.1946 24.2284V35.3286H71.1313H71.1349Z" fill="#F1F1F6"/>
<path d="M84.8784 14.745V11.209H89.0401V14.745H84.8784ZM84.9101 35.3285V17.7854H89.0085V35.3285H84.9101Z" fill="#F1F1F6"/>
<path d="M92.4111 35.3285V17.7855H96.4744V20.1967C97.8277 18.7099 99.8101 17.4551 102.488 17.4551C105.43 17.4551 106.587 18.6115 107.279 20.3303C108.668 18.8118 110.749 17.4551 113.423 17.4551C116.991 17.4551 118.545 19.6027 118.545 22.7415V35.3285H114.481V23.7644C114.481 21.8171 113.919 20.9243 112.003 20.9243C110.351 20.9243 109.03 21.8488 107.511 23.2055V35.3321H103.448V23.7679C103.448 21.8206 102.886 20.9278 100.97 20.9278C99.3496 20.9278 97.9964 21.8523 96.4779 23.209V35.3356H92.4147L92.4111 35.3285Z" fill="#F1F1F6"/>
<path d="M125.683 33.3779V35.3287H121.62V10.8788H125.683V20.095C126.84 18.7066 128.657 17.4517 131.269 17.4517C135.265 17.4517 138.207 20.457 138.207 26.5379C138.207 32.6187 135.202 35.5888 130.706 35.5888C128.822 35.5888 126.973 34.8296 125.683 33.3744V33.3779ZM134.14 26.573C134.14 22.8718 132.555 20.9245 129.943 20.9245C128.26 20.9245 126.639 21.9825 125.68 23.1389V30.1758C126.77 31.5959 128.355 32.3551 129.81 32.3551C132.882 32.3551 134.137 30.4711 134.137 26.573H134.14Z" fill="#F1F1F6"/>
<path d="M140.65 35.3287V10.8788H144.748V35.3287H140.65Z" fill="#F1F1F6"/>
<path d="M147.82 26.5728C147.82 19.898 152.544 17.4551 156.179 17.4551C160.112 17.4551 163.877 19.7995 163.877 26.9384V27.898H151.884C152.049 31.0684 154 32.4569 156.576 32.4569C158.857 32.4569 160.179 31.6976 161.497 30.4076L163.645 32.5236C161.827 34.5377 159.416 35.6941 156.277 35.6941C151.884 35.6941 147.82 33.0192 147.82 26.5763V26.5728ZM160.144 24.854C159.912 22.1792 158.59 20.7556 156.147 20.7556C154.165 20.7556 152.348 21.8804 151.95 24.854H160.144Z" fill="#F1F1F6"/>
<path d="M172.446 27.0686V10.8788H174.791V26.6714C174.791 30.6679 176.805 33.6416 181.367 33.6416C185.93 33.6416 187.909 30.8015 187.909 26.7382V10.8788H190.253V27.0018C190.253 31.8595 187.279 35.7575 181.332 35.7575C175.385 35.7575 172.443 31.9263 172.443 27.0686H172.446Z" fill="#F1F1F6"/>
<path d="M193.164 17.9193H195.445V20.6609C197.128 19.0089 199.343 17.5889 202.084 17.5889C205.522 17.5889 207.273 19.5045 207.273 22.7418V35.3288H204.991V23.1706C204.991 20.7242 203.902 19.5361 201.522 19.5361C199.276 19.5361 197.392 20.6926 195.445 22.5766V35.3288H193.164V17.9158V17.9193Z" fill="#F1F1F6"/>
<path d="M210.51 11.441H212.921V13.8874H210.51V11.441ZM210.577 17.9191H212.858V35.3321H210.577V17.9191Z" fill="#F1F1F6"/>
<path d="M219.497 31.2651V19.8662H216.457V17.9154H219.497V11.6729H221.779V17.9154H226.306V19.8662H221.779V30.8012C221.779 32.65 222.373 33.6412 224.52 33.6412C225.181 33.6412 225.842 33.5745 226.338 33.4093V35.3565C225.81 35.455 224.886 35.5534 224.091 35.5534C220.756 35.5534 219.497 34.2634 219.497 31.2581V31.2651Z" fill="#F1F1F6"/>
<path d="M228.218 41.6376L228.745 39.7536C229.241 39.8872 230 40.0172 231.156 40.0172C233.04 40.0172 233.996 39.1912 234.724 37.3424L235.452 35.4267L228.713 17.9153H231.16L236.58 32.6183H236.647L242.031 17.9153H244.411L236.91 37.3424C235.754 40.4496 234.432 41.9997 231.097 41.9997C229.775 41.9997 228.917 41.8345 228.221 41.6376H228.218Z" fill="#F1F1F6"/>
<path d="M245.107 32.4779C245.107 30.9348 246.338 29.6906 247.881 29.6906C249.424 29.6906 250.643 30.9208 250.643 32.4779C250.643 34.035 249.424 35.2652 247.881 35.2652C246.338 35.2652 245.107 34.035 245.107 32.4779ZM250.274 32.4779C250.274 31.1387 249.209 30.0491 247.884 30.0491C246.559 30.0491 245.491 31.1387 245.491 32.4779C245.491 33.8171 246.542 34.9067 247.884 34.9067C249.227 34.9067 250.274 33.8312 250.274 32.4779ZM246.854 30.8891H247.93C248.622 30.8891 249.02 31.1985 249.02 31.7503C249.02 32.2529 248.756 32.5025 248.348 32.5869L249.1 33.9753H248.647L247.916 32.6466H247.283V33.9753H246.851V30.8891H246.854ZM247.909 32.2881C248.338 32.2881 248.601 32.158 248.601 31.7608C248.601 31.4023 248.338 31.2723 247.895 31.2723H247.287V32.2881H247.909Z" fill="#F1F1F6"/>
</svg>
