<svg width="194" height="48" viewBox="0 0 194 48" fill="none" xmlns="http://www.w3.org/2000/svg">
<g clip-path="url(#clip0_2337_63109)">
<path d="M18 8L12 11.5532V34.6718L20.997 40L27 36.4499L18 31.1217V8Z" fill="white"/>
<path d="M30 24.0154L36 20.4653L30 16.9121V24.0154Z" fill="white"/>
<path d="M27 12.4699V25.7935L36 31.1217L29.997 34.6718L21 29.3436V16.02L27 12.4699Z" fill="white"/>
<path d="M111.48 12.8975C106.103 12.8975 102.082 16.7736 102.082 23.9446C102.082 31.3185 105.986 35.1055 111.484 35.1024C116.427 35.1024 119.057 32.2384 120.097 27.9899L116.658 27.2086C115.849 30.4172 114.28 31.8046 111.511 31.8046C107.897 31.8046 105.728 29.0021 105.728 23.9107C105.728 19.0532 107.838 16.2476 111.453 16.2476C114.286 16.2476 115.529 17.6935 116.338 20.5298L119.787 19.5485C118.827 15.6446 116.455 12.8975 111.48 12.8975Z" fill="#F1F1F6"/>
<path d="M50 34.6994V13.3035H53.6116V31.4047H63.4743V34.6994H50Z" fill="#F1F1F6"/>
<path d="M65.6093 16.6844V13.6081H69.2517V16.6844H65.6093Z" fill="#F1F1F6"/>
<path d="M65.637 34.6994V19.3455H69.2209V34.6994H65.637Z" fill="#F1F1F6"/>
<path d="M71.0144 19.3485L76.5518 34.7302L80.1788 34.7271L85.7162 19.3455H82.2769L78.5484 30.6817H78.4899L74.7429 19.3485H71.0144Z" fill="#F1F1F6"/>
<path fill-rule="evenodd" clip-rule="evenodd" d="M86.0238 27.0363C86.0238 21.1912 90.1584 19.0563 93.3394 19.0563C96.7787 19.0563 100.077 21.1113 100.077 27.3624V28.1991H89.5801C89.7247 30.9678 91.4259 32.1984 93.687 32.1984C95.6804 32.1984 96.8372 31.5308 97.9939 30.4049L99.8735 32.2507C98.283 34.0165 96.1819 35.0194 93.4132 35.0194C89.5801 35.0194 86.0238 32.6752 86.0238 27.0363ZM96.8095 25.535C96.6064 23.1909 95.4497 21.948 93.3086 21.948C91.5735 21.948 89.9862 22.9325 89.6385 25.535H96.8095Z" fill="#F1F1F6"/>
<path fill-rule="evenodd" clip-rule="evenodd" d="M122.054 27.0363C122.054 21.3697 125.785 19.0563 129.545 19.0563C133.304 19.0563 137.032 21.3697 137.032 27.0363C137.032 32.6475 133.273 35.0194 129.545 35.0194C125.816 35.0194 122.054 32.6475 122.054 27.0363ZM133.436 27.0363C133.436 24.1753 132.224 22.0926 129.535 22.0926C126.961 22.0926 125.632 23.9384 125.632 27.0363C125.632 29.9588 126.816 32.0415 129.535 32.0415C132.117 32.0415 133.445 30.1895 133.445 27.0363H133.436Z" fill="#F1F1F6"/>
<path d="M139.398 19.3455V30.3741C139.398 33.3981 141.133 34.9886 143.822 34.9886C144.87 35.001 145.909 34.7971 146.875 34.3895C147.84 33.9819 148.711 33.3794 149.433 32.6198V34.6994H153.017V19.3455H149.433V30.0172C148.132 31.2016 146.828 32.0107 145.268 32.0107C143.708 32.0107 142.985 31.2293 142.985 29.525V19.3455H139.398Z" fill="#F1F1F6"/>
<path d="M156.327 34.6994V19.3454H159.883V21.8065C161.04 20.4775 162.834 19.0593 165.378 19.0593C168.183 19.0593 169.918 20.5052 169.918 23.5416V34.6994H166.359V24.5475C166.359 22.8709 165.667 22.0034 164.049 22.0034C162.486 22.0034 161.185 22.7848 159.883 23.9999V34.6994H156.327Z" fill="#F1F1F6"/>
<path d="M174.342 22.1788V30.6817C174.342 33.4504 175.182 34.9025 179.092 34.9025C179.962 34.9008 180.831 34.8329 181.692 34.6994V31.8969C181.19 32.0316 180.673 32.0988 180.153 32.0968C178.391 32.0968 177.898 31.4324 177.898 29.7834V22.1788H181.861V19.3455H177.898V13.9957H174.342V19.3455H171.681V22.1788H174.342Z" fill="#F1F1F6"/>
</g>
<defs>
<clipPath id="clip0_2337_63109">
<rect width="169.861" height="32" fill="white" transform="translate(12 8)"/>
</clipPath>
</defs>
</svg>
