<svg width="333" height="48" viewBox="0 0 333 48" fill="none" xmlns="http://www.w3.org/2000/svg">
<path d="M22.8188 33.1485L25.3228 23.986L21.1766 8.55499H12L20.1941 39.445H29.4353L27.7706 33.2187L22.8188 33.1485Z" fill="#0063A3"/>
<path d="M30.968 8.55499L26.8442 23.986L28.9356 31.5709H34.0025L40.2288 8.55499H30.968Z" fill="#0063A3"/>
<path d="M57.0167 31.2048L50.229 11.5995H53.5976L58.6252 26.834H58.6786L63.796 11.6108H66.912L60.1299 31.216L57.0167 31.2048Z" fill="#171C1E"/>
<path d="M68.8208 14.6872V11.8632H72.1473V14.6872H68.8208ZM68.8489 31.1231V17.1126H72.1248V31.1231H68.8489Z" fill="#171C1E"/>
<path d="M74.4409 24.1333C74.4409 18.7997 78.2166 16.8487 81.1192 16.8487C84.2576 16.8487 87.2668 18.7239 87.2668 24.428V25.1944H77.6888C77.8207 27.7208 79.3731 28.8437 81.4336 28.8437C83.2554 28.8437 84.3109 28.2373 85.3636 27.2071L87.0788 28.8914C85.6275 30.5027 83.7102 31.4179 81.1837 31.4179C77.6888 31.4151 74.4409 29.276 74.4409 24.1333ZM84.2828 22.7606C84.1004 20.6215 83.0449 19.4874 81.0911 19.4874C79.5078 19.4874 78.0565 20.3857 77.7393 22.7606H84.2828Z" fill="#171C1E"/>
<path d="M91.9211 31.1233L87.7524 17.1127H91.0509L92.5808 22.9179C93.0018 24.5012 93.2657 25.5819 93.6362 27.3785H93.6896C94.1107 25.4781 94.3493 24.4759 94.7956 22.8646L96.2666 17.1127H98.9053L100.477 22.9713C100.926 24.5264 101.165 25.5819 101.561 27.3785H101.6C102.021 25.5567 102.26 24.5545 102.706 23.0246L104.289 17.1127H107.245L103.077 31.1233H100.048L97.5214 21.388H97.468L94.9416 31.1233H91.9211Z" fill="#171C1E"/>
<path d="M108.898 36.4004V17.1124H112.155V18.9736C112.69 18.3079 113.369 17.7722 114.141 17.4066C114.913 17.041 115.758 16.855 116.613 16.8626C119.807 16.8626 122.154 19.2655 122.154 24.1191C122.154 28.9727 119.754 31.3251 116.163 31.3251C115.408 31.3309 114.66 31.1763 113.969 30.8714C113.278 30.5666 112.66 30.1184 112.155 29.5566V36.3892L108.898 36.4004ZM118.898 24.1331C118.898 21.1772 117.632 19.6192 115.546 19.6192C114.201 19.6192 112.907 20.4614 112.144 21.3877V27.0021C112.526 27.5226 113.021 27.9497 113.593 28.2512C114.164 28.5526 114.796 28.7206 115.442 28.7425C117.907 28.7481 118.909 27.2463 118.909 24.1331H118.898Z" fill="#171C1E"/>
<path d="M123.776 24.1333C123.776 18.9597 127.179 16.8487 130.609 16.8487C134.039 16.8487 137.442 18.9597 137.442 24.1333C137.442 29.2507 134.014 31.4151 130.609 31.4151C127.204 31.4151 123.776 29.2507 123.776 24.1333ZM134.163 24.1333C134.163 21.5198 133.054 19.6194 130.601 19.6194C128.251 19.6194 127.038 21.3037 127.038 24.1333C127.038 26.7973 128.119 28.6977 130.601 28.6977C132.956 28.6977 134.163 27.0078 134.163 24.1333Z" fill="#171C1E"/>
<path d="M139.777 14.6872V11.8632H143.09V14.6872H139.777ZM139.803 31.1231V17.1126H143.076V31.1231H139.803Z" fill="#171C1E"/>
<path d="M146.113 31.123V17.1124H149.358V19.3582C150.414 18.1455 152.05 16.8514 154.372 16.8514C156.932 16.8514 158.515 18.1707 158.515 20.9414V31.1258H155.27V21.8622C155.27 20.3323 154.636 19.5406 153.159 19.5406C151.733 19.5406 150.546 20.2537 149.358 21.3625V31.123H146.113Z" fill="#171C1E"/>
<path d="M162.552 27.4571V19.6981H160.127V17.1127H162.552V12.2366H165.8V17.1127H169.413V19.6981H165.8V26.6374C165.8 28.142 166.247 28.7484 167.858 28.7484C168.332 28.7498 168.804 28.6884 169.261 28.5659V31.1232C168.476 31.245 167.682 31.307 166.887 31.3085C163.319 31.3085 162.552 29.9891 162.552 27.4571Z" fill="#171C1E"/>
<path d="M179.413 11.6064H190.838V13.3469H181.294V20.0841H188.365V21.7684H181.285V31.1359H179.413V11.6064Z" fill="#171C1E"/>
<path d="M191.436 24.191C191.436 19.5479 194.313 16.9625 197.744 16.9625C201.174 16.9625 204.023 19.5479 204.023 24.191C204.023 28.834 201.146 31.4222 197.744 31.4222C194.341 31.4222 191.436 28.8059 191.436 24.191ZM202.202 24.1657C202.202 21.1312 200.672 18.5177 197.744 18.5177C194.92 18.5177 193.252 20.8926 193.252 24.1657C193.252 27.2536 194.757 29.8642 197.744 29.8642C200.531 29.8642 202.216 27.5175 202.216 24.1657H202.202Z" fill="#171C1E"/>
<path d="M206.825 17.2264H208.647V19.969H208.7C209.795 18.2538 211.479 16.9625 214.213 16.9625H214.53L214.345 18.6468L213.784 18.6216C211.516 18.6216 209.719 19.8876 208.638 22.0772V31.1275H206.816L206.825 17.2264Z" fill="#171C1E"/>
<path d="M221.787 11.6064H228.277C232.527 11.6064 235.113 13.3469 235.113 16.9401C235.113 20.8701 232.21 22.4786 228.095 22.4786H223.659V31.1331H221.787V11.6064ZM228.227 20.8139C231.444 20.8139 233.238 19.8118 233.238 16.9878C233.238 14.349 231.472 13.3216 228.185 13.3216H223.659V20.8139H228.227Z" fill="#171C1E"/>
<path d="M237.617 17.2264H239.439V19.969H239.489C240.573 18.2538 242.26 16.9625 245.005 16.9625H245.322L245.137 18.6468L244.576 18.6216C242.305 18.6216 240.511 19.8876 239.43 22.0772V31.1275H237.608L237.617 17.2264Z" fill="#171C1E"/>
<path d="M246.086 24.191C246.086 19.5479 248.963 16.9625 252.394 16.9625C255.824 16.9625 258.673 19.5479 258.673 24.191C258.673 28.834 255.796 31.4222 252.394 31.4222C248.991 31.4222 246.086 28.8059 246.086 24.191ZM256.851 24.1657C256.851 21.1312 255.321 18.5177 252.394 18.5177C249.57 18.5177 247.902 20.8926 247.902 24.1657C247.902 27.2536 249.407 29.8642 252.394 29.8642C255.19 29.8642 256.851 27.5175 256.851 24.1657Z" fill="#171C1E"/>
<path d="M259.257 36.3291V34.8778C259.525 34.9446 259.799 34.9804 260.074 34.9844C260.916 34.9844 261.447 34.51 261.447 33.4265V17.2263H263.269V33.4545C263.269 35.3522 262.477 36.4357 260.338 36.4357C259.975 36.4319 259.614 36.3962 259.257 36.3291ZM261.394 12.0527H263.319V14.0177H261.394V12.0527Z" fill="#171C1E"/>
<path d="M266.084 24.1657C266.084 19.2307 269.248 16.9625 272.178 16.9625C275.423 16.9625 277.852 19.4412 277.852 24.191V24.5362H267.903C267.931 27.9638 269.868 29.8923 272.282 29.8923C274.368 29.8923 275.555 28.994 276.611 27.3659L277.734 28.2642C276.521 30.2292 274.806 31.4306 272.167 31.4306C268.933 31.4222 266.084 28.9154 266.084 24.1657ZM276.083 23.0849C275.898 20.4462 274.632 18.4924 272.153 18.4924C270.149 18.4924 268.276 19.9437 267.942 23.0849H276.083Z" fill="#171C1E"/>
<path d="M279.974 24.191C279.974 19.2054 283.062 16.9625 286.175 16.9625C289.156 16.9625 290.633 18.731 291.509 20.7606L289.954 21.4484C289.187 19.5732 288.078 18.5177 286.127 18.5177C284.07 18.5177 281.799 19.9971 281.799 24.1657C281.799 27.815 283.646 29.8642 286.074 29.8642C288 29.8642 289.083 28.9688 290.057 26.9083L291.537 27.5427C290.414 29.8923 288.819 31.4222 285.995 31.4222C282.781 31.4222 279.974 28.8059 279.974 24.191Z" fill="#171C1E"/>
<path d="M295.133 27.885V18.7814H292.705V17.2262H295.133V12.2435H296.952V17.2262H300.567V18.7814H296.952V27.5173C296.952 28.9939 297.426 29.7855 299.141 29.7855C299.632 29.7975 300.121 29.7351 300.593 29.6002V31.1582C300 31.2591 299.4 31.3117 298.799 31.3154C296.146 31.3154 295.133 30.288 295.133 27.885Z" fill="#171C1E"/>
<path d="M302.355 28.915L303.515 27.8596C304.037 28.5005 304.698 29.0141 305.448 29.3614C306.198 29.7087 307.017 29.8806 307.843 29.8639C310.218 29.8639 311.456 28.9936 311.456 27.4357C311.456 25.8777 310.35 25.2994 307.63 24.665C304.438 23.8734 302.802 23.0312 302.802 20.603C302.802 18.638 304.517 16.9537 307.526 16.9537C309.901 16.9537 311.431 17.7454 312.672 18.958L311.642 20.1735C311.118 19.625 310.487 19.1898 309.788 18.8948C309.09 18.5998 308.338 18.4512 307.58 18.4584C305.415 18.4584 304.57 19.4605 304.57 20.516C304.57 21.8607 305.519 22.4165 307.939 22.9947C311.423 23.8369 313.216 24.679 313.216 27.402C313.216 29.9284 310.948 31.3853 307.807 31.3853C305.337 31.3938 303.411 30.3383 302.355 28.915Z" fill="#171C1E"/>
<path d="M314.746 12.0134H313.486V11.5642H316.501V12.0134H315.252V15.6121H314.746V12.0134ZM317.217 11.5642H317.871L319.083 14.9328L320.313 11.5642H320.981V15.6121H320.467V12.4316L319.299 15.6121H318.87L317.697 12.4428V15.6121H317.217V11.5642Z" fill="#171C1E"/>
</svg>
