<svg width="466" height="48" viewBox="0 0 466 48" fill="none" xmlns="http://www.w3.org/2000/svg">
<path d="M22.8188 33.1485L25.3228 23.986L21.1766 8.55499H12L20.1941 39.445H29.4353L27.7706 33.2187L22.8188 33.1485Z" class="logo-accent"/>
<path d="M30.968 8.55499L26.8442 23.986L28.9356 31.5709H34.0025L40.2288 8.55499H30.968Z" class="logo-accent"/>
<path d="M57.0167 31.2045L50.229 11.5993H53.5976L58.6252 26.8338H58.6786L63.7988 11.6105H66.912L60.1299 31.2157L57.0167 31.2045Z" class="logo-text"/>
<path d="M68.8208 14.6848V11.8776H72.1473V14.6848H68.8208ZM68.8489 31.1235V17.113H72.1248V31.1235H68.8489Z" class="logo-text"/>
<path d="M74.4438 24.1334C74.4438 18.7998 78.2167 16.8488 81.1193 16.8488C84.2577 16.8488 87.267 18.724 87.267 24.4281V25.1945H77.6889C77.8209 27.721 79.3732 28.8438 81.4337 28.8438C83.2555 28.8438 84.311 28.2347 85.3637 27.2072L87.0789 28.8915C85.6276 30.5028 83.7103 31.418 81.1838 31.418C77.6889 31.4152 74.4438 29.2761 74.4438 24.1334ZM84.2858 22.7607C84.1005 20.6216 83.045 19.4875 81.0912 19.4875C79.508 19.4875 78.0567 20.3858 77.7423 22.7607H84.2858Z" class="logo-text"/>
<path d="M91.9211 31.1233L87.7524 17.1127H91.0509L92.5808 22.9179C93.0018 24.5012 93.2657 25.5819 93.6363 27.3785H93.6896C94.1107 25.4781 94.3493 24.4759 94.7984 22.8646L96.2666 17.1127H98.9053L100.477 22.9713C100.926 24.5264 101.165 25.5819 101.561 27.3785H101.6C102.021 25.5567 102.26 24.5545 102.706 23.0246L104.289 17.1127H107.245L103.077 31.1233H100.048L97.5214 21.388H97.468L94.9416 31.1233H91.9211Z" class="logo-text"/>
<path d="M108.899 36.4007V17.1127H112.155V18.9738C112.691 18.3082 113.37 17.7725 114.142 17.4068C114.914 17.0412 115.759 16.8552 116.613 16.8628C119.808 16.8628 122.154 19.2658 122.154 24.1193C122.154 28.9729 119.754 31.3253 116.164 31.3253C115.409 31.3312 114.661 31.1766 113.97 30.8717C113.279 30.5668 112.66 30.1186 112.155 29.5568V36.3894L108.899 36.4007ZM118.898 24.1334C118.898 21.1774 117.632 19.6195 115.546 19.6195C114.202 19.6195 112.908 20.4616 112.144 21.388V27.0023C112.526 27.5229 113.022 27.9499 113.593 28.2514C114.165 28.5529 114.797 28.7209 115.442 28.7427C117.907 28.7484 118.909 27.2465 118.909 24.1334H118.898Z" class="logo-text"/>
<path d="M123.776 24.1334C123.776 18.9598 127.179 16.8488 130.609 16.8488C134.039 16.8488 137.445 18.9598 137.445 24.1334C137.445 29.2509 134.014 31.4152 130.609 31.4152C127.204 31.4152 123.776 29.2509 123.776 24.1334ZM134.163 24.1334C134.163 21.5199 133.054 19.6195 130.601 19.6195C128.254 19.6195 127.038 21.3038 127.038 24.1334C127.038 26.7974 128.122 28.6978 130.601 28.6978C132.956 28.6978 134.163 27.0079 134.163 24.1334Z" class="logo-text"/>
<path d="M139.777 14.6848V11.8776H143.09V14.6848H139.777ZM139.803 31.1235V17.113H143.076V31.1235H139.803Z" class="logo-text"/>
<path d="M146.113 31.1235V17.1129H149.358V19.3587C150.413 18.146 152.05 16.8519 154.371 16.8519C156.932 16.8519 158.515 18.1712 158.515 20.9419V31.1263H155.27V21.8626C155.27 20.3327 154.635 19.5411 153.159 19.5411C151.736 19.5411 150.545 20.2541 149.358 21.363V31.1235H146.113Z" class="logo-text"/>
<path d="M162.555 27.4569V19.6979H160.126V17.1125H162.555V12.2365H165.8V17.1125H169.413V19.6979H165.8V26.6372C165.8 28.1419 166.246 28.7482 167.857 28.7482C168.331 28.7497 168.803 28.6883 169.261 28.5658V31.1231C168.475 31.2449 167.681 31.3068 166.886 31.3084C163.318 31.3084 162.555 29.989 162.555 27.4569Z" class="logo-text"/>
<path d="M179.413 26.5139L181.074 25.9076C181.945 28.6249 183.924 30.0257 186.669 30.0257C189.597 30.0257 191.497 28.6782 191.497 26.4886C191.497 24.4563 190.521 23.4288 186.38 22.1095C182.169 20.7901 180.047 19.656 180.047 16.4362C180.047 13.629 182.554 11.4226 186.116 11.4226C189.782 11.4226 191.893 13.295 192.817 15.9141L191.234 16.6411C190.257 14.1147 188.541 13.1069 186.088 13.1069C183.477 13.1069 181.894 14.5105 181.894 16.2986C181.894 18.4882 183.185 19.2265 187.304 20.5459C191.365 21.84 193.37 23.1846 193.37 26.3511C193.37 29.5962 190.495 31.6847 186.591 31.6847C182.922 31.6875 180.336 29.6804 179.413 26.5139Z" class="logo-text"/>
<path d="M196.326 17.4129H198.139V19.3779C199.262 18.1905 200.699 17.1322 202.782 17.1322C205.977 17.1322 208.509 19.479 208.509 24.3354C208.509 29.1918 205.949 31.5386 202.614 31.5386C200.82 31.5386 199.369 30.6683 198.122 29.3995V36.5774H196.3L196.326 17.4129ZM206.695 24.3775C206.695 20.5261 204.798 18.7042 202.484 18.7042C200.772 18.7042 199.478 19.6025 198.159 21.0005V27.7545C199.531 29.2058 200.876 30.0255 202.484 30.0255C204.929 30.0255 206.695 28.3103 206.695 24.3775Z" class="logo-text"/>
<path d="M210.71 24.3523C210.71 19.4174 213.876 17.1492 216.807 17.1492C220.052 17.1492 222.478 19.6279 222.478 24.3776V24.7201H212.532C212.557 28.1504 214.511 30.0761 216.911 30.0761C218.997 30.0761 220.184 29.1807 221.24 27.5497L222.362 28.448C221.147 30.413 219.432 31.6145 216.796 31.6145C213.559 31.6089 210.71 29.1021 210.71 24.3523ZM220.712 23.2688C220.527 20.6329 219.261 18.6791 216.782 18.6791C214.778 18.6791 212.902 20.1304 212.571 23.2688H220.712Z" class="logo-text"/>
<path d="M224.594 24.3776C224.594 19.3921 227.682 17.1492 230.795 17.1492C233.776 17.1492 235.255 18.9149 236.128 20.9473L234.57 21.635C233.807 19.7598 232.698 18.7043 230.747 18.7043C228.687 18.7043 226.418 20.1837 226.418 24.3523C226.418 28.0017 228.266 30.0509 230.694 30.0509C232.619 30.0509 233.7 29.1526 234.677 27.0949L236.154 27.7294C235.048 30.0761 233.436 31.6089 230.615 31.6089C227.418 31.6089 224.594 28.9926 224.594 24.3776Z" class="logo-text"/>
<path d="M239.769 28.0716V18.9679H237.341V17.4128H239.769V12.4301H241.591V17.4128H245.207V18.9679H241.591V27.701C241.591 29.1804 242.066 29.972 243.781 29.972C244.271 29.9841 244.761 29.9216 245.232 29.7867V31.3447C244.639 31.4455 244.04 31.4981 243.438 31.5019C240.772 31.5019 239.769 30.4717 239.769 28.0716Z" class="logo-text"/>
<path d="M247.596 17.413H249.418V20.1556H249.471C250.552 18.4405 252.242 17.1492 254.984 17.1492H255.302L255.116 18.8335L254.555 18.8082C252.284 18.8082 250.49 20.0742 249.409 22.2638V31.3141H247.587L247.596 17.413Z" class="logo-text"/>
<path d="M257.371 27.4655V17.4131H259.19V27.1483C259.19 29.1133 260.032 30.0509 261.96 30.0509C263.729 30.0509 265.233 29.1021 266.789 27.6227V17.4131H268.636V31.317H266.789V29.1274C265.444 30.4467 263.675 31.6089 261.511 31.6089C258.752 31.6089 257.371 30.0509 257.371 27.4655Z" class="logo-text"/>
<path d="M272.167 17.413H273.988V19.6026C275.392 18.2299 276.995 17.1492 279.081 17.1492C281.43 17.1492 282.486 18.1766 282.907 19.656C284.358 18.2833 286.098 17.1492 288.156 17.1492C291.008 17.1492 292.168 18.7577 292.168 21.2645V31.3169H290.349V21.6069C290.349 19.6419 289.689 18.7043 287.735 18.7043C286.051 18.7043 284.647 19.6279 283.092 21.1325V31.3169H281.27V21.6069C281.27 19.6419 280.61 18.7043 278.631 18.7043C276.97 18.7043 275.544 19.6279 273.988 21.1325V31.3169H272.167V17.413Z" class="logo-text"/>
<path d="M301.642 26.5139L303.304 25.9076C304.174 28.6249 306.153 30.0257 308.899 30.0257C311.826 30.0257 313.727 28.6782 313.727 26.4886C313.727 24.4563 312.75 23.4288 308.607 22.1095C304.413 20.7901 302.277 19.656 302.277 16.4362C302.277 13.629 304.783 11.4226 308.346 11.4226C312.012 11.4226 314.123 13.295 315.046 15.9141L313.463 16.6411C312.486 14.1147 310.771 13.1069 308.318 13.1069C305.707 13.1069 304.124 14.5105 304.124 16.2986C304.124 18.4882 305.415 19.2265 309.53 20.5459C313.595 21.84 315.599 23.1846 315.599 26.3511C315.599 29.5962 312.725 31.6847 308.82 31.6847C305.151 31.6875 302.566 29.6804 301.642 26.5139Z" class="logo-text"/>
<path d="M317.946 24.3523C317.946 19.4174 321.112 17.1492 324.043 17.1492C327.288 17.1492 329.713 19.6279 329.713 24.3776V24.7201H319.768C319.793 28.1504 321.733 30.0761 324.147 30.0761C326.233 30.0761 327.42 29.1807 328.475 27.5497L329.598 28.448C328.383 30.413 326.668 31.6145 324.032 31.6145C320.795 31.6089 317.946 29.1021 317.946 24.3523ZM327.948 23.2688C327.762 20.6329 326.496 18.6791 324.018 18.6791C322.013 18.6791 320.138 20.1304 319.807 23.2688H327.948Z" class="logo-text"/>
<path d="M332.518 17.413H334.337V20.1556H334.39C335.474 18.4405 337.161 17.1492 339.906 17.1492H340.221L340.038 18.8335L339.477 18.8082C337.209 18.8082 335.415 20.0742 334.331 22.2638V31.3141H332.512L332.518 17.413Z" class="logo-text"/>
<path d="M341.72 17.4131H343.685L347.8 29.1526H347.853L351.943 17.4131H353.79L348.673 31.3703H346.851L341.72 17.4131Z" class="logo-text"/>
<path d="M355.983 12.2395H357.909V14.2045H355.983V12.2395ZM356.036 17.4131H357.867V31.317H356.047L356.036 17.4131Z" class="logo-text"/>
<path d="M360.674 24.3776C360.674 19.3921 363.762 17.1492 366.875 17.1492C369.856 17.1492 371.335 18.9149 372.208 20.9473L370.65 21.635C369.887 19.7598 368.778 18.7043 366.824 18.7043C364.767 18.7043 362.498 20.1837 362.498 24.3523C362.498 28.0017 364.346 30.0509 366.774 30.0509C368.699 30.0509 369.78 29.1526 370.757 27.0949L372.234 27.7294C371.111 30.0761 369.516 31.6089 366.692 31.6089C363.495 31.6089 360.674 28.9926 360.674 24.3776Z" class="logo-text"/>
<path d="M374.019 24.3523C374.019 19.4174 377.185 17.1492 380.113 17.1492C383.358 17.1492 385.786 19.6279 385.786 24.3776V24.7201H375.832C375.86 28.1504 377.797 30.0761 380.214 30.0761C382.297 30.0761 383.484 29.1807 384.54 27.5497L385.663 28.448C384.45 30.413 382.735 31.6145 380.096 31.6145C376.868 31.6089 374.019 29.1021 374.019 24.3523ZM384.018 23.2688C383.832 20.6329 382.566 18.6791 380.088 18.6791C378.081 18.6791 376.208 20.1304 375.877 23.2688H384.018Z" class="logo-text"/>
<path d="M398.29 13.5333H391.982V11.7928H406.467V13.5333H400.162V31.3166H398.29V13.5333Z" class="logo-text"/>
<path d="M405.395 24.3523C405.395 19.4174 408.561 17.1492 411.489 17.1492C414.734 17.1492 417.162 19.6279 417.162 24.3776V24.7201H407.216C407.242 28.1504 409.181 30.0761 411.596 30.0761C413.678 30.0761 414.866 29.1807 415.921 27.5497L417.044 28.448C415.829 30.413 414.114 31.6145 411.475 31.6145C408.244 31.6089 405.395 29.1021 405.395 24.3523ZM415.394 23.2688C415.211 20.6329 413.945 18.6791 411.464 18.6791C409.459 18.6791 407.584 20.1304 407.253 23.2688H415.394Z" class="logo-text"/>
<path d="M419.279 24.3776C419.279 19.3921 422.367 17.1492 425.48 17.1492C428.461 17.1492 429.94 18.9149 430.813 20.9473L429.255 21.635C428.492 19.7598 427.383 18.7043 425.429 18.7043C423.372 18.7043 421.103 20.1837 421.103 24.3523C421.103 28.0017 422.951 30.0509 425.376 30.0509C427.304 30.0509 428.385 29.1526 429.362 27.0949L430.839 27.7294C429.716 30.0761 428.121 31.6089 425.297 31.6089C422.103 31.6089 419.279 28.9926 419.279 24.3776Z" class="logo-text"/>
<path d="M433.348 11.7928H435.17V19.6024C436.515 18.283 438.283 17.1489 440.473 17.1489C443.218 17.1489 444.616 18.6788 444.616 21.2642V31.3166H442.794V21.6067C442.794 19.6417 441.924 18.7041 440.024 18.7041C438.23 18.7041 436.725 19.6276 435.17 21.1323V31.3166H433.348V11.7928Z" class="logo-text"/>
<path d="M446.904 12.1999H445.646V11.7507H448.661V12.1999H447.415V15.7987H446.907L446.904 12.1999ZM449.377 11.7507H450.034L451.247 15.1193L452.479 11.7507H453.147V15.7987H452.631V12.6181L451.457 15.7987H451.028L449.854 12.6294V15.7987H449.38L449.377 11.7507Z" class="logo-text"/>
</svg>
