<svg width="296.54" height="30.89" viewBox="12 8.55 296.54 30.89" fill="none" xmlns="http://www.w3.org/2000/svg">
<path d="M22.8188 33.1485L25.3228 23.986L21.1766 8.55499H12L20.1941 39.445H29.4353L27.7706 33.2187L22.8188 33.1485Z" fill="#0063A3"/>
<path d="M30.968 8.55499L26.8442 23.986L28.9356 31.5709H34.0025L40.2288 8.55499H30.968Z" fill="#0063A3"/>
<path d="M57.0167 31.2045L50.229 11.5993H53.5976L58.6252 26.8338H58.6786L63.796 11.6105H66.912L60.1299 31.2157L57.0167 31.2045Z" fill="#171C1E"/>
<path d="M68.8208 14.6844V11.8772H72.1473V14.6844H68.8208ZM68.8489 31.1231V17.1126H72.1248V31.1231H68.8489Z" fill="#171C1E"/>
<path d="M74.4409 24.1333C74.4409 18.7997 78.2166 16.8488 81.1192 16.8488C84.2576 16.8488 87.2668 18.7239 87.2668 24.4281V25.1916H77.6888C77.8207 27.7181 79.3731 28.8409 81.4336 28.8409C83.2554 28.8409 84.3109 28.2318 85.3636 27.2044L87.0787 28.8887C85.6274 30.5 83.7102 31.4151 81.1837 31.4151C77.6888 31.4151 74.4409 29.2761 74.4409 24.1333ZM84.2828 22.7606C84.1004 20.6216 83.0449 19.4875 81.0911 19.4875C79.5078 19.4875 78.0565 20.3858 77.7393 22.7606H84.2828Z" fill="#171C1E"/>
<path d="M91.9211 31.1231L87.7524 17.1126H91.0509L92.5808 22.9178C93.0018 24.5011 93.2657 25.5818 93.6362 27.3784H93.6896C94.1107 25.4779 94.3493 24.4758 94.7956 22.8645L96.2666 17.1126H98.9053L100.477 22.9712C100.926 24.5263 101.165 25.5818 101.561 27.3784H101.6C102.021 25.5565 102.26 24.5544 102.706 23.0245L104.289 17.1126H107.245L103.077 31.1231H100.048L97.5214 21.3879H97.468L94.9416 31.1231H91.9211Z" fill="#171C1E"/>
<path d="M108.899 36.4007V17.1127H112.155V18.9738C112.691 18.3082 113.37 17.7725 114.142 17.4068C114.914 17.0412 115.759 16.8552 116.613 16.8628C119.808 16.8628 122.154 19.2658 122.154 24.1193C122.154 28.9729 119.754 31.3253 116.164 31.3253C115.409 31.3312 114.661 31.1766 113.97 30.8717C113.279 30.5668 112.66 30.1186 112.155 29.5568V36.3894L108.899 36.4007ZM118.898 24.1334C118.898 21.1774 117.632 19.6195 115.546 19.6195C114.202 19.6195 112.908 20.4616 112.144 21.388V27.0023C112.526 27.5229 113.022 27.9499 113.593 28.2514C114.165 28.5529 114.797 28.7209 115.442 28.7427C117.907 28.7484 118.909 27.2465 118.909 24.1334H118.898Z" fill="#171C1E"/>
<path d="M123.777 24.1333C123.777 18.9597 127.179 16.8488 130.609 16.8488C134.04 16.8488 137.442 18.9597 137.442 24.1333C137.442 29.2508 134.015 31.4151 130.609 31.4151C127.204 31.4151 123.777 29.2508 123.777 24.1333ZM134.163 24.1333C134.163 21.5199 133.055 19.6194 130.601 19.6194C128.251 19.6194 127.039 21.3037 127.039 24.1333C127.039 26.7973 128.12 28.6978 130.601 28.6978C132.956 28.6978 134.163 27.0079 134.163 24.1333Z" fill="#171C1E"/>
<path d="M139.777 14.6844V11.8772H143.09V14.6844H139.777ZM139.803 31.1231V17.1126H143.076V31.1231H139.803Z" fill="#171C1E"/>
<path d="M146.113 31.1231V17.1126H149.358V19.3583C150.414 18.1456 152.05 16.8515 154.372 16.8515C156.932 16.8515 158.515 18.1709 158.515 20.9415V31.1259H155.27V21.8623C155.27 20.3324 154.636 19.5408 153.159 19.5408C151.733 19.5408 150.546 20.2538 149.358 21.3598V31.1231H146.113Z" fill="#171C1E"/>
<path d="M162.555 27.457V19.698H160.126V17.1126H162.555V12.2366H165.8V17.1126H169.413V19.698H165.8V26.6373C165.8 28.1419 166.246 28.7483 167.857 28.7483C168.331 28.7497 168.803 28.6884 169.261 28.5658V31.1231C168.475 31.245 167.681 31.3069 166.886 31.3084C163.318 31.3084 162.555 29.9891 162.555 27.457Z" fill="#171C1E"/>
<path d="M179.412 11.5741H191.073V13.3145H181.284V19.9366H188.583V21.6209H181.284V29.3771H191.626V31.0923H179.412V11.5741Z" fill="#171C1E"/>
<path d="M193.672 28.8831L194.835 27.8276C195.356 28.4685 196.016 28.9821 196.766 29.3294C197.515 29.6767 198.334 29.8486 199.16 29.8319C201.535 29.8319 202.776 28.9617 202.776 27.4037C202.776 25.8457 201.667 25.2674 198.95 24.633C195.758 23.8414 194.122 22.9993 194.122 20.5711C194.122 18.606 195.837 16.9218 198.843 16.9218C201.218 16.9218 202.751 17.7134 203.989 18.9261L202.961 20.1416C202.437 19.5928 201.806 19.1575 201.107 18.8625C200.408 18.5675 199.655 18.419 198.896 18.4264C196.732 18.4264 195.89 19.4285 195.89 20.484C195.89 21.8287 196.839 22.3845 199.259 22.9628C202.742 23.8049 204.536 24.6471 204.536 27.37C204.536 29.8965 202.265 31.3534 199.127 31.3534C196.654 31.3618 194.728 30.3063 193.672 28.8831Z" fill="#171C1E"/>
<path d="M208.489 27.8529V18.7492H206.061V17.1941H208.489V12.2114H210.311V17.1941H213.923V18.7492H210.311V27.4851C210.311 28.9617 210.785 29.7533 212.5 29.7533C212.991 29.7654 213.48 29.7029 213.951 29.568V31.126C213.359 31.2267 212.759 31.2793 212.158 31.2832C209.502 31.2832 208.489 30.2558 208.489 27.8529Z" fill="#171C1E"/>
<path d="M216.335 12.0233H218.261V13.9883H216.335V12.0233ZM216.388 17.194H218.205V31.0979H216.385L216.388 17.194Z" fill="#171C1E"/>
<path d="M221.775 17.1941H223.597V19.3837C225.001 18.011 226.604 16.9302 228.689 16.9302C231.036 16.9302 232.092 17.9577 232.513 19.437C233.964 18.0643 235.707 16.9302 237.765 16.9302C240.614 16.9302 241.776 18.5387 241.776 21.0455V31.098H239.955V21.388C239.955 19.423 239.295 18.4854 237.344 18.4854C235.66 18.4854 234.256 19.409 232.698 20.9136V31.098H230.879V21.388C230.879 19.423 230.219 18.4854 228.24 18.4854C226.578 18.4854 225.152 19.409 223.597 20.9136V31.098H221.775V17.1941Z" fill="#171C1E"/>
<path d="M244.375 27.8528C244.375 25.1102 246.725 23.1031 253.796 22.0224V21.3093C253.796 19.3836 252.791 18.4601 250.972 18.4601C248.783 18.4601 247.225 19.3836 245.773 20.6497L244.797 19.5268C246.461 17.9969 248.387 16.9414 251.13 16.9414C254.243 16.9414 255.59 18.6032 255.59 21.3739V27.6788C255.59 29.3631 255.694 30.3989 255.986 31.1091H254.111C253.901 30.4705 253.795 29.8023 253.796 29.1301C252.185 30.5814 250.391 31.3478 248.308 31.3478C245.827 31.3365 244.375 30.0172 244.375 27.8528ZM253.796 27.6423V23.3137C247.831 24.3186 246.169 25.7952 246.169 27.617C246.169 29.0683 247.146 29.8319 248.696 29.8319C250.655 29.8319 252.37 29.015 253.796 27.6507V27.6423Z" fill="#171C1E"/>
<path d="M259.865 27.8529V18.7492H257.437V17.1941H259.865V12.2114H261.684V17.1941H265.3V18.7492H261.684V27.4851C261.684 28.9617 262.159 29.7533 263.874 29.7533C264.364 29.7654 264.854 29.7029 265.325 29.568V31.126C264.732 31.227 264.133 31.2795 263.531 31.2832C260.873 31.2832 259.865 30.2558 259.865 27.8529Z" fill="#171C1E"/>
<path d="M267.708 12.0233H269.634V13.9883H267.708V12.0233ZM267.762 17.194H269.575V31.0979H267.753L267.762 17.194Z" fill="#171C1E"/>
<path d="M273.148 17.1941H274.97V19.3837C276.315 18.0643 278.083 16.9302 280.273 16.9302C283.018 16.9302 284.416 18.4601 284.416 21.0455V31.098H282.595V21.388C282.595 19.423 281.724 18.4854 279.827 18.4854C278.03 18.4854 276.528 19.409 274.97 20.9136V31.098H273.148V17.1941Z" fill="#171C1E"/>
<path d="M286.351 32.9451C286.351 31.5218 287.302 30.4186 288.911 29.7786C288.069 29.4361 287.67 28.855 287.67 28.0129C287.67 27.1707 288.358 26.4549 289.354 25.9272C288.69 25.5003 288.147 24.9096 287.777 24.2119C287.407 23.5143 287.224 22.7331 287.243 21.9438C287.243 18.9879 289.59 16.9302 292.731 16.9302C294.183 16.8893 295.596 17.3976 296.689 18.3534C297.647 17.6822 298.751 17.2482 299.909 17.0874V18.8026C299.044 18.7923 298.185 18.9535 297.383 19.277C297.942 20.0513 298.231 20.9888 298.202 21.9438C298.202 24.9783 295.828 26.876 292.74 26.876C291.973 26.8846 291.211 26.7504 290.494 26.4802C289.834 26.744 289.371 27.1399 289.371 27.6676C289.371 28.2487 289.874 28.5659 291.429 28.7231L294.463 28.9617C297.683 29.2256 299.373 30.3344 299.373 32.4959C299.373 35.0224 296.734 36.4259 292.933 36.4259C288.436 36.4287 286.351 35.0841 286.351 32.9451ZM297.697 32.6643C297.697 31.345 296.642 30.6853 293.896 30.4748L291.128 30.2642L290.415 30.1828C288.857 30.6853 288.094 31.6622 288.094 32.7093C288.094 34.1606 289.624 35.0027 293.147 35.0027C295.982 35.0027 297.697 34.0539 297.697 32.6559V32.6643ZM296.484 21.9775C296.484 19.7626 295.112 18.3899 292.737 18.3899C290.441 18.3899 289.017 19.8132 289.017 21.9775C289.017 24.1418 290.494 25.4864 292.762 25.4864C295.03 25.4864 296.484 24.1081 296.484 21.9691V21.9775Z" fill="#171C1E"/>
<path d="M302.296 12.0232H301.038V11.5741H304.053V12.0232H302.804V15.6108H302.296V12.0232ZM304.769 11.5741H305.426L306.638 14.9427L307.871 11.5741H308.539V15.6108H308.034V12.4415L306.86 15.6108H306.431L305.257 12.4415V15.6108H304.78L304.769 11.5741Z" fill="#171C1E"/>
</svg>
