<svg width="364" height="48" viewBox="0 0 364 48" fill="none" xmlns="http://www.w3.org/2000/svg">
<path d="M22.8188 33.1485L25.3228 23.986L21.1766 8.55499H12L20.1941 39.445H29.4353L27.7706 33.2187L22.8188 33.1485Z" class="logo-accent"/>
<path d="M30.968 8.55499L26.8442 23.986L28.9356 31.5709H34.0025L40.2288 8.55499H30.968Z" class="logo-accent"/>
<path d="M57.0167 31.2045L50.229 11.5993H53.5976L58.6252 26.8338H58.6786L63.796 11.6105H66.9119L60.1299 31.2157L57.0167 31.2045Z" class="logo-text"/>
<path d="M68.8208 14.6872V11.8632H72.1473V14.6872H68.8208ZM68.8489 31.1231V17.1126H72.1248V31.1231H68.8489Z" class="logo-text"/>
<path d="M74.4409 24.1334C74.4409 18.7998 78.2166 16.8488 81.1192 16.8488C84.2576 16.8488 87.2668 18.724 87.2668 24.4281V25.1945H77.6888C77.8207 27.7209 79.3731 28.8438 81.4336 28.8438C83.2554 28.8438 84.3109 28.2347 85.3636 27.2072L87.0787 28.8915C85.6274 30.5028 83.7102 31.418 81.1837 31.418C77.6888 31.4152 74.4409 29.2761 74.4409 24.1334ZM84.2828 22.7607C84.1004 20.6216 83.0449 19.4875 81.0911 19.4875C79.5078 19.4875 78.0565 20.3858 77.7393 22.7607H84.2828Z" class="logo-text"/>
<path d="M91.9211 31.1233L87.7524 17.1127H91.0509L92.5808 22.9179C93.0018 24.5012 93.2657 25.5819 93.6363 27.3785H93.6896C94.1107 25.4781 94.3493 24.4759 94.7956 22.8646L96.2666 17.1127H98.9053L100.477 22.9713C100.926 24.5264 101.165 25.5819 101.561 27.3785H101.6C102.021 25.5567 102.26 24.5545 102.706 23.0246L104.289 17.1127H107.245L103.077 31.1233H100.048L97.5214 21.388H97.468L94.9416 31.1233H91.9211Z" class="logo-text"/>
<path d="M108.899 36.4007V17.1127H112.155V18.9738C112.691 18.3082 113.37 17.7725 114.142 17.4068C114.914 17.0412 115.759 16.8552 116.613 16.8628C119.808 16.8628 122.154 19.2658 122.154 24.1193C122.154 28.9729 119.754 31.3253 116.164 31.3253C115.409 31.3312 114.661 31.1766 113.97 30.8717C113.279 30.5668 112.66 30.1186 112.155 29.5568V36.3894L108.899 36.4007ZM118.898 24.1334C118.898 21.1774 117.632 19.6195 115.546 19.6195C114.202 19.6195 112.908 20.4616 112.144 21.388V27.0023C112.526 27.5229 113.022 27.9499 113.593 28.2514C114.165 28.5529 114.797 28.7209 115.442 28.7427C117.907 28.7483 118.909 27.2465 118.909 24.1334H118.898Z" class="logo-text"/>
<path d="M123.777 24.1334C123.777 18.9598 127.179 16.8488 130.61 16.8488C134.04 16.8488 137.442 18.9598 137.442 24.1334C137.442 29.2509 134.015 31.4152 130.61 31.4152C127.204 31.4152 123.777 29.2509 123.777 24.1334ZM134.163 24.1334C134.163 21.5199 133.055 19.6195 130.601 19.6195C128.251 19.6195 127.039 21.3038 127.039 24.1334C127.039 26.7974 128.12 28.6978 130.601 28.6978C132.956 28.6978 134.163 27.0079 134.163 24.1334Z" class="logo-text"/>
<path d="M139.777 14.6872V11.8632H143.09V14.6872H139.777ZM139.803 31.1231V17.1126H143.076V31.1231H139.803Z" class="logo-text"/>
<path d="M146.113 31.1235V17.1129H149.358V19.3587C150.413 18.146 152.05 16.8519 154.371 16.8519C156.932 16.8519 158.515 18.1712 158.515 20.9419V31.1263H155.27V21.8626C155.27 20.3327 154.635 19.5411 153.159 19.5411C151.733 19.5411 150.545 20.2541 149.358 21.363V31.1235H146.113Z" class="logo-text"/>
<path d="M162.555 27.4569V19.6979H160.126V17.1125H162.555V12.2365H165.8V17.1125H169.413V19.6979H165.8V26.6372C165.8 28.1419 166.246 28.7482 167.857 28.7482C168.331 28.7497 168.803 28.6883 169.261 28.5658V31.1231C168.475 31.2449 167.681 31.3068 166.886 31.3084C163.318 31.3084 162.555 29.989 162.555 27.4569Z" class="logo-text"/>
<path d="M179.412 14.2378H185.902C190.152 14.2378 192.738 15.9782 192.738 19.5714C192.738 23.5014 189.835 25.1127 185.72 25.1127H181.284V33.7672H179.412V14.2378ZM185.849 23.4453C189.069 23.4453 190.862 22.4431 190.862 19.6191C190.862 16.9804 189.097 15.953 185.824 15.953H181.284V23.4453H185.849Z" class="logo-text"/>
<path d="M195.241 19.858H197.06V22.6006H197.114C198.197 20.8854 199.884 19.5941 202.63 19.5941H202.947L202.762 21.2784L202.2 21.2531C199.932 21.2531 198.138 22.5192 197.055 24.7088V33.7591H195.236L195.241 19.858Z" class="logo-text"/>
<path d="M203.711 26.8226C203.711 22.1795 206.588 19.5941 210.019 19.5941C213.449 19.5941 216.298 22.1795 216.298 26.8226C216.298 31.4656 213.421 34.0538 210.019 34.0538C206.616 34.0538 203.711 31.4375 203.711 26.8226ZM214.476 26.7973C214.476 23.7627 212.946 21.1493 210.019 21.1493C207.195 21.1493 205.527 23.5241 205.527 26.7973C205.527 29.8852 207.032 32.4958 210.019 32.4958C212.815 32.4958 214.476 30.149 214.476 26.7973Z" class="logo-text"/>
<path d="M218.659 23.92C218.659 18.025 221.904 13.8676 226.786 13.8676C230.744 13.8676 232.934 16.2171 233.857 19.83L232.063 20.2791C231.193 17.1912 229.742 15.5827 226.761 15.5827C222.988 15.5827 220.534 18.8559 220.534 23.8695C220.534 29.2761 223.013 32.4425 226.814 32.4425C229.717 32.4425 231.536 30.7582 232.381 27.4823L234.174 27.8781C233.226 31.7323 230.691 34.1324 226.786 34.1324C221.865 34.1324 218.659 30.1491 218.659 23.92Z" class="logo-text"/>
<path d="M236.417 26.8226C236.417 22.1795 239.294 19.5941 242.725 19.5941C246.155 19.5941 249.004 22.1795 249.004 26.8226C249.004 31.4656 246.127 34.0538 242.725 34.0538C239.322 34.0538 236.417 31.4375 236.417 26.8226ZM247.182 26.7973C247.182 23.7627 245.653 21.1493 242.725 21.1493C239.901 21.1493 238.233 23.5241 238.233 26.7973C238.233 29.8852 239.738 32.4958 242.725 32.4958C245.521 32.4958 247.182 30.149 247.182 26.7973Z" class="logo-text"/>
<path d="M251.806 19.858H253.628V22.0476C254.973 20.7282 256.741 19.5941 258.931 19.5941C261.676 19.5941 263.074 21.124 263.074 23.7094V33.7619H261.252V24.0519C261.252 22.0869 260.382 21.1493 258.482 21.1493C256.688 21.1493 255.186 22.0728 253.628 23.5775V33.7619H251.806V19.858Z" class="logo-text"/>
<path d="M267.392 30.5165V21.4129H264.963V19.8577H267.392V14.875H269.213V19.8577H272.826V21.4129H269.213V30.1488C269.213 31.6253 269.688 32.4169 271.403 32.4169C271.893 32.429 272.383 32.3665 272.854 32.2317V33.7896C272.262 33.8903 271.662 33.9429 271.061 33.9468C268.394 33.9468 267.392 32.9194 267.392 30.5165Z" class="logo-text"/>
<path d="M275.218 19.858H277.037V22.6006H277.09C278.174 20.8854 279.861 19.5941 282.606 19.5941H282.924L282.738 21.2784L282.177 21.2531C279.909 21.2531 278.115 22.5192 277.031 24.7088V33.7591H275.212L275.218 19.858Z" class="logo-text"/>
<path d="M284.085 30.5168C284.085 27.7742 286.435 25.7671 293.506 24.6863V23.9733C293.506 22.0476 292.504 21.124 290.682 21.124C288.493 21.124 286.935 22.0476 285.483 23.3136L284.509 22.1907C286.171 20.6608 288.097 19.6053 290.839 19.6053C293.955 19.6053 295.3 21.2672 295.3 24.0379V30.3427C295.3 32.027 295.407 33.0629 295.696 33.7731H293.823C293.611 33.1349 293.504 32.4665 293.506 31.794C291.895 33.2453 290.101 34.0117 288.018 34.0117C285.537 34.0005 284.085 32.6811 284.085 30.5168ZM293.506 30.3062V25.9776C287.541 26.9826 285.879 28.4591 285.879 30.281C285.879 31.7323 286.856 32.4958 288.406 32.4958C290.359 32.4958 292.08 31.6789 293.506 30.3147V30.3062Z" class="logo-text"/>
<path d="M297.922 26.8226C297.922 21.837 301.01 19.5941 304.12 19.5941C307.104 19.5941 308.581 21.3626 309.454 23.3922L307.899 24.08C307.132 22.2048 306.023 21.1493 304.072 21.1493C302.012 21.1493 299.744 22.6287 299.744 26.7973C299.744 30.4466 301.591 32.4958 304.019 32.4958C305.945 32.4958 307.026 31.6003 308.002 29.5399L309.482 30.1743C308.373 32.5239 306.762 34.0538 303.94 34.0538C300.746 34.0538 297.922 31.4375 297.922 26.8226Z" class="logo-text"/>
<path d="M313.097 30.5165V21.4129H310.672V19.8577H313.097V14.875H314.919V19.8577H318.535V21.4129H314.919V30.1488C314.919 31.6253 315.394 32.4169 317.109 32.4169C317.599 32.429 318.088 32.3665 318.56 32.2317V33.7896C317.967 33.8905 317.367 33.943 316.766 33.9468C314.099 33.9468 313.097 32.9194 313.097 30.5165Z" class="logo-text"/>
<path d="M319.653 26.8226C319.653 22.1795 322.53 19.5941 325.961 19.5941C329.391 19.5941 332.24 22.1795 332.24 26.8226C332.24 31.4656 329.363 34.0538 325.961 34.0538C322.558 34.0538 319.653 31.4375 319.653 26.8226ZM330.418 26.7973C330.418 23.7627 328.888 21.1493 325.961 21.1493C323.137 21.1493 321.469 23.5241 321.469 26.7973C321.469 29.8852 322.974 32.4958 325.961 32.4958C328.756 32.4958 330.418 30.149 330.418 26.7973Z" class="logo-text"/>
<path d="M335.041 19.858H336.863V22.6006H336.916C337.997 20.8854 339.684 19.5941 342.43 19.5941H342.747L342.562 21.2784L342 21.2531C339.729 21.2531 337.935 22.5192 336.855 24.7088V33.7591H335.033L335.041 19.858Z" class="logo-text"/>
<path d="M345.147 14.6869H343.886V14.2378H346.904V14.6869H345.66V18.2745H345.155L345.147 14.6869ZM347.62 14.2378H348.277L349.489 17.6064L350.722 14.2378H351.39V18.2745H350.873V15.1052L349.7 18.2745H349.27L348.097 15.1052V18.2745H347.625L347.62 14.2378Z" class="logo-text"/>
</svg>
