<svg width="257" height="48" viewBox="0 0 257 48" fill="none" xmlns="http://www.w3.org/2000/svg">
<path d="M22.8188 33.1485L25.3228 23.986L21.1766 8.55499H12L20.1941 39.445H29.4353L27.7706 33.2187L22.8188 33.1485Z" fill="#0063A3"/>
<path d="M30.968 8.55499L26.8442 23.986L28.9356 31.5709H34.0025L40.2288 8.55499H30.968Z" fill="#0063A3"/>
<path d="M57.0167 31.2045L50.229 11.5993H53.5976L58.6252 26.8338H58.6786L63.796 11.6105H66.912L60.1299 31.2157L57.0167 31.2045Z" fill="#171C1E"/>
<path d="M68.8208 14.6872V11.8632H72.1473V14.6872H68.8208ZM68.8489 31.1231V17.1126H72.1248V31.1231H68.8489Z" fill="#171C1E"/>
<path d="M74.4434 24.1334C74.4434 18.7998 78.2162 16.8488 81.1188 16.8488C84.2572 16.8488 87.2665 18.724 87.2665 24.4281V25.1945H77.6884C77.8204 27.7209 79.3727 28.8438 81.4332 28.8438C83.2551 28.8438 84.3105 28.2347 85.3632 27.2072L87.0784 28.8915C85.6271 30.5028 83.7098 31.418 81.1834 31.418C77.6884 31.4152 74.4434 29.2761 74.4434 24.1334ZM84.2853 22.7607C84.1 20.6216 83.0445 19.4875 81.0907 19.4875C79.5075 19.4875 78.0562 20.3858 77.739 22.7607H84.2853Z" fill="#171C1E"/>
<path d="M91.9211 31.1233L87.7524 17.1127H91.0509L92.5808 22.9179C93.0018 24.5012 93.2657 25.5819 93.6362 27.3785H93.6896C94.1107 25.4781 94.3493 24.4759 94.7984 22.8646L96.2666 17.1127H98.9053L100.477 22.9713C100.926 24.5264 101.165 25.5819 101.561 27.3785H101.6C102.021 25.5567 102.26 24.5545 102.706 23.0246L104.289 17.1127H107.245L103.077 31.1233H100.048L97.5214 21.388H97.468L94.9416 31.1233H91.9211Z" fill="#171C1E"/>
<path d="M108.899 36.4007V17.1127H112.155V18.9738C112.691 18.3082 113.37 17.7725 114.142 17.4068C114.914 17.0412 115.759 16.8552 116.613 16.8628C119.808 16.8628 122.154 19.2658 122.154 24.1193C122.154 28.9729 119.754 31.3253 116.164 31.3253C115.409 31.3312 114.661 31.1766 113.97 30.8717C113.279 30.5668 112.66 30.1186 112.155 29.5568V36.3894L108.899 36.4007ZM118.898 24.1334C118.898 21.1774 117.632 19.6195 115.546 19.6195C114.202 19.6195 112.908 20.4616 112.144 21.388V27.0023C112.526 27.5229 113.022 27.9499 113.593 28.2514C114.165 28.5529 114.797 28.7209 115.442 28.7427C117.907 28.7484 118.909 27.2465 118.909 24.1334H118.898Z" fill="#171C1E"/>
<path d="M123.777 24.1334C123.777 18.9598 127.179 16.8488 130.609 16.8488C134.04 16.8488 137.442 18.9598 137.442 24.1334C137.442 29.2508 134.015 31.4152 130.609 31.4152C127.204 31.4152 123.777 29.2508 123.777 24.1334ZM134.163 24.1334C134.163 21.5199 133.055 19.6195 130.601 19.6195C128.251 19.6195 127.039 21.3038 127.039 24.1334C127.039 26.7974 128.122 28.6978 130.601 28.6978C132.956 28.6978 134.163 27.0079 134.163 24.1334Z" fill="#171C1E"/>
<path d="M139.777 14.6872V11.8632H143.09V14.6872H139.777ZM139.803 31.1231V17.1126H143.076V31.1231H139.803Z" fill="#171C1E"/>
<path d="M146.113 31.1235V17.1129H149.358V19.3587C150.414 18.146 152.05 16.8519 154.372 16.8519C156.932 16.8519 158.515 18.1712 158.515 20.9419V31.1263H155.27V21.8626C155.27 20.3327 154.636 19.5411 153.159 19.5411C151.733 19.5411 150.546 20.2541 149.358 21.363V31.1235H146.113Z" fill="#171C1E"/>
<path d="M162.555 27.4569V19.6979H160.126V17.1125H162.555V12.2365H165.8V17.1125H169.413V19.6979H165.8V26.6372C165.8 28.1419 166.246 28.7482 167.857 28.7482C168.331 28.7497 168.803 28.6883 169.261 28.5658V31.1231C168.475 31.2449 167.681 31.3068 166.886 31.3084C163.318 31.3084 162.555 29.989 162.555 27.4569Z" fill="#171C1E"/>
<path d="M179.412 14.1104H181.338L187.171 31.1555H187.224L193.08 14.1104H194.902L188.053 33.7128H186.284L179.412 14.1104Z" fill="#171C1E"/>
<path d="M197.316 14.5571H199.242V16.5221H197.316V14.5571ZM197.367 19.7307H199.189V33.6345H197.367V19.7307Z" fill="#171C1E"/>
<path d="M201.687 31.4193L202.846 30.3638C203.368 31.0047 204.029 31.5184 204.779 31.8656C205.529 32.2129 206.349 32.3848 207.175 32.3681C209.55 32.3681 210.791 31.4979 210.791 29.9399C210.791 28.3819 209.668 27.8036 206.964 27.1692C203.77 26.3776 202.136 25.5354 202.136 23.1073C202.136 21.1422 203.851 19.4579 206.858 19.4579C209.233 19.4579 210.763 20.2496 212.003 21.4623L210.973 22.675C210.449 22.1273 209.818 21.6929 209.119 21.3984C208.421 21.1039 207.669 20.9556 206.911 20.9626C204.747 20.9626 203.902 21.9647 203.902 23.0202C203.902 24.3649 204.853 24.9207 207.27 25.499C210.754 26.3411 212.548 27.1833 212.548 29.9062C212.548 32.4326 210.28 33.8896 207.139 33.8896C204.668 33.898 202.743 32.8425 201.687 31.4193Z" fill="#171C1E"/>
<path d="M216.503 30.3891V21.2855H214.075V19.7303H216.503V14.7476H218.322V19.7303H221.938V21.2855H218.322V30.0214C218.322 31.4979 218.8 32.2896 220.512 32.2896C221.002 32.3016 221.492 32.2392 221.963 32.1043V33.6623C221.371 33.7632 220.771 33.8158 220.17 33.8195C217.506 33.8195 216.503 32.7892 216.503 30.3891Z" fill="#171C1E"/>
<path d="M223.819 30.3894C223.819 27.6468 226.168 25.6397 233.24 24.5589V23.8459C233.24 21.9202 232.238 20.9966 230.416 20.9966C228.226 20.9966 226.668 21.9202 225.22 23.1862L224.243 22.0634C225.905 20.5335 227.83 19.478 230.576 19.478C233.689 19.478 235.033 21.1398 235.033 23.9105V30.2154C235.033 31.8997 235.14 32.9327 235.429 33.6457H233.557C233.345 33.0076 233.237 32.3392 233.24 31.6667C231.631 33.118 229.835 33.8843 227.752 33.8843C225.27 33.8731 223.819 32.5537 223.819 30.3894ZM233.248 30.1873V25.8502C227.286 26.8552 225.621 28.3318 225.621 30.1536C225.621 31.6049 226.598 32.3684 228.147 32.3684C230.098 32.3684 231.814 31.5516 233.248 30.1873Z" fill="#171C1E"/>
<path d="M237.877 14.5568H236.616V14.1104H239.631V14.5568H238.382V18.1471H237.877V14.5568ZM240.347 14.1104H241.007L242.219 17.479L243.449 14.1104H244.117V18.1471H243.603V14.9778L242.427 18.1471H241.998L240.827 14.9778V18.1471H240.35L240.347 14.1104Z" fill="#171C1E"/>
</svg>
