<svg width="28.58" height="28.58" viewBox="13 9.71 28.58 28.58" fill="none" xmlns="http://www.w3.org/2000/svg">
<path d="M37.3783 9.70923H17.2032C14.8818 9.70923 13 11.591 13 13.9124V34.0875C13 36.4088 14.8818 38.2907 17.2032 38.2907H37.3783C39.6996 38.2907 41.5814 36.4088 41.5814 34.0875V13.9124C41.5814 11.591 39.6996 9.70923 37.3783 9.70923Z" fill="#FEC157"/>
<path d="M28.8599 23.6077V24.8406C28.8599 25.2329 28.5236 25.5691 28.1313 25.5691H21.9107C21.5184 25.5691 21.1821 25.2329 21.1821 24.8406V18.6199C21.1821 18.2276 21.5184 17.8914 21.9107 17.8914H28.1313C28.5236 17.8914 28.8599 18.2276 28.8599 18.6199V18.9562H31.1576V18.0034C31.1576 16.7145 30.0928 15.6497 28.8039 15.6497H21.2942C20.0053 15.6497 18.9405 16.7145 18.9405 18.0034V25.5131C18.9405 26.802 20.0053 27.8668 21.2942 27.8668H28.8039C30.0928 27.8668 31.1576 26.802 31.1576 25.5131V23.6637H28.8599V23.6077Z" fill="#F1F1F6"/>
<path d="M33.3433 20.133H25.8336C24.5447 20.133 23.4799 21.1978 23.4799 22.4868V24.3362H25.7776V23.1033C25.7776 22.711 26.1138 22.3747 26.5061 22.3747H32.7268C33.1191 22.3747 33.4553 22.711 33.4553 23.1033V29.3239C33.4553 29.7162 33.1191 30.0525 32.7268 30.0525H26.5061C26.1138 30.0525 25.7776 29.7162 25.7776 29.3239V28.9877H23.4799V29.9964C23.4799 31.2854 24.5447 32.3502 25.8336 32.3502H33.3433C34.6322 32.3502 35.697 31.2854 35.697 29.9964V22.4868C35.697 21.1978 34.6322 20.133 33.3433 20.133Z" fill="#F1F1F6"/>
</svg>
