<svg width="310" height="48" viewBox="0 0 310 48" fill="none" xmlns="http://www.w3.org/2000/svg">
<path d="M22.8188 33.1485L25.3228 23.986L21.1766 8.55499H12L20.1941 39.445H29.4353L27.7706 33.2187L22.8188 33.1485Z" fill="#019AEB"/>
<path d="M30.968 8.55499L26.8442 23.986L28.9356 31.5709H34.0025L40.2288 8.55499H30.968Z" fill="#019AEB"/>
<path d="M57.0167 31.2045L50.229 11.5993H53.5976L58.6252 26.8338H58.6786L63.796 11.6105H66.912L60.1299 31.2157L57.0167 31.2045Z" fill="#F1F1F6"/>
<path d="M68.8208 14.6872V11.8632H72.1473V14.6872H68.8208ZM68.8489 31.1231V17.1126H72.1248V31.1231H68.8489Z" fill="#F1F1F6"/>
<path d="M74.4434 24.1334C74.4434 18.7998 78.2162 16.8488 81.1188 16.8488C84.2572 16.8488 87.2665 18.724 87.2665 24.4281V25.1945H77.6884C77.8204 27.7209 79.3727 28.8438 81.4332 28.8438C83.255 28.8438 84.3105 28.2347 85.3632 27.2072L87.0784 28.8915C85.6271 30.5028 83.7098 31.418 81.1833 31.418C77.6884 31.4152 74.4434 29.2761 74.4434 24.1334ZM84.2853 22.7607C84.1 20.6216 83.0445 19.4875 81.0907 19.4875C79.5075 19.4875 78.0562 20.3858 77.739 22.7607H84.2853Z" fill="#F1F1F6"/>
<path d="M91.9211 31.1233L87.7524 17.1127H91.0509L92.5808 22.9179C93.0018 24.5012 93.2657 25.5819 93.6362 27.3785H93.6896C94.1107 25.4781 94.3493 24.4759 94.7984 22.8646L96.2666 17.1127H98.9053L100.477 22.9713C100.926 24.5264 101.165 25.5819 101.561 27.3785H101.6C102.021 25.5567 102.26 24.5545 102.706 23.0246L104.289 17.1127H107.245L103.077 31.1233H100.048L97.5214 21.388H97.468L94.9416 31.1233H91.9211Z" fill="#F1F1F6"/>
<path d="M108.899 36.4007V17.1127H112.155V18.9738C112.691 18.3082 113.37 17.7725 114.142 17.4068C114.914 17.0412 115.759 16.8552 116.613 16.8628C119.808 16.8628 122.154 19.2658 122.154 24.1193C122.154 28.9729 119.754 31.3253 116.164 31.3253C115.409 31.3312 114.661 31.1766 113.97 30.8717C113.279 30.5668 112.66 30.1186 112.155 29.5568V36.3894L108.899 36.4007ZM118.898 24.1334C118.898 21.1774 117.632 19.6195 115.546 19.6195C114.202 19.6195 112.908 20.4616 112.144 21.388V27.0023C112.526 27.5229 113.022 27.9499 113.593 28.2514C114.165 28.5529 114.797 28.7209 115.442 28.7427C117.907 28.7484 118.909 27.2465 118.909 24.1334H118.898Z" fill="#F1F1F6"/>
<path d="M123.777 24.1334C123.777 18.9598 127.179 16.8488 130.609 16.8488C134.04 16.8488 137.442 18.9598 137.442 24.1334C137.442 29.2508 134.015 31.4152 130.609 31.4152C127.204 31.4152 123.777 29.2508 123.777 24.1334ZM134.163 24.1334C134.163 21.5199 133.055 19.6195 130.601 19.6195C128.251 19.6195 127.039 21.3038 127.039 24.1334C127.039 26.7974 128.122 28.6978 130.601 28.6978C132.956 28.6978 134.163 27.0079 134.163 24.1334Z" fill="#F1F1F6"/>
<path d="M139.777 14.6872V11.8632H143.09V14.6872H139.777ZM139.803 31.1231V17.1126H143.076V31.1231H139.803Z" fill="#F1F1F6"/>
<path d="M146.113 31.1235V17.1129H149.358V19.3587C150.414 18.146 152.05 16.8519 154.372 16.8519C156.932 16.8519 158.515 18.1712 158.515 20.9419V31.1263H155.27V21.8626C155.27 20.3327 154.636 19.5411 153.159 19.5411C151.733 19.5411 150.546 20.2541 149.358 21.363V31.1235H146.113Z" fill="#F1F1F6"/>
<path d="M162.555 27.4569V19.6979H160.126V17.1125H162.555V12.2365H165.8V17.1125H169.413V19.6979H165.8V26.6372C165.8 28.1419 166.246 28.7482 167.857 28.7482C168.331 28.7497 168.803 28.6883 169.261 28.5658V31.1231C168.475 31.2449 167.681 31.3068 166.886 31.3084C163.318 31.3084 162.555 29.989 162.555 27.4569Z" fill="#F1F1F6"/>
<path d="M293.301 29.0936C293.304 28.6575 293.436 28.232 293.68 27.8707C293.924 27.5093 294.27 27.2284 294.673 27.0631C295.077 26.8979 295.521 26.8558 295.948 26.9422C296.375 27.0286 296.768 27.2395 297.076 27.5485C297.383 27.8574 297.593 28.2506 297.678 28.6784C297.762 29.1062 297.719 29.5495 297.552 29.9524C297.385 30.3554 297.103 30.7 296.741 30.9428C296.378 31.1856 295.952 31.3158 295.516 31.3169C295.224 31.3173 294.936 31.26 294.666 31.1483C294.397 31.0366 294.152 30.8727 293.946 30.666C293.74 30.4594 293.577 30.2141 293.467 29.9442C293.356 29.6744 293.3 29.3853 293.301 29.0936ZM297.425 29.0936C297.419 28.7173 297.303 28.3511 297.09 28.0409C296.877 27.7307 296.577 27.4904 296.227 27.3502C295.878 27.21 295.495 27.1762 295.127 27.253C294.758 27.3298 294.421 27.5138 294.157 27.7818C293.893 28.0499 293.714 28.39 293.642 28.7595C293.571 29.129 293.61 29.5114 293.755 29.8585C293.901 30.2057 294.145 30.5022 294.459 30.7107C294.772 30.9193 295.14 31.0305 295.516 31.0306C296.024 31.0246 296.51 30.8174 296.865 30.4543C297.221 30.0912 297.418 29.6019 297.414 29.0936H297.425ZM294.694 27.8248H295.547C296.108 27.8248 296.417 28.0718 296.417 28.5125C296.432 28.6718 296.385 28.8306 296.285 28.9554C296.185 29.0801 296.04 29.1609 295.881 29.1807L296.485 30.2867H296.108L295.527 29.2284H295.022V30.2867H294.677L294.694 27.8248ZM295.536 28.9477C295.878 28.9477 296.097 28.841 296.097 28.5266C296.097 28.2122 295.887 28.1364 295.536 28.1364H295.05V28.9477H295.536Z" fill="#F1F1F6"/>
<path d="M179.412 26.5167L181.074 25.9076C181.944 28.6277 183.923 30.0257 186.669 30.0257C189.596 30.0257 191.497 28.6782 191.497 26.4886C191.497 24.4563 190.52 23.4288 186.379 22.1095C182.169 20.7901 180.047 19.656 180.047 16.4362C180.047 13.629 182.553 11.4226 186.116 11.4226C189.782 11.4226 191.893 13.295 192.816 15.9141L191.233 16.6411C190.256 14.1147 188.541 13.1069 186.088 13.1069C183.477 13.1069 181.894 14.5105 181.894 16.2986C181.894 18.4882 183.185 19.2265 187.303 20.5459C191.365 21.84 193.369 23.1846 193.369 26.3511C193.369 29.5962 190.495 31.6847 186.59 31.6847C182.921 31.6875 180.336 29.6832 179.412 26.5167Z" fill="#F1F1F6"/>
<path d="M196.325 17.4129H198.138V19.3779C199.261 18.1905 200.699 17.1322 202.782 17.1322C205.976 17.1322 208.508 19.479 208.508 24.3354C208.508 29.1918 205.948 31.5386 202.613 31.5386C200.819 31.5386 199.368 30.6683 198.122 29.4023V36.5774H196.3L196.325 17.4129ZM206.695 24.3775C206.695 20.5261 204.797 18.7042 202.484 18.7042C200.766 18.7042 199.475 19.6025 198.155 21.0005V27.7545C199.528 29.2058 200.873 30.0255 202.484 30.0255C204.929 30.0255 206.695 28.3103 206.695 24.3775Z" fill="#F1F1F6"/>
<path d="M210.709 24.3523C210.709 19.4174 213.876 17.1492 216.807 17.1492C220.052 17.1492 222.477 19.6279 222.477 24.3776V24.7229H212.531C212.557 28.1504 214.51 30.0789 216.91 30.0789C218.996 30.0789 220.184 29.1807 221.239 27.5525L222.362 28.4508C221.146 30.4158 219.431 31.6173 216.795 31.6173C213.559 31.6089 210.709 29.1021 210.709 24.3523ZM220.711 23.2716C220.526 20.6329 219.26 18.6791 216.781 18.6791C214.777 18.6791 212.902 20.1304 212.571 23.2716H220.711Z" fill="#F1F1F6"/>
<path d="M224.593 24.3776C224.593 19.3921 227.681 17.1492 230.794 17.1492C233.776 17.1492 235.255 18.9177 236.128 20.9473L234.57 21.635C233.806 19.7598 232.698 18.7043 230.744 18.7043C228.686 18.7043 226.418 20.1837 226.418 24.3523C226.418 28.0017 228.265 30.0509 230.693 30.0509C232.619 30.0509 233.7 29.1554 234.677 27.0949L236.153 27.7294C235.047 30.079 233.436 31.6089 230.612 31.6089C227.417 31.6089 224.593 28.9926 224.593 24.3776Z" fill="#F1F1F6"/>
<path d="M239.769 28.0716V18.9679H237.343V17.4128H239.769V12.4301H241.591V17.4128H245.206V18.9679H241.591V27.7038C241.591 29.1804 242.065 29.972 243.78 29.972C244.27 29.9841 244.76 29.9216 245.231 29.7867V31.3447C244.639 31.4455 244.039 31.4981 243.438 31.5019C240.771 31.5019 239.769 30.4745 239.769 28.0716Z" fill="#F1F1F6"/>
<path d="M247.595 17.413H249.417V20.1556H249.471C250.551 18.4405 252.238 17.1492 254.984 17.1492H255.301L255.116 18.8335L254.554 18.8082C252.283 18.8082 250.49 20.0742 249.409 22.2638V31.3141H247.587L247.595 17.413Z" fill="#F1F1F6"/>
<path d="M257.37 27.4655V17.4131H259.189V27.1483C259.189 29.1133 260.031 30.0509 261.959 30.0509C263.728 30.0509 265.232 29.1021 266.788 27.6227V17.4131H268.635V31.317H266.788V29.1274C265.443 30.4467 263.675 31.6089 261.51 31.6089C258.751 31.6089 257.37 30.0509 257.37 27.4655Z" fill="#F1F1F6"/>
<path d="M272.166 17.413H273.988V19.6026C275.391 18.2299 276.994 17.1492 279.08 17.1492C281.43 17.1492 282.482 18.1766 282.906 19.656C284.357 18.2833 286.098 17.1492 288.156 17.1492C291.008 17.1492 292.167 18.7577 292.167 21.2645V31.3169H290.348V21.6069C290.348 19.6419 289.685 18.7043 287.735 18.7043C286.05 18.7043 284.647 19.6279 283.091 21.1325V31.3169H281.27V21.6069C281.27 19.6419 280.61 18.7043 278.631 18.7043C276.969 18.7043 275.543 19.6279 273.988 21.1325V31.3169H272.166V17.413Z" fill="#F1F1F6"/>
</svg>
