<svg width="92" height="30" viewBox="0 0 92 30" fill="none" xmlns="http://www.w3.org/2000/svg">
<path d="M3.65277 7.8974H2.0514V1.78668H0V0.476562H5.70418V1.78595H3.65277V7.89666V7.8974Z" class="logo-accent"/>
<path d="M8.56749 2.11597C8.647 2.11597 8.7385 2.12039 8.84426 2.1285C8.94927 2.13734 9.03478 2.14766 9.10003 2.16166L8.98152 3.61325C8.92977 3.59631 8.85626 3.58378 8.76175 3.57494C8.66725 3.56683 8.58549 3.56241 8.51648 3.56241C8.31322 3.56241 8.11596 3.5882 7.92469 3.63831C7.73343 3.68915 7.56241 3.77094 7.4109 3.88442C7.25939 3.99789 7.13938 4.14673 7.05163 4.33095C6.96387 4.51516 6.91962 4.74137 6.91962 5.00885V7.89657H5.34375V2.22281H6.53709L6.76961 3.17704H6.84686C6.96087 2.98398 7.10263 2.80714 7.27289 2.6465C7.44316 2.48587 7.63817 2.35692 7.85644 2.26039C8.07545 2.16387 8.31172 2.11523 8.56674 2.11523L8.56749 2.11597Z" class="logo-accent"/>
<path d="M10.2284 0C10.4624 0 10.6642 0.0530533 10.833 0.159897C11.0017 0.26674 11.0865 0.464954 11.0865 0.75601C11.0865 1.04707 11.0017 1.24233 10.833 1.35212C10.6642 1.46191 10.4624 1.51718 10.2284 1.51718C9.99439 1.51718 9.78812 1.46191 9.62161 1.35212C9.45435 1.24233 9.37109 1.04338 9.37109 0.75601C9.37109 0.468638 9.45435 0.266004 9.62161 0.159897C9.78887 0.0530533 9.99139 0 10.2284 0ZM11.0137 2.22308V7.89758H9.43785V2.22308H11.0137Z" class="logo-accent"/>
<path d="M18.7239 2.11621C19.378 2.11621 19.8738 2.28127 20.209 2.61138C20.5451 2.94148 20.7131 3.46981 20.7131 4.19782V7.89755H19.132V4.58319C19.132 4.17719 19.0615 3.87066 18.9204 3.66434C18.7794 3.45802 18.5604 3.35486 18.2641 3.35486C17.8471 3.35486 17.5508 3.50149 17.3753 3.79402C17.1998 4.08655 17.1121 4.50508 17.1121 5.05035V7.89755H15.5362V4.58319C15.5362 4.31277 15.5054 4.08582 15.4432 3.90308C15.3809 3.72034 15.2864 3.58328 15.1589 3.49191C15.0314 3.40054 14.8679 3.35486 14.6684 3.35486C14.3759 3.35486 14.1456 3.42707 13.9783 3.57076C13.8111 3.71444 13.6926 3.92592 13.6221 4.20519C13.5515 4.48445 13.5163 4.82488 13.5163 5.22794V7.89755H11.9404V2.22305H13.1443L13.3558 2.94885H13.4435C13.5605 2.75285 13.7076 2.59369 13.8853 2.47211C14.0623 2.35053 14.2581 2.26063 14.4719 2.20316C14.6856 2.14569 14.9024 2.11695 15.1229 2.11695C15.5467 2.11695 15.906 2.18474 16.2 2.32032C16.4948 2.4559 16.7213 2.66517 16.8795 2.94959H17.0191C17.1916 2.65853 17.4346 2.44706 17.7504 2.31516C18.0654 2.18326 18.3902 2.11695 18.7239 2.11695V2.11621Z" class="logo-accent"/>
<path d="M23.1845 0V1.83771C23.1845 2.05066 23.1785 2.26213 23.1665 2.47214C23.1545 2.68214 23.1395 2.84425 23.1222 2.9592H23.1845C23.336 2.72561 23.543 2.52666 23.8048 2.36308C24.0666 2.19877 24.4056 2.11698 24.8226 2.11698C25.4699 2.11698 25.9957 2.36603 26.3985 2.86341C26.8013 3.36078 27.003 4.09026 27.003 5.05112C27.003 5.69734 26.91 6.23966 26.724 6.67809C26.538 7.11651 26.2777 7.44662 25.9439 7.66768C25.6102 7.88947 25.2224 8 24.7814 8C24.3403 8 24.0238 7.92558 23.7793 7.77673C23.5348 7.62789 23.3368 7.46062 23.1852 7.2742H23.0765L22.8132 7.89831H21.6094V0H23.1852H23.1845ZM24.3156 3.35489C24.0403 3.35489 23.8213 3.41089 23.6593 3.52215C23.4973 3.63415 23.3795 3.80142 23.3053 4.02468C23.231 4.24795 23.1905 4.5309 23.1837 4.87206V5.03933C23.1837 5.59123 23.2662 6.01345 23.432 6.30598C23.597 6.59851 23.8985 6.74514 24.3358 6.74514C24.6599 6.74514 24.9171 6.59777 25.1084 6.30377C25.2997 6.00903 25.3949 5.5846 25.3949 5.02975C25.3949 4.4749 25.2981 4.05711 25.1054 3.77563C24.9126 3.49489 24.6486 3.35415 24.3148 3.35415L24.3156 3.35489Z" class="logo-accent"/>
<path d="M29.2272 7.89758H27.6514V0H29.2272V7.89758Z" class="logo-accent"/>
<path d="M32.5881 2.11621C33.1222 2.11621 33.582 2.21716 33.9675 2.41832C34.353 2.61948 34.6508 2.91127 34.8616 3.2937C35.0716 3.67613 35.1766 4.14329 35.1766 4.69446V5.44531H31.4518C31.4691 5.88226 31.6026 6.22416 31.8523 6.47322C32.1021 6.72153 32.4494 6.84606 32.8934 6.84606C33.2617 6.84606 33.5992 6.80922 33.906 6.7348C34.2128 6.66038 34.5278 6.54837 34.8518 6.39953V7.59765C34.566 7.73618 34.2668 7.83786 33.9555 7.90197C33.6435 7.96608 33.2654 7.9985 32.8214 7.9985C32.2431 7.9985 31.7301 7.89387 31.2845 7.68386C30.8383 7.47386 30.4887 7.15407 30.236 6.72448C29.9825 6.2949 29.8564 5.75331 29.8564 5.10046C29.8564 4.44761 29.9712 3.88466 30.2 3.44328C30.4287 3.00191 30.7483 2.67032 31.1585 2.44853C31.5681 2.22674 32.0451 2.11621 32.5896 2.11621H32.5881ZM32.5986 3.2178C32.2919 3.2178 32.0384 3.31433 31.8366 3.50739C31.6348 3.69971 31.5186 4.00329 31.4878 4.41593H33.699C33.6952 4.18603 33.6532 3.98118 33.5722 3.80139C33.4912 3.62234 33.3705 3.48012 33.2107 3.37475C33.0502 3.27012 32.8462 3.2178 32.5986 3.2178Z" class="logo-accent"/>
<path d="M35.5782 7.23467C35.5737 6.85298 35.8849 6.53982 36.2735 6.53613C36.2787 6.53613 36.284 6.53613 36.2892 6.53613C36.6823 6.53613 37.0003 6.8493 37.0003 7.23467C37.0003 7.62078 36.6815 7.9332 36.2892 7.9332C35.8962 7.9332 35.5782 7.62004 35.5782 7.23467ZM36.8713 7.23467C36.8653 6.91782 36.5997 6.66508 36.2772 6.67098C35.9547 6.67687 35.6974 6.93772 35.7034 7.25456C35.7087 7.56846 35.9705 7.81973 36.29 7.81825C36.611 7.81825 36.872 7.56257 36.872 7.24646C36.872 7.24204 36.872 7.23835 36.872 7.23393L36.8713 7.23467ZM36.0132 6.83677H36.3042C36.488 6.83677 36.5952 6.91487 36.5952 7.07109C36.6042 7.16983 36.5405 7.2612 36.443 7.28772L36.611 7.60162H36.4482L36.2915 7.30909H36.1685V7.60162H36.0125V6.83677H36.0132ZM36.2952 7.19193C36.3905 7.19193 36.443 7.16172 36.443 7.07993C36.443 6.99814 36.3905 6.96793 36.2915 6.96793H36.1685V7.19119H36.2945L36.2952 7.19193Z" class="logo-accent"/>
<path d="M8.96484 25H1.6875V12.1504H8.96484V13.9258H3.79688V17.415H8.63965V19.1816H3.79688V23.2158H8.96484V25ZM14.4457 15.0859C15.6762 15.0859 16.6049 15.3584 17.2318 15.9033C17.8646 16.4482 18.1811 17.2979 18.1811 18.4521V25H16.7133L16.3178 23.6201H16.2475C15.9721 23.9717 15.6879 24.2617 15.3949 24.4902C15.102 24.7188 14.7621 24.8887 14.3754 25C13.9945 25.1172 13.5287 25.1758 12.9779 25.1758C12.3979 25.1758 11.8793 25.0703 11.4223 24.8594C10.9652 24.6426 10.6049 24.3145 10.3412 23.875C10.0775 23.4355 9.9457 22.8789 9.9457 22.2051C9.9457 21.2031 10.3178 20.4502 11.0619 19.9463C11.8119 19.4424 12.9428 19.1641 14.4545 19.1113L16.142 19.0498V18.54C16.142 17.8662 15.9838 17.3857 15.6674 17.0986C15.3568 16.8115 14.9174 16.668 14.349 16.668C13.8627 16.668 13.391 16.7383 12.934 16.8789C12.477 17.0195 12.0316 17.1924 11.598 17.3975L10.9301 15.9385C11.4047 15.6865 11.9438 15.4814 12.5473 15.3232C13.1566 15.165 13.7895 15.0859 14.4457 15.0859ZM16.1332 20.3506L14.8764 20.3945C13.8451 20.4297 13.1215 20.6055 12.7055 20.9219C12.2895 21.2383 12.0814 21.6719 12.0814 22.2227C12.0814 22.7031 12.225 23.0547 12.5121 23.2773C12.7992 23.4941 13.1771 23.6025 13.6459 23.6025C14.3607 23.6025 14.9525 23.4004 15.4213 22.9961C15.8959 22.5859 16.1332 21.9854 16.1332 21.1943V20.3506ZM25.1033 15.0859C25.2674 15.0859 25.4461 15.0947 25.6395 15.1123C25.8328 15.1299 25.9998 15.1533 26.1404 15.1826L25.9471 17.1162C25.824 17.0811 25.6717 17.0547 25.49 17.0371C25.3143 17.0195 25.1561 17.0107 25.0154 17.0107C24.6463 17.0107 24.2947 17.0723 23.9607 17.1953C23.6268 17.3125 23.3309 17.4941 23.073 17.7402C22.8152 17.9805 22.6131 18.2822 22.4666 18.6455C22.3201 19.0088 22.2469 19.4307 22.2469 19.9111V25H20.1727V15.2705H21.7898L22.0711 16.9844H22.1678C22.3611 16.6387 22.6014 16.3223 22.8885 16.0352C23.1756 15.748 23.5037 15.5195 23.8729 15.3496C24.2479 15.1738 24.658 15.0859 25.1033 15.0859ZM30.6633 23.5059C30.9328 23.5059 31.1994 23.4824 31.4631 23.4355C31.7268 23.3828 31.967 23.3213 32.1838 23.251V24.8154C31.9553 24.915 31.6594 25 31.2961 25.0703C30.9328 25.1406 30.5549 25.1758 30.1623 25.1758C29.6115 25.1758 29.1164 25.085 28.677 24.9033C28.2375 24.7158 27.8889 24.3965 27.6311 23.9453C27.3732 23.4941 27.2443 22.8701 27.2443 22.0732V16.8438H25.9172V15.9209L27.341 15.1914L28.0178 13.1084H29.3186V15.2705H32.1047V16.8438H29.3186V22.0469C29.3186 22.5391 29.4416 22.9053 29.6877 23.1455C29.9338 23.3857 30.259 23.5059 30.6633 23.5059ZM35.3268 11.3242V14.7607C35.3268 15.1182 35.315 15.4668 35.2916 15.8066C35.274 16.1465 35.2535 16.4102 35.2301 16.5977H35.3443C35.5494 16.2578 35.8014 15.9795 36.1002 15.7627C36.399 15.54 36.733 15.373 37.1021 15.2617C37.4771 15.1504 37.8756 15.0947 38.2975 15.0947C39.0416 15.0947 39.6744 15.2207 40.1959 15.4727C40.7174 15.7188 41.1158 16.1025 41.3912 16.624C41.6725 17.1455 41.8131 17.8223 41.8131 18.6543V25H39.7477V19.041C39.7477 18.2852 39.5924 17.7197 39.2818 17.3447C38.9713 16.9639 38.4908 16.7734 37.8404 16.7734C37.2135 16.7734 36.7154 16.9053 36.3463 17.1689C35.983 17.4268 35.7223 17.8105 35.5641 18.3203C35.4059 18.8242 35.3268 19.4395 35.3268 20.166V25H33.2613V11.3242H35.3268ZM51.7588 24.9912L50.5283 20.4648C50.4697 20.2422 50.3994 19.9727 50.3174 19.6562C50.2354 19.3398 50.1533 19.0146 50.0713 18.6807C49.9893 18.3408 49.9131 18.0273 49.8428 17.7402C49.7783 17.4531 49.7285 17.2305 49.6934 17.0723H49.623C49.5938 17.2305 49.5469 17.4531 49.4824 17.7402C49.418 18.0273 49.3447 18.3408 49.2627 18.6807C49.1807 19.0205 49.0986 19.3516 49.0166 19.6738C48.9404 19.9961 48.8701 20.2715 48.8057 20.5L47.5137 24.9912H45.2461L42.5215 15.2617H44.6133L45.8789 20.0957C45.9609 20.4238 46.04 20.7783 46.1162 21.1592C46.1982 21.54 46.2686 21.9033 46.3271 22.249C46.3857 22.5947 46.4297 22.8789 46.459 23.1016H46.5293C46.5527 22.9434 46.585 22.7441 46.626 22.5039C46.667 22.2578 46.7139 22.0029 46.7666 21.7393C46.8193 21.4697 46.8721 21.2178 46.9248 20.9834C46.9775 20.7432 47.0273 20.5498 47.0742 20.4033L48.5684 15.2617H50.8271L52.2598 20.4033C52.3242 20.626 52.3945 20.9072 52.4707 21.2471C52.5469 21.5811 52.6143 21.918 52.6729 22.2578C52.7373 22.5918 52.7783 22.8701 52.7959 23.0928H52.8662C52.8896 22.8936 52.9307 22.624 52.9893 22.2842C53.0537 21.9385 53.127 21.5723 53.209 21.1855C53.291 20.793 53.376 20.4297 53.4639 20.0957L54.7559 15.2617H56.8125L54.0703 24.9912H51.7588ZM66.1957 20.1133C66.1957 20.9219 66.0902 21.6396 65.8793 22.2666C65.6684 22.8936 65.3607 23.4238 64.9564 23.8574C64.5521 24.2852 64.0658 24.6133 63.4975 24.8418C62.9291 25.0645 62.2875 25.1758 61.5727 25.1758C60.9047 25.1758 60.2924 25.0645 59.7357 24.8418C59.1791 24.6133 58.6957 24.2852 58.2855 23.8574C57.8812 23.4238 57.5678 22.8936 57.3451 22.2666C57.1225 21.6396 57.0111 20.9219 57.0111 20.1133C57.0111 19.041 57.1957 18.1328 57.5648 17.3887C57.9398 16.6387 58.473 16.0674 59.1645 15.6748C59.8559 15.2822 60.6791 15.0859 61.6342 15.0859C62.5307 15.0859 63.3217 15.2822 64.0072 15.6748C64.6928 16.0674 65.2289 16.6387 65.6156 17.3887C66.0023 18.1387 66.1957 19.0469 66.1957 20.1133ZM59.1381 20.1133C59.1381 20.8223 59.223 21.4287 59.393 21.9326C59.5687 22.4365 59.8383 22.8232 60.2016 23.0928C60.5648 23.3564 61.0336 23.4883 61.6078 23.4883C62.182 23.4883 62.6508 23.3564 63.0141 23.0928C63.3773 22.8232 63.6439 22.4365 63.8139 21.9326C63.9838 21.4287 64.0687 20.8223 64.0687 20.1133C64.0687 19.4043 63.9838 18.8037 63.8139 18.3115C63.6439 17.8135 63.3773 17.4355 63.0141 17.1777C62.6508 16.9141 62.1791 16.7822 61.599 16.7822C60.7436 16.7822 60.1195 17.0693 59.727 17.6436C59.3344 18.2178 59.1381 19.041 59.1381 20.1133ZM72.5994 15.0859C72.7635 15.0859 72.9422 15.0947 73.1355 15.1123C73.3289 15.1299 73.4959 15.1533 73.6365 15.1826L73.4432 17.1162C73.3201 17.0811 73.1678 17.0547 72.9861 17.0371C72.8103 17.0195 72.6521 17.0107 72.5115 17.0107C72.1424 17.0107 71.7908 17.0723 71.4568 17.1953C71.1228 17.3125 70.827 17.4941 70.5691 17.7402C70.3113 17.9805 70.1092 18.2822 69.9627 18.6455C69.8162 19.0088 69.743 19.4307 69.743 19.9111V25H67.6687V15.2705H69.2859L69.5672 16.9844H69.6639C69.8572 16.6387 70.0975 16.3223 70.3846 16.0352C70.6717 15.748 70.9998 15.5195 71.3689 15.3496C71.7439 15.1738 72.1541 15.0859 72.5994 15.0859ZM76.6037 11.3242V17.9336C76.6037 18.2324 76.592 18.5605 76.5686 18.918C76.5451 19.2695 76.5217 19.6006 76.4982 19.9111H76.5422C76.6945 19.7061 76.8762 19.4658 77.0871 19.1904C77.3039 18.915 77.509 18.6748 77.7023 18.4697L80.673 15.2705H83.0461L79.1525 19.4541L83.301 25H80.8752L77.7639 20.7285L76.6037 21.7217V25H74.5383V11.3242H76.6037ZM90.4957 22.2227C90.4957 22.8613 90.3404 23.4004 90.0299 23.8398C89.7193 24.2793 89.2652 24.6133 88.6676 24.8418C88.0758 25.0645 87.3492 25.1758 86.4879 25.1758C85.8082 25.1758 85.2223 25.126 84.7301 25.0264C84.2438 24.9326 83.7838 24.7861 83.3502 24.5869V22.8027C83.8131 23.0195 84.3316 23.207 84.9059 23.3652C85.4859 23.5234 86.0338 23.6025 86.5494 23.6025C87.2291 23.6025 87.7184 23.4971 88.0172 23.2861C88.316 23.0693 88.4654 22.7822 88.4654 22.4248C88.4654 22.2139 88.4039 22.0264 88.2809 21.8623C88.1637 21.6924 87.941 21.5195 87.6129 21.3438C87.2906 21.1621 86.816 20.9453 86.1891 20.6934C85.5738 20.4473 85.0553 20.2012 84.6334 19.9551C84.2115 19.709 83.8922 19.4131 83.6754 19.0674C83.4586 18.7158 83.3502 18.2676 83.3502 17.7227C83.3502 16.8613 83.69 16.208 84.3697 15.7627C85.0553 15.3115 85.9605 15.0859 87.0855 15.0859C87.6832 15.0859 88.2457 15.1475 88.773 15.2705C89.3063 15.3877 89.8277 15.5605 90.3375 15.7891L89.6871 17.3447C89.2477 17.1514 88.8053 16.9932 88.36 16.8701C87.9205 16.7412 87.4723 16.6768 87.0152 16.6768C86.482 16.6768 86.0748 16.7588 85.7936 16.9229C85.5182 17.0869 85.3805 17.3213 85.3805 17.626C85.3805 17.8545 85.4479 18.0479 85.5826 18.2061C85.7174 18.3643 85.9488 18.5225 86.277 18.6807C86.6109 18.8389 87.0738 19.0352 87.6656 19.2695C88.2457 19.4922 88.7467 19.7266 89.1686 19.9727C89.5963 20.2129 89.9244 20.5088 90.1529 20.8604C90.3814 21.2119 90.4957 21.666 90.4957 22.2227Z" class="logo-text"/>
</svg>
