<svg width="32" height="32" viewBox="0 0 32 32" fill="none" xmlns="http://www.w3.org/2000/svg">
<path d="M10.9874 20.2965L13.7167 21.8715L17.5668 24.0938L21.4168 21.8715V17.427L17.5668 15.2047L14.8471 13.6344C17.1484 12.3147 20.0671 12.2141 22.5303 13.6344C26.2126 15.7608 27.4723 20.4679 25.3484 24.1501C23.222 27.8324 18.5149 29.0921 14.8327 26.9681C12.3635 25.543 10.9898 22.9551 10.9898 20.2953L10.9874 20.2977V20.2965Z" class="logo-accent"/>
<path d="M21.3893 11.7035L18.66 10.1285L14.8099 7.90617L10.9599 10.1285V14.573L14.8099 16.7953L17.5297 18.3655C15.2283 19.6852 12.3096 19.7859 9.84637 18.3655C6.16774 16.2379 4.90796 11.5309 7.03196 7.84984C9.15835 4.16761 13.8654 2.90784 17.5464 5.03183C20.0156 6.45701 21.3893 9.04488 21.3893 11.7047V11.7035Z" class="logo-accent"/>
</svg>
