<svg width="272.91" height="28.58" viewBox="13 9.71 272.91 28.58" fill="none" xmlns="http://www.w3.org/2000/svg">
<path d="M37.3783 9.70923H17.2032C14.8818 9.70923 13 11.591 13 13.9124V34.0875C13 36.4088 14.8818 38.2907 17.2032 38.2907H37.3783C39.6996 38.2907 41.5814 36.4088 41.5814 34.0875V13.9124C41.5814 11.591 39.6996 9.70923 37.3783 9.70923Z" fill="#FEC157"/>
<path d="M28.8599 23.6077V24.8406C28.8599 25.2329 28.5236 25.5691 28.1313 25.5691H21.9107C21.5184 25.5691 21.1821 25.2329 21.1821 24.8406V18.6199C21.1821 18.2276 21.5184 17.8914 21.9107 17.8914H28.1313C28.5236 17.8914 28.8599 18.2276 28.8599 18.6199V18.9562H31.1576V18.0034C31.1576 16.7145 30.0928 15.6497 28.8039 15.6497H21.2942C20.0053 15.6497 18.9405 16.7145 18.9405 18.0034V25.5131C18.9405 26.802 20.0053 27.8668 21.2942 27.8668H28.8039C30.0928 27.8668 31.1576 26.802 31.1576 25.5131V23.6637H28.8599V23.6077Z" fill="#F1F1F6"/>
<path d="M33.3433 20.133H25.8336C24.5447 20.133 23.4799 21.1978 23.4799 22.4868V24.3362H25.7776V23.1033C25.7776 22.711 26.1138 22.3747 26.5061 22.3747H32.7268C33.1191 22.3747 33.4553 22.711 33.4553 23.1033V29.3239C33.4553 29.7162 33.1191 30.0525 32.7268 30.0525H26.5061C26.1138 30.0525 25.7776 29.7162 25.7776 29.3239V28.9877H23.4799V29.9964C23.4799 31.2854 24.5447 32.3502 25.8336 32.3502H33.3433C34.6322 32.3502 35.697 31.2854 35.697 29.9964V22.4868C35.697 21.1978 34.6322 20.133 33.3433 20.133Z" fill="#F1F1F6"/>
<path d="M53.7287 32.7986V20.1331H49.5815V17.4431H61.1822V20.1331H57.0351V32.7986H53.7287Z" fill="white"/>
<path d="M67.6831 20.8056C68.1315 20.8056 68.4677 20.8056 68.7479 20.9177L68.5237 23.9439C68.2435 23.8879 67.9633 23.8318 67.571 23.8318C66.5623 23.8318 65.7777 24.1121 65.1612 24.6164C64.6008 25.1208 64.3206 25.9054 64.3206 26.8021V32.7986H61.1262V21.0297H63.536L63.9843 22.9912H64.1525C64.5448 22.3187 64.9931 21.8143 65.6096 21.422C66.226 21.0297 66.8985 20.8056 67.6271 20.8056H67.6831Z" fill="white"/>
<path d="M70.6533 18.0035C70.6533 16.9387 71.2138 16.4343 72.3906 16.4343C73.5675 16.4343 74.128 16.9387 74.128 18.0035C74.128 19.0683 73.9598 18.9001 73.6796 19.1804C73.3994 19.4606 72.9511 19.5727 72.3906 19.5727C71.2138 19.5727 70.6533 19.0683 70.6533 18.0035ZM74.0159 32.7986H70.8215V21.0297H74.0159V32.7986Z" fill="white"/>
<path d="M83.9353 32.7986V25.9054C83.9353 25.0648 83.7672 24.4483 83.487 24C83.2068 23.5516 82.7584 23.3835 82.142 23.3835C81.5255 23.3835 80.7409 23.6637 80.3486 24.2802C79.9563 24.8966 79.7882 25.8494 79.7882 27.2504V32.7986H76.5938V21.0297H79.0597L79.508 22.5429H79.6761C80.0124 21.9825 80.4607 21.5902 81.0211 21.2539C81.6376 20.9737 82.3101 20.8056 83.0947 20.8056C84.832 20.8056 86.0649 21.366 86.6814 22.5429H86.9616C87.2978 21.9825 87.7462 21.5902 88.3626 21.2539C88.9791 20.9737 89.6516 20.8056 90.4362 20.8056C91.7812 20.8056 92.79 21.1418 93.4625 21.8143C94.135 22.4868 94.4712 23.6077 94.4712 25.1208V32.7986H91.2768V25.9054C91.2768 25.0648 91.1087 24.4483 90.8285 24C90.5483 23.5516 90.0999 23.3835 89.4835 23.3835C88.867 23.3835 88.1385 23.6637 87.7462 24.2241C87.3539 24.7846 87.1857 25.6812 87.1857 26.9142V32.7986H83.9353Z" fill="white"/>
<path d="M103.55 20.8056C104.951 20.8056 106.016 21.366 106.8 22.4308C107.585 23.4956 107.977 25.0087 107.977 26.8581C107.977 28.7075 107.585 30.2767 106.744 31.3975C105.96 32.4623 104.839 33.0227 103.438 33.0227C102.037 33.0227 100.972 32.5184 100.188 31.5096H99.9633L99.4029 32.7986H96.9371V16.4343H100.131V20.2452C100.131 20.7495 100.131 21.4781 100.019 22.5429H100.131C100.86 21.366 101.981 20.8056 103.438 20.8056H103.55ZM102.541 23.3835C101.757 23.3835 101.196 23.6077 100.804 24.1121C100.412 24.6164 100.244 25.401 100.244 26.5219V26.8581C100.244 28.1471 100.412 29.0438 100.804 29.5481C101.196 30.1086 101.757 30.3888 102.597 30.3888C103.438 30.3888 103.774 30.1086 104.166 29.4921C104.559 28.8756 104.727 27.979 104.727 26.8581C104.727 25.7373 104.503 24.8406 104.11 24.2802C103.718 23.7198 103.158 23.4396 102.485 23.4396L102.541 23.3835Z" fill="white"/>
<path d="M113.245 32.7986H110.051V16.4343H113.245V32.7986Z" fill="white"/>
<path d="M121.259 33.0227C119.354 33.0227 117.897 32.5184 116.832 31.4536C115.767 30.3888 115.207 28.9317 115.207 27.0262C115.207 25.1208 115.711 23.5516 116.664 22.4308C117.673 21.366 119.018 20.8056 120.755 20.8056C122.492 20.8056 123.725 21.2539 124.622 22.2066C125.575 23.1593 126.023 24.4483 126.023 26.1296V27.6987H118.457C118.457 28.5954 118.737 29.324 119.242 29.8283C119.746 30.3327 120.475 30.6129 121.371 30.6129C122.268 30.6129 122.772 30.5569 123.389 30.3888C124.005 30.2206 124.678 29.9965 125.35 29.6602V32.1261C124.79 32.4063 124.173 32.6304 123.557 32.7425C122.941 32.8546 122.156 32.9667 121.203 32.9667L121.259 33.0227ZM120.811 23.1033C120.138 23.1033 119.578 23.3275 119.186 23.7758C118.793 24.2241 118.569 24.8406 118.513 25.6252H122.997C122.997 24.8406 122.772 24.2241 122.38 23.7758C121.988 23.3275 121.427 23.1033 120.755 23.1033H120.811Z" fill="white"/>
<path d="M144.068 16.4343V27.0262C144.068 28.8756 143.508 30.3327 142.387 31.3975C141.266 32.4623 139.697 33.0227 137.736 33.0227C135.774 33.0227 134.261 32.4623 133.196 31.3975C132.131 30.3327 131.571 28.8756 131.571 26.9702V16.4343H133.476V27.0823C133.476 28.4273 133.869 29.4921 134.597 30.2206C135.326 30.9492 136.447 31.3415 137.904 31.3415C139.361 31.3415 140.37 30.9492 141.098 30.2206C141.827 29.4921 142.219 28.4273 142.219 27.0823V16.4343H144.124H144.068Z" fill="white"/>
<path d="M154.941 32.7986V24.8966C154.941 23.8879 154.716 23.1593 154.268 22.655C153.82 22.1506 153.091 21.9264 152.138 21.9264C151.186 21.9264 149.897 22.2627 149.336 22.9912C148.72 23.6637 148.44 24.8406 148.44 26.4098V32.8546H146.59V20.5814H148.103L148.384 22.2627H148.496C148.888 21.6462 149.392 21.1979 150.121 20.8616C150.793 20.5254 151.578 20.3572 152.419 20.3572C153.876 20.3572 154.997 20.6935 155.725 21.422C156.454 22.1506 156.846 23.2714 156.846 24.8406V32.8546H154.997L154.941 32.7986Z" fill="white"/>
<path d="M158.863 17.2189C158.863 16.7706 158.976 16.4903 159.2 16.2662C159.424 16.042 159.648 15.986 159.984 15.986C160.321 15.986 160.545 16.098 160.769 16.2662C160.993 16.4343 161.105 16.7706 161.105 17.2189C161.105 17.6672 160.993 17.9474 160.769 18.1716C160.545 18.3958 160.321 18.4518 159.984 18.4518C159.648 18.4518 159.424 18.3397 159.2 18.1716C158.976 17.9474 158.863 17.6672 158.863 17.2189ZM160.881 32.7986H159.032V20.5254H160.881V32.7986Z" fill="white"/>
<path d="M168.447 31.5096C168.783 31.5096 169.063 31.5096 169.399 31.4536C169.68 31.4536 169.96 31.3415 170.128 31.2854V32.6865C169.904 32.7986 169.624 32.8546 169.231 32.9107C168.839 32.9667 168.503 33.0227 168.166 33.0227C165.813 33.0227 164.636 31.7898 164.636 29.2679V21.9825H162.899V21.0858L164.636 20.3012L165.42 17.6672H166.485V20.5254H170.016V21.9825H166.485V29.2119C166.485 29.9404 166.653 30.5008 166.99 30.8931C167.326 31.2854 167.83 31.5096 168.447 31.5096Z" fill="white"/>
<path d="M171.697 20.5254H173.659L176.349 27.5306C176.909 29.0998 177.301 30.2767 177.469 31.0052H177.582C177.694 30.6129 177.862 29.9965 178.198 29.0438C178.534 28.091 179.543 25.2889 181.224 20.5814H183.186L177.918 34.5359C177.413 35.9369 176.797 36.8896 176.068 37.4501C175.396 38.0105 174.499 38.2907 173.49 38.2907C172.482 38.2907 172.37 38.2346 171.809 38.1226V36.6094C172.202 36.7215 172.65 36.7215 173.21 36.7215C174.499 36.7215 175.396 35.993 175.956 34.5919L176.629 32.8546L171.697 20.5254Z" fill="white"/>
<path d="M197.476 17.9474C195.683 17.9474 194.282 18.5639 193.217 19.7408C192.152 20.9177 191.648 22.5989 191.648 24.6725C191.648 26.746 192.152 28.4833 193.161 29.6042C194.17 30.7811 195.571 31.3415 197.42 31.3415C199.27 31.3415 199.886 31.1173 201.343 30.725V32.4063C200.223 32.8546 198.821 33.0227 197.14 33.0227C194.73 33.0227 192.881 32.2942 191.592 30.8371C190.303 29.38 189.631 27.3065 189.631 24.6164C189.631 21.9264 189.967 21.4781 190.583 20.1891C191.2 18.9001 192.096 17.9474 193.329 17.2749C194.506 16.6024 195.907 16.2662 197.533 16.2662C199.158 16.2662 200.727 16.6024 202.016 17.2189L201.231 18.8441C199.998 18.2837 198.765 17.9474 197.533 17.9474H197.476Z" fill="white"/>
<path d="M214.121 26.6339C214.121 28.6515 213.617 30.1646 212.608 31.2854C211.599 32.4063 210.198 32.9667 208.461 32.9667C206.723 32.9667 206.387 32.6865 205.547 32.1821C204.706 31.6777 204.033 30.9492 203.585 29.9965C203.137 29.0438 202.913 27.9229 202.913 26.6339C202.913 24.6164 203.417 23.1033 204.426 21.9825C205.434 20.8616 206.835 20.3012 208.573 20.3012C210.31 20.3012 211.655 20.8616 212.664 22.0385C213.673 23.2154 214.177 24.7285 214.177 26.69L214.121 26.6339ZM204.818 26.6339C204.818 28.2031 205.154 29.38 205.771 30.2206C206.387 31.0613 207.34 31.4536 208.517 31.4536C209.694 31.4536 210.646 31.0613 211.263 30.2206C211.879 29.38 212.216 28.2031 212.216 26.6339C212.216 25.0648 211.879 23.8879 211.263 23.1033C210.646 22.3187 209.694 21.8704 208.461 21.8704C207.228 21.8704 206.331 22.2627 205.715 23.0473C205.098 23.8318 204.762 25.0087 204.762 26.6339H204.818Z" fill="white"/>
<path d="M224.265 32.7986V24.8966C224.265 23.8879 224.04 23.1593 223.592 22.655C223.144 22.1506 222.415 21.9264 221.462 21.9264C220.51 21.9264 219.221 22.2627 218.66 22.9912C218.1 23.7198 217.764 24.8406 217.764 26.4098V32.8546H215.914V20.5814H217.427L217.708 22.2627H217.82C218.212 21.6462 218.716 21.1979 219.445 20.8616C220.117 20.5254 220.902 20.3572 221.743 20.3572C223.2 20.3572 224.321 20.6935 225.049 21.422C225.778 22.1506 226.17 23.2714 226.17 24.8406V32.8546H224.321L224.265 32.7986Z" fill="white"/>
<path d="M236.93 29.436C236.93 30.5569 236.482 31.4536 235.641 32.07C234.8 32.6865 233.624 33.0227 232.054 33.0227C230.485 33.0227 229.14 32.7425 228.244 32.2382V30.5008C228.86 30.7811 229.476 31.0613 230.149 31.2294C230.821 31.3975 231.494 31.5096 232.11 31.5096C233.063 31.5096 233.848 31.3415 234.352 31.0613C234.857 30.7811 235.137 30.2767 235.137 29.6602C235.137 29.0438 234.913 28.7635 234.52 28.4273C234.128 28.091 233.287 27.6987 232.11 27.2504C230.99 26.8021 230.149 26.4658 229.701 26.1296C229.196 25.7933 228.86 25.4571 228.636 25.0648C228.412 24.6725 228.3 24.1681 228.3 23.6077C228.3 22.5989 228.692 21.8143 229.533 21.2539C230.317 20.6935 231.438 20.4133 232.895 20.4133C234.352 20.4133 235.529 20.6935 236.762 21.1979L236.089 22.711C234.857 22.2066 233.736 21.9264 232.727 21.9264C231.718 21.9264 231.158 22.0385 230.765 22.3187C230.317 22.5989 230.093 22.9912 230.093 23.4396C230.093 23.8879 230.149 24.056 230.317 24.2802C230.485 24.5043 230.765 24.7285 231.102 24.9527C231.494 25.1769 232.166 25.4571 233.231 25.8494C234.688 26.3537 235.641 26.9142 236.202 27.4746C236.706 28.035 236.986 28.7075 236.986 29.4921L236.93 29.436Z" fill="white"/>
<path d="M243.935 31.5096C244.272 31.5096 244.552 31.5096 244.888 31.4536C245.168 31.4536 245.448 31.3415 245.617 31.2854V32.6865C245.392 32.7986 245.112 32.8546 244.72 32.9107C244.328 32.9667 243.991 33.0227 243.655 33.0227C241.301 33.0227 240.124 31.7898 240.124 29.2679V21.9825H238.387V21.0858L240.124 20.3012L240.909 17.6672H241.974V20.5254H245.504V21.9825H241.974V29.2119C241.974 29.9404 242.142 30.5008 242.478 30.8931C242.814 31.2854 243.319 31.5096 243.935 31.5096Z" fill="white"/>
<path d="M253.07 20.3012C253.631 20.3012 254.079 20.3012 254.527 20.4133L254.247 22.1506C253.743 22.0385 253.294 21.9825 252.902 21.9825C251.893 21.9825 251.053 22.3748 250.38 23.2154C249.708 24.056 249.315 25.0087 249.315 26.2417V32.7986H247.466V20.5254H248.979L249.203 22.767H249.315C249.764 21.9825 250.324 21.366 250.941 20.9177C251.557 20.4693 252.286 20.2452 253.07 20.2452V20.3012Z" fill="white"/>
<path d="M258.282 20.5254V28.4833C258.282 29.4921 258.506 30.2206 258.955 30.725C259.403 31.2294 260.131 31.4536 261.084 31.4536C262.037 31.4536 263.326 31.1173 263.886 30.3888C264.503 29.7163 264.783 28.5394 264.783 26.9702V20.5254H266.632V32.7986H265.119L264.839 31.1734H264.727C264.335 31.7898 263.83 32.2381 263.158 32.5744C262.485 32.9107 261.701 33.0788 260.86 33.0788C259.347 33.0788 258.282 32.7425 257.497 32.014C256.769 31.2854 256.377 30.1646 256.377 28.5954V20.5814H258.226L258.282 20.5254Z" fill="white"/>
<path d="M273.974 33.0227C272.181 33.0227 270.835 32.4623 269.883 31.3975C268.93 30.3327 268.426 28.7635 268.426 26.746C268.426 24.7285 268.93 23.1033 269.883 21.9825C270.892 20.8616 272.293 20.3012 274.086 20.3012C275.879 20.3012 275.263 20.3572 275.879 20.4693C276.496 20.5814 276.944 20.7495 277.28 20.9177L276.72 22.4868C276.328 22.3187 275.879 22.2066 275.375 22.0945C274.871 21.9825 274.478 21.9264 274.086 21.9264C271.62 21.9264 270.331 23.4956 270.331 26.69C270.331 29.8844 270.611 29.324 271.228 30.1646C271.844 30.9492 272.741 31.3975 273.918 31.3975C275.095 31.3975 275.991 31.1734 277.056 30.725V32.3502C276.216 32.7986 275.207 32.9667 273.974 32.9667V33.0227Z" fill="white"/>
<path d="M284.23 31.5096C284.566 31.5096 284.846 31.5096 285.182 31.4536C285.462 31.4536 285.743 31.3415 285.911 31.2854V32.6865C285.687 32.7986 285.406 32.8546 285.014 32.9107C284.622 32.9667 284.286 33.0227 283.949 33.0227C281.596 33.0227 280.419 31.7898 280.419 29.2679V21.9825H278.681V21.0858L280.419 20.3012L281.203 17.6672H282.268V20.5254H285.799V21.9825H282.268V29.2119C282.268 29.9404 282.436 30.5008 282.772 30.8931C283.109 31.2854 283.613 31.5096 284.23 31.5096Z" fill="white"/>
</svg>
