<svg width="313" height="48" viewBox="0 0 313 48" fill="none" xmlns="http://www.w3.org/2000/svg">
<path d="M22.8188 33.1485L25.3228 23.986L21.1766 8.55499H12L20.1941 39.445H29.4353L27.7706 33.2187L22.8188 33.1485Z" fill="#019AEB"/>
<path d="M30.968 8.55499L26.8442 23.986L28.9356 31.5709H34.0025L40.2288 8.55499H30.968Z" fill="#019AEB"/>
<path d="M57.0167 31.2046L50.229 11.5994H53.5976L58.6252 26.8338H58.6786L63.796 11.6106H66.912L60.1299 31.2158L57.0167 31.2046Z" fill="#F1F1F6"/>
<path d="M68.8208 14.687V11.863H72.1473V14.687H68.8208ZM68.8489 31.123V17.1124H72.1248V31.123H68.8489Z" fill="#F1F1F6"/>
<path d="M74.4409 24.133C74.4409 18.7994 78.2166 16.8484 81.1192 16.8484C84.2576 16.8484 87.2668 18.7236 87.2668 24.4277V25.1941H77.6888C77.8207 27.7205 79.3731 28.8434 81.4336 28.8434C83.2554 28.8434 84.3109 28.2342 85.3636 27.2068L87.0788 28.8911C85.6274 30.5024 83.7102 31.4176 81.1837 31.4176C77.6888 31.4147 74.4409 29.2757 74.4409 24.133ZM84.2828 22.7603C84.1004 20.6212 83.0449 19.4871 81.0911 19.4871C79.5078 19.4871 78.0565 20.3854 77.7393 22.7603H84.2828Z" fill="#F1F1F6"/>
<path d="M91.9211 31.1231L87.7524 17.1125H91.0509L92.5808 22.9178C93.0018 24.501 93.2657 25.5818 93.6362 27.3783H93.6896C94.1107 25.4779 94.3493 24.4757 94.7956 22.8644L96.2666 17.1125H98.9053L100.477 22.9711C100.926 24.5263 101.165 25.5818 101.561 27.3783H101.6C102.021 25.5565 102.26 24.5543 102.706 23.0244L104.289 17.1125H107.245L103.077 31.1231H100.048L97.5214 21.3879H97.468L94.9416 31.1231H91.9211Z" fill="#F1F1F6"/>
<path d="M108.898 36.4006V17.1126H112.155V18.9738C112.69 18.3081 113.369 17.7724 114.141 17.4068C114.913 17.0412 115.758 16.8552 116.613 16.8628C119.807 16.8628 122.154 19.2657 122.154 24.1193C122.154 28.9729 119.754 31.3253 116.163 31.3253C115.408 31.3311 114.66 31.1765 113.969 30.8716C113.278 30.5668 112.66 30.1186 112.155 29.5568V36.3894L108.898 36.4006ZM118.898 24.1333C118.898 21.1774 117.632 19.6194 115.546 19.6194C114.201 19.6194 112.907 20.4616 112.144 21.3879V27.0022C112.526 27.5228 113.021 27.9499 113.593 28.2513C114.164 28.5528 114.796 28.7208 115.442 28.7427C117.907 28.7483 118.909 27.2465 118.909 24.1333H118.898Z" fill="#F1F1F6"/>
<path d="M123.776 24.133C123.776 18.9594 127.179 16.8484 130.609 16.8484C134.039 16.8484 137.442 18.9594 137.442 24.133C137.442 29.2504 134.014 31.4147 130.609 31.4147C127.204 31.4147 123.776 29.2504 123.776 24.133ZM134.163 24.133C134.163 21.5195 133.054 19.6191 130.601 19.6191C128.251 19.6191 127.038 21.3034 127.038 24.133C127.038 26.797 128.119 28.6974 130.601 28.6974C132.956 28.6974 134.163 27.0075 134.163 24.133Z" fill="#F1F1F6"/>
<path d="M139.777 14.687V11.863H143.09V14.687H139.777ZM139.803 31.123V17.1124H143.076V31.123H139.803Z" fill="#F1F1F6"/>
<path d="M146.113 31.1232V17.1126H149.358V19.3584C150.414 18.1457 152.05 16.8516 154.372 16.8516C156.932 16.8516 158.515 18.1709 158.515 20.9416V31.126H155.27V21.8623C155.27 20.3324 154.636 19.5408 153.159 19.5408C151.733 19.5408 150.546 20.2538 149.358 21.3627V31.1232H146.113Z" fill="#F1F1F6"/>
<path d="M162.555 27.4568V19.6978H160.127V17.1124H162.555V12.2363H165.8V17.1124H169.413V19.6978H165.8V26.6371C165.8 28.1417 166.247 28.748 167.858 28.748C168.332 28.7495 168.804 28.6881 169.261 28.5656V31.1229C168.476 31.2447 167.682 31.3067 166.887 31.3082C163.319 31.3082 162.555 29.9888 162.555 27.4568Z" fill="#F1F1F6"/>
<path d="M294.605 14.5119H293.345V14.0627H296.362V14.5119H295.122V18.0994H294.616L294.605 14.5119ZM297.078 14.0627H297.735L298.948 17.4313L300.18 14.0627H300.848V18.0994H300.332V14.9302L299.158 18.0994H298.729L297.555 14.9302V18.0994H297.087L297.078 14.0627Z" fill="#F1F1F6"/>
<path d="M179.413 14.1047H190.838V15.8452H181.294V22.5824H188.365V24.2667H181.285V33.6342H179.413V14.1047Z" fill="#F1F1F6"/>
<path d="M193.306 14.551H195.231V16.516H193.306V14.551ZM193.356 19.7246H195.186V33.6285H193.365L193.356 19.7246Z" fill="#F1F1F6"/>
<path d="M197.994 26.6639C197.994 21.7177 201.16 19.4719 204.088 19.4719C207.333 19.4719 209.761 21.9506 209.761 26.7004V27.0428H199.813C199.841 30.4732 201.778 32.3989 204.195 32.3989C206.278 32.3989 207.465 31.5034 208.521 29.8725L209.643 30.7707C208.431 32.7217 206.715 33.9372 204.077 33.9372C200.843 33.9204 197.994 31.4136 197.994 26.6639ZM207.993 25.5803C207.807 22.9416 206.541 20.9906 204.063 20.9906C202.056 20.9906 200.183 22.4419 199.852 25.5803H207.993Z" fill="#F1F1F6"/>
<path d="M212.667 14.1047H214.489V33.6285H212.667V14.1047Z" fill="#F1F1F6"/>
<path d="M217.405 26.6892C217.405 21.8357 219.965 19.4608 223.3 19.4608C225.097 19.4608 226.705 20.4096 227.792 21.6223V14.1047H229.614V30.1982C229.614 31.8825 229.717 32.9155 230.035 33.6285H228.109C227.906 32.9699 227.799 32.2854 227.792 31.5962C226.669 32.8117 225.232 33.8671 223.149 33.8671C219.94 33.8671 217.405 31.5428 217.405 26.6892ZM227.775 30.041V23.287C226.402 21.8076 225.058 20.9907 223.449 20.9907C220.996 20.9907 219.238 22.7845 219.238 26.7145C219.238 30.5407 221.139 32.3092 223.449 32.3092C225.164 32.3092 226.456 31.439 227.775 30.041Z" fill="#F1F1F6"/>
<path d="M238.622 14.1047H240.547L246.378 31.1498H246.431L252.29 14.1047H254.109L247.248 33.7071H245.482L238.622 14.1047Z" fill="#F1F1F6"/>
<path d="M256.509 14.551H258.434V16.516H256.509V14.551ZM256.562 19.7246H258.381V33.6285H256.562V19.7246Z" fill="#F1F1F6"/>
<path d="M261.197 26.6639C261.197 21.7177 264.363 19.4719 267.291 19.4719C270.539 19.4719 272.964 21.9506 272.964 26.7004V27.0428H263.019C263.044 30.4732 264.998 32.3989 267.398 32.3989C269.484 32.3989 270.671 31.5034 271.726 29.8725L272.849 30.7707C271.634 32.7217 269.919 33.9372 267.28 33.9372C264.046 33.9204 261.197 31.4136 261.197 26.6639ZM271.199 25.5803C271.013 22.9416 269.747 20.9906 267.269 20.9906C265.264 20.9906 263.389 22.4419 263.058 25.5803H271.199Z" fill="#F1F1F6"/>
<path d="M274.015 19.7249H275.912L277.877 26.6108C278.38 28.3793 278.694 29.5387 279.171 31.3325H279.222C279.724 29.3675 279.988 28.3793 280.491 26.6108L282.388 19.7249H284.053L285.979 26.7428C286.478 28.4271 286.742 29.5134 287.191 31.3325H287.245C287.744 29.4601 288.008 28.4832 288.511 26.7961L290.543 19.7249H292.312L288.036 33.6287H286.352L283.214 22.2036H283.16L279.963 33.6287H278.279L274.015 19.7249Z" fill="#F1F1F6"/>
</svg>
