<svg width="32" height="32" viewBox="0 0 32 32" fill="none" xmlns="http://www.w3.org/2000/svg">
<path fill-rule="evenodd" clip-rule="evenodd" d="M4 9.11243V22.8836C4 23.3573 4.29759 23.7809 4.74593 23.9454L15.6031 27.9295C15.8592 28.0235 16.1408 28.0235 16.3969 27.9295L27.2541 23.9454C27.7024 23.7809 28 23.3573 28 22.8836V9.12779C28 8.61564 27.653 8.16725 27.1538 8.0343L15.9072 5.03882C15.7064 4.98534 15.4947 4.98715 15.2948 5.04404L6.26669 7.61434L6.23221 7.60106L6.22199 7.62707L4.82723 8.02416C4.33743 8.1636 4 8.60751 4 9.11243ZM10.6624 9.30824L16.037 11.3794L21.6933 9.51121L15.6258 7.89516L10.6624 9.30824ZM25.1429 11.3558L17.5429 13.866V24.4903L25.1429 21.7015V11.3558ZM14.6857 13.896L6.85714 10.8792V21.7015L14.6857 24.5742V13.896Z" class="logo-accent"/>
</svg>
