<svg width="72" height="30" viewBox="0 0 72 30" fill="none" xmlns="http://www.w3.org/2000/svg">
<path d="M3.65277 7.8974H2.0514V1.78668H0V0.476562H5.70418V1.78595H3.65277V7.89666V7.8974Z" class="logo-accent"/>
<path d="M8.56749 2.11597C8.647 2.11597 8.7385 2.12039 8.84426 2.1285C8.94927 2.13734 9.03478 2.14766 9.10003 2.16166L8.98152 3.61325C8.92977 3.59631 8.85626 3.58378 8.76175 3.57494C8.66725 3.56683 8.58549 3.56241 8.51648 3.56241C8.31322 3.56241 8.11596 3.5882 7.92469 3.63831C7.73343 3.68915 7.56241 3.77094 7.4109 3.88442C7.25939 3.99789 7.13938 4.14673 7.05163 4.33095C6.96387 4.51516 6.91962 4.74137 6.91962 5.00885V7.89657H5.34375V2.22281H6.53709L6.76961 3.17704H6.84686C6.96087 2.98398 7.10263 2.80714 7.27289 2.6465C7.44316 2.48587 7.63817 2.35692 7.85644 2.26039C8.07545 2.16387 8.31172 2.11523 8.56674 2.11523L8.56749 2.11597Z" class="logo-accent"/>
<path d="M10.2284 0C10.4624 0 10.6642 0.0530533 10.833 0.159897C11.0017 0.26674 11.0865 0.464954 11.0865 0.75601C11.0865 1.04707 11.0017 1.24233 10.833 1.35212C10.6642 1.46191 10.4624 1.51718 10.2284 1.51718C9.99439 1.51718 9.78812 1.46191 9.62161 1.35212C9.45435 1.24233 9.37109 1.04338 9.37109 0.75601C9.37109 0.468638 9.45435 0.266004 9.62161 0.159897C9.78887 0.0530533 9.99139 0 10.2284 0ZM11.0137 2.22308V7.89758H9.43785V2.22308H11.0137Z" class="logo-accent"/>
<path d="M18.7239 2.11621C19.378 2.11621 19.8738 2.28127 20.209 2.61138C20.5451 2.94148 20.7131 3.46981 20.7131 4.19782V7.89755H19.132V4.58319C19.132 4.17719 19.0615 3.87066 18.9204 3.66434C18.7794 3.45802 18.5604 3.35486 18.2641 3.35486C17.8471 3.35486 17.5508 3.50149 17.3753 3.79402C17.1998 4.08655 17.1121 4.50508 17.1121 5.05035V7.89755H15.5362V4.58319C15.5362 4.31277 15.5054 4.08582 15.4432 3.90308C15.3809 3.72034 15.2864 3.58328 15.1589 3.49191C15.0314 3.40054 14.8679 3.35486 14.6684 3.35486C14.3759 3.35486 14.1456 3.42707 13.9783 3.57076C13.8111 3.71444 13.6926 3.92592 13.6221 4.20519C13.5515 4.48445 13.5163 4.82488 13.5163 5.22794V7.89755H11.9404V2.22305H13.1443L13.3558 2.94885H13.4435C13.5605 2.75285 13.7076 2.59369 13.8853 2.47211C14.0623 2.35053 14.2581 2.26063 14.4719 2.20316C14.6856 2.14569 14.9024 2.11695 15.1229 2.11695C15.5467 2.11695 15.906 2.18474 16.2 2.32032C16.4948 2.4559 16.7213 2.66517 16.8795 2.94959H17.0191C17.1916 2.65853 17.4346 2.44706 17.7504 2.31516C18.0654 2.18326 18.3902 2.11695 18.7239 2.11695V2.11621Z" class="logo-accent"/>
<path d="M23.1845 0V1.83771C23.1845 2.05066 23.1785 2.26213 23.1665 2.47214C23.1545 2.68214 23.1395 2.84425 23.1222 2.9592H23.1845C23.336 2.72561 23.543 2.52666 23.8048 2.36308C24.0666 2.19877 24.4056 2.11698 24.8226 2.11698C25.4699 2.11698 25.9957 2.36603 26.3985 2.86341C26.8013 3.36078 27.003 4.09026 27.003 5.05112C27.003 5.69734 26.91 6.23966 26.724 6.67809C26.538 7.11651 26.2777 7.44662 25.9439 7.66768C25.6102 7.88947 25.2224 8 24.7814 8C24.3403 8 24.0238 7.92558 23.7793 7.77673C23.5348 7.62789 23.3368 7.46062 23.1852 7.2742H23.0765L22.8132 7.89831H21.6094V0H23.1852H23.1845ZM24.3156 3.35489C24.0403 3.35489 23.8213 3.41089 23.6593 3.52215C23.4973 3.63415 23.3795 3.80142 23.3053 4.02468C23.231 4.24795 23.1905 4.5309 23.1837 4.87206V5.03933C23.1837 5.59123 23.2662 6.01345 23.432 6.30598C23.597 6.59851 23.8985 6.74514 24.3358 6.74514C24.6599 6.74514 24.9171 6.59777 25.1084 6.30377C25.2997 6.00903 25.3949 5.5846 25.3949 5.02975C25.3949 4.4749 25.2981 4.05711 25.1054 3.77563C24.9126 3.49489 24.6486 3.35415 24.3148 3.35415L24.3156 3.35489Z" class="logo-accent"/>
<path d="M29.2272 7.89758H27.6514V0H29.2272V7.89758Z" class="logo-accent"/>
<path d="M32.5881 2.11621C33.1222 2.11621 33.582 2.21716 33.9675 2.41832C34.353 2.61948 34.6508 2.91127 34.8616 3.2937C35.0716 3.67613 35.1766 4.14329 35.1766 4.69446V5.44531H31.4518C31.4691 5.88226 31.6026 6.22416 31.8523 6.47322C32.1021 6.72153 32.4494 6.84606 32.8934 6.84606C33.2617 6.84606 33.5992 6.80922 33.906 6.7348C34.2128 6.66038 34.5278 6.54837 34.8518 6.39953V7.59765C34.566 7.73618 34.2668 7.83786 33.9555 7.90197C33.6435 7.96608 33.2654 7.9985 32.8214 7.9985C32.2431 7.9985 31.7301 7.89387 31.2845 7.68386C30.8383 7.47386 30.4887 7.15407 30.236 6.72448C29.9825 6.2949 29.8564 5.75331 29.8564 5.10046C29.8564 4.44761 29.9712 3.88466 30.2 3.44328C30.4287 3.00191 30.7483 2.67032 31.1585 2.44853C31.5681 2.22674 32.0451 2.11621 32.5896 2.11621H32.5881ZM32.5986 3.2178C32.2919 3.2178 32.0384 3.31433 31.8366 3.50739C31.6348 3.69971 31.5186 4.00329 31.4878 4.41593H33.699C33.6952 4.18603 33.6532 3.98118 33.5722 3.80139C33.4912 3.62234 33.3705 3.48012 33.2107 3.37475C33.0502 3.27012 32.8462 3.2178 32.5986 3.2178Z" class="logo-accent"/>
<path d="M35.5782 7.23467C35.5737 6.85298 35.8849 6.53982 36.2735 6.53613C36.2787 6.53613 36.284 6.53613 36.2892 6.53613C36.6823 6.53613 37.0003 6.8493 37.0003 7.23467C37.0003 7.62078 36.6815 7.9332 36.2892 7.9332C35.8962 7.9332 35.5782 7.62004 35.5782 7.23467ZM36.8713 7.23467C36.8653 6.91782 36.5997 6.66508 36.2772 6.67098C35.9547 6.67687 35.6974 6.93772 35.7034 7.25456C35.7087 7.56846 35.9705 7.81973 36.29 7.81825C36.611 7.81825 36.872 7.56257 36.872 7.24646C36.872 7.24204 36.872 7.23835 36.872 7.23393L36.8713 7.23467ZM36.0132 6.83677H36.3042C36.488 6.83677 36.5952 6.91487 36.5952 7.07109C36.6042 7.16983 36.5405 7.2612 36.443 7.28772L36.611 7.60162H36.4482L36.2915 7.30909H36.1685V7.60162H36.0125V6.83677H36.0132ZM36.2952 7.19193C36.3905 7.19193 36.443 7.16172 36.443 7.07993C36.443 6.99814 36.3905 6.96793 36.2915 6.96793H36.1685V7.19119H36.2945L36.2952 7.19193Z" class="logo-accent"/>
<path d="M9.65039 25L8.39355 21.4316H3.48047L2.22363 25H0L4.78125 12.0977H7.11914L11.8916 25H9.65039ZM7.84863 19.6211L6.62695 16.1055C6.58008 15.9531 6.5127 15.7393 6.4248 15.4639C6.33691 15.1826 6.24902 14.8984 6.16113 14.6113C6.07324 14.3184 6 14.0723 5.94141 13.873C5.88281 14.1133 5.80957 14.3828 5.72168 14.6816C5.63965 14.9746 5.55762 15.25 5.47559 15.5078C5.39941 15.7656 5.34082 15.9648 5.2998 16.1055L4.06934 19.6211H7.84863ZM17.5482 15.0859C18.6439 15.0859 19.4965 15.3701 20.1059 15.9385C20.7211 16.501 21.0287 17.4062 21.0287 18.6543V25H18.9633V19.041C18.9633 18.2852 18.808 17.7197 18.4975 17.3447C18.1869 16.9639 17.7064 16.7734 17.0561 16.7734C16.1127 16.7734 15.4564 17.0635 15.0873 17.6436C14.724 18.2236 14.5424 19.0645 14.5424 20.166V25H12.477V15.2705H14.0854L14.3754 16.5889H14.4896C14.7006 16.249 14.9613 15.9707 15.2719 15.7539C15.5883 15.5312 15.9398 15.3643 16.3266 15.2529C16.7191 15.1416 17.1264 15.0859 17.5482 15.0859ZM26.8348 15.0859C28.0652 15.0859 28.9939 15.3584 29.6209 15.9033C30.2537 16.4482 30.5701 17.2979 30.5701 18.4521V25H29.1023L28.7068 23.6201H28.6365C28.3611 23.9717 28.077 24.2617 27.784 24.4902C27.491 24.7188 27.1512 24.8887 26.7645 25C26.3836 25.1172 25.9178 25.1758 25.367 25.1758C24.7869 25.1758 24.2684 25.0703 23.8113 24.8594C23.3543 24.6426 22.9939 24.3145 22.7303 23.875C22.4666 23.4355 22.3348 22.8789 22.3348 22.2051C22.3348 21.2031 22.7068 20.4502 23.451 19.9463C24.201 19.4424 25.3318 19.1641 26.8436 19.1113L28.5311 19.0498V18.54C28.5311 17.8662 28.3729 17.3857 28.0564 17.0986C27.7459 16.8115 27.3064 16.668 26.7381 16.668C26.2518 16.668 25.7801 16.7383 25.323 16.8789C24.866 17.0195 24.4207 17.1924 23.9871 17.3975L23.3191 15.9385C23.7938 15.6865 24.3328 15.4814 24.9363 15.3232C25.5457 15.165 26.1785 15.0859 26.8348 15.0859ZM28.5223 20.3506L27.2654 20.3945C26.2342 20.4297 25.5105 20.6055 25.0945 20.9219C24.6785 21.2383 24.4705 21.6719 24.4705 22.2227C24.4705 22.7031 24.6141 23.0547 24.9012 23.2773C25.1883 23.4941 25.5662 23.6025 26.035 23.6025C26.7498 23.6025 27.3416 23.4004 27.8104 22.9961C28.285 22.5859 28.5223 21.9854 28.5223 21.1943V20.3506ZM34.6359 25H32.5617V11.3242H34.6359V25ZM35.2213 15.2705H37.4713L39.4664 20.8252C39.5543 21.0771 39.6334 21.3262 39.7037 21.5723C39.7799 21.8125 39.8443 22.0498 39.8971 22.2842C39.9557 22.5186 40.0025 22.7529 40.0377 22.9873H40.0904C40.149 22.6826 40.2311 22.3428 40.3365 21.9678C40.4479 21.5869 40.5709 21.2061 40.7057 20.8252L42.6217 15.2705H44.8453L40.6705 26.3359C40.4303 26.9688 40.1344 27.5078 39.7828 27.9531C39.4371 28.4043 39.027 28.7441 38.5523 28.9727C38.0777 29.207 37.5357 29.3242 36.9264 29.3242C36.6334 29.3242 36.3785 29.3066 36.1617 29.2715C35.9449 29.2422 35.7604 29.21 35.608 29.1748V27.5225C35.7311 27.5518 35.8863 27.5781 36.0738 27.6016C36.2613 27.625 36.4547 27.6367 36.6539 27.6367C37.023 27.6367 37.3424 27.5635 37.6119 27.417C37.8814 27.2705 38.11 27.0625 38.2975 26.793C38.485 26.5293 38.6402 26.2275 38.7633 25.8877L39.1061 24.9736L35.2213 15.2705ZM49.043 23.5059C49.3125 23.5059 49.5791 23.4824 49.8428 23.4355C50.1064 23.3828 50.3467 23.3213 50.5635 23.251V24.8154C50.335 24.915 50.0391 25 49.6758 25.0703C49.3125 25.1406 48.9346 25.1758 48.542 25.1758C47.9912 25.1758 47.4961 25.085 47.0566 24.9033C46.6172 24.7158 46.2686 24.3965 46.0107 23.9453C45.7529 23.4941 45.624 22.8701 45.624 22.0732V16.8438H44.2969V15.9209L45.7207 15.1914L46.3975 13.1084H47.6982V15.2705H50.4844V16.8438H47.6982V22.0469C47.6982 22.5391 47.8213 22.9053 48.0674 23.1455C48.3135 23.3857 48.6387 23.5059 49.043 23.5059ZM53.7064 15.2705V25H51.641V15.2705H53.7064ZM52.6869 11.5439C53.0033 11.5439 53.2758 11.6289 53.5043 11.7988C53.7387 11.9688 53.8559 12.2617 53.8559 12.6777C53.8559 13.0879 53.7387 13.3809 53.5043 13.5566C53.2758 13.7266 53.0033 13.8115 52.6869 13.8115C52.3588 13.8115 52.0805 13.7266 51.852 13.5566C51.6293 13.3809 51.518 13.0879 51.518 12.6777C51.518 12.2617 51.6293 11.9688 51.852 11.7988C52.0805 11.6289 52.3588 11.5439 52.6869 11.5439ZM59.6883 25.1758C58.7684 25.1758 57.9715 24.9971 57.2977 24.6396C56.6238 24.2822 56.1053 23.7344 55.742 22.9961C55.3787 22.2578 55.1971 21.3203 55.1971 20.1836C55.1971 19 55.3963 18.0332 55.7947 17.2832C56.1932 16.5332 56.7439 15.9795 57.4471 15.6221C58.1561 15.2646 58.9676 15.0859 59.8816 15.0859C60.4617 15.0859 60.9861 15.1445 61.4549 15.2617C61.9295 15.373 62.3309 15.5107 62.659 15.6748L62.0438 17.3271C61.6863 17.1807 61.3201 17.0576 60.9451 16.958C60.5701 16.8584 60.2098 16.8086 59.8641 16.8086C59.2957 16.8086 58.8211 16.9346 58.4402 17.1865C58.0652 17.4385 57.784 17.8135 57.5965 18.3115C57.4148 18.8096 57.324 19.4277 57.324 20.166C57.324 20.8809 57.4178 21.4844 57.6053 21.9766C57.7928 22.4629 58.0711 22.832 58.4402 23.084C58.8094 23.3301 59.2635 23.4531 59.8025 23.4531C60.3357 23.4531 60.8133 23.3887 61.2352 23.2598C61.657 23.1309 62.0555 22.9639 62.4305 22.7588V24.5518C62.0613 24.7627 61.6658 24.918 61.2439 25.0176C60.8221 25.123 60.3035 25.1758 59.6883 25.1758ZM70.3547 22.2227C70.3547 22.8613 70.1994 23.4004 69.8889 23.8398C69.5783 24.2793 69.1242 24.6133 68.5266 24.8418C67.9348 25.0645 67.2082 25.1758 66.3469 25.1758C65.6672 25.1758 65.0812 25.126 64.5891 25.0264C64.1027 24.9326 63.6428 24.7861 63.2092 24.5869V22.8027C63.6721 23.0195 64.1906 23.207 64.7648 23.3652C65.3449 23.5234 65.8928 23.6025 66.4084 23.6025C67.0881 23.6025 67.5773 23.4971 67.8762 23.2861C68.175 23.0693 68.3244 22.7822 68.3244 22.4248C68.3244 22.2139 68.2629 22.0264 68.1398 21.8623C68.0227 21.6924 67.8 21.5195 67.4719 21.3438C67.1496 21.1621 66.675 20.9453 66.048 20.6934C65.4328 20.4473 64.9143 20.2012 64.4924 19.9551C64.0705 19.709 63.7512 19.4131 63.5344 19.0674C63.3176 18.7158 63.2092 18.2676 63.2092 17.7227C63.2092 16.8613 63.549 16.208 64.2287 15.7627C64.9143 15.3115 65.8195 15.0859 66.9445 15.0859C67.5422 15.0859 68.1047 15.1475 68.632 15.2705C69.1652 15.3877 69.6867 15.5605 70.1965 15.7891L69.5461 17.3447C69.1066 17.1514 68.6643 16.9932 68.2189 16.8701C67.7795 16.7412 67.3312 16.6768 66.8742 16.6768C66.341 16.6768 65.9338 16.7588 65.6525 16.9229C65.3771 17.0869 65.2395 17.3213 65.2395 17.626C65.2395 17.8545 65.3068 18.0479 65.4416 18.2061C65.5764 18.3643 65.8078 18.5225 66.1359 18.6807C66.4699 18.8389 66.9328 19.0352 67.5246 19.2695C68.1047 19.4922 68.6057 19.7266 69.0275 19.9727C69.4553 20.2129 69.7834 20.5088 70.0119 20.8604C70.2404 21.2119 70.3547 21.666 70.3547 22.2227Z" class="logo-text"/>
</svg>
