<svg width="152" height="30" viewBox="0 0 152 30" fill="none" xmlns="http://www.w3.org/2000/svg">
<path d="M3.65277 7.8974H2.0514V1.78668H0V0.476562H5.70418V1.78595H3.65277V7.89666V7.8974Z" class="logo-accent"/>
<path d="M8.56749 2.11597C8.647 2.11597 8.7385 2.12039 8.84426 2.1285C8.94927 2.13734 9.03478 2.14766 9.10003 2.16166L8.98152 3.61325C8.92977 3.59631 8.85626 3.58378 8.76175 3.57494C8.66725 3.56683 8.58549 3.56241 8.51648 3.56241C8.31322 3.56241 8.11596 3.5882 7.92469 3.63831C7.73343 3.68915 7.56241 3.77094 7.4109 3.88442C7.25939 3.99789 7.13938 4.14673 7.05163 4.33095C6.96387 4.51516 6.91962 4.74137 6.91962 5.00885V7.89657H5.34375V2.22281H6.53709L6.76961 3.17704H6.84686C6.96087 2.98398 7.10263 2.80714 7.27289 2.6465C7.44316 2.48587 7.63817 2.35692 7.85644 2.26039C8.07545 2.16387 8.31172 2.11523 8.56674 2.11523L8.56749 2.11597Z" class="logo-accent"/>
<path d="M10.2284 0C10.4624 0 10.6642 0.0530533 10.833 0.159897C11.0017 0.26674 11.0865 0.464954 11.0865 0.75601C11.0865 1.04707 11.0017 1.24233 10.833 1.35212C10.6642 1.46191 10.4624 1.51718 10.2284 1.51718C9.99439 1.51718 9.78812 1.46191 9.62161 1.35212C9.45435 1.24233 9.37109 1.04338 9.37109 0.75601C9.37109 0.468638 9.45435 0.266004 9.62161 0.159897C9.78887 0.0530533 9.99139 0 10.2284 0ZM11.0137 2.22308V7.89758H9.43785V2.22308H11.0137Z" class="logo-accent"/>
<path d="M18.7239 2.11621C19.378 2.11621 19.8738 2.28127 20.209 2.61138C20.5451 2.94148 20.7131 3.46981 20.7131 4.19782V7.89755H19.132V4.58319C19.132 4.17719 19.0615 3.87066 18.9204 3.66434C18.7794 3.45802 18.5604 3.35486 18.2641 3.35486C17.8471 3.35486 17.5508 3.50149 17.3753 3.79402C17.1998 4.08655 17.1121 4.50508 17.1121 5.05035V7.89755H15.5362V4.58319C15.5362 4.31277 15.5054 4.08582 15.4432 3.90308C15.3809 3.72034 15.2864 3.58328 15.1589 3.49191C15.0314 3.40054 14.8679 3.35486 14.6684 3.35486C14.3759 3.35486 14.1456 3.42707 13.9783 3.57076C13.8111 3.71444 13.6926 3.92592 13.6221 4.20519C13.5515 4.48445 13.5163 4.82488 13.5163 5.22794V7.89755H11.9404V2.22305H13.1443L13.3558 2.94885H13.4435C13.5605 2.75285 13.7076 2.59369 13.8853 2.47211C14.0623 2.35053 14.2581 2.26063 14.4719 2.20316C14.6856 2.14569 14.9024 2.11695 15.1229 2.11695C15.5467 2.11695 15.906 2.18474 16.2 2.32032C16.4948 2.4559 16.7213 2.66517 16.8795 2.94959H17.0191C17.1916 2.65853 17.4346 2.44706 17.7504 2.31516C18.0654 2.18326 18.3902 2.11695 18.7239 2.11695V2.11621Z" class="logo-accent"/>
<path d="M23.1845 0V1.83771C23.1845 2.05066 23.1785 2.26213 23.1665 2.47214C23.1545 2.68214 23.1395 2.84425 23.1222 2.9592H23.1845C23.336 2.72561 23.543 2.52666 23.8048 2.36308C24.0666 2.19877 24.4056 2.11698 24.8226 2.11698C25.4699 2.11698 25.9957 2.36603 26.3985 2.86341C26.8013 3.36078 27.003 4.09026 27.003 5.05112C27.003 5.69734 26.91 6.23966 26.724 6.67809C26.538 7.11651 26.2777 7.44662 25.9439 7.66768C25.6102 7.88947 25.2224 8 24.7814 8C24.3403 8 24.0238 7.92558 23.7793 7.77673C23.5348 7.62789 23.3368 7.46062 23.1852 7.2742H23.0765L22.8132 7.89831H21.6094V0H23.1852H23.1845ZM24.3156 3.35489C24.0403 3.35489 23.8213 3.41089 23.6593 3.52215C23.4973 3.63415 23.3795 3.80142 23.3053 4.02468C23.231 4.24795 23.1905 4.5309 23.1837 4.87206V5.03933C23.1837 5.59123 23.2662 6.01345 23.432 6.30598C23.597 6.59851 23.8985 6.74514 24.3358 6.74514C24.6599 6.74514 24.9171 6.59777 25.1084 6.30377C25.2997 6.00903 25.3949 5.5846 25.3949 5.02975C25.3949 4.4749 25.2981 4.05711 25.1054 3.77563C24.9126 3.49489 24.6486 3.35415 24.3148 3.35415L24.3156 3.35489Z" class="logo-accent"/>
<path d="M29.2272 7.89758H27.6514V0H29.2272V7.89758Z" class="logo-accent"/>
<path d="M32.5881 2.11621C33.1222 2.11621 33.582 2.21716 33.9675 2.41832C34.353 2.61948 34.6508 2.91127 34.8616 3.2937C35.0716 3.67613 35.1766 4.14329 35.1766 4.69446V5.44531H31.4518C31.4691 5.88226 31.6026 6.22416 31.8523 6.47322C32.1021 6.72153 32.4494 6.84606 32.8934 6.84606C33.2617 6.84606 33.5992 6.80922 33.906 6.7348C34.2128 6.66038 34.5278 6.54837 34.8518 6.39953V7.59765C34.566 7.73618 34.2668 7.83786 33.9555 7.90197C33.6435 7.96608 33.2654 7.9985 32.8214 7.9985C32.2431 7.9985 31.7301 7.89387 31.2845 7.68386C30.8383 7.47386 30.4887 7.15407 30.236 6.72448C29.9825 6.2949 29.8564 5.75331 29.8564 5.10046C29.8564 4.44761 29.9712 3.88466 30.2 3.44328C30.4287 3.00191 30.7483 2.67032 31.1585 2.44853C31.5681 2.22674 32.0451 2.11621 32.5896 2.11621H32.5881ZM32.5986 3.2178C32.2919 3.2178 32.0384 3.31433 31.8366 3.50739C31.6348 3.69971 31.5186 4.00329 31.4878 4.41593H33.699C33.6952 4.18603 33.6532 3.98118 33.5722 3.80139C33.4912 3.62234 33.3705 3.48012 33.2107 3.37475C33.0502 3.27012 32.8462 3.2178 32.5986 3.2178Z" class="logo-accent"/>
<path d="M35.5782 7.23467C35.5737 6.85298 35.8849 6.53982 36.2735 6.53613C36.2787 6.53613 36.284 6.53613 36.2892 6.53613C36.6823 6.53613 37.0003 6.8493 37.0003 7.23467C37.0003 7.62078 36.6815 7.9332 36.2892 7.9332C35.8962 7.9332 35.5782 7.62004 35.5782 7.23467ZM36.8713 7.23467C36.8653 6.91782 36.5997 6.66508 36.2772 6.67098C35.9547 6.67687 35.6974 6.93772 35.7034 7.25456C35.7087 7.56846 35.9705 7.81973 36.29 7.81825C36.611 7.81825 36.872 7.56257 36.872 7.24646C36.872 7.24204 36.872 7.23835 36.872 7.23393L36.8713 7.23467ZM36.0132 6.83677H36.3042C36.488 6.83677 36.5952 6.91487 36.5952 7.07109C36.6042 7.16983 36.5405 7.2612 36.443 7.28772L36.611 7.60162H36.4482L36.2915 7.30909H36.1685V7.60162H36.0125V6.83677H36.0132ZM36.2952 7.19193C36.3905 7.19193 36.443 7.16172 36.443 7.07993C36.443 6.99814 36.3905 6.96793 36.2915 6.96793H36.1685V7.19119H36.2945L36.2952 7.19193Z" class="logo-accent"/>
<path d="M8.96484 25H1.6875V12.1504H8.96484V13.9258H3.79688V17.415H8.63965V19.1816H3.79688V23.2158H8.96484V25ZM17.1703 22.2227C17.1703 22.8613 17.015 23.4004 16.7045 23.8398C16.3939 24.2793 15.9398 24.6133 15.3422 24.8418C14.7504 25.0645 14.0238 25.1758 13.1625 25.1758C12.4828 25.1758 11.8969 25.126 11.4047 25.0264C10.9184 24.9326 10.4584 24.7861 10.0248 24.5869V22.8027C10.4877 23.0195 11.0063 23.207 11.5805 23.3652C12.1605 23.5234 12.7084 23.6025 13.224 23.6025C13.9037 23.6025 14.393 23.4971 14.6918 23.2861C14.9906 23.0693 15.14 22.7822 15.14 22.4248C15.14 22.2139 15.0785 22.0264 14.9555 21.8623C14.8383 21.6924 14.6156 21.5195 14.2875 21.3438C13.9652 21.1621 13.4906 20.9453 12.8637 20.6934C12.2484 20.4473 11.7299 20.2012 11.308 19.9551C10.8861 19.709 10.5668 19.4131 10.35 19.0674C10.1332 18.7158 10.0248 18.2676 10.0248 17.7227C10.0248 16.8613 10.3646 16.208 11.0443 15.7627C11.7299 15.3115 12.6352 15.0859 13.7602 15.0859C14.3578 15.0859 14.9203 15.1475 15.4477 15.2705C15.9809 15.3877 16.5023 15.5605 17.0121 15.7891L16.3617 17.3447C15.9223 17.1514 15.4799 16.9932 15.0346 16.8701C14.5951 16.7412 14.1469 16.6768 13.6898 16.6768C13.1566 16.6768 12.7494 16.7588 12.4682 16.9229C12.1928 17.0869 12.0551 17.3213 12.0551 17.626C12.0551 17.8545 12.1225 18.0479 12.2572 18.2061C12.392 18.3643 12.6234 18.5225 12.9516 18.6807C13.2855 18.8389 13.7484 19.0352 14.3402 19.2695C14.9203 19.4922 15.4213 19.7266 15.8432 19.9727C16.2709 20.2129 16.599 20.5088 16.8275 20.8604C17.0561 21.2119 17.1703 21.666 17.1703 22.2227ZM22.1238 23.5059C22.3934 23.5059 22.66 23.4824 22.9236 23.4355C23.1873 23.3828 23.4275 23.3213 23.6443 23.251V24.8154C23.4158 24.915 23.1199 25 22.7566 25.0703C22.3934 25.1406 22.0154 25.1758 21.6229 25.1758C21.0721 25.1758 20.577 25.085 20.1375 24.9033C19.698 24.7158 19.3494 24.3965 19.0916 23.9453C18.8338 23.4941 18.7049 22.8701 18.7049 22.0732V16.8438H17.3777V15.9209L18.8016 15.1914L19.4783 13.1084H20.7791V15.2705H23.5652V16.8438H20.7791V22.0469C20.7791 22.5391 20.9021 22.9053 21.1482 23.1455C21.3943 23.3857 21.7195 23.5059 22.1238 23.5059ZM26.7873 15.2705V25H24.7219V15.2705H26.7873ZM25.7678 11.5439C26.0842 11.5439 26.3566 11.6289 26.5852 11.7988C26.8195 11.9688 26.9367 12.2617 26.9367 12.6777C26.9367 13.0879 26.8195 13.3809 26.5852 13.5566C26.3566 13.7266 26.0842 13.8115 25.7678 13.8115C25.4396 13.8115 25.1613 13.7266 24.9328 13.5566C24.7102 13.3809 24.5988 13.0879 24.5988 12.6777C24.5988 12.2617 24.7102 11.9688 24.9328 11.7988C25.1613 11.6289 25.4396 11.5439 25.7678 11.5439ZM39.8443 15.0859C40.9342 15.0859 41.7545 15.3672 42.3053 15.9297C42.8619 16.4922 43.1402 17.3945 43.1402 18.6367V25H41.0748V19.0059C41.0748 18.2676 40.9312 17.7109 40.6441 17.3359C40.357 16.9609 39.9205 16.7734 39.3346 16.7734C38.5143 16.7734 37.9225 17.0371 37.5592 17.5645C37.2018 18.0859 37.023 18.8447 37.023 19.8408V25H34.9576V19.0059C34.9576 18.5137 34.8932 18.1035 34.7643 17.7754C34.6412 17.4414 34.4508 17.1924 34.193 17.0283C33.9352 16.8584 33.61 16.7734 33.2174 16.7734C32.649 16.7734 32.1949 16.9023 31.8551 17.1602C31.5211 17.418 31.2809 17.7988 31.1344 18.3027C30.9879 18.8008 30.9146 19.4131 30.9146 20.1396V25H28.8492V15.2705H30.4576L30.7477 16.5801H30.8619C31.0611 16.2402 31.3072 15.9619 31.6002 15.7451C31.899 15.5225 32.2301 15.3584 32.5934 15.2529C32.9566 15.1416 33.3346 15.0859 33.7271 15.0859C34.4537 15.0859 35.066 15.2148 35.5641 15.4727C36.0621 15.7246 36.4342 16.1113 36.6803 16.6328H36.8385C37.1432 16.1055 37.568 15.7158 38.1129 15.4639C38.6578 15.2119 39.235 15.0859 39.8443 15.0859ZM48.9375 15.0859C50.168 15.0859 51.0967 15.3584 51.7236 15.9033C52.3564 16.4482 52.6729 17.2979 52.6729 18.4521V25H51.2051L50.8096 23.6201H50.7393C50.4639 23.9717 50.1797 24.2617 49.8867 24.4902C49.5938 24.7188 49.2539 24.8887 48.8672 25C48.4863 25.1172 48.0205 25.1758 47.4697 25.1758C46.8896 25.1758 46.3711 25.0703 45.9141 24.8594C45.457 24.6426 45.0967 24.3145 44.833 23.875C44.5693 23.4355 44.4375 22.8789 44.4375 22.2051C44.4375 21.2031 44.8096 20.4502 45.5537 19.9463C46.3037 19.4424 47.4346 19.1641 48.9463 19.1113L50.6338 19.0498V18.54C50.6338 17.8662 50.4756 17.3857 50.1592 17.0986C49.8486 16.8115 49.4092 16.668 48.8408 16.668C48.3545 16.668 47.8828 16.7383 47.4258 16.8789C46.9688 17.0195 46.5234 17.1924 46.0898 17.3975L45.4219 15.9385C45.8965 15.6865 46.4355 15.4814 47.0391 15.3232C47.6484 15.165 48.2812 15.0859 48.9375 15.0859ZM50.625 20.3506L49.3682 20.3945C48.3369 20.4297 47.6133 20.6055 47.1973 20.9219C46.7812 21.2383 46.5732 21.6719 46.5732 22.2227C46.5732 22.7031 46.7168 23.0547 47.0039 23.2773C47.291 23.4941 47.6689 23.6025 48.1377 23.6025C48.8525 23.6025 49.4443 23.4004 49.9131 22.9961C50.3877 22.5859 50.625 21.9854 50.625 21.1943V20.3506ZM58.2855 23.5059C58.5551 23.5059 58.8217 23.4824 59.0854 23.4355C59.349 23.3828 59.5893 23.3213 59.8061 23.251V24.8154C59.5775 24.915 59.2816 25 58.9184 25.0703C58.5551 25.1406 58.1771 25.1758 57.7846 25.1758C57.2338 25.1758 56.7387 25.085 56.2992 24.9033C55.8598 24.7158 55.5111 24.3965 55.2533 23.9453C54.9955 23.4941 54.8666 22.8701 54.8666 22.0732V16.8438H53.5395V15.9209L54.9633 15.1914L55.64 13.1084H56.9408V15.2705H59.727V16.8438H56.9408V22.0469C56.9408 22.5391 57.0639 22.9053 57.31 23.1455C57.5561 23.3857 57.8812 23.5059 58.2855 23.5059ZM62.949 15.2705V25H60.8836V15.2705H62.949ZM61.9295 11.5439C62.2459 11.5439 62.5184 11.6289 62.7469 11.7988C62.9813 11.9688 63.0984 12.2617 63.0984 12.6777C63.0984 13.0879 62.9813 13.3809 62.7469 13.5566C62.5184 13.7266 62.2459 13.8115 61.9295 13.8115C61.6014 13.8115 61.323 13.7266 61.0945 13.5566C60.8719 13.3809 60.7605 13.0879 60.7605 12.6777C60.7605 12.2617 60.8719 11.9688 61.0945 11.7988C61.323 11.6289 61.6014 11.5439 61.9295 11.5439ZM73.6242 20.1133C73.6242 20.9219 73.5187 21.6396 73.3078 22.2666C73.0969 22.8936 72.7893 23.4238 72.385 23.8574C71.9807 24.2852 71.4943 24.6133 70.926 24.8418C70.3576 25.0645 69.716 25.1758 69.0012 25.1758C68.3332 25.1758 67.7209 25.0645 67.1643 24.8418C66.6076 24.6133 66.1242 24.2852 65.7141 23.8574C65.3098 23.4238 64.9963 22.8936 64.7736 22.2666C64.551 21.6396 64.4396 20.9219 64.4396 20.1133C64.4396 19.041 64.6242 18.1328 64.9934 17.3887C65.3684 16.6387 65.9016 16.0674 66.593 15.6748C67.2844 15.2822 68.1076 15.0859 69.0627 15.0859C69.9592 15.0859 70.7502 15.2822 71.4357 15.6748C72.1213 16.0674 72.6574 16.6387 73.0441 17.3887C73.4309 18.1387 73.6242 19.0469 73.6242 20.1133ZM66.5666 20.1133C66.5666 20.8223 66.6516 21.4287 66.8215 21.9326C66.9973 22.4365 67.2668 22.8232 67.6301 23.0928C67.9934 23.3564 68.4621 23.4883 69.0363 23.4883C69.6105 23.4883 70.0793 23.3564 70.4426 23.0928C70.8059 22.8232 71.0725 22.4365 71.2424 21.9326C71.4123 21.4287 71.4973 20.8223 71.4973 20.1133C71.4973 19.4043 71.4123 18.8037 71.2424 18.3115C71.0725 17.8135 70.8059 17.4355 70.4426 17.1777C70.0793 16.9141 69.6076 16.7822 69.0275 16.7822C68.1721 16.7822 67.548 17.0693 67.1555 17.6436C66.7629 18.2178 66.5666 19.041 66.5666 20.1133ZM80.1686 15.0859C81.2643 15.0859 82.1168 15.3701 82.7262 15.9385C83.3414 16.501 83.649 17.4062 83.649 18.6543V25H81.5836V19.041C81.5836 18.2852 81.4283 17.7197 81.1178 17.3447C80.8072 16.9639 80.3268 16.7734 79.6764 16.7734C78.733 16.7734 78.0768 17.0635 77.7076 17.6436C77.3443 18.2236 77.1627 19.0645 77.1627 20.166V25H75.0973V15.2705H76.7057L76.9957 16.5889H77.11C77.3209 16.249 77.5816 15.9707 77.8922 15.7539C78.2086 15.5312 78.5602 15.3643 78.9469 15.2529C79.3395 15.1416 79.7467 15.0859 80.1686 15.0859Z" class="logo-text"/>
<path d="M101.584 18.4521C101.584 19.8877 101.329 21.0918 100.819 22.0645C100.315 23.0371 99.5654 23.7695 98.5693 24.2617C97.5791 24.7539 96.3516 25 94.8867 25H91.8105V12.1504H95.291C96.6621 12.1504 97.8135 12.3906 98.7451 12.8711C99.6768 13.3516 100.383 14.0605 100.863 14.998C101.344 15.9297 101.584 17.0811 101.584 18.4521ZM100.635 18.4873C100.635 17.2627 100.436 16.2402 100.037 15.4199C99.6387 14.5996 99.0293 13.9844 98.209 13.5742C97.3887 13.1582 96.3486 12.9502 95.0889 12.9502H92.7158V24.2002H94.8428C96.7822 24.2002 98.2324 23.7256 99.1934 22.7764C100.154 21.8213 100.635 20.3916 100.635 18.4873ZM107.012 15.2617C107.827 15.2617 108.503 15.4521 109.042 15.833C109.587 16.2139 109.992 16.7354 110.255 17.3975C110.525 18.0596 110.66 18.8184 110.66 19.6738V20.3154H103.76C103.76 21.6279 104.062 22.6357 104.665 23.3389C105.275 24.042 106.145 24.3936 107.276 24.3936C107.868 24.3936 108.38 24.3467 108.814 24.2529C109.253 24.1533 109.74 23.9863 110.273 23.752V24.5693C109.804 24.7803 109.335 24.9326 108.867 25.0264C108.398 25.126 107.859 25.1758 107.249 25.1758C106.283 25.1758 105.471 24.9766 104.815 24.5781C104.164 24.1738 103.672 23.6055 103.338 22.873C103.01 22.1406 102.846 21.2852 102.846 20.3066C102.846 19.3516 103.004 18.4932 103.321 17.7314C103.643 16.9697 104.112 16.3691 104.727 15.9297C105.348 15.4844 106.11 15.2617 107.012 15.2617ZM107.003 16.0264C106.089 16.0264 105.348 16.3311 104.78 16.9404C104.217 17.5439 103.886 18.417 103.787 19.5596H109.737C109.737 18.8623 109.637 18.2471 109.438 17.7139C109.239 17.1807 108.937 16.7676 108.533 16.4746C108.134 16.1758 107.624 16.0264 107.003 16.0264ZM118.364 22.4951C118.364 23.0635 118.221 23.5498 117.933 23.9541C117.652 24.3525 117.239 24.6572 116.694 24.8682C116.149 25.0732 115.478 25.1758 114.681 25.1758C114.019 25.1758 113.428 25.1172 112.906 25C112.385 24.8828 111.948 24.7393 111.596 24.5693V23.6904C112.036 23.9072 112.522 24.083 113.055 24.2178C113.589 24.3525 114.137 24.4199 114.699 24.4199C115.683 24.4199 116.392 24.2529 116.826 23.9189C117.26 23.585 117.476 23.1279 117.476 22.5479C117.476 22.167 117.368 21.8535 117.151 21.6074C116.94 21.3555 116.636 21.1387 116.237 20.957C115.839 20.7754 115.358 20.5908 114.796 20.4033C114.21 20.2041 113.688 20.0078 113.231 19.8145C112.78 19.6152 112.426 19.3545 112.168 19.0322C111.91 18.7041 111.781 18.2588 111.781 17.6963C111.781 16.9287 112.089 16.3311 112.704 15.9033C113.319 15.4756 114.145 15.2617 115.182 15.2617C115.757 15.2617 116.29 15.3174 116.782 15.4287C117.28 15.5342 117.731 15.6719 118.136 15.8418L117.819 16.5977C117.456 16.4277 117.037 16.29 116.562 16.1846C116.088 16.0791 115.613 16.0264 115.138 16.0264C114.359 16.0264 113.75 16.1641 113.31 16.4395C112.871 16.7148 112.651 17.1191 112.651 17.6523C112.651 18.0625 112.757 18.3848 112.968 18.6191C113.179 18.8477 113.48 19.041 113.873 19.1992C114.265 19.3516 114.731 19.5215 115.27 19.709C115.827 19.9023 116.34 20.1045 116.808 20.3154C117.283 20.5264 117.661 20.7988 117.942 21.1328C118.223 21.4668 118.364 21.9209 118.364 22.4951ZM120.76 11.3242V18.2236C120.76 18.6514 120.754 19.0879 120.742 19.5332C120.737 19.9727 120.728 20.4121 120.716 20.8516H120.734C120.904 20.6523 121.079 20.4443 121.261 20.2275C121.448 20.0049 121.633 19.791 121.815 19.5859L125.594 15.4463H126.666L122.896 19.542L127 25H125.937L122.289 20.1309L120.76 21.7393V25H119.872V11.3242H120.76ZM130.275 24.4111C130.55 24.4111 130.805 24.3906 131.04 24.3496C131.28 24.3086 131.491 24.2559 131.672 24.1914V24.9297C131.485 24.9941 131.265 25.0498 131.013 25.0967C130.761 25.1494 130.483 25.1758 130.178 25.1758C129.639 25.1758 129.191 25.0762 128.834 24.877C128.476 24.6719 128.207 24.3643 128.025 23.9541C127.843 23.5381 127.753 23.0107 127.753 22.3721V16.1846H126.329V15.6572L127.744 15.3848L128.051 13.1348H128.64V15.4463H131.62V16.1846H128.64V22.3193C128.64 23.0049 128.766 23.5264 129.018 23.8838C129.276 24.2354 129.695 24.4111 130.275 24.4111ZM140.748 20.21C140.748 20.9482 140.657 21.6221 140.476 22.2314C140.294 22.835 140.024 23.3564 139.667 23.7959C139.31 24.2354 138.864 24.5752 138.331 24.8154C137.804 25.0557 137.188 25.1758 136.485 25.1758C135.817 25.1758 135.223 25.0586 134.701 24.8242C134.18 24.584 133.737 24.2441 133.374 23.8047C133.017 23.3652 132.744 22.8438 132.557 22.2402C132.369 21.6309 132.275 20.9541 132.275 20.21C132.275 19.1846 132.445 18.3027 132.785 17.5645C133.131 16.8203 133.623 16.252 134.262 15.8594C134.906 15.4609 135.677 15.2617 136.573 15.2617C137.499 15.2617 138.27 15.4727 138.885 15.8945C139.506 16.3105 139.972 16.8906 140.282 17.6348C140.593 18.3789 140.748 19.2373 140.748 20.21ZM133.189 20.21C133.189 21.0479 133.31 21.7803 133.55 22.4072C133.79 23.0342 134.153 23.5234 134.64 23.875C135.132 24.2266 135.753 24.4023 136.503 24.4023C137.271 24.4023 137.9 24.2266 138.393 23.875C138.885 23.5234 139.248 23.0312 139.482 22.3984C139.717 21.7656 139.834 21.0361 139.834 20.21C139.834 19.4072 139.723 18.6924 139.5 18.0654C139.277 17.4385 138.926 16.9463 138.445 16.5889C137.965 16.2256 137.338 16.0439 136.564 16.0439C135.457 16.0439 134.616 16.4131 134.042 17.1514C133.474 17.8896 133.189 18.9092 133.189 20.21ZM146.721 15.2617C147.952 15.2617 148.904 15.6748 149.578 16.501C150.257 17.3271 150.597 18.5459 150.597 20.1572C150.597 21.2354 150.436 22.1494 150.114 22.8994C149.791 23.6436 149.331 24.209 148.734 24.5957C148.142 24.9824 147.43 25.1758 146.598 25.1758C146.024 25.1758 145.523 25.0908 145.095 24.9209C144.673 24.7451 144.322 24.5107 144.04 24.2178C143.759 23.9189 143.542 23.5908 143.39 23.2334H143.329C143.346 23.5674 143.361 23.916 143.372 24.2793C143.384 24.6426 143.39 24.9854 143.39 25.3076V29.2275H142.494V15.4463H143.232L143.337 17.3535H143.39C143.548 16.9902 143.771 16.6475 144.058 16.3252C144.345 16.0029 144.708 15.7451 145.148 15.5518C145.587 15.3584 146.112 15.2617 146.721 15.2617ZM146.607 16.0439C145.886 16.0439 145.286 16.2021 144.805 16.5186C144.33 16.8291 143.976 17.2861 143.742 17.8896C143.513 18.4873 143.396 19.2197 143.39 20.0869V20.2363C143.39 21.168 143.504 21.9443 143.733 22.5654C143.967 23.1807 144.316 23.6406 144.779 23.9453C145.247 24.25 145.828 24.4023 146.519 24.4023C147.199 24.4023 147.773 24.2354 148.242 23.9014C148.71 23.5674 149.068 23.084 149.314 22.4512C149.56 21.8184 149.683 21.0508 149.683 20.1484C149.683 18.8066 149.425 17.7871 148.91 17.0898C148.4 16.3926 147.632 16.0439 146.607 16.0439Z" class="logo-text"/>
</svg>
