<svg width="69" height="30" viewBox="0 0 69 30" fill="none" xmlns="http://www.w3.org/2000/svg">
<path d="M3.65277 7.8974H2.0514V1.78668H0V0.476562H5.70418V1.78595H3.65277V7.89666V7.8974Z" class="logo-accent"/>
<path d="M8.56749 2.11597C8.647 2.11597 8.7385 2.12039 8.84426 2.1285C8.94927 2.13734 9.03478 2.14766 9.10003 2.16166L8.98152 3.61325C8.92977 3.59631 8.85626 3.58378 8.76175 3.57494C8.66725 3.56683 8.58549 3.56241 8.51648 3.56241C8.31322 3.56241 8.11596 3.5882 7.92469 3.63831C7.73343 3.68915 7.56241 3.77094 7.4109 3.88442C7.25939 3.99789 7.13938 4.14673 7.05163 4.33095C6.96387 4.51516 6.91962 4.74137 6.91962 5.00885V7.89657H5.34375V2.22281H6.53709L6.76961 3.17704H6.84686C6.96087 2.98398 7.10263 2.80714 7.27289 2.6465C7.44316 2.48587 7.63817 2.35692 7.85644 2.26039C8.07545 2.16387 8.31172 2.11523 8.56674 2.11523L8.56749 2.11597Z" class="logo-accent"/>
<path d="M10.2284 0C10.4624 0 10.6642 0.0530533 10.833 0.159897C11.0017 0.26674 11.0865 0.464954 11.0865 0.75601C11.0865 1.04707 11.0017 1.24233 10.833 1.35212C10.6642 1.46191 10.4624 1.51718 10.2284 1.51718C9.99439 1.51718 9.78812 1.46191 9.62161 1.35212C9.45435 1.24233 9.37109 1.04338 9.37109 0.75601C9.37109 0.468638 9.45435 0.266004 9.62161 0.159897C9.78887 0.0530533 9.99139 0 10.2284 0ZM11.0137 2.22308V7.89758H9.43785V2.22308H11.0137Z" class="logo-accent"/>
<path d="M18.7239 2.11621C19.378 2.11621 19.8738 2.28127 20.209 2.61138C20.5451 2.94148 20.7131 3.46981 20.7131 4.19782V7.89755H19.132V4.58319C19.132 4.17719 19.0615 3.87066 18.9204 3.66434C18.7794 3.45802 18.5604 3.35486 18.2641 3.35486C17.8471 3.35486 17.5508 3.50149 17.3753 3.79402C17.1998 4.08655 17.1121 4.50508 17.1121 5.05035V7.89755H15.5362V4.58319C15.5362 4.31277 15.5054 4.08582 15.4432 3.90308C15.3809 3.72034 15.2864 3.58328 15.1589 3.49191C15.0314 3.40054 14.8679 3.35486 14.6684 3.35486C14.3759 3.35486 14.1456 3.42707 13.9783 3.57076C13.8111 3.71444 13.6926 3.92592 13.6221 4.20519C13.5515 4.48445 13.5163 4.82488 13.5163 5.22794V7.89755H11.9404V2.22305H13.1443L13.3558 2.94885H13.4435C13.5605 2.75285 13.7076 2.59369 13.8853 2.47211C14.0623 2.35053 14.2581 2.26063 14.4719 2.20316C14.6856 2.14569 14.9024 2.11695 15.1229 2.11695C15.5467 2.11695 15.906 2.18474 16.2 2.32032C16.4948 2.4559 16.7213 2.66517 16.8795 2.94959H17.0191C17.1916 2.65853 17.4346 2.44706 17.7504 2.31516C18.0654 2.18326 18.3902 2.11695 18.7239 2.11695V2.11621Z" class="logo-accent"/>
<path d="M23.1845 0V1.83771C23.1845 2.05066 23.1785 2.26213 23.1665 2.47214C23.1545 2.68214 23.1395 2.84425 23.1222 2.9592H23.1845C23.336 2.72561 23.543 2.52666 23.8048 2.36308C24.0666 2.19877 24.4056 2.11698 24.8226 2.11698C25.4699 2.11698 25.9957 2.36603 26.3985 2.86341C26.8013 3.36078 27.003 4.09026 27.003 5.05112C27.003 5.69734 26.91 6.23966 26.724 6.67809C26.538 7.11651 26.2777 7.44662 25.9439 7.66768C25.6102 7.88947 25.2224 8 24.7814 8C24.3403 8 24.0238 7.92558 23.7793 7.77673C23.5348 7.62789 23.3368 7.46062 23.1852 7.2742H23.0765L22.8132 7.89831H21.6094V0H23.1852H23.1845ZM24.3156 3.35489C24.0403 3.35489 23.8213 3.41089 23.6593 3.52215C23.4973 3.63415 23.3795 3.80142 23.3053 4.02468C23.231 4.24795 23.1905 4.5309 23.1837 4.87206V5.03933C23.1837 5.59123 23.2662 6.01345 23.432 6.30598C23.597 6.59851 23.8985 6.74514 24.3358 6.74514C24.6599 6.74514 24.9171 6.59777 25.1084 6.30377C25.2997 6.00903 25.3949 5.5846 25.3949 5.02975C25.3949 4.4749 25.2981 4.05711 25.1054 3.77563C24.9126 3.49489 24.6486 3.35415 24.3148 3.35415L24.3156 3.35489Z" class="logo-accent"/>
<path d="M29.2272 7.89758H27.6514V0H29.2272V7.89758Z" class="logo-accent"/>
<path d="M32.5881 2.11621C33.1222 2.11621 33.582 2.21716 33.9675 2.41832C34.353 2.61948 34.6508 2.91127 34.8616 3.2937C35.0716 3.67613 35.1766 4.14329 35.1766 4.69446V5.44531H31.4518C31.4691 5.88226 31.6026 6.22416 31.8523 6.47322C32.1021 6.72153 32.4494 6.84606 32.8934 6.84606C33.2617 6.84606 33.5992 6.80922 33.906 6.7348C34.2128 6.66038 34.5278 6.54837 34.8518 6.39953V7.59765C34.566 7.73618 34.2668 7.83786 33.9555 7.90197C33.6435 7.96608 33.2654 7.9985 32.8214 7.9985C32.2431 7.9985 31.7301 7.89387 31.2845 7.68386C30.8383 7.47386 30.4887 7.15407 30.236 6.72448C29.9825 6.2949 29.8564 5.75331 29.8564 5.10046C29.8564 4.44761 29.9712 3.88466 30.2 3.44328C30.4287 3.00191 30.7483 2.67032 31.1585 2.44853C31.5681 2.22674 32.0451 2.11621 32.5896 2.11621H32.5881ZM32.5986 3.2178C32.2919 3.2178 32.0384 3.31433 31.8366 3.50739C31.6348 3.69971 31.5186 4.00329 31.4878 4.41593H33.699C33.6952 4.18603 33.6532 3.98118 33.5722 3.80139C33.4912 3.62234 33.3705 3.48012 33.2107 3.37475C33.0502 3.27012 32.8462 3.2178 32.5986 3.2178Z" class="logo-accent"/>
<path d="M35.5782 7.23467C35.5737 6.85298 35.8849 6.53982 36.2735 6.53613C36.2787 6.53613 36.284 6.53613 36.2892 6.53613C36.6823 6.53613 37.0003 6.8493 37.0003 7.23467C37.0003 7.62078 36.6815 7.9332 36.2892 7.9332C35.8962 7.9332 35.5782 7.62004 35.5782 7.23467ZM36.8713 7.23467C36.8653 6.91782 36.5997 6.66508 36.2772 6.67098C35.9547 6.67687 35.6974 6.93772 35.7034 7.25456C35.7087 7.56846 35.9705 7.81973 36.29 7.81825C36.611 7.81825 36.872 7.56257 36.872 7.24646C36.872 7.24204 36.872 7.23835 36.872 7.23393L36.8713 7.23467ZM36.0132 6.83677H36.3042C36.488 6.83677 36.5952 6.91487 36.5952 7.07109C36.6042 7.16983 36.5405 7.2612 36.443 7.28772L36.611 7.60162H36.4482L36.2915 7.30909H36.1685V7.60162H36.0125V6.83677H36.0132ZM36.2952 7.19193C36.3905 7.19193 36.443 7.16172 36.443 7.07993C36.443 6.99814 36.3905 6.96793 36.2915 6.96793H36.1685V7.19119H36.2945L36.2952 7.19193Z" class="logo-accent"/>
<path d="M9.10547 21.502C9.10547 22.2637 8.91797 22.9199 8.54297 23.4707C8.17383 24.0215 7.64062 24.4434 6.94336 24.7363C6.25195 25.0293 5.42578 25.1758 4.46484 25.1758C3.99609 25.1758 3.54785 25.1494 3.12012 25.0967C2.69238 25.0439 2.28809 24.9678 1.90723 24.8682C1.53223 24.7627 1.18945 24.6367 0.878906 24.4902V22.5039C1.40039 22.7324 1.9834 22.9404 2.62793 23.1279C3.27246 23.3096 3.92871 23.4004 4.59668 23.4004C5.1416 23.4004 5.59277 23.3301 5.9502 23.1895C6.31348 23.043 6.58301 22.8379 6.75879 22.5742C6.93457 22.3047 7.02246 21.9912 7.02246 21.6338C7.02246 21.2529 6.91992 20.9307 6.71484 20.667C6.50977 20.4033 6.19922 20.1631 5.7832 19.9463C5.37305 19.7236 4.85742 19.4863 4.23633 19.2344C3.81445 19.0645 3.41016 18.8711 3.02344 18.6543C2.64258 18.4375 2.30273 18.1826 2.00391 17.8896C1.70508 17.5967 1.46777 17.251 1.29199 16.8525C1.12207 16.4482 1.03711 15.9736 1.03711 15.4287C1.03711 14.7021 1.20996 14.0811 1.55566 13.5654C1.90723 13.0498 2.39941 12.6543 3.03223 12.3789C3.6709 12.1035 4.41504 11.9658 5.26465 11.9658C5.93848 11.9658 6.57129 12.0361 7.16309 12.1768C7.76074 12.3174 8.34668 12.5166 8.9209 12.7744L8.25293 14.4707C7.72559 14.2539 7.21289 14.0811 6.71484 13.9521C6.22266 13.8232 5.71875 13.7588 5.20312 13.7588C4.75781 13.7588 4.37988 13.8262 4.06934 13.9609C3.75879 14.0957 3.52148 14.2861 3.35742 14.5322C3.19922 14.7725 3.12012 15.0596 3.12012 15.3936C3.12012 15.7686 3.21094 16.085 3.39258 16.3428C3.58008 16.5947 3.86719 16.8262 4.25391 17.0371C4.64648 17.248 5.15039 17.4824 5.76562 17.7402C6.47461 18.0332 7.0752 18.3408 7.56738 18.6631C8.06543 18.9854 8.44629 19.3721 8.70996 19.8232C8.97363 20.2686 9.10547 20.8281 9.10547 21.502ZM14.0941 23.5059C14.3637 23.5059 14.6303 23.4824 14.8939 23.4355C15.1576 23.3828 15.3979 23.3213 15.6146 23.251V24.8154C15.3861 24.915 15.0902 25 14.727 25.0703C14.3637 25.1406 13.9857 25.1758 13.5932 25.1758C13.0424 25.1758 12.5473 25.085 12.1078 24.9033C11.6684 24.7158 11.3197 24.3965 11.0619 23.9453C10.8041 23.4941 10.6752 22.8701 10.6752 22.0732V16.8438H9.34805V15.9209L10.7719 15.1914L11.4486 13.1084H12.7494V15.2705H15.5355V16.8438H12.7494V22.0469C12.7494 22.5391 12.8725 22.9053 13.1186 23.1455C13.3646 23.3857 13.6898 23.5059 14.0941 23.5059ZM20.5066 15.0859C21.7371 15.0859 22.6658 15.3584 23.2928 15.9033C23.9256 16.4482 24.242 17.2979 24.242 18.4521V25H22.7742L22.3787 23.6201H22.3084C22.033 23.9717 21.7488 24.2617 21.4559 24.4902C21.1629 24.7188 20.823 24.8887 20.4363 25C20.0555 25.1172 19.5896 25.1758 19.0389 25.1758C18.4588 25.1758 17.9402 25.0703 17.4832 24.8594C17.0262 24.6426 16.6658 24.3145 16.4021 23.875C16.1385 23.4355 16.0066 22.8789 16.0066 22.2051C16.0066 21.2031 16.3787 20.4502 17.1229 19.9463C17.8729 19.4424 19.0037 19.1641 20.5154 19.1113L22.2029 19.0498V18.54C22.2029 17.8662 22.0447 17.3857 21.7283 17.0986C21.4178 16.8115 20.9783 16.668 20.41 16.668C19.9236 16.668 19.452 16.7383 18.9949 16.8789C18.5379 17.0195 18.0926 17.1924 17.659 17.3975L16.991 15.9385C17.4656 15.6865 18.0047 15.4814 18.6082 15.3232C19.2176 15.165 19.8504 15.0859 20.5066 15.0859ZM22.1941 20.3506L20.9373 20.3945C19.9061 20.4297 19.1824 20.6055 18.7664 20.9219C18.3504 21.2383 18.1424 21.6719 18.1424 22.2227C18.1424 22.7031 18.2859 23.0547 18.573 23.2773C18.8602 23.4941 19.2381 23.6025 19.7068 23.6025C20.4217 23.6025 21.0135 23.4004 21.4822 22.9961C21.9568 22.5859 22.1941 21.9854 22.1941 21.1943V20.3506ZM28.299 11.3242V14.6201C28.299 15.001 28.2873 15.376 28.2639 15.7451C28.2463 16.1084 28.2287 16.3926 28.2111 16.5977H28.299C28.5627 16.1758 28.9289 15.8213 29.3977 15.5342C29.8723 15.2412 30.4787 15.0947 31.217 15.0947C32.3713 15.0947 33.3 15.5195 34.0031 16.3691C34.7062 17.2129 35.0578 18.4639 35.0578 20.1221C35.0578 21.2236 34.8967 22.1494 34.5744 22.8994C34.2521 23.6494 33.798 24.2178 33.2121 24.6045C32.632 24.9854 31.9494 25.1758 31.1643 25.1758C30.426 25.1758 29.8283 25.041 29.3713 24.7715C28.9201 24.4961 28.5656 24.1768 28.3078 23.8135H28.1584L27.7805 25H26.2336V11.3242H28.299ZM30.6721 16.7734C30.0861 16.7734 29.6203 16.8906 29.2746 17.125C28.9348 17.3594 28.6887 17.7109 28.5363 18.1797C28.384 18.6426 28.3049 19.2314 28.299 19.9463V20.1309C28.299 21.2148 28.4689 22.0439 28.8088 22.6182C29.1545 23.1924 29.7814 23.4795 30.6896 23.4795C31.4104 23.4795 31.9641 23.1895 32.3508 22.6094C32.7375 22.0234 32.9309 21.1855 32.9309 20.0957C32.9309 18.9941 32.7375 18.165 32.3508 17.6084C31.9699 17.0518 31.4104 16.7734 30.6721 16.7734ZM38.6139 15.2705V25H36.5484V15.2705H38.6139ZM37.5943 11.5439C37.9107 11.5439 38.1832 11.6289 38.4117 11.7988C38.6461 11.9688 38.7633 12.2617 38.7633 12.6777C38.7633 13.0879 38.6461 13.3809 38.4117 13.5566C38.1832 13.7266 37.9107 13.8115 37.5943 13.8115C37.2662 13.8115 36.9879 13.7266 36.7594 13.5566C36.5367 13.3809 36.4254 13.0879 36.4254 12.6777C36.4254 12.2617 36.5367 11.9688 36.7594 11.7988C36.9879 11.6289 37.2662 11.5439 37.5943 11.5439ZM44.5957 25.1758C43.6758 25.1758 42.8789 24.9971 42.2051 24.6396C41.5312 24.2822 41.0127 23.7344 40.6494 22.9961C40.2861 22.2578 40.1045 21.3203 40.1045 20.1836C40.1045 19 40.3037 18.0332 40.7021 17.2832C41.1006 16.5332 41.6514 15.9795 42.3545 15.6221C43.0635 15.2646 43.875 15.0859 44.7891 15.0859C45.3691 15.0859 45.8936 15.1445 46.3623 15.2617C46.8369 15.373 47.2383 15.5107 47.5664 15.6748L46.9512 17.3271C46.5938 17.1807 46.2275 17.0576 45.8525 16.958C45.4775 16.8584 45.1172 16.8086 44.7715 16.8086C44.2031 16.8086 43.7285 16.9346 43.3477 17.1865C42.9727 17.4385 42.6914 17.8135 42.5039 18.3115C42.3223 18.8096 42.2314 19.4277 42.2314 20.166C42.2314 20.8809 42.3252 21.4844 42.5127 21.9766C42.7002 22.4629 42.9785 22.832 43.3477 23.084C43.7168 23.3301 44.1709 23.4531 44.71 23.4531C45.2432 23.4531 45.7207 23.3887 46.1426 23.2598C46.5645 23.1309 46.9629 22.9639 47.3379 22.7588V24.5518C46.9688 24.7627 46.5732 24.918 46.1514 25.0176C45.7295 25.123 45.2109 25.1758 44.5957 25.1758ZM52.5375 15.0859C53.768 15.0859 54.6967 15.3584 55.3236 15.9033C55.9564 16.4482 56.2729 17.2979 56.2729 18.4521V25H54.8051L54.4096 23.6201H54.3393C54.0639 23.9717 53.7797 24.2617 53.4867 24.4902C53.1937 24.7188 52.8539 24.8887 52.4672 25C52.0863 25.1172 51.6205 25.1758 51.0697 25.1758C50.4896 25.1758 49.9711 25.0703 49.5141 24.8594C49.057 24.6426 48.6967 24.3145 48.433 23.875C48.1693 23.4355 48.0375 22.8789 48.0375 22.2051C48.0375 21.2031 48.4096 20.4502 49.1537 19.9463C49.9037 19.4424 51.0346 19.1641 52.5463 19.1113L54.2338 19.0498V18.54C54.2338 17.8662 54.0756 17.3857 53.7592 17.0986C53.4486 16.8115 53.0092 16.668 52.4408 16.668C51.9545 16.668 51.4828 16.7383 51.0258 16.8789C50.5687 17.0195 50.1234 17.1924 49.6898 17.3975L49.0219 15.9385C49.4965 15.6865 50.0355 15.4814 50.6391 15.3232C51.2484 15.165 51.8812 15.0859 52.5375 15.0859ZM54.225 20.3506L52.9682 20.3945C51.9369 20.4297 51.2133 20.6055 50.7973 20.9219C50.3812 21.2383 50.1732 21.6719 50.1732 22.2227C50.1732 22.7031 50.3168 23.0547 50.6039 23.2773C50.891 23.4941 51.2689 23.6025 51.7377 23.6025C52.4525 23.6025 53.0443 23.4004 53.5131 22.9961C53.9877 22.5859 54.225 21.9854 54.225 21.1943V20.3506ZM61.534 25.1758C60.3738 25.1758 59.4422 24.7539 58.7391 23.9102C58.0418 23.0605 57.6932 21.8096 57.6932 20.1572C57.6932 18.4873 58.0477 17.2246 58.7566 16.3691C59.4715 15.5137 60.4119 15.0859 61.5779 15.0859C62.0701 15.0859 62.5008 15.1533 62.8699 15.2881C63.2391 15.417 63.5555 15.5928 63.8191 15.8154C64.0887 16.0381 64.3172 16.2871 64.5047 16.5625H64.6014C64.5721 16.3809 64.5369 16.1201 64.4959 15.7803C64.4607 15.4346 64.4432 15.1152 64.4432 14.8223V11.3242H66.5174V25H64.9002L64.5311 23.6729H64.4432C64.2674 23.9541 64.0447 24.209 63.7752 24.4375C63.5115 24.6602 63.1951 24.8389 62.826 24.9736C62.4627 25.1084 62.032 25.1758 61.534 25.1758ZM62.1141 23.4971C62.9988 23.4971 63.6229 23.2422 63.9861 22.7324C64.3494 22.2227 64.5369 21.458 64.5486 20.4385V20.166C64.5486 19.0762 64.3729 18.2412 64.0213 17.6611C63.6697 17.0752 63.0281 16.7822 62.0965 16.7822C61.3523 16.7822 60.784 17.084 60.3914 17.6875C60.0047 18.2852 59.8113 19.1201 59.8113 20.1924C59.8113 21.2646 60.0047 22.085 60.3914 22.6533C60.784 23.2158 61.3582 23.4971 62.1141 23.4971Z" class="logo-text"/>
</svg>
