<svg width="32" height="32" viewBox="0 0 32 32" fill="none" xmlns="http://www.w3.org/2000/svg">
<path d="M26.4106 11.016C27.2884 8.89678 26.2821 6.46724 24.1629 5.58944C22.0437 4.71164 19.6142 5.71799 18.7364 7.83718C17.8586 9.95637 18.8649 12.3859 20.9841 13.2637C23.1033 14.1415 25.5328 13.1352 26.4106 11.016Z" class="logo-accent"/>
<path d="M22.5739 16.9943C22.4274 16.9943 22.2808 16.9886 22.1365 16.9807C21.9514 20.5637 18.9773 23.4219 15.3488 23.4219C11.7204 23.4219 8.55203 20.3728 8.55203 16.6251C8.55203 12.8773 11.4239 10.01 15.0183 9.83623C15.0114 9.6999 15.0069 9.56358 15.0069 9.42612C15.0069 7.9084 15.4579 6.49519 16.2292 5.31033C15.9384 5.28761 15.6453 5.27625 15.3488 5.27625C9.08141 5.27625 4 10.3577 4 16.6251C4 22.8925 9.08141 27.9739 15.3488 27.9739C21.6163 27.9739 26.6977 22.8925 26.6977 16.6251C26.6977 16.3433 26.6874 16.0639 26.667 15.7867C25.4867 16.549 24.0814 16.9943 22.5739 16.9943Z" class="logo-accent"/>
</svg>
