<svg width="32" height="32" viewBox="0 0 32 32" fill="none" xmlns="http://www.w3.org/2000/svg">
<path d="M19.0215 17.6431C19.0215 17.611 19.0151 17.579 19.0143 17.5462C18.9735 15.8049 17.7593 14.3881 16.1366 13.7561C15.5254 13.5263 14.8631 13.4045 14.1951 13.3989C13.5271 13.4037 12.8655 13.5255 12.2536 13.7561C10.6317 14.3889 9.41672 15.8049 9.37587 17.5462C9.37587 17.5782 9.36866 17.6102 9.36866 17.6431C9.36226 18.2013 9.32702 23.2688 9.30859 25.9632C11.2204 27.2495 13.5223 28 15.9996 28C17.0688 28 18.1053 27.859 19.0928 27.5971C19.0888 27.002 19.0303 18.3815 19.0215 17.6431Z" class="logo-accent"/>
<path d="M16.0004 4C9.37267 4 4 9.37267 4 15.9996C4 17.0272 4.12975 18.0244 4.37243 18.9767V18.3447C4.37404 18.1878 4.37884 18.0324 4.38765 17.8778V17.7344C4.38925 17.676 4.38845 17.6888 4.39086 17.6663C4.77691 12.5916 9.01705 8.59416 14.1903 8.59416C14.1919 8.59416 14.1935 8.59416 14.1951 8.59416C14.1967 8.59416 14.1983 8.59416 14.1999 8.59416C19.3739 8.59416 24.0474 12.4386 23.9993 17.6663C23.9993 17.6888 24.0001 17.676 24.0017 17.7344V17.8778C24.0105 18.0324 24.0154 18.1878 24.017 18.3447L24.021 24.9236C26.463 22.7266 27.9984 19.5429 27.9984 15.9996C27.9984 9.37187 22.6257 4 15.9988 4H16.0004Z" class="logo-accent"/>
</svg>
