<svg width="32" height="32" viewBox="0 0 32 32" fill="none" xmlns="http://www.w3.org/2000/svg">
<path d="M15.4977 4L19 6L15.5 8L12 6L15.4977 4Z" class="logo-accent"/>
<path d="M16.6667 20.6675V16.6652L20.1597 14.6698L20.1667 18.6675L16.6667 20.6675Z" class="logo-accent"/>
<path d="M14.3333 20.6674V16.6674L5 11.3326V15.3326L14.3333 20.6674Z" class="logo-accent"/>
<path d="M15.5 14.6674H15.4977L6.16666 9.33249L9.66666 7.33249L19 12.6651L15.5 14.6674Z" class="logo-accent"/>
<path d="M26 9.99993L21.3333 7.33249V7.3348L17.852 9.32326L17.8333 9.33249L22.5 11.9999V23.9999L26 21.9999V9.99993Z" class="logo-accent"/>
<path d="M5 18L15.5 24L20.1667 21.3349V25.3349L15.5 28L5 22V18Z" class="logo-accent"/>
</svg>
