<svg width="248.76" height="32" viewBox="17 8 248.76 32" fill="none" xmlns="http://www.w3.org/2000/svg">
<path d="M29.8643 17.36H28.3793V19.1166C27.7192 19.4112 27.114 19.7698 26.617 20.1508L29.931 14V17.2362L29.8643 17.36Z" fill="white"/>
<path d="M34.1357 17.36L34.069 17.2362V14L37.383 20.1508C36.886 19.7698 36.2808 19.4112 35.6207 19.1166V17.36H34.1357Z" fill="white"/>
<path d="M38.9274 23.12H38.9828L47 38H34.4731L34.9064 36.5527H44.4766L38.3244 25.1344L38.9274 23.12Z" fill="white"/>
<path d="M25.0172 23.12H25.0734L25.6761 25.1333L19.5234 36.5527H29.0945L29.5277 38H17L25.0172 23.12Z" fill="white"/>
<path opacity="0.8" fill-rule="evenodd" clip-rule="evenodd" d="M32.856 37L32 40L31.142 37H32.856ZM36.999 22.5L33.142 36H30.857L27.001 22.5H36.999ZM32.5143 8L32.514 18.5H34.0571L34.0581 19.8362C35.3502 20.2554 36.3653 20.98 36.8435 21.5009H27.1565C27.6346 20.98 28.6498 20.2554 29.9419 19.8362L29.9428 18.5H31.485L31.4857 8H32.5143Z" fill="white"/>
<path fill-rule="evenodd" clip-rule="evenodd" d="M32.857 37L32 40V37H32.857ZM36.999 22.5L33.143 36H32V22.5H36.999ZM32.5 8L32.499 18.5H34.0571L34.0581 19.8362C35.3502 20.2554 36.3654 20.98 36.8435 21.5009L32 21.5V8H32.5Z" fill="white"/>
<path d="M64.7656 33H61.1328V18.8906H56.4805V15.8672H69.418V18.8906H64.7656V33ZM79.3359 19.6523C79.5156 19.6523 79.7227 19.6641 79.957 19.6875C80.1992 19.7031 80.3945 19.7266 80.543 19.7578L80.2734 23.1094C80.1562 23.0703 79.9883 23.043 79.7695 23.0273C79.5586 23.0039 79.375 22.9922 79.2188 22.9922C78.7578 22.9922 78.3086 23.0508 77.8711 23.168C77.4414 23.2852 77.0547 23.4766 76.7109 23.7422C76.3672 24 76.0938 24.3438 75.8906 24.7734C75.6953 25.1953 75.5977 25.7148 75.5977 26.332V33H72.0234V19.8984H74.7305L75.2578 22.1016H75.4336C75.6914 21.6562 76.0117 21.25 76.3945 20.8828C76.7852 20.5078 77.2266 20.2109 77.7188 19.9922C78.2188 19.7656 78.7578 19.6523 79.3359 19.6523ZM86.7461 19.8984V33H83.1719V19.8984H86.7461ZM84.9648 14.7656C85.4961 14.7656 85.9531 14.8906 86.3359 15.1406C86.7188 15.3828 86.9102 15.8398 86.9102 16.5117C86.9102 17.1758 86.7188 17.6367 86.3359 17.8945C85.9531 18.1445 85.4961 18.2695 84.9648 18.2695C84.4258 18.2695 83.9648 18.1445 83.582 17.8945C83.207 17.6367 83.0195 17.1758 83.0195 16.5117C83.0195 15.8398 83.207 15.3828 83.582 15.1406C83.9648 14.8906 84.4258 14.7656 84.9648 14.7656ZM106.145 19.6523C107.629 19.6523 108.75 20.0352 109.508 20.8008C110.273 21.5586 110.656 22.7773 110.656 24.457V33H107.07V25.3477C107.07 24.4102 106.91 23.7031 106.59 23.2266C106.27 22.75 105.773 22.5117 105.102 22.5117C104.156 22.5117 103.484 22.8516 103.086 23.5312C102.688 24.2031 102.488 25.168 102.488 26.4258V33H98.9141V25.3477C98.9141 24.7227 98.8438 24.1992 98.7031 23.7773C98.5625 23.3555 98.3477 23.0391 98.0586 22.8281C97.7695 22.6172 97.3984 22.5117 96.9453 22.5117C96.2812 22.5117 95.7578 22.6797 95.375 23.0156C95 23.3438 94.7305 23.832 94.5664 24.4805C94.4102 25.1211 94.332 25.9062 94.332 26.8359V33H90.7578V19.8984H93.4883L93.9688 21.5742H94.168C94.4336 21.1211 94.7656 20.7539 95.1641 20.4727C95.5703 20.1914 96.0156 19.9844 96.5 19.8516C96.9844 19.7188 97.4766 19.6523 97.9766 19.6523C98.9375 19.6523 99.75 19.8086 100.414 20.1211C101.086 20.4336 101.602 20.918 101.961 21.5742H102.277C102.668 20.9023 103.219 20.4141 103.93 20.1094C104.648 19.8047 105.387 19.6523 106.145 19.6523ZM118.16 14.7656V19.0078C118.16 19.5 118.145 19.9883 118.113 20.4727C118.09 20.957 118.059 21.332 118.02 21.5977H118.16C118.504 21.0586 118.973 20.6016 119.566 20.2266C120.16 19.8438 120.93 19.6523 121.875 19.6523C123.344 19.6523 124.535 20.2266 125.449 21.375C126.363 22.5234 126.82 24.207 126.82 26.4258C126.82 27.918 126.609 29.1719 126.188 30.1875C125.766 31.1953 125.176 31.957 124.418 32.4727C123.66 32.9805 122.781 33.2344 121.781 33.2344C120.82 33.2344 120.062 33.0625 119.508 32.7188C118.953 32.375 118.504 31.9883 118.16 31.5586H117.914L117.316 33H114.586V14.7656H118.16ZM120.727 22.5117C120.102 22.5117 119.605 22.6406 119.238 22.8984C118.871 23.1562 118.602 23.543 118.43 24.0586C118.266 24.5742 118.176 25.2266 118.16 26.0156V26.4023C118.16 27.6758 118.348 28.6523 118.723 29.332C119.098 30.0039 119.781 30.3398 120.773 30.3398C121.508 30.3398 122.09 30 122.52 29.3203C122.957 28.6406 123.176 27.6602 123.176 26.3789C123.176 25.0977 122.957 24.1328 122.52 23.4844C122.082 22.8359 121.484 22.5117 120.727 22.5117ZM133.598 33H130.023V14.7656H133.598V33ZM143.012 19.6523C144.223 19.6523 145.266 19.8867 146.141 20.3555C147.016 20.8164 147.691 21.4883 148.168 22.3711C148.645 23.2539 148.883 24.332 148.883 25.6055V27.3398H140.434C140.473 28.3477 140.773 29.1406 141.336 29.7188C141.906 30.2891 142.695 30.5742 143.703 30.5742C144.539 30.5742 145.305 30.4883 146 30.3164C146.695 30.1445 147.41 29.8867 148.145 29.543V32.3086C147.496 32.6289 146.816 32.8633 146.105 33.0117C145.402 33.1602 144.547 33.2344 143.539 33.2344C142.227 33.2344 141.062 32.9922 140.047 32.5078C139.039 32.0234 138.246 31.2852 137.668 30.293C137.098 29.3008 136.812 28.0508 136.812 26.543C136.812 25.0117 137.07 23.7383 137.586 22.7227C138.109 21.6992 138.836 20.9336 139.766 20.4258C140.695 19.9102 141.777 19.6523 143.012 19.6523ZM143.035 22.1953C142.34 22.1953 141.762 22.418 141.301 22.8633C140.848 23.3086 140.586 24.0078 140.516 24.9609H145.531C145.523 24.4297 145.426 23.957 145.238 23.543C145.059 23.1289 144.785 22.8008 144.418 22.5586C144.059 22.3164 143.598 22.1953 143.035 22.1953ZM168.66 28.4414C168.66 29.457 168.406 30.3242 167.898 31.043C167.398 31.7539 166.695 32.2969 165.789 32.6719C164.883 33.0469 163.816 33.2344 162.59 33.2344C161.941 33.2344 161.328 33.2031 160.75 33.1406C160.172 33.0781 159.641 32.9883 159.156 32.8711C158.672 32.7539 158.246 32.6094 157.879 32.4375V30.5273C158.465 30.7695 159.18 30.9961 160.023 31.207C160.867 31.4102 161.75 31.5117 162.672 31.5117C163.531 31.5117 164.258 31.3984 164.852 31.1719C165.445 30.9375 165.895 30.6055 166.199 30.1758C166.512 29.7383 166.668 29.2148 166.668 28.6055C166.668 28.0195 166.539 27.5312 166.281 27.1406C166.023 26.7422 165.594 26.3828 164.992 26.0625C164.398 25.7344 163.586 25.3867 162.555 25.0195C161.828 24.7617 161.188 24.4805 160.633 24.1758C160.078 23.8633 159.613 23.5117 159.238 23.1211C158.863 22.7305 158.578 22.2773 158.383 21.7617C158.195 21.2461 158.102 20.6562 158.102 19.9922C158.102 19.0781 158.332 18.2969 158.793 17.6484C159.262 16.9922 159.906 16.4922 160.727 16.1484C161.555 15.7969 162.504 15.6211 163.574 15.6211C164.488 15.6211 165.332 15.707 166.105 15.8789C166.887 16.0508 167.602 16.2812 168.25 16.5703L167.629 18.2812C167.012 18.0234 166.355 17.8086 165.66 17.6367C164.973 17.4648 164.262 17.3789 163.527 17.3789C162.793 17.3789 162.172 17.4883 161.664 17.707C161.164 17.918 160.781 18.2188 160.516 18.6094C160.25 19 160.117 19.4648 160.117 20.0039C160.117 20.6055 160.242 21.1055 160.492 21.5039C160.75 21.9023 161.156 22.2578 161.711 22.5703C162.273 22.875 163.016 23.1953 163.938 23.5312C164.945 23.8984 165.801 24.2891 166.504 24.7031C167.207 25.1094 167.742 25.6094 168.109 26.2031C168.477 26.7891 168.66 27.5352 168.66 28.4414ZM174.066 20.1562V33H172.121V20.1562H174.066ZM173.117 15.3516C173.438 15.3516 173.711 15.457 173.938 15.668C174.172 15.8711 174.289 16.1914 174.289 16.6289C174.289 17.0586 174.172 17.3789 173.938 17.5898C173.711 17.8008 173.438 17.9062 173.117 17.9062C172.781 17.9062 172.5 17.8008 172.273 17.5898C172.055 17.3789 171.945 17.0586 171.945 16.6289C171.945 16.1914 172.055 15.8711 172.273 15.668C172.5 15.457 172.781 15.3516 173.117 15.3516ZM182.59 31.6406C182.91 31.6406 183.238 31.6133 183.574 31.5586C183.91 31.5039 184.184 31.4375 184.395 31.3594V32.8711C184.168 32.9727 183.852 33.0586 183.445 33.1289C183.047 33.1992 182.656 33.2344 182.273 33.2344C181.594 33.2344 180.977 33.1172 180.422 32.8828C179.867 32.6406 179.422 32.2344 179.086 31.6641C178.758 31.0938 178.594 30.3047 178.594 29.2969V21.6797H176.766V20.7305L178.605 19.9688L179.379 17.1797H180.551V20.1562H184.312V21.6797H180.551V29.2383C180.551 30.043 180.734 30.6445 181.102 31.043C181.477 31.4414 181.973 31.6406 182.59 31.6406ZM192.191 19.9219C193.285 19.9219 194.223 20.1641 195.004 20.6484C195.785 21.1328 196.383 21.8125 196.797 22.6875C197.211 23.5547 197.418 24.5703 197.418 25.7344V26.9414H188.547C188.57 28.4492 188.945 29.5977 189.672 30.3867C190.398 31.1758 191.422 31.5703 192.742 31.5703C193.555 31.5703 194.273 31.4961 194.898 31.3477C195.523 31.1992 196.172 30.9805 196.844 30.6914V32.4023C196.195 32.6914 195.551 32.9023 194.91 33.0352C194.277 33.168 193.527 33.2344 192.66 33.2344C191.426 33.2344 190.348 32.9844 189.426 32.4844C188.512 31.9766 187.801 31.2344 187.293 30.2578C186.785 29.2812 186.531 28.0859 186.531 26.6719C186.531 25.2891 186.762 24.0938 187.223 23.0859C187.691 22.0703 188.348 21.2891 189.191 20.7422C190.043 20.1953 191.043 19.9219 192.191 19.9219ZM192.168 21.5156C191.129 21.5156 190.301 21.8555 189.684 22.5352C189.066 23.2148 188.699 24.1641 188.582 25.3828H195.379C195.371 24.6172 195.25 23.9453 195.016 23.3672C194.789 22.7812 194.441 22.3281 193.973 22.0078C193.504 21.6797 192.902 21.5156 192.168 21.5156ZM211.426 32.9766L209.141 25.5C209.039 25.1797 208.941 24.8672 208.848 24.5625C208.762 24.25 208.68 23.9531 208.602 23.6719C208.531 23.3828 208.465 23.1172 208.402 22.875C208.348 22.625 208.301 22.4102 208.262 22.2305H208.18C208.148 22.4102 208.105 22.625 208.051 22.875C207.996 23.1172 207.93 23.3828 207.852 23.6719C207.781 23.9609 207.703 24.2656 207.617 24.5859C207.531 24.8984 207.434 25.2148 207.324 25.5352L204.934 32.9766H202.742L199.203 20.1328H201.219L203.07 27.2227C203.195 27.6914 203.312 28.1562 203.422 28.6172C203.539 29.0703 203.637 29.5 203.715 29.9062C203.801 30.3047 203.863 30.6523 203.902 30.9492H203.996C204.043 30.7539 204.094 30.5195 204.148 30.2461C204.211 29.9727 204.277 29.6836 204.348 29.3789C204.426 29.0664 204.508 28.7578 204.594 28.4531C204.68 28.1406 204.766 27.8477 204.852 27.5742L207.219 20.1328H209.316L211.602 27.5625C211.719 27.9375 211.832 28.3281 211.941 28.7344C212.059 29.1406 212.164 29.5352 212.258 29.918C212.352 30.293 212.418 30.6289 212.457 30.9258H212.551C212.582 30.6602 212.641 30.332 212.727 29.9414C212.812 29.5508 212.91 29.1211 213.02 28.6523C213.137 28.1836 213.258 27.707 213.383 27.2227L215.258 20.1328H217.238L213.688 32.9766H211.426ZM230.906 26.5547C230.906 27.6094 230.77 28.5508 230.496 29.3789C230.223 30.207 229.828 30.9062 229.312 31.4766C228.797 32.0469 228.172 32.4844 227.438 32.7891C226.711 33.0859 225.887 33.2344 224.965 33.2344C224.105 33.2344 223.316 33.0859 222.598 32.7891C221.887 32.4844 221.27 32.0469 220.746 31.4766C220.23 30.9062 219.828 30.207 219.539 29.3789C219.258 28.5508 219.117 27.6094 219.117 26.5547C219.117 25.1484 219.355 23.9531 219.832 22.9688C220.309 21.9766 220.988 21.2227 221.871 20.707C222.762 20.1836 223.82 19.9219 225.047 19.9219C226.219 19.9219 227.242 20.1836 228.117 20.707C229 21.2305 229.684 21.9883 230.168 22.9805C230.66 23.9648 230.906 25.1562 230.906 26.5547ZM221.133 26.5547C221.133 27.5859 221.27 28.4805 221.543 29.2383C221.816 29.9961 222.238 30.582 222.809 30.9961C223.379 31.4102 224.113 31.6172 225.012 31.6172C225.902 31.6172 226.633 31.4102 227.203 30.9961C227.781 30.582 228.207 29.9961 228.48 29.2383C228.754 28.4805 228.891 27.5859 228.891 26.5547C228.891 25.5312 228.754 24.6484 228.48 23.9062C228.207 23.1562 227.785 22.5781 227.215 22.1719C226.645 21.7656 225.906 21.5625 225 21.5625C223.664 21.5625 222.684 22.0039 222.059 22.8867C221.441 23.7695 221.133 24.9922 221.133 26.5547ZM240.355 19.9219C240.613 19.9219 240.883 19.9375 241.164 19.9688C241.445 19.9922 241.695 20.0273 241.914 20.0742L241.668 21.8789C241.457 21.8242 241.223 21.7812 240.965 21.75C240.707 21.7188 240.465 21.7031 240.238 21.7031C239.723 21.7031 239.234 21.8086 238.773 22.0195C238.32 22.2227 237.922 22.5195 237.578 22.9102C237.234 23.293 236.965 23.7578 236.77 24.3047C236.574 24.8438 236.477 25.4453 236.477 26.1094V33H234.52V20.1562H236.137L236.348 22.5234H236.43C236.695 22.0469 237.016 21.6133 237.391 21.2227C237.766 20.8242 238.199 20.5078 238.691 20.2734C239.191 20.0391 239.746 19.9219 240.355 19.9219ZM246.523 14.7656V24.2344C246.523 24.5469 246.512 24.9297 246.488 25.3828C246.465 25.8281 246.445 26.2227 246.43 26.5664H246.512C246.676 26.3633 246.914 26.0625 247.227 25.6641C247.547 25.2656 247.816 24.9453 248.035 24.7031L252.301 20.1562H254.586L249.418 25.6406L254.961 33H252.617L248.082 26.918L246.523 28.3477V33H244.59V14.7656H246.523ZM265.758 29.4844C265.758 30.3047 265.551 30.9961 265.137 31.5586C264.73 32.1133 264.145 32.5312 263.379 32.8125C262.621 33.0938 261.715 33.2344 260.66 33.2344C259.762 33.2344 258.984 33.1641 258.328 33.0234C257.672 32.8828 257.098 32.6836 256.605 32.4258V30.6328C257.129 30.8906 257.754 31.125 258.48 31.3359C259.207 31.5469 259.949 31.6523 260.707 31.6523C261.816 31.6523 262.621 31.4727 263.121 31.1133C263.621 30.7539 263.871 30.2656 263.871 29.6484C263.871 29.2969 263.77 28.9883 263.566 28.7227C263.371 28.4492 263.039 28.1875 262.57 27.9375C262.102 27.6797 261.453 27.3984 260.625 27.0938C259.805 26.7812 259.094 26.4727 258.492 26.168C257.898 25.8555 257.438 25.4766 257.109 25.0312C256.789 24.5859 256.629 24.0078 256.629 23.2969C256.629 22.2109 257.066 21.3789 257.941 20.8008C258.824 20.2148 259.98 19.9219 261.41 19.9219C262.184 19.9219 262.906 20 263.578 20.1562C264.258 20.3047 264.891 20.5078 265.477 20.7656L264.82 22.3242C264.289 22.0977 263.723 21.9062 263.121 21.75C262.52 21.5938 261.906 21.5156 261.281 21.5156C260.383 21.5156 259.691 21.6641 259.207 21.9609C258.73 22.2578 258.492 22.6641 258.492 23.1797C258.492 23.5781 258.602 23.9062 258.82 24.1641C259.047 24.4219 259.406 24.6641 259.898 24.8906C260.391 25.1172 261.039 25.3828 261.844 25.6875C262.648 25.9844 263.344 26.293 263.93 26.6133C264.516 26.9258 264.965 27.3086 265.277 27.7617C265.598 28.207 265.758 28.7812 265.758 29.4844Z" fill="white"/>
</svg>
