<svg width="52" height="48" viewBox="0 0 52 48" fill="none" xmlns="http://www.w3.org/2000/svg">
<path d="M25.5874 31.3122C29.6621 31.3122 32.9652 28.0433 32.9652 24.0109C32.9652 19.9785 29.6621 16.7096 25.5874 16.7096C21.5127 16.7096 18.2095 19.9785 18.2095 24.0109C18.2095 28.0433 21.5127 31.3122 25.5874 31.3122Z" fill="#019AEB"/>
<path d="M29.4605 14.3756L27.9893 15.8958C31.5159 16.9236 34.1123 20.1567 34.1123 23.9893C34.1123 27.822 31.5376 31.0551 27.9893 32.1043L29.4605 33.6245L39.1751 23.9679L29.4605 14.3756Z" fill="#019AEB"/>
<path d="M21.7146 33.6245L23.1858 32.1043C19.6375 31.0765 17.0628 27.8434 17.0628 24.0107C17.0628 20.1781 19.6375 16.945 23.1858 15.8958L21.7146 14.3756L12 24.0322L21.7146 33.6245Z" fill="#019AEB"/>
</svg>
