<svg width="80" height="30" viewBox="0 0 80 30" fill="none" xmlns="http://www.w3.org/2000/svg">
<path d="M3.65277 7.8974H2.0514V1.78668H0V0.476562H5.70418V1.78595H3.65277V7.89666V7.8974Z" class="logo-accent"/>
<path d="M8.56749 2.11597C8.647 2.11597 8.7385 2.12039 8.84426 2.1285C8.94927 2.13734 9.03478 2.14766 9.10003 2.16166L8.98152 3.61325C8.92977 3.59631 8.85626 3.58378 8.76175 3.57494C8.66725 3.56683 8.58549 3.56241 8.51648 3.56241C8.31322 3.56241 8.11596 3.5882 7.92469 3.63831C7.73343 3.68915 7.56241 3.77094 7.4109 3.88442C7.25939 3.99789 7.13938 4.14673 7.05163 4.33095C6.96387 4.51516 6.91962 4.74137 6.91962 5.00885V7.89657H5.34375V2.22281H6.53709L6.76961 3.17704H6.84686C6.96087 2.98398 7.10263 2.80714 7.27289 2.6465C7.44316 2.48587 7.63817 2.35692 7.85644 2.26039C8.07545 2.16387 8.31172 2.11523 8.56674 2.11523L8.56749 2.11597Z" class="logo-accent"/>
<path d="M10.2284 0C10.4624 0 10.6642 0.0530533 10.833 0.159897C11.0017 0.26674 11.0865 0.464954 11.0865 0.75601C11.0865 1.04707 11.0017 1.24233 10.833 1.35212C10.6642 1.46191 10.4624 1.51718 10.2284 1.51718C9.99439 1.51718 9.78812 1.46191 9.62161 1.35212C9.45435 1.24233 9.37109 1.04338 9.37109 0.75601C9.37109 0.468638 9.45435 0.266004 9.62161 0.159897C9.78887 0.0530533 9.99139 0 10.2284 0ZM11.0137 2.22308V7.89758H9.43785V2.22308H11.0137Z" class="logo-accent"/>
<path d="M18.7239 2.11621C19.378 2.11621 19.8738 2.28127 20.209 2.61138C20.5451 2.94148 20.7131 3.46981 20.7131 4.19782V7.89755H19.132V4.58319C19.132 4.17719 19.0615 3.87066 18.9204 3.66434C18.7794 3.45802 18.5604 3.35486 18.2641 3.35486C17.8471 3.35486 17.5508 3.50149 17.3753 3.79402C17.1998 4.08655 17.1121 4.50508 17.1121 5.05035V7.89755H15.5362V4.58319C15.5362 4.31277 15.5054 4.08582 15.4432 3.90308C15.3809 3.72034 15.2864 3.58328 15.1589 3.49191C15.0314 3.40054 14.8679 3.35486 14.6684 3.35486C14.3759 3.35486 14.1456 3.42707 13.9783 3.57076C13.8111 3.71444 13.6926 3.92592 13.6221 4.20519C13.5515 4.48445 13.5163 4.82488 13.5163 5.22794V7.89755H11.9404V2.22305H13.1443L13.3558 2.94885H13.4435C13.5605 2.75285 13.7076 2.59369 13.8853 2.47211C14.0623 2.35053 14.2581 2.26063 14.4719 2.20316C14.6856 2.14569 14.9024 2.11695 15.1229 2.11695C15.5467 2.11695 15.906 2.18474 16.2 2.32032C16.4948 2.4559 16.7213 2.66517 16.8795 2.94959H17.0191C17.1916 2.65853 17.4346 2.44706 17.7504 2.31516C18.0654 2.18326 18.3902 2.11695 18.7239 2.11695V2.11621Z" class="logo-accent"/>
<path d="M23.1845 0V1.83771C23.1845 2.05066 23.1785 2.26213 23.1665 2.47214C23.1545 2.68214 23.1395 2.84425 23.1222 2.9592H23.1845C23.336 2.72561 23.543 2.52666 23.8048 2.36308C24.0666 2.19877 24.4056 2.11698 24.8226 2.11698C25.4699 2.11698 25.9957 2.36603 26.3985 2.86341C26.8013 3.36078 27.003 4.09026 27.003 5.05112C27.003 5.69734 26.91 6.23966 26.724 6.67809C26.538 7.11651 26.2777 7.44662 25.9439 7.66768C25.6102 7.88947 25.2224 8 24.7814 8C24.3403 8 24.0238 7.92558 23.7793 7.77673C23.5348 7.62789 23.3368 7.46062 23.1852 7.2742H23.0765L22.8132 7.89831H21.6094V0H23.1852H23.1845ZM24.3156 3.35489C24.0403 3.35489 23.8213 3.41089 23.6593 3.52215C23.4973 3.63415 23.3795 3.80142 23.3053 4.02468C23.231 4.24795 23.1905 4.5309 23.1837 4.87206V5.03933C23.1837 5.59123 23.2662 6.01345 23.432 6.30598C23.597 6.59851 23.8985 6.74514 24.3358 6.74514C24.6599 6.74514 24.9171 6.59777 25.1084 6.30377C25.2997 6.00903 25.3949 5.5846 25.3949 5.02975C25.3949 4.4749 25.2981 4.05711 25.1054 3.77563C24.9126 3.49489 24.6486 3.35415 24.3148 3.35415L24.3156 3.35489Z" class="logo-accent"/>
<path d="M29.2272 7.89758H27.6514V0H29.2272V7.89758Z" class="logo-accent"/>
<path d="M32.5881 2.11621C33.1222 2.11621 33.582 2.21716 33.9675 2.41832C34.353 2.61948 34.6508 2.91127 34.8616 3.2937C35.0716 3.67613 35.1766 4.14329 35.1766 4.69446V5.44531H31.4518C31.4691 5.88226 31.6026 6.22416 31.8523 6.47322C32.1021 6.72153 32.4494 6.84606 32.8934 6.84606C33.2617 6.84606 33.5992 6.80922 33.906 6.7348C34.2128 6.66038 34.5278 6.54837 34.8518 6.39953V7.59765C34.566 7.73618 34.2668 7.83786 33.9555 7.90197C33.6435 7.96608 33.2654 7.9985 32.8214 7.9985C32.2431 7.9985 31.7301 7.89387 31.2845 7.68386C30.8383 7.47386 30.4887 7.15407 30.236 6.72448C29.9825 6.2949 29.8564 5.75331 29.8564 5.10046C29.8564 4.44761 29.9712 3.88466 30.2 3.44328C30.4287 3.00191 30.7483 2.67032 31.1585 2.44853C31.5681 2.22674 32.0451 2.11621 32.5896 2.11621H32.5881ZM32.5986 3.2178C32.2919 3.2178 32.0384 3.31433 31.8366 3.50739C31.6348 3.69971 31.5186 4.00329 31.4878 4.41593H33.699C33.6952 4.18603 33.6532 3.98118 33.5722 3.80139C33.4912 3.62234 33.3705 3.48012 33.2107 3.37475C33.0502 3.27012 32.8462 3.2178 32.5986 3.2178Z" class="logo-accent"/>
<path d="M35.5782 7.23467C35.5737 6.85298 35.8849 6.53982 36.2735 6.53613C36.2787 6.53613 36.284 6.53613 36.2892 6.53613C36.6823 6.53613 37.0003 6.8493 37.0003 7.23467C37.0003 7.62078 36.6815 7.9332 36.2892 7.9332C35.8962 7.9332 35.5782 7.62004 35.5782 7.23467ZM36.8713 7.23467C36.8653 6.91782 36.5997 6.66508 36.2772 6.67098C35.9547 6.67687 35.6974 6.93772 35.7034 7.25456C35.7087 7.56846 35.9705 7.81973 36.29 7.81825C36.611 7.81825 36.872 7.56257 36.872 7.24646C36.872 7.24204 36.872 7.23835 36.872 7.23393L36.8713 7.23467ZM36.0132 6.83677H36.3042C36.488 6.83677 36.5952 6.91487 36.5952 7.07109C36.6042 7.16983 36.5405 7.2612 36.443 7.28772L36.611 7.60162H36.4482L36.2915 7.30909H36.1685V7.60162H36.0125V6.83677H36.0132ZM36.2952 7.19193C36.3905 7.19193 36.443 7.16172 36.443 7.07993C36.443 6.99814 36.3905 6.96793 36.2915 6.96793H36.1685V7.19119H36.2945L36.2952 7.19193Z" class="logo-accent"/>
<path d="M11.2148 12.1504L6.72363 25H4.49121L0 12.1504H2.16211L4.86914 20.2012C4.95117 20.4355 5.03906 20.7197 5.13281 21.0537C5.23242 21.3877 5.32324 21.7246 5.40527 22.0645C5.49316 22.4043 5.56055 22.7061 5.60742 22.9697C5.6543 22.7061 5.71875 22.4043 5.80078 22.0645C5.88867 21.7246 5.97949 21.3877 6.07324 21.0537C6.16699 20.7197 6.25488 20.4326 6.33691 20.1924L9.05273 12.1504H11.2148ZM13.8568 15.2705V25H11.7914V15.2705H13.8568ZM12.8373 11.5439C13.1537 11.5439 13.4262 11.6289 13.6547 11.7988C13.8891 11.9688 14.0063 12.2617 14.0063 12.6777C14.0063 13.0879 13.8891 13.3809 13.6547 13.5566C13.4262 13.7266 13.1537 13.8115 12.8373 13.8115C12.5092 13.8115 12.2309 13.7266 12.0023 13.5566C11.7797 13.3809 11.6684 13.0879 11.6684 12.6777C11.6684 12.2617 11.7797 11.9688 12.0023 11.7988C12.2309 11.6289 12.5092 11.5439 12.8373 11.5439ZM19.7947 15.0859C20.6619 15.0859 21.4061 15.2646 22.0271 15.6221C22.6482 15.9795 23.1258 16.4863 23.4598 17.1426C23.7937 17.7988 23.9607 18.584 23.9607 19.498V20.6055H17.4656C17.4891 21.5488 17.741 22.2754 18.2215 22.7852C18.7078 23.2949 19.3875 23.5498 20.2605 23.5498C20.8816 23.5498 21.4383 23.4912 21.9305 23.374C22.4285 23.251 22.9412 23.0723 23.4686 22.8379V24.5166C22.9822 24.7451 22.4871 24.9121 21.9832 25.0176C21.4793 25.123 20.8758 25.1758 20.1727 25.1758C19.2176 25.1758 18.3768 24.9912 17.6502 24.6221C16.9295 24.2471 16.3641 23.6904 15.9539 22.9521C15.5496 22.2139 15.3475 21.2969 15.3475 20.2012C15.3475 19.1113 15.532 18.1855 15.9012 17.4238C16.2703 16.6621 16.7889 16.082 17.4568 15.6836C18.1248 15.2852 18.9041 15.0859 19.7947 15.0859ZM19.7947 16.6416C19.1443 16.6416 18.617 16.8525 18.2127 17.2744C17.8143 17.6963 17.5799 18.3145 17.5096 19.1289H21.9393C21.9334 18.6426 21.8514 18.2119 21.6932 17.8369C21.5408 17.4619 21.3064 17.1689 20.99 16.958C20.6795 16.7471 20.2811 16.6416 19.7947 16.6416ZM33.3439 24.9912L32.1135 20.4648C32.0549 20.2422 31.9846 19.9727 31.9025 19.6562C31.8205 19.3398 31.7385 19.0146 31.6564 18.6807C31.5744 18.3408 31.4982 18.0273 31.4279 17.7402C31.3635 17.4531 31.3137 17.2305 31.2785 17.0723H31.2082C31.1789 17.2305 31.132 17.4531 31.0676 17.7402C31.0031 18.0273 30.9299 18.3408 30.8479 18.6807C30.7658 19.0205 30.6838 19.3516 30.6018 19.6738C30.5256 19.9961 30.4553 20.2715 30.3908 20.5L29.0988 24.9912H26.8312L24.1066 15.2617H26.1984L27.4641 20.0957C27.5461 20.4238 27.6252 20.7783 27.7014 21.1592C27.7834 21.54 27.8537 21.9033 27.9123 22.249C27.9709 22.5947 28.0148 22.8789 28.0441 23.1016H28.1145C28.1379 22.9434 28.1701 22.7441 28.2111 22.5039C28.2521 22.2578 28.299 22.0029 28.3518 21.7393C28.4045 21.4697 28.4572 21.2178 28.51 20.9834C28.5627 20.7432 28.6125 20.5498 28.6594 20.4033L30.1535 15.2617H32.4123L33.8449 20.4033C33.9094 20.626 33.9797 20.9072 34.0559 21.2471C34.132 21.5811 34.1994 21.918 34.258 22.2578C34.3225 22.5918 34.3635 22.8701 34.3811 23.0928H34.4514C34.4748 22.8936 34.5158 22.624 34.5744 22.2842C34.6389 21.9385 34.7121 21.5723 34.7941 21.1855C34.8762 20.793 34.9611 20.4297 35.049 20.0957L36.341 15.2617H38.3977L35.6555 24.9912H33.3439ZM44.1598 15.0859C45.3141 15.0859 46.2398 15.5078 46.9371 16.3516C47.6402 17.1953 47.9918 18.4492 47.9918 20.1133C47.9918 21.2148 47.8277 22.1436 47.4996 22.8994C47.1773 23.6494 46.7232 24.2178 46.1373 24.6045C45.5572 24.9854 44.8805 25.1758 44.107 25.1758C43.6148 25.1758 43.1871 25.1113 42.8238 24.9824C42.4605 24.8535 42.15 24.6865 41.8922 24.4814C41.6344 24.2705 41.4176 24.042 41.2418 23.7959H41.1188C41.148 24.0303 41.1744 24.291 41.1979 24.5781C41.2271 24.8594 41.2418 25.1172 41.2418 25.3516V29.3154H39.1676V15.2705H40.8551L41.1451 16.6152H41.2418C41.4234 16.3398 41.6432 16.085 41.901 15.8506C42.1646 15.6162 42.4811 15.4316 42.8502 15.2969C43.2252 15.1562 43.6617 15.0859 44.1598 15.0859ZM43.6061 16.7734C43.0377 16.7734 42.5807 16.8877 42.235 17.1162C41.8951 17.3389 41.6461 17.6758 41.4879 18.127C41.3355 18.5781 41.2535 19.1436 41.2418 19.8232V20.1133C41.2418 20.834 41.315 21.4463 41.4615 21.9502C41.6139 22.4482 41.8629 22.8291 42.2086 23.0928C42.5602 23.3506 43.0348 23.4795 43.6324 23.4795C44.1363 23.4795 44.5523 23.3418 44.8805 23.0664C45.2145 22.791 45.4635 22.3984 45.6275 21.8887C45.7916 21.3789 45.8736 20.7783 45.8736 20.0869C45.8736 19.0381 45.6861 18.2236 45.3111 17.6436C44.942 17.0635 44.3736 16.7734 43.6061 16.7734ZM58.0957 20.1133C58.0957 20.9219 57.9902 21.6396 57.7793 22.2666C57.5684 22.8936 57.2607 23.4238 56.8564 23.8574C56.4521 24.2852 55.9658 24.6133 55.3975 24.8418C54.8291 25.0645 54.1875 25.1758 53.4727 25.1758C52.8047 25.1758 52.1924 25.0645 51.6357 24.8418C51.0791 24.6133 50.5957 24.2852 50.1855 23.8574C49.7812 23.4238 49.4678 22.8936 49.2451 22.2666C49.0225 21.6396 48.9111 20.9219 48.9111 20.1133C48.9111 19.041 49.0957 18.1328 49.4648 17.3887C49.8398 16.6387 50.373 16.0674 51.0645 15.6748C51.7559 15.2822 52.5791 15.0859 53.5342 15.0859C54.4307 15.0859 55.2217 15.2822 55.9072 15.6748C56.5928 16.0674 57.1289 16.6387 57.5156 17.3887C57.9023 18.1387 58.0957 19.0469 58.0957 20.1133ZM51.0381 20.1133C51.0381 20.8223 51.123 21.4287 51.293 21.9326C51.4688 22.4365 51.7383 22.8232 52.1016 23.0928C52.4648 23.3564 52.9336 23.4883 53.5078 23.4883C54.082 23.4883 54.5508 23.3564 54.9141 23.0928C55.2773 22.8232 55.5439 22.4365 55.7139 21.9326C55.8838 21.4287 55.9688 20.8223 55.9688 20.1133C55.9688 19.4043 55.8838 18.8037 55.7139 18.3115C55.5439 17.8135 55.2773 17.4355 54.9141 17.1777C54.5508 16.9141 54.0791 16.7822 53.499 16.7822C52.6436 16.7822 52.0195 17.0693 51.627 17.6436C51.2344 18.2178 51.0381 19.041 51.0381 20.1133ZM61.6342 15.2705V25H59.5687V15.2705H61.6342ZM60.6146 11.5439C60.9311 11.5439 61.2035 11.6289 61.432 11.7988C61.6664 11.9688 61.7836 12.2617 61.7836 12.6777C61.7836 13.0879 61.6664 13.3809 61.432 13.5566C61.2035 13.7266 60.9311 13.8115 60.6146 13.8115C60.2865 13.8115 60.0082 13.7266 59.7797 13.5566C59.557 13.3809 59.4457 13.0879 59.4457 12.6777C59.4457 12.2617 59.557 11.9688 59.7797 11.7988C60.0082 11.6289 60.2865 11.5439 60.6146 11.5439ZM68.7674 15.0859C69.8631 15.0859 70.7156 15.3701 71.325 15.9385C71.9402 16.501 72.2479 17.4062 72.2479 18.6543V25H70.1824V19.041C70.1824 18.2852 70.0271 17.7197 69.7166 17.3447C69.4061 16.9639 68.9256 16.7734 68.2752 16.7734C67.3318 16.7734 66.6756 17.0635 66.3064 17.6436C65.9432 18.2236 65.7615 19.0645 65.7615 20.166V25H63.6961V15.2705H65.3045L65.5945 16.5889H65.7088C65.9197 16.249 66.1805 15.9707 66.491 15.7539C66.8074 15.5312 67.159 15.3643 67.5457 15.2529C67.9383 15.1416 68.3455 15.0859 68.7674 15.0859ZM77.8605 23.5059C78.1301 23.5059 78.3967 23.4824 78.6604 23.4355C78.924 23.3828 79.1643 23.3213 79.3811 23.251V24.8154C79.1525 24.915 78.8566 25 78.4934 25.0703C78.1301 25.1406 77.7522 25.1758 77.3596 25.1758C76.8088 25.1758 76.3137 25.085 75.8742 24.9033C75.4348 24.7158 75.0861 24.3965 74.8283 23.9453C74.5705 23.4941 74.4416 22.8701 74.4416 22.0732V16.8438H73.1145V15.9209L74.5383 15.1914L75.215 13.1084H76.5158V15.2705H79.302V16.8438H76.5158V22.0469C76.5158 22.5391 76.6389 22.9053 76.885 23.1455C77.1311 23.3857 77.4563 23.5059 77.8605 23.5059Z" class="logo-text"/>
</svg>
