<svg width="30" height="19" viewBox="13 14 30 19" fill="none" xmlns="http://www.w3.org/2000/svg">
<mask id="mask0_2337_63084" style="mask-type:luminance" maskUnits="userSpaceOnUse" x="13" y="14" width="11" height="19">
<path d="M22.3643 14.9714C20.703 15.8578 19.4673 17.5033 18.9762 19.4833C15.9755 19.7082 13.6001 22.6093 13.6001 26.1485C13.6001 29.6877 15.9721 32.592 18.9663 32.8246C19.096 32.8393 19.2261 32.8469 19.3566 32.8467L23.9251 32.8467V24.6368H21.9779C21.6605 25.7027 20.674 26.4807 19.5046 26.4807C18.0791 26.4807 16.9232 25.3256 16.9232 23.9004C16.9232 22.4754 18.0791 21.3202 19.5046 21.3202C20.674 21.3202 21.6605 22.0982 21.9779 23.1644H23.9251V14.4C23.3968 14.5119 22.8725 14.7005 22.3643 14.9714Z" fill="#FABC15"/>
</mask>
<g mask="url(#mask0_2337_63084)">
<path fill-rule="evenodd" clip-rule="evenodd" d="M13.1035 33.3457H24.4219V13.9009H13.1035V33.3457Z" class="logo-secondary"/>
</g>
<path fill-rule="evenodd" clip-rule="evenodd" d="M38.7106 24.3705H38.3565C38.1409 20.8799 35.5258 18.1699 32.3715 18.1687C31.83 18.171 31.2915 18.2537 30.7701 18.4145C29.6431 15.8013 27.256 14.3097 24.8027 14.4043V25.7842H30.3483C30.6654 24.724 31.6522 23.9506 32.8216 23.9506C34.2473 23.9506 35.4031 25.0993 35.4031 26.5161C35.4031 27.9333 34.2473 29.0821 32.8216 29.0821C31.6522 29.0821 30.6654 28.3083 30.3483 27.2484H24.8027V32.866H38.7106C40.7771 32.8601 42.4529 31.0077 42.4658 28.7155V28.5285C42.4567 26.2333 40.7797 24.3766 38.7106 24.3705Z" class="logo-emblem-trimble"/>
<mask id="mask1_2337_63084" style="mask-type:luminance" maskUnits="userSpaceOnUse" x="24" y="14" width="19" height="19">
<path d="M24.8027 14.4042V25.7409H30.345C30.6619 24.6848 31.648 23.9142 32.8168 23.9142C34.2415 23.9142 35.3967 25.0586 35.3967 26.4701C35.3967 27.8818 34.2415 29.0263 32.8168 29.0263C31.648 29.0263 30.6619 28.2554 30.345 27.1995H24.8027V32.7958H38.7022C40.7674 32.7899 42.4423 30.9445 42.4551 28.6612V28.4747C42.446 26.1883 40.7701 24.3387 38.7022 24.3325H38.3483C38.1328 20.8553 35.5192 18.1555 32.3668 18.1543C31.8258 18.1566 31.2876 18.239 30.7664 18.3991C29.674 15.8739 27.3961 14.4 25.0227 14.4C24.9494 14.4 24.8762 14.4014 24.8027 14.4042Z" fill="#005F9E"/>
</mask>
<g mask="url(#mask1_2337_63084)">
<path fill-rule="evenodd" clip-rule="evenodd" d="M11.0317 69.5016H128.785V11.24H11.0317V69.5016Z" class="logo-emblem-trimble"/>
</g>
<mask id="mask2_2337_63084" style="mask-type:luminance" maskUnits="userSpaceOnUse" x="24" y="14" width="19" height="19">
<path d="M24.8027 14.5024V25.7788H30.345C30.6619 24.7283 31.648 23.9619 32.8168 23.9619C34.2415 23.9619 35.3967 25.1002 35.3967 26.5042C35.3967 27.9084 34.2415 29.0468 32.8168 29.0468C31.648 29.0468 30.6619 28.28 30.345 27.2297H24.8027V32.7962H38.7022C40.7674 32.7904 42.4423 30.9548 42.4551 28.6836V28.4981C42.446 26.2239 40.7701 24.384 38.7022 24.3779H38.3483C38.1328 20.9192 35.5192 18.2338 32.3668 18.2326C31.8258 18.2349 31.2876 18.3168 30.7664 18.4761C29.674 15.9644 27.3961 14.4983 25.0228 14.4982C24.9493 14.4982 24.8762 14.4995 24.8027 14.5024Z" fill="#005F9E"/>
</mask>
<g mask="url(#mask2_2337_63084)">
<path fill-rule="evenodd" clip-rule="evenodd" d="M24.3037 33.2872H42.9541V14.0072H24.3037V33.2872Z" class="logo-emblem-trimble"/>
</g>
</svg>
