<svg width="199" height="48" viewBox="0 0 199 48" fill="none" xmlns="http://www.w3.org/2000/svg">
<path d="M25.5874 31.3122C29.6621 31.3122 32.9652 28.0433 32.9652 24.0109C32.9652 19.9785 29.6621 16.7096 25.5874 16.7096C21.5127 16.7096 18.2095 19.9785 18.2095 24.0109C18.2095 28.0433 21.5127 31.3122 25.5874 31.3122Z" fill="#019AEB"/>
<path d="M29.4605 14.3756L27.9893 15.8958C31.5159 16.9236 34.1123 20.1567 34.1123 23.9893C34.1123 27.822 31.5376 31.0551 27.9893 32.1043L29.4605 33.6245L39.1751 23.9679L29.4605 14.3756Z" fill="#019AEB"/>
<path d="M21.7146 33.6245L23.1858 32.1043C19.6375 31.0765 17.0628 27.8434 17.0628 24.0107C17.0628 20.1781 19.6375 16.945 23.1858 15.8958L21.7146 14.3756L12 24.0322L21.7146 33.6245Z" fill="#019AEB"/>
<path d="M47.1748 30.8425V12.3574H53.6386C57.6339 12.3574 60.7385 13.7617 60.7385 18.0255C60.7385 22.4936 57.3285 23.8213 53.5368 23.8213H50.2794V30.8425H47.1748ZM50.2794 21.0893H53.6894C56.4378 21.0893 57.6848 20.2468 57.6848 18.1021C57.6848 16.0596 56.4378 15.1659 53.664 15.1659H50.2794V21.0893Z" fill="#F1F1F6"/>
<path d="M62.647 30.8426V17.566H65.7007V19.7362H65.7516C66.5659 18.4085 67.991 17.3107 70.5104 17.3107H70.7139L70.6121 20.1447C70.4595 20.1192 69.9759 20.0936 69.7978 20.0936C67.8383 20.0936 66.5914 21.0128 65.7007 22.4426V30.8426H62.647Z" fill="#F1F1F6"/>
<path d="M71.4521 24.2298C71.4521 19.3277 74.6586 17.3362 77.9159 17.3362C81.1223 17.3362 84.3796 19.3277 84.3796 24.2298C84.3796 29.0809 81.1478 31.1234 77.9159 31.1234C74.684 31.1234 71.4521 29.0809 71.4521 24.2298ZM81.275 24.2298C81.275 21.7532 80.2316 19.966 77.9159 19.966C75.7019 19.966 74.5568 21.5745 74.5568 24.2298C74.5568 26.7575 75.5747 28.5447 77.9159 28.5447C80.1299 28.5447 81.275 26.9617 81.275 24.2298Z" fill="#F1F1F6"/>
<path d="M84.0488 35.7447V33.6001C84.2779 33.6511 84.685 33.7022 85.0413 33.7022C86.0083 33.7022 86.5173 33.2171 86.5173 32.0171V17.566H89.5965V32.5022C89.5965 34.3149 88.9857 35.8979 85.9065 35.8979C85.3467 35.8979 84.2524 35.7958 84.0488 35.7447ZM86.4918 15.2681V12.5873H89.6219V15.2681H86.4918Z" fill="#F1F1F6"/>
<path d="M91.8101 24.2298C91.8101 19.1745 95.3728 17.3362 98.1211 17.3362C101.099 17.3362 103.923 19.1234 103.923 24.5107V25.2255H94.8638C94.991 27.6255 96.467 28.6724 98.401 28.6724C100.131 28.6724 101.124 28.0851 102.116 27.1149L103.745 28.7234C102.371 30.2553 100.564 31.1234 98.1975 31.1234C94.8638 31.1234 91.8101 29.1064 91.8101 24.2298ZM101.099 22.9277C100.92 20.9106 99.9279 19.8383 98.0702 19.8383C96.5688 19.8383 95.1946 20.6809 94.9147 22.9277H101.099Z" fill="#F1F1F6"/>
<path d="M105.425 24.2298C105.425 19.1489 108.835 17.3362 111.787 17.3362C115.07 17.3362 116.469 19.149 117.258 21.217L114.662 22.1362C114.128 20.6298 113.186 19.9149 111.71 19.9149C109.955 19.9149 108.504 21.0638 108.504 24.2298C108.504 27.0638 109.649 28.5958 111.66 28.5958C113.059 28.5958 114.026 28.1617 114.739 26.2979L117.283 27.217C116.342 29.3362 114.764 31.1234 111.583 31.1234C108.529 31.1234 105.425 29.0809 105.425 24.2298Z" fill="#F1F1F6"/>
<path d="M120.541 27.3702V20.017H118.25V17.566H120.541V12.9447H123.595V17.566H127.005V20.017H123.595V26.6043C123.595 28.0341 124.027 28.5958 125.529 28.5958C125.987 28.5958 126.546 28.5192 126.852 28.4171V30.8426C126.521 30.9192 125.376 31.0213 124.612 31.0213C121.279 31.0213 120.541 29.7702 120.541 27.3702Z" fill="#F1F1F6"/>
<path d="M128.201 26.5021L130.669 25.2C131.763 27.3702 133.468 28.417 135.759 28.417C137.998 28.417 139.525 27.7021 139.525 26.017C139.525 24.4085 138.38 23.6681 135.326 22.7745C131.763 21.7277 128.888 20.7575 128.888 17.234C128.888 14.0936 131.458 12 135.199 12C138.838 12 140.975 13.8128 142.095 15.983L139.83 17.566C138.736 15.7277 137.158 14.8596 135.173 14.8596C133.138 14.8596 131.967 15.6 131.967 16.9532C131.967 18.6894 133.29 19.2511 136.293 20.1447C139.779 21.166 142.579 22.3149 142.579 25.7872C142.579 28.8255 140.008 31.2 135.631 31.2C131.967 31.2 129.397 29.3106 128.201 26.5021Z" fill="#F1F1F6"/>
<path d="M144.895 15.2681V12.5873H148.025V15.2681H144.895ZM144.92 30.8426V17.566H147.999V30.8426H144.92Z" fill="#F1F1F6"/>
<path d="M149.526 32.7575C149.526 31.4298 150.34 30.4851 151.689 29.949C151.027 29.5915 150.671 29.0554 150.671 28.3149C150.671 27.3192 151.46 26.4766 152.478 25.8894C151.129 25.0468 150.391 23.6937 150.391 22.0596C150.391 19.3277 152.478 17.3107 155.939 17.3107C157.771 17.3107 159.094 17.9234 160.01 18.7149C160.85 18.0511 162.199 17.5149 163.293 17.4128V19.9149C162.682 19.9149 161.843 19.9915 160.977 20.2724C161.283 20.7575 161.461 21.3702 161.461 22.0851C161.461 24.8681 159.4 26.8085 155.964 26.8085C155.226 26.8085 154.768 26.7064 154.132 26.5277C153.725 26.7575 153.47 27.0383 153.47 27.3702C153.47 27.9064 153.827 28.0596 154.997 28.1617L157.338 28.3149C161.257 28.5703 162.81 29.6171 162.81 31.9405C162.81 34.6724 160.061 36 155.99 36C151.333 36 149.526 34.6724 149.526 32.7575ZM160.01 32.2213C160.01 31.2766 159.349 30.9192 156.651 30.7405L154.361 30.5873C154.081 30.5873 153.827 30.5617 153.572 30.5107C152.707 30.9192 152.351 31.532 152.351 32.2213C152.351 33.3958 153.699 33.7788 156.397 33.7788C158.611 33.7788 160.01 33.1915 160.01 32.2213ZM158.636 22.1873C158.636 20.5277 157.695 19.6341 155.939 19.6341C154.234 19.6341 153.241 20.5532 153.241 22.1873C153.241 23.8213 154.259 24.6894 155.964 24.6894C157.644 24.6894 158.636 23.7958 158.636 22.1873Z" fill="#F1F1F6"/>
<path d="M164.947 30.8425V12.3574H168.026V19.3787C168.866 18.4851 170.469 17.3361 172.862 17.3361C175.177 17.3361 176.679 18.7149 176.679 21.3447V30.8681H173.6V22.1106C173.6 20.6298 172.989 19.9659 171.64 19.9659C170.291 19.9659 169.172 20.6553 168.052 21.7021V30.8681H164.947V30.8425Z" fill="#F1F1F6"/>
<path d="M180.496 27.3702V20.017H178.206V17.566H180.496V12.9447H183.55V17.566H186.96V20.017H183.55V26.6043C183.55 28.0341 183.982 28.5958 185.484 28.5958C185.942 28.5958 186.502 28.5192 186.807 28.4171V30.8426C186.476 30.9192 185.331 31.0213 184.568 31.0213C181.234 31.0213 180.496 29.7702 180.496 27.3702Z" fill="#F1F1F6"/>
</svg>
