<svg width="280" height="954" viewBox="0 0 280 954" fill="none" xmlns="http://www.w3.org/2000/svg">
<g opacity="0.4">
<path opacity="0.2" d="M1146.03 451.507L1310.7 746.893C1328.89 779.524 1329.78 819.036 1313.07 852.451L1047.01 1384.57L1048.8 1385.47L1314.86 853.345C1331.86 819.339 1330.96 779.127 1312.45 745.919L1147.78 450.533L1146.03 451.507ZM1130.03 451.507L1294.7 746.893C1312.89 779.524 1313.78 819.036 1297.07 852.451L1031.01 1384.57L1032.8 1385.47L1298.86 853.345C1315.86 819.339 1314.96 779.127 1296.45 745.919L1131.78 450.533L1130.03 451.507ZM1114.03 451.507L1278.7 746.893C1296.89 779.524 1297.78 819.036 1281.07 852.451L1015.01 1384.57L1016.8 1385.47L1282.86 853.345C1299.86 819.339 1298.96 779.127 1280.45 745.919L1115.78 450.533L1114.03 451.507ZM1098.03 451.507L1262.7 746.893C1280.89 779.524 1281.78 819.036 1265.07 852.451L999.009 1384.57L1000.8 1385.47L1266.86 853.345C1283.86 819.339 1282.96 779.127 1264.45 745.919L1099.78 450.533L1098.03 451.507ZM1082.03 451.507L1246.7 746.893C1264.89 779.524 1265.78 819.036 1249.07 852.451L983.009 1384.57L984.798 1385.47L1250.86 853.345C1267.86 819.339 1266.96 779.127 1248.45 745.919L1083.78 450.533L1082.03 451.507ZM1066.03 451.507L1230.7 746.893C1248.89 779.524 1249.78 819.036 1233.07 852.451L967.009 1384.57L968.798 1385.47L1234.86 853.345C1251.86 819.339 1250.96 779.127 1232.45 745.919L1067.78 450.533L1066.03 451.507ZM1050.03 451.507L1214.7 746.893C1232.89 779.524 1233.78 819.036 1217.07 852.451L951.009 1384.57L952.798 1385.47L1218.86 853.345C1235.86 819.339 1234.96 779.127 1216.45 745.919L1051.78 450.533L1050.03 451.507ZM1034.03 451.507L1198.7 746.893C1216.89 779.524 1217.78 819.036 1201.07 852.451L935.009 1384.57L936.798 1385.47L1202.86 853.345C1219.86 819.339 1218.96 779.127 1200.45 745.919L1035.78 450.533L1034.03 451.507ZM1018.03 451.507L1182.7 746.893C1200.89 779.524 1201.78 819.036 1185.07 852.451L919.009 1384.57L920.798 1385.47L1186.86 853.345C1203.86 819.339 1202.96 779.127 1184.45 745.919L1019.78 450.533L1018.03 451.507ZM1002.03 451.507L1166.7 746.893C1184.89 779.524 1185.78 819.036 1169.07 852.451L903.009 1384.57L904.798 1385.47L1170.86 853.345C1187.86 819.339 1186.96 779.127 1168.45 745.919L1003.78 450.533L1002.03 451.507ZM986.03 451.507L1150.7 746.893C1168.89 779.524 1169.78 819.036 1153.07 852.451L887.009 1384.57L888.798 1385.47L1154.86 853.345C1171.86 819.339 1170.96 779.127 1152.45 745.919L987.776 450.533L986.03 451.507ZM970.03 451.507L1134.7 746.893C1152.89 779.524 1153.78 819.036 1137.07 852.451L871.009 1384.57L872.798 1385.47L1138.86 853.345C1155.86 819.339 1154.96 779.127 1136.45 745.919L971.776 450.533L970.03 451.507ZM954.03 451.507L1118.7 746.893C1136.89 779.524 1137.78 819.036 1121.07 852.451L855.009 1384.57L856.798 1385.47L1122.86 853.345C1139.86 819.339 1138.96 779.127 1120.45 745.919L955.776 450.533L954.03 451.507ZM938.03 451.507L1102.7 746.893C1120.89 779.524 1121.78 819.036 1105.07 852.451L839.009 1384.57L840.798 1385.47L1106.86 853.345C1123.86 819.339 1122.96 779.127 1104.45 745.919L939.776 450.533L938.03 451.507ZM922.03 451.507L1086.7 746.893C1104.89 779.524 1105.78 819.036 1089.07 852.451L823.009 1384.57L824.798 1385.47L1090.86 853.345C1107.86 819.339 1106.96 779.127 1088.45 745.919L923.776 450.533L922.03 451.507ZM906.03 451.507L1070.7 746.893C1088.89 779.524 1089.78 819.036 1073.07 852.451L807.009 1384.57L808.798 1385.47L1074.86 853.345C1091.86 819.339 1090.96 779.127 1072.45 745.919L907.776 450.533L906.03 451.507ZM890.03 451.507L1054.7 746.893C1072.89 779.524 1073.78 819.036 1057.07 852.451L791.009 1384.57L792.798 1385.47L1058.86 853.345C1075.86 819.339 1074.96 779.127 1056.45 745.919L891.776 450.533L890.03 451.507ZM874.03 451.507L1038.7 746.893C1056.89 779.524 1057.78 819.036 1041.07 852.451L775.009 1384.57L776.798 1385.47L1042.86 853.345C1059.86 819.339 1058.96 779.127 1040.45 745.919L875.776 450.533L874.03 451.507ZM858.03 451.507L1022.7 746.893C1040.89 779.524 1041.78 819.036 1025.07 852.451L759.009 1384.57L760.798 1385.47L1026.86 853.345C1043.86 819.339 1042.96 779.127 1024.45 745.919L859.776 450.533L858.03 451.507ZM842.03 451.507L1006.7 746.893C1024.89 779.524 1025.78 819.036 1009.07 852.451L743.009 1384.57L744.798 1385.47L1010.86 853.345C1027.86 819.339 1026.96 779.127 1008.45 745.919L843.776 450.533L842.03 451.507ZM826.03 451.507L990.699 746.893C1008.89 779.524 1009.78 819.036 993.07 852.451L727.009 1384.57L728.798 1385.47L994.859 853.345C1011.86 819.339 1010.96 779.127 992.446 745.919L827.776 450.533L826.03 451.507ZM810.03 451.507L974.699 746.893C992.89 779.524 993.777 819.036 977.07 852.451L711.009 1384.57L712.798 1385.47L978.859 853.345C995.862 819.339 994.959 779.127 976.446 745.919L811.776 450.533L810.03 451.507ZM794.03 451.507L958.699 746.893C976.89 779.524 977.777 819.036 961.07 852.451L695.009 1384.57L696.798 1385.47L962.859 853.345C979.862 819.339 978.959 779.127 960.446 745.919L795.776 450.533L794.03 451.507ZM778.03 451.507L942.699 746.893C960.89 779.524 961.777 819.036 945.07 852.451L679.009 1384.57L680.798 1385.47L946.859 853.345C963.862 819.339 962.959 779.127 944.446 745.919L779.776 450.533L778.03 451.507ZM762.03 451.507L926.699 746.893C944.89 779.524 945.777 819.036 929.07 852.451L663.009 1384.57L664.798 1385.47L930.859 853.345C947.862 819.339 946.959 779.127 928.446 745.919L763.776 450.533L762.03 451.507ZM746.03 451.507L910.699 746.893C928.89 779.524 929.777 819.036 913.07 852.451L647.009 1384.57L648.798 1385.47L914.859 853.345C931.862 819.339 930.959 779.127 912.446 745.919L747.776 450.533L746.03 451.507ZM730.03 451.507L894.699 746.893C912.89 779.524 913.777 819.036 897.07 852.451L631.009 1384.57L632.798 1385.47L898.859 853.345C915.862 819.339 914.959 779.127 896.446 745.919L731.776 450.533L730.03 451.507ZM714.03 451.507L878.699 746.893C896.89 779.524 897.777 819.036 881.07 852.451L615.009 1384.57L616.798 1385.47L882.859 853.345C899.862 819.339 898.959 779.127 880.446 745.919L715.776 450.533L714.03 451.507ZM698.03 451.507L862.699 746.893C880.89 779.524 881.777 819.036 865.07 852.451L599.009 1384.57L600.798 1385.47L866.859 853.345C883.862 819.339 882.959 779.127 864.446 745.919L699.776 450.533L698.03 451.507ZM682.03 451.507L846.699 746.893C864.89 779.524 865.777 819.036 849.07 852.451L583.009 1384.57L584.798 1385.47L850.859 853.345C867.862 819.339 866.959 779.127 848.446 745.919L683.776 450.533L682.03 451.507ZM666.03 451.507L830.699 746.893C848.89 779.524 849.777 819.036 833.07 852.451L567.009 1384.57L568.798 1385.47L834.859 853.345C851.862 819.339 850.959 779.127 832.446 745.919L667.776 450.533L666.03 451.507ZM650.03 451.507L814.699 746.893C832.89 779.524 833.777 819.036 817.07 852.451L551.009 1384.57L552.798 1385.47L818.859 853.345C835.862 819.339 834.959 779.127 816.446 745.919L651.776 450.533L650.03 451.507ZM634.03 451.507L798.699 746.893C816.89 779.524 817.777 819.036 801.07 852.451L535.009 1384.57L536.798 1385.47L802.859 853.345C819.862 819.339 818.959 779.127 800.446 745.919L635.776 450.533L634.03 451.507ZM618.03 451.507L782.699 746.893C800.89 779.524 801.777 819.036 785.07 852.451L519.009 1384.57L520.798 1385.47L786.859 853.345C803.862 819.339 802.959 779.127 784.446 745.919L619.776 450.533L618.03 451.507ZM602.03 451.507L766.699 746.893C784.89 779.524 785.777 819.036 769.07 852.451L503.009 1384.57L504.798 1385.47L770.859 853.345C787.862 819.339 786.959 779.127 768.446 745.919L603.776 450.533L602.03 451.507ZM586.03 451.507L750.699 746.893C768.89 779.524 769.777 819.036 753.07 852.451L487.009 1384.57L488.798 1385.47L754.859 853.345C771.862 819.339 770.959 779.127 752.446 745.919L587.776 450.533L586.03 451.507ZM570.03 451.507L734.699 746.893C752.89 779.524 753.777 819.036 737.07 852.451L471.009 1384.57L472.798 1385.47L738.859 853.345C755.862 819.339 754.959 779.127 736.446 745.919L571.776 450.533L570.03 451.507ZM554.03 451.507L718.699 746.893C736.89 779.524 737.777 819.036 721.07 852.451L455.009 1384.57L456.798 1385.47L722.859 853.345C739.862 819.339 738.959 779.127 720.446 745.919L555.776 450.533L554.03 451.507ZM538.03 451.507L702.699 746.893C720.89 779.524 721.777 819.036 705.07 852.451L439.009 1384.57L440.798 1385.47L706.859 853.345C723.862 819.339 722.959 779.127 704.446 745.919L539.776 450.533L538.03 451.507ZM522.03 451.507L686.699 746.893C704.89 779.524 705.777 819.036 689.07 852.451L423.009 1384.57L424.798 1385.47L690.859 853.345C707.862 819.339 706.959 779.127 688.446 745.919L523.776 450.533L522.03 451.507ZM506.03 451.507L670.699 746.893C688.89 779.524 689.777 819.036 673.07 852.451L407.009 1384.57L408.798 1385.47L674.859 853.345C691.862 819.339 690.959 779.127 672.446 745.919L507.776 450.533L506.03 451.507ZM490.03 451.507L654.699 746.893C672.89 779.524 673.777 819.036 657.07 852.451L391.009 1384.57L392.798 1385.47L658.859 853.345C675.862 819.339 674.959 779.127 656.446 745.919L491.776 450.533L490.03 451.507ZM474.03 451.507L638.699 746.893C656.89 779.524 657.777 819.036 641.07 852.451L375.009 1384.57L376.798 1385.47L642.859 853.345C659.862 819.339 658.959 779.127 640.446 745.919L475.776 450.533L474.03 451.507ZM458.03 451.507L622.699 746.893C640.89 779.524 641.777 819.036 625.07 852.451L359.009 1384.57L360.798 1385.47L626.859 853.345C643.862 819.339 642.959 779.127 624.446 745.919L459.776 450.533L458.03 451.507ZM442.03 451.507L606.699 746.893C624.89 779.524 625.777 819.036 609.07 852.451L343.009 1384.57L344.798 1385.47L610.859 853.345C627.862 819.339 626.959 779.127 608.446 745.919L443.776 450.533L442.03 451.507ZM426.03 451.507L590.699 746.893C608.89 779.524 609.777 819.036 593.07 852.451L327.009 1384.57L328.798 1385.47L594.859 853.345C611.862 819.339 610.959 779.127 592.446 745.919L427.776 450.533L426.03 451.507ZM410.03 451.507L574.699 746.893C592.89 779.524 593.777 819.036 577.07 852.451L311.009 1384.57L312.798 1385.47L578.859 853.345C595.862 819.339 594.959 779.127 576.446 745.919L411.776 450.533L410.03 451.507ZM394.03 451.507L558.699 746.893C576.89 779.524 577.777 819.036 561.07 852.451L295.009 1384.57L296.798 1385.47L562.859 853.345C579.862 819.339 578.959 779.127 560.446 745.919L395.776 450.533L394.03 451.507ZM378.03 451.507L542.699 746.893C560.89 779.524 561.777 819.036 545.07 852.451L279.009 1384.57L280.798 1385.47L546.859 853.345C563.862 819.339 562.959 779.127 544.446 745.919L379.776 450.533L378.03 451.507ZM362.03 451.507L526.699 746.893C544.89 779.524 545.777 819.036 529.07 852.451L263.009 1384.57L264.798 1385.47L530.859 853.345C547.862 819.339 546.959 779.127 528.446 745.919L363.776 450.533L362.03 451.507ZM346.03 451.507L510.699 746.893C528.89 779.524 529.777 819.036 513.07 852.451L247.009 1384.57L248.798 1385.47L514.859 853.345C531.862 819.339 530.959 779.127 512.446 745.919L347.776 450.533L346.03 451.507ZM330.03 451.507L494.699 746.893C512.89 779.524 513.777 819.036 497.07 852.451L231.009 1384.57L232.798 1385.47L498.859 853.345C515.862 819.339 514.959 779.127 496.446 745.919L331.776 450.533L330.03 451.507ZM314.03 451.507L478.699 746.893C496.89 779.524 497.777 819.036 481.07 852.451L215.009 1384.57L216.798 1385.47L482.859 853.345C499.862 819.339 498.959 779.127 480.446 745.919L315.776 450.533L314.03 451.507ZM298.03 451.507L462.699 746.893C480.89 779.524 481.777 819.036 465.07 852.451L199.009 1384.57L200.798 1385.47L466.859 853.345C483.862 819.339 482.959 779.127 464.446 745.919L299.776 450.533L298.03 451.507ZM282.03 451.507L446.699 746.893C464.89 779.524 465.777 819.036 449.07 852.451L183.009 1384.57L184.798 1385.47L450.859 853.345C467.862 819.339 466.959 779.127 448.446 745.919L283.776 450.533L282.03 451.507ZM266.03 451.507L430.699 746.893C448.89 779.524 449.777 819.036 433.07 852.451L167.009 1384.57L168.798 1385.47L434.859 853.345C451.862 819.339 450.959 779.127 432.446 745.919L267.776 450.533L266.03 451.507ZM250.03 451.507L414.699 746.893C432.89 779.524 433.777 819.036 417.07 852.451L151.009 1384.57L152.798 1385.47L418.859 853.345C435.862 819.339 434.959 779.127 416.446 745.919L251.776 450.533L250.03 451.507ZM234.03 451.507L398.699 746.893C416.89 779.524 417.777 819.036 401.07 852.451L135.009 1384.57L136.798 1385.47L402.859 853.345C419.862 819.339 418.959 779.127 400.446 745.919L235.776 450.533L234.03 451.507ZM218.03 451.507L382.699 746.893C400.89 779.524 401.777 819.036 385.07 852.451L119.009 1384.57L120.798 1385.47L386.859 853.345C403.862 819.339 402.959 779.127 384.446 745.919L219.776 450.533L218.03 451.507ZM202.03 451.507L366.699 746.893C384.89 779.524 385.777 819.036 369.07 852.451L103.009 1384.57L104.798 1385.47L370.859 853.345C387.862 819.339 386.959 779.127 368.446 745.919L203.776 450.533L202.03 451.507ZM186.03 451.507L350.699 746.893C368.89 779.524 369.777 819.036 353.07 852.451L87.0088 1384.57L88.7979 1385.47L354.859 853.345C371.862 819.339 370.959 779.127 352.446 745.919L187.776 450.533L186.03 451.507ZM170.03 451.507L334.699 746.893C352.89 779.524 353.777 819.036 337.07 852.451L71.0088 1384.57L72.7979 1385.47L338.859 853.345C355.862 819.339 354.959 779.127 336.446 745.919L171.776 450.533L170.03 451.507ZM154.03 451.507L318.699 746.893C336.89 779.524 337.777 819.036 321.07 852.451L55.0088 1384.57L56.7979 1385.47L322.859 853.345C339.862 819.339 338.959 779.127 320.446 745.919L155.776 450.533L154.03 451.507ZM138.03 451.507L302.699 746.893C320.89 779.524 321.777 819.036 305.07 852.451L39.0088 1384.57L40.7979 1385.47L306.859 853.345C323.862 819.339 322.959 779.127 304.446 745.919L139.776 450.533L138.03 451.507ZM122.03 451.507L286.699 746.893C304.89 779.524 305.777 819.036 289.07 852.451L23.0088 1384.57L24.7979 1385.47L290.859 853.345C307.862 819.339 306.959 779.127 288.446 745.919L123.776 450.533L122.03 451.507ZM106.03 451.507L270.699 746.893C288.89 779.524 289.777 819.036 273.07 852.451L7.00879 1384.57L8.79785 1385.47L274.859 853.345C291.862 819.339 290.959 779.127 272.446 745.919L107.776 450.533L106.03 451.507ZM90.0303 451.507L254.699 746.893C272.89 779.524 273.777 819.036 257.07 852.451L-8.99121 1384.57L-7.20215 1385.47L258.859 853.345C275.862 819.339 274.959 779.127 256.446 745.919L91.7764 450.533L90.0303 451.507ZM74.0303 451.507L238.699 746.893C256.89 779.524 257.777 819.036 241.07 852.451L-24.9912 1384.57L-23.2021 1385.47L242.859 853.345C259.862 819.339 258.959 779.127 240.446 745.919L75.7764 450.533L74.0303 451.507ZM58.0303 451.507L222.699 746.893C240.89 779.524 241.777 819.036 225.07 852.451L-40.9912 1384.57L-39.2021 1385.47L226.859 853.345C243.862 819.339 242.959 779.127 224.446 745.919L59.7764 450.533L58.0303 451.507ZM42.0303 451.507L206.699 746.893C224.89 779.524 225.777 819.036 209.07 852.451L-56.9912 1384.57L-55.2021 1385.47L210.859 853.345C227.862 819.339 226.959 779.127 208.446 745.919L43.7764 450.533L42.0303 451.507ZM26.0303 451.507L190.699 746.893C208.89 779.524 209.777 819.036 193.07 852.451L-72.9912 1384.57L-71.2021 1385.47L194.859 853.345C211.862 819.339 210.959 779.127 192.446 745.919L27.7764 450.533L26.0303 451.507ZM10.0303 451.507L174.699 746.893C192.89 779.524 193.777 819.036 177.07 852.451L-88.9912 1384.57L-87.2021 1385.47L178.859 853.345C195.862 819.339 194.959 779.127 176.446 745.919L11.7764 450.533L10.0303 451.507ZM-5.96973 451.507L158.699 746.893C176.89 779.524 177.777 819.036 161.07 852.451L-104.991 1384.57L-103.202 1385.47L162.859 853.345C179.862 819.339 178.959 779.127 160.446 745.919L-4.22363 450.533L-5.96973 451.507ZM-21.9697 451.507L142.699 746.893C160.89 779.524 161.777 819.036 145.07 852.451L-120.991 1384.57L-119.202 1385.47L146.859 853.345C163.862 819.339 162.959 779.127 144.446 745.919L-20.2236 450.533L-21.9697 451.507ZM-37.9697 451.507L126.699 746.893C144.89 779.524 145.777 819.036 129.07 852.451L-136.991 1384.57L-135.202 1385.47L130.859 853.345C147.862 819.339 146.959 779.127 128.446 745.919L-36.2236 450.533L-37.9697 451.507ZM-53.9697 451.507L110.699 746.893C128.89 779.524 129.777 819.036 113.07 852.451L-152.991 1384.57L-151.202 1385.47L114.859 853.345C131.862 819.339 130.959 779.127 112.446 745.919L-52.2236 450.533L-53.9697 451.507ZM-69.9697 451.507L94.6992 746.893C112.89 779.524 113.777 819.036 97.0703 852.451L-168.991 1384.57L-167.202 1385.47L98.8594 853.345C115.862 819.339 114.959 779.127 96.4463 745.919L-68.2236 450.533L-69.9697 451.507ZM-85.9697 451.507L78.6992 746.893C96.8898 779.524 97.7775 819.036 81.0703 852.451L-184.991 1384.57L-183.202 1385.47L82.8594 853.345C99.8622 819.339 98.9587 779.127 80.4463 745.919L-84.2236 450.533L-85.9697 451.507ZM-101.97 451.507L62.6992 746.893C80.8898 779.524 81.7775 819.036 65.0703 852.451L-200.991 1384.57L-199.202 1385.47L66.8594 853.345C83.8622 819.339 82.9587 779.127 64.4463 745.919L-100.224 450.533L-101.97 451.507ZM-117.97 451.507L46.6992 746.893C64.8898 779.524 65.7775 819.036 49.0703 852.451L-216.991 1384.57L-215.202 1385.47L50.8594 853.345C67.8622 819.339 66.9587 779.127 48.4463 745.919L-116.224 450.533L-117.97 451.507ZM-133.97 451.507L30.6992 746.893C48.8898 779.524 49.7775 819.036 33.0703 852.451L-232.991 1384.57L-231.202 1385.47L34.8594 853.345C51.8622 819.339 50.9587 779.127 32.4463 745.919L-132.224 450.533L-133.97 451.507ZM-149.97 451.507L14.6992 746.893C32.8898 779.524 33.7775 819.036 17.0703 852.451L-248.991 1384.57L-247.202 1385.47L18.8594 853.345C35.8622 819.339 34.9587 779.127 16.4463 745.919L-148.224 450.533L-149.97 451.507ZM-165.97 451.507L-1.30078 746.893C16.8898 779.524 17.7775 819.036 1.07031 852.451L-264.991 1384.57L-263.202 1385.47L2.85938 853.345C19.8622 819.339 18.9587 779.127 0.446289 745.919L-164.224 450.533L-165.97 451.507Z" fill="url(#paint0_radial_2_2816)" fill-opacity="0.5"/>
</g>
<g opacity="0.4">
<path opacity="0.2" d="M-828.03 -86.9927L-992.699 208.393C-1010.89 241.024 -1011.78 280.536 -995.07 313.951L-729.009 846.073L-730.798 846.967L-996.859 314.845C-1013.86 280.839 -1012.96 240.627 -994.446 207.419L-829.776 -87.9673L-828.03 -86.9927ZM-812.03 -86.9927L-976.699 208.393C-994.89 241.024 -995.777 280.536 -979.07 313.951L-713.009 846.073L-714.798 846.967L-980.859 314.845C-997.862 280.839 -996.959 240.627 -978.446 207.419L-813.776 -87.9673L-812.03 -86.9927ZM-796.03 -86.9927L-960.699 208.393C-978.89 241.024 -979.777 280.536 -963.07 313.951L-697.009 846.073L-698.798 846.967L-964.859 314.845C-981.862 280.839 -980.959 240.627 -962.446 207.419L-797.776 -87.9673L-796.03 -86.9927ZM-780.03 -86.9927L-944.699 208.393C-962.89 241.024 -963.777 280.536 -947.07 313.951L-681.009 846.073L-682.798 846.967L-948.859 314.845C-965.862 280.839 -964.959 240.627 -946.446 207.419L-781.776 -87.9673L-780.03 -86.9927ZM-764.03 -86.9927L-928.699 208.393C-946.89 241.024 -947.777 280.536 -931.07 313.951L-665.009 846.073L-666.798 846.967L-932.859 314.845C-949.862 280.839 -948.959 240.627 -930.446 207.419L-765.776 -87.9673L-764.03 -86.9927ZM-748.03 -86.9927L-912.699 208.393C-930.89 241.024 -931.777 280.536 -915.07 313.951L-649.009 846.073L-650.798 846.967L-916.859 314.845C-933.862 280.839 -932.959 240.627 -914.446 207.419L-749.776 -87.9673L-748.03 -86.9927ZM-732.03 -86.9927L-896.699 208.393C-914.89 241.024 -915.777 280.536 -899.07 313.951L-633.009 846.073L-634.798 846.967L-900.859 314.845C-917.862 280.839 -916.959 240.627 -898.446 207.419L-733.776 -87.9673L-732.03 -86.9927ZM-716.03 -86.9927L-880.699 208.393C-898.89 241.024 -899.777 280.536 -883.07 313.951L-617.009 846.073L-618.798 846.967L-884.859 314.845C-901.862 280.839 -900.959 240.627 -882.446 207.419L-717.776 -87.9673L-716.03 -86.9927ZM-700.03 -86.9927L-864.699 208.393C-882.89 241.024 -883.777 280.536 -867.07 313.951L-601.009 846.073L-602.798 846.967L-868.859 314.845C-885.862 280.839 -884.959 240.627 -866.446 207.419L-701.776 -87.9673L-700.03 -86.9927ZM-684.03 -86.9927L-848.699 208.393C-866.89 241.024 -867.777 280.536 -851.07 313.951L-585.009 846.073L-586.798 846.967L-852.859 314.845C-869.862 280.839 -868.959 240.627 -850.446 207.419L-685.776 -87.9673L-684.03 -86.9927ZM-668.03 -86.9927L-832.699 208.393C-850.89 241.024 -851.777 280.536 -835.07 313.951L-569.009 846.073L-570.798 846.967L-836.859 314.845C-853.862 280.839 -852.959 240.627 -834.446 207.419L-669.776 -87.9673L-668.03 -86.9927ZM-652.03 -86.9927L-816.699 208.393C-834.89 241.024 -835.777 280.536 -819.07 313.951L-553.009 846.073L-554.798 846.967L-820.859 314.845C-837.862 280.839 -836.959 240.627 -818.446 207.419L-653.776 -87.9673L-652.03 -86.9927ZM-636.03 -86.9927L-800.699 208.393C-818.89 241.024 -819.777 280.536 -803.07 313.951L-537.009 846.073L-538.798 846.967L-804.859 314.845C-821.862 280.839 -820.959 240.627 -802.446 207.419L-637.776 -87.9673L-636.03 -86.9927ZM-620.03 -86.9927L-784.699 208.393C-802.89 241.024 -803.777 280.536 -787.07 313.951L-521.009 846.073L-522.798 846.967L-788.859 314.845C-805.862 280.839 -804.959 240.627 -786.446 207.419L-621.776 -87.9673L-620.03 -86.9927ZM-604.03 -86.9927L-768.699 208.393C-786.89 241.024 -787.777 280.536 -771.07 313.951L-505.009 846.073L-506.798 846.967L-772.859 314.845C-789.862 280.839 -788.959 240.627 -770.446 207.419L-605.776 -87.9673L-604.03 -86.9927ZM-588.03 -86.9927L-752.699 208.393C-770.89 241.024 -771.777 280.536 -755.07 313.951L-489.009 846.073L-490.798 846.967L-756.859 314.845C-773.862 280.839 -772.959 240.627 -754.446 207.419L-589.776 -87.9673L-588.03 -86.9927ZM-572.03 -86.9927L-736.699 208.393C-754.89 241.024 -755.777 280.536 -739.07 313.951L-473.009 846.073L-474.798 846.967L-740.859 314.845C-757.862 280.839 -756.959 240.627 -738.446 207.419L-573.776 -87.9673L-572.03 -86.9927ZM-556.03 -86.9927L-720.699 208.393C-738.89 241.024 -739.777 280.536 -723.07 313.951L-457.009 846.073L-458.798 846.967L-724.859 314.845C-741.862 280.839 -740.959 240.627 -722.446 207.419L-557.776 -87.9673L-556.03 -86.9927ZM-540.03 -86.9927L-704.699 208.393C-722.89 241.024 -723.777 280.536 -707.07 313.951L-441.009 846.073L-442.798 846.967L-708.859 314.845C-725.862 280.839 -724.959 240.627 -706.446 207.419L-541.776 -87.9673L-540.03 -86.9927ZM-524.03 -86.9927L-688.699 208.393C-706.89 241.024 -707.777 280.536 -691.07 313.951L-425.009 846.073L-426.798 846.967L-692.859 314.845C-709.862 280.839 -708.959 240.627 -690.446 207.419L-525.776 -87.9673L-524.03 -86.9927ZM-508.03 -86.9927L-672.699 208.393C-690.89 241.024 -691.777 280.536 -675.07 313.951L-409.009 846.073L-410.798 846.967L-676.859 314.845C-693.862 280.839 -692.959 240.627 -674.446 207.419L-509.776 -87.9673L-508.03 -86.9927ZM-492.03 -86.9927L-656.699 208.393C-674.89 241.024 -675.777 280.536 -659.07 313.951L-393.009 846.073L-394.798 846.967L-660.859 314.845C-677.862 280.839 -676.959 240.627 -658.446 207.419L-493.776 -87.9673L-492.03 -86.9927ZM-476.03 -86.9927L-640.699 208.393C-658.89 241.024 -659.777 280.536 -643.07 313.951L-377.009 846.073L-378.798 846.967L-644.859 314.845C-661.862 280.839 -660.959 240.627 -642.446 207.419L-477.776 -87.9673L-476.03 -86.9927ZM-460.03 -86.9927L-624.699 208.393C-642.89 241.024 -643.777 280.536 -627.07 313.951L-361.009 846.073L-362.798 846.967L-628.859 314.845C-645.862 280.839 -644.959 240.627 -626.446 207.419L-461.776 -87.9673L-460.03 -86.9927ZM-444.03 -86.9927L-608.699 208.393C-626.89 241.024 -627.777 280.536 -611.07 313.951L-345.009 846.073L-346.798 846.967L-612.859 314.845C-629.862 280.839 -628.959 240.627 -610.446 207.419L-445.776 -87.9673L-444.03 -86.9927ZM-428.03 -86.9927L-592.699 208.393C-610.89 241.024 -611.777 280.536 -595.07 313.951L-329.009 846.073L-330.798 846.967L-596.859 314.845C-613.862 280.839 -612.959 240.627 -594.446 207.419L-429.776 -87.9673L-428.03 -86.9927ZM-412.03 -86.9927L-576.699 208.393C-594.89 241.024 -595.777 280.536 -579.07 313.951L-313.009 846.073L-314.798 846.967L-580.859 314.845C-597.862 280.839 -596.959 240.627 -578.446 207.419L-413.776 -87.9673L-412.03 -86.9927ZM-396.03 -86.9927L-560.699 208.393C-578.89 241.024 -579.777 280.536 -563.07 313.951L-297.009 846.073L-298.798 846.967L-564.859 314.845C-581.862 280.839 -580.959 240.627 -562.446 207.419L-397.776 -87.9673L-396.03 -86.9927ZM-380.03 -86.9927L-544.699 208.393C-562.89 241.024 -563.777 280.536 -547.07 313.951L-281.009 846.073L-282.798 846.967L-548.859 314.845C-565.862 280.839 -564.959 240.627 -546.446 207.419L-381.776 -87.9673L-380.03 -86.9927ZM-364.03 -86.9927L-528.699 208.393C-546.89 241.024 -547.777 280.536 -531.07 313.951L-265.009 846.073L-266.798 846.967L-532.859 314.845C-549.862 280.839 -548.959 240.627 -530.446 207.419L-365.776 -87.9673L-364.03 -86.9927ZM-348.03 -86.9927L-512.699 208.393C-530.89 241.024 -531.777 280.536 -515.07 313.951L-249.009 846.073L-250.798 846.967L-516.859 314.845C-533.862 280.839 -532.959 240.627 -514.446 207.419L-349.776 -87.9673L-348.03 -86.9927ZM-332.03 -86.9927L-496.699 208.393C-514.89 241.024 -515.777 280.536 -499.07 313.951L-233.009 846.073L-234.798 846.967L-500.859 314.845C-517.862 280.839 -516.959 240.627 -498.446 207.419L-333.776 -87.9673L-332.03 -86.9927ZM-316.03 -86.9927L-480.699 208.393C-498.89 241.024 -499.777 280.536 -483.07 313.951L-217.009 846.073L-218.798 846.967L-484.859 314.845C-501.862 280.839 -500.959 240.627 -482.446 207.419L-317.776 -87.9673L-316.03 -86.9927ZM-300.03 -86.9927L-464.699 208.393C-482.89 241.024 -483.777 280.536 -467.07 313.951L-201.009 846.073L-202.798 846.967L-468.859 314.845C-485.862 280.839 -484.959 240.627 -466.446 207.419L-301.776 -87.9673L-300.03 -86.9927ZM-284.03 -86.9927L-448.699 208.393C-466.89 241.024 -467.777 280.536 -451.07 313.951L-185.009 846.073L-186.798 846.967L-452.859 314.845C-469.862 280.839 -468.959 240.627 -450.446 207.419L-285.776 -87.9673L-284.03 -86.9927ZM-268.03 -86.9927L-432.699 208.393C-450.89 241.024 -451.777 280.536 -435.07 313.951L-169.009 846.073L-170.798 846.967L-436.859 314.845C-453.862 280.839 -452.959 240.627 -434.446 207.419L-269.776 -87.9673L-268.03 -86.9927ZM-252.03 -86.9927L-416.699 208.393C-434.89 241.024 -435.777 280.536 -419.07 313.951L-153.009 846.073L-154.798 846.967L-420.859 314.845C-437.862 280.839 -436.959 240.627 -418.446 207.419L-253.776 -87.9673L-252.03 -86.9927ZM-236.03 -86.9927L-400.699 208.393C-418.89 241.024 -419.777 280.536 -403.07 313.951L-137.009 846.073L-138.798 846.967L-404.859 314.845C-421.862 280.839 -420.959 240.627 -402.446 207.419L-237.776 -87.9673L-236.03 -86.9927ZM-220.03 -86.9927L-384.699 208.393C-402.89 241.024 -403.777 280.536 -387.07 313.951L-121.009 846.073L-122.798 846.967L-388.859 314.845C-405.862 280.839 -404.959 240.627 -386.446 207.419L-221.776 -87.9673L-220.03 -86.9927ZM-204.03 -86.9927L-368.699 208.393C-386.89 241.024 -387.777 280.536 -371.07 313.951L-105.009 846.073L-106.798 846.967L-372.859 314.845C-389.862 280.839 -388.959 240.627 -370.446 207.419L-205.776 -87.9673L-204.03 -86.9927ZM-188.03 -86.9927L-352.699 208.393C-370.89 241.024 -371.777 280.536 -355.07 313.951L-89.0088 846.073L-90.7979 846.967L-356.859 314.845C-373.862 280.839 -372.959 240.627 -354.446 207.419L-189.776 -87.9673L-188.03 -86.9927ZM-172.03 -86.9927L-336.699 208.393C-354.89 241.024 -355.777 280.536 -339.07 313.951L-73.0088 846.073L-74.7979 846.967L-340.859 314.845C-357.862 280.839 -356.959 240.627 -338.446 207.419L-173.776 -87.9673L-172.03 -86.9927ZM-156.03 -86.9927L-320.699 208.393C-338.89 241.024 -339.777 280.536 -323.07 313.951L-57.0088 846.073L-58.7979 846.967L-324.859 314.845C-341.862 280.839 -340.959 240.627 -322.446 207.419L-157.776 -87.9673L-156.03 -86.9927ZM-140.03 -86.9927L-304.699 208.393C-322.89 241.024 -323.777 280.536 -307.07 313.951L-41.0088 846.073L-42.7979 846.967L-308.859 314.845C-325.862 280.839 -324.959 240.627 -306.446 207.419L-141.776 -87.9673L-140.03 -86.9927ZM-124.03 -86.9927L-288.699 208.393C-306.89 241.024 -307.777 280.536 -291.07 313.951L-25.0088 846.073L-26.7979 846.967L-292.859 314.845C-309.862 280.839 -308.959 240.627 -290.446 207.419L-125.776 -87.9673L-124.03 -86.9927ZM-108.03 -86.9927L-272.699 208.393C-290.89 241.024 -291.777 280.536 -275.07 313.951L-9.00879 846.073L-10.7979 846.967L-276.859 314.845C-293.862 280.839 -292.959 240.627 -274.446 207.419L-109.776 -87.9673L-108.03 -86.9927ZM-92.0303 -86.9927L-256.699 208.393C-274.89 241.024 -275.777 280.536 -259.07 313.951L6.99121 846.073L5.20215 846.967L-260.859 314.845C-277.862 280.839 -276.959 240.627 -258.446 207.419L-93.7764 -87.9673L-92.0303 -86.9927ZM-76.0303 -86.9927L-240.699 208.393C-258.89 241.024 -259.777 280.536 -243.07 313.951L22.9912 846.073L21.2021 846.967L-244.859 314.845C-261.862 280.839 -260.959 240.627 -242.446 207.419L-77.7764 -87.9673L-76.0303 -86.9927ZM-60.0303 -86.9927L-224.699 208.393C-242.89 241.024 -243.777 280.536 -227.07 313.951L38.9912 846.073L37.2021 846.967L-228.859 314.845C-245.862 280.839 -244.959 240.627 -226.446 207.419L-61.7764 -87.9673L-60.0303 -86.9927ZM-44.0303 -86.9927L-208.699 208.393C-226.89 241.024 -227.777 280.536 -211.07 313.951L54.9912 846.073L53.2021 846.967L-212.859 314.845C-229.862 280.839 -228.959 240.627 -210.446 207.419L-45.7764 -87.9673L-44.0303 -86.9927ZM-28.0303 -86.9927L-192.699 208.393C-210.89 241.024 -211.777 280.536 -195.07 313.951L70.9912 846.073L69.2021 846.967L-196.859 314.845C-213.862 280.839 -212.959 240.627 -194.446 207.419L-29.7764 -87.9673L-28.0303 -86.9927ZM-12.0303 -86.9927L-176.699 208.393C-194.89 241.024 -195.777 280.536 -179.07 313.951L86.9912 846.073L85.2021 846.967L-180.859 314.845C-197.862 280.839 -196.959 240.627 -178.446 207.419L-13.7764 -87.9673L-12.0303 -86.9927ZM3.96973 -86.9927L-160.699 208.393C-178.89 241.024 -179.777 280.536 -163.07 313.951L102.991 846.073L101.202 846.967L-164.859 314.845C-181.862 280.839 -180.959 240.627 -162.446 207.419L2.22363 -87.9673L3.96973 -86.9927ZM19.9697 -86.9927L-144.699 208.393C-162.89 241.024 -163.777 280.536 -147.07 313.951L118.991 846.073L117.202 846.967L-148.859 314.845C-165.862 280.839 -164.959 240.627 -146.446 207.419L18.2236 -87.9673L19.9697 -86.9927ZM35.9697 -86.9927L-128.699 208.393C-146.89 241.024 -147.777 280.536 -131.07 313.951L134.991 846.073L133.202 846.967L-132.859 314.845C-149.862 280.839 -148.959 240.627 -130.446 207.419L34.2236 -87.9673L35.9697 -86.9927ZM51.9697 -86.9927L-112.699 208.393C-130.89 241.024 -131.777 280.536 -115.07 313.951L150.991 846.073L149.202 846.967L-116.859 314.845C-133.862 280.839 -132.959 240.627 -114.446 207.419L50.2236 -87.9673L51.9697 -86.9927ZM67.9697 -86.9927L-96.6992 208.393C-114.89 241.024 -115.777 280.536 -99.0703 313.951L166.991 846.073L165.202 846.967L-100.859 314.845C-117.862 280.839 -116.959 240.627 -98.4463 207.419L66.2236 -87.9673L67.9697 -86.9927ZM83.9697 -86.9927L-80.6992 208.393C-98.8898 241.024 -99.7775 280.536 -83.0703 313.951L182.991 846.073L181.202 846.967L-84.8594 314.845C-101.862 280.839 -100.959 240.627 -82.4463 207.419L82.2236 -87.9673L83.9697 -86.9927ZM99.9697 -86.9927L-64.6992 208.393C-82.8898 241.024 -83.7775 280.536 -67.0703 313.951L198.991 846.073L197.202 846.967L-68.8594 314.845C-85.8622 280.839 -84.9587 240.627 -66.4463 207.419L98.2236 -87.9673L99.9697 -86.9927ZM115.97 -86.9927L-48.6992 208.393C-66.8898 241.024 -67.7775 280.536 -51.0703 313.951L214.991 846.073L213.202 846.967L-52.8594 314.845C-69.8622 280.839 -68.9587 240.627 -50.4463 207.419L114.224 -87.9673L115.97 -86.9927ZM131.97 -86.9927L-32.6992 208.393C-50.8898 241.024 -51.7775 280.536 -35.0703 313.951L230.991 846.073L229.202 846.967L-36.8594 314.845C-53.8622 280.839 -52.9587 240.627 -34.4463 207.419L130.224 -87.9673L131.97 -86.9927ZM147.97 -86.9927L-16.6992 208.393C-34.8898 241.024 -35.7775 280.536 -19.0703 313.951L246.991 846.073L245.202 846.967L-20.8594 314.845C-37.8622 280.839 -36.9587 240.627 -18.4463 207.419L146.224 -87.9673L147.97 -86.9927ZM163.97 -86.9927L-0.699219 208.393C-18.8898 241.024 -19.7775 280.536 -3.07031 313.951L262.991 846.073L261.202 846.967L-4.85938 314.845C-21.8622 280.839 -20.9587 240.627 -2.44629 207.419L162.224 -87.9673L163.97 -86.9927ZM179.97 -86.9927L15.3008 208.393C-2.88978 241.024 -3.77748 280.536 12.9297 313.951L278.991 846.073L277.202 846.967L11.1406 314.845C-5.86222 280.839 -4.95873 240.627 13.5537 207.419L178.224 -87.9673L179.97 -86.9927ZM195.97 -86.9927L31.3008 208.393C13.1102 241.024 12.2225 280.536 28.9297 313.951L294.991 846.073L293.202 846.967L27.1406 314.845C10.1378 280.839 11.0413 240.627 29.5537 207.419L194.224 -87.9673L195.97 -86.9927ZM211.97 -86.9927L47.3008 208.393C29.1102 241.024 28.2225 280.536 44.9297 313.951L310.991 846.073L309.202 846.967L43.1406 314.845C26.1378 280.839 27.0413 240.627 45.5537 207.419L210.224 -87.9673L211.97 -86.9927ZM227.97 -86.9927L63.3008 208.393C45.1102 241.024 44.2225 280.536 60.9297 313.951L326.991 846.073L325.202 846.967L59.1406 314.845C42.1378 280.839 43.0413 240.627 61.5537 207.419L226.224 -87.9673L227.97 -86.9927ZM243.97 -86.9927L79.3008 208.393C61.1102 241.024 60.2225 280.536 76.9297 313.951L342.991 846.073L341.202 846.967L75.1406 314.845C58.1378 280.839 59.0413 240.627 77.5537 207.419L242.224 -87.9673L243.97 -86.9927ZM259.97 -86.9927L95.3008 208.393C77.1102 241.024 76.2225 280.536 92.9297 313.951L358.991 846.073L357.202 846.967L91.1406 314.845C74.1378 280.839 75.0413 240.627 93.5537 207.419L258.224 -87.9673L259.97 -86.9927ZM275.97 -86.9927L111.301 208.393C93.1102 241.024 92.2225 280.536 108.93 313.951L374.991 846.073L373.202 846.967L107.141 314.845C90.1378 280.839 91.0413 240.627 109.554 207.419L274.224 -87.9673L275.97 -86.9927ZM291.97 -86.9927L127.301 208.393C109.11 241.024 108.223 280.536 124.93 313.951L390.991 846.073L389.202 846.967L123.141 314.845C106.138 280.839 107.041 240.627 125.554 207.419L290.224 -87.9673L291.97 -86.9927ZM307.97 -86.9927L143.301 208.393C125.11 241.024 124.223 280.536 140.93 313.951L406.991 846.073L405.202 846.967L139.141 314.845C122.138 280.839 123.041 240.627 141.554 207.419L306.224 -87.9673L307.97 -86.9927ZM323.97 -86.9927L159.301 208.393C141.11 241.024 140.223 280.536 156.93 313.951L422.991 846.073L421.202 846.967L155.141 314.845C138.138 280.839 139.041 240.627 157.554 207.419L322.224 -87.9673L323.97 -86.9927ZM339.97 -86.9927L175.301 208.393C157.11 241.024 156.223 280.536 172.93 313.951L438.991 846.073L437.202 846.967L171.141 314.845C154.138 280.839 155.041 240.627 173.554 207.419L338.224 -87.9673L339.97 -86.9927ZM355.97 -86.9927L191.301 208.393C173.11 241.024 172.223 280.536 188.93 313.951L454.991 846.073L453.202 846.967L187.141 314.845C170.138 280.839 171.041 240.627 189.554 207.419L354.224 -87.9673L355.97 -86.9927ZM371.97 -86.9927L207.301 208.393C189.11 241.024 188.223 280.536 204.93 313.951L470.991 846.073L469.202 846.967L203.141 314.845C186.138 280.839 187.041 240.627 205.554 207.419L370.224 -87.9673L371.97 -86.9927ZM387.97 -86.9927L223.301 208.393C205.11 241.024 204.223 280.536 220.93 313.951L486.991 846.073L485.202 846.967L219.141 314.845C202.138 280.839 203.041 240.627 221.554 207.419L386.224 -87.9673L387.97 -86.9927ZM403.97 -86.9927L239.301 208.393C221.11 241.024 220.223 280.536 236.93 313.951L502.991 846.073L501.202 846.967L235.141 314.845C218.138 280.839 219.041 240.627 237.554 207.419L402.224 -87.9673L403.97 -86.9927ZM419.97 -86.9927L255.301 208.393C237.11 241.024 236.223 280.536 252.93 313.951L518.991 846.073L517.202 846.967L251.141 314.845C234.138 280.839 235.041 240.627 253.554 207.419L418.224 -87.9673L419.97 -86.9927ZM435.97 -86.9927L271.301 208.393C253.11 241.024 252.223 280.536 268.93 313.951L534.991 846.073L533.202 846.967L267.141 314.845C250.138 280.839 251.041 240.627 269.554 207.419L434.224 -87.9673L435.97 -86.9927ZM451.97 -86.9927L287.301 208.393C269.11 241.024 268.223 280.536 284.93 313.951L550.991 846.073L549.202 846.967L283.141 314.845C266.138 280.839 267.041 240.627 285.554 207.419L450.224 -87.9673L451.97 -86.9927ZM467.97 -86.9927L303.301 208.393C285.11 241.024 284.223 280.536 300.93 313.951L566.991 846.073L565.202 846.967L299.141 314.845C282.138 280.839 283.041 240.627 301.554 207.419L466.224 -87.9673L467.97 -86.9927ZM483.97 -86.9927L319.301 208.393C301.11 241.024 300.223 280.536 316.93 313.951L582.991 846.073L581.202 846.967L315.141 314.845C298.138 280.839 299.041 240.627 317.554 207.419L482.224 -87.9673L483.97 -86.9927Z" fill="url(#paint1_radial_2_2816)" fill-opacity="0.5"/>
</g>
<defs>
<radialGradient id="paint0_radial_2_2816" cx="0" cy="0" r="1" gradientUnits="userSpaceOnUse" gradientTransform="translate(-40.5003 732.5) rotate(70.7079) scale(655.298 298.982)">
<stop stop-opacity="0"/>
<stop offset="0.456507" stop-color="#F1F1F6"/>
<stop offset="0.759596" stop-opacity="0"/>
</radialGradient>
<radialGradient id="paint1_radial_2_2816" cx="0" cy="0" r="1" gradientUnits="userSpaceOnUse" gradientTransform="translate(193.5 -141.5) rotate(97.3058) scale(845.363 399.477)">
<stop offset="0.253944" stop-opacity="0"/>
<stop offset="0.495435" stop-color="#F1F1F6"/>
<stop offset="0.78478" stop-opacity="0"/>
</radialGradient>
</defs>
</svg>
