<svg width="304.55" height="30.89" viewBox="12 8.55 304.55 30.89" fill="none" xmlns="http://www.w3.org/2000/svg">
<path d="M22.8188 33.1485L25.3228 23.986L21.1766 8.55499H12L20.1941 39.445H29.4353L27.7706 33.2187L22.8188 33.1485Z" fill="#019AEB"/>
<path d="M30.968 8.55499L26.8442 23.986L28.9356 31.5709H34.0025L40.2288 8.55499H30.968Z" fill="#019AEB"/>
<path d="M57.0167 31.2046L50.229 11.5994H53.5976L58.6252 26.8338H58.6786L63.796 11.6106H66.912L60.1299 31.2158L57.0167 31.2046Z" fill="#F1F1F6"/>
<path d="M68.8208 14.6844V11.8773H72.1473V14.6844H68.8208ZM68.8489 31.1231V17.1126H72.1248V31.1231H68.8489Z" fill="#F1F1F6"/>
<path d="M74.4434 24.1333C74.4434 18.7997 78.2162 16.8488 81.1188 16.8488C84.2572 16.8488 87.2665 18.7239 87.2665 24.4281V25.1916H77.6884C77.8204 27.7181 79.3727 28.8409 81.4332 28.8409C83.255 28.8409 84.3105 28.2318 85.3632 27.2044L87.0784 28.8887C85.6271 30.5 83.7098 31.4151 81.1833 31.4151C77.6884 31.4151 74.4434 29.2761 74.4434 24.1333ZM84.2853 22.7606C84.1 20.6216 83.0445 19.4875 81.0907 19.4875C79.5075 19.4875 78.0562 20.3858 77.739 22.7606H84.2853Z" fill="#F1F1F6"/>
<path d="M91.9211 31.1232L87.7524 17.1127H91.0509L92.5808 22.9179C93.0018 24.5011 93.2657 25.5819 93.6362 27.3785H93.6896C94.1107 25.478 94.3493 24.4759 94.7984 22.8645L96.2666 17.1127H98.9053L100.477 22.9712C100.926 24.5264 101.165 25.5819 101.561 27.3785H101.6C102.021 25.5566 102.26 24.5545 102.706 23.0246L104.289 17.1127H107.245L103.077 31.1232H100.048L97.5214 21.388H97.468L94.9416 31.1232H91.9211Z" fill="#F1F1F6"/>
<path d="M108.899 36.4006V17.1126H112.155V18.9738C112.691 18.3081 113.37 17.7724 114.142 17.4068C114.914 17.0412 115.759 16.8552 116.613 16.8628C119.808 16.8628 122.154 19.2657 122.154 24.1193C122.154 28.9729 119.754 31.3253 116.164 31.3253C115.409 31.3311 114.661 31.1765 113.97 30.8716C113.279 30.5668 112.66 30.1186 112.155 29.5568V36.3894L108.899 36.4006ZM118.898 24.1333C118.898 21.1774 117.632 19.6194 115.546 19.6194C114.202 19.6194 112.908 20.4616 112.144 21.3879V27.0022C112.526 27.5228 113.022 27.9499 113.593 28.2513C114.165 28.5528 114.797 28.7208 115.442 28.7427C117.907 28.7483 118.909 27.2465 118.909 24.1333H118.898Z" fill="#F1F1F6"/>
<path d="M123.777 24.1333C123.777 18.9597 127.179 16.8488 130.609 16.8488C134.04 16.8488 137.442 18.9597 137.442 24.1333C137.442 29.2508 134.015 31.4151 130.609 31.4151C127.204 31.4151 123.777 29.2508 123.777 24.1333ZM134.163 24.1333C134.163 21.5199 133.054 19.6194 130.601 19.6194C128.251 19.6194 127.039 21.3037 127.039 24.1333C127.039 26.7973 128.122 28.6978 130.601 28.6978C132.956 28.6978 134.163 27.0079 134.163 24.1333Z" fill="#F1F1F6"/>
<path d="M139.777 14.6844V11.8773H143.09V14.6844H139.777ZM139.803 31.1231V17.1126H143.076V31.1231H139.803Z" fill="#F1F1F6"/>
<path d="M146.113 31.1232V17.1126H149.358V19.3584C150.414 18.1457 152.05 16.8516 154.372 16.8516C156.932 16.8516 158.515 18.1709 158.515 20.9416V31.126H155.27V21.8623C155.27 20.3324 154.636 19.5408 153.159 19.5408C151.733 19.5408 150.546 20.2538 149.358 21.3599V31.1232H146.113Z" fill="#F1F1F6"/>
<path d="M162.555 27.457V19.698H160.126V17.1126H162.555V12.2366H165.8V17.1126H169.413V19.698H165.8V26.6373C165.8 28.1419 166.246 28.7483 167.857 28.7483C168.331 28.7497 168.803 28.6884 169.261 28.5658V31.1231C168.475 31.245 167.681 31.3069 166.886 31.3084C163.318 31.3084 162.555 29.9891 162.555 27.457Z" fill="#F1F1F6"/>
<path d="M179.412 24.1337C179.412 19.1987 182.576 16.9305 185.506 16.9305C188.752 16.9305 191.18 19.4093 191.18 24.159V24.5043H181.231C181.259 27.9318 183.21 29.8603 185.61 29.8603C187.696 29.8603 188.883 28.962 189.939 27.3339L191.062 28.2322C189.849 30.1972 188.134 31.3986 185.495 31.3986C182.261 31.3902 179.412 28.8834 179.412 24.1337ZM189.411 23.053C189.226 20.4142 187.96 18.4604 185.481 18.4604C183.477 18.4604 181.605 19.9117 181.27 23.053H189.411Z" fill="#F1F1F6"/>
<path d="M194.363 11.5745H200.864C205.111 11.5745 207.697 13.315 207.697 16.9081C207.697 20.8382 204.794 22.4495 200.679 22.4495H196.238V31.1039H194.363V11.5745ZM200.802 20.782C204.022 20.782 205.816 19.7799 205.816 16.9558C205.816 14.3171 204.047 13.2897 200.763 13.2897H196.238V20.782H200.802Z" fill="#F1F1F6"/>
<path d="M209.378 27.8532C209.378 25.1106 211.728 23.1035 218.799 22.0227V21.3097C218.799 19.384 217.794 18.4604 215.975 18.4604C213.786 18.4604 212.228 19.384 210.776 20.65L209.799 19.5272C211.461 17.9973 213.39 16.9418 216.132 16.9418C219.246 16.9418 220.593 18.6036 220.593 21.3743V27.6792C220.593 29.3635 220.697 30.3993 220.989 31.1095H219.111C218.901 30.4709 218.795 29.8027 218.796 29.1305C217.185 30.5818 215.391 31.3481 213.306 31.3481C210.83 31.3369 209.378 30.0175 209.378 27.8532ZM218.799 27.6427V23.314C212.834 24.319 211.172 25.7956 211.172 27.6174C211.172 29.0687 212.149 29.8323 213.699 29.8323C215.658 29.8323 217.373 29.0154 218.799 27.6511V27.6427Z" fill="#F1F1F6"/>
<path d="M221.792 36.14L222.213 34.6353C222.843 34.7883 223.49 34.8591 224.139 34.8459C225.643 34.8459 226.41 34.1862 226.988 32.7096L227.569 31.1797L222.199 17.1945H224.15L228.479 28.9368H228.532L232.833 17.1945H234.73L228.731 32.704C227.808 35.1827 226.766 36.4235 224.085 36.4235C223.311 36.4407 222.539 36.3452 221.792 36.14Z" fill="#F1F1F6"/>
<path d="M236.908 17.1944H238.727V19.384C240.131 18.0113 241.737 16.9305 243.822 16.9305C246.169 16.9305 247.225 17.958 247.646 19.4373C249.097 18.0646 250.84 16.9305 252.898 16.9305C255.747 16.9305 256.909 18.539 256.909 21.0458V31.0983H255.087V21.3883C255.087 19.4233 254.428 18.4857 252.477 18.4857C250.792 18.4857 249.389 19.4093 247.831 20.9139V31.0983H246.012V21.3883C246.012 19.4233 245.352 18.4857 243.373 18.4857C241.711 18.4857 240.285 19.4093 238.727 20.9139V31.0983H236.908V17.1944Z" fill="#F1F1F6"/>
<path d="M259.683 24.1337C259.683 19.1987 262.849 16.9305 265.777 16.9305C269.022 16.9305 271.45 19.4093 271.45 24.159V24.5043H261.499C261.524 27.9318 263.464 29.8603 265.878 29.8603C267.961 29.8603 269.148 28.962 270.204 27.3339L271.341 28.2322C270.125 30.1972 268.41 31.3986 265.771 31.3986C262.532 31.3902 259.683 28.8834 259.683 24.1337ZM269.682 23.053C269.499 20.4142 268.23 18.4604 265.752 18.4604C263.745 18.4604 261.872 19.9117 261.541 23.053H269.682Z" fill="#F1F1F6"/>
<path d="M274.255 17.1944H276.074V19.384C277.419 18.0646 279.187 16.9305 281.377 16.9305C284.122 16.9305 285.52 18.4604 285.52 21.0458V31.0983H283.701V21.3883C283.701 19.4233 282.828 18.4857 280.93 18.4857C279.134 18.4857 277.632 19.4093 276.074 20.9139V31.0983H274.255V17.1944Z" fill="#F1F1F6"/>
<path d="M289.851 27.8532V18.7496H287.423V17.1944H289.851V12.2117H291.673V17.1944H295.286V18.7496H291.673V27.4855C291.673 28.9621 292.147 29.7537 293.863 29.7537C294.353 29.7657 294.842 29.7033 295.314 29.5684V31.1264C294.721 31.2271 294.121 31.2796 293.52 31.2836C290.839 31.2836 289.851 30.2562 289.851 27.8532Z" fill="#F1F1F6"/>
<path d="M297.049 28.8834L298.211 27.8279C298.732 28.4688 299.393 28.9825 300.142 29.3298C300.892 29.6771 301.711 29.8489 302.537 29.8322C304.912 29.8322 306.152 28.962 306.152 27.4041C306.152 25.8461 305.03 25.2678 302.326 24.6334C299.135 23.8418 297.498 22.9996 297.498 20.5714C297.498 18.6064 299.213 16.9221 302.22 16.9221C304.594 16.9221 306.124 17.7137 307.365 18.9264L306.338 20.1419C305.814 19.5932 305.182 19.1579 304.483 18.8628C303.784 18.5678 303.032 18.4194 302.273 18.4268C300.109 18.4268 299.266 19.4289 299.266 20.4844C299.266 21.829 300.215 22.3849 302.635 22.9631C306.116 23.8053 307.912 24.6474 307.912 27.3704C307.912 29.8968 305.642 31.3537 302.503 31.3537C300.03 31.3622 298.104 30.3067 297.049 28.8834Z" fill="#F1F1F6"/>
<path d="M310.302 12.0237H309.044V11.5745H312.059V12.0237H310.81V15.6112H310.302V12.0237ZM312.775 11.5745H313.432L314.644 14.9431L315.877 11.5745H316.545V15.6112H316.028V12.4419L314.855 15.6112H314.425L313.252 12.4419V15.6112H312.775V11.5745Z" fill="#F1F1F6"/>
</svg>
