<svg width="66" height="30" viewBox="0 0 66 30" fill="none" xmlns="http://www.w3.org/2000/svg">
<path d="M3.65277 7.8974H2.0514V1.78668H0V0.476562H5.70418V1.78595H3.65277V7.89666V7.8974Z" class="logo-accent"/>
<path d="M8.56749 2.11597C8.647 2.11597 8.7385 2.12039 8.84426 2.1285C8.94927 2.13734 9.03478 2.14766 9.10003 2.16166L8.98152 3.61325C8.92977 3.59631 8.85626 3.58378 8.76175 3.57494C8.66725 3.56683 8.58549 3.56241 8.51648 3.56241C8.31322 3.56241 8.11596 3.5882 7.92469 3.63831C7.73343 3.68915 7.56241 3.77094 7.4109 3.88442C7.25939 3.99789 7.13938 4.14673 7.05163 4.33095C6.96387 4.51516 6.91962 4.74137 6.91962 5.00885V7.89657H5.34375V2.22281H6.53709L6.76961 3.17704H6.84686C6.96087 2.98398 7.10263 2.80714 7.27289 2.6465C7.44316 2.48587 7.63817 2.35692 7.85644 2.26039C8.07545 2.16387 8.31172 2.11523 8.56674 2.11523L8.56749 2.11597Z" class="logo-accent"/>
<path d="M10.2284 0C10.4624 0 10.6642 0.0530533 10.833 0.159897C11.0017 0.26674 11.0865 0.464954 11.0865 0.75601C11.0865 1.04707 11.0017 1.24233 10.833 1.35212C10.6642 1.46191 10.4624 1.51718 10.2284 1.51718C9.99439 1.51718 9.78812 1.46191 9.62161 1.35212C9.45435 1.24233 9.37109 1.04338 9.37109 0.75601C9.37109 0.468638 9.45435 0.266004 9.62161 0.159897C9.78887 0.0530533 9.99139 0 10.2284 0ZM11.0137 2.22308V7.89758H9.43785V2.22308H11.0137Z" class="logo-accent"/>
<path d="M18.7239 2.11621C19.378 2.11621 19.8738 2.28127 20.209 2.61138C20.5451 2.94148 20.7131 3.46981 20.7131 4.19782V7.89755H19.132V4.58319C19.132 4.17719 19.0615 3.87066 18.9204 3.66434C18.7794 3.45802 18.5604 3.35486 18.2641 3.35486C17.8471 3.35486 17.5508 3.50149 17.3753 3.79402C17.1998 4.08655 17.1121 4.50508 17.1121 5.05035V7.89755H15.5362V4.58319C15.5362 4.31277 15.5054 4.08582 15.4432 3.90308C15.3809 3.72034 15.2864 3.58328 15.1589 3.49191C15.0314 3.40054 14.8679 3.35486 14.6684 3.35486C14.3759 3.35486 14.1456 3.42707 13.9783 3.57076C13.8111 3.71444 13.6926 3.92592 13.6221 4.20519C13.5515 4.48445 13.5163 4.82488 13.5163 5.22794V7.89755H11.9404V2.22305H13.1443L13.3558 2.94885H13.4435C13.5605 2.75285 13.7076 2.59369 13.8853 2.47211C14.0623 2.35053 14.2581 2.26063 14.4719 2.20316C14.6856 2.14569 14.9024 2.11695 15.1229 2.11695C15.5467 2.11695 15.906 2.18474 16.2 2.32032C16.4948 2.4559 16.7213 2.66517 16.8795 2.94959H17.0191C17.1916 2.65853 17.4346 2.44706 17.7504 2.31516C18.0654 2.18326 18.3902 2.11695 18.7239 2.11695V2.11621Z" class="logo-accent"/>
<path d="M23.1845 0V1.83771C23.1845 2.05066 23.1785 2.26213 23.1665 2.47214C23.1545 2.68214 23.1395 2.84425 23.1222 2.9592H23.1845C23.336 2.72561 23.543 2.52666 23.8048 2.36308C24.0666 2.19877 24.4056 2.11698 24.8226 2.11698C25.4699 2.11698 25.9957 2.36603 26.3985 2.86341C26.8013 3.36078 27.003 4.09026 27.003 5.05112C27.003 5.69734 26.91 6.23966 26.724 6.67809C26.538 7.11651 26.2777 7.44662 25.9439 7.66768C25.6102 7.88947 25.2224 8 24.7814 8C24.3403 8 24.0238 7.92558 23.7793 7.77673C23.5348 7.62789 23.3368 7.46062 23.1852 7.2742H23.0765L22.8132 7.89831H21.6094V0H23.1852H23.1845ZM24.3156 3.35489C24.0403 3.35489 23.8213 3.41089 23.6593 3.52215C23.4973 3.63415 23.3795 3.80142 23.3053 4.02468C23.231 4.24795 23.1905 4.5309 23.1837 4.87206V5.03933C23.1837 5.59123 23.2662 6.01345 23.432 6.30598C23.597 6.59851 23.8985 6.74514 24.3358 6.74514C24.6599 6.74514 24.9171 6.59777 25.1084 6.30377C25.2997 6.00903 25.3949 5.5846 25.3949 5.02975C25.3949 4.4749 25.2981 4.05711 25.1054 3.77563C24.9126 3.49489 24.6486 3.35415 24.3148 3.35415L24.3156 3.35489Z" class="logo-accent"/>
<path d="M29.2272 7.89758H27.6514V0H29.2272V7.89758Z" class="logo-accent"/>
<path d="M32.5881 2.11621C33.1222 2.11621 33.582 2.21716 33.9675 2.41832C34.353 2.61948 34.6508 2.91127 34.8616 3.2937C35.0716 3.67613 35.1766 4.14329 35.1766 4.69446V5.44531H31.4518C31.4691 5.88226 31.6026 6.22416 31.8523 6.47322C32.1021 6.72153 32.4494 6.84606 32.8934 6.84606C33.2617 6.84606 33.5992 6.80922 33.906 6.7348C34.2128 6.66038 34.5278 6.54837 34.8518 6.39953V7.59765C34.566 7.73618 34.2668 7.83786 33.9555 7.90197C33.6435 7.96608 33.2654 7.9985 32.8214 7.9985C32.2431 7.9985 31.7301 7.89387 31.2845 7.68386C30.8383 7.47386 30.4887 7.15407 30.236 6.72448C29.9825 6.2949 29.8564 5.75331 29.8564 5.10046C29.8564 4.44761 29.9712 3.88466 30.2 3.44328C30.4287 3.00191 30.7483 2.67032 31.1585 2.44853C31.5681 2.22674 32.0451 2.11621 32.5896 2.11621H32.5881ZM32.5986 3.2178C32.2919 3.2178 32.0384 3.31433 31.8366 3.50739C31.6348 3.69971 31.5186 4.00329 31.4878 4.41593H33.699C33.6952 4.18603 33.6532 3.98118 33.5722 3.80139C33.4912 3.62234 33.3705 3.48012 33.2107 3.37475C33.0502 3.27012 32.8462 3.2178 32.5986 3.2178Z" class="logo-accent"/>
<path d="M35.5782 7.23467C35.5737 6.85298 35.8849 6.53982 36.2735 6.53613C36.2787 6.53613 36.284 6.53613 36.2892 6.53613C36.6823 6.53613 37.0003 6.8493 37.0003 7.23467C37.0003 7.62078 36.6815 7.9332 36.2892 7.9332C35.8962 7.9332 35.5782 7.62004 35.5782 7.23467ZM36.8713 7.23467C36.8653 6.91782 36.5997 6.66508 36.2772 6.67098C35.9547 6.67687 35.6974 6.93772 35.7034 7.25456C35.7087 7.56846 35.9705 7.81973 36.29 7.81825C36.611 7.81825 36.872 7.56257 36.872 7.24646C36.872 7.24204 36.872 7.23835 36.872 7.23393L36.8713 7.23467ZM36.0132 6.83677H36.3042C36.488 6.83677 36.5952 6.91487 36.5952 7.07109C36.6042 7.16983 36.5405 7.2612 36.443 7.28772L36.611 7.60162H36.4482L36.2915 7.30909H36.1685V7.60162H36.0125V6.83677H36.0132ZM36.2952 7.19193C36.3905 7.19193 36.443 7.16172 36.443 7.07993C36.443 6.99814 36.3905 6.96793 36.2915 6.96793H36.1685V7.19119H36.2945L36.2952 7.19193Z" class="logo-accent"/>
<path d="M5.42285 12.1504C7.08105 12.1504 8.29102 12.4902 9.05273 13.1699C9.81445 13.8496 10.1953 14.8018 10.1953 16.0264C10.1953 16.583 10.1074 17.1133 9.93164 17.6172C9.76172 18.1152 9.48047 18.5576 9.08789 18.9443C8.69531 19.3252 8.17676 19.627 7.53223 19.8496C6.89355 20.0723 6.10547 20.1836 5.16797 20.1836H3.79688V25H1.6875V12.1504H5.42285ZM5.28223 13.8994H3.79688V18.4258H4.94824C5.61035 18.4258 6.17285 18.3496 6.63574 18.1973C7.09863 18.0391 7.4502 17.79 7.69043 17.4502C7.93066 17.1104 8.05078 16.6621 8.05078 16.1055C8.05078 15.3613 7.8252 14.8076 7.37402 14.4443C6.92871 14.0811 6.23145 13.8994 5.28223 13.8994ZM17.3373 13.7588C16.7221 13.7588 16.1713 13.8701 15.685 14.0928C15.2045 14.3154 14.7973 14.6377 14.4633 15.0596C14.1293 15.4756 13.8744 15.9824 13.6986 16.5801C13.5229 17.1719 13.435 17.8398 13.435 18.584C13.435 19.5801 13.5756 20.4385 13.8568 21.1592C14.1381 21.874 14.5658 22.4248 15.14 22.8115C15.7143 23.1924 16.4408 23.3828 17.3197 23.3828C17.8646 23.3828 18.3949 23.3301 18.9105 23.2246C19.4262 23.1191 19.9594 22.9756 20.5102 22.7939V24.5869C19.9887 24.792 19.4613 24.9414 18.9281 25.0352C18.3949 25.1289 17.7797 25.1758 17.0824 25.1758C15.7699 25.1758 14.6801 24.9033 13.8129 24.3584C12.9516 23.8135 12.307 23.0459 11.8793 22.0557C11.4574 21.0654 11.2465 19.9053 11.2465 18.5752C11.2465 17.6025 11.3813 16.7119 11.6508 15.9033C11.9203 15.0947 12.3129 14.3975 12.8285 13.8115C13.3441 13.2197 13.9799 12.7656 14.7357 12.4492C15.4975 12.127 16.3676 11.9658 17.3461 11.9658C17.9906 11.9658 18.6234 12.0391 19.2445 12.1855C19.8715 12.3262 20.4516 12.5283 20.9848 12.792L20.2465 14.5322C19.8012 14.3213 19.3354 14.1396 18.849 13.9873C18.3627 13.835 17.8588 13.7588 17.3373 13.7588ZM31.6916 25L27.9914 14.2686H27.9123C27.9299 14.5088 27.9504 14.8369 27.9738 15.2529C27.9973 15.6689 28.0178 16.1143 28.0354 16.5889C28.0529 17.0635 28.0617 17.5176 28.0617 17.9512V25H26.1457V12.1504H29.1076L32.6672 22.4072H32.7199L36.4025 12.1504H39.3557V25H37.343V17.8457C37.343 17.4531 37.3488 17.0283 37.3605 16.5713C37.3781 16.1143 37.3957 15.6807 37.4133 15.2705C37.4367 14.8604 37.4543 14.5322 37.466 14.2861H37.3957L33.5549 25H31.6916ZM43.6939 15.2705V25H41.6285V15.2705H43.6939ZM42.6744 11.5439C42.9908 11.5439 43.2633 11.6289 43.4918 11.7988C43.7262 11.9688 43.8434 12.2617 43.8434 12.6777C43.8434 13.0879 43.7262 13.3809 43.4918 13.5566C43.2633 13.7266 42.9908 13.8115 42.6744 13.8115C42.3463 13.8115 42.068 13.7266 41.8395 13.5566C41.6168 13.3809 41.5055 13.0879 41.5055 12.6777C41.5055 12.2617 41.6168 11.9688 41.8395 11.7988C42.068 11.6289 42.3463 11.5439 42.6744 11.5439ZM47.8301 25H45.7559V11.3242H47.8301V25ZM53.7592 15.0859C54.6264 15.0859 55.3705 15.2646 55.9916 15.6221C56.6127 15.9795 57.0902 16.4863 57.4242 17.1426C57.7582 17.7988 57.9252 18.584 57.9252 19.498V20.6055H51.4301C51.4535 21.5488 51.7055 22.2754 52.1859 22.7852C52.6723 23.2949 53.352 23.5498 54.225 23.5498C54.8461 23.5498 55.4027 23.4912 55.8949 23.374C56.393 23.251 56.9057 23.0723 57.433 22.8379V24.5166C56.9467 24.7451 56.4516 24.9121 55.9477 25.0176C55.4437 25.123 54.8402 25.1758 54.1371 25.1758C53.182 25.1758 52.3412 24.9912 51.6146 24.6221C50.8939 24.2471 50.3285 23.6904 49.9184 22.9521C49.5141 22.2139 49.3119 21.2969 49.3119 20.2012C49.3119 19.1113 49.4965 18.1855 49.8656 17.4238C50.2348 16.6621 50.7533 16.082 51.4213 15.6836C52.0893 15.2852 52.8686 15.0859 53.7592 15.0859ZM53.7592 16.6416C53.1088 16.6416 52.5814 16.8525 52.1771 17.2744C51.7787 17.6963 51.5443 18.3145 51.474 19.1289H55.9037C55.8979 18.6426 55.8158 18.2119 55.6576 17.8369C55.5053 17.4619 55.2709 17.1689 54.9545 16.958C54.6439 16.7471 54.2455 16.6416 53.7592 16.6416ZM64.285 15.0859C64.449 15.0859 64.6277 15.0947 64.8211 15.1123C65.0145 15.1299 65.1814 15.1533 65.3221 15.1826L65.1287 17.1162C65.0057 17.0811 64.8533 17.0547 64.6717 17.0371C64.4959 17.0195 64.3377 17.0107 64.1971 17.0107C63.8279 17.0107 63.4764 17.0723 63.1424 17.1953C62.8084 17.3125 62.5125 17.4941 62.2547 17.7402C61.9969 17.9805 61.7947 18.2822 61.6482 18.6455C61.5018 19.0088 61.4285 19.4307 61.4285 19.9111V25H59.3543V15.2705H60.9715L61.2527 16.9844H61.3494C61.5428 16.6387 61.783 16.3223 62.0701 16.0352C62.3572 15.748 62.6854 15.5195 63.0545 15.3496C63.4295 15.1738 63.8396 15.0859 64.285 15.0859Z" class="logo-text"/>
</svg>
