<svg width="123" height="30" viewBox="0 0 123 30" fill="none" xmlns="http://www.w3.org/2000/svg">
<path d="M3.65277 7.8974H2.0514V1.78668H0V0.476562H5.70418V1.78595H3.65277V7.89666V7.8974Z" class="logo-accent"/>
<path d="M8.56749 2.11597C8.647 2.11597 8.7385 2.12039 8.84426 2.1285C8.94927 2.13734 9.03478 2.14766 9.10003 2.16166L8.98152 3.61325C8.92977 3.59631 8.85626 3.58378 8.76175 3.57494C8.66725 3.56683 8.58549 3.56241 8.51648 3.56241C8.31322 3.56241 8.11596 3.5882 7.92469 3.63831C7.73343 3.68915 7.56241 3.77094 7.4109 3.88442C7.25939 3.99789 7.13938 4.14673 7.05163 4.33095C6.96387 4.51516 6.91962 4.74137 6.91962 5.00885V7.89657H5.34375V2.22281H6.53709L6.76961 3.17704H6.84686C6.96087 2.98398 7.10263 2.80714 7.27289 2.6465C7.44316 2.48587 7.63817 2.35692 7.85644 2.26039C8.07545 2.16387 8.31172 2.11523 8.56674 2.11523L8.56749 2.11597Z" class="logo-accent"/>
<path d="M10.2284 0C10.4624 0 10.6642 0.0530533 10.833 0.159897C11.0017 0.26674 11.0865 0.464954 11.0865 0.75601C11.0865 1.04707 11.0017 1.24233 10.833 1.35212C10.6642 1.46191 10.4624 1.51718 10.2284 1.51718C9.99439 1.51718 9.78812 1.46191 9.62161 1.35212C9.45435 1.24233 9.37109 1.04338 9.37109 0.75601C9.37109 0.468638 9.45435 0.266004 9.62161 0.159897C9.78887 0.0530533 9.99139 0 10.2284 0ZM11.0137 2.22308V7.89758H9.43785V2.22308H11.0137Z" class="logo-accent"/>
<path d="M18.7239 2.11621C19.378 2.11621 19.8738 2.28127 20.209 2.61138C20.5451 2.94148 20.7131 3.46981 20.7131 4.19782V7.89755H19.132V4.58319C19.132 4.17719 19.0615 3.87066 18.9204 3.66434C18.7794 3.45802 18.5604 3.35486 18.2641 3.35486C17.8471 3.35486 17.5508 3.50149 17.3753 3.79402C17.1998 4.08655 17.1121 4.50508 17.1121 5.05035V7.89755H15.5362V4.58319C15.5362 4.31277 15.5054 4.08582 15.4432 3.90308C15.3809 3.72034 15.2864 3.58328 15.1589 3.49191C15.0314 3.40054 14.8679 3.35486 14.6684 3.35486C14.3759 3.35486 14.1456 3.42707 13.9783 3.57076C13.8111 3.71444 13.6926 3.92592 13.6221 4.20519C13.5515 4.48445 13.5163 4.82488 13.5163 5.22794V7.89755H11.9404V2.22305H13.1443L13.3558 2.94885H13.4435C13.5605 2.75285 13.7076 2.59369 13.8853 2.47211C14.0623 2.35053 14.2581 2.26063 14.4719 2.20316C14.6856 2.14569 14.9024 2.11695 15.1229 2.11695C15.5467 2.11695 15.906 2.18474 16.2 2.32032C16.4948 2.4559 16.7213 2.66517 16.8795 2.94959H17.0191C17.1916 2.65853 17.4346 2.44706 17.7504 2.31516C18.0654 2.18326 18.3902 2.11695 18.7239 2.11695V2.11621Z" class="logo-accent"/>
<path d="M23.1845 0V1.83771C23.1845 2.05066 23.1785 2.26213 23.1665 2.47214C23.1545 2.68214 23.1395 2.84425 23.1222 2.9592H23.1845C23.336 2.72561 23.543 2.52666 23.8048 2.36308C24.0666 2.19877 24.4056 2.11698 24.8226 2.11698C25.4699 2.11698 25.9957 2.36603 26.3985 2.86341C26.8013 3.36078 27.003 4.09026 27.003 5.05112C27.003 5.69734 26.91 6.23966 26.724 6.67809C26.538 7.11651 26.2777 7.44662 25.9439 7.66768C25.6102 7.88947 25.2224 8 24.7814 8C24.3403 8 24.0238 7.92558 23.7793 7.77673C23.5348 7.62789 23.3368 7.46062 23.1852 7.2742H23.0765L22.8132 7.89831H21.6094V0H23.1852H23.1845ZM24.3156 3.35489C24.0403 3.35489 23.8213 3.41089 23.6593 3.52215C23.4973 3.63415 23.3795 3.80142 23.3053 4.02468C23.231 4.24795 23.1905 4.5309 23.1837 4.87206V5.03933C23.1837 5.59123 23.2662 6.01345 23.432 6.30598C23.597 6.59851 23.8985 6.74514 24.3358 6.74514C24.6599 6.74514 24.9171 6.59777 25.1084 6.30377C25.2997 6.00903 25.3949 5.5846 25.3949 5.02975C25.3949 4.4749 25.2981 4.05711 25.1054 3.77563C24.9126 3.49489 24.6486 3.35415 24.3148 3.35415L24.3156 3.35489Z" class="logo-accent"/>
<path d="M29.2272 7.89758H27.6514V0H29.2272V7.89758Z" class="logo-accent"/>
<path d="M32.5881 2.11621C33.1222 2.11621 33.582 2.21716 33.9675 2.41832C34.353 2.61948 34.6508 2.91127 34.8616 3.2937C35.0716 3.67613 35.1766 4.14329 35.1766 4.69446V5.44531H31.4518C31.4691 5.88226 31.6026 6.22416 31.8523 6.47322C32.1021 6.72153 32.4494 6.84606 32.8934 6.84606C33.2617 6.84606 33.5992 6.80922 33.906 6.7348C34.2128 6.66038 34.5278 6.54837 34.8518 6.39953V7.59765C34.566 7.73618 34.2668 7.83786 33.9555 7.90197C33.6435 7.96608 33.2654 7.9985 32.8214 7.9985C32.2431 7.9985 31.7301 7.89387 31.2845 7.68386C30.8383 7.47386 30.4887 7.15407 30.236 6.72448C29.9825 6.2949 29.8564 5.75331 29.8564 5.10046C29.8564 4.44761 29.9712 3.88466 30.2 3.44328C30.4287 3.00191 30.7483 2.67032 31.1585 2.44853C31.5681 2.22674 32.0451 2.11621 32.5896 2.11621H32.5881ZM32.5986 3.2178C32.2919 3.2178 32.0384 3.31433 31.8366 3.50739C31.6348 3.69971 31.5186 4.00329 31.4878 4.41593H33.699C33.6952 4.18603 33.6532 3.98118 33.5722 3.80139C33.4912 3.62234 33.3705 3.48012 33.2107 3.37475C33.0502 3.27012 32.8462 3.2178 32.5986 3.2178Z" class="logo-accent"/>
<path d="M35.5782 7.23467C35.5737 6.85298 35.8849 6.53982 36.2735 6.53613C36.2787 6.53613 36.284 6.53613 36.2892 6.53613C36.6823 6.53613 37.0003 6.8493 37.0003 7.23467C37.0003 7.62078 36.6815 7.9332 36.2892 7.9332C35.8962 7.9332 35.5782 7.62004 35.5782 7.23467ZM36.8713 7.23467C36.8653 6.91782 36.5997 6.66508 36.2772 6.67098C35.9547 6.67687 35.6974 6.93772 35.7034 7.25456C35.7087 7.56846 35.9705 7.81973 36.29 7.81825C36.611 7.81825 36.872 7.56257 36.872 7.24646C36.872 7.24204 36.872 7.23835 36.872 7.23393L36.8713 7.23467ZM36.0132 6.83677H36.3042C36.488 6.83677 36.5952 6.91487 36.5952 7.07109C36.6042 7.16983 36.5405 7.2612 36.443 7.28772L36.611 7.60162H36.4482L36.2915 7.30909H36.1685V7.60162H36.0125V6.83677H36.0132ZM36.2952 7.19193C36.3905 7.19193 36.443 7.16172 36.443 7.07993C36.443 6.99814 36.3905 6.96793 36.2915 6.96793H36.1685V7.19119H36.2945L36.2952 7.19193Z" class="logo-accent"/>
<path d="M16.8838 12.1504L13.5264 25H11.2236L9.0791 17.3008C9.02637 17.1133 8.96777 16.8906 8.90332 16.6328C8.83887 16.375 8.77441 16.1113 8.70996 15.8418C8.65137 15.5723 8.59863 15.3262 8.55176 15.1035C8.51074 14.875 8.48145 14.6992 8.46387 14.5762C8.45215 14.6992 8.42578 14.8721 8.38477 15.0947C8.34375 15.3174 8.29395 15.5635 8.23535 15.833C8.18262 16.0967 8.12402 16.3604 8.05957 16.624C7.99512 16.8818 7.93652 17.1104 7.88379 17.3096L5.77441 25H3.48047L0.131836 12.1504H2.25L4.10449 19.6826C4.16309 19.9229 4.22168 20.1836 4.28027 20.4648C4.34473 20.7402 4.40332 21.0186 4.45605 21.2998C4.51465 21.5811 4.56738 21.8564 4.61426 22.126C4.66113 22.3896 4.69922 22.6299 4.72852 22.8467C4.75781 22.624 4.7959 22.3779 4.84277 22.1084C4.88965 21.833 4.93945 21.5547 4.99219 21.2734C5.05078 20.9863 5.10938 20.7109 5.16797 20.4473C5.23242 20.1836 5.29688 19.9463 5.36133 19.7354L7.45312 12.1504H9.50977L11.6455 19.7617C11.71 19.9785 11.7715 20.2217 11.8301 20.4912C11.8945 20.7607 11.9561 21.0361 12.0146 21.3174C12.0732 21.5986 12.126 21.8711 12.1729 22.1348C12.2197 22.3984 12.2578 22.6357 12.2871 22.8467C12.3281 22.5596 12.3809 22.2314 12.4453 21.8623C12.5098 21.4932 12.583 21.1182 12.665 20.7373C12.7471 20.3564 12.8291 20.0049 12.9111 19.6826L14.7568 12.1504H16.8838ZM26.2055 20.1133C26.2055 20.9219 26.1 21.6396 25.8891 22.2666C25.6781 22.8936 25.3705 23.4238 24.9662 23.8574C24.5619 24.2852 24.0756 24.6133 23.5072 24.8418C22.9389 25.0645 22.2973 25.1758 21.5824 25.1758C20.9145 25.1758 20.3021 25.0645 19.7455 24.8418C19.1889 24.6133 18.7055 24.2852 18.2953 23.8574C17.891 23.4238 17.5775 22.8936 17.3549 22.2666C17.1322 21.6396 17.0209 20.9219 17.0209 20.1133C17.0209 19.041 17.2055 18.1328 17.5746 17.3887C17.9496 16.6387 18.4828 16.0674 19.1742 15.6748C19.8656 15.2822 20.6889 15.0859 21.6439 15.0859C22.5404 15.0859 23.3314 15.2822 24.017 15.6748C24.7025 16.0674 25.2387 16.6387 25.6254 17.3887C26.0121 18.1387 26.2055 19.0469 26.2055 20.1133ZM19.1479 20.1133C19.1479 20.8223 19.2328 21.4287 19.4027 21.9326C19.5785 22.4365 19.848 22.8232 20.2113 23.0928C20.5746 23.3564 21.0434 23.4883 21.6176 23.4883C22.1918 23.4883 22.6605 23.3564 23.0238 23.0928C23.3871 22.8232 23.6537 22.4365 23.8236 21.9326C23.9936 21.4287 24.0785 20.8223 24.0785 20.1133C24.0785 19.4043 23.9936 18.8037 23.8236 18.3115C23.6537 17.8135 23.3871 17.4355 23.0238 17.1777C22.6605 16.9141 22.1889 16.7822 21.6088 16.7822C20.7533 16.7822 20.1293 17.0693 19.7367 17.6436C19.3441 18.2178 19.1479 19.041 19.1479 20.1133ZM32.6092 15.0859C32.7732 15.0859 32.952 15.0947 33.1453 15.1123C33.3387 15.1299 33.5057 15.1533 33.6463 15.1826L33.4529 17.1162C33.3299 17.0811 33.1775 17.0547 32.9959 17.0371C32.8201 17.0195 32.6619 17.0107 32.5213 17.0107C32.1521 17.0107 31.8006 17.0723 31.4666 17.1953C31.1326 17.3125 30.8367 17.4941 30.5789 17.7402C30.3211 17.9805 30.1189 18.2822 29.9725 18.6455C29.826 19.0088 29.7527 19.4307 29.7527 19.9111V25H27.6785V15.2705H29.2957L29.577 16.9844H29.6736C29.867 16.6387 30.1072 16.3223 30.3943 16.0352C30.6814 15.748 31.0096 15.5195 31.3787 15.3496C31.7537 15.1738 32.1639 15.0859 32.6092 15.0859ZM36.6135 11.3242V17.9336C36.6135 18.2324 36.6018 18.5605 36.5783 18.918C36.5549 19.2695 36.5314 19.6006 36.508 19.9111H36.552C36.7043 19.7061 36.8859 19.4658 37.0969 19.1904C37.3137 18.915 37.5187 18.6748 37.7121 18.4697L40.6828 15.2705H43.0559L39.1623 19.4541L43.3107 25H40.885L37.7736 20.7285L36.6135 21.7217V25H34.548V11.3242H36.6135ZM50.5055 22.2227C50.5055 22.8613 50.3502 23.4004 50.0396 23.8398C49.7291 24.2793 49.275 24.6133 48.6773 24.8418C48.0855 25.0645 47.359 25.1758 46.4977 25.1758C45.818 25.1758 45.232 25.126 44.7398 25.0264C44.2535 24.9326 43.7936 24.7861 43.36 24.5869V22.8027C43.8229 23.0195 44.3414 23.207 44.9156 23.3652C45.4957 23.5234 46.0436 23.6025 46.5592 23.6025C47.2389 23.6025 47.7281 23.4971 48.027 23.2861C48.3258 23.0693 48.4752 22.7822 48.4752 22.4248C48.4752 22.2139 48.4137 22.0264 48.2906 21.8623C48.1734 21.6924 47.9508 21.5195 47.6227 21.3438C47.3004 21.1621 46.8258 20.9453 46.1988 20.6934C45.5836 20.4473 45.065 20.2012 44.6432 19.9551C44.2213 19.709 43.902 19.4131 43.6852 19.0674C43.4684 18.7158 43.36 18.2676 43.36 17.7227C43.36 16.8613 43.6998 16.208 44.3795 15.7627C45.065 15.3115 45.9703 15.0859 47.0953 15.0859C47.693 15.0859 48.2555 15.1475 48.7828 15.2705C49.316 15.3877 49.8375 15.5605 50.3473 15.7891L49.6969 17.3447C49.2574 17.1514 48.815 16.9932 48.3697 16.8701C47.9303 16.7412 47.482 16.6768 47.025 16.6768C46.4918 16.6768 46.0846 16.7588 45.8033 16.9229C45.5279 17.0869 45.3902 17.3213 45.3902 17.626C45.3902 17.8545 45.4576 18.0479 45.5924 18.2061C45.7271 18.3643 45.9586 18.5225 46.2867 18.6807C46.6207 18.8389 47.0836 19.0352 47.6754 19.2695C48.2555 19.4922 48.7564 19.7266 49.1783 19.9727C49.6061 20.2129 49.9342 20.5088 50.1627 20.8604C50.3912 21.2119 50.5055 21.666 50.5055 22.2227ZM57.5947 25L53.8945 14.2686H53.8154C53.833 14.5088 53.8535 14.8369 53.877 15.2529C53.9004 15.6689 53.9209 16.1143 53.9385 16.5889C53.9561 17.0635 53.9648 17.5176 53.9648 17.9512V25H52.0488V12.1504H55.0107L58.5703 22.4072H58.623L62.3057 12.1504H65.2588V25H63.2461V17.8457C63.2461 17.4531 63.252 17.0283 63.2637 16.5713C63.2812 16.1143 63.2988 15.6807 63.3164 15.2705C63.3398 14.8604 63.3574 14.5322 63.3691 14.2861H63.2988L59.458 25H57.5947ZM71.3461 15.0859C72.5766 15.0859 73.5053 15.3584 74.1322 15.9033C74.765 16.4482 75.0814 17.2979 75.0814 18.4521V25H73.6137L73.2182 23.6201H73.1479C72.8725 23.9717 72.5883 24.2617 72.2953 24.4902C72.0023 24.7188 71.6625 24.8887 71.2758 25C70.8949 25.1172 70.4291 25.1758 69.8783 25.1758C69.2982 25.1758 68.7797 25.0703 68.3227 24.8594C67.8656 24.6426 67.5053 24.3145 67.2416 23.875C66.9779 23.4355 66.8461 22.8789 66.8461 22.2051C66.8461 21.2031 67.2182 20.4502 67.9623 19.9463C68.7123 19.4424 69.8432 19.1641 71.3549 19.1113L73.0424 19.0498V18.54C73.0424 17.8662 72.8842 17.3857 72.5678 17.0986C72.2572 16.8115 71.8178 16.668 71.2494 16.668C70.7631 16.668 70.2914 16.7383 69.8344 16.8789C69.3773 17.0195 68.932 17.1924 68.4984 17.3975L67.8305 15.9385C68.3051 15.6865 68.8441 15.4814 69.4477 15.3232C70.057 15.165 70.6898 15.0859 71.3461 15.0859ZM73.0336 20.3506L71.7768 20.3945C70.7455 20.4297 70.0219 20.6055 69.6059 20.9219C69.1898 21.2383 68.9818 21.6719 68.9818 22.2227C68.9818 22.7031 69.1254 23.0547 69.4125 23.2773C69.6996 23.4941 70.0775 23.6025 70.5463 23.6025C71.2611 23.6025 71.8529 23.4004 72.3217 22.9961C72.7963 22.5859 73.0336 21.9854 73.0336 21.1943V20.3506ZM82.1443 15.0859C83.24 15.0859 84.0926 15.3701 84.702 15.9385C85.3172 16.501 85.6248 17.4062 85.6248 18.6543V25H83.5594V19.041C83.5594 18.2852 83.4041 17.7197 83.0936 17.3447C82.783 16.9639 82.3025 16.7734 81.6521 16.7734C80.7088 16.7734 80.0525 17.0635 79.6834 17.6436C79.3201 18.2236 79.1385 19.0645 79.1385 20.166V25H77.073V15.2705H78.6814L78.9715 16.5889H79.0857C79.2967 16.249 79.5574 15.9707 79.868 15.7539C80.1844 15.5312 80.5359 15.3643 80.9227 15.2529C81.3152 15.1416 81.7225 15.0859 82.1443 15.0859ZM91.4309 15.0859C92.6613 15.0859 93.59 15.3584 94.217 15.9033C94.8498 16.4482 95.1662 17.2979 95.1662 18.4521V25H93.6984L93.3029 23.6201H93.2326C92.9572 23.9717 92.673 24.2617 92.3801 24.4902C92.0871 24.7188 91.7473 24.8887 91.3605 25C90.9797 25.1172 90.5139 25.1758 89.9631 25.1758C89.383 25.1758 88.8645 25.0703 88.4074 24.8594C87.9504 24.6426 87.59 24.3145 87.3264 23.875C87.0627 23.4355 86.9309 22.8789 86.9309 22.2051C86.9309 21.2031 87.3029 20.4502 88.0471 19.9463C88.7971 19.4424 89.9279 19.1641 91.4397 19.1113L93.1272 19.0498V18.54C93.1272 17.8662 92.9689 17.3857 92.6525 17.0986C92.342 16.8115 91.9025 16.668 91.3342 16.668C90.8479 16.668 90.3762 16.7383 89.9191 16.8789C89.4621 17.0195 89.0168 17.1924 88.5832 17.3975L87.9152 15.9385C88.3898 15.6865 88.9289 15.4814 89.5324 15.3232C90.1418 15.165 90.7746 15.0859 91.4309 15.0859ZM93.1184 20.3506L91.8615 20.3945C90.8303 20.4297 90.1066 20.6055 89.6906 20.9219C89.2746 21.2383 89.0666 21.6719 89.0666 22.2227C89.0666 22.7031 89.2102 23.0547 89.4973 23.2773C89.7844 23.4941 90.1623 23.6025 90.6311 23.6025C91.3459 23.6025 91.9377 23.4004 92.4064 22.9961C92.8811 22.5859 93.1184 21.9854 93.1184 21.1943V20.3506ZM99.9352 29.3242C98.6168 29.3242 97.6061 29.0869 96.9029 28.6123C96.1998 28.1377 95.8482 27.4727 95.8482 26.6172C95.8482 26.0195 96.0357 25.5127 96.4107 25.0967C96.7857 24.6865 97.3219 24.4023 98.0191 24.2441C97.7555 24.127 97.527 23.9453 97.3336 23.6992C97.1461 23.4473 97.0523 23.1689 97.0523 22.8643C97.0523 22.501 97.1549 22.1904 97.36 21.9326C97.565 21.6748 97.8727 21.4258 98.2828 21.1855C97.773 20.9688 97.3629 20.6172 97.0523 20.1309C96.7477 19.6387 96.5953 19.0615 96.5953 18.3994C96.5953 17.6963 96.7447 17.0986 97.0436 16.6064C97.3424 16.1084 97.7789 15.7305 98.3531 15.4727C98.9273 15.209 99.6217 15.0771 100.436 15.0771C100.612 15.0771 100.802 15.0889 101.007 15.1123C101.218 15.1299 101.412 15.1533 101.588 15.1826C101.769 15.2061 101.907 15.2324 102.001 15.2617H105.367V16.4131L103.714 16.7207C103.873 16.9434 103.999 17.1982 104.092 17.4854C104.186 17.7666 104.233 18.0742 104.233 18.4082C104.233 19.416 103.884 20.21 103.187 20.79C102.496 21.3643 101.541 21.6514 100.322 21.6514C100.029 21.6396 99.7447 21.6162 99.4693 21.5811C99.2584 21.71 99.0973 21.8535 98.9859 22.0117C98.8746 22.1641 98.8189 22.3369 98.8189 22.5303C98.8189 22.6885 98.8746 22.8174 98.9859 22.917C99.0973 23.0107 99.2613 23.0811 99.4781 23.1279C99.7008 23.1748 99.9703 23.1982 100.287 23.1982H101.965C103.032 23.1982 103.846 23.4238 104.409 23.875C104.971 24.3262 105.253 24.9883 105.253 25.8613C105.253 26.9688 104.796 27.8213 103.881 28.4189C102.967 29.0225 101.652 29.3242 99.9352 29.3242ZM100.014 27.874C100.735 27.874 101.341 27.8037 101.834 27.6631C102.326 27.5225 102.698 27.3203 102.95 27.0566C103.202 26.7988 103.328 26.4912 103.328 26.1338C103.328 25.8174 103.249 25.5742 103.09 25.4043C102.932 25.2344 102.695 25.1172 102.379 25.0527C102.062 24.9883 101.67 24.9561 101.201 24.9561H99.6715C99.2906 24.9561 98.9537 25.0146 98.6607 25.1318C98.3678 25.2549 98.1393 25.4307 97.9752 25.6592C97.817 25.8877 97.7379 26.1631 97.7379 26.4854C97.7379 26.9307 97.9342 27.2734 98.3268 27.5137C98.7252 27.7539 99.2877 27.874 100.014 27.874ZM100.419 20.2979C101.022 20.2979 101.47 20.1338 101.763 19.8057C102.056 19.4717 102.203 19.0029 102.203 18.3994C102.203 17.7432 102.05 17.251 101.746 16.9229C101.447 16.5947 101.002 16.4307 100.41 16.4307C99.8297 16.4307 99.3873 16.5977 99.0826 16.9316C98.7838 17.2656 98.6344 17.7607 98.6344 18.417C98.6344 19.0088 98.7838 19.4717 99.0826 19.8057C99.3873 20.1338 99.8326 20.2979 100.419 20.2979ZM110.118 15.0859C110.985 15.0859 111.729 15.2646 112.351 15.6221C112.972 15.9795 113.449 16.4863 113.783 17.1426C114.117 17.7988 114.284 18.584 114.284 19.498V20.6055H107.789C107.812 21.5488 108.064 22.2754 108.545 22.7852C109.031 23.2949 109.711 23.5498 110.584 23.5498C111.205 23.5498 111.762 23.4912 112.254 23.374C112.752 23.251 113.265 23.0723 113.792 22.8379V24.5166C113.306 24.7451 112.811 24.9121 112.307 25.0176C111.803 25.123 111.199 25.1758 110.496 25.1758C109.541 25.1758 108.7 24.9912 107.974 24.6221C107.253 24.2471 106.688 23.6904 106.277 22.9521C105.873 22.2139 105.671 21.2969 105.671 20.2012C105.671 19.1113 105.855 18.1855 106.225 17.4238C106.594 16.6621 107.112 16.082 107.78 15.6836C108.448 15.2852 109.228 15.0859 110.118 15.0859ZM110.118 16.6416C109.468 16.6416 108.94 16.8525 108.536 17.2744C108.138 17.6963 107.903 18.3145 107.833 19.1289H112.263C112.257 18.6426 112.175 18.2119 112.017 17.8369C111.864 17.4619 111.63 17.1689 111.313 16.958C111.003 16.7471 110.604 16.6416 110.118 16.6416ZM120.644 15.0859C120.808 15.0859 120.987 15.0947 121.18 15.1123C121.373 15.1299 121.54 15.1533 121.681 15.1826L121.488 17.1162C121.365 17.0811 121.212 17.0547 121.031 17.0371C120.855 17.0195 120.697 17.0107 120.556 17.0107C120.187 17.0107 119.835 17.0723 119.501 17.1953C119.167 17.3125 118.871 17.4941 118.614 17.7402C118.356 17.9805 118.154 18.2822 118.007 18.6455C117.861 19.0088 117.787 19.4307 117.787 19.9111V25H115.713V15.2705H117.33L117.612 16.9844H117.708C117.902 16.6387 118.142 16.3223 118.429 16.0352C118.716 15.748 119.044 15.5195 119.413 15.3496C119.788 15.1738 120.199 15.0859 120.644 15.0859Z" class="logo-text"/>
</svg>
