<svg width="30.79" height="34.93" viewBox="15.42 6 30.79 34.93" fill="none" xmlns="http://www.w3.org/2000/svg">
<path d="M30.8107 6L35.9451 8.91094L30.8141 11.8219L25.683 8.91094L30.8107 6Z" fill="#004F83"/>
<path d="M32.5244 30.259V24.4338L37.6452 21.5295L37.6555 27.3481L32.5244 30.259Z" fill="#004F83"/>
<path d="M29.1037 30.2589V24.4371L15.4209 16.6723V22.4942L29.1037 30.2589Z" fill="#004F83"/>
<path d="M30.8141 21.526H30.8106L17.1312 13.7613L22.2623 10.8503L35.9451 18.6117L30.8141 21.526Z" fill="#004F83"/>
<path d="M46.2073 14.7327L39.3658 10.8503V10.8537L34.2621 13.7478L34.2348 13.7613L41.0762 17.6436V35.1093L46.2073 32.1983V14.7327Z" fill="#004F83"/>
<path d="M15.4209 26.3766L30.8141 35.1094L37.6555 31.2304V37.0523L30.8141 40.9312L15.4209 32.1985V26.3766Z" fill="#004F83"/>
</svg>
