<svg width="117" height="30" viewBox="0 0 117 30" fill="none" xmlns="http://www.w3.org/2000/svg">
<path d="M3.65277 7.8974H2.0514V1.78668H0V0.476562H5.70418V1.78595H3.65277V7.89666V7.8974Z" class="logo-accent"/>
<path d="M8.56749 2.11597C8.647 2.11597 8.7385 2.12039 8.84426 2.1285C8.94927 2.13734 9.03478 2.14766 9.10003 2.16166L8.98152 3.61325C8.92977 3.59631 8.85626 3.58378 8.76175 3.57494C8.66725 3.56683 8.58549 3.56241 8.51648 3.56241C8.31322 3.56241 8.11596 3.5882 7.92469 3.63831C7.73343 3.68915 7.56241 3.77094 7.4109 3.88442C7.25939 3.99789 7.13938 4.14673 7.05163 4.33095C6.96387 4.51516 6.91962 4.74137 6.91962 5.00885V7.89657H5.34375V2.22281H6.53709L6.76961 3.17704H6.84686C6.96087 2.98398 7.10263 2.80714 7.27289 2.6465C7.44316 2.48587 7.63817 2.35692 7.85644 2.26039C8.07545 2.16387 8.31172 2.11523 8.56674 2.11523L8.56749 2.11597Z" class="logo-accent"/>
<path d="M10.2284 0C10.4624 0 10.6642 0.0530533 10.833 0.159897C11.0017 0.26674 11.0865 0.464954 11.0865 0.75601C11.0865 1.04707 11.0017 1.24233 10.833 1.35212C10.6642 1.46191 10.4624 1.51718 10.2284 1.51718C9.99439 1.51718 9.78812 1.46191 9.62161 1.35212C9.45435 1.24233 9.37109 1.04338 9.37109 0.75601C9.37109 0.468638 9.45435 0.266004 9.62161 0.159897C9.78887 0.0530533 9.99139 0 10.2284 0ZM11.0137 2.22308V7.89758H9.43785V2.22308H11.0137Z" class="logo-accent"/>
<path d="M18.7239 2.11621C19.378 2.11621 19.8738 2.28127 20.209 2.61138C20.5451 2.94148 20.7131 3.46981 20.7131 4.19782V7.89755H19.132V4.58319C19.132 4.17719 19.0615 3.87066 18.9204 3.66434C18.7794 3.45802 18.5604 3.35486 18.2641 3.35486C17.8471 3.35486 17.5508 3.50149 17.3753 3.79402C17.1998 4.08655 17.1121 4.50508 17.1121 5.05035V7.89755H15.5362V4.58319C15.5362 4.31277 15.5054 4.08582 15.4432 3.90308C15.3809 3.72034 15.2864 3.58328 15.1589 3.49191C15.0314 3.40054 14.8679 3.35486 14.6684 3.35486C14.3759 3.35486 14.1456 3.42707 13.9783 3.57076C13.8111 3.71444 13.6926 3.92592 13.6221 4.20519C13.5515 4.48445 13.5163 4.82488 13.5163 5.22794V7.89755H11.9404V2.22305H13.1443L13.3558 2.94885H13.4435C13.5605 2.75285 13.7076 2.59369 13.8853 2.47211C14.0623 2.35053 14.2581 2.26063 14.4719 2.20316C14.6856 2.14569 14.9024 2.11695 15.1229 2.11695C15.5467 2.11695 15.906 2.18474 16.2 2.32032C16.4948 2.4559 16.7213 2.66517 16.8795 2.94959H17.0191C17.1916 2.65853 17.4346 2.44706 17.7504 2.31516C18.0654 2.18326 18.3902 2.11695 18.7239 2.11695V2.11621Z" class="logo-accent"/>
<path d="M23.1845 0V1.83771C23.1845 2.05066 23.1785 2.26213 23.1665 2.47214C23.1545 2.68214 23.1395 2.84425 23.1222 2.9592H23.1845C23.336 2.72561 23.543 2.52666 23.8048 2.36308C24.0666 2.19877 24.4056 2.11698 24.8226 2.11698C25.4699 2.11698 25.9957 2.36603 26.3985 2.86341C26.8013 3.36078 27.003 4.09026 27.003 5.05112C27.003 5.69734 26.91 6.23966 26.724 6.67809C26.538 7.11651 26.2777 7.44662 25.9439 7.66768C25.6102 7.88947 25.2224 8 24.7814 8C24.3403 8 24.0238 7.92558 23.7793 7.77673C23.5348 7.62789 23.3368 7.46062 23.1852 7.2742H23.0765L22.8132 7.89831H21.6094V0H23.1852H23.1845ZM24.3156 3.35489C24.0403 3.35489 23.8213 3.41089 23.6593 3.52215C23.4973 3.63415 23.3795 3.80142 23.3053 4.02468C23.231 4.24795 23.1905 4.5309 23.1837 4.87206V5.03933C23.1837 5.59123 23.2662 6.01345 23.432 6.30598C23.597 6.59851 23.8985 6.74514 24.3358 6.74514C24.6599 6.74514 24.9171 6.59777 25.1084 6.30377C25.2997 6.00903 25.3949 5.5846 25.3949 5.02975C25.3949 4.4749 25.2981 4.05711 25.1054 3.77563C24.9126 3.49489 24.6486 3.35415 24.3148 3.35415L24.3156 3.35489Z" class="logo-accent"/>
<path d="M29.2272 7.89758H27.6514V0H29.2272V7.89758Z" class="logo-accent"/>
<path d="M32.5881 2.11621C33.1222 2.11621 33.582 2.21716 33.9675 2.41832C34.353 2.61948 34.6508 2.91127 34.8616 3.2937C35.0716 3.67613 35.1766 4.14329 35.1766 4.69446V5.44531H31.4518C31.4691 5.88226 31.6026 6.22416 31.8523 6.47322C32.1021 6.72153 32.4494 6.84606 32.8934 6.84606C33.2617 6.84606 33.5992 6.80922 33.906 6.7348C34.2128 6.66038 34.5278 6.54837 34.8518 6.39953V7.59765C34.566 7.73618 34.2668 7.83786 33.9555 7.90197C33.6435 7.96608 33.2654 7.9985 32.8214 7.9985C32.2431 7.9985 31.7301 7.89387 31.2845 7.68386C30.8383 7.47386 30.4887 7.15407 30.236 6.72448C29.9825 6.2949 29.8564 5.75331 29.8564 5.10046C29.8564 4.44761 29.9712 3.88466 30.2 3.44328C30.4287 3.00191 30.7483 2.67032 31.1585 2.44853C31.5681 2.22674 32.0451 2.11621 32.5896 2.11621H32.5881ZM32.5986 3.2178C32.2919 3.2178 32.0384 3.31433 31.8366 3.50739C31.6348 3.69971 31.5186 4.00329 31.4878 4.41593H33.699C33.6952 4.18603 33.6532 3.98118 33.5722 3.80139C33.4912 3.62234 33.3705 3.48012 33.2107 3.37475C33.0502 3.27012 32.8462 3.2178 32.5986 3.2178Z" class="logo-accent"/>
<path d="M35.5782 7.23467C35.5737 6.85298 35.8849 6.53982 36.2735 6.53613C36.2787 6.53613 36.284 6.53613 36.2892 6.53613C36.6823 6.53613 37.0003 6.8493 37.0003 7.23467C37.0003 7.62078 36.6815 7.9332 36.2892 7.9332C35.8962 7.9332 35.5782 7.62004 35.5782 7.23467ZM36.8713 7.23467C36.8653 6.91782 36.5997 6.66508 36.2772 6.67098C35.9547 6.67687 35.6974 6.93772 35.7034 7.25456C35.7087 7.56846 35.9705 7.81973 36.29 7.81825C36.611 7.81825 36.872 7.56257 36.872 7.24646C36.872 7.24204 36.872 7.23835 36.872 7.23393L36.8713 7.23467ZM36.0132 6.83677H36.3042C36.488 6.83677 36.5952 6.91487 36.5952 7.07109C36.6042 7.16983 36.5405 7.2612 36.443 7.28772L36.611 7.60162H36.4482L36.2915 7.30909H36.1685V7.60162H36.0125V6.83677H36.0132ZM36.2952 7.19193C36.3905 7.19193 36.443 7.16172 36.443 7.07993C36.443 6.99814 36.3905 6.96793 36.2915 6.96793H36.1685V7.19119H36.2945L36.2952 7.19193Z" class="logo-accent"/>
<path d="M9.65039 25L8.39355 21.4316H3.48047L2.22363 25H0L4.78125 12.0977H7.11914L11.8916 25H9.65039ZM7.84863 19.6211L6.62695 16.1055C6.58008 15.9531 6.5127 15.7393 6.4248 15.4639C6.33691 15.1826 6.24902 14.8984 6.16113 14.6113C6.07324 14.3184 6 14.0723 5.94141 13.873C5.88281 14.1133 5.80957 14.3828 5.72168 14.6816C5.63965 14.9746 5.55762 15.25 5.47559 15.5078C5.39941 15.7656 5.34082 15.9648 5.2998 16.1055L4.06934 19.6211H7.84863ZM16.3969 25.1758C15.477 25.1758 14.6801 24.9971 14.0063 24.6396C13.3324 24.2822 12.8139 23.7344 12.4506 22.9961C12.0873 22.2578 11.9057 21.3203 11.9057 20.1836C11.9057 19 12.1049 18.0332 12.5033 17.2832C12.9018 16.5332 13.4525 15.9795 14.1557 15.6221C14.8646 15.2646 15.6762 15.0859 16.5902 15.0859C17.1703 15.0859 17.6947 15.1445 18.1635 15.2617C18.6381 15.373 19.0395 15.5107 19.3676 15.6748L18.7523 17.3271C18.3949 17.1807 18.0287 17.0576 17.6537 16.958C17.2787 16.8584 16.9184 16.8086 16.5727 16.8086C16.0043 16.8086 15.5297 16.9346 15.1488 17.1865C14.7738 17.4385 14.4926 17.8135 14.3051 18.3115C14.1234 18.8096 14.0326 19.4277 14.0326 20.166C14.0326 20.8809 14.1264 21.4844 14.3139 21.9766C14.5014 22.4629 14.7797 22.832 15.1488 23.084C15.518 23.3301 15.9721 23.4531 16.5111 23.4531C17.0443 23.4531 17.5219 23.3887 17.9438 23.2598C18.3656 23.1309 18.7641 22.9639 19.1391 22.7588V24.5518C18.7699 24.7627 18.3744 24.918 17.9525 25.0176C17.5307 25.123 17.0121 25.1758 16.3969 25.1758ZM24.4441 25.1758C23.5242 25.1758 22.7273 24.9971 22.0535 24.6396C21.3797 24.2822 20.8611 23.7344 20.4979 22.9961C20.1346 22.2578 19.9529 21.3203 19.9529 20.1836C19.9529 19 20.1521 18.0332 20.5506 17.2832C20.949 16.5332 21.4998 15.9795 22.2029 15.6221C22.9119 15.2646 23.7234 15.0859 24.6375 15.0859C25.2176 15.0859 25.742 15.1445 26.2107 15.2617C26.6854 15.373 27.0867 15.5107 27.4148 15.6748L26.7996 17.3271C26.4422 17.1807 26.076 17.0576 25.701 16.958C25.326 16.8584 24.9656 16.8086 24.6199 16.8086C24.0516 16.8086 23.577 16.9346 23.1961 17.1865C22.8211 17.4385 22.5398 17.8135 22.3523 18.3115C22.1707 18.8096 22.0799 19.4277 22.0799 20.166C22.0799 20.8809 22.1736 21.4844 22.3611 21.9766C22.5486 22.4629 22.827 22.832 23.1961 23.084C23.5652 23.3301 24.0193 23.4531 24.5584 23.4531C25.0916 23.4531 25.5691 23.3887 25.991 23.2598C26.4129 23.1309 26.8113 22.9639 27.1863 22.7588V24.5518C26.8172 24.7627 26.4217 24.918 25.9998 25.0176C25.5779 25.123 25.0594 25.1758 24.4441 25.1758ZM37.0529 15.2705V25H35.427L35.1457 23.6904H35.0314C34.8264 24.0244 34.5656 24.3027 34.2492 24.5254C33.9328 24.7422 33.5812 24.9033 33.1945 25.0088C32.8078 25.1201 32.4006 25.1758 31.9729 25.1758C31.2404 25.1758 30.6135 25.0527 30.092 24.8066C29.5764 24.5547 29.1809 24.168 28.9055 23.6465C28.6301 23.125 28.4924 22.4512 28.4924 21.625V15.2705H30.5666V21.2383C30.5666 21.9941 30.7189 22.5596 31.0236 22.9346C31.3342 23.3096 31.8146 23.4971 32.465 23.4971C33.092 23.4971 33.59 23.3682 33.9592 23.1104C34.3283 22.8525 34.5891 22.4717 34.7414 21.9678C34.8996 21.4639 34.9787 20.8457 34.9787 20.1133V15.2705H37.0529ZM41.1803 11.3242V14.6201C41.1803 15.001 41.1686 15.376 41.1451 15.7451C41.1275 16.1084 41.11 16.3926 41.0924 16.5977H41.1803C41.4439 16.1758 41.8102 15.8213 42.2789 15.5342C42.7535 15.2412 43.36 15.0947 44.0982 15.0947C45.2525 15.0947 46.1813 15.5195 46.8844 16.3691C47.5875 17.2129 47.9391 18.4639 47.9391 20.1221C47.9391 21.2236 47.7779 22.1494 47.4557 22.8994C47.1334 23.6494 46.6793 24.2178 46.0934 24.6045C45.5133 24.9854 44.8307 25.1758 44.0455 25.1758C43.3072 25.1758 42.7096 25.041 42.2525 24.7715C41.8014 24.4961 41.4469 24.1768 41.1891 23.8135H41.0396L40.6617 25H39.1148V11.3242H41.1803ZM43.5533 16.7734C42.9674 16.7734 42.5016 16.8906 42.1559 17.125C41.816 17.3594 41.5699 17.7109 41.4176 18.1797C41.2652 18.6426 41.1861 19.2314 41.1803 19.9463V20.1309C41.1803 21.2148 41.3502 22.0439 41.69 22.6182C42.0357 23.1924 42.6627 23.4795 43.5709 23.4795C44.2916 23.4795 44.8453 23.1895 45.232 22.6094C45.6188 22.0234 45.8121 21.1855 45.8121 20.0957C45.8121 18.9941 45.6188 18.165 45.232 17.6084C44.8512 17.0518 44.2916 16.7734 43.5533 16.7734ZM51.4951 15.2705V25H49.4297V15.2705H51.4951ZM50.4756 11.5439C50.792 11.5439 51.0645 11.6289 51.293 11.7988C51.5273 11.9688 51.6445 12.2617 51.6445 12.6777C51.6445 13.0879 51.5273 13.3809 51.293 13.5566C51.0645 13.7266 50.792 13.8115 50.4756 13.8115C50.1475 13.8115 49.8691 13.7266 49.6406 13.5566C49.418 13.3809 49.3066 13.0879 49.3066 12.6777C49.3066 12.2617 49.418 11.9688 49.6406 11.7988C49.8691 11.6289 50.1475 11.5439 50.4756 11.5439ZM56.8266 25.1758C55.6664 25.1758 54.7348 24.7539 54.0316 23.9102C53.3344 23.0605 52.9857 21.8096 52.9857 20.1572C52.9857 18.4873 53.3402 17.2246 54.0492 16.3691C54.7641 15.5137 55.7045 15.0859 56.8705 15.0859C57.3627 15.0859 57.7934 15.1533 58.1625 15.2881C58.5316 15.417 58.848 15.5928 59.1117 15.8154C59.3812 16.0381 59.6098 16.2871 59.7973 16.5625H59.8939C59.8646 16.3809 59.8295 16.1201 59.7885 15.7803C59.7533 15.4346 59.7357 15.1152 59.7357 14.8223V11.3242H61.81V25H60.1928L59.8236 23.6729H59.7357C59.56 23.9541 59.3373 24.209 59.0678 24.4375C58.8041 24.6602 58.4877 24.8389 58.1186 24.9736C57.7553 25.1084 57.3246 25.1758 56.8266 25.1758ZM57.4066 23.4971C58.2914 23.4971 58.9154 23.2422 59.2787 22.7324C59.642 22.2227 59.8295 21.458 59.8412 20.4385V20.166C59.8412 19.0762 59.6654 18.2412 59.3139 17.6611C58.9623 17.0752 58.3207 16.7822 57.3891 16.7822C56.6449 16.7822 56.0766 17.084 55.684 17.6875C55.2973 18.2852 55.1039 19.1201 55.1039 20.1924C55.1039 21.2646 55.2973 22.085 55.684 22.6533C56.0766 23.2158 56.6508 23.4971 57.4066 23.4971Z" class="logo-text"/>
<path d="M75.2686 12.7832C74.4482 12.7832 73.7158 12.9238 73.0713 13.2051C72.4268 13.4805 71.8818 13.873 71.4365 14.3828C70.9912 14.8926 70.6514 15.502 70.417 16.2109C70.1826 16.9141 70.0654 17.6904 70.0654 18.54C70.0654 19.7119 70.25 20.7373 70.6191 21.6162C70.9883 22.4893 71.542 23.166 72.2803 23.6465C73.0244 24.127 73.9502 24.3672 75.0576 24.3672C75.7021 24.3672 76.2881 24.3203 76.8154 24.2266C77.3428 24.127 77.832 24.001 78.2832 23.8486V24.6396C77.8555 24.7979 77.3721 24.9268 76.833 25.0264C76.2998 25.126 75.6787 25.1758 74.9697 25.1758C73.6865 25.1758 72.6084 24.9004 71.7354 24.3496C70.8682 23.7988 70.2148 23.0254 69.7754 22.0293C69.3359 21.0332 69.1162 19.8701 69.1162 18.54C69.1162 17.585 69.2539 16.709 69.5293 15.9121C69.8047 15.1094 70.2061 14.415 70.7334 13.8291C71.2666 13.2373 71.9141 12.7803 72.6758 12.458C73.4375 12.1299 74.3047 11.9658 75.2773 11.9658C75.8926 11.9658 76.4785 12.0273 77.0352 12.1504C77.5977 12.2676 78.125 12.4404 78.6172 12.6689L78.2656 13.46C77.791 13.2256 77.3047 13.0557 76.8066 12.9502C76.3086 12.8389 75.7959 12.7832 75.2686 12.7832ZM80.767 25H79.8705V11.3242H80.767V25ZM86.3797 15.2793C87.4285 15.2793 88.2137 15.543 88.7352 16.0703C89.2566 16.5977 89.5174 17.4385 89.5174 18.5928V25H88.8318L88.6736 23.3301H88.6209C88.4158 23.6875 88.1668 24.0068 87.8738 24.2881C87.5809 24.5635 87.2205 24.7803 86.7928 24.9385C86.3709 25.0967 85.8553 25.1758 85.2459 25.1758C84.6307 25.1758 84.1033 25.0732 83.6639 24.8682C83.2303 24.6631 82.8934 24.3643 82.6531 23.9717C82.4187 23.5791 82.3016 23.1016 82.3016 22.5391C82.3016 21.5898 82.6941 20.8691 83.4793 20.377C84.2645 19.8789 85.3924 19.5977 86.8631 19.5332L88.6385 19.4453V18.751C88.6385 17.7725 88.4451 17.0752 88.0584 16.6592C87.6717 16.2432 87.1004 16.0352 86.3445 16.0352C85.8523 16.0352 85.3777 16.0996 84.9207 16.2285C84.4695 16.3516 84.0096 16.5303 83.5408 16.7646L83.2596 16.0264C83.7166 15.8096 84.2059 15.6309 84.7273 15.4902C85.2547 15.3496 85.8055 15.2793 86.3797 15.2793ZM88.6297 20.1396L86.9598 20.21C85.7469 20.2686 84.824 20.4854 84.1912 20.8604C83.5584 21.2354 83.242 21.7979 83.242 22.5479C83.242 23.1514 83.4295 23.6143 83.8045 23.9365C84.1854 24.2588 84.7127 24.4199 85.3865 24.4199C86.4354 24.4199 87.2352 24.1211 87.7859 23.5234C88.3426 22.9258 88.6238 22.1113 88.6297 21.0801V20.1396ZM97.6613 22.4951C97.6613 23.0635 97.5178 23.5498 97.2307 23.9541C96.9494 24.3525 96.5363 24.6572 95.9914 24.8682C95.4465 25.0732 94.7756 25.1758 93.9787 25.1758C93.3166 25.1758 92.7248 25.1172 92.2033 25C91.6818 24.8828 91.2453 24.7393 90.8937 24.5693V23.6904C91.3332 23.9072 91.8195 24.083 92.3527 24.2178C92.8859 24.3525 93.4338 24.4199 93.9963 24.4199C94.9807 24.4199 95.6896 24.2529 96.1232 23.9189C96.5568 23.585 96.7736 23.1279 96.7736 22.5479C96.7736 22.167 96.6652 21.8535 96.4484 21.6074C96.2375 21.3555 95.9328 21.1387 95.5344 20.957C95.1359 20.7754 94.6555 20.5908 94.093 20.4033C93.507 20.2041 92.9855 20.0078 92.5285 19.8145C92.0773 19.6152 91.7229 19.3545 91.465 19.0322C91.2072 18.7041 91.0783 18.2588 91.0783 17.6963C91.0783 16.9287 91.3859 16.3311 92.0012 15.9033C92.6164 15.4756 93.4426 15.2617 94.4797 15.2617C95.0539 15.2617 95.5871 15.3174 96.0793 15.4287C96.5773 15.5342 97.0285 15.6719 97.4328 15.8418L97.1164 16.5977C96.7531 16.4277 96.3342 16.29 95.8596 16.1846C95.385 16.0791 94.9104 16.0264 94.4357 16.0264C93.6564 16.0264 93.0471 16.1641 92.6076 16.4395C92.1682 16.7148 91.9484 17.1191 91.9484 17.6523C91.9484 18.0625 92.0539 18.3848 92.2648 18.6191C92.4758 18.8477 92.7775 19.041 93.1701 19.1992C93.5627 19.3516 94.0285 19.5215 94.5676 19.709C95.1242 19.9023 95.6369 20.1045 96.1057 20.3154C96.5803 20.5264 96.9582 20.7988 97.2395 21.1328C97.5207 21.4668 97.6613 21.9209 97.6613 22.4951ZM105.146 22.4951C105.146 23.0635 105.003 23.5498 104.715 23.9541C104.434 24.3525 104.021 24.6572 103.476 24.8682C102.931 25.0732 102.26 25.1758 101.463 25.1758C100.801 25.1758 100.21 25.1172 99.6881 25C99.1666 24.8828 98.7301 24.7393 98.3785 24.5693V23.6904C98.818 23.9072 99.3043 24.083 99.8375 24.2178C100.371 24.3525 100.919 24.4199 101.481 24.4199C102.465 24.4199 103.174 24.2529 103.608 23.9189C104.042 23.585 104.258 23.1279 104.258 22.5479C104.258 22.167 104.15 21.8535 103.933 21.6074C103.722 21.3555 103.418 21.1387 103.019 20.957C102.621 20.7754 102.14 20.5908 101.578 20.4033C100.992 20.2041 100.47 20.0078 100.013 19.8145C99.5621 19.6152 99.2076 19.3545 98.9498 19.0322C98.692 18.7041 98.5631 18.2588 98.5631 17.6963C98.5631 16.9287 98.8707 16.3311 99.4859 15.9033C100.101 15.4756 100.927 15.2617 101.964 15.2617C102.539 15.2617 103.072 15.3174 103.564 15.4287C104.062 15.5342 104.513 15.6719 104.918 15.8418L104.601 16.5977C104.238 16.4277 103.819 16.29 103.344 16.1846C102.87 16.0791 102.395 16.0264 101.921 16.0264C101.141 16.0264 100.532 16.1641 100.092 16.4395C99.6529 16.7148 99.4332 17.1191 99.4332 17.6523C99.4332 18.0625 99.5387 18.3848 99.7496 18.6191C99.9605 18.8477 100.262 19.041 100.655 19.1992C101.047 19.3516 101.513 19.5215 102.052 19.709C102.609 19.9023 103.122 20.1045 103.59 20.3154C104.065 20.5264 104.443 20.7988 104.724 21.1328C105.005 21.4668 105.146 21.9209 105.146 22.4951ZM107.542 15.4463V25H106.654V15.4463H107.542ZM107.111 11.9131C107.334 11.9131 107.498 11.9805 107.604 12.1152C107.709 12.2441 107.762 12.4199 107.762 12.6426C107.762 12.8652 107.709 13.041 107.604 13.1699C107.498 13.2988 107.334 13.3633 107.111 13.3633C106.9 13.3633 106.742 13.2988 106.637 13.1699C106.531 13.041 106.479 12.8652 106.479 12.6426C106.479 12.4199 106.531 12.2441 106.637 12.1152C106.742 11.9805 106.9 11.9131 107.111 11.9131ZM113.664 25.1758C112.715 25.1758 111.912 24.9795 111.256 24.5869C110.606 24.1885 110.114 23.623 109.78 22.8906C109.452 22.1523 109.287 21.2793 109.287 20.2715C109.287 19.2227 109.478 18.3262 109.859 17.582C110.24 16.832 110.776 16.2578 111.467 15.8594C112.159 15.4609 112.97 15.2617 113.902 15.2617C114.359 15.2617 114.784 15.3027 115.176 15.3848C115.569 15.4668 115.923 15.5811 116.24 15.7275L116.002 16.5098C115.674 16.3633 115.326 16.252 114.956 16.1758C114.587 16.0996 114.233 16.0615 113.893 16.0615C113.108 16.0615 112.44 16.2344 111.889 16.5801C111.344 16.9199 110.925 17.4062 110.632 18.0391C110.345 18.666 110.202 19.4072 110.202 20.2627C110.202 21.0654 110.325 21.7773 110.571 22.3984C110.817 23.0137 111.195 23.5 111.704 23.8574C112.214 24.209 112.868 24.3848 113.664 24.3848C114.127 24.3848 114.567 24.3379 114.983 24.2441C115.405 24.1504 115.788 24.0303 116.134 23.8838V24.6924C115.824 24.833 115.463 24.9473 115.053 25.0352C114.649 25.1289 114.186 25.1758 113.664 25.1758Z" class="logo-text"/>
</svg>
