<svg width="207" height="30" viewBox="0 0 207 30" fill="none" xmlns="http://www.w3.org/2000/svg">
<path d="M3.65277 7.8974H2.0514V1.78668H0V0.476562H5.70418V1.78595H3.65277V7.89666V7.8974Z" class="logo-accent"/>
<path d="M8.56749 2.11597C8.647 2.11597 8.7385 2.12039 8.84426 2.1285C8.94927 2.13734 9.03478 2.14766 9.10003 2.16166L8.98152 3.61325C8.92977 3.59631 8.85626 3.58378 8.76175 3.57494C8.66725 3.56683 8.58549 3.56241 8.51648 3.56241C8.31322 3.56241 8.11596 3.5882 7.92469 3.63831C7.73343 3.68915 7.56241 3.77094 7.4109 3.88442C7.25939 3.99789 7.13938 4.14673 7.05163 4.33095C6.96387 4.51516 6.91962 4.74137 6.91962 5.00885V7.89657H5.34375V2.22281H6.53709L6.76961 3.17704H6.84686C6.96087 2.98398 7.10263 2.80714 7.27289 2.6465C7.44316 2.48587 7.63817 2.35692 7.85644 2.26039C8.07545 2.16387 8.31172 2.11523 8.56674 2.11523L8.56749 2.11597Z" class="logo-accent"/>
<path d="M10.2284 0C10.4624 0 10.6642 0.0530533 10.833 0.159897C11.0017 0.26674 11.0865 0.464954 11.0865 0.75601C11.0865 1.04707 11.0017 1.24233 10.833 1.35212C10.6642 1.46191 10.4624 1.51718 10.2284 1.51718C9.99439 1.51718 9.78812 1.46191 9.62161 1.35212C9.45435 1.24233 9.37109 1.04338 9.37109 0.75601C9.37109 0.468638 9.45435 0.266004 9.62161 0.159897C9.78887 0.0530533 9.99139 0 10.2284 0ZM11.0137 2.22308V7.89758H9.43785V2.22308H11.0137Z" class="logo-accent"/>
<path d="M18.7239 2.11621C19.378 2.11621 19.8738 2.28127 20.209 2.61138C20.5451 2.94148 20.7131 3.46981 20.7131 4.19782V7.89755H19.132V4.58319C19.132 4.17719 19.0615 3.87066 18.9204 3.66434C18.7794 3.45802 18.5604 3.35486 18.2641 3.35486C17.8471 3.35486 17.5508 3.50149 17.3753 3.79402C17.1998 4.08655 17.1121 4.50508 17.1121 5.05035V7.89755H15.5362V4.58319C15.5362 4.31277 15.5054 4.08582 15.4432 3.90308C15.3809 3.72034 15.2864 3.58328 15.1589 3.49191C15.0314 3.40054 14.8679 3.35486 14.6684 3.35486C14.3759 3.35486 14.1456 3.42707 13.9783 3.57076C13.8111 3.71444 13.6926 3.92592 13.6221 4.20519C13.5515 4.48445 13.5163 4.82488 13.5163 5.22794V7.89755H11.9404V2.22305H13.1443L13.3558 2.94885H13.4435C13.5605 2.75285 13.7076 2.59369 13.8853 2.47211C14.0623 2.35053 14.2581 2.26063 14.4719 2.20316C14.6856 2.14569 14.9024 2.11695 15.1229 2.11695C15.5467 2.11695 15.906 2.18474 16.2 2.32032C16.4948 2.4559 16.7213 2.66517 16.8795 2.94959H17.0191C17.1916 2.65853 17.4346 2.44706 17.7504 2.31516C18.0654 2.18326 18.3902 2.11695 18.7239 2.11695V2.11621Z" class="logo-accent"/>
<path d="M23.1845 0V1.83771C23.1845 2.05066 23.1785 2.26213 23.1665 2.47214C23.1545 2.68214 23.1395 2.84425 23.1222 2.9592H23.1845C23.336 2.72561 23.543 2.52666 23.8048 2.36308C24.0666 2.19877 24.4056 2.11698 24.8226 2.11698C25.4699 2.11698 25.9957 2.36603 26.3985 2.86341C26.8013 3.36078 27.003 4.09026 27.003 5.05112C27.003 5.69734 26.91 6.23966 26.724 6.67809C26.538 7.11651 26.2777 7.44662 25.9439 7.66768C25.6102 7.88947 25.2224 8 24.7814 8C24.3403 8 24.0238 7.92558 23.7793 7.77673C23.5348 7.62789 23.3368 7.46062 23.1852 7.2742H23.0765L22.8132 7.89831H21.6094V0H23.1852H23.1845ZM24.3156 3.35489C24.0403 3.35489 23.8213 3.41089 23.6593 3.52215C23.4973 3.63415 23.3795 3.80142 23.3053 4.02468C23.231 4.24795 23.1905 4.5309 23.1837 4.87206V5.03933C23.1837 5.59123 23.2662 6.01345 23.432 6.30598C23.597 6.59851 23.8985 6.74514 24.3358 6.74514C24.6599 6.74514 24.9171 6.59777 25.1084 6.30377C25.2997 6.00903 25.3949 5.5846 25.3949 5.02975C25.3949 4.4749 25.2981 4.05711 25.1054 3.77563C24.9126 3.49489 24.6486 3.35415 24.3148 3.35415L24.3156 3.35489Z" class="logo-accent"/>
<path d="M29.2272 7.89758H27.6514V0H29.2272V7.89758Z" class="logo-accent"/>
<path d="M32.5881 2.11621C33.1222 2.11621 33.582 2.21716 33.9675 2.41832C34.353 2.61948 34.6508 2.91127 34.8616 3.2937C35.0716 3.67613 35.1766 4.14329 35.1766 4.69446V5.44531H31.4518C31.4691 5.88226 31.6026 6.22416 31.8523 6.47322C32.1021 6.72153 32.4494 6.84606 32.8934 6.84606C33.2617 6.84606 33.5992 6.80922 33.906 6.7348C34.2128 6.66038 34.5278 6.54837 34.8518 6.39953V7.59765C34.566 7.73618 34.2668 7.83786 33.9555 7.90197C33.6435 7.96608 33.2654 7.9985 32.8214 7.9985C32.2431 7.9985 31.7301 7.89387 31.2845 7.68386C30.8383 7.47386 30.4887 7.15407 30.236 6.72448C29.9825 6.2949 29.8564 5.75331 29.8564 5.10046C29.8564 4.44761 29.9712 3.88466 30.2 3.44328C30.4287 3.00191 30.7483 2.67032 31.1585 2.44853C31.5681 2.22674 32.0451 2.11621 32.5896 2.11621H32.5881ZM32.5986 3.2178C32.2919 3.2178 32.0384 3.31433 31.8366 3.50739C31.6348 3.69971 31.5186 4.00329 31.4878 4.41593H33.699C33.6952 4.18603 33.6532 3.98118 33.5722 3.80139C33.4912 3.62234 33.3705 3.48012 33.2107 3.37475C33.0502 3.27012 32.8462 3.2178 32.5986 3.2178Z" class="logo-accent"/>
<path d="M35.5782 7.23467C35.5737 6.85298 35.8849 6.53982 36.2735 6.53613C36.2787 6.53613 36.284 6.53613 36.2892 6.53613C36.6823 6.53613 37.0003 6.8493 37.0003 7.23467C37.0003 7.62078 36.6815 7.9332 36.2892 7.9332C35.8962 7.9332 35.5782 7.62004 35.5782 7.23467ZM36.8713 7.23467C36.8653 6.91782 36.5997 6.66508 36.2772 6.67098C35.9547 6.67687 35.6974 6.93772 35.7034 7.25456C35.7087 7.56846 35.9705 7.81973 36.29 7.81825C36.611 7.81825 36.872 7.56257 36.872 7.24646C36.872 7.24204 36.872 7.23835 36.872 7.23393L36.8713 7.23467ZM36.0132 6.83677H36.3042C36.488 6.83677 36.5952 6.91487 36.5952 7.07109C36.6042 7.16983 36.5405 7.2612 36.443 7.28772L36.611 7.60162H36.4482L36.2915 7.30909H36.1685V7.60162H36.0125V6.83677H36.0132ZM36.2952 7.19193C36.3905 7.19193 36.443 7.16172 36.443 7.07993C36.443 6.99814 36.3905 6.96793 36.2915 6.96793H36.1685V7.19119H36.2945L36.2952 7.19193Z" class="logo-accent"/>
<path d="M9.65039 25L8.39355 21.4316H3.48047L2.22363 25H0L4.78125 12.0977H7.11914L11.8916 25H9.65039ZM7.84863 19.6211L6.62695 16.1055C6.58008 15.9531 6.5127 15.7393 6.4248 15.4639C6.33691 15.1826 6.24902 14.8984 6.16113 14.6113C6.07324 14.3184 6 14.0723 5.94141 13.873C5.88281 14.1133 5.80957 14.3828 5.72168 14.6816C5.63965 14.9746 5.55762 15.25 5.47559 15.5078C5.39941 15.7656 5.34082 15.9648 5.2998 16.1055L4.06934 19.6211H7.84863ZM15.7465 25.1758C14.5863 25.1758 13.6547 24.7539 12.9516 23.9102C12.2543 23.0605 11.9057 21.8096 11.9057 20.1572C11.9057 18.4873 12.2602 17.2246 12.9691 16.3691C13.684 15.5137 14.6244 15.0859 15.7904 15.0859C16.2826 15.0859 16.7133 15.1533 17.0824 15.2881C17.4516 15.417 17.768 15.5928 18.0316 15.8154C18.3012 16.0381 18.5297 16.2871 18.7172 16.5625H18.8139C18.7846 16.3809 18.7494 16.1201 18.7084 15.7803C18.6732 15.4346 18.6557 15.1152 18.6557 14.8223V11.3242H20.7299V25H19.1127L18.7436 23.6729H18.6557C18.4799 23.9541 18.2572 24.209 17.9877 24.4375C17.724 24.6602 17.4076 24.8389 17.0385 24.9736C16.6752 25.1084 16.2445 25.1758 15.7465 25.1758ZM16.3266 23.4971C17.2113 23.4971 17.8354 23.2422 18.1986 22.7324C18.5619 22.2227 18.7494 21.458 18.7611 20.4385V20.166C18.7611 19.0762 18.5854 18.2412 18.2338 17.6611C17.8822 17.0752 17.2406 16.7822 16.309 16.7822C15.5648 16.7822 14.9965 17.084 14.6039 17.6875C14.2172 18.2852 14.0238 19.1201 14.0238 20.1924C14.0238 21.2646 14.2172 22.085 14.6039 22.6533C14.9965 23.2158 15.5707 23.4971 16.3266 23.4971ZM25.0154 25L21.3152 15.2705H23.5037L25.5076 20.9834C25.6365 21.3467 25.7537 21.7393 25.8592 22.1611C25.9646 22.583 26.0379 22.9375 26.0789 23.2246H26.1492C26.1902 22.9258 26.2693 22.5684 26.3865 22.1523C26.5037 21.7305 26.6238 21.3408 26.7469 20.9834L28.7508 15.2705H30.9305L27.2303 25H25.0154ZM35.3215 15.0859C36.552 15.0859 37.4807 15.3584 38.1076 15.9033C38.7404 16.4482 39.0568 17.2979 39.0568 18.4521V25H37.5891L37.1936 23.6201H37.1232C36.8479 23.9717 36.5637 24.2617 36.2707 24.4902C35.9777 24.7188 35.6379 24.8887 35.2512 25C34.8703 25.1172 34.4045 25.1758 33.8537 25.1758C33.2736 25.1758 32.7551 25.0703 32.298 24.8594C31.841 24.6426 31.4807 24.3145 31.217 23.875C30.9533 23.4355 30.8215 22.8789 30.8215 22.2051C30.8215 21.2031 31.1936 20.4502 31.9377 19.9463C32.6877 19.4424 33.8186 19.1641 35.3303 19.1113L37.0178 19.0498V18.54C37.0178 17.8662 36.8596 17.3857 36.5432 17.0986C36.2326 16.8115 35.7932 16.668 35.2248 16.668C34.7385 16.668 34.2668 16.7383 33.8098 16.8789C33.3527 17.0195 32.9074 17.1924 32.4738 17.3975L31.8059 15.9385C32.2805 15.6865 32.8195 15.4814 33.423 15.3232C34.0324 15.165 34.6652 15.0859 35.3215 15.0859ZM37.009 20.3506L35.7521 20.3945C34.7209 20.4297 33.9973 20.6055 33.5812 20.9219C33.1652 21.2383 32.9572 21.6719 32.9572 22.2227C32.9572 22.7031 33.1008 23.0547 33.3879 23.2773C33.675 23.4941 34.0529 23.6025 34.5217 23.6025C35.2365 23.6025 35.8283 23.4004 36.2971 22.9961C36.7717 22.5859 37.009 21.9854 37.009 21.1943V20.3506ZM46.1197 15.0859C47.2154 15.0859 48.068 15.3701 48.6773 15.9385C49.2926 16.501 49.6002 17.4062 49.6002 18.6543V25H47.5348V19.041C47.5348 18.2852 47.3795 17.7197 47.0689 17.3447C46.7584 16.9639 46.2779 16.7734 45.6275 16.7734C44.6842 16.7734 44.0279 17.0635 43.6588 17.6436C43.2955 18.2236 43.1139 19.0645 43.1139 20.166V25H41.0484V15.2705H42.6568L42.9469 16.5889H43.0611C43.2721 16.249 43.5328 15.9707 43.8434 15.7539C44.1598 15.5312 44.5113 15.3643 44.898 15.2529C45.2906 15.1416 45.6979 15.0859 46.1197 15.0859ZM55.5117 25.1758C54.5918 25.1758 53.7949 24.9971 53.1211 24.6396C52.4473 24.2822 51.9287 23.7344 51.5654 22.9961C51.2021 22.2578 51.0205 21.3203 51.0205 20.1836C51.0205 19 51.2197 18.0332 51.6182 17.2832C52.0166 16.5332 52.5674 15.9795 53.2705 15.6221C53.9795 15.2646 54.791 15.0859 55.7051 15.0859C56.2852 15.0859 56.8096 15.1445 57.2783 15.2617C57.7529 15.373 58.1543 15.5107 58.4824 15.6748L57.8672 17.3271C57.5098 17.1807 57.1436 17.0576 56.7686 16.958C56.3936 16.8584 56.0332 16.8086 55.6875 16.8086C55.1191 16.8086 54.6445 16.9346 54.2637 17.1865C53.8887 17.4385 53.6074 17.8135 53.4199 18.3115C53.2383 18.8096 53.1475 19.4277 53.1475 20.166C53.1475 20.8809 53.2412 21.4844 53.4287 21.9766C53.6162 22.4629 53.8945 22.832 54.2637 23.084C54.6328 23.3301 55.0869 23.4531 55.626 23.4531C56.1592 23.4531 56.6367 23.3887 57.0586 23.2598C57.4805 23.1309 57.8789 22.9639 58.2539 22.7588V24.5518C57.8848 24.7627 57.4893 24.918 57.0674 25.0176C56.6455 25.123 56.127 25.1758 55.5117 25.1758ZM63.515 15.0859C64.3822 15.0859 65.1264 15.2646 65.7475 15.6221C66.3686 15.9795 66.8461 16.4863 67.1801 17.1426C67.5141 17.7988 67.6811 18.584 67.6811 19.498V20.6055H61.1859C61.2094 21.5488 61.4613 22.2754 61.9418 22.7852C62.4281 23.2949 63.1078 23.5498 63.9809 23.5498C64.602 23.5498 65.1586 23.4912 65.6508 23.374C66.1488 23.251 66.6615 23.0723 67.1889 22.8379V24.5166C66.7025 24.7451 66.2074 24.9121 65.7035 25.0176C65.1996 25.123 64.5961 25.1758 63.893 25.1758C62.9379 25.1758 62.0971 24.9912 61.3705 24.6221C60.6498 24.2471 60.0844 23.6904 59.6742 22.9521C59.2699 22.2139 59.0678 21.2969 59.0678 20.2012C59.0678 19.1113 59.2523 18.1855 59.6215 17.4238C59.9906 16.6621 60.5092 16.082 61.1771 15.6836C61.8451 15.2852 62.6244 15.0859 63.515 15.0859ZM63.515 16.6416C62.8646 16.6416 62.3373 16.8525 61.933 17.2744C61.5346 17.6963 61.3002 18.3145 61.2299 19.1289H65.6596C65.6537 18.6426 65.5717 18.2119 65.4135 17.8369C65.2611 17.4619 65.0268 17.1689 64.7104 16.958C64.3998 16.7471 64.0014 16.6416 63.515 16.6416ZM72.3797 25.1758C71.2195 25.1758 70.2879 24.7539 69.5848 23.9102C68.8875 23.0605 68.5389 21.8096 68.5389 20.1572C68.5389 18.4873 68.8934 17.2246 69.6023 16.3691C70.3172 15.5137 71.2576 15.0859 72.4236 15.0859C72.9158 15.0859 73.3465 15.1533 73.7156 15.2881C74.0848 15.417 74.4012 15.5928 74.6648 15.8154C74.9344 16.0381 75.1629 16.2871 75.3504 16.5625H75.4471C75.4178 16.3809 75.3826 16.1201 75.3416 15.7803C75.3064 15.4346 75.2889 15.1152 75.2889 14.8223V11.3242H77.3631V25H75.7459L75.3768 23.6729H75.2889C75.1131 23.9541 74.8904 24.209 74.6209 24.4375C74.3572 24.6602 74.0408 24.8389 73.6717 24.9736C73.3084 25.1084 72.8777 25.1758 72.3797 25.1758ZM72.9598 23.4971C73.8445 23.4971 74.4686 23.2422 74.8318 22.7324C75.1951 22.2227 75.3826 21.458 75.3943 20.4385V20.166C75.3943 19.0762 75.2186 18.2412 74.867 17.6611C74.5154 17.0752 73.8738 16.7822 72.9422 16.7822C72.198 16.7822 71.6297 17.084 71.2371 17.6875C70.8504 18.2852 70.657 19.1201 70.657 20.1924C70.657 21.2646 70.8504 22.085 71.2371 22.6533C71.6297 23.2158 72.2039 23.4971 72.9598 23.4971ZM83.4117 25V12.1504H85.5211V25H83.4117ZM98.7979 15.0859C99.8877 15.0859 100.708 15.3672 101.259 15.9297C101.815 16.4922 102.094 17.3945 102.094 18.6367V25H100.028V19.0059C100.028 18.2676 99.8848 17.7109 99.5977 17.3359C99.3105 16.9609 98.874 16.7734 98.2881 16.7734C97.4678 16.7734 96.876 17.0371 96.5127 17.5645C96.1553 18.0859 95.9766 18.8447 95.9766 19.8408V25H93.9111V19.0059C93.9111 18.5137 93.8467 18.1035 93.7178 17.7754C93.5947 17.4414 93.4043 17.1924 93.1465 17.0283C92.8887 16.8584 92.5635 16.7734 92.1709 16.7734C91.6025 16.7734 91.1484 16.9023 90.8086 17.1602C90.4746 17.418 90.2344 17.7988 90.0879 18.3027C89.9414 18.8008 89.8682 19.4131 89.8682 20.1396V25H87.8027V15.2705H89.4111L89.7012 16.5801H89.8154C90.0146 16.2402 90.2607 15.9619 90.5537 15.7451C90.8525 15.5225 91.1836 15.3584 91.5469 15.2529C91.9102 15.1416 92.2881 15.0859 92.6807 15.0859C93.4072 15.0859 94.0195 15.2148 94.5176 15.4727C95.0156 15.7246 95.3877 16.1113 95.6338 16.6328H95.792C96.0967 16.1055 96.5215 15.7158 97.0664 15.4639C97.6113 15.2119 98.1885 15.0859 98.7979 15.0859ZM107.891 15.0859C109.121 15.0859 110.05 15.3584 110.677 15.9033C111.31 16.4482 111.626 17.2979 111.626 18.4521V25H110.159L109.763 23.6201H109.693C109.417 23.9717 109.133 24.2617 108.84 24.4902C108.547 24.7188 108.207 24.8887 107.821 25C107.44 25.1172 106.974 25.1758 106.423 25.1758C105.843 25.1758 105.325 25.0703 104.868 24.8594C104.411 24.6426 104.05 24.3145 103.787 23.875C103.523 23.4355 103.391 22.8789 103.391 22.2051C103.391 21.2031 103.763 20.4502 104.507 19.9463C105.257 19.4424 106.388 19.1641 107.9 19.1113L109.587 19.0498V18.54C109.587 17.8662 109.429 17.3857 109.113 17.0986C108.802 16.8115 108.363 16.668 107.794 16.668C107.308 16.668 106.836 16.7383 106.379 16.8789C105.922 17.0195 105.477 17.1924 105.043 17.3975L104.375 15.9385C104.85 15.6865 105.389 15.4814 105.993 15.3232C106.602 15.165 107.235 15.0859 107.891 15.0859ZM109.579 20.3506L108.322 20.3945C107.29 20.4297 106.567 20.6055 106.151 20.9219C105.735 21.2383 105.527 21.6719 105.527 22.2227C105.527 22.7031 105.67 23.0547 105.957 23.2773C106.245 23.4941 106.622 23.6025 107.091 23.6025C107.806 23.6025 108.398 23.4004 108.867 22.9961C109.341 22.5859 109.579 21.9854 109.579 21.1943V20.3506ZM116.395 29.3242C115.077 29.3242 114.066 29.0869 113.363 28.6123C112.66 28.1377 112.308 27.4727 112.308 26.6172C112.308 26.0195 112.496 25.5127 112.871 25.0967C113.246 24.6865 113.782 24.4023 114.479 24.2441C114.216 24.127 113.987 23.9453 113.794 23.6992C113.606 23.4473 113.512 23.1689 113.512 22.8643C113.512 22.501 113.615 22.1904 113.82 21.9326C114.025 21.6748 114.333 21.4258 114.743 21.1855C114.233 20.9688 113.823 20.6172 113.512 20.1309C113.208 19.6387 113.055 19.0615 113.055 18.3994C113.055 17.6963 113.205 17.0986 113.504 16.6064C113.803 16.1084 114.239 15.7305 114.813 15.4727C115.387 15.209 116.082 15.0771 116.896 15.0771C117.072 15.0771 117.262 15.0889 117.468 15.1123C117.679 15.1299 117.872 15.1533 118.048 15.1826C118.229 15.2061 118.367 15.2324 118.461 15.2617H121.827V16.4131L120.175 16.7207C120.333 16.9434 120.459 17.1982 120.553 17.4854C120.646 17.7666 120.693 18.0742 120.693 18.4082C120.693 19.416 120.345 20.21 119.647 20.79C118.956 21.3643 118.001 21.6514 116.782 21.6514C116.489 21.6396 116.205 21.6162 115.929 21.5811C115.719 21.71 115.557 21.8535 115.446 22.0117C115.335 22.1641 115.279 22.3369 115.279 22.5303C115.279 22.6885 115.335 22.8174 115.446 22.917C115.557 23.0107 115.721 23.0811 115.938 23.1279C116.161 23.1748 116.43 23.1982 116.747 23.1982H118.426C119.492 23.1982 120.306 23.4238 120.869 23.875C121.431 24.3262 121.713 24.9883 121.713 25.8613C121.713 26.9688 121.256 27.8213 120.342 28.4189C119.428 29.0225 118.112 29.3242 116.395 29.3242ZM116.474 27.874C117.195 27.874 117.802 27.8037 118.294 27.6631C118.786 27.5225 119.158 27.3203 119.41 27.0566C119.662 26.7988 119.788 26.4912 119.788 26.1338C119.788 25.8174 119.709 25.5742 119.551 25.4043C119.392 25.2344 119.155 25.1172 118.839 25.0527C118.522 24.9883 118.13 24.9561 117.661 24.9561H116.132C115.751 24.9561 115.414 25.0146 115.121 25.1318C114.828 25.2549 114.599 25.4307 114.435 25.6592C114.277 25.8877 114.198 26.1631 114.198 26.4854C114.198 26.9307 114.394 27.2734 114.787 27.5137C115.185 27.7539 115.748 27.874 116.474 27.874ZM116.879 20.2979C117.482 20.2979 117.93 20.1338 118.223 19.8057C118.516 19.4717 118.663 19.0029 118.663 18.3994C118.663 17.7432 118.511 17.251 118.206 16.9229C117.907 16.5947 117.462 16.4307 116.87 16.4307C116.29 16.4307 115.847 16.5977 115.543 16.9316C115.244 17.2656 115.095 17.7607 115.095 18.417C115.095 19.0088 115.244 19.4717 115.543 19.8057C115.847 20.1338 116.293 20.2979 116.879 20.2979ZM126.578 15.0859C127.446 15.0859 128.19 15.2646 128.811 15.6221C129.432 15.9795 129.909 16.4863 130.243 17.1426C130.577 17.7988 130.744 18.584 130.744 19.498V20.6055H124.249C124.273 21.5488 124.525 22.2754 125.005 22.7852C125.491 23.2949 126.171 23.5498 127.044 23.5498C127.665 23.5498 128.222 23.4912 128.714 23.374C129.212 23.251 129.725 23.0723 130.252 22.8379V24.5166C129.766 24.7451 129.271 24.9121 128.767 25.0176C128.263 25.123 127.659 25.1758 126.956 25.1758C126.001 25.1758 125.16 24.9912 124.434 24.6221C123.713 24.2471 123.148 23.6904 122.738 22.9521C122.333 22.2139 122.131 21.2969 122.131 20.2012C122.131 19.1113 122.316 18.1855 122.685 17.4238C123.054 16.6621 123.572 16.082 124.24 15.6836C124.908 15.2852 125.688 15.0859 126.578 15.0859ZM126.578 16.6416C125.928 16.6416 125.401 16.8525 124.996 17.2744C124.598 17.6963 124.363 18.3145 124.293 19.1289H128.723C128.717 18.6426 128.635 18.2119 128.477 17.8369C128.324 17.4619 128.09 17.1689 127.774 16.958C127.463 16.7471 127.065 16.6416 126.578 16.6416ZM141.706 25L138.006 14.2686H137.927C137.944 14.5088 137.965 14.8369 137.988 15.2529C138.012 15.6689 138.032 16.1143 138.05 16.5889C138.067 17.0635 138.076 17.5176 138.076 17.9512V25H136.16V12.1504H139.122L142.682 22.4072H142.734L146.417 12.1504H149.37V25H147.357V17.8457C147.357 17.4531 147.363 17.0283 147.375 16.5713C147.393 16.1143 147.41 15.6807 147.428 15.2705C147.451 14.8604 147.469 14.5322 147.48 14.2861H147.41L143.569 25H141.706ZM155.457 15.0859C156.688 15.0859 157.617 15.3584 158.244 15.9033C158.876 16.4482 159.193 17.2979 159.193 18.4521V25H157.725L157.329 23.6201H157.259C156.984 23.9717 156.7 24.2617 156.407 24.4902C156.114 24.7188 155.774 24.8887 155.387 25C155.006 25.1172 154.54 25.1758 153.99 25.1758C153.41 25.1758 152.891 25.0703 152.434 24.8594C151.977 24.6426 151.617 24.3145 151.353 23.875C151.089 23.4355 150.957 22.8789 150.957 22.2051C150.957 21.2031 151.329 20.4502 152.074 19.9463C152.824 19.4424 153.954 19.1641 155.466 19.1113L157.154 19.0498V18.54C157.154 17.8662 156.996 17.3857 156.679 17.0986C156.369 16.8115 155.929 16.668 155.361 16.668C154.874 16.668 154.403 16.7383 153.946 16.8789C153.489 17.0195 153.043 17.1924 152.61 17.3975L151.942 15.9385C152.416 15.6865 152.955 15.4814 153.559 15.3232C154.168 15.165 154.801 15.0859 155.457 15.0859ZM157.145 20.3506L155.888 20.3945C154.857 20.4297 154.133 20.6055 153.717 20.9219C153.301 21.2383 153.093 21.6719 153.093 22.2227C153.093 22.7031 153.237 23.0547 153.524 23.2773C153.811 23.4941 154.189 23.6025 154.658 23.6025C155.372 23.6025 155.964 23.4004 156.433 22.9961C156.908 22.5859 157.145 21.9854 157.145 21.1943V20.3506ZM166.256 15.0859C167.351 15.0859 168.204 15.3701 168.813 15.9385C169.429 16.501 169.736 17.4062 169.736 18.6543V25H167.671V19.041C167.671 18.2852 167.515 17.7197 167.205 17.3447C166.894 16.9639 166.414 16.7734 165.763 16.7734C164.82 16.7734 164.164 17.0635 163.795 17.6436C163.431 18.2236 163.25 19.0645 163.25 20.166V25H161.184V15.2705H162.793L163.083 16.5889H163.197C163.408 16.249 163.669 15.9707 163.979 15.7539C164.296 15.5312 164.647 15.3643 165.034 15.2529C165.427 15.1416 165.834 15.0859 166.256 15.0859ZM175.542 15.0859C176.773 15.0859 177.701 15.3584 178.328 15.9033C178.961 16.4482 179.278 17.2979 179.278 18.4521V25H177.81L177.414 23.6201H177.344C177.069 23.9717 176.784 24.2617 176.491 24.4902C176.198 24.7188 175.859 24.8887 175.472 25C175.091 25.1172 174.625 25.1758 174.074 25.1758C173.494 25.1758 172.976 25.0703 172.519 24.8594C172.062 24.6426 171.701 24.3145 171.438 23.875C171.174 23.4355 171.042 22.8789 171.042 22.2051C171.042 21.2031 171.414 20.4502 172.158 19.9463C172.908 19.4424 174.039 19.1641 175.551 19.1113L177.238 19.0498V18.54C177.238 17.8662 177.08 17.3857 176.764 17.0986C176.453 16.8115 176.014 16.668 175.446 16.668C174.959 16.668 174.488 16.7383 174.03 16.8789C173.573 17.0195 173.128 17.1924 172.695 17.3975L172.027 15.9385C172.501 15.6865 173.04 15.4814 173.644 15.3232C174.253 15.165 174.886 15.0859 175.542 15.0859ZM177.23 20.3506L175.973 20.3945C174.942 20.4297 174.218 20.6055 173.802 20.9219C173.386 21.2383 173.178 21.6719 173.178 22.2227C173.178 22.7031 173.321 23.0547 173.609 23.2773C173.896 23.4941 174.274 23.6025 174.742 23.6025C175.457 23.6025 176.049 23.4004 176.518 22.9961C176.992 22.5859 177.23 21.9854 177.23 21.1943V20.3506ZM184.046 29.3242C182.728 29.3242 181.717 29.0869 181.014 28.6123C180.311 28.1377 179.96 27.4727 179.96 26.6172C179.96 26.0195 180.147 25.5127 180.522 25.0967C180.897 24.6865 181.433 24.4023 182.13 24.2441C181.867 24.127 181.638 23.9453 181.445 23.6992C181.257 23.4473 181.164 23.1689 181.164 22.8643C181.164 22.501 181.266 22.1904 181.471 21.9326C181.676 21.6748 181.984 21.4258 182.394 21.1855C181.884 20.9688 181.474 20.6172 181.164 20.1309C180.859 19.6387 180.707 19.0615 180.707 18.3994C180.707 17.6963 180.856 17.0986 181.155 16.6064C181.454 16.1084 181.89 15.7305 182.464 15.4727C183.039 15.209 183.733 15.0771 184.547 15.0771C184.723 15.0771 184.914 15.0889 185.119 15.1123C185.33 15.1299 185.523 15.1533 185.699 15.1826C185.88 15.2061 186.018 15.2324 186.112 15.2617H189.478V16.4131L187.826 16.7207C187.984 16.9434 188.11 17.1982 188.204 17.4854C188.297 17.7666 188.344 18.0742 188.344 18.4082C188.344 19.416 187.996 20.21 187.298 20.79C186.607 21.3643 185.652 21.6514 184.433 21.6514C184.14 21.6396 183.856 21.6162 183.581 21.5811C183.37 21.71 183.209 21.8535 183.097 22.0117C182.986 22.1641 182.93 22.3369 182.93 22.5303C182.93 22.6885 182.986 22.8174 183.097 22.917C183.209 23.0107 183.373 23.0811 183.589 23.1279C183.812 23.1748 184.082 23.1982 184.398 23.1982H186.077C187.143 23.1982 187.958 23.4238 188.52 23.875C189.083 24.3262 189.364 24.9883 189.364 25.8613C189.364 26.9688 188.907 27.8213 187.993 28.4189C187.079 29.0225 185.763 29.3242 184.046 29.3242ZM184.126 27.874C184.846 27.874 185.453 27.8037 185.945 27.6631C186.437 27.5225 186.809 27.3203 187.061 27.0566C187.313 26.7988 187.439 26.4912 187.439 26.1338C187.439 25.8174 187.36 25.5742 187.202 25.4043C187.044 25.2344 186.806 25.1172 186.49 25.0527C186.173 24.9883 185.781 24.9561 185.312 24.9561H183.783C183.402 24.9561 183.065 25.0146 182.772 25.1318C182.479 25.2549 182.251 25.4307 182.087 25.6592C181.928 25.8877 181.849 26.1631 181.849 26.4854C181.849 26.9307 182.046 27.2734 182.438 27.5137C182.837 27.7539 183.399 27.874 184.126 27.874ZM184.53 20.2979C185.133 20.2979 185.582 20.1338 185.875 19.8057C186.168 19.4717 186.314 19.0029 186.314 18.3994C186.314 17.7432 186.162 17.251 185.857 16.9229C185.558 16.5947 185.113 16.4307 184.521 16.4307C183.941 16.4307 183.499 16.5977 183.194 16.9316C182.895 17.2656 182.746 17.7607 182.746 18.417C182.746 19.0088 182.895 19.4717 183.194 19.8057C183.499 20.1338 183.944 20.2979 184.53 20.2979ZM194.229 15.0859C195.097 15.0859 195.841 15.2646 196.462 15.6221C197.083 15.9795 197.561 16.4863 197.895 17.1426C198.229 17.7988 198.396 18.584 198.396 19.498V20.6055H191.9C191.924 21.5488 192.176 22.2754 192.656 22.7852C193.143 23.2949 193.822 23.5498 194.695 23.5498C195.316 23.5498 195.873 23.4912 196.365 23.374C196.863 23.251 197.376 23.0723 197.903 22.8379V24.5166C197.417 24.7451 196.922 24.9121 196.418 25.0176C195.914 25.123 195.311 25.1758 194.607 25.1758C193.652 25.1758 192.812 24.9912 192.085 24.6221C191.364 24.2471 190.799 23.6904 190.389 22.9521C189.984 22.2139 189.782 21.2969 189.782 20.2012C189.782 19.1113 189.967 18.1855 190.336 17.4238C190.705 16.6621 191.224 16.082 191.892 15.6836C192.56 15.2852 193.339 15.0859 194.229 15.0859ZM194.229 16.6416C193.579 16.6416 193.052 16.8525 192.647 17.2744C192.249 17.6963 192.015 18.3145 191.944 19.1289H196.374C196.368 18.6426 196.286 18.2119 196.128 17.8369C195.976 17.4619 195.741 17.1689 195.425 16.958C195.114 16.7471 194.716 16.6416 194.229 16.6416ZM204.755 15.0859C204.919 15.0859 205.098 15.0947 205.291 15.1123C205.485 15.1299 205.652 15.1533 205.792 15.1826L205.599 17.1162C205.476 17.0811 205.324 17.0547 205.142 17.0371C204.966 17.0195 204.808 17.0107 204.667 17.0107C204.298 17.0107 203.947 17.0723 203.613 17.1953C203.279 17.3125 202.983 17.4941 202.725 17.7402C202.467 17.9805 202.265 18.2822 202.119 18.6455C201.972 19.0088 201.899 19.4307 201.899 19.9111V25H199.825V15.2705H201.442L201.723 16.9844H201.82C202.013 16.6387 202.253 16.3223 202.54 16.0352C202.828 15.748 203.156 15.5195 203.525 15.3496C203.9 15.1738 204.31 15.0859 204.755 15.0859Z" class="logo-text"/>
</svg>
