<svg width="101" height="30" viewBox="0 0 101 30" fill="none" xmlns="http://www.w3.org/2000/svg">
<path d="M3.65277 7.8974H2.0514V1.78668H0V0.476562H5.70418V1.78595H3.65277V7.89666V7.8974Z" class="logo-accent"/>
<path d="M8.56749 2.11597C8.647 2.11597 8.7385 2.12039 8.84426 2.1285C8.94927 2.13734 9.03478 2.14766 9.10003 2.16166L8.98152 3.61325C8.92977 3.59631 8.85626 3.58378 8.76175 3.57494C8.66725 3.56683 8.58549 3.56241 8.51648 3.56241C8.31322 3.56241 8.11596 3.5882 7.92469 3.63831C7.73343 3.68915 7.56241 3.77094 7.4109 3.88442C7.25939 3.99789 7.13938 4.14673 7.05163 4.33095C6.96387 4.51516 6.91962 4.74137 6.91962 5.00885V7.89657H5.34375V2.22281H6.53709L6.76961 3.17704H6.84686C6.96087 2.98398 7.10263 2.80714 7.27289 2.6465C7.44316 2.48587 7.63817 2.35692 7.85644 2.26039C8.07545 2.16387 8.31172 2.11523 8.56674 2.11523L8.56749 2.11597Z" class="logo-accent"/>
<path d="M10.2284 0C10.4624 0 10.6642 0.0530533 10.833 0.159897C11.0017 0.26674 11.0865 0.464954 11.0865 0.75601C11.0865 1.04707 11.0017 1.24233 10.833 1.35212C10.6642 1.46191 10.4624 1.51718 10.2284 1.51718C9.99439 1.51718 9.78812 1.46191 9.62161 1.35212C9.45435 1.24233 9.37109 1.04338 9.37109 0.75601C9.37109 0.468638 9.45435 0.266004 9.62161 0.159897C9.78887 0.0530533 9.99139 0 10.2284 0ZM11.0137 2.22308V7.89758H9.43785V2.22308H11.0137Z" class="logo-accent"/>
<path d="M18.7239 2.11621C19.378 2.11621 19.8738 2.28127 20.209 2.61138C20.5451 2.94148 20.7131 3.46981 20.7131 4.19782V7.89755H19.132V4.58319C19.132 4.17719 19.0615 3.87066 18.9204 3.66434C18.7794 3.45802 18.5604 3.35486 18.2641 3.35486C17.8471 3.35486 17.5508 3.50149 17.3753 3.79402C17.1998 4.08655 17.1121 4.50508 17.1121 5.05035V7.89755H15.5362V4.58319C15.5362 4.31277 15.5054 4.08582 15.4432 3.90308C15.3809 3.72034 15.2864 3.58328 15.1589 3.49191C15.0314 3.40054 14.8679 3.35486 14.6684 3.35486C14.3759 3.35486 14.1456 3.42707 13.9783 3.57076C13.8111 3.71444 13.6926 3.92592 13.6221 4.20519C13.5515 4.48445 13.5163 4.82488 13.5163 5.22794V7.89755H11.9404V2.22305H13.1443L13.3558 2.94885H13.4435C13.5605 2.75285 13.7076 2.59369 13.8853 2.47211C14.0623 2.35053 14.2581 2.26063 14.4719 2.20316C14.6856 2.14569 14.9024 2.11695 15.1229 2.11695C15.5467 2.11695 15.906 2.18474 16.2 2.32032C16.4948 2.4559 16.7213 2.66517 16.8795 2.94959H17.0191C17.1916 2.65853 17.4346 2.44706 17.7504 2.31516C18.0654 2.18326 18.3902 2.11695 18.7239 2.11695V2.11621Z" class="logo-accent"/>
<path d="M23.1845 0V1.83771C23.1845 2.05066 23.1785 2.26213 23.1665 2.47214C23.1545 2.68214 23.1395 2.84425 23.1222 2.9592H23.1845C23.336 2.72561 23.543 2.52666 23.8048 2.36308C24.0666 2.19877 24.4056 2.11698 24.8226 2.11698C25.4699 2.11698 25.9957 2.36603 26.3985 2.86341C26.8013 3.36078 27.003 4.09026 27.003 5.05112C27.003 5.69734 26.91 6.23966 26.724 6.67809C26.538 7.11651 26.2777 7.44662 25.9439 7.66768C25.6102 7.88947 25.2224 8 24.7814 8C24.3403 8 24.0238 7.92558 23.7793 7.77673C23.5348 7.62789 23.3368 7.46062 23.1852 7.2742H23.0765L22.8132 7.89831H21.6094V0H23.1852H23.1845ZM24.3156 3.35489C24.0403 3.35489 23.8213 3.41089 23.6593 3.52215C23.4973 3.63415 23.3795 3.80142 23.3053 4.02468C23.231 4.24795 23.1905 4.5309 23.1837 4.87206V5.03933C23.1837 5.59123 23.2662 6.01345 23.432 6.30598C23.597 6.59851 23.8985 6.74514 24.3358 6.74514C24.6599 6.74514 24.9171 6.59777 25.1084 6.30377C25.2997 6.00903 25.3949 5.5846 25.3949 5.02975C25.3949 4.4749 25.2981 4.05711 25.1054 3.77563C24.9126 3.49489 24.6486 3.35415 24.3148 3.35415L24.3156 3.35489Z" class="logo-accent"/>
<path d="M29.2272 7.89758H27.6514V0H29.2272V7.89758Z" class="logo-accent"/>
<path d="M32.5881 2.11621C33.1222 2.11621 33.582 2.21716 33.9675 2.41832C34.353 2.61948 34.6508 2.91127 34.8616 3.2937C35.0716 3.67613 35.1766 4.14329 35.1766 4.69446V5.44531H31.4518C31.4691 5.88226 31.6026 6.22416 31.8523 6.47322C32.1021 6.72153 32.4494 6.84606 32.8934 6.84606C33.2617 6.84606 33.5992 6.80922 33.906 6.7348C34.2128 6.66038 34.5278 6.54837 34.8518 6.39953V7.59765C34.566 7.73618 34.2668 7.83786 33.9555 7.90197C33.6435 7.96608 33.2654 7.9985 32.8214 7.9985C32.2431 7.9985 31.7301 7.89387 31.2845 7.68386C30.8383 7.47386 30.4887 7.15407 30.236 6.72448C29.9825 6.2949 29.8564 5.75331 29.8564 5.10046C29.8564 4.44761 29.9712 3.88466 30.2 3.44328C30.4287 3.00191 30.7483 2.67032 31.1585 2.44853C31.5681 2.22674 32.0451 2.11621 32.5896 2.11621H32.5881ZM32.5986 3.2178C32.2919 3.2178 32.0384 3.31433 31.8366 3.50739C31.6348 3.69971 31.5186 4.00329 31.4878 4.41593H33.699C33.6952 4.18603 33.6532 3.98118 33.5722 3.80139C33.4912 3.62234 33.3705 3.48012 33.2107 3.37475C33.0502 3.27012 32.8462 3.2178 32.5986 3.2178Z" class="logo-accent"/>
<path d="M35.5782 7.23467C35.5737 6.85298 35.8849 6.53982 36.2735 6.53613C36.2787 6.53613 36.284 6.53613 36.2892 6.53613C36.6823 6.53613 37.0003 6.8493 37.0003 7.23467C37.0003 7.62078 36.6815 7.9332 36.2892 7.9332C35.8962 7.9332 35.5782 7.62004 35.5782 7.23467ZM36.8713 7.23467C36.8653 6.91782 36.5997 6.66508 36.2772 6.67098C35.9547 6.67687 35.6974 6.93772 35.7034 7.25456C35.7087 7.56846 35.9705 7.81973 36.29 7.81825C36.611 7.81825 36.872 7.56257 36.872 7.24646C36.872 7.24204 36.872 7.23835 36.872 7.23393L36.8713 7.23467ZM36.0132 6.83677H36.3042C36.488 6.83677 36.5952 6.91487 36.5952 7.07109C36.6042 7.16983 36.5405 7.2612 36.443 7.28772L36.611 7.60162H36.4482L36.2915 7.30909H36.1685V7.60162H36.0125V6.83677H36.0132ZM36.2952 7.19193C36.3905 7.19193 36.443 7.16172 36.443 7.07993C36.443 6.99814 36.3905 6.96793 36.2915 6.96793H36.1685V7.19119H36.2945L36.2952 7.19193Z" class="logo-accent"/>
<path d="M9.65039 25L8.39355 21.4316H3.48047L2.22363 25H0L4.78125 12.0977H7.11914L11.8916 25H9.65039ZM7.84863 19.6211L6.62695 16.1055C6.58008 15.9531 6.5127 15.7393 6.4248 15.4639C6.33691 15.1826 6.24902 14.8984 6.16113 14.6113C6.07324 14.3184 6 14.0723 5.94141 13.873C5.88281 14.1133 5.80957 14.3828 5.72168 14.6816C5.63965 14.9746 5.55762 15.25 5.47559 15.5078C5.39941 15.7656 5.34082 15.9648 5.2998 16.1055L4.06934 19.6211H7.84863ZM17.4691 15.0859C18.6234 15.0859 19.5492 15.5078 20.2465 16.3516C20.9496 17.1953 21.3012 18.4492 21.3012 20.1133C21.3012 21.2148 21.1371 22.1436 20.809 22.8994C20.4867 23.6494 20.0326 24.2178 19.4467 24.6045C18.8666 24.9854 18.1898 25.1758 17.4164 25.1758C16.9242 25.1758 16.4965 25.1113 16.1332 24.9824C15.7699 24.8535 15.4594 24.6865 15.2016 24.4814C14.9438 24.2705 14.727 24.042 14.5512 23.7959H14.4281C14.4574 24.0303 14.4838 24.291 14.5072 24.5781C14.5365 24.8594 14.5512 25.1172 14.5512 25.3516V29.3154H12.477V15.2705H14.1645L14.4545 16.6152H14.5512C14.7328 16.3398 14.9525 16.085 15.2104 15.8506C15.474 15.6162 15.7904 15.4316 16.1596 15.2969C16.5346 15.1562 16.9711 15.0859 17.4691 15.0859ZM16.9154 16.7734C16.3471 16.7734 15.89 16.8877 15.5443 17.1162C15.2045 17.3389 14.9555 17.6758 14.7973 18.127C14.6449 18.5781 14.5629 19.1436 14.5512 19.8232V20.1133C14.5512 20.834 14.6244 21.4463 14.7709 21.9502C14.9232 22.4482 15.1723 22.8291 15.518 23.0928C15.8695 23.3506 16.3441 23.4795 16.9418 23.4795C17.4457 23.4795 17.8617 23.3418 18.1898 23.0664C18.5238 22.791 18.7729 22.3984 18.9369 21.8887C19.101 21.3789 19.183 20.7783 19.183 20.0869C19.183 19.0381 18.9955 18.2236 18.6205 17.6436C18.2514 17.0635 17.683 16.7734 16.9154 16.7734ZM27.784 15.0859C28.9383 15.0859 29.8641 15.5078 30.5613 16.3516C31.2645 17.1953 31.616 18.4492 31.616 20.1133C31.616 21.2148 31.452 22.1436 31.1238 22.8994C30.8016 23.6494 30.3475 24.2178 29.7615 24.6045C29.1814 24.9854 28.5047 25.1758 27.7313 25.1758C27.2391 25.1758 26.8113 25.1113 26.448 24.9824C26.0848 24.8535 25.7742 24.6865 25.5164 24.4814C25.2586 24.2705 25.0418 24.042 24.866 23.7959H24.743C24.7723 24.0303 24.7986 24.291 24.8221 24.5781C24.8514 24.8594 24.866 25.1172 24.866 25.3516V29.3154H22.7918V15.2705H24.4793L24.7693 16.6152H24.866C25.0477 16.3398 25.2674 16.085 25.5252 15.8506C25.7889 15.6162 26.1053 15.4316 26.4744 15.2969C26.8494 15.1562 27.2859 15.0859 27.784 15.0859ZM27.2303 16.7734C26.6619 16.7734 26.2049 16.8877 25.8592 17.1162C25.5193 17.3389 25.2703 17.6758 25.1121 18.127C24.9598 18.5781 24.8777 19.1436 24.866 19.8232V20.1133C24.866 20.834 24.9393 21.4463 25.0857 21.9502C25.2381 22.4482 25.4871 22.8291 25.8328 23.0928C26.1844 23.3506 26.659 23.4795 27.2566 23.4795C27.7605 23.4795 28.1766 23.3418 28.5047 23.0664C28.8387 22.791 29.0877 22.3984 29.2518 21.8887C29.4158 21.3789 29.4979 20.7783 29.4979 20.0869C29.4979 19.0381 29.3104 18.2236 28.9354 17.6436C28.5662 17.0635 27.9979 16.7734 27.2303 16.7734ZM42.801 25H40.4016L37.1672 19.7354L33.9152 25H31.6564L35.9279 18.3379L31.9465 12.1504H34.2756L37.2639 17.0195L40.2346 12.1504H42.4934L38.4943 18.3994L42.801 25ZM47.3414 25.1758C46.4215 25.1758 45.6246 24.9971 44.9508 24.6396C44.277 24.2822 43.7584 23.7344 43.3951 22.9961C43.0318 22.2578 42.8502 21.3203 42.8502 20.1836C42.8502 19 43.0494 18.0332 43.4479 17.2832C43.8463 16.5332 44.3971 15.9795 45.1002 15.6221C45.8092 15.2646 46.6207 15.0859 47.5348 15.0859C48.1148 15.0859 48.6393 15.1445 49.108 15.2617C49.5826 15.373 49.984 15.5107 50.3121 15.6748L49.6969 17.3271C49.3395 17.1807 48.9732 17.0576 48.5982 16.958C48.2232 16.8584 47.8629 16.8086 47.5172 16.8086C46.9488 16.8086 46.4742 16.9346 46.0934 17.1865C45.7184 17.4385 45.4371 17.8135 45.2496 18.3115C45.068 18.8096 44.9771 19.4277 44.9771 20.166C44.9771 20.8809 45.0709 21.4844 45.2584 21.9766C45.4459 22.4629 45.7242 22.832 46.0934 23.084C46.4625 23.3301 46.9166 23.4531 47.4557 23.4531C47.9889 23.4531 48.4664 23.3887 48.8883 23.2598C49.3102 23.1309 49.7086 22.9639 50.0836 22.7588V24.5518C49.7145 24.7627 49.3189 24.918 48.8971 25.0176C48.4752 25.123 47.9566 25.1758 47.3414 25.1758ZM53.5342 11.3242V14.7607C53.5342 15.1182 53.5225 15.4668 53.499 15.8066C53.4814 16.1465 53.4609 16.4102 53.4375 16.5977H53.5518C53.7568 16.2578 54.0088 15.9795 54.3076 15.7627C54.6064 15.54 54.9404 15.373 55.3096 15.2617C55.6846 15.1504 56.083 15.0947 56.5049 15.0947C57.249 15.0947 57.8818 15.2207 58.4033 15.4727C58.9248 15.7188 59.3232 16.1025 59.5986 16.624C59.8799 17.1455 60.0205 17.8223 60.0205 18.6543V25H57.9551V19.041C57.9551 18.2852 57.7998 17.7197 57.4893 17.3447C57.1787 16.9639 56.6982 16.7734 56.0479 16.7734C55.4209 16.7734 54.9229 16.9053 54.5537 17.1689C54.1904 17.4268 53.9297 17.8105 53.7715 18.3203C53.6133 18.8242 53.5342 19.4395 53.5342 20.166V25H51.4688V11.3242H53.5342ZM65.8266 15.0859C67.057 15.0859 67.9857 15.3584 68.6127 15.9033C69.2455 16.4482 69.5619 17.2979 69.5619 18.4521V25H68.0941L67.6986 23.6201H67.6283C67.3529 23.9717 67.0687 24.2617 66.7758 24.4902C66.4828 24.7188 66.143 24.8887 65.7562 25C65.3754 25.1172 64.9096 25.1758 64.3588 25.1758C63.7787 25.1758 63.2602 25.0703 62.8031 24.8594C62.3461 24.6426 61.9857 24.3145 61.7221 23.875C61.4584 23.4355 61.3266 22.8789 61.3266 22.2051C61.3266 21.2031 61.6986 20.4502 62.4428 19.9463C63.1928 19.4424 64.3236 19.1641 65.8354 19.1113L67.5229 19.0498V18.54C67.5229 17.8662 67.3646 17.3857 67.0482 17.0986C66.7377 16.8115 66.2982 16.668 65.7299 16.668C65.2436 16.668 64.7719 16.7383 64.3148 16.8789C63.8578 17.0195 63.4125 17.1924 62.9789 17.3975L62.3109 15.9385C62.7855 15.6865 63.3246 15.4814 63.9281 15.3232C64.5375 15.165 65.1703 15.0859 65.8266 15.0859ZM67.5141 20.3506L66.2572 20.3945C65.226 20.4297 64.5023 20.6055 64.0863 20.9219C63.6703 21.2383 63.4623 21.6719 63.4623 22.2227C63.4623 22.7031 63.6059 23.0547 63.893 23.2773C64.1801 23.4941 64.558 23.6025 65.0268 23.6025C65.7416 23.6025 66.3334 23.4004 66.8021 22.9961C67.2768 22.5859 67.5141 21.9854 67.5141 21.1943V20.3506ZM76.6248 15.0859C77.7205 15.0859 78.573 15.3701 79.1824 15.9385C79.7977 16.501 80.1053 17.4062 80.1053 18.6543V25H78.0398V19.041C78.0398 18.2852 77.8846 17.7197 77.574 17.3447C77.2635 16.9639 76.783 16.7734 76.1326 16.7734C75.1893 16.7734 74.533 17.0635 74.1639 17.6436C73.8006 18.2236 73.6189 19.0645 73.6189 20.166V25H71.5535V15.2705H73.1619L73.452 16.5889H73.5662C73.7771 16.249 74.0379 15.9707 74.3484 15.7539C74.6648 15.5312 75.0164 15.3643 75.4031 15.2529C75.7957 15.1416 76.2029 15.0859 76.6248 15.0859ZM84.8742 29.3242C83.5559 29.3242 82.5451 29.0869 81.842 28.6123C81.1389 28.1377 80.7873 27.4727 80.7873 26.6172C80.7873 26.0195 80.9748 25.5127 81.3498 25.0967C81.7248 24.6865 82.2609 24.4023 82.9582 24.2441C82.6945 24.127 82.466 23.9453 82.2727 23.6992C82.0852 23.4473 81.9914 23.1689 81.9914 22.8643C81.9914 22.501 82.0939 22.1904 82.299 21.9326C82.5041 21.6748 82.8117 21.4258 83.2219 21.1855C82.7121 20.9688 82.302 20.6172 81.9914 20.1309C81.6867 19.6387 81.5344 19.0615 81.5344 18.3994C81.5344 17.6963 81.6838 17.0986 81.9826 16.6064C82.2814 16.1084 82.718 15.7305 83.2922 15.4727C83.8664 15.209 84.5607 15.0771 85.3752 15.0771C85.551 15.0771 85.7414 15.0889 85.9465 15.1123C86.1574 15.1299 86.3508 15.1533 86.5266 15.1826C86.7082 15.2061 86.8459 15.2324 86.9397 15.2617H90.3059V16.4131L88.6535 16.7207C88.8117 16.9434 88.9377 17.1982 89.0314 17.4854C89.1252 17.7666 89.1721 18.0742 89.1721 18.4082C89.1721 19.416 88.8234 20.21 88.1262 20.79C87.4348 21.3643 86.4797 21.6514 85.2609 21.6514C84.968 21.6396 84.6838 21.6162 84.4084 21.5811C84.1975 21.71 84.0363 21.8535 83.925 22.0117C83.8137 22.1641 83.758 22.3369 83.758 22.5303C83.758 22.6885 83.8137 22.8174 83.925 22.917C84.0363 23.0107 84.2004 23.0811 84.4172 23.1279C84.6398 23.1748 84.9094 23.1982 85.2258 23.1982H86.9045C87.9709 23.1982 88.7854 23.4238 89.3479 23.875C89.9104 24.3262 90.1916 24.9883 90.1916 25.8613C90.1916 26.9688 89.7346 27.8213 88.8205 28.4189C87.9064 29.0225 86.591 29.3242 84.8742 29.3242ZM84.9533 27.874C85.674 27.874 86.2805 27.8037 86.7727 27.6631C87.2648 27.5225 87.6369 27.3203 87.8889 27.0566C88.1408 26.7988 88.2668 26.4912 88.2668 26.1338C88.2668 25.8174 88.1877 25.5742 88.0295 25.4043C87.8713 25.2344 87.634 25.1172 87.3176 25.0527C87.0012 24.9883 86.6086 24.9561 86.1398 24.9561H84.6105C84.2297 24.9561 83.8928 25.0146 83.5998 25.1318C83.3068 25.2549 83.0783 25.4307 82.9143 25.6592C82.7561 25.8877 82.677 26.1631 82.677 26.4854C82.677 26.9307 82.8732 27.2734 83.2658 27.5137C83.6643 27.7539 84.2268 27.874 84.9533 27.874ZM85.3576 20.2979C85.9611 20.2979 86.4094 20.1338 86.7023 19.8057C86.9953 19.4717 87.1418 19.0029 87.1418 18.3994C87.1418 17.7432 86.9895 17.251 86.6848 16.9229C86.3859 16.5947 85.9406 16.4307 85.3488 16.4307C84.7688 16.4307 84.3264 16.5977 84.0217 16.9316C83.7229 17.2656 83.5734 17.7607 83.5734 18.417C83.5734 19.0088 83.7229 19.4717 84.0217 19.8057C84.3264 20.1338 84.7717 20.2979 85.3576 20.2979ZM95.0572 15.0859C95.9244 15.0859 96.6686 15.2646 97.2896 15.6221C97.9107 15.9795 98.3883 16.4863 98.7223 17.1426C99.0563 17.7988 99.2232 18.584 99.2232 19.498V20.6055H92.7281C92.7516 21.5488 93.0035 22.2754 93.484 22.7852C93.9703 23.2949 94.65 23.5498 95.523 23.5498C96.1441 23.5498 96.7008 23.4912 97.193 23.374C97.691 23.251 98.2037 23.0723 98.7311 22.8379V24.5166C98.2447 24.7451 97.7496 24.9121 97.2457 25.0176C96.7418 25.123 96.1383 25.1758 95.4352 25.1758C94.4801 25.1758 93.6393 24.9912 92.9127 24.6221C92.192 24.2471 91.6266 23.6904 91.2164 22.9521C90.8121 22.2139 90.61 21.2969 90.61 20.2012C90.61 19.1113 90.7945 18.1855 91.1637 17.4238C91.5328 16.6621 92.0514 16.082 92.7193 15.6836C93.3873 15.2852 94.1666 15.0859 95.0572 15.0859ZM95.0572 16.6416C94.4068 16.6416 93.8795 16.8525 93.4752 17.2744C93.0768 17.6963 92.8424 18.3145 92.7721 19.1289H97.2018C97.1959 18.6426 97.1139 18.2119 96.9557 17.8369C96.8033 17.4619 96.5689 17.1689 96.2525 16.958C95.942 16.7471 95.5436 16.6416 95.0572 16.6416Z" class="logo-text"/>
</svg>
