<svg width="40" height="30" viewBox="0 0 40 30" fill="none" xmlns="http://www.w3.org/2000/svg">
<path d="M3.65277 7.8974H2.0514V1.78668H0V0.476562H5.70418V1.78595H3.65277V7.89666V7.8974Z" class="logo-accent"/>
<path d="M8.56749 2.11597C8.647 2.11597 8.7385 2.12039 8.84426 2.1285C8.94927 2.13734 9.03478 2.14766 9.10003 2.16166L8.98152 3.61325C8.92977 3.59631 8.85626 3.58378 8.76175 3.57494C8.66725 3.56683 8.58549 3.56241 8.51648 3.56241C8.31322 3.56241 8.11596 3.5882 7.92469 3.63831C7.73343 3.68915 7.56241 3.77094 7.4109 3.88442C7.25939 3.99789 7.13938 4.14673 7.05163 4.33095C6.96387 4.51516 6.91962 4.74137 6.91962 5.00885V7.89657H5.34375V2.22281H6.53709L6.76961 3.17704H6.84686C6.96087 2.98398 7.10263 2.80714 7.27289 2.6465C7.44316 2.48587 7.63817 2.35692 7.85644 2.26039C8.07545 2.16387 8.31172 2.11523 8.56674 2.11523L8.56749 2.11597Z" class="logo-accent"/>
<path d="M10.2284 0C10.4624 0 10.6642 0.0530533 10.833 0.159897C11.0017 0.26674 11.0865 0.464954 11.0865 0.75601C11.0865 1.04707 11.0017 1.24233 10.833 1.35212C10.6642 1.46191 10.4624 1.51718 10.2284 1.51718C9.99439 1.51718 9.78812 1.46191 9.62161 1.35212C9.45435 1.24233 9.37109 1.04338 9.37109 0.75601C9.37109 0.468638 9.45435 0.266004 9.62161 0.159897C9.78887 0.0530533 9.99139 0 10.2284 0ZM11.0137 2.22308V7.89758H9.43785V2.22308H11.0137Z" class="logo-accent"/>
<path d="M18.7239 2.11621C19.378 2.11621 19.8738 2.28127 20.209 2.61138C20.5451 2.94148 20.7131 3.46981 20.7131 4.19782V7.89755H19.132V4.58319C19.132 4.17719 19.0615 3.87066 18.9204 3.66434C18.7794 3.45802 18.5604 3.35486 18.2641 3.35486C17.8471 3.35486 17.5508 3.50149 17.3753 3.79402C17.1998 4.08655 17.1121 4.50508 17.1121 5.05035V7.89755H15.5362V4.58319C15.5362 4.31277 15.5054 4.08582 15.4432 3.90308C15.3809 3.72034 15.2864 3.58328 15.1589 3.49191C15.0314 3.40054 14.8679 3.35486 14.6684 3.35486C14.3759 3.35486 14.1456 3.42707 13.9783 3.57076C13.8111 3.71444 13.6926 3.92592 13.6221 4.20519C13.5515 4.48445 13.5163 4.82488 13.5163 5.22794V7.89755H11.9404V2.22305H13.1443L13.3558 2.94885H13.4435C13.5605 2.75285 13.7076 2.59369 13.8853 2.47211C14.0623 2.35053 14.2581 2.26063 14.4719 2.20316C14.6856 2.14569 14.9024 2.11695 15.1229 2.11695C15.5467 2.11695 15.906 2.18474 16.2 2.32032C16.4948 2.4559 16.7213 2.66517 16.8795 2.94959H17.0191C17.1916 2.65853 17.4346 2.44706 17.7504 2.31516C18.0654 2.18326 18.3902 2.11695 18.7239 2.11695V2.11621Z" class="logo-accent"/>
<path d="M23.1845 0V1.83771C23.1845 2.05066 23.1785 2.26213 23.1665 2.47214C23.1545 2.68214 23.1395 2.84425 23.1222 2.9592H23.1845C23.336 2.72561 23.543 2.52666 23.8048 2.36308C24.0666 2.19877 24.4056 2.11698 24.8226 2.11698C25.4699 2.11698 25.9957 2.36603 26.3985 2.86341C26.8013 3.36078 27.003 4.09026 27.003 5.05112C27.003 5.69734 26.91 6.23966 26.724 6.67809C26.538 7.11651 26.2777 7.44662 25.9439 7.66768C25.6102 7.88947 25.2224 8 24.7814 8C24.3403 8 24.0238 7.92558 23.7793 7.77673C23.5348 7.62789 23.3368 7.46062 23.1852 7.2742H23.0765L22.8132 7.89831H21.6094V0H23.1852H23.1845ZM24.3156 3.35489C24.0403 3.35489 23.8213 3.41089 23.6593 3.52215C23.4973 3.63415 23.3795 3.80142 23.3053 4.02468C23.231 4.24795 23.1905 4.5309 23.1837 4.87206V5.03933C23.1837 5.59123 23.2662 6.01345 23.432 6.30598C23.597 6.59851 23.8985 6.74514 24.3358 6.74514C24.6599 6.74514 24.9171 6.59777 25.1084 6.30377C25.2997 6.00903 25.3949 5.5846 25.3949 5.02975C25.3949 4.4749 25.2981 4.05711 25.1054 3.77563C24.9126 3.49489 24.6486 3.35415 24.3148 3.35415L24.3156 3.35489Z" class="logo-accent"/>
<path d="M29.2272 7.89758H27.6514V0H29.2272V7.89758Z" class="logo-accent"/>
<path d="M32.5881 2.11621C33.1222 2.11621 33.582 2.21716 33.9675 2.41832C34.353 2.61948 34.6508 2.91127 34.8616 3.2937C35.0716 3.67613 35.1766 4.14329 35.1766 4.69446V5.44531H31.4518C31.4691 5.88226 31.6026 6.22416 31.8523 6.47322C32.1021 6.72153 32.4494 6.84606 32.8934 6.84606C33.2617 6.84606 33.5992 6.80922 33.906 6.7348C34.2128 6.66038 34.5278 6.54837 34.8518 6.39953V7.59765C34.566 7.73618 34.2668 7.83786 33.9555 7.90197C33.6435 7.96608 33.2654 7.9985 32.8214 7.9985C32.2431 7.9985 31.7301 7.89387 31.2845 7.68386C30.8383 7.47386 30.4887 7.15407 30.236 6.72448C29.9825 6.2949 29.8564 5.75331 29.8564 5.10046C29.8564 4.44761 29.9712 3.88466 30.2 3.44328C30.4287 3.00191 30.7483 2.67032 31.1585 2.44853C31.5681 2.22674 32.0451 2.11621 32.5896 2.11621H32.5881ZM32.5986 3.2178C32.2919 3.2178 32.0384 3.31433 31.8366 3.50739C31.6348 3.69971 31.5186 4.00329 31.4878 4.41593H33.699C33.6952 4.18603 33.6532 3.98118 33.5722 3.80139C33.4912 3.62234 33.3705 3.48012 33.2107 3.37475C33.0502 3.27012 32.8462 3.2178 32.5986 3.2178Z" class="logo-accent"/>
<path d="M35.5782 7.23467C35.5737 6.85298 35.8849 6.53982 36.2735 6.53613C36.2787 6.53613 36.284 6.53613 36.2892 6.53613C36.6823 6.53613 37.0003 6.8493 37.0003 7.23467C37.0003 7.62078 36.6815 7.9332 36.2892 7.9332C35.8962 7.9332 35.5782 7.62004 35.5782 7.23467ZM36.8713 7.23467C36.8653 6.91782 36.5997 6.66508 36.2772 6.67098C35.9547 6.67687 35.6974 6.93772 35.7034 7.25456C35.7087 7.56846 35.9705 7.81973 36.29 7.81825C36.611 7.81825 36.872 7.56257 36.872 7.24646C36.872 7.24204 36.872 7.23835 36.872 7.23393L36.8713 7.23467ZM36.0132 6.83677H36.3042C36.488 6.83677 36.5952 6.91487 36.5952 7.07109C36.6042 7.16983 36.5405 7.2612 36.443 7.28772L36.611 7.60162H36.4482L36.2915 7.30909H36.1685V7.60162H36.0125V6.83677H36.0132ZM36.2952 7.19193C36.3905 7.19193 36.443 7.16172 36.443 7.07993C36.443 6.99814 36.3905 6.96793 36.2915 6.96793H36.1685V7.19119H36.2945L36.2952 7.19193Z" class="logo-accent"/>
<path d="M9.65039 25L8.39355 21.4316H3.48047L2.22363 25H0L4.78125 12.0977H7.11914L11.8916 25H9.65039ZM7.84863 19.6211L6.62695 16.1055C6.58008 15.9531 6.5127 15.7393 6.4248 15.4639C6.33691 15.1826 6.24902 14.8984 6.16113 14.6113C6.07324 14.3184 6 14.0723 5.94141 13.873C5.88281 14.1133 5.80957 14.3828 5.72168 14.6816C5.63965 14.9746 5.55762 15.25 5.47559 15.5078C5.39941 15.7656 5.34082 15.9648 5.2998 16.1055L4.06934 19.6211H7.84863ZM16.098 23.5059C16.3676 23.5059 16.6342 23.4824 16.8979 23.4355C17.1615 23.3828 17.4018 23.3213 17.6186 23.251V24.8154C17.39 24.915 17.0941 25 16.7309 25.0703C16.3676 25.1406 15.9896 25.1758 15.5971 25.1758C15.0463 25.1758 14.5512 25.085 14.1117 24.9033C13.6723 24.7158 13.3236 24.3965 13.0658 23.9453C12.808 23.4941 12.6791 22.8701 12.6791 22.0732V16.8438H11.352V15.9209L12.7758 15.1914L13.4525 13.1084H14.7533V15.2705H17.5395V16.8438H14.7533V22.0469C14.7533 22.5391 14.8764 22.9053 15.1225 23.1455C15.3686 23.3857 15.6938 23.5059 16.098 23.5059ZM20.7703 25H18.6961V11.3242H20.7703V25ZM26.6379 15.0859C27.8684 15.0859 28.7971 15.3584 29.424 15.9033C30.0568 16.4482 30.3732 17.2979 30.3732 18.4521V25H28.9055L28.51 23.6201H28.4396C28.1643 23.9717 27.8801 24.2617 27.5871 24.4902C27.2941 24.7188 26.9543 24.8887 26.5676 25C26.1867 25.1172 25.7209 25.1758 25.1701 25.1758C24.59 25.1758 24.0715 25.0703 23.6145 24.8594C23.1574 24.6426 22.7971 24.3145 22.5334 23.875C22.2697 23.4355 22.1379 22.8789 22.1379 22.2051C22.1379 21.2031 22.51 20.4502 23.2541 19.9463C24.0041 19.4424 25.135 19.1641 26.6467 19.1113L28.3342 19.0498V18.54C28.3342 17.8662 28.176 17.3857 27.8596 17.0986C27.549 16.8115 27.1096 16.668 26.5412 16.668C26.0549 16.668 25.5832 16.7383 25.1262 16.8789C24.6691 17.0195 24.2238 17.1924 23.7902 17.3975L23.1223 15.9385C23.5969 15.6865 24.1359 15.4814 24.7395 15.3232C25.3488 15.165 25.9816 15.0859 26.6379 15.0859ZM28.3254 20.3506L27.0686 20.3945C26.0373 20.4297 25.3137 20.6055 24.8977 20.9219C24.4816 21.2383 24.2736 21.6719 24.2736 22.2227C24.2736 22.7031 24.4172 23.0547 24.7043 23.2773C24.9914 23.4941 25.3693 23.6025 25.8381 23.6025C26.5529 23.6025 27.1447 23.4004 27.6135 22.9961C28.0881 22.5859 28.3254 21.9854 28.3254 21.1943V20.3506ZM38.9039 22.2227C38.9039 22.8613 38.7486 23.4004 38.4381 23.8398C38.1275 24.2793 37.6734 24.6133 37.0758 24.8418C36.484 25.0645 35.7574 25.1758 34.8961 25.1758C34.2164 25.1758 33.6305 25.126 33.1383 25.0264C32.652 24.9326 32.192 24.7861 31.7584 24.5869V22.8027C32.2213 23.0195 32.7398 23.207 33.3141 23.3652C33.8941 23.5234 34.442 23.6025 34.9576 23.6025C35.6373 23.6025 36.1266 23.4971 36.4254 23.2861C36.7242 23.0693 36.8736 22.7822 36.8736 22.4248C36.8736 22.2139 36.8121 22.0264 36.6891 21.8623C36.5719 21.6924 36.3492 21.5195 36.0211 21.3438C35.6988 21.1621 35.2242 20.9453 34.5973 20.6934C33.982 20.4473 33.4635 20.2012 33.0416 19.9551C32.6197 19.709 32.3004 19.4131 32.0836 19.0674C31.8668 18.7158 31.7584 18.2676 31.7584 17.7227C31.7584 16.8613 32.0982 16.208 32.7779 15.7627C33.4635 15.3115 34.3687 15.0859 35.4937 15.0859C36.0914 15.0859 36.6539 15.1475 37.1812 15.2705C37.7145 15.3877 38.2359 15.5605 38.7457 15.7891L38.0953 17.3447C37.6559 17.1514 37.2135 16.9932 36.7682 16.8701C36.3287 16.7412 35.8805 16.6768 35.4234 16.6768C34.8902 16.6768 34.483 16.7588 34.2018 16.9229C33.9264 17.0869 33.7887 17.3213 33.7887 17.626C33.7887 17.8545 33.8561 18.0479 33.9908 18.2061C34.1256 18.3643 34.357 18.5225 34.6852 18.6807C35.0191 18.8389 35.482 19.0352 36.0738 19.2695C36.6539 19.4922 37.1549 19.7266 37.5768 19.9727C38.0045 20.2129 38.3326 20.5088 38.5611 20.8604C38.7896 21.2119 38.9039 21.666 38.9039 22.2227Z" class="logo-text"/>
</svg>
