<svg width="38" height="30" viewBox="0 0 38 30" fill="none" xmlns="http://www.w3.org/2000/svg">
<path d="M3.65277 7.8974H2.0514V1.78668H0V0.476562H5.70418V1.78595H3.65277V7.89666V7.8974Z" class="logo-accent"/>
<path d="M8.56749 2.11597C8.647 2.11597 8.7385 2.12039 8.84426 2.1285C8.94927 2.13734 9.03478 2.14766 9.10003 2.16166L8.98152 3.61325C8.92977 3.59631 8.85626 3.58378 8.76175 3.57494C8.66725 3.56683 8.58549 3.56241 8.51648 3.56241C8.31322 3.56241 8.11596 3.5882 7.92469 3.63831C7.73343 3.68915 7.56241 3.77094 7.4109 3.88442C7.25939 3.99789 7.13938 4.14673 7.05163 4.33095C6.96387 4.51516 6.91962 4.74137 6.91962 5.00885V7.89657H5.34375V2.22281H6.53709L6.76961 3.17704H6.84686C6.96087 2.98398 7.10263 2.80714 7.27289 2.6465C7.44316 2.48587 7.63817 2.35692 7.85644 2.26039C8.07545 2.16387 8.31172 2.11523 8.56674 2.11523L8.56749 2.11597Z" class="logo-accent"/>
<path d="M10.2284 0C10.4624 0 10.6642 0.0530533 10.833 0.159897C11.0017 0.26674 11.0865 0.464954 11.0865 0.75601C11.0865 1.04707 11.0017 1.24233 10.833 1.35212C10.6642 1.46191 10.4624 1.51718 10.2284 1.51718C9.99439 1.51718 9.78812 1.46191 9.62161 1.35212C9.45435 1.24233 9.37109 1.04338 9.37109 0.75601C9.37109 0.468638 9.45435 0.266004 9.62161 0.159897C9.78887 0.0530533 9.99139 0 10.2284 0ZM11.0137 2.22308V7.89758H9.43785V2.22308H11.0137Z" class="logo-accent"/>
<path d="M18.7239 2.11621C19.378 2.11621 19.8738 2.28127 20.209 2.61138C20.5451 2.94148 20.7131 3.46981 20.7131 4.19782V7.89755H19.132V4.58319C19.132 4.17719 19.0615 3.87066 18.9204 3.66434C18.7794 3.45802 18.5604 3.35486 18.2641 3.35486C17.8471 3.35486 17.5508 3.50149 17.3753 3.79402C17.1998 4.08655 17.1121 4.50508 17.1121 5.05035V7.89755H15.5362V4.58319C15.5362 4.31277 15.5054 4.08582 15.4432 3.90308C15.3809 3.72034 15.2864 3.58328 15.1589 3.49191C15.0314 3.40054 14.8679 3.35486 14.6684 3.35486C14.3759 3.35486 14.1456 3.42707 13.9783 3.57076C13.8111 3.71444 13.6926 3.92592 13.6221 4.20519C13.5515 4.48445 13.5163 4.82488 13.5163 5.22794V7.89755H11.9404V2.22305H13.1443L13.3558 2.94885H13.4435C13.5605 2.75285 13.7076 2.59369 13.8853 2.47211C14.0623 2.35053 14.2581 2.26063 14.4719 2.20316C14.6856 2.14569 14.9024 2.11695 15.1229 2.11695C15.5467 2.11695 15.906 2.18474 16.2 2.32032C16.4948 2.4559 16.7213 2.66517 16.8795 2.94959H17.0191C17.1916 2.65853 17.4346 2.44706 17.7504 2.31516C18.0654 2.18326 18.3902 2.11695 18.7239 2.11695V2.11621Z" class="logo-accent"/>
<path d="M23.1845 0V1.83771C23.1845 2.05066 23.1785 2.26213 23.1665 2.47214C23.1545 2.68214 23.1395 2.84425 23.1222 2.9592H23.1845C23.336 2.72561 23.543 2.52666 23.8048 2.36308C24.0666 2.19877 24.4056 2.11698 24.8226 2.11698C25.4699 2.11698 25.9957 2.36603 26.3985 2.86341C26.8013 3.36078 27.003 4.09026 27.003 5.05112C27.003 5.69734 26.91 6.23966 26.724 6.67809C26.538 7.11651 26.2777 7.44662 25.9439 7.66768C25.6102 7.88947 25.2224 8 24.7814 8C24.3403 8 24.0238 7.92558 23.7793 7.77673C23.5348 7.62789 23.3368 7.46062 23.1852 7.2742H23.0765L22.8132 7.89831H21.6094V0H23.1852H23.1845ZM24.3156 3.35489C24.0403 3.35489 23.8213 3.41089 23.6593 3.52215C23.4973 3.63415 23.3795 3.80142 23.3053 4.02468C23.231 4.24795 23.1905 4.5309 23.1837 4.87206V5.03933C23.1837 5.59123 23.2662 6.01345 23.432 6.30598C23.597 6.59851 23.8985 6.74514 24.3358 6.74514C24.6599 6.74514 24.9171 6.59777 25.1084 6.30377C25.2997 6.00903 25.3949 5.5846 25.3949 5.02975C25.3949 4.4749 25.2981 4.05711 25.1054 3.77563C24.9126 3.49489 24.6486 3.35415 24.3148 3.35415L24.3156 3.35489Z" class="logo-accent"/>
<path d="M29.2272 7.89758H27.6514V0H29.2272V7.89758Z" class="logo-accent"/>
<path d="M32.5881 2.11621C33.1222 2.11621 33.582 2.21716 33.9675 2.41832C34.353 2.61948 34.6508 2.91127 34.8616 3.2937C35.0716 3.67613 35.1766 4.14329 35.1766 4.69446V5.44531H31.4518C31.4691 5.88226 31.6026 6.22416 31.8523 6.47322C32.1021 6.72153 32.4494 6.84606 32.8934 6.84606C33.2617 6.84606 33.5992 6.80922 33.906 6.7348C34.2128 6.66038 34.5278 6.54837 34.8518 6.39953V7.59765C34.566 7.73618 34.2668 7.83786 33.9555 7.90197C33.6435 7.96608 33.2654 7.9985 32.8214 7.9985C32.2431 7.9985 31.7301 7.89387 31.2845 7.68386C30.8383 7.47386 30.4887 7.15407 30.236 6.72448C29.9825 6.2949 29.8564 5.75331 29.8564 5.10046C29.8564 4.44761 29.9712 3.88466 30.2 3.44328C30.4287 3.00191 30.7483 2.67032 31.1585 2.44853C31.5681 2.22674 32.0451 2.11621 32.5896 2.11621H32.5881ZM32.5986 3.2178C32.2919 3.2178 32.0384 3.31433 31.8366 3.50739C31.6348 3.69971 31.5186 4.00329 31.4878 4.41593H33.699C33.6952 4.18603 33.6532 3.98118 33.5722 3.80139C33.4912 3.62234 33.3705 3.48012 33.2107 3.37475C33.0502 3.27012 32.8462 3.2178 32.5986 3.2178Z" class="logo-accent"/>
<path d="M35.5782 7.23467C35.5737 6.85298 35.8849 6.53982 36.2735 6.53613C36.2787 6.53613 36.284 6.53613 36.2892 6.53613C36.6823 6.53613 37.0003 6.8493 37.0003 7.23467C37.0003 7.62078 36.6815 7.9332 36.2892 7.9332C35.8962 7.9332 35.5782 7.62004 35.5782 7.23467ZM36.8713 7.23467C36.8653 6.91782 36.5997 6.66508 36.2772 6.67098C35.9547 6.67687 35.6974 6.93772 35.7034 7.25456C35.7087 7.56846 35.9705 7.81973 36.29 7.81825C36.611 7.81825 36.872 7.56257 36.872 7.24646C36.872 7.24204 36.872 7.23835 36.872 7.23393L36.8713 7.23467ZM36.0132 6.83677H36.3042C36.488 6.83677 36.5952 6.91487 36.5952 7.07109C36.6042 7.16983 36.5405 7.2612 36.443 7.28772L36.611 7.60162H36.4482L36.2915 7.30909H36.1685V7.60162H36.0125V6.83677H36.0132ZM36.2952 7.19193C36.3905 7.19193 36.443 7.16172 36.443 7.07993C36.443 6.99814 36.3905 6.96793 36.2915 6.96793H36.1685V7.19119H36.2945L36.2952 7.19193Z" class="logo-accent"/>
<path d="M1.6875 12.1504H5.51074C7.16895 12.1504 8.41992 12.3906 9.26367 12.8711C10.1074 13.3516 10.5293 14.1807 10.5293 15.3584C10.5293 15.8506 10.4414 16.2959 10.2656 16.6943C10.0957 17.0869 9.84668 17.4121 9.51855 17.6699C9.19043 17.9219 8.78613 18.0918 8.30566 18.1797V18.2676C8.80371 18.3555 9.24609 18.5107 9.63281 18.7334C10.0254 18.9561 10.333 19.2754 10.5557 19.6914C10.7842 20.1074 10.8984 20.6465 10.8984 21.3086C10.8984 22.0938 10.7109 22.7617 10.3359 23.3125C9.9668 23.8633 9.43652 24.2822 8.74512 24.5693C8.05957 24.8564 7.24512 25 6.30176 25H1.6875V12.1504ZM3.79688 17.4502H5.81836C6.77344 17.4502 7.43555 17.2949 7.80469 16.9844C8.17383 16.6738 8.3584 16.2197 8.3584 15.6221C8.3584 15.0127 8.13867 14.5732 7.69922 14.3037C7.26562 14.0342 6.57422 13.8994 5.625 13.8994H3.79688V17.4502ZM3.79688 19.1553V23.2334H6.02051C7.00488 23.2334 7.69629 23.043 8.09473 22.6621C8.49316 22.2812 8.69238 21.7656 8.69238 21.1152C8.69238 20.7168 8.60156 20.3711 8.41992 20.0781C8.24414 19.7852 7.9541 19.5596 7.5498 19.4014C7.14551 19.2373 6.60059 19.1553 5.91504 19.1553H3.79688ZM20.475 25H11.7738V23.4443L15.1049 20.0693C15.7494 19.4131 16.2797 18.8477 16.6957 18.373C17.1117 17.8926 17.4193 17.4385 17.6186 17.0107C17.8236 16.583 17.9262 16.1172 17.9262 15.6133C17.9262 14.9922 17.7475 14.5234 17.39 14.207C17.0326 13.8848 16.5609 13.7236 15.975 13.7236C15.4184 13.7236 14.9027 13.835 14.4281 14.0576C13.9594 14.2744 13.473 14.585 12.9691 14.9893L11.8354 13.627C12.1928 13.3223 12.5736 13.0439 12.9779 12.792C13.3881 12.54 13.8451 12.3408 14.349 12.1943C14.8529 12.042 15.4271 11.9658 16.0717 11.9658C16.8861 11.9658 17.5893 12.1123 18.1811 12.4053C18.7729 12.6924 19.227 13.0938 19.5434 13.6094C19.8656 14.125 20.0268 14.7256 20.0268 15.4111C20.0268 16.1025 19.8891 16.7412 19.6137 17.3271C19.3383 17.9131 18.9457 18.4932 18.4359 19.0674C17.9262 19.6357 17.3197 20.2539 16.6166 20.9219L14.393 23.0928V23.1895H20.475V25ZM37.2498 12.1504L33.8924 25H31.5896L29.4451 17.3008C29.3924 17.1133 29.3338 16.8906 29.2693 16.6328C29.2049 16.375 29.1404 16.1113 29.076 15.8418C29.0174 15.5723 28.9646 15.3262 28.9178 15.1035C28.8768 14.875 28.8475 14.6992 28.8299 14.5762C28.8182 14.6992 28.7918 14.8721 28.7508 15.0947C28.7098 15.3174 28.66 15.5635 28.6014 15.833C28.5486 16.0967 28.49 16.3604 28.4256 16.624C28.3611 16.8818 28.3025 17.1104 28.2498 17.3096L26.1404 25H23.8465L20.4979 12.1504H22.616L24.4705 19.6826C24.5291 19.9229 24.5877 20.1836 24.6463 20.4648C24.7107 20.7402 24.7693 21.0186 24.8221 21.2998C24.8807 21.5811 24.9334 21.8564 24.9803 22.126C25.0271 22.3896 25.0652 22.6299 25.0945 22.8467C25.1238 22.624 25.1619 22.3779 25.2088 22.1084C25.2557 21.833 25.3055 21.5547 25.3582 21.2734C25.4168 20.9863 25.4754 20.7109 25.534 20.4473C25.5984 20.1836 25.6629 19.9463 25.7273 19.7354L27.8191 12.1504H29.8758L32.0115 19.7617C32.076 19.9785 32.1375 20.2217 32.1961 20.4912C32.2605 20.7607 32.3221 21.0361 32.3807 21.3174C32.4393 21.5986 32.492 21.8711 32.5389 22.1348C32.5857 22.3984 32.6238 22.6357 32.6531 22.8467C32.6941 22.5596 32.7469 22.2314 32.8113 21.8623C32.8758 21.4932 32.949 21.1182 33.0311 20.7373C33.1131 20.3564 33.1951 20.0049 33.2771 19.6826L35.1229 12.1504H37.2498Z" class="logo-text"/>
</svg>
