<svg width="142" height="30" viewBox="0 0 142 30" fill="none" xmlns="http://www.w3.org/2000/svg">
<path d="M3.65277 7.8974H2.0514V1.78668H0V0.476562H5.70418V1.78595H3.65277V7.89666V7.8974Z" class="logo-accent"/>
<path d="M8.56749 2.11597C8.647 2.11597 8.7385 2.12039 8.84426 2.1285C8.94927 2.13734 9.03478 2.14766 9.10003 2.16166L8.98152 3.61325C8.92977 3.59631 8.85626 3.58378 8.76175 3.57494C8.66725 3.56683 8.58549 3.56241 8.51648 3.56241C8.31322 3.56241 8.11596 3.5882 7.92469 3.63831C7.73343 3.68915 7.56241 3.77094 7.4109 3.88442C7.25939 3.99789 7.13938 4.14673 7.05163 4.33095C6.96387 4.51516 6.91962 4.74137 6.91962 5.00885V7.89657H5.34375V2.22281H6.53709L6.76961 3.17704H6.84686C6.96087 2.98398 7.10263 2.80714 7.27289 2.6465C7.44316 2.48587 7.63817 2.35692 7.85644 2.26039C8.07545 2.16387 8.31172 2.11523 8.56674 2.11523L8.56749 2.11597Z" class="logo-accent"/>
<path d="M10.2284 0C10.4624 0 10.6642 0.0530533 10.833 0.159897C11.0017 0.26674 11.0865 0.464954 11.0865 0.75601C11.0865 1.04707 11.0017 1.24233 10.833 1.35212C10.6642 1.46191 10.4624 1.51718 10.2284 1.51718C9.99439 1.51718 9.78812 1.46191 9.62161 1.35212C9.45435 1.24233 9.37109 1.04338 9.37109 0.75601C9.37109 0.468638 9.45435 0.266004 9.62161 0.159897C9.78887 0.0530533 9.99139 0 10.2284 0ZM11.0137 2.22308V7.89758H9.43785V2.22308H11.0137Z" class="logo-accent"/>
<path d="M18.7239 2.11621C19.378 2.11621 19.8738 2.28127 20.209 2.61138C20.5451 2.94148 20.7131 3.46981 20.7131 4.19782V7.89755H19.132V4.58319C19.132 4.17719 19.0615 3.87066 18.9204 3.66434C18.7794 3.45802 18.5604 3.35486 18.2641 3.35486C17.8471 3.35486 17.5508 3.50149 17.3753 3.79402C17.1998 4.08655 17.1121 4.50508 17.1121 5.05035V7.89755H15.5362V4.58319C15.5362 4.31277 15.5054 4.08582 15.4432 3.90308C15.3809 3.72034 15.2864 3.58328 15.1589 3.49191C15.0314 3.40054 14.8679 3.35486 14.6684 3.35486C14.3759 3.35486 14.1456 3.42707 13.9783 3.57076C13.8111 3.71444 13.6926 3.92592 13.6221 4.20519C13.5515 4.48445 13.5163 4.82488 13.5163 5.22794V7.89755H11.9404V2.22305H13.1443L13.3558 2.94885H13.4435C13.5605 2.75285 13.7076 2.59369 13.8853 2.47211C14.0623 2.35053 14.2581 2.26063 14.4719 2.20316C14.6856 2.14569 14.9024 2.11695 15.1229 2.11695C15.5467 2.11695 15.906 2.18474 16.2 2.32032C16.4948 2.4559 16.7213 2.66517 16.8795 2.94959H17.0191C17.1916 2.65853 17.4346 2.44706 17.7504 2.31516C18.0654 2.18326 18.3902 2.11695 18.7239 2.11695V2.11621Z" class="logo-accent"/>
<path d="M23.1845 0V1.83771C23.1845 2.05066 23.1785 2.26213 23.1665 2.47214C23.1545 2.68214 23.1395 2.84425 23.1222 2.9592H23.1845C23.336 2.72561 23.543 2.52666 23.8048 2.36308C24.0666 2.19877 24.4056 2.11698 24.8226 2.11698C25.4699 2.11698 25.9957 2.36603 26.3985 2.86341C26.8013 3.36078 27.003 4.09026 27.003 5.05112C27.003 5.69734 26.91 6.23966 26.724 6.67809C26.538 7.11651 26.2777 7.44662 25.9439 7.66768C25.6102 7.88947 25.2224 8 24.7814 8C24.3403 8 24.0238 7.92558 23.7793 7.77673C23.5348 7.62789 23.3368 7.46062 23.1852 7.2742H23.0765L22.8132 7.89831H21.6094V0H23.1852H23.1845ZM24.3156 3.35489C24.0403 3.35489 23.8213 3.41089 23.6593 3.52215C23.4973 3.63415 23.3795 3.80142 23.3053 4.02468C23.231 4.24795 23.1905 4.5309 23.1837 4.87206V5.03933C23.1837 5.59123 23.2662 6.01345 23.432 6.30598C23.597 6.59851 23.8985 6.74514 24.3358 6.74514C24.6599 6.74514 24.9171 6.59777 25.1084 6.30377C25.2997 6.00903 25.3949 5.5846 25.3949 5.02975C25.3949 4.4749 25.2981 4.05711 25.1054 3.77563C24.9126 3.49489 24.6486 3.35415 24.3148 3.35415L24.3156 3.35489Z" class="logo-accent"/>
<path d="M29.2272 7.89758H27.6514V0H29.2272V7.89758Z" class="logo-accent"/>
<path d="M32.5881 2.11621C33.1222 2.11621 33.582 2.21716 33.9675 2.41832C34.353 2.61948 34.6508 2.91127 34.8616 3.2937C35.0716 3.67613 35.1766 4.14329 35.1766 4.69446V5.44531H31.4518C31.4691 5.88226 31.6026 6.22416 31.8523 6.47322C32.1021 6.72153 32.4494 6.84606 32.8934 6.84606C33.2617 6.84606 33.5992 6.80922 33.906 6.7348C34.2128 6.66038 34.5278 6.54837 34.8518 6.39953V7.59765C34.566 7.73618 34.2668 7.83786 33.9555 7.90197C33.6435 7.96608 33.2654 7.9985 32.8214 7.9985C32.2431 7.9985 31.7301 7.89387 31.2845 7.68386C30.8383 7.47386 30.4887 7.15407 30.236 6.72448C29.9825 6.2949 29.8564 5.75331 29.8564 5.10046C29.8564 4.44761 29.9712 3.88466 30.2 3.44328C30.4287 3.00191 30.7483 2.67032 31.1585 2.44853C31.5681 2.22674 32.0451 2.11621 32.5896 2.11621H32.5881ZM32.5986 3.2178C32.2919 3.2178 32.0384 3.31433 31.8366 3.50739C31.6348 3.69971 31.5186 4.00329 31.4878 4.41593H33.699C33.6952 4.18603 33.6532 3.98118 33.5722 3.80139C33.4912 3.62234 33.3705 3.48012 33.2107 3.37475C33.0502 3.27012 32.8462 3.2178 32.5986 3.2178Z" class="logo-accent"/>
<path d="M35.5782 7.23467C35.5737 6.85298 35.8849 6.53982 36.2735 6.53613C36.2787 6.53613 36.284 6.53613 36.2892 6.53613C36.6823 6.53613 37.0003 6.8493 37.0003 7.23467C37.0003 7.62078 36.6815 7.9332 36.2892 7.9332C35.8962 7.9332 35.5782 7.62004 35.5782 7.23467ZM36.8713 7.23467C36.8653 6.91782 36.5997 6.66508 36.2772 6.67098C35.9547 6.67687 35.6974 6.93772 35.7034 7.25456C35.7087 7.56846 35.9705 7.81973 36.29 7.81825C36.611 7.81825 36.872 7.56257 36.872 7.24646C36.872 7.24204 36.872 7.23835 36.872 7.23393L36.8713 7.23467ZM36.0132 6.83677H36.3042C36.488 6.83677 36.5952 6.91487 36.5952 7.07109C36.6042 7.16983 36.5405 7.2612 36.443 7.28772L36.611 7.60162H36.4482L36.2915 7.30909H36.1685V7.60162H36.0125V6.83677H36.0132ZM36.2952 7.19193C36.3905 7.19193 36.443 7.16172 36.443 7.07993C36.443 6.99814 36.3905 6.96793 36.2915 6.96793H36.1685V7.19119H36.2945L36.2952 7.19193Z" class="logo-accent"/>
<path d="M1.6875 12.1504H5.51074C7.16895 12.1504 8.41992 12.3906 9.26367 12.8711C10.1074 13.3516 10.5293 14.1807 10.5293 15.3584C10.5293 15.8506 10.4414 16.2959 10.2656 16.6943C10.0957 17.0869 9.84668 17.4121 9.51855 17.6699C9.19043 17.9219 8.78613 18.0918 8.30566 18.1797V18.2676C8.80371 18.3555 9.24609 18.5107 9.63281 18.7334C10.0254 18.9561 10.333 19.2754 10.5557 19.6914C10.7842 20.1074 10.8984 20.6465 10.8984 21.3086C10.8984 22.0938 10.7109 22.7617 10.3359 23.3125C9.9668 23.8633 9.43652 24.2822 8.74512 24.5693C8.05957 24.8564 7.24512 25 6.30176 25H1.6875V12.1504ZM3.79688 17.4502H5.81836C6.77344 17.4502 7.43555 17.2949 7.80469 16.9844C8.17383 16.6738 8.3584 16.2197 8.3584 15.6221C8.3584 15.0127 8.13867 14.5732 7.69922 14.3037C7.26562 14.0342 6.57422 13.8994 5.625 13.8994H3.79688V17.4502ZM3.79688 19.1553V23.2334H6.02051C7.00488 23.2334 7.69629 23.043 8.09473 22.6621C8.49316 22.2812 8.69238 21.7656 8.69238 21.1152C8.69238 20.7168 8.60156 20.3711 8.41992 20.0781C8.24414 19.7852 7.9541 19.5596 7.5498 19.4014C7.14551 19.2373 6.60059 19.1553 5.91504 19.1553H3.79688ZM20.9232 15.2705V25H19.2973L19.016 23.6904H18.9018C18.6967 24.0244 18.4359 24.3027 18.1195 24.5254C17.8031 24.7422 17.4516 24.9033 17.0648 25.0088C16.6781 25.1201 16.2709 25.1758 15.8432 25.1758C15.1107 25.1758 14.4838 25.0527 13.9623 24.8066C13.4467 24.5547 13.0512 24.168 12.7758 23.6465C12.5004 23.125 12.3627 22.4512 12.3627 21.625V15.2705H14.4369V21.2383C14.4369 21.9941 14.5893 22.5596 14.8939 22.9346C15.2045 23.3096 15.685 23.4971 16.3354 23.4971C16.9623 23.4971 17.4604 23.3682 17.8295 23.1104C18.1986 22.8525 18.4594 22.4717 18.6117 21.9678C18.7699 21.4639 18.849 20.8457 18.849 20.1133V15.2705H20.9232ZM25.0506 15.2705V25H22.9852V15.2705H25.0506ZM24.0311 11.5439C24.3475 11.5439 24.6199 11.6289 24.8484 11.7988C25.0828 11.9688 25.2 12.2617 25.2 12.6777C25.2 13.0879 25.0828 13.3809 24.8484 13.5566C24.6199 13.7266 24.3475 13.8115 24.0311 13.8115C23.7029 13.8115 23.4246 13.7266 23.1961 13.5566C22.9734 13.3809 22.8621 13.0879 22.8621 12.6777C22.8621 12.2617 22.9734 11.9688 23.1961 11.7988C23.4246 11.6289 23.7029 11.5439 24.0311 11.5439ZM29.1867 25H27.1125V11.3242H29.1867V25ZM34.5094 25.1758C33.3492 25.1758 32.4176 24.7539 31.7145 23.9102C31.0172 23.0605 30.6686 21.8096 30.6686 20.1572C30.6686 18.4873 31.023 17.2246 31.732 16.3691C32.4469 15.5137 33.3873 15.0859 34.5533 15.0859C35.0455 15.0859 35.4762 15.1533 35.8453 15.2881C36.2145 15.417 36.5309 15.5928 36.7945 15.8154C37.0641 16.0381 37.2926 16.2871 37.4801 16.5625H37.5768C37.5475 16.3809 37.5123 16.1201 37.4713 15.7803C37.4361 15.4346 37.4186 15.1152 37.4186 14.8223V11.3242H39.4928V25H37.8756L37.5064 23.6729H37.4186C37.2428 23.9541 37.0201 24.209 36.7506 24.4375C36.4869 24.6602 36.1705 24.8389 35.8014 24.9736C35.4381 25.1084 35.0074 25.1758 34.5094 25.1758ZM35.0895 23.4971C35.9742 23.4971 36.5982 23.2422 36.9615 22.7324C37.3248 22.2227 37.5123 21.458 37.524 20.4385V20.166C37.524 19.0762 37.3482 18.2412 36.9967 17.6611C36.6451 17.0752 36.0035 16.7822 35.0719 16.7822C34.3277 16.7822 33.7594 17.084 33.3668 17.6875C32.9801 18.2852 32.7867 19.1201 32.7867 20.1924C32.7867 21.2646 32.9801 22.085 33.3668 22.6533C33.7594 23.2158 34.3336 23.4971 35.0895 23.4971ZM45.3691 15.0859C46.5996 15.0859 47.5283 15.3584 48.1553 15.9033C48.7881 16.4482 49.1045 17.2979 49.1045 18.4521V25H47.6367L47.2412 23.6201H47.1709C46.8955 23.9717 46.6113 24.2617 46.3184 24.4902C46.0254 24.7188 45.6855 24.8887 45.2988 25C44.918 25.1172 44.4521 25.1758 43.9014 25.1758C43.3213 25.1758 42.8027 25.0703 42.3457 24.8594C41.8887 24.6426 41.5283 24.3145 41.2646 23.875C41.001 23.4355 40.8691 22.8789 40.8691 22.2051C40.8691 21.2031 41.2412 20.4502 41.9854 19.9463C42.7354 19.4424 43.8662 19.1641 45.3779 19.1113L47.0654 19.0498V18.54C47.0654 17.8662 46.9072 17.3857 46.5908 17.0986C46.2803 16.8115 45.8408 16.668 45.2725 16.668C44.7861 16.668 44.3145 16.7383 43.8574 16.8789C43.4004 17.0195 42.9551 17.1924 42.5215 17.3975L41.8535 15.9385C42.3281 15.6865 42.8672 15.4814 43.4707 15.3232C44.0801 15.165 44.7129 15.0859 45.3691 15.0859ZM47.0566 20.3506L45.7998 20.3945C44.7686 20.4297 44.0449 20.6055 43.6289 20.9219C43.2129 21.2383 43.0049 21.6719 43.0049 22.2227C43.0049 22.7031 43.1484 23.0547 43.4355 23.2773C43.7227 23.4941 44.1006 23.6025 44.5693 23.6025C45.2842 23.6025 45.876 23.4004 46.3447 22.9961C46.8193 22.5859 47.0566 21.9854 47.0566 21.1943V20.3506ZM53.1615 11.3242V14.6201C53.1615 15.001 53.1498 15.376 53.1264 15.7451C53.1088 16.1084 53.0912 16.3926 53.0736 16.5977H53.1615C53.4252 16.1758 53.7914 15.8213 54.2602 15.5342C54.7348 15.2412 55.3412 15.0947 56.0795 15.0947C57.2338 15.0947 58.1625 15.5195 58.8656 16.3691C59.5687 17.2129 59.9203 18.4639 59.9203 20.1221C59.9203 21.2236 59.7592 22.1494 59.4369 22.8994C59.1146 23.6494 58.6605 24.2178 58.0746 24.6045C57.4945 24.9854 56.8119 25.1758 56.0268 25.1758C55.2885 25.1758 54.6908 25.041 54.2338 24.7715C53.7826 24.4961 53.4281 24.1768 53.1703 23.8135H53.0209L52.643 25H51.0961V11.3242H53.1615ZM55.5346 16.7734C54.9486 16.7734 54.4828 16.8906 54.1371 17.125C53.7973 17.3594 53.5512 17.7109 53.3988 18.1797C53.2465 18.6426 53.1674 19.2314 53.1615 19.9463V20.1309C53.1615 21.2148 53.3314 22.0439 53.6713 22.6182C54.017 23.1924 54.6439 23.4795 55.5521 23.4795C56.2729 23.4795 56.8266 23.1895 57.2133 22.6094C57.6 22.0234 57.7934 21.1855 57.7934 20.0957C57.7934 18.9941 57.6 18.165 57.2133 17.6084C56.8324 17.0518 56.2729 16.7734 55.5346 16.7734ZM63.4852 25H61.4109V11.3242H63.4852V25ZM69.4143 15.0859C70.2814 15.0859 71.0256 15.2646 71.6467 15.6221C72.2678 15.9795 72.7453 16.4863 73.0793 17.1426C73.4133 17.7988 73.5803 18.584 73.5803 19.498V20.6055H67.0852C67.1086 21.5488 67.3605 22.2754 67.841 22.7852C68.3273 23.2949 69.007 23.5498 69.8801 23.5498C70.5012 23.5498 71.0578 23.4912 71.55 23.374C72.048 23.251 72.5607 23.0723 73.0881 22.8379V24.5166C72.6018 24.7451 72.1066 24.9121 71.6027 25.0176C71.0988 25.123 70.4953 25.1758 69.7922 25.1758C68.8371 25.1758 67.9963 24.9912 67.2697 24.6221C66.549 24.2471 65.9836 23.6904 65.5734 22.9521C65.1691 22.2139 64.967 21.2969 64.967 20.2012C64.967 19.1113 65.1516 18.1855 65.5207 17.4238C65.8898 16.6621 66.4084 16.082 67.0764 15.6836C67.7443 15.2852 68.5236 15.0859 69.4143 15.0859ZM69.4143 16.6416C68.7639 16.6416 68.2365 16.8525 67.8322 17.2744C67.4338 17.6963 67.1994 18.3145 67.1291 19.1289H71.5588C71.5529 18.6426 71.4709 18.2119 71.3127 17.8369C71.1604 17.4619 70.926 17.1689 70.6096 16.958C70.299 16.7471 69.9006 16.6416 69.4143 16.6416ZM84.4717 13.7588C83.8564 13.7588 83.3057 13.8701 82.8193 14.0928C82.3389 14.3154 81.9316 14.6377 81.5977 15.0596C81.2637 15.4756 81.0088 15.9824 80.833 16.5801C80.6572 17.1719 80.5693 17.8398 80.5693 18.584C80.5693 19.5801 80.71 20.4385 80.9912 21.1592C81.2725 21.874 81.7002 22.4248 82.2744 22.8115C82.8486 23.1924 83.5752 23.3828 84.4541 23.3828C84.999 23.3828 85.5293 23.3301 86.0449 23.2246C86.5605 23.1191 87.0938 22.9756 87.6445 22.7939V24.5869C87.123 24.792 86.5957 24.9414 86.0625 25.0352C85.5293 25.1289 84.9141 25.1758 84.2168 25.1758C82.9043 25.1758 81.8145 24.9033 80.9473 24.3584C80.0859 23.8135 79.4414 23.0459 79.0137 22.0557C78.5918 21.0654 78.3809 19.9053 78.3809 18.5752C78.3809 17.6025 78.5156 16.7119 78.7852 15.9033C79.0547 15.0947 79.4473 14.3975 79.9629 13.8115C80.4785 13.2197 81.1143 12.7656 81.8701 12.4492C82.6318 12.127 83.502 11.9658 84.4805 11.9658C85.125 11.9658 85.7578 12.0391 86.3789 12.1855C87.0059 12.3262 87.5859 12.5283 88.1191 12.792L87.3809 14.5322C86.9355 14.3213 86.4697 14.1396 85.9834 13.9873C85.4971 13.835 84.9932 13.7588 84.4717 13.7588ZM97.9066 20.1133C97.9066 20.9219 97.8012 21.6396 97.5902 22.2666C97.3793 22.8936 97.0717 23.4238 96.6674 23.8574C96.2631 24.2852 95.7768 24.6133 95.2084 24.8418C94.64 25.0645 93.9984 25.1758 93.2836 25.1758C92.6156 25.1758 92.0033 25.0645 91.4467 24.8418C90.89 24.6133 90.4066 24.2852 89.9965 23.8574C89.5922 23.4238 89.2787 22.8936 89.0561 22.2666C88.8334 21.6396 88.7221 20.9219 88.7221 20.1133C88.7221 19.041 88.9066 18.1328 89.2758 17.3887C89.6508 16.6387 90.184 16.0674 90.8754 15.6748C91.5668 15.2822 92.39 15.0859 93.3451 15.0859C94.2416 15.0859 95.0326 15.2822 95.7182 15.6748C96.4037 16.0674 96.9398 16.6387 97.3266 17.3887C97.7133 18.1387 97.9066 19.0469 97.9066 20.1133ZM90.849 20.1133C90.849 20.8223 90.934 21.4287 91.1039 21.9326C91.2797 22.4365 91.5492 22.8232 91.9125 23.0928C92.2758 23.3564 92.7445 23.4883 93.3187 23.4883C93.893 23.4883 94.3617 23.3564 94.725 23.0928C95.0883 22.8232 95.3549 22.4365 95.5248 21.9326C95.6947 21.4287 95.7797 20.8223 95.7797 20.1133C95.7797 19.4043 95.6947 18.8037 95.5248 18.3115C95.3549 17.8135 95.0883 17.4355 94.725 17.1777C94.3617 16.9141 93.89 16.7822 93.31 16.7822C92.4545 16.7822 91.8305 17.0693 91.4379 17.6436C91.0453 18.2178 90.849 19.041 90.849 20.1133ZM104.451 15.0859C105.547 15.0859 106.399 15.3701 107.009 15.9385C107.624 16.501 107.931 17.4062 107.931 18.6543V25H105.866V19.041C105.866 18.2852 105.711 17.7197 105.4 17.3447C105.09 16.9639 104.609 16.7734 103.959 16.7734C103.015 16.7734 102.359 17.0635 101.99 17.6436C101.627 18.2236 101.445 19.0645 101.445 20.166V25H99.3797V15.2705H100.988L101.278 16.5889H101.392C101.603 16.249 101.864 15.9707 102.175 15.7539C102.491 15.5312 102.843 15.3643 103.229 15.2529C103.622 15.1416 104.029 15.0859 104.451 15.0859ZM113.544 23.5059C113.814 23.5059 114.08 23.4824 114.344 23.4355C114.608 23.3828 114.848 23.3213 115.065 23.251V24.8154C114.836 24.915 114.54 25 114.177 25.0703C113.814 25.1406 113.436 25.1758 113.043 25.1758C112.492 25.1758 111.997 25.085 111.558 24.9033C111.118 24.7158 110.77 24.3965 110.512 23.9453C110.254 23.4941 110.125 22.8701 110.125 22.0732V16.8438H108.798V15.9209L110.222 15.1914L110.899 13.1084H112.199V15.2705H114.986V16.8438H112.199V22.0469C112.199 22.5391 112.322 22.9053 112.569 23.1455C112.815 23.3857 113.14 23.5059 113.544 23.5059ZM120.018 15.0859C120.885 15.0859 121.629 15.2646 122.251 15.6221C122.872 15.9795 123.349 16.4863 123.683 17.1426C124.017 17.7988 124.184 18.584 124.184 19.498V20.6055H117.689C117.713 21.5488 117.964 22.2754 118.445 22.7852C118.931 23.2949 119.611 23.5498 120.484 23.5498C121.105 23.5498 121.662 23.4912 122.154 23.374C122.652 23.251 123.165 23.0723 123.692 22.8379V24.5166C123.206 24.7451 122.711 24.9121 122.207 25.0176C121.703 25.123 121.099 25.1758 120.396 25.1758C119.441 25.1758 118.6 24.9912 117.874 24.6221C117.153 24.2471 116.588 23.6904 116.177 22.9521C115.773 22.2139 115.571 21.2969 115.571 20.2012C115.571 19.1113 115.755 18.1855 116.125 17.4238C116.494 16.6621 117.012 16.082 117.68 15.6836C118.348 15.2852 119.128 15.0859 120.018 15.0859ZM120.018 16.6416C119.368 16.6416 118.84 16.8525 118.436 17.2744C118.038 17.6963 117.803 18.3145 117.733 19.1289H122.163C122.157 18.6426 122.075 18.2119 121.917 17.8369C121.764 17.4619 121.53 17.1689 121.213 16.958C120.903 16.7471 120.504 16.6416 120.018 16.6416ZM130.685 15.0859C131.78 15.0859 132.633 15.3701 133.242 15.9385C133.857 16.501 134.165 17.4062 134.165 18.6543V25H132.1V19.041C132.1 18.2852 131.944 17.7197 131.634 17.3447C131.323 16.9639 130.843 16.7734 130.192 16.7734C129.249 16.7734 128.593 17.0635 128.224 17.6436C127.86 18.2236 127.679 19.0645 127.679 20.166V25H125.613V15.2705H127.222L127.512 16.5889H127.626C127.837 16.249 128.098 15.9707 128.408 15.7539C128.725 15.5312 129.076 15.3643 129.463 15.2529C129.855 15.1416 130.263 15.0859 130.685 15.0859ZM139.778 23.5059C140.047 23.5059 140.314 23.4824 140.578 23.4355C140.841 23.3828 141.081 23.3213 141.298 23.251V24.8154C141.07 24.915 140.774 25 140.411 25.0703C140.047 25.1406 139.669 25.1758 139.277 25.1758C138.726 25.1758 138.231 25.085 137.791 24.9033C137.352 24.7158 137.003 24.3965 136.746 23.9453C136.488 23.4941 136.359 22.8701 136.359 22.0732V16.8438H135.032V15.9209L136.455 15.1914L137.132 13.1084H138.433V15.2705H141.219V16.8438H138.433V22.0469C138.433 22.5391 138.556 22.9053 138.802 23.1455C139.048 23.3857 139.373 23.5059 139.778 23.5059Z" class="logo-text"/>
</svg>
