<svg width="67" height="30" viewBox="0 0 67 30" fill="none" xmlns="http://www.w3.org/2000/svg">
<path d="M3.65277 7.8974H2.0514V1.78668H0V0.476562H5.70418V1.78595H3.65277V7.89666V7.8974Z" class="logo-accent"/>
<path d="M8.56749 2.11597C8.647 2.11597 8.7385 2.12039 8.84426 2.1285C8.94927 2.13734 9.03478 2.14766 9.10003 2.16166L8.98152 3.61325C8.92977 3.59631 8.85626 3.58378 8.76175 3.57494C8.66725 3.56683 8.58549 3.56241 8.51648 3.56241C8.31322 3.56241 8.11596 3.5882 7.92469 3.63831C7.73343 3.68915 7.56241 3.77094 7.4109 3.88442C7.25939 3.99789 7.13938 4.14673 7.05163 4.33095C6.96387 4.51516 6.91962 4.74137 6.91962 5.00885V7.89657H5.34375V2.22281H6.53709L6.76961 3.17704H6.84686C6.96087 2.98398 7.10263 2.80714 7.27289 2.6465C7.44316 2.48587 7.63817 2.35692 7.85644 2.26039C8.07545 2.16387 8.31172 2.11523 8.56674 2.11523L8.56749 2.11597Z" class="logo-accent"/>
<path d="M10.2284 0C10.4624 0 10.6642 0.0530533 10.833 0.159897C11.0017 0.26674 11.0865 0.464954 11.0865 0.75601C11.0865 1.04707 11.0017 1.24233 10.833 1.35212C10.6642 1.46191 10.4624 1.51718 10.2284 1.51718C9.99439 1.51718 9.78812 1.46191 9.62161 1.35212C9.45435 1.24233 9.37109 1.04338 9.37109 0.75601C9.37109 0.468638 9.45435 0.266004 9.62161 0.159897C9.78887 0.0530533 9.99139 0 10.2284 0ZM11.0137 2.22308V7.89758H9.43785V2.22308H11.0137Z" class="logo-accent"/>
<path d="M18.7239 2.11621C19.378 2.11621 19.8738 2.28127 20.209 2.61138C20.5451 2.94148 20.7131 3.46981 20.7131 4.19782V7.89755H19.132V4.58319C19.132 4.17719 19.0615 3.87066 18.9204 3.66434C18.7794 3.45802 18.5604 3.35486 18.2641 3.35486C17.8471 3.35486 17.5508 3.50149 17.3753 3.79402C17.1998 4.08655 17.1121 4.50508 17.1121 5.05035V7.89755H15.5362V4.58319C15.5362 4.31277 15.5054 4.08582 15.4432 3.90308C15.3809 3.72034 15.2864 3.58328 15.1589 3.49191C15.0314 3.40054 14.8679 3.35486 14.6684 3.35486C14.3759 3.35486 14.1456 3.42707 13.9783 3.57076C13.8111 3.71444 13.6926 3.92592 13.6221 4.20519C13.5515 4.48445 13.5163 4.82488 13.5163 5.22794V7.89755H11.9404V2.22305H13.1443L13.3558 2.94885H13.4435C13.5605 2.75285 13.7076 2.59369 13.8853 2.47211C14.0623 2.35053 14.2581 2.26063 14.4719 2.20316C14.6856 2.14569 14.9024 2.11695 15.1229 2.11695C15.5467 2.11695 15.906 2.18474 16.2 2.32032C16.4948 2.4559 16.7213 2.66517 16.8795 2.94959H17.0191C17.1916 2.65853 17.4346 2.44706 17.7504 2.31516C18.0654 2.18326 18.3902 2.11695 18.7239 2.11695V2.11621Z" class="logo-accent"/>
<path d="M23.1845 0V1.83771C23.1845 2.05066 23.1785 2.26213 23.1665 2.47214C23.1545 2.68214 23.1395 2.84425 23.1222 2.9592H23.1845C23.336 2.72561 23.543 2.52666 23.8048 2.36308C24.0666 2.19877 24.4056 2.11698 24.8226 2.11698C25.4699 2.11698 25.9957 2.36603 26.3985 2.86341C26.8013 3.36078 27.003 4.09026 27.003 5.05112C27.003 5.69734 26.91 6.23966 26.724 6.67809C26.538 7.11651 26.2777 7.44662 25.9439 7.66768C25.6102 7.88947 25.2224 8 24.7814 8C24.3403 8 24.0238 7.92558 23.7793 7.77673C23.5348 7.62789 23.3368 7.46062 23.1852 7.2742H23.0765L22.8132 7.89831H21.6094V0H23.1852H23.1845ZM24.3156 3.35489C24.0403 3.35489 23.8213 3.41089 23.6593 3.52215C23.4973 3.63415 23.3795 3.80142 23.3053 4.02468C23.231 4.24795 23.1905 4.5309 23.1837 4.87206V5.03933C23.1837 5.59123 23.2662 6.01345 23.432 6.30598C23.597 6.59851 23.8985 6.74514 24.3358 6.74514C24.6599 6.74514 24.9171 6.59777 25.1084 6.30377C25.2997 6.00903 25.3949 5.5846 25.3949 5.02975C25.3949 4.4749 25.2981 4.05711 25.1054 3.77563C24.9126 3.49489 24.6486 3.35415 24.3148 3.35415L24.3156 3.35489Z" class="logo-accent"/>
<path d="M29.2272 7.89758H27.6514V0H29.2272V7.89758Z" class="logo-accent"/>
<path d="M32.5881 2.11621C33.1222 2.11621 33.582 2.21716 33.9675 2.41832C34.353 2.61948 34.6508 2.91127 34.8616 3.2937C35.0716 3.67613 35.1766 4.14329 35.1766 4.69446V5.44531H31.4518C31.4691 5.88226 31.6026 6.22416 31.8523 6.47322C32.1021 6.72153 32.4494 6.84606 32.8934 6.84606C33.2617 6.84606 33.5992 6.80922 33.906 6.7348C34.2128 6.66038 34.5278 6.54837 34.8518 6.39953V7.59765C34.566 7.73618 34.2668 7.83786 33.9555 7.90197C33.6435 7.96608 33.2654 7.9985 32.8214 7.9985C32.2431 7.9985 31.7301 7.89387 31.2845 7.68386C30.8383 7.47386 30.4887 7.15407 30.236 6.72448C29.9825 6.2949 29.8564 5.75331 29.8564 5.10046C29.8564 4.44761 29.9712 3.88466 30.2 3.44328C30.4287 3.00191 30.7483 2.67032 31.1585 2.44853C31.5681 2.22674 32.0451 2.11621 32.5896 2.11621H32.5881ZM32.5986 3.2178C32.2919 3.2178 32.0384 3.31433 31.8366 3.50739C31.6348 3.69971 31.5186 4.00329 31.4878 4.41593H33.699C33.6952 4.18603 33.6532 3.98118 33.5722 3.80139C33.4912 3.62234 33.3705 3.48012 33.2107 3.37475C33.0502 3.27012 32.8462 3.2178 32.5986 3.2178Z" class="logo-accent"/>
<path d="M35.5782 7.23467C35.5737 6.85298 35.8849 6.53982 36.2735 6.53613C36.2787 6.53613 36.284 6.53613 36.2892 6.53613C36.6823 6.53613 37.0003 6.8493 37.0003 7.23467C37.0003 7.62078 36.6815 7.9332 36.2892 7.9332C35.8962 7.9332 35.5782 7.62004 35.5782 7.23467ZM36.8713 7.23467C36.8653 6.91782 36.5997 6.66508 36.2772 6.67098C35.9547 6.67687 35.6974 6.93772 35.7034 7.25456C35.7087 7.56846 35.9705 7.81973 36.29 7.81825C36.611 7.81825 36.872 7.56257 36.872 7.24646C36.872 7.24204 36.872 7.23835 36.872 7.23393L36.8713 7.23467ZM36.0132 6.83677H36.3042C36.488 6.83677 36.5952 6.91487 36.5952 7.07109C36.6042 7.16983 36.5405 7.2612 36.443 7.28772L36.611 7.60162H36.4482L36.2915 7.30909H36.1685V7.60162H36.0125V6.83677H36.0132ZM36.2952 7.19193C36.3905 7.19193 36.443 7.16172 36.443 7.07993C36.443 6.99814 36.3905 6.96793 36.2915 6.96793H36.1685V7.19119H36.2945L36.2952 7.19193Z" class="logo-accent"/>
<path d="M7.16309 13.7588C6.54785 13.7588 5.99707 13.8701 5.51074 14.0928C5.03027 14.3154 4.62305 14.6377 4.28906 15.0596C3.95508 15.4756 3.7002 15.9824 3.52441 16.5801C3.34863 17.1719 3.26074 17.8398 3.26074 18.584C3.26074 19.5801 3.40137 20.4385 3.68262 21.1592C3.96387 21.874 4.3916 22.4248 4.96582 22.8115C5.54004 23.1924 6.2666 23.3828 7.14551 23.3828C7.69043 23.3828 8.2207 23.3301 8.73633 23.2246C9.25195 23.1191 9.78516 22.9756 10.3359 22.7939V24.5869C9.81445 24.792 9.28711 24.9414 8.75391 25.0352C8.2207 25.1289 7.60547 25.1758 6.9082 25.1758C5.5957 25.1758 4.50586 24.9033 3.63867 24.3584C2.77734 23.8135 2.13281 23.0459 1.70508 22.0557C1.2832 21.0654 1.07227 19.9053 1.07227 18.5752C1.07227 17.6025 1.20703 16.7119 1.47656 15.9033C1.74609 15.0947 2.13867 14.3975 2.6543 13.8115C3.16992 13.2197 3.80566 12.7656 4.56152 12.4492C5.32324 12.127 6.19336 11.9658 7.17188 11.9658C7.81641 11.9658 8.44922 12.0391 9.07031 12.1855C9.69727 12.3262 10.2773 12.5283 10.8105 12.792L10.0723 14.5322C9.62695 14.3213 9.16113 14.1396 8.6748 13.9873C8.18848 13.835 7.68457 13.7588 7.16309 13.7588ZM20.598 20.1133C20.598 20.9219 20.4926 21.6396 20.2816 22.2666C20.0707 22.8936 19.7631 23.4238 19.3588 23.8574C18.9545 24.2852 18.4682 24.6133 17.8998 24.8418C17.3314 25.0645 16.6898 25.1758 15.975 25.1758C15.307 25.1758 14.6947 25.0645 14.1381 24.8418C13.5814 24.6133 13.098 24.2852 12.6879 23.8574C12.2836 23.4238 11.9701 22.8936 11.7475 22.2666C11.5248 21.6396 11.4135 20.9219 11.4135 20.1133C11.4135 19.041 11.598 18.1328 11.9672 17.3887C12.3422 16.6387 12.8754 16.0674 13.5668 15.6748C14.2582 15.2822 15.0814 15.0859 16.0365 15.0859C16.933 15.0859 17.724 15.2822 18.4096 15.6748C19.0951 16.0674 19.6313 16.6387 20.018 17.3887C20.4047 18.1387 20.598 19.0469 20.598 20.1133ZM13.5404 20.1133C13.5404 20.8223 13.6254 21.4287 13.7953 21.9326C13.9711 22.4365 14.2406 22.8232 14.6039 23.0928C14.9672 23.3564 15.4359 23.4883 16.0102 23.4883C16.5844 23.4883 17.0531 23.3564 17.4164 23.0928C17.7797 22.8232 18.0463 22.4365 18.2162 21.9326C18.3861 21.4287 18.4711 20.8223 18.4711 20.1133C18.4711 19.4043 18.3861 18.8037 18.2162 18.3115C18.0463 17.8135 17.7797 17.4355 17.4164 17.1777C17.0531 16.9141 16.5814 16.7822 16.0014 16.7822C15.1459 16.7822 14.5219 17.0693 14.1293 17.6436C13.7367 18.2178 13.5404 19.041 13.5404 20.1133ZM27.1424 15.0859C28.2381 15.0859 29.0906 15.3701 29.7 15.9385C30.3152 16.501 30.6229 17.4062 30.6229 18.6543V25H28.5574V19.041C28.5574 18.2852 28.4021 17.7197 28.0916 17.3447C27.7811 16.9639 27.3006 16.7734 26.6502 16.7734C25.7068 16.7734 25.0506 17.0635 24.6814 17.6436C24.3182 18.2236 24.1365 19.0645 24.1365 20.166V25H22.0711V15.2705H23.6795L23.9695 16.5889H24.0838C24.2947 16.249 24.5555 15.9707 24.866 15.7539C25.1824 15.5312 25.534 15.3643 25.9207 15.2529C26.3133 15.1416 26.7205 15.0859 27.1424 15.0859ZM37.6857 15.0859C38.7814 15.0859 39.634 15.3701 40.2434 15.9385C40.8586 16.501 41.1662 17.4062 41.1662 18.6543V25H39.1008V19.041C39.1008 18.2852 38.9455 17.7197 38.635 17.3447C38.3244 16.9639 37.8439 16.7734 37.1936 16.7734C36.2502 16.7734 35.5939 17.0635 35.2248 17.6436C34.8615 18.2236 34.6799 19.0645 34.6799 20.166V25H32.6145V15.2705H34.2229L34.5129 16.5889H34.6271C34.8381 16.249 35.0988 15.9707 35.4094 15.7539C35.7258 15.5312 36.0773 15.3643 36.4641 15.2529C36.8566 15.1416 37.2639 15.0859 37.6857 15.0859ZM47.0338 15.0859C47.901 15.0859 48.6451 15.2646 49.2662 15.6221C49.8873 15.9795 50.3648 16.4863 50.6988 17.1426C51.0328 17.7988 51.1998 18.584 51.1998 19.498V20.6055H44.7047C44.7281 21.5488 44.9801 22.2754 45.4605 22.7852C45.9469 23.2949 46.6266 23.5498 47.4996 23.5498C48.1207 23.5498 48.6773 23.4912 49.1695 23.374C49.6676 23.251 50.1803 23.0723 50.7076 22.8379V24.5166C50.2213 24.7451 49.7262 24.9121 49.2223 25.0176C48.7184 25.123 48.1148 25.1758 47.4117 25.1758C46.4566 25.1758 45.6158 24.9912 44.8893 24.6221C44.1686 24.2471 43.6031 23.6904 43.193 22.9521C42.7887 22.2139 42.5865 21.2969 42.5865 20.2012C42.5865 19.1113 42.7711 18.1855 43.1402 17.4238C43.5094 16.6621 44.0279 16.082 44.6959 15.6836C45.3639 15.2852 46.1432 15.0859 47.0338 15.0859ZM47.0338 16.6416C46.3834 16.6416 45.8561 16.8525 45.4518 17.2744C45.0533 17.6963 44.8189 18.3145 44.7486 19.1289H49.1783C49.1725 18.6426 49.0904 18.2119 48.9322 17.8369C48.7799 17.4619 48.5455 17.1689 48.2291 16.958C47.9186 16.7471 47.5201 16.6416 47.0338 16.6416ZM56.5488 25.1758C55.6289 25.1758 54.832 24.9971 54.1582 24.6396C53.4844 24.2822 52.9658 23.7344 52.6025 22.9961C52.2393 22.2578 52.0576 21.3203 52.0576 20.1836C52.0576 19 52.2568 18.0332 52.6553 17.2832C53.0537 16.5332 53.6045 15.9795 54.3076 15.6221C55.0166 15.2646 55.8281 15.0859 56.7422 15.0859C57.3223 15.0859 57.8467 15.1445 58.3154 15.2617C58.79 15.373 59.1914 15.5107 59.5195 15.6748L58.9043 17.3271C58.5469 17.1807 58.1807 17.0576 57.8057 16.958C57.4307 16.8584 57.0703 16.8086 56.7246 16.8086C56.1562 16.8086 55.6816 16.9346 55.3008 17.1865C54.9258 17.4385 54.6445 17.8135 54.457 18.3115C54.2754 18.8096 54.1846 19.4277 54.1846 20.166C54.1846 20.8809 54.2783 21.4844 54.4658 21.9766C54.6533 22.4629 54.9316 22.832 55.3008 23.084C55.6699 23.3301 56.124 23.4531 56.6631 23.4531C57.1963 23.4531 57.6738 23.3887 58.0957 23.2598C58.5176 23.1309 58.916 22.9639 59.291 22.7588V24.5518C58.9219 24.7627 58.5264 24.918 58.1045 25.0176C57.6826 25.123 57.1641 25.1758 56.5488 25.1758ZM64.2973 23.5059C64.5668 23.5059 64.8334 23.4824 65.0971 23.4355C65.3607 23.3828 65.601 23.3213 65.8178 23.251V24.8154C65.5893 24.915 65.2934 25 64.9301 25.0703C64.5668 25.1406 64.1889 25.1758 63.7963 25.1758C63.2455 25.1758 62.7504 25.085 62.3109 24.9033C61.8715 24.7158 61.5229 24.3965 61.265 23.9453C61.0072 23.4941 60.8783 22.8701 60.8783 22.0732V16.8438H59.5512V15.9209L60.975 15.1914L61.6518 13.1084H62.9525V15.2705H65.7387V16.8438H62.9525V22.0469C62.9525 22.5391 63.0756 22.9053 63.3217 23.1455C63.5678 23.3857 63.893 23.5059 64.2973 23.5059Z" class="logo-text"/>
</svg>
