<svg width="142" height="30" viewBox="0 0 142 30" fill="none" xmlns="http://www.w3.org/2000/svg">
<path d="M3.65277 7.8974H2.0514V1.78668H0V0.476562H5.70418V1.78595H3.65277V7.89666V7.8974Z" class="logo-accent"/>
<path d="M8.56749 2.11597C8.647 2.11597 8.7385 2.12039 8.84426 2.1285C8.94927 2.13734 9.03478 2.14766 9.10003 2.16166L8.98152 3.61325C8.92977 3.59631 8.85626 3.58378 8.76175 3.57494C8.66725 3.56683 8.58549 3.56241 8.51648 3.56241C8.31322 3.56241 8.11596 3.5882 7.92469 3.63831C7.73343 3.68915 7.56241 3.77094 7.4109 3.88442C7.25939 3.99789 7.13938 4.14673 7.05163 4.33095C6.96387 4.51516 6.91962 4.74137 6.91962 5.00885V7.89657H5.34375V2.22281H6.53709L6.76961 3.17704H6.84686C6.96087 2.98398 7.10263 2.80714 7.27289 2.6465C7.44316 2.48587 7.63817 2.35692 7.85644 2.26039C8.07545 2.16387 8.31172 2.11523 8.56674 2.11523L8.56749 2.11597Z" class="logo-accent"/>
<path d="M10.2284 0C10.4624 0 10.6642 0.0530533 10.833 0.159897C11.0017 0.26674 11.0865 0.464954 11.0865 0.75601C11.0865 1.04707 11.0017 1.24233 10.833 1.35212C10.6642 1.46191 10.4624 1.51718 10.2284 1.51718C9.99439 1.51718 9.78812 1.46191 9.62161 1.35212C9.45435 1.24233 9.37109 1.04338 9.37109 0.75601C9.37109 0.468638 9.45435 0.266004 9.62161 0.159897C9.78887 0.0530533 9.99139 0 10.2284 0ZM11.0137 2.22308V7.89758H9.43785V2.22308H11.0137Z" class="logo-accent"/>
<path d="M18.7239 2.11621C19.378 2.11621 19.8738 2.28127 20.209 2.61138C20.5451 2.94148 20.7131 3.46981 20.7131 4.19782V7.89755H19.132V4.58319C19.132 4.17719 19.0615 3.87066 18.9204 3.66434C18.7794 3.45802 18.5604 3.35486 18.2641 3.35486C17.8471 3.35486 17.5508 3.50149 17.3753 3.79402C17.1998 4.08655 17.1121 4.50508 17.1121 5.05035V7.89755H15.5362V4.58319C15.5362 4.31277 15.5054 4.08582 15.4432 3.90308C15.3809 3.72034 15.2864 3.58328 15.1589 3.49191C15.0314 3.40054 14.8679 3.35486 14.6684 3.35486C14.3759 3.35486 14.1456 3.42707 13.9783 3.57076C13.8111 3.71444 13.6926 3.92592 13.6221 4.20519C13.5515 4.48445 13.5163 4.82488 13.5163 5.22794V7.89755H11.9404V2.22305H13.1443L13.3558 2.94885H13.4435C13.5605 2.75285 13.7076 2.59369 13.8853 2.47211C14.0623 2.35053 14.2581 2.26063 14.4719 2.20316C14.6856 2.14569 14.9024 2.11695 15.1229 2.11695C15.5467 2.11695 15.906 2.18474 16.2 2.32032C16.4948 2.4559 16.7213 2.66517 16.8795 2.94959H17.0191C17.1916 2.65853 17.4346 2.44706 17.7504 2.31516C18.0654 2.18326 18.3902 2.11695 18.7239 2.11695V2.11621Z" class="logo-accent"/>
<path d="M23.1845 0V1.83771C23.1845 2.05066 23.1785 2.26213 23.1665 2.47214C23.1545 2.68214 23.1395 2.84425 23.1222 2.9592H23.1845C23.336 2.72561 23.543 2.52666 23.8048 2.36308C24.0666 2.19877 24.4056 2.11698 24.8226 2.11698C25.4699 2.11698 25.9957 2.36603 26.3985 2.86341C26.8013 3.36078 27.003 4.09026 27.003 5.05112C27.003 5.69734 26.91 6.23966 26.724 6.67809C26.538 7.11651 26.2777 7.44662 25.9439 7.66768C25.6102 7.88947 25.2224 8 24.7814 8C24.3403 8 24.0238 7.92558 23.7793 7.77673C23.5348 7.62789 23.3368 7.46062 23.1852 7.2742H23.0765L22.8132 7.89831H21.6094V0H23.1852H23.1845ZM24.3156 3.35489C24.0403 3.35489 23.8213 3.41089 23.6593 3.52215C23.4973 3.63415 23.3795 3.80142 23.3053 4.02468C23.231 4.24795 23.1905 4.5309 23.1837 4.87206V5.03933C23.1837 5.59123 23.2662 6.01345 23.432 6.30598C23.597 6.59851 23.8985 6.74514 24.3358 6.74514C24.6599 6.74514 24.9171 6.59777 25.1084 6.30377C25.2997 6.00903 25.3949 5.5846 25.3949 5.02975C25.3949 4.4749 25.2981 4.05711 25.1054 3.77563C24.9126 3.49489 24.6486 3.35415 24.3148 3.35415L24.3156 3.35489Z" class="logo-accent"/>
<path d="M29.2272 7.89758H27.6514V0H29.2272V7.89758Z" class="logo-accent"/>
<path d="M32.5881 2.11621C33.1222 2.11621 33.582 2.21716 33.9675 2.41832C34.353 2.61948 34.6508 2.91127 34.8616 3.2937C35.0716 3.67613 35.1766 4.14329 35.1766 4.69446V5.44531H31.4518C31.4691 5.88226 31.6026 6.22416 31.8523 6.47322C32.1021 6.72153 32.4494 6.84606 32.8934 6.84606C33.2617 6.84606 33.5992 6.80922 33.906 6.7348C34.2128 6.66038 34.5278 6.54837 34.8518 6.39953V7.59765C34.566 7.73618 34.2668 7.83786 33.9555 7.90197C33.6435 7.96608 33.2654 7.9985 32.8214 7.9985C32.2431 7.9985 31.7301 7.89387 31.2845 7.68386C30.8383 7.47386 30.4887 7.15407 30.236 6.72448C29.9825 6.2949 29.8564 5.75331 29.8564 5.10046C29.8564 4.44761 29.9712 3.88466 30.2 3.44328C30.4287 3.00191 30.7483 2.67032 31.1585 2.44853C31.5681 2.22674 32.0451 2.11621 32.5896 2.11621H32.5881ZM32.5986 3.2178C32.2919 3.2178 32.0384 3.31433 31.8366 3.50739C31.6348 3.69971 31.5186 4.00329 31.4878 4.41593H33.699C33.6952 4.18603 33.6532 3.98118 33.5722 3.80139C33.4912 3.62234 33.3705 3.48012 33.2107 3.37475C33.0502 3.27012 32.8462 3.2178 32.5986 3.2178Z" class="logo-accent"/>
<path d="M35.5782 7.23467C35.5737 6.85298 35.8849 6.53982 36.2735 6.53613C36.2787 6.53613 36.284 6.53613 36.2892 6.53613C36.6823 6.53613 37.0003 6.8493 37.0003 7.23467C37.0003 7.62078 36.6815 7.9332 36.2892 7.9332C35.8962 7.9332 35.5782 7.62004 35.5782 7.23467ZM36.8713 7.23467C36.8653 6.91782 36.5997 6.66508 36.2772 6.67098C35.9547 6.67687 35.6974 6.93772 35.7034 7.25456C35.7087 7.56846 35.9705 7.81973 36.29 7.81825C36.611 7.81825 36.872 7.56257 36.872 7.24646C36.872 7.24204 36.872 7.23835 36.872 7.23393L36.8713 7.23467ZM36.0132 6.83677H36.3042C36.488 6.83677 36.5952 6.91487 36.5952 7.07109C36.6042 7.16983 36.5405 7.2612 36.443 7.28772L36.611 7.60162H36.4482L36.2915 7.30909H36.1685V7.60162H36.0125V6.83677H36.0132ZM36.2952 7.19193C36.3905 7.19193 36.443 7.16172 36.443 7.07993C36.443 6.99814 36.3905 6.96793 36.2915 6.96793H36.1685V7.19119H36.2945L36.2952 7.19193Z" class="logo-accent"/>
<path d="M12.1201 18.4521C12.1201 19.8994 11.8506 21.1094 11.3115 22.082C10.7725 23.0488 9.99023 23.7783 8.96484 24.2705C7.93945 24.7568 6.70312 25 5.25586 25H1.6875V12.1504H5.64258C6.97266 12.1504 8.12109 12.3906 9.08789 12.8711C10.0547 13.3457 10.8018 14.0518 11.3291 14.9893C11.8564 15.9209 12.1201 17.0752 12.1201 18.4521ZM9.92285 18.5137C9.92285 17.459 9.75586 16.5918 9.42188 15.9121C9.09375 15.2324 8.60742 14.7285 7.96289 14.4004C7.32422 14.0664 6.53613 13.8994 5.59863 13.8994H3.79688V23.2334H5.29102C6.84375 23.2334 8.00391 22.8379 8.77148 22.0469C9.53906 21.2559 9.92285 20.0781 9.92285 18.5137ZM17.6537 15.0859C18.5209 15.0859 19.265 15.2646 19.8861 15.6221C20.5072 15.9795 20.9848 16.4863 21.3188 17.1426C21.6527 17.7988 21.8197 18.584 21.8197 19.498V20.6055H15.3246C15.348 21.5488 15.6 22.2754 16.0805 22.7852C16.5668 23.2949 17.2465 23.5498 18.1195 23.5498C18.7406 23.5498 19.2973 23.4912 19.7895 23.374C20.2875 23.251 20.8002 23.0723 21.3275 22.8379V24.5166C20.8412 24.7451 20.3461 24.9121 19.8422 25.0176C19.3383 25.123 18.7348 25.1758 18.0316 25.1758C17.0766 25.1758 16.2357 24.9912 15.5092 24.6221C14.7885 24.2471 14.223 23.6904 13.8129 22.9521C13.4086 22.2139 13.2064 21.2969 13.2064 20.2012C13.2064 19.1113 13.391 18.1855 13.7602 17.4238C14.1293 16.6621 14.6479 16.082 15.3158 15.6836C15.9838 15.2852 16.7631 15.0859 17.6537 15.0859ZM17.6537 16.6416C17.0033 16.6416 16.476 16.8525 16.0717 17.2744C15.6732 17.6963 15.4389 18.3145 15.3686 19.1289H19.7982C19.7924 18.6426 19.7104 18.2119 19.5521 17.8369C19.3998 17.4619 19.1654 17.1689 18.849 16.958C18.5385 16.7471 18.14 16.6416 17.6537 16.6416ZM34.2439 15.0859C35.3338 15.0859 36.1541 15.3672 36.7049 15.9297C37.2615 16.4922 37.5398 17.3945 37.5398 18.6367V25H35.4744V19.0059C35.4744 18.2676 35.3309 17.7109 35.0438 17.3359C34.7566 16.9609 34.3201 16.7734 33.7342 16.7734C32.9139 16.7734 32.3221 17.0371 31.9588 17.5645C31.6014 18.0859 31.4227 18.8447 31.4227 19.8408V25H29.3572V19.0059C29.3572 18.5137 29.2928 18.1035 29.1639 17.7754C29.0408 17.4414 28.8504 17.1924 28.5926 17.0283C28.3348 16.8584 28.0096 16.7734 27.617 16.7734C27.0486 16.7734 26.5945 16.9023 26.2547 17.1602C25.9207 17.418 25.6805 17.7988 25.534 18.3027C25.3875 18.8008 25.3143 19.4131 25.3143 20.1396V25H23.2488V15.2705H24.8572L25.1473 16.5801H25.2615C25.4607 16.2402 25.7068 15.9619 25.9998 15.7451C26.2986 15.5225 26.6297 15.3584 26.993 15.2529C27.3563 15.1416 27.7342 15.0859 28.1268 15.0859C28.8533 15.0859 29.4656 15.2148 29.9637 15.4727C30.4617 15.7246 30.8338 16.1113 31.0799 16.6328H31.2381C31.5428 16.1055 31.9676 15.7158 32.5125 15.4639C33.0574 15.2119 33.6346 15.0859 34.2439 15.0859ZM43.3371 15.0859C44.5676 15.0859 45.4963 15.3584 46.1232 15.9033C46.7561 16.4482 47.0725 17.2979 47.0725 18.4521V25H45.6047L45.2092 23.6201H45.1389C44.8635 23.9717 44.5793 24.2617 44.2863 24.4902C43.9934 24.7188 43.6535 24.8887 43.2668 25C42.8859 25.1172 42.4201 25.1758 41.8693 25.1758C41.2893 25.1758 40.7707 25.0703 40.3137 24.8594C39.8566 24.6426 39.4963 24.3145 39.2326 23.875C38.9689 23.4355 38.8371 22.8789 38.8371 22.2051C38.8371 21.2031 39.2092 20.4502 39.9533 19.9463C40.7033 19.4424 41.8342 19.1641 43.3459 19.1113L45.0334 19.0498V18.54C45.0334 17.8662 44.8752 17.3857 44.5588 17.0986C44.2482 16.8115 43.8088 16.668 43.2404 16.668C42.7541 16.668 42.2824 16.7383 41.8254 16.8789C41.3684 17.0195 40.923 17.1924 40.4895 17.3975L39.8215 15.9385C40.2961 15.6865 40.8352 15.4814 41.4387 15.3232C42.048 15.165 42.6809 15.0859 43.3371 15.0859ZM45.0246 20.3506L43.7678 20.3945C42.7365 20.4297 42.0129 20.6055 41.5969 20.9219C41.1809 21.2383 40.9729 21.6719 40.9729 22.2227C40.9729 22.7031 41.1164 23.0547 41.4035 23.2773C41.6906 23.4941 42.0686 23.6025 42.5373 23.6025C43.2521 23.6025 43.8439 23.4004 44.3127 22.9961C44.7873 22.5859 45.0246 21.9854 45.0246 21.1943V20.3506ZM54.1354 15.0859C55.2311 15.0859 56.0836 15.3701 56.693 15.9385C57.3082 16.501 57.6158 17.4062 57.6158 18.6543V25H55.5504V19.041C55.5504 18.2852 55.3951 17.7197 55.0846 17.3447C54.774 16.9639 54.2936 16.7734 53.6432 16.7734C52.6998 16.7734 52.0436 17.0635 51.6744 17.6436C51.3111 18.2236 51.1295 19.0645 51.1295 20.166V25H49.0641V15.2705H50.6725L50.9625 16.5889H51.0768C51.2877 16.249 51.5484 15.9707 51.859 15.7539C52.1754 15.5312 52.527 15.3643 52.9137 15.2529C53.3063 15.1416 53.7135 15.0859 54.1354 15.0859ZM62.877 25.1758C61.7168 25.1758 60.7852 24.7539 60.082 23.9102C59.3848 23.0605 59.0361 21.8096 59.0361 20.1572C59.0361 18.4873 59.3906 17.2246 60.0996 16.3691C60.8145 15.5137 61.7549 15.0859 62.9209 15.0859C63.4131 15.0859 63.8438 15.1533 64.2129 15.2881C64.582 15.417 64.8984 15.5928 65.1621 15.8154C65.4316 16.0381 65.6602 16.2871 65.8477 16.5625H65.9443C65.915 16.3809 65.8799 16.1201 65.8389 15.7803C65.8037 15.4346 65.7861 15.1152 65.7861 14.8223V11.3242H67.8604V25H66.2432L65.874 23.6729H65.7861C65.6104 23.9541 65.3877 24.209 65.1182 24.4375C64.8545 24.6602 64.5381 24.8389 64.1689 24.9736C63.8057 25.1084 63.375 25.1758 62.877 25.1758ZM63.457 23.4971C64.3418 23.4971 64.9658 23.2422 65.3291 22.7324C65.6924 22.2227 65.8799 21.458 65.8916 20.4385V20.166C65.8916 19.0762 65.7158 18.2412 65.3643 17.6611C65.0127 17.0752 64.3711 16.7822 63.4395 16.7822C62.6953 16.7822 62.127 17.084 61.7344 17.6875C61.3477 18.2852 61.1543 19.1201 61.1543 20.1924C61.1543 21.2646 61.3477 22.085 61.7344 22.6533C62.127 23.2158 62.7012 23.4971 63.457 23.4971ZM77.6443 12.1504C79.3025 12.1504 80.5125 12.4902 81.2742 13.1699C82.0359 13.8496 82.4168 14.8018 82.4168 16.0264C82.4168 16.583 82.3289 17.1133 82.1531 17.6172C81.9832 18.1152 81.702 18.5576 81.3094 18.9443C80.9168 19.3252 80.3982 19.627 79.7537 19.8496C79.115 20.0723 78.327 20.1836 77.3895 20.1836H76.0184V25H73.909V12.1504H77.6443ZM77.5037 13.8994H76.0184V18.4258H77.1697C77.8318 18.4258 78.3943 18.3496 78.8572 18.1973C79.3201 18.0391 79.6717 17.79 79.9119 17.4502C80.1521 17.1104 80.2723 16.6621 80.2723 16.1055C80.2723 15.3613 80.0467 14.8076 79.5955 14.4443C79.1502 14.0811 78.4529 13.8994 77.5037 13.8994ZM85.9465 25H83.8723V11.3242H85.9465V25ZM91.8141 15.0859C93.0445 15.0859 93.9732 15.3584 94.6002 15.9033C95.233 16.4482 95.5494 17.2979 95.5494 18.4521V25H94.0816L93.6861 23.6201H93.6158C93.3404 23.9717 93.0563 24.2617 92.7633 24.4902C92.4703 24.7188 92.1305 24.8887 91.7438 25C91.3629 25.1172 90.8971 25.1758 90.3463 25.1758C89.7662 25.1758 89.2477 25.0703 88.7906 24.8594C88.3336 24.6426 87.9732 24.3145 87.7096 23.875C87.4459 23.4355 87.3141 22.8789 87.3141 22.2051C87.3141 21.2031 87.6861 20.4502 88.4303 19.9463C89.1803 19.4424 90.3111 19.1641 91.8229 19.1113L93.5104 19.0498V18.54C93.5104 17.8662 93.3521 17.3857 93.0357 17.0986C92.7252 16.8115 92.2857 16.668 91.7174 16.668C91.2311 16.668 90.7594 16.7383 90.3023 16.8789C89.8453 17.0195 89.4 17.1924 88.9664 17.3975L88.2984 15.9385C88.773 15.6865 89.3121 15.4814 89.9156 15.3232C90.525 15.165 91.1578 15.0859 91.8141 15.0859ZM93.5016 20.3506L92.2447 20.3945C91.2135 20.4297 90.4898 20.6055 90.0738 20.9219C89.6578 21.2383 89.4498 21.6719 89.4498 22.2227C89.4498 22.7031 89.5934 23.0547 89.8805 23.2773C90.1676 23.4941 90.5455 23.6025 91.0143 23.6025C91.7291 23.6025 92.3209 23.4004 92.7896 22.9961C93.2643 22.5859 93.5016 21.9854 93.5016 21.1943V20.3506ZM102.612 15.0859C103.708 15.0859 104.561 15.3701 105.17 15.9385C105.785 16.501 106.093 17.4062 106.093 18.6543V25H104.027V19.041C104.027 18.2852 103.872 17.7197 103.562 17.3447C103.251 16.9639 102.771 16.7734 102.12 16.7734C101.177 16.7734 100.521 17.0635 100.151 17.6436C99.7881 18.2236 99.6064 19.0645 99.6064 20.166V25H97.541V15.2705H99.1494L99.4395 16.5889H99.5537C99.7646 16.249 100.025 15.9707 100.336 15.7539C100.652 15.5312 101.004 15.3643 101.391 15.2529C101.783 15.1416 102.19 15.0859 102.612 15.0859ZM113.156 15.0859C114.251 15.0859 115.104 15.3701 115.713 15.9385C116.329 16.501 116.636 17.4062 116.636 18.6543V25H114.571V19.041C114.571 18.2852 114.415 17.7197 114.105 17.3447C113.794 16.9639 113.314 16.7734 112.663 16.7734C111.72 16.7734 111.064 17.0635 110.695 17.6436C110.331 18.2236 110.15 19.0645 110.15 20.166V25H108.084V15.2705H109.693L109.983 16.5889H110.097C110.308 16.249 110.569 15.9707 110.879 15.7539C111.196 15.5312 111.547 15.3643 111.934 15.2529C112.327 15.1416 112.734 15.0859 113.156 15.0859ZM120.693 15.2705V25H118.628V15.2705H120.693ZM119.674 11.5439C119.99 11.5439 120.262 11.6289 120.491 11.7988C120.725 11.9688 120.843 12.2617 120.843 12.6777C120.843 13.0879 120.725 13.3809 120.491 13.5566C120.262 13.7266 119.99 13.8115 119.674 13.8115C119.346 13.8115 119.067 13.7266 118.839 13.5566C118.616 13.3809 118.505 13.0879 118.505 12.6777C118.505 12.2617 118.616 11.9688 118.839 11.7988C119.067 11.6289 119.346 11.5439 119.674 11.5439ZM127.826 15.0859C128.922 15.0859 129.775 15.3701 130.384 15.9385C130.999 16.501 131.307 17.4062 131.307 18.6543V25H129.241V19.041C129.241 18.2852 129.086 17.7197 128.776 17.3447C128.465 16.9639 127.985 16.7734 127.334 16.7734C126.391 16.7734 125.735 17.0635 125.365 17.6436C125.002 18.2236 124.821 19.0645 124.821 20.166V25H122.755V15.2705H124.363L124.654 16.5889H124.768C124.979 16.249 125.239 15.9707 125.55 15.7539C125.866 15.5312 126.218 15.3643 126.605 15.2529C126.997 15.1416 127.404 15.0859 127.826 15.0859ZM136.076 29.3242C134.757 29.3242 133.747 29.0869 133.044 28.6123C132.34 28.1377 131.989 27.4727 131.989 26.6172C131.989 26.0195 132.176 25.5127 132.551 25.0967C132.926 24.6865 133.462 24.4023 134.16 24.2441C133.896 24.127 133.668 23.9453 133.474 23.6992C133.287 23.4473 133.193 23.1689 133.193 22.8643C133.193 22.501 133.296 22.1904 133.501 21.9326C133.706 21.6748 134.013 21.4258 134.423 21.1855C133.914 20.9688 133.504 20.6172 133.193 20.1309C132.888 19.6387 132.736 19.0615 132.736 18.3994C132.736 17.6963 132.885 17.0986 133.184 16.6064C133.483 16.1084 133.92 15.7305 134.494 15.4727C135.068 15.209 135.762 15.0771 136.577 15.0771C136.753 15.0771 136.943 15.0889 137.148 15.1123C137.359 15.1299 137.552 15.1533 137.728 15.1826C137.91 15.2061 138.047 15.2324 138.141 15.2617H141.507V16.4131L139.855 16.7207C140.013 16.9434 140.139 17.1982 140.233 17.4854C140.327 17.7666 140.374 18.0742 140.374 18.4082C140.374 19.416 140.025 20.21 139.328 20.79C138.636 21.3643 137.681 21.6514 136.462 21.6514C136.17 21.6396 135.885 21.6162 135.61 21.5811C135.399 21.71 135.238 21.8535 135.127 22.0117C135.015 22.1641 134.96 22.3369 134.96 22.5303C134.96 22.6885 135.015 22.8174 135.127 22.917C135.238 23.0107 135.402 23.0811 135.619 23.1279C135.841 23.1748 136.111 23.1982 136.427 23.1982H138.106C139.172 23.1982 139.987 23.4238 140.549 23.875C141.112 24.3262 141.393 24.9883 141.393 25.8613C141.393 26.9688 140.936 27.8213 140.022 28.4189C139.108 29.0225 137.793 29.3242 136.076 29.3242ZM136.155 27.874C136.876 27.874 137.482 27.8037 137.974 27.6631C138.466 27.5225 138.838 27.3203 139.09 27.0566C139.342 26.7988 139.468 26.4912 139.468 26.1338C139.468 25.8174 139.389 25.5742 139.231 25.4043C139.073 25.2344 138.836 25.1172 138.519 25.0527C138.203 24.9883 137.81 24.9561 137.341 24.9561H135.812C135.431 24.9561 135.094 25.0146 134.801 25.1318C134.508 25.2549 134.28 25.4307 134.116 25.6592C133.958 25.8877 133.879 26.1631 133.879 26.4854C133.879 26.9307 134.075 27.2734 134.467 27.5137C134.866 27.7539 135.428 27.874 136.155 27.874ZM136.559 20.2979C137.163 20.2979 137.611 20.1338 137.904 19.8057C138.197 19.4717 138.343 19.0029 138.343 18.3994C138.343 17.7432 138.191 17.251 137.886 16.9229C137.587 16.5947 137.142 16.4307 136.55 16.4307C135.97 16.4307 135.528 16.5977 135.223 16.9316C134.924 17.2656 134.775 17.7607 134.775 18.417C134.775 19.0088 134.924 19.4717 135.223 19.8057C135.528 20.1338 135.973 20.2979 136.559 20.2979Z" class="logo-text"/>
</svg>
