<svg width="162" height="30" viewBox="0 0 162 30" fill="none" xmlns="http://www.w3.org/2000/svg">
<path d="M3.65277 7.8974H2.0514V1.78668H0V0.476562H5.70418V1.78595H3.65277V7.89666V7.8974Z" class="logo-accent"/>
<path d="M8.56749 2.11597C8.647 2.11597 8.7385 2.12039 8.84426 2.1285C8.94927 2.13734 9.03478 2.14766 9.10003 2.16166L8.98152 3.61325C8.92977 3.59631 8.85626 3.58378 8.76175 3.57494C8.66725 3.56683 8.58549 3.56241 8.51648 3.56241C8.31322 3.56241 8.11596 3.5882 7.92469 3.63831C7.73343 3.68915 7.56241 3.77094 7.4109 3.88442C7.25939 3.99789 7.13938 4.14673 7.05163 4.33095C6.96387 4.51516 6.91962 4.74137 6.91962 5.00885V7.89657H5.34375V2.22281H6.53709L6.76961 3.17704H6.84686C6.96087 2.98398 7.10263 2.80714 7.27289 2.6465C7.44316 2.48587 7.63817 2.35692 7.85644 2.26039C8.07545 2.16387 8.31172 2.11523 8.56674 2.11523L8.56749 2.11597Z" class="logo-accent"/>
<path d="M10.2284 0C10.4624 0 10.6642 0.0530533 10.833 0.159897C11.0017 0.26674 11.0865 0.464954 11.0865 0.75601C11.0865 1.04707 11.0017 1.24233 10.833 1.35212C10.6642 1.46191 10.4624 1.51718 10.2284 1.51718C9.99439 1.51718 9.78812 1.46191 9.62161 1.35212C9.45435 1.24233 9.37109 1.04338 9.37109 0.75601C9.37109 0.468638 9.45435 0.266004 9.62161 0.159897C9.78887 0.0530533 9.99139 0 10.2284 0ZM11.0137 2.22308V7.89758H9.43785V2.22308H11.0137Z" class="logo-accent"/>
<path d="M18.7239 2.11621C19.378 2.11621 19.8738 2.28127 20.209 2.61138C20.5451 2.94148 20.7131 3.46981 20.7131 4.19782V7.89755H19.132V4.58319C19.132 4.17719 19.0615 3.87066 18.9204 3.66434C18.7794 3.45802 18.5604 3.35486 18.2641 3.35486C17.8471 3.35486 17.5508 3.50149 17.3753 3.79402C17.1998 4.08655 17.1121 4.50508 17.1121 5.05035V7.89755H15.5362V4.58319C15.5362 4.31277 15.5054 4.08582 15.4432 3.90308C15.3809 3.72034 15.2864 3.58328 15.1589 3.49191C15.0314 3.40054 14.8679 3.35486 14.6684 3.35486C14.3759 3.35486 14.1456 3.42707 13.9783 3.57076C13.8111 3.71444 13.6926 3.92592 13.6221 4.20519C13.5515 4.48445 13.5163 4.82488 13.5163 5.22794V7.89755H11.9404V2.22305H13.1443L13.3558 2.94885H13.4435C13.5605 2.75285 13.7076 2.59369 13.8853 2.47211C14.0623 2.35053 14.2581 2.26063 14.4719 2.20316C14.6856 2.14569 14.9024 2.11695 15.1229 2.11695C15.5467 2.11695 15.906 2.18474 16.2 2.32032C16.4948 2.4559 16.7213 2.66517 16.8795 2.94959H17.0191C17.1916 2.65853 17.4346 2.44706 17.7504 2.31516C18.0654 2.18326 18.3902 2.11695 18.7239 2.11695V2.11621Z" class="logo-accent"/>
<path d="M23.1845 0V1.83771C23.1845 2.05066 23.1785 2.26213 23.1665 2.47214C23.1545 2.68214 23.1395 2.84425 23.1222 2.9592H23.1845C23.336 2.72561 23.543 2.52666 23.8048 2.36308C24.0666 2.19877 24.4056 2.11698 24.8226 2.11698C25.4699 2.11698 25.9957 2.36603 26.3985 2.86341C26.8013 3.36078 27.003 4.09026 27.003 5.05112C27.003 5.69734 26.91 6.23966 26.724 6.67809C26.538 7.11651 26.2777 7.44662 25.9439 7.66768C25.6102 7.88947 25.2224 8 24.7814 8C24.3403 8 24.0238 7.92558 23.7793 7.77673C23.5348 7.62789 23.3368 7.46062 23.1852 7.2742H23.0765L22.8132 7.89831H21.6094V0H23.1852H23.1845ZM24.3156 3.35489C24.0403 3.35489 23.8213 3.41089 23.6593 3.52215C23.4973 3.63415 23.3795 3.80142 23.3053 4.02468C23.231 4.24795 23.1905 4.5309 23.1837 4.87206V5.03933C23.1837 5.59123 23.2662 6.01345 23.432 6.30598C23.597 6.59851 23.8985 6.74514 24.3358 6.74514C24.6599 6.74514 24.9171 6.59777 25.1084 6.30377C25.2997 6.00903 25.3949 5.5846 25.3949 5.02975C25.3949 4.4749 25.2981 4.05711 25.1054 3.77563C24.9126 3.49489 24.6486 3.35415 24.3148 3.35415L24.3156 3.35489Z" class="logo-accent"/>
<path d="M29.2272 7.89758H27.6514V0H29.2272V7.89758Z" class="logo-accent"/>
<path d="M32.5881 2.11621C33.1222 2.11621 33.582 2.21716 33.9675 2.41832C34.353 2.61948 34.6508 2.91127 34.8616 3.2937C35.0716 3.67613 35.1766 4.14329 35.1766 4.69446V5.44531H31.4518C31.4691 5.88226 31.6026 6.22416 31.8523 6.47322C32.1021 6.72153 32.4494 6.84606 32.8934 6.84606C33.2617 6.84606 33.5992 6.80922 33.906 6.7348C34.2128 6.66038 34.5278 6.54837 34.8518 6.39953V7.59765C34.566 7.73618 34.2668 7.83786 33.9555 7.90197C33.6435 7.96608 33.2654 7.9985 32.8214 7.9985C32.2431 7.9985 31.7301 7.89387 31.2845 7.68386C30.8383 7.47386 30.4887 7.15407 30.236 6.72448C29.9825 6.2949 29.8564 5.75331 29.8564 5.10046C29.8564 4.44761 29.9712 3.88466 30.2 3.44328C30.4287 3.00191 30.7483 2.67032 31.1585 2.44853C31.5681 2.22674 32.0451 2.11621 32.5896 2.11621H32.5881ZM32.5986 3.2178C32.2919 3.2178 32.0384 3.31433 31.8366 3.50739C31.6348 3.69971 31.5186 4.00329 31.4878 4.41593H33.699C33.6952 4.18603 33.6532 3.98118 33.5722 3.80139C33.4912 3.62234 33.3705 3.48012 33.2107 3.37475C33.0502 3.27012 32.8462 3.2178 32.5986 3.2178Z" class="logo-accent"/>
<path d="M35.5782 7.23467C35.5737 6.85298 35.8849 6.53982 36.2735 6.53613C36.2787 6.53613 36.284 6.53613 36.2892 6.53613C36.6823 6.53613 37.0003 6.8493 37.0003 7.23467C37.0003 7.62078 36.6815 7.9332 36.2892 7.9332C35.8962 7.9332 35.5782 7.62004 35.5782 7.23467ZM36.8713 7.23467C36.8653 6.91782 36.5997 6.66508 36.2772 6.67098C35.9547 6.67687 35.6974 6.93772 35.7034 7.25456C35.7087 7.56846 35.9705 7.81973 36.29 7.81825C36.611 7.81825 36.872 7.56257 36.872 7.24646C36.872 7.24204 36.872 7.23835 36.872 7.23393L36.8713 7.23467ZM36.0132 6.83677H36.3042C36.488 6.83677 36.5952 6.91487 36.5952 7.07109C36.6042 7.16983 36.5405 7.2612 36.443 7.28772L36.611 7.60162H36.4482L36.2915 7.30909H36.1685V7.60162H36.0125V6.83677H36.0132ZM36.2952 7.19193C36.3905 7.19193 36.443 7.16172 36.443 7.07993C36.443 6.99814 36.3905 6.96793 36.2915 6.96793H36.1685V7.19119H36.2945L36.2952 7.19193Z" class="logo-accent"/>
<path d="M8.96484 25H1.6875V12.1504H8.96484V13.9258H3.79688V17.415H8.63965V19.1816H3.79688V23.2158H8.96484V25ZM17.1703 22.2227C17.1703 22.8613 17.015 23.4004 16.7045 23.8398C16.3939 24.2793 15.9398 24.6133 15.3422 24.8418C14.7504 25.0645 14.0238 25.1758 13.1625 25.1758C12.4828 25.1758 11.8969 25.126 11.4047 25.0264C10.9184 24.9326 10.4584 24.7861 10.0248 24.5869V22.8027C10.4877 23.0195 11.0063 23.207 11.5805 23.3652C12.1605 23.5234 12.7084 23.6025 13.224 23.6025C13.9037 23.6025 14.393 23.4971 14.6918 23.2861C14.9906 23.0693 15.14 22.7822 15.14 22.4248C15.14 22.2139 15.0785 22.0264 14.9555 21.8623C14.8383 21.6924 14.6156 21.5195 14.2875 21.3438C13.9652 21.1621 13.4906 20.9453 12.8637 20.6934C12.2484 20.4473 11.7299 20.2012 11.308 19.9551C10.8861 19.709 10.5668 19.4131 10.35 19.0674C10.1332 18.7158 10.0248 18.2676 10.0248 17.7227C10.0248 16.8613 10.3646 16.208 11.0443 15.7627C11.7299 15.3115 12.6352 15.0859 13.7602 15.0859C14.3578 15.0859 14.9203 15.1475 15.4477 15.2705C15.9809 15.3877 16.5023 15.5605 17.0121 15.7891L16.3617 17.3447C15.9223 17.1514 15.4799 16.9932 15.0346 16.8701C14.5951 16.7412 14.1469 16.6768 13.6898 16.6768C13.1566 16.6768 12.7494 16.7588 12.4682 16.9229C12.1928 17.0869 12.0551 17.3213 12.0551 17.626C12.0551 17.8545 12.1225 18.0479 12.2572 18.2061C12.392 18.3643 12.6234 18.5225 12.9516 18.6807C13.2855 18.8389 13.7484 19.0352 14.3402 19.2695C14.9203 19.4922 15.4213 19.7266 15.8432 19.9727C16.2709 20.2129 16.599 20.5088 16.8275 20.8604C17.0561 21.2119 17.1703 21.666 17.1703 22.2227ZM22.1238 23.5059C22.3934 23.5059 22.66 23.4824 22.9236 23.4355C23.1873 23.3828 23.4275 23.3213 23.6443 23.251V24.8154C23.4158 24.915 23.1199 25 22.7566 25.0703C22.3934 25.1406 22.0154 25.1758 21.6229 25.1758C21.0721 25.1758 20.577 25.085 20.1375 24.9033C19.698 24.7158 19.3494 24.3965 19.0916 23.9453C18.8338 23.4941 18.7049 22.8701 18.7049 22.0732V16.8438H17.3777V15.9209L18.8016 15.1914L19.4783 13.1084H20.7791V15.2705H23.5652V16.8438H20.7791V22.0469C20.7791 22.5391 20.9021 22.9053 21.1482 23.1455C21.3943 23.3857 21.7195 23.5059 22.1238 23.5059ZM26.7873 15.2705V25H24.7219V15.2705H26.7873ZM25.7678 11.5439C26.0842 11.5439 26.3566 11.6289 26.5852 11.7988C26.8195 11.9688 26.9367 12.2617 26.9367 12.6777C26.9367 13.0879 26.8195 13.3809 26.5852 13.5566C26.3566 13.7266 26.0842 13.8115 25.7678 13.8115C25.4396 13.8115 25.1613 13.7266 24.9328 13.5566C24.7102 13.3809 24.5988 13.0879 24.5988 12.6777C24.5988 12.2617 24.7102 11.9688 24.9328 11.7988C25.1613 11.6289 25.4396 11.5439 25.7678 11.5439ZM39.8443 15.0859C40.9342 15.0859 41.7545 15.3672 42.3053 15.9297C42.8619 16.4922 43.1402 17.3945 43.1402 18.6367V25H41.0748V19.0059C41.0748 18.2676 40.9312 17.7109 40.6441 17.3359C40.357 16.9609 39.9205 16.7734 39.3346 16.7734C38.5143 16.7734 37.9225 17.0371 37.5592 17.5645C37.2018 18.0859 37.023 18.8447 37.023 19.8408V25H34.9576V19.0059C34.9576 18.5137 34.8932 18.1035 34.7643 17.7754C34.6412 17.4414 34.4508 17.1924 34.193 17.0283C33.9352 16.8584 33.61 16.7734 33.2174 16.7734C32.649 16.7734 32.1949 16.9023 31.8551 17.1602C31.5211 17.418 31.2809 17.7988 31.1344 18.3027C30.9879 18.8008 30.9146 19.4131 30.9146 20.1396V25H28.8492V15.2705H30.4576L30.7477 16.5801H30.8619C31.0611 16.2402 31.3072 15.9619 31.6002 15.7451C31.899 15.5225 32.2301 15.3584 32.5934 15.2529C32.9566 15.1416 33.3346 15.0859 33.7271 15.0859C34.4537 15.0859 35.066 15.2148 35.5641 15.4727C36.0621 15.7246 36.4342 16.1113 36.6803 16.6328H36.8385C37.1432 16.1055 37.568 15.7158 38.1129 15.4639C38.6578 15.2119 39.235 15.0859 39.8443 15.0859ZM48.9375 15.0859C50.168 15.0859 51.0967 15.3584 51.7236 15.9033C52.3564 16.4482 52.6729 17.2979 52.6729 18.4521V25H51.2051L50.8096 23.6201H50.7393C50.4639 23.9717 50.1797 24.2617 49.8867 24.4902C49.5938 24.7188 49.2539 24.8887 48.8672 25C48.4863 25.1172 48.0205 25.1758 47.4697 25.1758C46.8896 25.1758 46.3711 25.0703 45.9141 24.8594C45.457 24.6426 45.0967 24.3145 44.833 23.875C44.5693 23.4355 44.4375 22.8789 44.4375 22.2051C44.4375 21.2031 44.8096 20.4502 45.5537 19.9463C46.3037 19.4424 47.4346 19.1641 48.9463 19.1113L50.6338 19.0498V18.54C50.6338 17.8662 50.4756 17.3857 50.1592 17.0986C49.8486 16.8115 49.4092 16.668 48.8408 16.668C48.3545 16.668 47.8828 16.7383 47.4258 16.8789C46.9688 17.0195 46.5234 17.1924 46.0898 17.3975L45.4219 15.9385C45.8965 15.6865 46.4355 15.4814 47.0391 15.3232C47.6484 15.165 48.2812 15.0859 48.9375 15.0859ZM50.625 20.3506L49.3682 20.3945C48.3369 20.4297 47.6133 20.6055 47.1973 20.9219C46.7812 21.2383 46.5732 21.6719 46.5732 22.2227C46.5732 22.7031 46.7168 23.0547 47.0039 23.2773C47.291 23.4941 47.6689 23.6025 48.1377 23.6025C48.8525 23.6025 49.4443 23.4004 49.9131 22.9961C50.3877 22.5859 50.625 21.9854 50.625 21.1943V20.3506ZM58.2855 23.5059C58.5551 23.5059 58.8217 23.4824 59.0854 23.4355C59.349 23.3828 59.5893 23.3213 59.8061 23.251V24.8154C59.5775 24.915 59.2816 25 58.9184 25.0703C58.5551 25.1406 58.1771 25.1758 57.7846 25.1758C57.2338 25.1758 56.7387 25.085 56.2992 24.9033C55.8598 24.7158 55.5111 24.3965 55.2533 23.9453C54.9955 23.4941 54.8666 22.8701 54.8666 22.0732V16.8438H53.5395V15.9209L54.9633 15.1914L55.64 13.1084H56.9408V15.2705H59.727V16.8438H56.9408V22.0469C56.9408 22.5391 57.0639 22.9053 57.31 23.1455C57.5561 23.3857 57.8812 23.5059 58.2855 23.5059ZM62.949 15.2705V25H60.8836V15.2705H62.949ZM61.9295 11.5439C62.2459 11.5439 62.5184 11.6289 62.7469 11.7988C62.9813 11.9688 63.0984 12.2617 63.0984 12.6777C63.0984 13.0879 62.9813 13.3809 62.7469 13.5566C62.5184 13.7266 62.2459 13.8115 61.9295 13.8115C61.6014 13.8115 61.323 13.7266 61.0945 13.5566C60.8719 13.3809 60.7605 13.0879 60.7605 12.6777C60.7605 12.2617 60.8719 11.9688 61.0945 11.7988C61.323 11.6289 61.6014 11.5439 61.9295 11.5439ZM73.6242 20.1133C73.6242 20.9219 73.5187 21.6396 73.3078 22.2666C73.0969 22.8936 72.7893 23.4238 72.385 23.8574C71.9807 24.2852 71.4943 24.6133 70.926 24.8418C70.3576 25.0645 69.716 25.1758 69.0012 25.1758C68.3332 25.1758 67.7209 25.0645 67.1643 24.8418C66.6076 24.6133 66.1242 24.2852 65.7141 23.8574C65.3098 23.4238 64.9963 22.8936 64.7736 22.2666C64.551 21.6396 64.4396 20.9219 64.4396 20.1133C64.4396 19.041 64.6242 18.1328 64.9934 17.3887C65.3684 16.6387 65.9016 16.0674 66.593 15.6748C67.2844 15.2822 68.1076 15.0859 69.0627 15.0859C69.9592 15.0859 70.7502 15.2822 71.4357 15.6748C72.1213 16.0674 72.6574 16.6387 73.0441 17.3887C73.4309 18.1387 73.6242 19.0469 73.6242 20.1133ZM66.5666 20.1133C66.5666 20.8223 66.6516 21.4287 66.8215 21.9326C66.9973 22.4365 67.2668 22.8232 67.6301 23.0928C67.9934 23.3564 68.4621 23.4883 69.0363 23.4883C69.6105 23.4883 70.0793 23.3564 70.4426 23.0928C70.8059 22.8232 71.0725 22.4365 71.2424 21.9326C71.4123 21.4287 71.4973 20.8223 71.4973 20.1133C71.4973 19.4043 71.4123 18.8037 71.2424 18.3115C71.0725 17.8135 70.8059 17.4355 70.4426 17.1777C70.0793 16.9141 69.6076 16.7822 69.0275 16.7822C68.1721 16.7822 67.548 17.0693 67.1555 17.6436C66.7629 18.2178 66.5666 19.041 66.5666 20.1133ZM80.1686 15.0859C81.2643 15.0859 82.1168 15.3701 82.7262 15.9385C83.3414 16.501 83.649 17.4062 83.649 18.6543V25H81.5836V19.041C81.5836 18.2852 81.4283 17.7197 81.1178 17.3447C80.8072 16.9639 80.3268 16.7734 79.6764 16.7734C78.733 16.7734 78.0768 17.0635 77.7076 17.6436C77.3443 18.2236 77.1627 19.0645 77.1627 20.166V25H75.0973V15.2705H76.7057L76.9957 16.5889H77.11C77.3209 16.249 77.5816 15.9707 77.8922 15.7539C78.2086 15.5312 78.5602 15.3643 78.9469 15.2529C79.3395 15.1416 79.7467 15.0859 80.1686 15.0859Z" class="logo-text"/>
<path d="M97.2686 12.7832C96.4482 12.7832 95.7158 12.9238 95.0713 13.2051C94.4268 13.4805 93.8818 13.873 93.4365 14.3828C92.9912 14.8926 92.6514 15.502 92.417 16.2109C92.1826 16.9141 92.0654 17.6904 92.0654 18.54C92.0654 19.7119 92.25 20.7373 92.6191 21.6162C92.9883 22.4893 93.542 23.166 94.2803 23.6465C95.0244 24.127 95.9502 24.3672 97.0576 24.3672C97.7021 24.3672 98.2881 24.3203 98.8154 24.2266C99.3428 24.127 99.832 24.001 100.283 23.8486V24.6396C99.8555 24.7979 99.3721 24.9268 98.833 25.0264C98.2998 25.126 97.6787 25.1758 96.9697 25.1758C95.6865 25.1758 94.6084 24.9004 93.7354 24.3496C92.8682 23.7988 92.2148 23.0254 91.7754 22.0293C91.3359 21.0332 91.1162 19.8701 91.1162 18.54C91.1162 17.585 91.2539 16.709 91.5293 15.9121C91.8047 15.1094 92.2061 14.415 92.7334 13.8291C93.2666 13.2373 93.9141 12.7803 94.6758 12.458C95.4375 12.1299 96.3047 11.9658 97.2773 11.9658C97.8926 11.9658 98.4785 12.0273 99.0352 12.1504C99.5977 12.2676 100.125 12.4404 100.617 12.6689L100.266 13.46C99.791 13.2256 99.3047 13.0557 98.8066 12.9502C98.3086 12.8389 97.7959 12.7832 97.2686 12.7832ZM109.789 20.21C109.789 20.9482 109.699 21.6221 109.517 22.2314C109.335 22.835 109.066 23.3564 108.708 23.7959C108.351 24.2354 107.906 24.5752 107.372 24.8154C106.845 25.0557 106.23 25.1758 105.527 25.1758C104.859 25.1758 104.264 25.0586 103.743 24.8242C103.221 24.584 102.779 24.2441 102.415 23.8047C102.058 23.3652 101.786 22.8438 101.598 22.2402C101.411 21.6309 101.317 20.9541 101.317 20.21C101.317 19.1846 101.487 18.3027 101.827 17.5645C102.172 16.8203 102.664 16.252 103.303 15.8594C103.948 15.4609 104.718 15.2617 105.615 15.2617C106.54 15.2617 107.311 15.4727 107.926 15.8945C108.547 16.3105 109.013 16.8906 109.324 17.6348C109.634 18.3789 109.789 19.2373 109.789 20.21ZM102.231 20.21C102.231 21.0479 102.351 21.7803 102.591 22.4072C102.831 23.0342 103.195 23.5234 103.681 23.875C104.173 24.2266 104.794 24.4023 105.544 24.4023C106.312 24.4023 106.942 24.2266 107.434 23.875C107.926 23.5234 108.289 23.0312 108.524 22.3984C108.758 21.7656 108.875 21.0361 108.875 20.21C108.875 19.4072 108.764 18.6924 108.541 18.0654C108.319 17.4385 107.967 16.9463 107.487 16.5889C107.006 16.2256 106.379 16.0439 105.606 16.0439C104.498 16.0439 103.658 16.4131 103.083 17.1514C102.515 17.8896 102.231 18.9092 102.231 20.21ZM115.736 15.2617C116.808 15.2617 117.632 15.543 118.206 16.1055C118.78 16.668 119.067 17.5498 119.067 18.751V25H118.188V18.8037C118.188 17.8545 117.971 17.1572 117.538 16.7119C117.104 16.2666 116.474 16.0439 115.648 16.0439C114.599 16.0439 113.797 16.3516 113.24 16.9668C112.689 17.5762 112.414 18.499 112.414 19.7354V25H111.526V15.4463H112.247L112.379 17.1865H112.431C112.601 16.8291 112.833 16.5068 113.126 16.2197C113.425 15.9268 113.791 15.6953 114.224 15.5254C114.658 15.3496 115.162 15.2617 115.736 15.2617ZM127.237 22.4951C127.237 23.0635 127.094 23.5498 126.807 23.9541C126.526 24.3525 126.112 24.6572 125.568 24.8682C125.023 25.0732 124.352 25.1758 123.555 25.1758C122.893 25.1758 122.301 25.1172 121.779 25C121.258 24.8828 120.821 24.7393 120.47 24.5693V23.6904C120.909 23.9072 121.396 24.083 121.929 24.2178C122.462 24.3525 123.01 24.4199 123.572 24.4199C124.557 24.4199 125.266 24.2529 125.699 23.9189C126.133 23.585 126.35 23.1279 126.35 22.5479C126.35 22.167 126.241 21.8535 126.025 21.6074C125.814 21.3555 125.509 21.1387 125.111 20.957C124.712 20.7754 124.232 20.5908 123.669 20.4033C123.083 20.2041 122.562 20.0078 122.105 19.8145C121.654 19.6152 121.299 19.3545 121.041 19.0322C120.783 18.7041 120.654 18.2588 120.654 17.6963C120.654 16.9287 120.962 16.3311 121.577 15.9033C122.193 15.4756 123.019 15.2617 124.056 15.2617C124.63 15.2617 125.163 15.3174 125.655 15.4287C126.154 15.5342 126.605 15.6719 127.009 15.8418L126.693 16.5977C126.329 16.4277 125.91 16.29 125.436 16.1846C124.961 16.0791 124.487 16.0264 124.012 16.0264C123.233 16.0264 122.623 16.1641 122.184 16.4395C121.744 16.7148 121.525 17.1191 121.525 17.6523C121.525 18.0625 121.63 18.3848 121.841 18.6191C122.052 18.8477 122.354 19.041 122.746 19.1992C123.139 19.3516 123.605 19.5215 124.144 19.709C124.7 19.9023 125.213 20.1045 125.682 20.3154C126.156 20.5264 126.534 20.7988 126.816 21.1328C127.097 21.4668 127.237 21.9209 127.237 22.4951ZM131.33 24.4111C131.605 24.4111 131.86 24.3906 132.094 24.3496C132.335 24.3086 132.546 24.2559 132.727 24.1914V24.9297C132.54 24.9941 132.32 25.0498 132.068 25.0967C131.816 25.1494 131.538 25.1758 131.233 25.1758C130.694 25.1758 130.246 25.0762 129.888 24.877C129.531 24.6719 129.261 24.3643 129.08 23.9541C128.898 23.5381 128.807 23.0107 128.807 22.3721V16.1846H127.383V15.6572L128.798 15.3848L129.106 13.1348H129.695V15.4463H132.674V16.1846H129.695V22.3193C129.695 23.0049 129.821 23.5264 130.073 23.8838C130.331 24.2354 130.75 24.4111 131.33 24.4111ZM137.681 15.2793C137.933 15.2793 138.17 15.2939 138.393 15.3232C138.615 15.3525 138.823 15.3936 139.017 15.4463L138.876 16.2637C138.683 16.2109 138.486 16.1729 138.287 16.1494C138.088 16.1201 137.874 16.1055 137.646 16.1055C137.194 16.1055 136.79 16.1904 136.433 16.3604C136.081 16.5303 135.782 16.7734 135.536 17.0898C135.29 17.4062 135.103 17.7871 134.974 18.2324C134.845 18.6777 134.78 19.1758 134.78 19.7266V25H133.884V15.4463H134.648L134.736 17.248H134.789C134.936 16.8789 135.141 16.5479 135.404 16.2549C135.674 15.9561 135.999 15.7188 136.38 15.543C136.761 15.3672 137.194 15.2793 137.681 15.2793ZM147.415 15.4463V25H146.695L146.563 23.2773H146.51C146.346 23.6289 146.115 23.9482 145.816 24.2354C145.517 24.5225 145.151 24.751 144.717 24.9209C144.284 25.0908 143.78 25.1758 143.205 25.1758C142.473 25.1758 141.858 25.0498 141.36 24.7979C140.868 24.54 140.496 24.1533 140.244 23.6377C139.992 23.1221 139.866 22.4775 139.866 21.7041V15.4463H140.753V21.6162C140.753 22.5713 140.967 23.2744 141.395 23.7256C141.829 24.1768 142.461 24.4023 143.293 24.4023C143.996 24.4023 144.585 24.2676 145.06 23.998C145.54 23.7285 145.904 23.3213 146.15 22.7764C146.402 22.2256 146.528 21.54 146.528 20.7197V15.4463H147.415ZM153.555 25.1758C152.606 25.1758 151.804 24.9795 151.147 24.5869C150.497 24.1885 150.005 23.623 149.671 22.8906C149.343 22.1523 149.179 21.2793 149.179 20.2715C149.179 19.2227 149.369 18.3262 149.75 17.582C150.131 16.832 150.667 16.2578 151.358 15.8594C152.05 15.4609 152.861 15.2617 153.793 15.2617C154.25 15.2617 154.675 15.3027 155.067 15.3848C155.46 15.4668 155.814 15.5811 156.131 15.7275L155.893 16.5098C155.565 16.3633 155.217 16.252 154.847 16.1758C154.478 16.0996 154.124 16.0615 153.784 16.0615C152.999 16.0615 152.331 16.2344 151.78 16.5801C151.235 16.9199 150.816 17.4062 150.523 18.0391C150.236 18.666 150.093 19.4072 150.093 20.2627C150.093 21.0654 150.216 21.7773 150.462 22.3984C150.708 23.0137 151.086 23.5 151.596 23.8574C152.105 24.209 152.759 24.3848 153.555 24.3848C154.018 24.3848 154.458 24.3379 154.874 24.2441C155.296 24.1504 155.679 24.0303 156.025 23.8838V24.6924C155.715 24.833 155.354 24.9473 154.944 25.0352C154.54 25.1289 154.077 25.1758 153.555 25.1758ZM159.968 24.4111C160.243 24.4111 160.498 24.3906 160.733 24.3496C160.973 24.3086 161.184 24.2559 161.365 24.1914V24.9297C161.178 24.9941 160.958 25.0498 160.706 25.0967C160.454 25.1494 160.176 25.1758 159.871 25.1758C159.332 25.1758 158.884 25.0762 158.527 24.877C158.169 24.6719 157.9 24.3643 157.718 23.9541C157.536 23.5381 157.446 23.0107 157.446 22.3721V16.1846H156.022V15.6572L157.437 15.3848L157.744 13.1348H158.333V15.4463H161.313V16.1846H158.333V22.3193C158.333 23.0049 158.459 23.5264 158.711 23.8838C158.969 24.2354 159.388 24.4111 159.968 24.4111Z" class="logo-text"/>
</svg>
