<svg width="90" height="30" viewBox="0 0 90 30" fill="none" xmlns="http://www.w3.org/2000/svg">
<path d="M3.65277 7.8974H2.0514V1.78668H0V0.476562H5.70418V1.78595H3.65277V7.89666V7.8974Z" class="logo-accent"/>
<path d="M8.56749 2.11597C8.647 2.11597 8.7385 2.12039 8.84426 2.1285C8.94927 2.13734 9.03478 2.14766 9.10003 2.16166L8.98152 3.61325C8.92977 3.59631 8.85626 3.58378 8.76175 3.57494C8.66725 3.56683 8.58549 3.56241 8.51648 3.56241C8.31322 3.56241 8.11596 3.5882 7.92469 3.63831C7.73343 3.68915 7.56241 3.77094 7.4109 3.88442C7.25939 3.99789 7.13938 4.14673 7.05163 4.33095C6.96387 4.51516 6.91962 4.74137 6.91962 5.00885V7.89657H5.34375V2.22281H6.53709L6.76961 3.17704H6.84686C6.96087 2.98398 7.10263 2.80714 7.27289 2.6465C7.44316 2.48587 7.63817 2.35692 7.85644 2.26039C8.07545 2.16387 8.31172 2.11523 8.56674 2.11523L8.56749 2.11597Z" class="logo-accent"/>
<path d="M10.2284 0C10.4624 0 10.6642 0.0530533 10.833 0.159897C11.0017 0.26674 11.0865 0.464954 11.0865 0.75601C11.0865 1.04707 11.0017 1.24233 10.833 1.35212C10.6642 1.46191 10.4624 1.51718 10.2284 1.51718C9.99439 1.51718 9.78812 1.46191 9.62161 1.35212C9.45435 1.24233 9.37109 1.04338 9.37109 0.75601C9.37109 0.468638 9.45435 0.266004 9.62161 0.159897C9.78887 0.0530533 9.99139 0 10.2284 0ZM11.0137 2.22308V7.89758H9.43785V2.22308H11.0137Z" class="logo-accent"/>
<path d="M18.7239 2.11621C19.378 2.11621 19.8738 2.28127 20.209 2.61138C20.5451 2.94148 20.7131 3.46981 20.7131 4.19782V7.89755H19.132V4.58319C19.132 4.17719 19.0615 3.87066 18.9204 3.66434C18.7794 3.45802 18.5604 3.35486 18.2641 3.35486C17.8471 3.35486 17.5508 3.50149 17.3753 3.79402C17.1998 4.08655 17.1121 4.50508 17.1121 5.05035V7.89755H15.5362V4.58319C15.5362 4.31277 15.5054 4.08582 15.4432 3.90308C15.3809 3.72034 15.2864 3.58328 15.1589 3.49191C15.0314 3.40054 14.8679 3.35486 14.6684 3.35486C14.3759 3.35486 14.1456 3.42707 13.9783 3.57076C13.8111 3.71444 13.6926 3.92592 13.6221 4.20519C13.5515 4.48445 13.5163 4.82488 13.5163 5.22794V7.89755H11.9404V2.22305H13.1443L13.3558 2.94885H13.4435C13.5605 2.75285 13.7076 2.59369 13.8853 2.47211C14.0623 2.35053 14.2581 2.26063 14.4719 2.20316C14.6856 2.14569 14.9024 2.11695 15.1229 2.11695C15.5467 2.11695 15.906 2.18474 16.2 2.32032C16.4948 2.4559 16.7213 2.66517 16.8795 2.94959H17.0191C17.1916 2.65853 17.4346 2.44706 17.7504 2.31516C18.0654 2.18326 18.3902 2.11695 18.7239 2.11695V2.11621Z" class="logo-accent"/>
<path d="M23.1845 0V1.83771C23.1845 2.05066 23.1785 2.26213 23.1665 2.47214C23.1545 2.68214 23.1395 2.84425 23.1222 2.9592H23.1845C23.336 2.72561 23.543 2.52666 23.8048 2.36308C24.0666 2.19877 24.4056 2.11698 24.8226 2.11698C25.4699 2.11698 25.9957 2.36603 26.3985 2.86341C26.8013 3.36078 27.003 4.09026 27.003 5.05112C27.003 5.69734 26.91 6.23966 26.724 6.67809C26.538 7.11651 26.2777 7.44662 25.9439 7.66768C25.6102 7.88947 25.2224 8 24.7814 8C24.3403 8 24.0238 7.92558 23.7793 7.77673C23.5348 7.62789 23.3368 7.46062 23.1852 7.2742H23.0765L22.8132 7.89831H21.6094V0H23.1852H23.1845ZM24.3156 3.35489C24.0403 3.35489 23.8213 3.41089 23.6593 3.52215C23.4973 3.63415 23.3795 3.80142 23.3053 4.02468C23.231 4.24795 23.1905 4.5309 23.1837 4.87206V5.03933C23.1837 5.59123 23.2662 6.01345 23.432 6.30598C23.597 6.59851 23.8985 6.74514 24.3358 6.74514C24.6599 6.74514 24.9171 6.59777 25.1084 6.30377C25.2997 6.00903 25.3949 5.5846 25.3949 5.02975C25.3949 4.4749 25.2981 4.05711 25.1054 3.77563C24.9126 3.49489 24.6486 3.35415 24.3148 3.35415L24.3156 3.35489Z" class="logo-accent"/>
<path d="M29.2272 7.89758H27.6514V0H29.2272V7.89758Z" class="logo-accent"/>
<path d="M32.5881 2.11621C33.1222 2.11621 33.582 2.21716 33.9675 2.41832C34.353 2.61948 34.6508 2.91127 34.8616 3.2937C35.0716 3.67613 35.1766 4.14329 35.1766 4.69446V5.44531H31.4518C31.4691 5.88226 31.6026 6.22416 31.8523 6.47322C32.1021 6.72153 32.4494 6.84606 32.8934 6.84606C33.2617 6.84606 33.5992 6.80922 33.906 6.7348C34.2128 6.66038 34.5278 6.54837 34.8518 6.39953V7.59765C34.566 7.73618 34.2668 7.83786 33.9555 7.90197C33.6435 7.96608 33.2654 7.9985 32.8214 7.9985C32.2431 7.9985 31.7301 7.89387 31.2845 7.68386C30.8383 7.47386 30.4887 7.15407 30.236 6.72448C29.9825 6.2949 29.8564 5.75331 29.8564 5.10046C29.8564 4.44761 29.9712 3.88466 30.2 3.44328C30.4287 3.00191 30.7483 2.67032 31.1585 2.44853C31.5681 2.22674 32.0451 2.11621 32.5896 2.11621H32.5881ZM32.5986 3.2178C32.2919 3.2178 32.0384 3.31433 31.8366 3.50739C31.6348 3.69971 31.5186 4.00329 31.4878 4.41593H33.699C33.6952 4.18603 33.6532 3.98118 33.5722 3.80139C33.4912 3.62234 33.3705 3.48012 33.2107 3.37475C33.0502 3.27012 32.8462 3.2178 32.5986 3.2178Z" class="logo-accent"/>
<path d="M35.5782 7.23467C35.5737 6.85298 35.8849 6.53982 36.2735 6.53613C36.2787 6.53613 36.284 6.53613 36.2892 6.53613C36.6823 6.53613 37.0003 6.8493 37.0003 7.23467C37.0003 7.62078 36.6815 7.9332 36.2892 7.9332C35.8962 7.9332 35.5782 7.62004 35.5782 7.23467ZM36.8713 7.23467C36.8653 6.91782 36.5997 6.66508 36.2772 6.67098C35.9547 6.67687 35.6974 6.93772 35.7034 7.25456C35.7087 7.56846 35.9705 7.81973 36.29 7.81825C36.611 7.81825 36.872 7.56257 36.872 7.24646C36.872 7.24204 36.872 7.23835 36.872 7.23393L36.8713 7.23467ZM36.0132 6.83677H36.3042C36.488 6.83677 36.5952 6.91487 36.5952 7.07109C36.6042 7.16983 36.5405 7.2612 36.443 7.28772L36.611 7.60162H36.4482L36.2915 7.30909H36.1685V7.60162H36.0125V6.83677H36.0132ZM36.2952 7.19193C36.3905 7.19193 36.443 7.16172 36.443 7.07993C36.443 6.99814 36.3905 6.96793 36.2915 6.96793H36.1685V7.19119H36.2945L36.2952 7.19193Z" class="logo-accent"/>
<path d="M3.7793 25H1.6875V12.1504H8.94727V13.9258H3.7793V17.9336H8.61328V19.7002H3.7793V25ZM13.9887 15.0859C15.2191 15.0859 16.1479 15.3584 16.7748 15.9033C17.4076 16.4482 17.724 17.2979 17.724 18.4521V25H16.2563L15.8607 23.6201H15.7904C15.515 23.9717 15.2309 24.2617 14.9379 24.4902C14.6449 24.7188 14.3051 24.8887 13.9184 25C13.5375 25.1172 13.0717 25.1758 12.5209 25.1758C11.9408 25.1758 11.4223 25.0703 10.9652 24.8594C10.5082 24.6426 10.1479 24.3145 9.88418 23.875C9.62051 23.4355 9.48867 22.8789 9.48867 22.2051C9.48867 21.2031 9.86074 20.4502 10.6049 19.9463C11.3549 19.4424 12.4857 19.1641 13.9975 19.1113L15.685 19.0498V18.54C15.685 17.8662 15.5268 17.3857 15.2104 17.0986C14.8998 16.8115 14.4604 16.668 13.892 16.668C13.4057 16.668 12.934 16.7383 12.477 16.8789C12.0199 17.0195 11.5746 17.1924 11.141 17.3975L10.473 15.9385C10.9477 15.6865 11.4867 15.4814 12.0902 15.3232C12.6996 15.165 13.3324 15.0859 13.9887 15.0859ZM15.6762 20.3506L14.4193 20.3945C13.3881 20.4297 12.6645 20.6055 12.2484 20.9219C11.8324 21.2383 11.6244 21.6719 11.6244 22.2227C11.6244 22.7031 11.768 23.0547 12.0551 23.2773C12.3422 23.4941 12.7201 23.6025 13.1889 23.6025C13.9037 23.6025 14.4955 23.4004 14.9643 22.9961C15.4389 22.5859 15.6762 21.9854 15.6762 21.1943V20.3506ZM21.7811 11.3242V14.6201C21.7811 15.001 21.7693 15.376 21.7459 15.7451C21.7283 16.1084 21.7107 16.3926 21.6932 16.5977H21.7811C22.0447 16.1758 22.4109 15.8213 22.8797 15.5342C23.3543 15.2412 23.9607 15.0947 24.699 15.0947C25.8533 15.0947 26.782 15.5195 27.4852 16.3691C28.1883 17.2129 28.5398 18.4639 28.5398 20.1221C28.5398 21.2236 28.3787 22.1494 28.0564 22.8994C27.7342 23.6494 27.2801 24.2178 26.6941 24.6045C26.1141 24.9854 25.4314 25.1758 24.6463 25.1758C23.908 25.1758 23.3104 25.041 22.8533 24.7715C22.4021 24.4961 22.0477 24.1768 21.7898 23.8135H21.6404L21.2625 25H19.7156V11.3242H21.7811ZM24.1541 16.7734C23.5682 16.7734 23.1023 16.8906 22.7566 17.125C22.4168 17.3594 22.1707 17.7109 22.0184 18.1797C21.866 18.6426 21.7869 19.2314 21.7811 19.9463V20.1309C21.7811 21.2148 21.951 22.0439 22.2908 22.6182C22.6365 23.1924 23.2635 23.4795 24.1717 23.4795C24.8924 23.4795 25.4461 23.1895 25.8328 22.6094C26.2195 22.0234 26.4129 21.1855 26.4129 20.0957C26.4129 18.9941 26.2195 18.165 25.8328 17.6084C25.452 17.0518 24.8924 16.7734 24.1541 16.7734ZM34.9611 15.0859C35.1252 15.0859 35.3039 15.0947 35.4973 15.1123C35.6906 15.1299 35.8576 15.1533 35.9982 15.1826L35.8049 17.1162C35.6818 17.0811 35.5295 17.0547 35.3479 17.0371C35.1721 17.0195 35.0139 17.0107 34.8732 17.0107C34.5041 17.0107 34.1525 17.0723 33.8186 17.1953C33.4846 17.3125 33.1887 17.4941 32.9309 17.7402C32.673 17.9805 32.4709 18.2822 32.3244 18.6455C32.1779 19.0088 32.1047 19.4307 32.1047 19.9111V25H30.0305V15.2705H31.6477L31.9289 16.9844H32.0256C32.2189 16.6387 32.4592 16.3223 32.7463 16.0352C33.0334 15.748 33.3615 15.5195 33.7307 15.3496C34.1057 15.1738 34.5158 15.0859 34.9611 15.0859ZM38.9654 15.2705V25H36.9V15.2705H38.9654ZM37.9459 11.5439C38.2623 11.5439 38.5348 11.6289 38.7633 11.7988C38.9977 11.9688 39.1148 12.2617 39.1148 12.6777C39.1148 13.0879 38.9977 13.3809 38.7633 13.5566C38.5348 13.7266 38.2623 13.8115 37.9459 13.8115C37.6178 13.8115 37.3395 13.7266 37.1109 13.5566C36.8883 13.3809 36.777 13.0879 36.777 12.6777C36.777 12.2617 36.8883 11.9688 37.1109 11.7988C37.3395 11.6289 37.6178 11.5439 37.9459 11.5439ZM44.9473 25.1758C44.0273 25.1758 43.2305 24.9971 42.5566 24.6396C41.8828 24.2822 41.3643 23.7344 41.001 22.9961C40.6377 22.2578 40.4561 21.3203 40.4561 20.1836C40.4561 19 40.6553 18.0332 41.0537 17.2832C41.4521 16.5332 42.0029 15.9795 42.7061 15.6221C43.415 15.2646 44.2266 15.0859 45.1406 15.0859C45.7207 15.0859 46.2451 15.1445 46.7139 15.2617C47.1885 15.373 47.5898 15.5107 47.918 15.6748L47.3027 17.3271C46.9453 17.1807 46.5791 17.0576 46.2041 16.958C45.8291 16.8584 45.4688 16.8086 45.123 16.8086C44.5547 16.8086 44.0801 16.9346 43.6992 17.1865C43.3242 17.4385 43.043 17.8135 42.8555 18.3115C42.6738 18.8096 42.583 19.4277 42.583 20.166C42.583 20.8809 42.6768 21.4844 42.8643 21.9766C43.0518 22.4629 43.3301 22.832 43.6992 23.084C44.0684 23.3301 44.5225 23.4531 45.0615 23.4531C45.5947 23.4531 46.0723 23.3887 46.4941 23.2598C46.916 23.1309 47.3145 22.9639 47.6895 22.7588V24.5518C47.3203 24.7627 46.9248 24.918 46.5029 25.0176C46.0811 25.123 45.5625 25.1758 44.9473 25.1758ZM52.8891 15.0859C54.1195 15.0859 55.0482 15.3584 55.6752 15.9033C56.308 16.4482 56.6244 17.2979 56.6244 18.4521V25H55.1566L54.7611 23.6201H54.6908C54.4154 23.9717 54.1312 24.2617 53.8383 24.4902C53.5453 24.7188 53.2055 24.8887 52.8187 25C52.4379 25.1172 51.9721 25.1758 51.4213 25.1758C50.8412 25.1758 50.3227 25.0703 49.8656 24.8594C49.4086 24.6426 49.0482 24.3145 48.7846 23.875C48.5209 23.4355 48.3891 22.8789 48.3891 22.2051C48.3891 21.2031 48.7611 20.4502 49.5053 19.9463C50.2553 19.4424 51.3861 19.1641 52.8979 19.1113L54.5854 19.0498V18.54C54.5854 17.8662 54.4271 17.3857 54.1107 17.0986C53.8002 16.8115 53.3607 16.668 52.7924 16.668C52.3061 16.668 51.8344 16.7383 51.3773 16.8789C50.9203 17.0195 50.475 17.1924 50.0414 17.3975L49.3734 15.9385C49.848 15.6865 50.3871 15.4814 50.9906 15.3232C51.6 15.165 52.2328 15.0859 52.8891 15.0859ZM54.5766 20.3506L53.3197 20.3945C52.2885 20.4297 51.5648 20.6055 51.1488 20.9219C50.7328 21.2383 50.5248 21.6719 50.5248 22.2227C50.5248 22.7031 50.6684 23.0547 50.9555 23.2773C51.2426 23.4941 51.6205 23.6025 52.0893 23.6025C52.8041 23.6025 53.3959 23.4004 53.8646 22.9961C54.3393 22.5859 54.5766 21.9854 54.5766 21.1943V20.3506ZM62.2371 23.5059C62.5066 23.5059 62.7732 23.4824 63.0369 23.4355C63.3006 23.3828 63.5408 23.3213 63.7576 23.251V24.8154C63.5291 24.915 63.2332 25 62.8699 25.0703C62.5066 25.1406 62.1287 25.1758 61.7361 25.1758C61.1854 25.1758 60.6902 25.085 60.2508 24.9033C59.8113 24.7158 59.4627 24.3965 59.2049 23.9453C58.9471 23.4941 58.8182 22.8701 58.8182 22.0732V16.8438H57.491V15.9209L58.9148 15.1914L59.5916 13.1084H60.8924V15.2705H63.6785V16.8438H60.8924V22.0469C60.8924 22.5391 61.0154 22.9053 61.2615 23.1455C61.5076 23.3857 61.8328 23.5059 62.2371 23.5059ZM66.9006 15.2705V25H64.8352V15.2705H66.9006ZM65.8811 11.5439C66.1975 11.5439 66.4699 11.6289 66.6984 11.7988C66.9328 11.9688 67.05 12.2617 67.05 12.6777C67.05 13.0879 66.9328 13.3809 66.6984 13.5566C66.4699 13.7266 66.1975 13.8115 65.8811 13.8115C65.5529 13.8115 65.2746 13.7266 65.0461 13.5566C64.8234 13.3809 64.7121 13.0879 64.7121 12.6777C64.7121 12.2617 64.8234 11.9688 65.0461 11.7988C65.2746 11.6289 65.5529 11.5439 65.8811 11.5439ZM77.5758 20.1133C77.5758 20.9219 77.4703 21.6396 77.2594 22.2666C77.0484 22.8936 76.7408 23.4238 76.3365 23.8574C75.9322 24.2852 75.4459 24.6133 74.8775 24.8418C74.3092 25.0645 73.6676 25.1758 72.9527 25.1758C72.2848 25.1758 71.6725 25.0645 71.1158 24.8418C70.5592 24.6133 70.0758 24.2852 69.6656 23.8574C69.2613 23.4238 68.9479 22.8936 68.7252 22.2666C68.5025 21.6396 68.3912 20.9219 68.3912 20.1133C68.3912 19.041 68.5758 18.1328 68.9449 17.3887C69.3199 16.6387 69.8531 16.0674 70.5445 15.6748C71.2359 15.2822 72.0592 15.0859 73.0143 15.0859C73.9107 15.0859 74.7018 15.2822 75.3873 15.6748C76.0729 16.0674 76.609 16.6387 76.9957 17.3887C77.3824 18.1387 77.5758 19.0469 77.5758 20.1133ZM70.5182 20.1133C70.5182 20.8223 70.6031 21.4287 70.773 21.9326C70.9488 22.4365 71.2184 22.8232 71.5816 23.0928C71.9449 23.3564 72.4137 23.4883 72.9879 23.4883C73.5621 23.4883 74.0309 23.3564 74.3941 23.0928C74.7574 22.8232 75.024 22.4365 75.1939 21.9326C75.3639 21.4287 75.4488 20.8223 75.4488 20.1133C75.4488 19.4043 75.3639 18.8037 75.1939 18.3115C75.024 17.8135 74.7574 17.4355 74.3941 17.1777C74.0309 16.9141 73.5592 16.7822 72.9791 16.7822C72.1236 16.7822 71.4996 17.0693 71.107 17.6436C70.7145 18.2178 70.5182 19.041 70.5182 20.1133ZM84.1201 15.0859C85.2158 15.0859 86.0684 15.3701 86.6777 15.9385C87.293 16.501 87.6006 17.4062 87.6006 18.6543V25H85.5352V19.041C85.5352 18.2852 85.3799 17.7197 85.0693 17.3447C84.7588 16.9639 84.2783 16.7734 83.6279 16.7734C82.6846 16.7734 82.0283 17.0635 81.6592 17.6436C81.2959 18.2236 81.1143 19.0645 81.1143 20.166V25H79.0488V15.2705H80.6572L80.9473 16.5889H81.0615C81.2725 16.249 81.5332 15.9707 81.8438 15.7539C82.1602 15.5312 82.5117 15.3643 82.8984 15.2529C83.291 15.1416 83.6982 15.0859 84.1201 15.0859Z" class="logo-text"/>
</svg>
