<svg width="70" height="30" viewBox="0 0 70 30" fill="none" xmlns="http://www.w3.org/2000/svg">
<path d="M3.65277 7.8974H2.0514V1.78668H0V0.476562H5.70418V1.78595H3.65277V7.89666V7.8974Z" class="logo-accent"/>
<path d="M8.56749 2.11597C8.647 2.11597 8.7385 2.12039 8.84426 2.1285C8.94927 2.13734 9.03478 2.14766 9.10003 2.16166L8.98152 3.61325C8.92977 3.59631 8.85626 3.58378 8.76175 3.57494C8.66725 3.56683 8.58549 3.56241 8.51648 3.56241C8.31322 3.56241 8.11596 3.5882 7.92469 3.63831C7.73343 3.68915 7.56241 3.77094 7.4109 3.88442C7.25939 3.99789 7.13938 4.14673 7.05163 4.33095C6.96387 4.51516 6.91962 4.74137 6.91962 5.00885V7.89657H5.34375V2.22281H6.53709L6.76961 3.17704H6.84686C6.96087 2.98398 7.10263 2.80714 7.27289 2.6465C7.44316 2.48587 7.63817 2.35692 7.85644 2.26039C8.07545 2.16387 8.31172 2.11523 8.56674 2.11523L8.56749 2.11597Z" class="logo-accent"/>
<path d="M10.2284 0C10.4624 0 10.6642 0.0530533 10.833 0.159897C11.0017 0.26674 11.0865 0.464954 11.0865 0.75601C11.0865 1.04707 11.0017 1.24233 10.833 1.35212C10.6642 1.46191 10.4624 1.51718 10.2284 1.51718C9.99439 1.51718 9.78812 1.46191 9.62161 1.35212C9.45435 1.24233 9.37109 1.04338 9.37109 0.75601C9.37109 0.468638 9.45435 0.266004 9.62161 0.159897C9.78887 0.0530533 9.99139 0 10.2284 0ZM11.0137 2.22308V7.89758H9.43785V2.22308H11.0137Z" class="logo-accent"/>
<path d="M18.7239 2.11621C19.378 2.11621 19.8738 2.28127 20.209 2.61138C20.5451 2.94148 20.7131 3.46981 20.7131 4.19782V7.89755H19.132V4.58319C19.132 4.17719 19.0615 3.87066 18.9204 3.66434C18.7794 3.45802 18.5604 3.35486 18.2641 3.35486C17.8471 3.35486 17.5508 3.50149 17.3753 3.79402C17.1998 4.08655 17.1121 4.50508 17.1121 5.05035V7.89755H15.5362V4.58319C15.5362 4.31277 15.5054 4.08582 15.4432 3.90308C15.3809 3.72034 15.2864 3.58328 15.1589 3.49191C15.0314 3.40054 14.8679 3.35486 14.6684 3.35486C14.3759 3.35486 14.1456 3.42707 13.9783 3.57076C13.8111 3.71444 13.6926 3.92592 13.6221 4.20519C13.5515 4.48445 13.5163 4.82488 13.5163 5.22794V7.89755H11.9404V2.22305H13.1443L13.3558 2.94885H13.4435C13.5605 2.75285 13.7076 2.59369 13.8853 2.47211C14.0623 2.35053 14.2581 2.26063 14.4719 2.20316C14.6856 2.14569 14.9024 2.11695 15.1229 2.11695C15.5467 2.11695 15.906 2.18474 16.2 2.32032C16.4948 2.4559 16.7213 2.66517 16.8795 2.94959H17.0191C17.1916 2.65853 17.4346 2.44706 17.7504 2.31516C18.0654 2.18326 18.3902 2.11695 18.7239 2.11695V2.11621Z" class="logo-accent"/>
<path d="M23.1845 0V1.83771C23.1845 2.05066 23.1785 2.26213 23.1665 2.47214C23.1545 2.68214 23.1395 2.84425 23.1222 2.9592H23.1845C23.336 2.72561 23.543 2.52666 23.8048 2.36308C24.0666 2.19877 24.4056 2.11698 24.8226 2.11698C25.4699 2.11698 25.9957 2.36603 26.3985 2.86341C26.8013 3.36078 27.003 4.09026 27.003 5.05112C27.003 5.69734 26.91 6.23966 26.724 6.67809C26.538 7.11651 26.2777 7.44662 25.9439 7.66768C25.6102 7.88947 25.2224 8 24.7814 8C24.3403 8 24.0238 7.92558 23.7793 7.77673C23.5348 7.62789 23.3368 7.46062 23.1852 7.2742H23.0765L22.8132 7.89831H21.6094V0H23.1852H23.1845ZM24.3156 3.35489C24.0403 3.35489 23.8213 3.41089 23.6593 3.52215C23.4973 3.63415 23.3795 3.80142 23.3053 4.02468C23.231 4.24795 23.1905 4.5309 23.1837 4.87206V5.03933C23.1837 5.59123 23.2662 6.01345 23.432 6.30598C23.597 6.59851 23.8985 6.74514 24.3358 6.74514C24.6599 6.74514 24.9171 6.59777 25.1084 6.30377C25.2997 6.00903 25.3949 5.5846 25.3949 5.02975C25.3949 4.4749 25.2981 4.05711 25.1054 3.77563C24.9126 3.49489 24.6486 3.35415 24.3148 3.35415L24.3156 3.35489Z" class="logo-accent"/>
<path d="M29.2272 7.89758H27.6514V0H29.2272V7.89758Z" class="logo-accent"/>
<path d="M32.5881 2.11621C33.1222 2.11621 33.582 2.21716 33.9675 2.41832C34.353 2.61948 34.6508 2.91127 34.8616 3.2937C35.0716 3.67613 35.1766 4.14329 35.1766 4.69446V5.44531H31.4518C31.4691 5.88226 31.6026 6.22416 31.8523 6.47322C32.1021 6.72153 32.4494 6.84606 32.8934 6.84606C33.2617 6.84606 33.5992 6.80922 33.906 6.7348C34.2128 6.66038 34.5278 6.54837 34.8518 6.39953V7.59765C34.566 7.73618 34.2668 7.83786 33.9555 7.90197C33.6435 7.96608 33.2654 7.9985 32.8214 7.9985C32.2431 7.9985 31.7301 7.89387 31.2845 7.68386C30.8383 7.47386 30.4887 7.15407 30.236 6.72448C29.9825 6.2949 29.8564 5.75331 29.8564 5.10046C29.8564 4.44761 29.9712 3.88466 30.2 3.44328C30.4287 3.00191 30.7483 2.67032 31.1585 2.44853C31.5681 2.22674 32.0451 2.11621 32.5896 2.11621H32.5881ZM32.5986 3.2178C32.2919 3.2178 32.0384 3.31433 31.8366 3.50739C31.6348 3.69971 31.5186 4.00329 31.4878 4.41593H33.699C33.6952 4.18603 33.6532 3.98118 33.5722 3.80139C33.4912 3.62234 33.3705 3.48012 33.2107 3.37475C33.0502 3.27012 32.8462 3.2178 32.5986 3.2178Z" class="logo-accent"/>
<path d="M35.5782 7.23467C35.5737 6.85298 35.8849 6.53982 36.2735 6.53613C36.2787 6.53613 36.284 6.53613 36.2892 6.53613C36.6823 6.53613 37.0003 6.8493 37.0003 7.23467C37.0003 7.62078 36.6815 7.9332 36.2892 7.9332C35.8962 7.9332 35.5782 7.62004 35.5782 7.23467ZM36.8713 7.23467C36.8653 6.91782 36.5997 6.66508 36.2772 6.67098C35.9547 6.67687 35.6974 6.93772 35.7034 7.25456C35.7087 7.56846 35.9705 7.81973 36.29 7.81825C36.611 7.81825 36.872 7.56257 36.872 7.24646C36.872 7.24204 36.872 7.23835 36.872 7.23393L36.8713 7.23467ZM36.0132 6.83677H36.3042C36.488 6.83677 36.5952 6.91487 36.5952 7.07109C36.6042 7.16983 36.5405 7.2612 36.443 7.28772L36.611 7.60162H36.4482L36.2915 7.30909H36.1685V7.60162H36.0125V6.83677H36.0132ZM36.2952 7.19193C36.3905 7.19193 36.443 7.16172 36.443 7.07993C36.443 6.99814 36.3905 6.96793 36.2915 6.96793H36.1685V7.19119H36.2945L36.2952 7.19193Z" class="logo-accent"/>
<path d="M3.7793 25H1.6875V12.1504H8.94727V13.9258H3.7793V17.9336H8.61328V19.7002H3.7793V25ZM13.9887 15.0859C15.2191 15.0859 16.1479 15.3584 16.7748 15.9033C17.4076 16.4482 17.724 17.2979 17.724 18.4521V25H16.2563L15.8607 23.6201H15.7904C15.515 23.9717 15.2309 24.2617 14.9379 24.4902C14.6449 24.7188 14.3051 24.8887 13.9184 25C13.5375 25.1172 13.0717 25.1758 12.5209 25.1758C11.9408 25.1758 11.4223 25.0703 10.9652 24.8594C10.5082 24.6426 10.1479 24.3145 9.88418 23.875C9.62051 23.4355 9.48867 22.8789 9.48867 22.2051C9.48867 21.2031 9.86074 20.4502 10.6049 19.9463C11.3549 19.4424 12.4857 19.1641 13.9975 19.1113L15.685 19.0498V18.54C15.685 17.8662 15.5268 17.3857 15.2104 17.0986C14.8998 16.8115 14.4604 16.668 13.892 16.668C13.4057 16.668 12.934 16.7383 12.477 16.8789C12.0199 17.0195 11.5746 17.1924 11.141 17.3975L10.473 15.9385C10.9477 15.6865 11.4867 15.4814 12.0902 15.3232C12.6996 15.165 13.3324 15.0859 13.9887 15.0859ZM15.6762 20.3506L14.4193 20.3945C13.3881 20.4297 12.6645 20.6055 12.2484 20.9219C11.8324 21.2383 11.6244 21.6719 11.6244 22.2227C11.6244 22.7031 11.768 23.0547 12.0551 23.2773C12.3422 23.4941 12.7201 23.6025 13.1889 23.6025C13.9037 23.6025 14.4955 23.4004 14.9643 22.9961C15.4389 22.5859 15.6762 21.9854 15.6762 21.1943V20.3506ZM21.7811 11.3242V14.6201C21.7811 15.001 21.7693 15.376 21.7459 15.7451C21.7283 16.1084 21.7107 16.3926 21.6932 16.5977H21.7811C22.0447 16.1758 22.4109 15.8213 22.8797 15.5342C23.3543 15.2412 23.9607 15.0947 24.699 15.0947C25.8533 15.0947 26.782 15.5195 27.4852 16.3691C28.1883 17.2129 28.5398 18.4639 28.5398 20.1221C28.5398 21.2236 28.3787 22.1494 28.0564 22.8994C27.7342 23.6494 27.2801 24.2178 26.6941 24.6045C26.1141 24.9854 25.4314 25.1758 24.6463 25.1758C23.908 25.1758 23.3104 25.041 22.8533 24.7715C22.4021 24.4961 22.0477 24.1768 21.7898 23.8135H21.6404L21.2625 25H19.7156V11.3242H21.7811ZM24.1541 16.7734C23.5682 16.7734 23.1023 16.8906 22.7566 17.125C22.4168 17.3594 22.1707 17.7109 22.0184 18.1797C21.866 18.6426 21.7869 19.2314 21.7811 19.9463V20.1309C21.7811 21.2148 21.951 22.0439 22.2908 22.6182C22.6365 23.1924 23.2635 23.4795 24.1717 23.4795C24.8924 23.4795 25.4461 23.1895 25.8328 22.6094C26.2195 22.0234 26.4129 21.1855 26.4129 20.0957C26.4129 18.9941 26.2195 18.165 25.8328 17.6084C25.452 17.0518 24.8924 16.7734 24.1541 16.7734ZM37.6594 21.502C37.6594 22.2637 37.4719 22.9199 37.0969 23.4707C36.7277 24.0215 36.1945 24.4434 35.4973 24.7363C34.8059 25.0293 33.9797 25.1758 33.0187 25.1758C32.55 25.1758 32.1018 25.1494 31.674 25.0967C31.2463 25.0439 30.842 24.9678 30.4611 24.8682C30.0861 24.7627 29.7434 24.6367 29.4328 24.4902V22.5039C29.9543 22.7324 30.5373 22.9404 31.1818 23.1279C31.8264 23.3096 32.4826 23.4004 33.1506 23.4004C33.6955 23.4004 34.1467 23.3301 34.5041 23.1895C34.8674 23.043 35.1369 22.8379 35.3127 22.5742C35.4885 22.3047 35.5764 21.9912 35.5764 21.6338C35.5764 21.2529 35.4738 20.9307 35.2687 20.667C35.0637 20.4033 34.7531 20.1631 34.3371 19.9463C33.927 19.7236 33.4113 19.4863 32.7902 19.2344C32.3684 19.0645 31.9641 18.8711 31.5773 18.6543C31.1965 18.4375 30.8566 18.1826 30.5578 17.8896C30.259 17.5967 30.0217 17.251 29.8459 16.8525C29.676 16.4482 29.591 15.9736 29.591 15.4287C29.591 14.7021 29.7639 14.0811 30.1096 13.5654C30.4611 13.0498 30.9533 12.6543 31.5861 12.3789C32.2248 12.1035 32.9689 11.9658 33.8186 11.9658C34.4924 11.9658 35.1252 12.0361 35.717 12.1768C36.3146 12.3174 36.9006 12.5166 37.4748 12.7744L36.8068 14.4707C36.2795 14.2539 35.7668 14.0811 35.2687 13.9521C34.7766 13.8232 34.2727 13.7588 33.757 13.7588C33.3117 13.7588 32.9338 13.8262 32.6232 13.9609C32.3127 14.0957 32.0754 14.2861 31.9113 14.5322C31.7531 14.7725 31.674 15.0596 31.674 15.3936C31.674 15.7686 31.7648 16.085 31.9465 16.3428C32.134 16.5947 32.4211 16.8262 32.8078 17.0371C33.2004 17.248 33.7043 17.4824 34.3195 17.7402C35.0285 18.0332 35.6291 18.3408 36.1213 18.6631C36.6193 18.9854 37.0002 19.3721 37.2639 19.8232C37.5275 20.2686 37.6594 20.8281 37.6594 21.502ZM41.0924 11.3242V14.7607C41.0924 15.1182 41.0807 15.4668 41.0572 15.8066C41.0396 16.1465 41.0191 16.4102 40.9957 16.5977H41.11C41.315 16.2578 41.567 15.9795 41.8658 15.7627C42.1646 15.54 42.4986 15.373 42.8678 15.2617C43.2428 15.1504 43.6412 15.0947 44.0631 15.0947C44.8072 15.0947 45.44 15.2207 45.9615 15.4727C46.483 15.7188 46.8814 16.1025 47.1568 16.624C47.4381 17.1455 47.5787 17.8223 47.5787 18.6543V25H45.5133V19.041C45.5133 18.2852 45.358 17.7197 45.0475 17.3447C44.7369 16.9639 44.2564 16.7734 43.6061 16.7734C42.9791 16.7734 42.4811 16.9053 42.1119 17.1689C41.7486 17.4268 41.4879 17.8105 41.3297 18.3203C41.1715 18.8242 41.0924 19.4395 41.0924 20.166V25H39.027V11.3242H41.0924ZM58.1836 20.1133C58.1836 20.9219 58.0781 21.6396 57.8672 22.2666C57.6562 22.8936 57.3486 23.4238 56.9443 23.8574C56.54 24.2852 56.0537 24.6133 55.4854 24.8418C54.917 25.0645 54.2754 25.1758 53.5605 25.1758C52.8926 25.1758 52.2803 25.0645 51.7236 24.8418C51.167 24.6133 50.6836 24.2852 50.2734 23.8574C49.8691 23.4238 49.5557 22.8936 49.333 22.2666C49.1104 21.6396 48.999 20.9219 48.999 20.1133C48.999 19.041 49.1836 18.1328 49.5527 17.3887C49.9277 16.6387 50.4609 16.0674 51.1523 15.6748C51.8438 15.2822 52.667 15.0859 53.6221 15.0859C54.5186 15.0859 55.3096 15.2822 55.9951 15.6748C56.6807 16.0674 57.2168 16.6387 57.6035 17.3887C57.9902 18.1387 58.1836 19.0469 58.1836 20.1133ZM51.126 20.1133C51.126 20.8223 51.2109 21.4287 51.3809 21.9326C51.5566 22.4365 51.8262 22.8232 52.1895 23.0928C52.5527 23.3564 53.0215 23.4883 53.5957 23.4883C54.1699 23.4883 54.6387 23.3564 55.002 23.0928C55.3652 22.8232 55.6318 22.4365 55.8018 21.9326C55.9717 21.4287 56.0566 20.8223 56.0566 20.1133C56.0566 19.4043 55.9717 18.8037 55.8018 18.3115C55.6318 17.8135 55.3652 17.4355 55.002 17.1777C54.6387 16.9141 54.167 16.7822 53.5869 16.7822C52.7314 16.7822 52.1074 17.0693 51.7148 17.6436C51.3223 18.2178 51.126 19.041 51.126 20.1133ZM64.6488 15.0859C65.8031 15.0859 66.7289 15.5078 67.4262 16.3516C68.1293 17.1953 68.4809 18.4492 68.4809 20.1133C68.4809 21.2148 68.3168 22.1436 67.9887 22.8994C67.6664 23.6494 67.2123 24.2178 66.6264 24.6045C66.0463 24.9854 65.3695 25.1758 64.5961 25.1758C64.1039 25.1758 63.6762 25.1113 63.3129 24.9824C62.9496 24.8535 62.6391 24.6865 62.3812 24.4814C62.1234 24.2705 61.9066 24.042 61.7309 23.7959H61.6078C61.6371 24.0303 61.6635 24.291 61.6869 24.5781C61.7162 24.8594 61.7309 25.1172 61.7309 25.3516V29.3154H59.6566V15.2705H61.3441L61.6342 16.6152H61.7309C61.9125 16.3398 62.1322 16.085 62.39 15.8506C62.6537 15.6162 62.9701 15.4316 63.3393 15.2969C63.7143 15.1562 64.1508 15.0859 64.6488 15.0859ZM64.0951 16.7734C63.5268 16.7734 63.0697 16.8877 62.724 17.1162C62.3842 17.3389 62.1352 17.6758 61.977 18.127C61.8246 18.5781 61.7426 19.1436 61.7309 19.8232V20.1133C61.7309 20.834 61.8041 21.4463 61.9506 21.9502C62.1029 22.4482 62.352 22.8291 62.6977 23.0928C63.0492 23.3506 63.5238 23.4795 64.1215 23.4795C64.6254 23.4795 65.0414 23.3418 65.3695 23.0664C65.7035 22.791 65.9525 22.3984 66.1166 21.8887C66.2807 21.3789 66.3627 20.7783 66.3627 20.0869C66.3627 19.0381 66.1752 18.2236 65.8002 17.6436C65.4311 17.0635 64.8627 16.7734 64.0951 16.7734Z" class="logo-text"/>
</svg>
