<svg width="91" height="30" viewBox="0 0 91 30" fill="none" xmlns="http://www.w3.org/2000/svg">
<path d="M3.65277 7.8974H2.0514V1.78668H0V0.476562H5.70418V1.78595H3.65277V7.89666V7.8974Z" class="logo-accent"/>
<path d="M8.56749 2.11597C8.647 2.11597 8.7385 2.12039 8.84426 2.1285C8.94927 2.13734 9.03478 2.14766 9.10003 2.16166L8.98152 3.61325C8.92977 3.59631 8.85626 3.58378 8.76175 3.57494C8.66725 3.56683 8.58549 3.56241 8.51648 3.56241C8.31322 3.56241 8.11596 3.5882 7.92469 3.63831C7.73343 3.68915 7.56241 3.77094 7.4109 3.88442C7.25939 3.99789 7.13938 4.14673 7.05163 4.33095C6.96387 4.51516 6.91962 4.74137 6.91962 5.00885V7.89657H5.34375V2.22281H6.53709L6.76961 3.17704H6.84686C6.96087 2.98398 7.10263 2.80714 7.27289 2.6465C7.44316 2.48587 7.63817 2.35692 7.85644 2.26039C8.07545 2.16387 8.31172 2.11523 8.56674 2.11523L8.56749 2.11597Z" class="logo-accent"/>
<path d="M10.2284 0C10.4624 0 10.6642 0.0530533 10.833 0.159897C11.0017 0.26674 11.0865 0.464954 11.0865 0.75601C11.0865 1.04707 11.0017 1.24233 10.833 1.35212C10.6642 1.46191 10.4624 1.51718 10.2284 1.51718C9.99439 1.51718 9.78812 1.46191 9.62161 1.35212C9.45435 1.24233 9.37109 1.04338 9.37109 0.75601C9.37109 0.468638 9.45435 0.266004 9.62161 0.159897C9.78887 0.0530533 9.99139 0 10.2284 0ZM11.0137 2.22308V7.89758H9.43785V2.22308H11.0137Z" class="logo-accent"/>
<path d="M18.7239 2.11621C19.378 2.11621 19.8738 2.28127 20.209 2.61138C20.5451 2.94148 20.7131 3.46981 20.7131 4.19782V7.89755H19.132V4.58319C19.132 4.17719 19.0615 3.87066 18.9204 3.66434C18.7794 3.45802 18.5604 3.35486 18.2641 3.35486C17.8471 3.35486 17.5508 3.50149 17.3753 3.79402C17.1998 4.08655 17.1121 4.50508 17.1121 5.05035V7.89755H15.5362V4.58319C15.5362 4.31277 15.5054 4.08582 15.4432 3.90308C15.3809 3.72034 15.2864 3.58328 15.1589 3.49191C15.0314 3.40054 14.8679 3.35486 14.6684 3.35486C14.3759 3.35486 14.1456 3.42707 13.9783 3.57076C13.8111 3.71444 13.6926 3.92592 13.6221 4.20519C13.5515 4.48445 13.5163 4.82488 13.5163 5.22794V7.89755H11.9404V2.22305H13.1443L13.3558 2.94885H13.4435C13.5605 2.75285 13.7076 2.59369 13.8853 2.47211C14.0623 2.35053 14.2581 2.26063 14.4719 2.20316C14.6856 2.14569 14.9024 2.11695 15.1229 2.11695C15.5467 2.11695 15.906 2.18474 16.2 2.32032C16.4948 2.4559 16.7213 2.66517 16.8795 2.94959H17.0191C17.1916 2.65853 17.4346 2.44706 17.7504 2.31516C18.0654 2.18326 18.3902 2.11695 18.7239 2.11695V2.11621Z" class="logo-accent"/>
<path d="M23.1845 0V1.83771C23.1845 2.05066 23.1785 2.26213 23.1665 2.47214C23.1545 2.68214 23.1395 2.84425 23.1222 2.9592H23.1845C23.336 2.72561 23.543 2.52666 23.8048 2.36308C24.0666 2.19877 24.4056 2.11698 24.8226 2.11698C25.4699 2.11698 25.9957 2.36603 26.3985 2.86341C26.8013 3.36078 27.003 4.09026 27.003 5.05112C27.003 5.69734 26.91 6.23966 26.724 6.67809C26.538 7.11651 26.2777 7.44662 25.9439 7.66768C25.6102 7.88947 25.2224 8 24.7814 8C24.3403 8 24.0238 7.92558 23.7793 7.77673C23.5348 7.62789 23.3368 7.46062 23.1852 7.2742H23.0765L22.8132 7.89831H21.6094V0H23.1852H23.1845ZM24.3156 3.35489C24.0403 3.35489 23.8213 3.41089 23.6593 3.52215C23.4973 3.63415 23.3795 3.80142 23.3053 4.02468C23.231 4.24795 23.1905 4.5309 23.1837 4.87206V5.03933C23.1837 5.59123 23.2662 6.01345 23.432 6.30598C23.597 6.59851 23.8985 6.74514 24.3358 6.74514C24.6599 6.74514 24.9171 6.59777 25.1084 6.30377C25.2997 6.00903 25.3949 5.5846 25.3949 5.02975C25.3949 4.4749 25.2981 4.05711 25.1054 3.77563C24.9126 3.49489 24.6486 3.35415 24.3148 3.35415L24.3156 3.35489Z" class="logo-accent"/>
<path d="M29.2272 7.89758H27.6514V0H29.2272V7.89758Z" class="logo-accent"/>
<path d="M32.5881 2.11621C33.1222 2.11621 33.582 2.21716 33.9675 2.41832C34.353 2.61948 34.6508 2.91127 34.8616 3.2937C35.0716 3.67613 35.1766 4.14329 35.1766 4.69446V5.44531H31.4518C31.4691 5.88226 31.6026 6.22416 31.8523 6.47322C32.1021 6.72153 32.4494 6.84606 32.8934 6.84606C33.2617 6.84606 33.5992 6.80922 33.906 6.7348C34.2128 6.66038 34.5278 6.54837 34.8518 6.39953V7.59765C34.566 7.73618 34.2668 7.83786 33.9555 7.90197C33.6435 7.96608 33.2654 7.9985 32.8214 7.9985C32.2431 7.9985 31.7301 7.89387 31.2845 7.68386C30.8383 7.47386 30.4887 7.15407 30.236 6.72448C29.9825 6.2949 29.8564 5.75331 29.8564 5.10046C29.8564 4.44761 29.9712 3.88466 30.2 3.44328C30.4287 3.00191 30.7483 2.67032 31.1585 2.44853C31.5681 2.22674 32.0451 2.11621 32.5896 2.11621H32.5881ZM32.5986 3.2178C32.2919 3.2178 32.0384 3.31433 31.8366 3.50739C31.6348 3.69971 31.5186 4.00329 31.4878 4.41593H33.699C33.6952 4.18603 33.6532 3.98118 33.5722 3.80139C33.4912 3.62234 33.3705 3.48012 33.2107 3.37475C33.0502 3.27012 32.8462 3.2178 32.5986 3.2178Z" class="logo-accent"/>
<path d="M35.5782 7.23467C35.5737 6.85298 35.8849 6.53982 36.2735 6.53613C36.2787 6.53613 36.284 6.53613 36.2892 6.53613C36.6823 6.53613 37.0003 6.8493 37.0003 7.23467C37.0003 7.62078 36.6815 7.9332 36.2892 7.9332C35.8962 7.9332 35.5782 7.62004 35.5782 7.23467ZM36.8713 7.23467C36.8653 6.91782 36.5997 6.66508 36.2772 6.67098C35.9547 6.67687 35.6974 6.93772 35.7034 7.25456C35.7087 7.56846 35.9705 7.81973 36.29 7.81825C36.611 7.81825 36.872 7.56257 36.872 7.24646C36.872 7.24204 36.872 7.23835 36.872 7.23393L36.8713 7.23467ZM36.0132 6.83677H36.3042C36.488 6.83677 36.5952 6.91487 36.5952 7.07109C36.6042 7.16983 36.5405 7.2612 36.443 7.28772L36.611 7.60162H36.4482L36.2915 7.30909H36.1685V7.60162H36.0125V6.83677H36.0132ZM36.2952 7.19193C36.3905 7.19193 36.443 7.16172 36.443 7.07993C36.443 6.99814 36.3905 6.96793 36.2915 6.96793H36.1685V7.19119H36.2945L36.2952 7.19193Z" class="logo-accent"/>
<path d="M3.7793 25H1.6875V12.1504H8.94727V13.9258H3.7793V17.9336H8.61328V19.7002H3.7793V25ZM12.2396 15.2705V25H10.1742V15.2705H12.2396ZM11.2201 11.5439C11.5365 11.5439 11.809 11.6289 12.0375 11.7988C12.2719 11.9688 12.3891 12.2617 12.3891 12.6777C12.3891 13.0879 12.2719 13.3809 12.0375 13.5566C11.809 13.7266 11.5365 13.8115 11.2201 13.8115C10.892 13.8115 10.6137 13.7266 10.3852 13.5566C10.1625 13.3809 10.0512 13.0879 10.0512 12.6777C10.0512 12.2617 10.1625 11.9688 10.3852 11.7988C10.6137 11.6289 10.892 11.5439 11.2201 11.5439ZM18.1775 15.0859C19.0447 15.0859 19.7889 15.2646 20.41 15.6221C21.0311 15.9795 21.5086 16.4863 21.8426 17.1426C22.1766 17.7988 22.3436 18.584 22.3436 19.498V20.6055H15.8484C15.8719 21.5488 16.1238 22.2754 16.6043 22.7852C17.0906 23.2949 17.7703 23.5498 18.6434 23.5498C19.2645 23.5498 19.8211 23.4912 20.3133 23.374C20.8113 23.251 21.324 23.0723 21.8514 22.8379V24.5166C21.365 24.7451 20.8699 24.9121 20.366 25.0176C19.8621 25.123 19.2586 25.1758 18.5555 25.1758C17.6004 25.1758 16.7596 24.9912 16.033 24.6221C15.3123 24.2471 14.7469 23.6904 14.3367 22.9521C13.9324 22.2139 13.7303 21.2969 13.7303 20.2012C13.7303 19.1113 13.9148 18.1855 14.284 17.4238C14.6531 16.6621 15.1717 16.082 15.8396 15.6836C16.5076 15.2852 17.2869 15.0859 18.1775 15.0859ZM18.1775 16.6416C17.5271 16.6416 16.9998 16.8525 16.5955 17.2744C16.1971 17.6963 15.9627 18.3145 15.8924 19.1289H20.3221C20.3162 18.6426 20.2342 18.2119 20.076 17.8369C19.9236 17.4619 19.6893 17.1689 19.3729 16.958C19.0623 16.7471 18.6639 16.6416 18.1775 16.6416ZM25.8469 25H23.7727V11.3242H25.8469V25ZM31.1695 25.1758C30.0094 25.1758 29.0777 24.7539 28.3746 23.9102C27.6773 23.0605 27.3287 21.8096 27.3287 20.1572C27.3287 18.4873 27.6832 17.2246 28.3922 16.3691C29.107 15.5137 30.0475 15.0859 31.2135 15.0859C31.7057 15.0859 32.1363 15.1533 32.5055 15.2881C32.8746 15.417 33.191 15.5928 33.4547 15.8154C33.7242 16.0381 33.9527 16.2871 34.1402 16.5625H34.2369C34.2076 16.3809 34.1725 16.1201 34.1314 15.7803C34.0963 15.4346 34.0787 15.1152 34.0787 14.8223V11.3242H36.1529V25H34.5357L34.1666 23.6729H34.0787C33.9029 23.9541 33.6803 24.209 33.4107 24.4375C33.1471 24.6602 32.8307 24.8389 32.4615 24.9736C32.0982 25.1084 31.6676 25.1758 31.1695 25.1758ZM31.7496 23.4971C32.6344 23.4971 33.2584 23.2422 33.6217 22.7324C33.985 22.2227 34.1725 21.458 34.1842 20.4385V20.166C34.1842 19.0762 34.0084 18.2412 33.6568 17.6611C33.3053 17.0752 32.6637 16.7822 31.732 16.7822C30.9879 16.7822 30.4195 17.084 30.027 17.6875C29.6402 18.2852 29.4469 19.1201 29.4469 20.1924C29.4469 21.2646 29.6402 22.085 30.027 22.6533C30.4195 23.2158 30.9937 23.4971 31.7496 23.4971ZM45.9369 12.1504C47.5951 12.1504 48.8051 12.4902 49.5668 13.1699C50.3285 13.8496 50.7094 14.8018 50.7094 16.0264C50.7094 16.583 50.6215 17.1133 50.4457 17.6172C50.2758 18.1152 49.9945 18.5576 49.602 18.9443C49.2094 19.3252 48.6908 19.627 48.0463 19.8496C47.4076 20.0723 46.6195 20.1836 45.682 20.1836H44.3109V25H42.2016V12.1504H45.9369ZM45.7963 13.8994H44.3109V18.4258H45.4623C46.1244 18.4258 46.6869 18.3496 47.1498 18.1973C47.6127 18.0391 47.9643 17.79 48.2045 17.4502C48.4447 17.1104 48.5648 16.6621 48.5648 16.1055C48.5648 15.3613 48.3393 14.8076 47.8881 14.4443C47.4428 14.0811 46.7455 13.8994 45.7963 13.8994ZM60.7781 20.1133C60.7781 20.9219 60.6727 21.6396 60.4617 22.2666C60.2508 22.8936 59.9432 23.4238 59.5389 23.8574C59.1346 24.2852 58.6482 24.6133 58.0799 24.8418C57.5115 25.0645 56.8699 25.1758 56.1551 25.1758C55.4871 25.1758 54.8748 25.0645 54.3182 24.8418C53.7615 24.6133 53.2781 24.2852 52.868 23.8574C52.4637 23.4238 52.1502 22.8936 51.9275 22.2666C51.7049 21.6396 51.5936 20.9219 51.5936 20.1133C51.5936 19.041 51.7781 18.1328 52.1473 17.3887C52.5223 16.6387 53.0555 16.0674 53.7469 15.6748C54.4383 15.2822 55.2615 15.0859 56.2166 15.0859C57.1131 15.0859 57.9041 15.2822 58.5896 15.6748C59.2752 16.0674 59.8113 16.6387 60.198 17.3887C60.5848 18.1387 60.7781 19.0469 60.7781 20.1133ZM53.7205 20.1133C53.7205 20.8223 53.8055 21.4287 53.9754 21.9326C54.1512 22.4365 54.4207 22.8232 54.784 23.0928C55.1473 23.3564 55.616 23.4883 56.1902 23.4883C56.7645 23.4883 57.2332 23.3564 57.5965 23.0928C57.9598 22.8232 58.2264 22.4365 58.3963 21.9326C58.5662 21.4287 58.6512 20.8223 58.6512 20.1133C58.6512 19.4043 58.5662 18.8037 58.3963 18.3115C58.2264 17.8135 57.9598 17.4355 57.5965 17.1777C57.2332 16.9141 56.7615 16.7822 56.1814 16.7822C55.326 16.7822 54.702 17.0693 54.3094 17.6436C53.9168 18.2178 53.7205 19.041 53.7205 20.1133ZM64.3166 15.2705V25H62.2512V15.2705H64.3166ZM63.2971 11.5439C63.6135 11.5439 63.8859 11.6289 64.1145 11.7988C64.3488 11.9688 64.466 12.2617 64.466 12.6777C64.466 13.0879 64.3488 13.3809 64.1145 13.5566C63.8859 13.7266 63.6135 13.8115 63.2971 13.8115C62.9689 13.8115 62.6906 13.7266 62.4621 13.5566C62.2395 13.3809 62.1281 13.0879 62.1281 12.6777C62.1281 12.2617 62.2395 11.9688 62.4621 11.7988C62.6906 11.6289 62.9689 11.5439 63.2971 11.5439ZM71.4498 15.0859C72.5455 15.0859 73.398 15.3701 74.0074 15.9385C74.6227 16.501 74.9303 17.4062 74.9303 18.6543V25H72.8648V19.041C72.8648 18.2852 72.7096 17.7197 72.399 17.3447C72.0885 16.9639 71.608 16.7734 70.9576 16.7734C70.0143 16.7734 69.358 17.0635 68.9889 17.6436C68.6256 18.2236 68.4439 19.0645 68.4439 20.166V25H66.3785V15.2705H67.9869L68.277 16.5889H68.3912C68.6021 16.249 68.8629 15.9707 69.1734 15.7539C69.4898 15.5312 69.8414 15.3643 70.2281 15.2529C70.6207 15.1416 71.0279 15.0859 71.4498 15.0859ZM80.543 23.5059C80.8125 23.5059 81.0791 23.4824 81.3428 23.4355C81.6064 23.3828 81.8467 23.3213 82.0635 23.251V24.8154C81.835 24.915 81.5391 25 81.1758 25.0703C80.8125 25.1406 80.4346 25.1758 80.042 25.1758C79.4912 25.1758 78.9961 25.085 78.5566 24.9033C78.1172 24.7158 77.7686 24.3965 77.5107 23.9453C77.2529 23.4941 77.124 22.8701 77.124 22.0732V16.8438H75.7969V15.9209L77.2207 15.1914L77.8975 13.1084H79.1982V15.2705H81.9844V16.8438H79.1982V22.0469C79.1982 22.5391 79.3213 22.9053 79.5674 23.1455C79.8135 23.3857 80.1387 23.5059 80.543 23.5059ZM89.6801 22.2227C89.6801 22.8613 89.5248 23.4004 89.2143 23.8398C88.9037 24.2793 88.4496 24.6133 87.852 24.8418C87.2602 25.0645 86.5336 25.1758 85.6723 25.1758C84.9926 25.1758 84.4066 25.126 83.9145 25.0264C83.4281 24.9326 82.9682 24.7861 82.5346 24.5869V22.8027C82.9975 23.0195 83.516 23.207 84.0902 23.3652C84.6703 23.5234 85.2182 23.6025 85.7338 23.6025C86.4135 23.6025 86.9027 23.4971 87.2016 23.2861C87.5004 23.0693 87.6498 22.7822 87.6498 22.4248C87.6498 22.2139 87.5883 22.0264 87.4652 21.8623C87.348 21.6924 87.1254 21.5195 86.7973 21.3438C86.475 21.1621 86.0004 20.9453 85.3734 20.6934C84.7582 20.4473 84.2396 20.2012 83.8178 19.9551C83.3959 19.709 83.0766 19.4131 82.8598 19.0674C82.643 18.7158 82.5346 18.2676 82.5346 17.7227C82.5346 16.8613 82.8744 16.208 83.5541 15.7627C84.2396 15.3115 85.1449 15.0859 86.2699 15.0859C86.8676 15.0859 87.4301 15.1475 87.9574 15.2705C88.4906 15.3877 89.0121 15.5605 89.5219 15.7891L88.8715 17.3447C88.432 17.1514 87.9896 16.9932 87.5443 16.8701C87.1049 16.7412 86.6566 16.6768 86.1996 16.6768C85.6664 16.6768 85.2592 16.7588 84.9779 16.9229C84.7025 17.0869 84.5648 17.3213 84.5648 17.626C84.5648 17.8545 84.6322 18.0479 84.767 18.2061C84.9018 18.3643 85.1332 18.5225 85.4613 18.6807C85.7953 18.8389 86.2582 19.0352 86.85 19.2695C87.4301 19.4922 87.9311 19.7266 88.3529 19.9727C88.7807 20.2129 89.1088 20.5088 89.3373 20.8604C89.5658 21.2119 89.6801 21.666 89.6801 22.2227Z" class="logo-text"/>
</svg>
