<svg width="79" height="30" viewBox="0 0 79 30" fill="none" xmlns="http://www.w3.org/2000/svg">
<path d="M3.65277 7.8974H2.0514V1.78668H0V0.476562H5.70418V1.78595H3.65277V7.89666V7.8974Z" class="logo-accent"/>
<path d="M8.56749 2.11597C8.647 2.11597 8.7385 2.12039 8.84426 2.1285C8.94927 2.13734 9.03478 2.14766 9.10003 2.16166L8.98152 3.61325C8.92977 3.59631 8.85626 3.58378 8.76175 3.57494C8.66725 3.56683 8.58549 3.56241 8.51648 3.56241C8.31322 3.56241 8.11596 3.5882 7.92469 3.63831C7.73343 3.68915 7.56241 3.77094 7.4109 3.88442C7.25939 3.99789 7.13938 4.14673 7.05163 4.33095C6.96387 4.51516 6.91962 4.74137 6.91962 5.00885V7.89657H5.34375V2.22281H6.53709L6.76961 3.17704H6.84686C6.96087 2.98398 7.10263 2.80714 7.27289 2.6465C7.44316 2.48587 7.63817 2.35692 7.85644 2.26039C8.07545 2.16387 8.31172 2.11523 8.56674 2.11523L8.56749 2.11597Z" class="logo-accent"/>
<path d="M10.2284 0C10.4624 0 10.6642 0.0530533 10.833 0.159897C11.0017 0.26674 11.0865 0.464954 11.0865 0.75601C11.0865 1.04707 11.0017 1.24233 10.833 1.35212C10.6642 1.46191 10.4624 1.51718 10.2284 1.51718C9.99439 1.51718 9.78812 1.46191 9.62161 1.35212C9.45435 1.24233 9.37109 1.04338 9.37109 0.75601C9.37109 0.468638 9.45435 0.266004 9.62161 0.159897C9.78887 0.0530533 9.99139 0 10.2284 0ZM11.0137 2.22308V7.89758H9.43785V2.22308H11.0137Z" class="logo-accent"/>
<path d="M18.7239 2.11621C19.378 2.11621 19.8738 2.28127 20.209 2.61138C20.5451 2.94148 20.7131 3.46981 20.7131 4.19782V7.89755H19.132V4.58319C19.132 4.17719 19.0615 3.87066 18.9204 3.66434C18.7794 3.45802 18.5604 3.35486 18.2641 3.35486C17.8471 3.35486 17.5508 3.50149 17.3753 3.79402C17.1998 4.08655 17.1121 4.50508 17.1121 5.05035V7.89755H15.5362V4.58319C15.5362 4.31277 15.5054 4.08582 15.4432 3.90308C15.3809 3.72034 15.2864 3.58328 15.1589 3.49191C15.0314 3.40054 14.8679 3.35486 14.6684 3.35486C14.3759 3.35486 14.1456 3.42707 13.9783 3.57076C13.8111 3.71444 13.6926 3.92592 13.6221 4.20519C13.5515 4.48445 13.5163 4.82488 13.5163 5.22794V7.89755H11.9404V2.22305H13.1443L13.3558 2.94885H13.4435C13.5605 2.75285 13.7076 2.59369 13.8853 2.47211C14.0623 2.35053 14.2581 2.26063 14.4719 2.20316C14.6856 2.14569 14.9024 2.11695 15.1229 2.11695C15.5467 2.11695 15.906 2.18474 16.2 2.32032C16.4948 2.4559 16.7213 2.66517 16.8795 2.94959H17.0191C17.1916 2.65853 17.4346 2.44706 17.7504 2.31516C18.0654 2.18326 18.3902 2.11695 18.7239 2.11695V2.11621Z" class="logo-accent"/>
<path d="M23.1845 0V1.83771C23.1845 2.05066 23.1785 2.26213 23.1665 2.47214C23.1545 2.68214 23.1395 2.84425 23.1222 2.9592H23.1845C23.336 2.72561 23.543 2.52666 23.8048 2.36308C24.0666 2.19877 24.4056 2.11698 24.8226 2.11698C25.4699 2.11698 25.9957 2.36603 26.3985 2.86341C26.8013 3.36078 27.003 4.09026 27.003 5.05112C27.003 5.69734 26.91 6.23966 26.724 6.67809C26.538 7.11651 26.2777 7.44662 25.9439 7.66768C25.6102 7.88947 25.2224 8 24.7814 8C24.3403 8 24.0238 7.92558 23.7793 7.77673C23.5348 7.62789 23.3368 7.46062 23.1852 7.2742H23.0765L22.8132 7.89831H21.6094V0H23.1852H23.1845ZM24.3156 3.35489C24.0403 3.35489 23.8213 3.41089 23.6593 3.52215C23.4973 3.63415 23.3795 3.80142 23.3053 4.02468C23.231 4.24795 23.1905 4.5309 23.1837 4.87206V5.03933C23.1837 5.59123 23.2662 6.01345 23.432 6.30598C23.597 6.59851 23.8985 6.74514 24.3358 6.74514C24.6599 6.74514 24.9171 6.59777 25.1084 6.30377C25.2997 6.00903 25.3949 5.5846 25.3949 5.02975C25.3949 4.4749 25.2981 4.05711 25.1054 3.77563C24.9126 3.49489 24.6486 3.35415 24.3148 3.35415L24.3156 3.35489Z" class="logo-accent"/>
<path d="M29.2272 7.89758H27.6514V0H29.2272V7.89758Z" class="logo-accent"/>
<path d="M32.5881 2.11621C33.1222 2.11621 33.582 2.21716 33.9675 2.41832C34.353 2.61948 34.6508 2.91127 34.8616 3.2937C35.0716 3.67613 35.1766 4.14329 35.1766 4.69446V5.44531H31.4518C31.4691 5.88226 31.6026 6.22416 31.8523 6.47322C32.1021 6.72153 32.4494 6.84606 32.8934 6.84606C33.2617 6.84606 33.5992 6.80922 33.906 6.7348C34.2128 6.66038 34.5278 6.54837 34.8518 6.39953V7.59765C34.566 7.73618 34.2668 7.83786 33.9555 7.90197C33.6435 7.96608 33.2654 7.9985 32.8214 7.9985C32.2431 7.9985 31.7301 7.89387 31.2845 7.68386C30.8383 7.47386 30.4887 7.15407 30.236 6.72448C29.9825 6.2949 29.8564 5.75331 29.8564 5.10046C29.8564 4.44761 29.9712 3.88466 30.2 3.44328C30.4287 3.00191 30.7483 2.67032 31.1585 2.44853C31.5681 2.22674 32.0451 2.11621 32.5896 2.11621H32.5881ZM32.5986 3.2178C32.2919 3.2178 32.0384 3.31433 31.8366 3.50739C31.6348 3.69971 31.5186 4.00329 31.4878 4.41593H33.699C33.6952 4.18603 33.6532 3.98118 33.5722 3.80139C33.4912 3.62234 33.3705 3.48012 33.2107 3.37475C33.0502 3.27012 32.8462 3.2178 32.5986 3.2178Z" class="logo-accent"/>
<path d="M35.5782 7.23467C35.5737 6.85298 35.8849 6.53982 36.2735 6.53613C36.2787 6.53613 36.284 6.53613 36.2892 6.53613C36.6823 6.53613 37.0003 6.8493 37.0003 7.23467C37.0003 7.62078 36.6815 7.9332 36.2892 7.9332C35.8962 7.9332 35.5782 7.62004 35.5782 7.23467ZM36.8713 7.23467C36.8653 6.91782 36.5997 6.66508 36.2772 6.67098C35.9547 6.67687 35.6974 6.93772 35.7034 7.25456C35.7087 7.56846 35.9705 7.81973 36.29 7.81825C36.611 7.81825 36.872 7.56257 36.872 7.24646C36.872 7.24204 36.872 7.23835 36.872 7.23393L36.8713 7.23467ZM36.0132 6.83677H36.3042C36.488 6.83677 36.5952 6.91487 36.5952 7.07109C36.6042 7.16983 36.5405 7.2612 36.443 7.28772L36.611 7.60162H36.4482L36.2915 7.30909H36.1685V7.60162H36.0125V6.83677H36.0132ZM36.2952 7.19193C36.3905 7.19193 36.443 7.16172 36.443 7.07993C36.443 6.99814 36.3905 6.96793 36.2915 6.96793H36.1685V7.19119H36.2945L36.2952 7.19193Z" class="logo-accent"/>
<path d="M3.7793 25H1.6875V12.1504H8.94727V13.9258H3.7793V17.9336H8.61328V19.7002H3.7793V25ZM12.2396 15.2705V25H10.1742V15.2705H12.2396ZM11.2201 11.5439C11.5365 11.5439 11.809 11.6289 12.0375 11.7988C12.2719 11.9688 12.3891 12.2617 12.3891 12.6777C12.3891 13.0879 12.2719 13.3809 12.0375 13.5566C11.809 13.7266 11.5365 13.8115 11.2201 13.8115C10.892 13.8115 10.6137 13.7266 10.3852 13.5566C10.1625 13.3809 10.0512 13.0879 10.0512 12.6777C10.0512 12.2617 10.1625 11.9688 10.3852 11.7988C10.6137 11.6289 10.892 11.5439 11.2201 11.5439ZM19.3729 15.0859C20.4686 15.0859 21.3211 15.3701 21.9305 15.9385C22.5457 16.501 22.8533 17.4062 22.8533 18.6543V25H20.7879V19.041C20.7879 18.2852 20.6326 17.7197 20.3221 17.3447C20.0115 16.9639 19.5311 16.7734 18.8807 16.7734C17.9373 16.7734 17.2811 17.0635 16.9119 17.6436C16.5486 18.2236 16.367 19.0645 16.367 20.166V25H14.3016V15.2705H15.91L16.2 16.5889H16.3143C16.5252 16.249 16.7859 15.9707 17.0965 15.7539C17.4129 15.5312 17.7645 15.3643 18.1512 15.2529C18.5437 15.1416 18.951 15.0859 19.3729 15.0859ZM28.6594 15.0859C29.8898 15.0859 30.8186 15.3584 31.4455 15.9033C32.0783 16.4482 32.3947 17.2979 32.3947 18.4521V25H30.927L30.5314 23.6201H30.4611C30.1857 23.9717 29.9016 24.2617 29.6086 24.4902C29.3156 24.7188 28.9758 24.8887 28.5891 25C28.2082 25.1172 27.7424 25.1758 27.1916 25.1758C26.6115 25.1758 26.093 25.0703 25.6359 24.8594C25.1789 24.6426 24.8186 24.3145 24.5549 23.875C24.2912 23.4355 24.1594 22.8789 24.1594 22.2051C24.1594 21.2031 24.5314 20.4502 25.2756 19.9463C26.0256 19.4424 27.1564 19.1641 28.6682 19.1113L30.3557 19.0498V18.54C30.3557 17.8662 30.1975 17.3857 29.8811 17.0986C29.5705 16.8115 29.1311 16.668 28.5627 16.668C28.0764 16.668 27.6047 16.7383 27.1477 16.8789C26.6906 17.0195 26.2453 17.1924 25.8117 17.3975L25.1437 15.9385C25.6184 15.6865 26.1574 15.4814 26.7609 15.3232C27.3703 15.165 28.0031 15.0859 28.6594 15.0859ZM30.3469 20.3506L29.09 20.3945C28.0588 20.4297 27.3352 20.6055 26.9191 20.9219C26.5031 21.2383 26.2951 21.6719 26.2951 22.2227C26.2951 22.7031 26.4387 23.0547 26.7258 23.2773C27.0129 23.4941 27.3908 23.6025 27.8596 23.6025C28.5744 23.6025 29.1662 23.4004 29.635 22.9961C30.1096 22.5859 30.3469 21.9854 30.3469 21.1943V20.3506ZM39.4576 15.0859C40.5533 15.0859 41.4059 15.3701 42.0152 15.9385C42.6305 16.501 42.9381 17.4062 42.9381 18.6543V25H40.8727V19.041C40.8727 18.2852 40.7174 17.7197 40.4068 17.3447C40.0963 16.9639 39.6158 16.7734 38.9654 16.7734C38.0221 16.7734 37.3658 17.0635 36.9967 17.6436C36.6334 18.2236 36.4518 19.0645 36.4518 20.166V25H34.3863V15.2705H35.9947L36.2848 16.5889H36.399C36.61 16.249 36.8707 15.9707 37.1813 15.7539C37.4977 15.5312 37.8492 15.3643 38.2359 15.2529C38.6285 15.1416 39.0357 15.0859 39.4576 15.0859ZM48.8496 25.1758C47.9297 25.1758 47.1328 24.9971 46.459 24.6396C45.7852 24.2822 45.2666 23.7344 44.9033 22.9961C44.54 22.2578 44.3584 21.3203 44.3584 20.1836C44.3584 19 44.5576 18.0332 44.9561 17.2832C45.3545 16.5332 45.9053 15.9795 46.6084 15.6221C47.3174 15.2646 48.1289 15.0859 49.043 15.0859C49.623 15.0859 50.1475 15.1445 50.6162 15.2617C51.0908 15.373 51.4922 15.5107 51.8203 15.6748L51.2051 17.3271C50.8477 17.1807 50.4814 17.0576 50.1064 16.958C49.7314 16.8584 49.3711 16.8086 49.0254 16.8086C48.457 16.8086 47.9824 16.9346 47.6016 17.1865C47.2266 17.4385 46.9453 17.8135 46.7578 18.3115C46.5762 18.8096 46.4854 19.4277 46.4854 20.166C46.4854 20.8809 46.5791 21.4844 46.7666 21.9766C46.9541 22.4629 47.2324 22.832 47.6016 23.084C47.9707 23.3301 48.4248 23.4531 48.9639 23.4531C49.4971 23.4531 49.9746 23.3887 50.3965 23.2598C50.8184 23.1309 51.2168 22.9639 51.5918 22.7588V24.5518C51.2227 24.7627 50.8271 24.918 50.4053 25.0176C49.9834 25.123 49.4648 25.1758 48.8496 25.1758ZM55.0424 15.2705V25H52.977V15.2705H55.0424ZM54.0229 11.5439C54.3393 11.5439 54.6117 11.6289 54.8402 11.7988C55.0746 11.9688 55.1918 12.2617 55.1918 12.6777C55.1918 13.0879 55.0746 13.3809 54.8402 13.5566C54.6117 13.7266 54.3393 13.8115 54.0229 13.8115C53.6947 13.8115 53.4164 13.7266 53.1879 13.5566C52.9652 13.3809 52.8539 13.0879 52.8539 12.6777C52.8539 12.2617 52.9652 11.9688 53.1879 11.7988C53.4164 11.6289 53.6947 11.5439 54.0229 11.5439ZM60.9188 15.0859C62.1492 15.0859 63.0779 15.3584 63.7049 15.9033C64.3377 16.4482 64.6541 17.2979 64.6541 18.4521V25H63.1863L62.7908 23.6201H62.7205C62.4451 23.9717 62.1609 24.2617 61.868 24.4902C61.575 24.7188 61.2352 24.8887 60.8484 25C60.4676 25.1172 60.0018 25.1758 59.451 25.1758C58.8709 25.1758 58.3523 25.0703 57.8953 24.8594C57.4383 24.6426 57.0779 24.3145 56.8143 23.875C56.5506 23.4355 56.4188 22.8789 56.4188 22.2051C56.4188 21.2031 56.7908 20.4502 57.535 19.9463C58.285 19.4424 59.4158 19.1641 60.9275 19.1113L62.615 19.0498V18.54C62.615 17.8662 62.4568 17.3857 62.1404 17.0986C61.8299 16.8115 61.3904 16.668 60.8221 16.668C60.3357 16.668 59.8641 16.7383 59.407 16.8789C58.95 17.0195 58.5047 17.1924 58.0711 17.3975L57.4031 15.9385C57.8777 15.6865 58.4168 15.4814 59.0203 15.3232C59.6297 15.165 60.2625 15.0859 60.9188 15.0859ZM62.6063 20.3506L61.3494 20.3945C60.3182 20.4297 59.5945 20.6055 59.1785 20.9219C58.7625 21.2383 58.5545 21.6719 58.5545 22.2227C58.5545 22.7031 58.698 23.0547 58.9852 23.2773C59.2723 23.4941 59.6502 23.6025 60.1189 23.6025C60.8338 23.6025 61.4256 23.4004 61.8943 22.9961C62.3689 22.5859 62.6063 21.9854 62.6063 21.1943V20.3506ZM68.7199 25H66.6457V11.3242H68.7199V25ZM77.3121 22.2227C77.3121 22.8613 77.1568 23.4004 76.8463 23.8398C76.5357 24.2793 76.0816 24.6133 75.484 24.8418C74.8922 25.0645 74.1656 25.1758 73.3043 25.1758C72.6246 25.1758 72.0387 25.126 71.5465 25.0264C71.0602 24.9326 70.6002 24.7861 70.1666 24.5869V22.8027C70.6295 23.0195 71.148 23.207 71.7223 23.3652C72.3023 23.5234 72.8502 23.6025 73.3658 23.6025C74.0455 23.6025 74.5348 23.4971 74.8336 23.2861C75.1324 23.0693 75.2818 22.7822 75.2818 22.4248C75.2818 22.2139 75.2203 22.0264 75.0973 21.8623C74.9801 21.6924 74.7574 21.5195 74.4293 21.3438C74.107 21.1621 73.6324 20.9453 73.0055 20.6934C72.3902 20.4473 71.8717 20.2012 71.4498 19.9551C71.0279 19.709 70.7086 19.4131 70.4918 19.0674C70.275 18.7158 70.1666 18.2676 70.1666 17.7227C70.1666 16.8613 70.5064 16.208 71.1861 15.7627C71.8717 15.3115 72.777 15.0859 73.902 15.0859C74.4996 15.0859 75.0621 15.1475 75.5895 15.2705C76.1227 15.3877 76.6441 15.5605 77.1539 15.7891L76.5035 17.3447C76.0641 17.1514 75.6217 16.9932 75.1764 16.8701C74.7369 16.7412 74.2887 16.6768 73.8316 16.6768C73.2984 16.6768 72.8912 16.7588 72.61 16.9229C72.3346 17.0869 72.1969 17.3213 72.1969 17.626C72.1969 17.8545 72.2643 18.0479 72.399 18.2061C72.5338 18.3643 72.7652 18.5225 73.0934 18.6807C73.4273 18.8389 73.8902 19.0352 74.482 19.2695C75.0621 19.4922 75.5631 19.7266 75.985 19.9727C76.4127 20.2129 76.7408 20.5088 76.9693 20.8604C77.1979 21.2119 77.3121 21.666 77.3121 22.2227Z" class="logo-text"/>
</svg>
