<svg width="75" height="30" viewBox="0 0 75 30" fill="none" xmlns="http://www.w3.org/2000/svg">
<path d="M3.65277 7.8974H2.0514V1.78668H0V0.476562H5.70418V1.78595H3.65277V7.89666V7.8974Z" class="logo-accent"/>
<path d="M8.56749 2.11597C8.647 2.11597 8.7385 2.12039 8.84426 2.1285C8.94927 2.13734 9.03478 2.14766 9.10003 2.16166L8.98152 3.61325C8.92977 3.59631 8.85626 3.58378 8.76175 3.57494C8.66725 3.56683 8.58549 3.56241 8.51648 3.56241C8.31322 3.56241 8.11596 3.5882 7.92469 3.63831C7.73343 3.68915 7.56241 3.77094 7.4109 3.88442C7.25939 3.99789 7.13938 4.14673 7.05163 4.33095C6.96387 4.51516 6.91962 4.74137 6.91962 5.00885V7.89657H5.34375V2.22281H6.53709L6.76961 3.17704H6.84686C6.96087 2.98398 7.10263 2.80714 7.27289 2.6465C7.44316 2.48587 7.63817 2.35692 7.85644 2.26039C8.07545 2.16387 8.31172 2.11523 8.56674 2.11523L8.56749 2.11597Z" class="logo-accent"/>
<path d="M10.2284 0C10.4624 0 10.6642 0.0530533 10.833 0.159897C11.0017 0.26674 11.0865 0.464954 11.0865 0.75601C11.0865 1.04707 11.0017 1.24233 10.833 1.35212C10.6642 1.46191 10.4624 1.51718 10.2284 1.51718C9.99439 1.51718 9.78812 1.46191 9.62161 1.35212C9.45435 1.24233 9.37109 1.04338 9.37109 0.75601C9.37109 0.468638 9.45435 0.266004 9.62161 0.159897C9.78887 0.0530533 9.99139 0 10.2284 0ZM11.0137 2.22308V7.89758H9.43785V2.22308H11.0137Z" class="logo-accent"/>
<path d="M18.7239 2.11621C19.378 2.11621 19.8738 2.28127 20.209 2.61138C20.5451 2.94148 20.7131 3.46981 20.7131 4.19782V7.89755H19.132V4.58319C19.132 4.17719 19.0615 3.87066 18.9204 3.66434C18.7794 3.45802 18.5604 3.35486 18.2641 3.35486C17.8471 3.35486 17.5508 3.50149 17.3753 3.79402C17.1998 4.08655 17.1121 4.50508 17.1121 5.05035V7.89755H15.5362V4.58319C15.5362 4.31277 15.5054 4.08582 15.4432 3.90308C15.3809 3.72034 15.2864 3.58328 15.1589 3.49191C15.0314 3.40054 14.8679 3.35486 14.6684 3.35486C14.3759 3.35486 14.1456 3.42707 13.9783 3.57076C13.8111 3.71444 13.6926 3.92592 13.6221 4.20519C13.5515 4.48445 13.5163 4.82488 13.5163 5.22794V7.89755H11.9404V2.22305H13.1443L13.3558 2.94885H13.4435C13.5605 2.75285 13.7076 2.59369 13.8853 2.47211C14.0623 2.35053 14.2581 2.26063 14.4719 2.20316C14.6856 2.14569 14.9024 2.11695 15.1229 2.11695C15.5467 2.11695 15.906 2.18474 16.2 2.32032C16.4948 2.4559 16.7213 2.66517 16.8795 2.94959H17.0191C17.1916 2.65853 17.4346 2.44706 17.7504 2.31516C18.0654 2.18326 18.3902 2.11695 18.7239 2.11695V2.11621Z" class="logo-accent"/>
<path d="M23.1845 0V1.83771C23.1845 2.05066 23.1785 2.26213 23.1665 2.47214C23.1545 2.68214 23.1395 2.84425 23.1222 2.9592H23.1845C23.336 2.72561 23.543 2.52666 23.8048 2.36308C24.0666 2.19877 24.4056 2.11698 24.8226 2.11698C25.4699 2.11698 25.9957 2.36603 26.3985 2.86341C26.8013 3.36078 27.003 4.09026 27.003 5.05112C27.003 5.69734 26.91 6.23966 26.724 6.67809C26.538 7.11651 26.2777 7.44662 25.9439 7.66768C25.6102 7.88947 25.2224 8 24.7814 8C24.3403 8 24.0238 7.92558 23.7793 7.77673C23.5348 7.62789 23.3368 7.46062 23.1852 7.2742H23.0765L22.8132 7.89831H21.6094V0H23.1852H23.1845ZM24.3156 3.35489C24.0403 3.35489 23.8213 3.41089 23.6593 3.52215C23.4973 3.63415 23.3795 3.80142 23.3053 4.02468C23.231 4.24795 23.1905 4.5309 23.1837 4.87206V5.03933C23.1837 5.59123 23.2662 6.01345 23.432 6.30598C23.597 6.59851 23.8985 6.74514 24.3358 6.74514C24.6599 6.74514 24.9171 6.59777 25.1084 6.30377C25.2997 6.00903 25.3949 5.5846 25.3949 5.02975C25.3949 4.4749 25.2981 4.05711 25.1054 3.77563C24.9126 3.49489 24.6486 3.35415 24.3148 3.35415L24.3156 3.35489Z" class="logo-accent"/>
<path d="M29.2272 7.89758H27.6514V0H29.2272V7.89758Z" class="logo-accent"/>
<path d="M32.5881 2.11621C33.1222 2.11621 33.582 2.21716 33.9675 2.41832C34.353 2.61948 34.6508 2.91127 34.8616 3.2937C35.0716 3.67613 35.1766 4.14329 35.1766 4.69446V5.44531H31.4518C31.4691 5.88226 31.6026 6.22416 31.8523 6.47322C32.1021 6.72153 32.4494 6.84606 32.8934 6.84606C33.2617 6.84606 33.5992 6.80922 33.906 6.7348C34.2128 6.66038 34.5278 6.54837 34.8518 6.39953V7.59765C34.566 7.73618 34.2668 7.83786 33.9555 7.90197C33.6435 7.96608 33.2654 7.9985 32.8214 7.9985C32.2431 7.9985 31.7301 7.89387 31.2845 7.68386C30.8383 7.47386 30.4887 7.15407 30.236 6.72448C29.9825 6.2949 29.8564 5.75331 29.8564 5.10046C29.8564 4.44761 29.9712 3.88466 30.2 3.44328C30.4287 3.00191 30.7483 2.67032 31.1585 2.44853C31.5681 2.22674 32.0451 2.11621 32.5896 2.11621H32.5881ZM32.5986 3.2178C32.2919 3.2178 32.0384 3.31433 31.8366 3.50739C31.6348 3.69971 31.5186 4.00329 31.4878 4.41593H33.699C33.6952 4.18603 33.6532 3.98118 33.5722 3.80139C33.4912 3.62234 33.3705 3.48012 33.2107 3.37475C33.0502 3.27012 32.8462 3.2178 32.5986 3.2178Z" class="logo-accent"/>
<path d="M35.5782 7.23467C35.5737 6.85298 35.8849 6.53982 36.2735 6.53613C36.2787 6.53613 36.284 6.53613 36.2892 6.53613C36.6823 6.53613 37.0003 6.8493 37.0003 7.23467C37.0003 7.62078 36.6815 7.9332 36.2892 7.9332C35.8962 7.9332 35.5782 7.62004 35.5782 7.23467ZM36.8713 7.23467C36.8653 6.91782 36.5997 6.66508 36.2772 6.67098C35.9547 6.67687 35.6974 6.93772 35.7034 7.25456C35.7087 7.56846 35.9705 7.81973 36.29 7.81825C36.611 7.81825 36.872 7.56257 36.872 7.24646C36.872 7.24204 36.872 7.23835 36.872 7.23393L36.8713 7.23467ZM36.0132 6.83677H36.3042C36.488 6.83677 36.5952 6.91487 36.5952 7.07109C36.6042 7.16983 36.5405 7.2612 36.443 7.28772L36.611 7.60162H36.4482L36.2915 7.30909H36.1685V7.60162H36.0125V6.83677H36.0132ZM36.2952 7.19193C36.3905 7.19193 36.443 7.16172 36.443 7.07993C36.443 6.99814 36.3905 6.96793 36.2915 6.96793H36.1685V7.19119H36.2945L36.2952 7.19193Z" class="logo-accent"/>
<path d="M7.2334 25L3.5332 14.2686H3.4541C3.47168 14.5088 3.49219 14.8369 3.51562 15.2529C3.53906 15.6689 3.55957 16.1143 3.57715 16.5889C3.59473 17.0635 3.60352 17.5176 3.60352 17.9512V25H1.6875V12.1504H4.64941L8.20898 22.4072H8.26172L11.9443 12.1504H14.8975V25H12.8848V17.8457C12.8848 17.4531 12.8906 17.0283 12.9023 16.5713C12.9199 16.1143 12.9375 15.6807 12.9551 15.2705C12.9785 14.8604 12.9961 14.5322 13.0078 14.2861H12.9375L9.09668 25H7.2334ZM20.9848 15.0859C22.2152 15.0859 23.1439 15.3584 23.7709 15.9033C24.4037 16.4482 24.7201 17.2979 24.7201 18.4521V25H23.2523L22.8568 23.6201H22.7865C22.5111 23.9717 22.227 24.2617 21.934 24.4902C21.641 24.7188 21.3012 24.8887 20.9145 25C20.5336 25.1172 20.0678 25.1758 19.517 25.1758C18.9369 25.1758 18.4184 25.0703 17.9613 24.8594C17.5043 24.6426 17.1439 24.3145 16.8803 23.875C16.6166 23.4355 16.4848 22.8789 16.4848 22.2051C16.4848 21.2031 16.8568 20.4502 17.601 19.9463C18.351 19.4424 19.4818 19.1641 20.9936 19.1113L22.6811 19.0498V18.54C22.6811 17.8662 22.5229 17.3857 22.2064 17.0986C21.8959 16.8115 21.4564 16.668 20.8881 16.668C20.4018 16.668 19.9301 16.7383 19.473 16.8789C19.016 17.0195 18.5707 17.1924 18.1371 17.3975L17.4691 15.9385C17.9438 15.6865 18.4828 15.4814 19.0863 15.3232C19.6957 15.165 20.3285 15.0859 20.9848 15.0859ZM22.6723 20.3506L21.4154 20.3945C20.3842 20.4297 19.6605 20.6055 19.2445 20.9219C18.8285 21.2383 18.6205 21.6719 18.6205 22.2227C18.6205 22.7031 18.7641 23.0547 19.0512 23.2773C19.3383 23.4941 19.7162 23.6025 20.185 23.6025C20.8998 23.6025 21.4916 23.4004 21.9604 22.9961C22.435 22.5859 22.6723 21.9854 22.6723 21.1943V20.3506ZM30.3328 23.5059C30.6023 23.5059 30.8689 23.4824 31.1326 23.4355C31.3963 23.3828 31.6365 23.3213 31.8533 23.251V24.8154C31.6248 24.915 31.3289 25 30.9656 25.0703C30.6023 25.1406 30.2244 25.1758 29.8318 25.1758C29.2811 25.1758 28.7859 25.085 28.3465 24.9033C27.907 24.7158 27.5584 24.3965 27.3006 23.9453C27.0428 23.4941 26.9139 22.8701 26.9139 22.0732V16.8438H25.5867V15.9209L27.0105 15.1914L27.6873 13.1084H28.9881V15.2705H31.7742V16.8438H28.9881V22.0469C28.9881 22.5391 29.1111 22.9053 29.3572 23.1455C29.6033 23.3857 29.9285 23.5059 30.3328 23.5059ZM36.8068 15.0859C37.674 15.0859 38.4182 15.2646 39.0393 15.6221C39.6604 15.9795 40.1379 16.4863 40.4719 17.1426C40.8059 17.7988 40.9729 18.584 40.9729 19.498V20.6055H34.4777C34.5012 21.5488 34.7531 22.2754 35.2336 22.7852C35.7199 23.2949 36.3996 23.5498 37.2727 23.5498C37.8937 23.5498 38.4504 23.4912 38.9426 23.374C39.4406 23.251 39.9533 23.0723 40.4807 22.8379V24.5166C39.9943 24.7451 39.4992 24.9121 38.9953 25.0176C38.4914 25.123 37.8879 25.1758 37.1848 25.1758C36.2297 25.1758 35.3889 24.9912 34.6623 24.6221C33.9416 24.2471 33.3762 23.6904 32.966 22.9521C32.5617 22.2139 32.3596 21.2969 32.3596 20.2012C32.3596 19.1113 32.5441 18.1855 32.9133 17.4238C33.2824 16.6621 33.801 16.082 34.4689 15.6836C35.1369 15.2852 35.9162 15.0859 36.8068 15.0859ZM36.8068 16.6416C36.1564 16.6416 35.6291 16.8525 35.2248 17.2744C34.8264 17.6963 34.592 18.3145 34.5217 19.1289H38.9514C38.9455 18.6426 38.8635 18.2119 38.7053 17.8369C38.5529 17.4619 38.3186 17.1689 38.0021 16.958C37.6916 16.7471 37.2932 16.6416 36.8068 16.6416ZM47.3326 15.0859C47.4967 15.0859 47.6754 15.0947 47.8688 15.1123C48.0621 15.1299 48.2291 15.1533 48.3697 15.1826L48.1764 17.1162C48.0533 17.0811 47.901 17.0547 47.7193 17.0371C47.5436 17.0195 47.3854 17.0107 47.2447 17.0107C46.8756 17.0107 46.524 17.0723 46.19 17.1953C45.8561 17.3125 45.5602 17.4941 45.3023 17.7402C45.0445 17.9805 44.8424 18.2822 44.6959 18.6455C44.5494 19.0088 44.4762 19.4307 44.4762 19.9111V25H42.402V15.2705H44.0191L44.3004 16.9844H44.3971C44.5904 16.6387 44.8307 16.3223 45.1178 16.0352C45.4049 15.748 45.733 15.5195 46.1021 15.3496C46.4771 15.1738 46.8873 15.0859 47.3326 15.0859ZM51.3369 15.2705V25H49.2715V15.2705H51.3369ZM50.3174 11.5439C50.6338 11.5439 50.9062 11.6289 51.1348 11.7988C51.3691 11.9688 51.4863 12.2617 51.4863 12.6777C51.4863 13.0879 51.3691 13.3809 51.1348 13.5566C50.9062 13.7266 50.6338 13.8115 50.3174 13.8115C49.9893 13.8115 49.7109 13.7266 49.4824 13.5566C49.2598 13.3809 49.1484 13.0879 49.1484 12.6777C49.1484 12.2617 49.2598 11.9688 49.4824 11.7988C49.7109 11.6289 49.9893 11.5439 50.3174 11.5439ZM57.2133 15.0859C58.4437 15.0859 59.3725 15.3584 59.9994 15.9033C60.6322 16.4482 60.9486 17.2979 60.9486 18.4521V25H59.4809L59.0854 23.6201H59.015C58.7396 23.9717 58.4555 24.2617 58.1625 24.4902C57.8695 24.7188 57.5297 24.8887 57.143 25C56.7621 25.1172 56.2963 25.1758 55.7455 25.1758C55.1654 25.1758 54.6469 25.0703 54.1898 24.8594C53.7328 24.6426 53.3725 24.3145 53.1088 23.875C52.8451 23.4355 52.7133 22.8789 52.7133 22.2051C52.7133 21.2031 53.0854 20.4502 53.8295 19.9463C54.5795 19.4424 55.7104 19.1641 57.2221 19.1113L58.9096 19.0498V18.54C58.9096 17.8662 58.7514 17.3857 58.435 17.0986C58.1244 16.8115 57.685 16.668 57.1166 16.668C56.6303 16.668 56.1586 16.7383 55.7016 16.8789C55.2445 17.0195 54.7992 17.1924 54.3656 17.3975L53.6977 15.9385C54.1723 15.6865 54.7113 15.4814 55.3148 15.3232C55.9242 15.165 56.557 15.0859 57.2133 15.0859ZM58.9008 20.3506L57.6439 20.3945C56.6127 20.4297 55.8891 20.6055 55.473 20.9219C55.057 21.2383 54.849 21.6719 54.849 22.2227C54.849 22.7031 54.9926 23.0547 55.2797 23.2773C55.5668 23.4941 55.9447 23.6025 56.4135 23.6025C57.1283 23.6025 57.7201 23.4004 58.1889 22.9961C58.6635 22.5859 58.9008 21.9854 58.9008 21.1943V20.3506ZM65.0145 25H62.9402V11.3242H65.0145V25ZM73.6066 22.2227C73.6066 22.8613 73.4514 23.4004 73.1408 23.8398C72.8303 24.2793 72.3762 24.6133 71.7785 24.8418C71.1867 25.0645 70.4602 25.1758 69.5988 25.1758C68.9191 25.1758 68.3332 25.126 67.841 25.0264C67.3547 24.9326 66.8947 24.7861 66.4611 24.5869V22.8027C66.924 23.0195 67.4426 23.207 68.0168 23.3652C68.5969 23.5234 69.1447 23.6025 69.6604 23.6025C70.34 23.6025 70.8293 23.4971 71.1281 23.2861C71.427 23.0693 71.5764 22.7822 71.5764 22.4248C71.5764 22.2139 71.5148 22.0264 71.3918 21.8623C71.2746 21.6924 71.052 21.5195 70.7238 21.3438C70.4016 21.1621 69.927 20.9453 69.3 20.6934C68.6848 20.4473 68.1662 20.2012 67.7443 19.9551C67.3225 19.709 67.0031 19.4131 66.7863 19.0674C66.5695 18.7158 66.4611 18.2676 66.4611 17.7227C66.4611 16.8613 66.801 16.208 67.4807 15.7627C68.1662 15.3115 69.0715 15.0859 70.1965 15.0859C70.7941 15.0859 71.3566 15.1475 71.884 15.2705C72.4172 15.3877 72.9387 15.5605 73.4484 15.7891L72.798 17.3447C72.3586 17.1514 71.9162 16.9932 71.4709 16.8701C71.0314 16.7412 70.5832 16.6768 70.1262 16.6768C69.593 16.6768 69.1857 16.7588 68.9045 16.9229C68.6291 17.0869 68.4914 17.3213 68.4914 17.626C68.4914 17.8545 68.5588 18.0479 68.6936 18.2061C68.8283 18.3643 69.0598 18.5225 69.3879 18.6807C69.7219 18.8389 70.1848 19.0352 70.7766 19.2695C71.3566 19.4922 71.8576 19.7266 72.2795 19.9727C72.7072 20.2129 73.0354 20.5088 73.2639 20.8604C73.4924 21.2119 73.6066 21.666 73.6066 22.2227Z" class="logo-text"/>
</svg>
