<svg width="128" height="30" viewBox="0 0 128 30" fill="none" xmlns="http://www.w3.org/2000/svg">
<path d="M3.65277 7.8974H2.0514V1.78668H0V0.476562H5.70418V1.78595H3.65277V7.89666V7.8974Z" class="logo-accent"/>
<path d="M8.56749 2.11597C8.647 2.11597 8.7385 2.12039 8.84426 2.1285C8.94927 2.13734 9.03478 2.14766 9.10003 2.16166L8.98152 3.61325C8.92977 3.59631 8.85626 3.58378 8.76175 3.57494C8.66725 3.56683 8.58549 3.56241 8.51648 3.56241C8.31322 3.56241 8.11596 3.5882 7.92469 3.63831C7.73343 3.68915 7.56241 3.77094 7.4109 3.88442C7.25939 3.99789 7.13938 4.14673 7.05163 4.33095C6.96387 4.51516 6.91962 4.74137 6.91962 5.00885V7.89657H5.34375V2.22281H6.53709L6.76961 3.17704H6.84686C6.96087 2.98398 7.10263 2.80714 7.27289 2.6465C7.44316 2.48587 7.63817 2.35692 7.85644 2.26039C8.07545 2.16387 8.31172 2.11523 8.56674 2.11523L8.56749 2.11597Z" class="logo-accent"/>
<path d="M10.2284 0C10.4624 0 10.6642 0.0530533 10.833 0.159897C11.0017 0.26674 11.0865 0.464954 11.0865 0.75601C11.0865 1.04707 11.0017 1.24233 10.833 1.35212C10.6642 1.46191 10.4624 1.51718 10.2284 1.51718C9.99439 1.51718 9.78812 1.46191 9.62161 1.35212C9.45435 1.24233 9.37109 1.04338 9.37109 0.75601C9.37109 0.468638 9.45435 0.266004 9.62161 0.159897C9.78887 0.0530533 9.99139 0 10.2284 0ZM11.0137 2.22308V7.89758H9.43785V2.22308H11.0137Z" class="logo-accent"/>
<path d="M18.7239 2.11621C19.378 2.11621 19.8738 2.28127 20.209 2.61138C20.5451 2.94148 20.7131 3.46981 20.7131 4.19782V7.89755H19.132V4.58319C19.132 4.17719 19.0615 3.87066 18.9204 3.66434C18.7794 3.45802 18.5604 3.35486 18.2641 3.35486C17.8471 3.35486 17.5508 3.50149 17.3753 3.79402C17.1998 4.08655 17.1121 4.50508 17.1121 5.05035V7.89755H15.5362V4.58319C15.5362 4.31277 15.5054 4.08582 15.4432 3.90308C15.3809 3.72034 15.2864 3.58328 15.1589 3.49191C15.0314 3.40054 14.8679 3.35486 14.6684 3.35486C14.3759 3.35486 14.1456 3.42707 13.9783 3.57076C13.8111 3.71444 13.6926 3.92592 13.6221 4.20519C13.5515 4.48445 13.5163 4.82488 13.5163 5.22794V7.89755H11.9404V2.22305H13.1443L13.3558 2.94885H13.4435C13.5605 2.75285 13.7076 2.59369 13.8853 2.47211C14.0623 2.35053 14.2581 2.26063 14.4719 2.20316C14.6856 2.14569 14.9024 2.11695 15.1229 2.11695C15.5467 2.11695 15.906 2.18474 16.2 2.32032C16.4948 2.4559 16.7213 2.66517 16.8795 2.94959H17.0191C17.1916 2.65853 17.4346 2.44706 17.7504 2.31516C18.0654 2.18326 18.3902 2.11695 18.7239 2.11695V2.11621Z" class="logo-accent"/>
<path d="M23.1845 0V1.83771C23.1845 2.05066 23.1785 2.26213 23.1665 2.47214C23.1545 2.68214 23.1395 2.84425 23.1222 2.9592H23.1845C23.336 2.72561 23.543 2.52666 23.8048 2.36308C24.0666 2.19877 24.4056 2.11698 24.8226 2.11698C25.4699 2.11698 25.9957 2.36603 26.3985 2.86341C26.8013 3.36078 27.003 4.09026 27.003 5.05112C27.003 5.69734 26.91 6.23966 26.724 6.67809C26.538 7.11651 26.2777 7.44662 25.9439 7.66768C25.6102 7.88947 25.2224 8 24.7814 8C24.3403 8 24.0238 7.92558 23.7793 7.77673C23.5348 7.62789 23.3368 7.46062 23.1852 7.2742H23.0765L22.8132 7.89831H21.6094V0H23.1852H23.1845ZM24.3156 3.35489C24.0403 3.35489 23.8213 3.41089 23.6593 3.52215C23.4973 3.63415 23.3795 3.80142 23.3053 4.02468C23.231 4.24795 23.1905 4.5309 23.1837 4.87206V5.03933C23.1837 5.59123 23.2662 6.01345 23.432 6.30598C23.597 6.59851 23.8985 6.74514 24.3358 6.74514C24.6599 6.74514 24.9171 6.59777 25.1084 6.30377C25.2997 6.00903 25.3949 5.5846 25.3949 5.02975C25.3949 4.4749 25.2981 4.05711 25.1054 3.77563C24.9126 3.49489 24.6486 3.35415 24.3148 3.35415L24.3156 3.35489Z" class="logo-accent"/>
<path d="M29.2272 7.89758H27.6514V0H29.2272V7.89758Z" class="logo-accent"/>
<path d="M32.5881 2.11621C33.1222 2.11621 33.582 2.21716 33.9675 2.41832C34.353 2.61948 34.6508 2.91127 34.8616 3.2937C35.0716 3.67613 35.1766 4.14329 35.1766 4.69446V5.44531H31.4518C31.4691 5.88226 31.6026 6.22416 31.8523 6.47322C32.1021 6.72153 32.4494 6.84606 32.8934 6.84606C33.2617 6.84606 33.5992 6.80922 33.906 6.7348C34.2128 6.66038 34.5278 6.54837 34.8518 6.39953V7.59765C34.566 7.73618 34.2668 7.83786 33.9555 7.90197C33.6435 7.96608 33.2654 7.9985 32.8214 7.9985C32.2431 7.9985 31.7301 7.89387 31.2845 7.68386C30.8383 7.47386 30.4887 7.15407 30.236 6.72448C29.9825 6.2949 29.8564 5.75331 29.8564 5.10046C29.8564 4.44761 29.9712 3.88466 30.2 3.44328C30.4287 3.00191 30.7483 2.67032 31.1585 2.44853C31.5681 2.22674 32.0451 2.11621 32.5896 2.11621H32.5881ZM32.5986 3.2178C32.2919 3.2178 32.0384 3.31433 31.8366 3.50739C31.6348 3.69971 31.5186 4.00329 31.4878 4.41593H33.699C33.6952 4.18603 33.6532 3.98118 33.5722 3.80139C33.4912 3.62234 33.3705 3.48012 33.2107 3.37475C33.0502 3.27012 32.8462 3.2178 32.5986 3.2178Z" class="logo-accent"/>
<path d="M35.5782 7.23467C35.5737 6.85298 35.8849 6.53982 36.2735 6.53613C36.2787 6.53613 36.284 6.53613 36.2892 6.53613C36.6823 6.53613 37.0003 6.8493 37.0003 7.23467C37.0003 7.62078 36.6815 7.9332 36.2892 7.9332C35.8962 7.9332 35.5782 7.62004 35.5782 7.23467ZM36.8713 7.23467C36.8653 6.91782 36.5997 6.66508 36.2772 6.67098C35.9547 6.67687 35.6974 6.93772 35.7034 7.25456C35.7087 7.56846 35.9705 7.81973 36.29 7.81825C36.611 7.81825 36.872 7.56257 36.872 7.24646C36.872 7.24204 36.872 7.23835 36.872 7.23393L36.8713 7.23467ZM36.0132 6.83677H36.3042C36.488 6.83677 36.5952 6.91487 36.5952 7.07109C36.6042 7.16983 36.5405 7.2612 36.443 7.28772L36.611 7.60162H36.4482L36.2915 7.30909H36.1685V7.60162H36.0125V6.83677H36.0132ZM36.2952 7.19193C36.3905 7.19193 36.443 7.16172 36.443 7.07993C36.443 6.99814 36.3905 6.96793 36.2915 6.96793H36.1685V7.19119H36.2945L36.2952 7.19193Z" class="logo-accent"/>
<path d="M7.2334 25L3.5332 14.2686H3.4541C3.47168 14.5088 3.49219 14.8369 3.51562 15.2529C3.53906 15.6689 3.55957 16.1143 3.57715 16.5889C3.59473 17.0635 3.60352 17.5176 3.60352 17.9512V25H1.6875V12.1504H4.64941L8.20898 22.4072H8.26172L11.9443 12.1504H14.8975V25H12.8848V17.8457C12.8848 17.4531 12.8906 17.0283 12.9023 16.5713C12.9199 16.1143 12.9375 15.6807 12.9551 15.2705C12.9785 14.8604 12.9961 14.5322 13.0078 14.2861H12.9375L9.09668 25H7.2334ZM25.7836 20.1133C25.7836 20.9219 25.6781 21.6396 25.4672 22.2666C25.2563 22.8936 24.9486 23.4238 24.5443 23.8574C24.14 24.2852 23.6537 24.6133 23.0854 24.8418C22.517 25.0645 21.8754 25.1758 21.1605 25.1758C20.4926 25.1758 19.8803 25.0645 19.3236 24.8418C18.767 24.6133 18.2836 24.2852 17.8734 23.8574C17.4691 23.4238 17.1557 22.8936 16.933 22.2666C16.7104 21.6396 16.599 20.9219 16.599 20.1133C16.599 19.041 16.7836 18.1328 17.1527 17.3887C17.5277 16.6387 18.0609 16.0674 18.7523 15.6748C19.4438 15.2822 20.267 15.0859 21.2221 15.0859C22.1186 15.0859 22.9096 15.2822 23.5951 15.6748C24.2807 16.0674 24.8168 16.6387 25.2035 17.3887C25.5902 18.1387 25.7836 19.0469 25.7836 20.1133ZM18.726 20.1133C18.726 20.8223 18.8109 21.4287 18.9809 21.9326C19.1566 22.4365 19.4262 22.8232 19.7895 23.0928C20.1527 23.3564 20.6215 23.4883 21.1957 23.4883C21.7699 23.4883 22.2387 23.3564 22.602 23.0928C22.9652 22.8232 23.2318 22.4365 23.4018 21.9326C23.5717 21.4287 23.6566 20.8223 23.6566 20.1133C23.6566 19.4043 23.5717 18.8037 23.4018 18.3115C23.2318 17.8135 22.9652 17.4355 22.602 17.1777C22.2387 16.9141 21.767 16.7822 21.1869 16.7822C20.3314 16.7822 19.7074 17.0693 19.3148 17.6436C18.9223 18.2178 18.726 19.041 18.726 20.1133ZM30.5262 25.1758C29.366 25.1758 28.4344 24.7539 27.7313 23.9102C27.034 23.0605 26.6854 21.8096 26.6854 20.1572C26.6854 18.4873 27.0398 17.2246 27.7488 16.3691C28.4637 15.5137 29.4041 15.0859 30.5701 15.0859C31.0623 15.0859 31.493 15.1533 31.8621 15.2881C32.2313 15.417 32.5477 15.5928 32.8113 15.8154C33.0809 16.0381 33.3094 16.2871 33.4969 16.5625H33.5936C33.5643 16.3809 33.5291 16.1201 33.4881 15.7803C33.4529 15.4346 33.4354 15.1152 33.4354 14.8223V11.3242H35.5096V25H33.8924L33.5232 23.6729H33.4354C33.2596 23.9541 33.0369 24.209 32.7674 24.4375C32.5037 24.6602 32.1873 24.8389 31.8182 24.9736C31.4549 25.1084 31.0242 25.1758 30.5262 25.1758ZM31.1063 23.4971C31.991 23.4971 32.615 23.2422 32.9783 22.7324C33.3416 22.2227 33.5291 21.458 33.5408 20.4385V20.166C33.5408 19.0762 33.365 18.2412 33.0135 17.6611C32.6619 17.0752 32.0203 16.7822 31.0887 16.7822C30.3445 16.7822 29.7762 17.084 29.3836 17.6875C28.9969 18.2852 28.8035 19.1201 28.8035 20.1924C28.8035 21.2646 28.9969 22.085 29.3836 22.6533C29.7762 23.2158 30.3504 23.4971 31.1063 23.4971ZM46.0529 15.2705V25H44.427L44.1457 23.6904H44.0314C43.8264 24.0244 43.5656 24.3027 43.2492 24.5254C42.9328 24.7422 42.5812 24.9033 42.1945 25.0088C41.8078 25.1201 41.4006 25.1758 40.9729 25.1758C40.2404 25.1758 39.6135 25.0527 39.092 24.8066C38.5764 24.5547 38.1809 24.168 37.9055 23.6465C37.6301 23.125 37.4924 22.4512 37.4924 21.625V15.2705H39.5666V21.2383C39.5666 21.9941 39.7189 22.5596 40.0236 22.9346C40.3342 23.3096 40.8146 23.4971 41.465 23.4971C42.092 23.4971 42.59 23.3682 42.9592 23.1104C43.3283 22.8525 43.5891 22.4717 43.7414 21.9678C43.8996 21.4639 43.9787 20.8457 43.9787 20.1133V15.2705H46.0529ZM54.6539 22.2227C54.6539 22.8613 54.4986 23.4004 54.1881 23.8398C53.8775 24.2793 53.4234 24.6133 52.8258 24.8418C52.234 25.0645 51.5074 25.1758 50.6461 25.1758C49.9664 25.1758 49.3805 25.126 48.8883 25.0264C48.402 24.9326 47.942 24.7861 47.5084 24.5869V22.8027C47.9713 23.0195 48.4898 23.207 49.0641 23.3652C49.6441 23.5234 50.192 23.6025 50.7076 23.6025C51.3873 23.6025 51.8766 23.4971 52.1754 23.2861C52.4742 23.0693 52.6236 22.7822 52.6236 22.4248C52.6236 22.2139 52.5621 22.0264 52.4391 21.8623C52.3219 21.6924 52.0992 21.5195 51.7711 21.3438C51.4488 21.1621 50.9742 20.9453 50.3473 20.6934C49.732 20.4473 49.2135 20.2012 48.7916 19.9551C48.3697 19.709 48.0504 19.4131 47.8336 19.0674C47.6168 18.7158 47.5084 18.2676 47.5084 17.7227C47.5084 16.8613 47.8482 16.208 48.5279 15.7627C49.2135 15.3115 50.1188 15.0859 51.2438 15.0859C51.8414 15.0859 52.4039 15.1475 52.9313 15.2705C53.4645 15.3877 53.9859 15.5605 54.4957 15.7891L53.8453 17.3447C53.4059 17.1514 52.9635 16.9932 52.5182 16.8701C52.0787 16.7412 51.6305 16.6768 51.1734 16.6768C50.6402 16.6768 50.233 16.7588 49.9518 16.9229C49.6764 17.0869 49.5387 17.3213 49.5387 17.626C49.5387 17.8545 49.6061 18.0479 49.7408 18.2061C49.8756 18.3643 50.107 18.5225 50.4352 18.6807C50.7691 18.8389 51.232 19.0352 51.8238 19.2695C52.4039 19.4922 52.9049 19.7266 53.3268 19.9727C53.7545 20.2129 54.0826 20.5088 54.3111 20.8604C54.5396 21.2119 54.6539 21.666 54.6539 22.2227Z" class="logo-text"/>
<path d="M61.8105 12.1504H65.335C66.9229 12.1504 68.083 12.3994 68.8154 12.8975C69.5537 13.3955 69.9229 14.1895 69.9229 15.2793C69.9229 15.7715 69.8262 16.2197 69.6328 16.624C69.4453 17.0283 69.1641 17.3682 68.7891 17.6436C68.4199 17.9131 67.9629 18.0977 67.418 18.1973V18.2588C68.0684 18.3584 68.6045 18.54 69.0264 18.8037C69.4541 19.0615 69.7705 19.4043 69.9756 19.832C70.1865 20.2539 70.292 20.7578 70.292 21.3438C70.292 22.1875 70.0986 22.8789 69.7119 23.418C69.3311 23.957 68.8008 24.3555 68.1211 24.6133C67.4414 24.8711 66.6562 25 65.7656 25H61.8105V12.1504ZM62.7158 17.8633H65.5635C66.7705 17.8633 67.6436 17.6523 68.1826 17.2305C68.7217 16.8086 68.9912 16.1846 68.9912 15.3584C68.9912 14.5029 68.7012 13.8877 68.1211 13.5127C67.541 13.1377 66.6123 12.9502 65.335 12.9502H62.7158V17.8633ZM62.7158 18.6543V24.2002H65.7393C66.9287 24.2002 67.8252 23.96 68.4287 23.4795C69.0322 22.9932 69.334 22.2695 69.334 21.3086C69.334 20.6758 69.1934 20.166 68.9121 19.7793C68.6309 19.3867 68.209 19.1025 67.6465 18.9268C67.0898 18.7451 66.3955 18.6543 65.5635 18.6543H62.7158ZM72.8725 25H71.976V11.3242H72.8725V25ZM82.5721 15.4463V25H81.8514L81.7195 23.2773H81.6668C81.5027 23.6289 81.2713 23.9482 80.9725 24.2354C80.6736 24.5225 80.3074 24.751 79.8738 24.9209C79.4402 25.0908 78.9363 25.1758 78.3621 25.1758C77.6297 25.1758 77.0145 25.0498 76.5164 24.7979C76.0242 24.54 75.6521 24.1533 75.4002 23.6377C75.1482 23.1221 75.0223 22.4775 75.0223 21.7041V15.4463H75.91V21.6162C75.91 22.5713 76.1238 23.2744 76.5516 23.7256C76.9852 24.1768 77.618 24.4023 78.45 24.4023C79.1531 24.4023 79.742 24.2676 80.2166 23.998C80.6971 23.7285 81.0604 23.3213 81.3064 22.7764C81.5584 22.2256 81.6844 21.54 81.6844 20.7197V15.4463H82.5721ZM88.5012 15.2617C89.3156 15.2617 89.9924 15.4521 90.5314 15.833C91.0764 16.2139 91.4807 16.7354 91.7443 17.3975C92.0139 18.0596 92.1486 18.8184 92.1486 19.6738V20.3154H85.2492C85.2492 21.6279 85.551 22.6357 86.1545 23.3389C86.7639 24.042 87.634 24.3936 88.7648 24.3936C89.3566 24.3936 89.8693 24.3467 90.3029 24.2529C90.7424 24.1533 91.2287 23.9863 91.7619 23.752V24.5693C91.2932 24.7803 90.8244 24.9326 90.3557 25.0264C89.8869 25.126 89.3479 25.1758 88.7385 25.1758C87.7717 25.1758 86.9602 24.9766 86.3039 24.5781C85.6535 24.1738 85.1613 23.6055 84.8273 22.873C84.4992 22.1406 84.3352 21.2852 84.3352 20.3066C84.3352 19.3516 84.4934 18.4932 84.8098 17.7314C85.132 16.9697 85.6008 16.3691 86.216 15.9297C86.8371 15.4844 87.5988 15.2617 88.5012 15.2617ZM88.4924 16.0264C87.5783 16.0264 86.8371 16.3311 86.2687 16.9404C85.7062 17.5439 85.3752 18.417 85.2756 19.5596H91.2258C91.2258 18.8623 91.1262 18.2471 90.927 17.7139C90.7277 17.1807 90.426 16.7676 90.0217 16.4746C89.6232 16.1758 89.1135 16.0264 88.4924 16.0264ZM98.1129 15.2617C99.3434 15.2617 100.296 15.6748 100.969 16.501C101.649 17.3271 101.989 18.5459 101.989 20.1572C101.989 21.2354 101.828 22.1494 101.505 22.8994C101.183 23.6436 100.723 24.209 100.126 24.5957C99.5338 24.9824 98.8219 25.1758 97.9898 25.1758C97.4156 25.1758 96.9146 25.0908 96.4869 24.9209C96.065 24.7451 95.7135 24.5107 95.4322 24.2178C95.151 23.9189 94.9342 23.5908 94.7818 23.2334H94.7203C94.7379 23.5674 94.7525 23.916 94.7643 24.2793C94.776 24.6426 94.7818 24.9854 94.7818 25.3076V29.2275H93.8854V15.4463H94.6236L94.7291 17.3535H94.7818C94.94 16.9902 95.1627 16.6475 95.4498 16.3252C95.7369 16.0029 96.1002 15.7451 96.5396 15.5518C96.9791 15.3584 97.5035 15.2617 98.1129 15.2617ZM97.9986 16.0439C97.2779 16.0439 96.6773 16.2021 96.1969 16.5186C95.7223 16.8291 95.3678 17.2861 95.1334 17.8896C94.9049 18.4873 94.7877 19.2197 94.7818 20.0869V20.2363C94.7818 21.168 94.8961 21.9443 95.1246 22.5654C95.359 23.1807 95.7076 23.6406 96.1705 23.9453C96.6393 24.25 97.2193 24.4023 97.9107 24.4023C98.5904 24.4023 99.1646 24.2354 99.6334 23.9014C100.102 23.5674 100.46 23.084 100.706 22.4512C100.952 21.8184 101.075 21.0508 101.075 20.1484C101.075 18.8066 100.817 17.7871 100.301 17.0898C99.7916 16.3926 99.024 16.0439 97.9986 16.0439ZM107.505 15.2793C107.757 15.2793 107.994 15.2939 108.217 15.3232C108.439 15.3525 108.647 15.3936 108.841 15.4463L108.7 16.2637C108.507 16.2109 108.311 16.1729 108.111 16.1494C107.912 16.1201 107.698 16.1055 107.47 16.1055C107.019 16.1055 106.614 16.1904 106.257 16.3604C105.905 16.5303 105.606 16.7734 105.36 17.0898C105.114 17.4062 104.927 17.7871 104.798 18.2324C104.669 18.6777 104.604 19.1758 104.604 19.7266V25H103.708V15.4463H104.473L104.561 17.248H104.613C104.76 16.8789 104.965 16.5479 105.229 16.2549C105.498 15.9561 105.823 15.7188 106.204 15.543C106.585 15.3672 107.019 15.2793 107.505 15.2793ZM110.701 15.4463V25H109.813V15.4463H110.701ZM110.27 11.9131C110.493 11.9131 110.657 11.9805 110.762 12.1152C110.868 12.2441 110.92 12.4199 110.92 12.6426C110.92 12.8652 110.868 13.041 110.762 13.1699C110.657 13.2988 110.493 13.3633 110.27 13.3633C110.059 13.3633 109.901 13.2988 109.795 13.1699C109.69 13.041 109.637 12.8652 109.637 12.6426C109.637 12.4199 109.69 12.2441 109.795 12.1152C109.901 11.9805 110.059 11.9131 110.27 11.9131ZM117.201 15.2617C118.273 15.2617 119.096 15.543 119.671 16.1055C120.245 16.668 120.532 17.5498 120.532 18.751V25H119.653V18.8037C119.653 17.8545 119.436 17.1572 119.003 16.7119C118.569 16.2666 117.939 16.0439 117.113 16.0439C116.064 16.0439 115.262 16.3516 114.705 16.9668C114.154 17.5762 113.879 18.499 113.879 19.7354V25H112.991V15.4463H113.712L113.844 17.1865H113.896C114.066 16.8291 114.298 16.5068 114.591 16.2197C114.889 15.9268 115.256 15.6953 115.689 15.5254C116.123 15.3496 116.627 15.2617 117.201 15.2617ZM125.31 24.4111C125.585 24.4111 125.84 24.3906 126.074 24.3496C126.315 24.3086 126.526 24.2559 126.707 24.1914V24.9297C126.52 24.9941 126.3 25.0498 126.048 25.0967C125.796 25.1494 125.518 25.1758 125.213 25.1758C124.674 25.1758 124.226 25.0762 123.868 24.877C123.511 24.6719 123.241 24.3643 123.06 23.9541C122.878 23.5381 122.787 23.0107 122.787 22.3721V16.1846H121.363V15.6572L122.779 15.3848L123.086 13.1348H123.675V15.4463H126.654V16.1846H123.675V22.3193C123.675 23.0049 123.801 23.5264 124.053 23.8838C124.311 24.2354 124.73 24.4111 125.31 24.4111Z" class="logo-text"/>
</svg>
