<svg width="84" height="30" viewBox="0 0 84 30" fill="none" xmlns="http://www.w3.org/2000/svg">
<path d="M3.65277 7.8974H2.0514V1.78668H0V0.476562H5.70418V1.78595H3.65277V7.89666V7.8974Z" class="logo-accent"/>
<path d="M8.56749 2.11597C8.647 2.11597 8.7385 2.12039 8.84426 2.1285C8.94927 2.13734 9.03478 2.14766 9.10003 2.16166L8.98152 3.61325C8.92977 3.59631 8.85626 3.58378 8.76175 3.57494C8.66725 3.56683 8.58549 3.56241 8.51648 3.56241C8.31322 3.56241 8.11596 3.5882 7.92469 3.63831C7.73343 3.68915 7.56241 3.77094 7.4109 3.88442C7.25939 3.99789 7.13938 4.14673 7.05163 4.33095C6.96387 4.51516 6.91962 4.74137 6.91962 5.00885V7.89657H5.34375V2.22281H6.53709L6.76961 3.17704H6.84686C6.96087 2.98398 7.10263 2.80714 7.27289 2.6465C7.44316 2.48587 7.63817 2.35692 7.85644 2.26039C8.07545 2.16387 8.31172 2.11523 8.56674 2.11523L8.56749 2.11597Z" class="logo-accent"/>
<path d="M10.2284 0C10.4624 0 10.6642 0.0530533 10.833 0.159897C11.0017 0.26674 11.0865 0.464954 11.0865 0.75601C11.0865 1.04707 11.0017 1.24233 10.833 1.35212C10.6642 1.46191 10.4624 1.51718 10.2284 1.51718C9.99439 1.51718 9.78812 1.46191 9.62161 1.35212C9.45435 1.24233 9.37109 1.04338 9.37109 0.75601C9.37109 0.468638 9.45435 0.266004 9.62161 0.159897C9.78887 0.0530533 9.99139 0 10.2284 0ZM11.0137 2.22308V7.89758H9.43785V2.22308H11.0137Z" class="logo-accent"/>
<path d="M18.7239 2.11621C19.378 2.11621 19.8738 2.28127 20.209 2.61138C20.5451 2.94148 20.7131 3.46981 20.7131 4.19782V7.89755H19.132V4.58319C19.132 4.17719 19.0615 3.87066 18.9204 3.66434C18.7794 3.45802 18.5604 3.35486 18.2641 3.35486C17.8471 3.35486 17.5508 3.50149 17.3753 3.79402C17.1998 4.08655 17.1121 4.50508 17.1121 5.05035V7.89755H15.5362V4.58319C15.5362 4.31277 15.5054 4.08582 15.4432 3.90308C15.3809 3.72034 15.2864 3.58328 15.1589 3.49191C15.0314 3.40054 14.8679 3.35486 14.6684 3.35486C14.3759 3.35486 14.1456 3.42707 13.9783 3.57076C13.8111 3.71444 13.6926 3.92592 13.6221 4.20519C13.5515 4.48445 13.5163 4.82488 13.5163 5.22794V7.89755H11.9404V2.22305H13.1443L13.3558 2.94885H13.4435C13.5605 2.75285 13.7076 2.59369 13.8853 2.47211C14.0623 2.35053 14.2581 2.26063 14.4719 2.20316C14.6856 2.14569 14.9024 2.11695 15.1229 2.11695C15.5467 2.11695 15.906 2.18474 16.2 2.32032C16.4948 2.4559 16.7213 2.66517 16.8795 2.94959H17.0191C17.1916 2.65853 17.4346 2.44706 17.7504 2.31516C18.0654 2.18326 18.3902 2.11695 18.7239 2.11695V2.11621Z" class="logo-accent"/>
<path d="M23.1845 0V1.83771C23.1845 2.05066 23.1785 2.26213 23.1665 2.47214C23.1545 2.68214 23.1395 2.84425 23.1222 2.9592H23.1845C23.336 2.72561 23.543 2.52666 23.8048 2.36308C24.0666 2.19877 24.4056 2.11698 24.8226 2.11698C25.4699 2.11698 25.9957 2.36603 26.3985 2.86341C26.8013 3.36078 27.003 4.09026 27.003 5.05112C27.003 5.69734 26.91 6.23966 26.724 6.67809C26.538 7.11651 26.2777 7.44662 25.9439 7.66768C25.6102 7.88947 25.2224 8 24.7814 8C24.3403 8 24.0238 7.92558 23.7793 7.77673C23.5348 7.62789 23.3368 7.46062 23.1852 7.2742H23.0765L22.8132 7.89831H21.6094V0H23.1852H23.1845ZM24.3156 3.35489C24.0403 3.35489 23.8213 3.41089 23.6593 3.52215C23.4973 3.63415 23.3795 3.80142 23.3053 4.02468C23.231 4.24795 23.1905 4.5309 23.1837 4.87206V5.03933C23.1837 5.59123 23.2662 6.01345 23.432 6.30598C23.597 6.59851 23.8985 6.74514 24.3358 6.74514C24.6599 6.74514 24.9171 6.59777 25.1084 6.30377C25.2997 6.00903 25.3949 5.5846 25.3949 5.02975C25.3949 4.4749 25.2981 4.05711 25.1054 3.77563C24.9126 3.49489 24.6486 3.35415 24.3148 3.35415L24.3156 3.35489Z" class="logo-accent"/>
<path d="M29.2272 7.89758H27.6514V0H29.2272V7.89758Z" class="logo-accent"/>
<path d="M32.5881 2.11621C33.1222 2.11621 33.582 2.21716 33.9675 2.41832C34.353 2.61948 34.6508 2.91127 34.8616 3.2937C35.0716 3.67613 35.1766 4.14329 35.1766 4.69446V5.44531H31.4518C31.4691 5.88226 31.6026 6.22416 31.8523 6.47322C32.1021 6.72153 32.4494 6.84606 32.8934 6.84606C33.2617 6.84606 33.5992 6.80922 33.906 6.7348C34.2128 6.66038 34.5278 6.54837 34.8518 6.39953V7.59765C34.566 7.73618 34.2668 7.83786 33.9555 7.90197C33.6435 7.96608 33.2654 7.9985 32.8214 7.9985C32.2431 7.9985 31.7301 7.89387 31.2845 7.68386C30.8383 7.47386 30.4887 7.15407 30.236 6.72448C29.9825 6.2949 29.8564 5.75331 29.8564 5.10046C29.8564 4.44761 29.9712 3.88466 30.2 3.44328C30.4287 3.00191 30.7483 2.67032 31.1585 2.44853C31.5681 2.22674 32.0451 2.11621 32.5896 2.11621H32.5881ZM32.5986 3.2178C32.2919 3.2178 32.0384 3.31433 31.8366 3.50739C31.6348 3.69971 31.5186 4.00329 31.4878 4.41593H33.699C33.6952 4.18603 33.6532 3.98118 33.5722 3.80139C33.4912 3.62234 33.3705 3.48012 33.2107 3.37475C33.0502 3.27012 32.8462 3.2178 32.5986 3.2178Z" class="logo-accent"/>
<path d="M35.5782 7.23467C35.5737 6.85298 35.8849 6.53982 36.2735 6.53613C36.2787 6.53613 36.284 6.53613 36.2892 6.53613C36.6823 6.53613 37.0003 6.8493 37.0003 7.23467C37.0003 7.62078 36.6815 7.9332 36.2892 7.9332C35.8962 7.9332 35.5782 7.62004 35.5782 7.23467ZM36.8713 7.23467C36.8653 6.91782 36.5997 6.66508 36.2772 6.67098C35.9547 6.67687 35.6974 6.93772 35.7034 7.25456C35.7087 7.56846 35.9705 7.81973 36.29 7.81825C36.611 7.81825 36.872 7.56257 36.872 7.24646C36.872 7.24204 36.872 7.23835 36.872 7.23393L36.8713 7.23467ZM36.0132 6.83677H36.3042C36.488 6.83677 36.5952 6.91487 36.5952 7.07109C36.6042 7.16983 36.5405 7.2612 36.443 7.28772L36.611 7.60162H36.4482L36.2915 7.30909H36.1685V7.60162H36.0125V6.83677H36.0132ZM36.2952 7.19193C36.3905 7.19193 36.443 7.16172 36.443 7.07993C36.443 6.99814 36.3905 6.96793 36.2915 6.96793H36.1685V7.19119H36.2945L36.2952 7.19193Z" class="logo-accent"/>
<path d="M12.4102 25H9.81738L3.52441 14.7432H3.44531C3.46875 15.0889 3.48926 15.4551 3.50684 15.8418C3.53027 16.2285 3.54785 16.627 3.55957 17.0371C3.57715 17.4473 3.5918 17.8633 3.60352 18.2852V25H1.6875V12.1504H4.2627L10.5469 22.3369H10.6084C10.5967 22.0381 10.582 21.6953 10.5645 21.3086C10.5469 20.9219 10.5293 20.5234 10.5117 20.1133C10.5 19.6973 10.4912 19.2959 10.4854 18.9092V12.1504H12.4102V25ZM23.2875 20.1133C23.2875 20.9219 23.182 21.6396 22.9711 22.2666C22.7602 22.8936 22.4525 23.4238 22.0482 23.8574C21.6439 24.2852 21.1576 24.6133 20.5893 24.8418C20.0209 25.0645 19.3793 25.1758 18.6645 25.1758C17.9965 25.1758 17.3842 25.0645 16.8275 24.8418C16.2709 24.6133 15.7875 24.2852 15.3773 23.8574C14.973 23.4238 14.6596 22.8936 14.4369 22.2666C14.2143 21.6396 14.1029 20.9219 14.1029 20.1133C14.1029 19.041 14.2875 18.1328 14.6566 17.3887C15.0316 16.6387 15.5648 16.0674 16.2563 15.6748C16.9477 15.2822 17.7709 15.0859 18.726 15.0859C19.6225 15.0859 20.4135 15.2822 21.099 15.6748C21.7846 16.0674 22.3207 16.6387 22.7074 17.3887C23.0941 18.1387 23.2875 19.0469 23.2875 20.1133ZM16.2299 20.1133C16.2299 20.8223 16.3148 21.4287 16.4848 21.9326C16.6605 22.4365 16.9301 22.8232 17.2934 23.0928C17.6566 23.3564 18.1254 23.4883 18.6996 23.4883C19.2738 23.4883 19.7426 23.3564 20.1059 23.0928C20.4691 22.8232 20.7357 22.4365 20.9057 21.9326C21.0756 21.4287 21.1605 20.8223 21.1605 20.1133C21.1605 19.4043 21.0756 18.8037 20.9057 18.3115C20.7357 17.8135 20.4691 17.4355 20.1059 17.1777C19.7426 16.9141 19.2709 16.7822 18.6908 16.7822C17.8354 16.7822 17.2113 17.0693 16.8188 17.6436C16.4262 18.2178 16.2299 19.041 16.2299 20.1133ZM26.9842 25L23.284 15.2705H25.4725L27.4764 20.9834C27.6053 21.3467 27.7225 21.7393 27.8279 22.1611C27.9334 22.583 28.0066 22.9375 28.0477 23.2246H28.118C28.159 22.9258 28.2381 22.5684 28.3553 22.1523C28.4725 21.7305 28.5926 21.3408 28.7156 20.9834L30.7195 15.2705H32.8992L29.199 25H26.9842ZM37.2902 15.0859C38.5207 15.0859 39.4494 15.3584 40.0764 15.9033C40.7092 16.4482 41.0256 17.2979 41.0256 18.4521V25H39.5578L39.1623 23.6201H39.092C38.8166 23.9717 38.5324 24.2617 38.2395 24.4902C37.9465 24.7188 37.6066 24.8887 37.2199 25C36.8391 25.1172 36.3732 25.1758 35.8225 25.1758C35.2424 25.1758 34.7238 25.0703 34.2668 24.8594C33.8098 24.6426 33.4494 24.3145 33.1857 23.875C32.9221 23.4355 32.7902 22.8789 32.7902 22.2051C32.7902 21.2031 33.1623 20.4502 33.9064 19.9463C34.6564 19.4424 35.7873 19.1641 37.299 19.1113L38.9865 19.0498V18.54C38.9865 17.8662 38.8283 17.3857 38.5119 17.0986C38.2014 16.8115 37.7619 16.668 37.1936 16.668C36.7072 16.668 36.2355 16.7383 35.7785 16.8789C35.3215 17.0195 34.8762 17.1924 34.4426 17.3975L33.7746 15.9385C34.2492 15.6865 34.7883 15.4814 35.3918 15.3232C36.0012 15.165 36.634 15.0859 37.2902 15.0859ZM38.9777 20.3506L37.7209 20.3945C36.6896 20.4297 35.966 20.6055 35.55 20.9219C35.134 21.2383 34.926 21.6719 34.926 22.2227C34.926 22.7031 35.0695 23.0547 35.3566 23.2773C35.6437 23.4941 36.0217 23.6025 36.4904 23.6025C37.2053 23.6025 37.7971 23.4004 38.2658 22.9961C38.7404 22.5859 38.9777 21.9854 38.9777 21.1943V20.3506ZM48.0094 15.0859C49.1637 15.0859 50.0895 15.5078 50.7867 16.3516C51.4898 17.1953 51.8414 18.4492 51.8414 20.1133C51.8414 21.2148 51.6773 22.1436 51.3492 22.8994C51.027 23.6494 50.5729 24.2178 49.9869 24.6045C49.4068 24.9854 48.7301 25.1758 47.9566 25.1758C47.4645 25.1758 47.0367 25.1113 46.6734 24.9824C46.3102 24.8535 45.9996 24.6865 45.7418 24.4814C45.484 24.2705 45.2672 24.042 45.0914 23.7959H44.9684C44.9977 24.0303 45.024 24.291 45.0475 24.5781C45.0768 24.8594 45.0914 25.1172 45.0914 25.3516V29.3154H43.0172V15.2705H44.7047L44.9947 16.6152H45.0914C45.273 16.3398 45.4928 16.085 45.7506 15.8506C46.0143 15.6162 46.3307 15.4316 46.6998 15.2969C47.0748 15.1562 47.5113 15.0859 48.0094 15.0859ZM47.4557 16.7734C46.8873 16.7734 46.4303 16.8877 46.0846 17.1162C45.7447 17.3389 45.4957 17.6758 45.3375 18.127C45.1852 18.5781 45.1031 19.1436 45.0914 19.8232V20.1133C45.0914 20.834 45.1646 21.4463 45.3111 21.9502C45.4635 22.4482 45.7125 22.8291 46.0582 23.0928C46.4098 23.3506 46.8844 23.4795 47.482 23.4795C47.9859 23.4795 48.402 23.3418 48.7301 23.0664C49.0641 22.791 49.3131 22.3984 49.4771 21.8887C49.6412 21.3789 49.7232 20.7783 49.7232 20.0869C49.7232 19.0381 49.5357 18.2236 49.1607 17.6436C48.7916 17.0635 48.2232 16.7734 47.4557 16.7734ZM61.9453 20.1133C61.9453 20.9219 61.8398 21.6396 61.6289 22.2666C61.418 22.8936 61.1104 23.4238 60.7061 23.8574C60.3018 24.2852 59.8154 24.6133 59.2471 24.8418C58.6787 25.0645 58.0371 25.1758 57.3223 25.1758C56.6543 25.1758 56.042 25.0645 55.4854 24.8418C54.9287 24.6133 54.4453 24.2852 54.0352 23.8574C53.6309 23.4238 53.3174 22.8936 53.0947 22.2666C52.8721 21.6396 52.7607 20.9219 52.7607 20.1133C52.7607 19.041 52.9453 18.1328 53.3145 17.3887C53.6895 16.6387 54.2227 16.0674 54.9141 15.6748C55.6055 15.2822 56.4287 15.0859 57.3838 15.0859C58.2803 15.0859 59.0713 15.2822 59.7568 15.6748C60.4424 16.0674 60.9785 16.6387 61.3652 17.3887C61.752 18.1387 61.9453 19.0469 61.9453 20.1133ZM54.8877 20.1133C54.8877 20.8223 54.9727 21.4287 55.1426 21.9326C55.3184 22.4365 55.5879 22.8232 55.9512 23.0928C56.3145 23.3564 56.7832 23.4883 57.3574 23.4883C57.9316 23.4883 58.4004 23.3564 58.7637 23.0928C59.127 22.8232 59.3936 22.4365 59.5635 21.9326C59.7334 21.4287 59.8184 20.8223 59.8184 20.1133C59.8184 19.4043 59.7334 18.8037 59.5635 18.3115C59.3936 17.8135 59.127 17.4355 58.7637 17.1777C58.4004 16.9141 57.9287 16.7822 57.3486 16.7822C56.4932 16.7822 55.8691 17.0693 55.4766 17.6436C55.084 18.2178 54.8877 19.041 54.8877 20.1133ZM65.4838 15.2705V25H63.4184V15.2705H65.4838ZM64.4643 11.5439C64.7807 11.5439 65.0531 11.6289 65.2816 11.7988C65.516 11.9688 65.6332 12.2617 65.6332 12.6777C65.6332 13.0879 65.516 13.3809 65.2816 13.5566C65.0531 13.7266 64.7807 13.8115 64.4643 13.8115C64.1361 13.8115 63.8578 13.7266 63.6293 13.5566C63.4066 13.3809 63.2953 13.0879 63.2953 12.6777C63.2953 12.2617 63.4066 11.9688 63.6293 11.7988C63.8578 11.6289 64.1361 11.5439 64.4643 11.5439ZM72.617 15.0859C73.7127 15.0859 74.5652 15.3701 75.1746 15.9385C75.7898 16.501 76.0975 17.4062 76.0975 18.6543V25H74.032V19.041C74.032 18.2852 73.8768 17.7197 73.5662 17.3447C73.2557 16.9639 72.7752 16.7734 72.1248 16.7734C71.1814 16.7734 70.5252 17.0635 70.1561 17.6436C69.7928 18.2236 69.6111 19.0645 69.6111 20.166V25H67.5457V15.2705H69.1541L69.4441 16.5889H69.5584C69.7693 16.249 70.0301 15.9707 70.3406 15.7539C70.657 15.5312 71.0086 15.3643 71.3953 15.2529C71.7879 15.1416 72.1951 15.0859 72.617 15.0859ZM81.7102 23.5059C81.9797 23.5059 82.2463 23.4824 82.51 23.4355C82.7736 23.3828 83.0139 23.3213 83.2307 23.251V24.8154C83.0022 24.915 82.7063 25 82.343 25.0703C81.9797 25.1406 81.6018 25.1758 81.2092 25.1758C80.6584 25.1758 80.1633 25.085 79.7238 24.9033C79.2844 24.7158 78.9357 24.3965 78.6779 23.9453C78.4201 23.4941 78.2912 22.8701 78.2912 22.0732V16.8438H76.9641V15.9209L78.3879 15.1914L79.0647 13.1084H80.3654V15.2705H83.1516V16.8438H80.3654V22.0469C80.3654 22.5391 80.4885 22.9053 80.7346 23.1455C80.9807 23.3857 81.3059 23.5059 81.7102 23.5059Z" class="logo-text"/>
</svg>
