<svg width="154.01" height="28.01" viewBox="12 10 154.01 28.01" fill="none" xmlns="http://www.w3.org/2000/svg">
<g>
<path d="M12.6846 14.7798C12.5183 15.4064 12.2754 16.5062 12.1155 18.0216V18.0248C12.0963 18.239 12.0739 18.4564 12.0548 18.6834C11.9493 20.0805 11.994 21.4585 12.2082 22.7213C13.0299 27.1493 15.3094 32.1655 25.4153 37.8499C25.5049 37.901 25.5912 37.9522 25.6807 38.0034C25.7702 37.9522 25.8565 37.9042 25.9461 37.8531C36.052 32.1719 38.3315 27.1525 39.1564 22.7245C39.2011 22.456 39.2363 22.181 39.2683 21.9029L12.6846 14.7798Z" fill="#0063A3"/>
<path d="M38.9676 16.3907C38.7118 14.9457 38.4241 14.1624 38.4241 14.1624L38.4113 14.1688C37.9157 12.5159 36.5186 9.99658 36.5186 9.99658H14.7146C14.7146 9.99658 13.7458 11.6623 13.3462 12.7269C13.343 12.7397 13.343 12.7493 13.3398 12.7589C13.2407 13.0146 13.148 13.2352 13.0585 13.491C13.0105 13.6189 12.953 13.8171 12.9082 13.9865L38.9708 16.3907H38.9676Z" fill="#0063A3"/>
<path d="M93.1909 24.8442L91.7299 24.0002L93.1909 23.1561C93.2645 23.1114 93.29 23.0187 93.2485 22.9419L92.8776 22.2993C92.8329 22.2258 92.7401 22.2002 92.6634 22.2418L91.2023 23.0858V21.3977C91.2023 21.3114 91.132 21.2411 91.0457 21.2411H90.3008C90.2144 21.2411 90.1441 21.3114 90.1441 21.3977V23.0858L88.6831 22.2418C88.6095 22.197 88.5136 22.2258 88.4688 22.2993L88.098 22.9419C88.0532 23.0155 88.082 23.1114 88.1555 23.1561L89.6166 24.0002L88.1555 24.8442C88.082 24.889 88.0564 24.9817 88.098 25.0584L88.4688 25.7042C88.5136 25.7777 88.6063 25.8033 88.6831 25.7618L90.1441 24.9177V26.6058C90.1441 26.6921 90.2144 26.7624 90.3008 26.7624H91.0457C91.132 26.7624 91.2023 26.6921 91.2023 26.6058V24.9177L92.6634 25.7618C92.7369 25.8065 92.8329 25.7777 92.8776 25.7042L93.2485 25.0584C93.2932 24.9849 93.2677 24.889 93.1909 24.8442Z" fill="#0063A3"/>
<path d="M49.2681 35.1736V12.826H57.0881C61.9189 12.826 65.6946 14.5173 65.6946 19.6806C65.6946 24.8439 61.5576 26.6854 56.9666 26.6854H53.0118V35.1704H49.2681V35.1736ZM53.0118 23.3956H57.1489C60.4706 23.3956 61.9796 22.3693 61.9796 19.8021C61.9796 17.2348 60.4706 16.2693 57.1169 16.2693H53.0086V23.3956H53.0118Z" fill="#171C1E"/>
<path d="M67.6899 23.9392C67.6899 16.4517 71.8877 12.4042 77.505 12.4042C82.7002 12.4042 85.1748 15.272 86.1722 19.3482L82.5787 20.3745C81.7347 17.414 80.4335 15.905 77.4762 15.905C73.7004 15.905 71.4977 18.8335 71.4977 23.9073C71.4977 28.981 73.7612 32.1525 77.5369 32.1525C80.4367 32.1525 82.0672 30.7042 82.9112 27.3505L86.5047 28.1658C85.4177 32.6065 82.6682 35.5958 77.505 35.5958C71.7662 35.5958 67.6899 31.641 67.6899 23.9392Z" fill="#171C1E"/>
<path d="M96.1177 35.1736V12.826H101.099L107.077 30.5506H107.138L112.938 12.826H118.011V35.1736H114.357V18.5041H114.296C113.964 20.045 113.481 21.4933 112.966 23.0631L108.618 35.1736H105.268L100.948 23.0631C100.405 21.4614 100.072 20.4958 99.5897 18.3538H99.529V35.1736H96.1177Z" fill="#171C1E"/>
<path d="M121.53 16.3591V13.1268H125.334V16.3591H121.53ZM121.562 35.1739V19.1373H125.306V35.1739H121.562Z" fill="#171C1E"/>
<path d="M128.846 35.1736V12.826H132.59V35.1736H128.846Z" fill="#171C1E"/>
<path d="M135.266 27.1716C135.266 21.0715 139.585 18.8368 142.907 18.8368C146.501 18.8368 149.944 20.982 149.944 27.5041V28.3801H138.981C139.131 31.2798 140.915 32.5459 143.268 32.5459C145.353 32.5459 146.561 31.8521 147.767 30.6724L149.73 32.6066C148.067 34.4481 145.864 35.5063 142.997 35.5063C138.981 35.5063 135.266 33.0606 135.266 27.1716ZM146.529 25.6018C146.318 23.156 145.11 21.858 142.875 21.858C141.062 21.858 139.403 22.8843 139.039 25.6018H146.526H146.529Z" fill="#171C1E"/>
<path d="M152.602 35.1739V19.1373H156.317V21.7653H156.378C157.375 20.1636 159.095 18.8368 162.145 18.8368H162.388L162.267 22.2481C162.085 22.2193 161.48 22.1873 161.269 22.1873C158.884 22.1873 157.375 23.3063 156.317 25.0263V35.1739H152.602Z" fill="#171C1E"/>
<path d="M161.875 33.2044C161.875 32.0407 162.79 31.1263 163.954 31.1263C165.117 31.1263 166.013 32.0311 166.013 33.1949C166.013 34.3586 165.108 35.2793 163.944 35.2793C162.78 35.2793 161.875 34.3746 161.875 33.2012V33.2044ZM165.651 33.2044C165.651 32.2293 164.91 31.4684 163.941 31.4684C162.972 31.4684 162.24 32.2197 162.24 33.1949C162.24 34.17 162.982 34.9405 163.95 34.9405C164.919 34.9405 165.651 34.1891 165.651 33.2044ZM163.148 32.0215H163.998C164.535 32.0215 164.849 32.2549 164.849 32.7185C164.849 33.0861 164.67 33.2748 164.401 33.3643L164.894 34.2946H164.42L163.963 33.425H163.605V34.2946H163.148V32.0215ZM163.97 33.0798C164.248 33.0798 164.398 32.9902 164.398 32.7473C164.398 32.5235 164.245 32.4244 163.96 32.4244H163.602V33.0766H163.97V33.0798Z" fill="#171C1E"/>
<path d="M161.875 33.2044C161.875 32.0407 162.79 31.1263 163.954 31.1263C165.117 31.1263 166.013 32.0311 166.013 33.1949C166.013 34.3586 165.108 35.2793 163.944 35.2793C162.78 35.2793 161.875 34.3746 161.875 33.2012V33.2044ZM165.651 33.2044C165.651 32.2293 164.91 31.4684 163.941 31.4684C162.972 31.4684 162.24 32.2197 162.24 33.1949C162.24 34.17 162.982 34.9405 163.95 34.9405C164.919 34.9405 165.651 34.1891 165.651 33.2044ZM163.148 32.0215H163.998C164.535 32.0215 164.849 32.2549 164.849 32.7185C164.849 33.0861 164.67 33.2748 164.401 33.3643L164.894 34.2946H164.42L163.963 33.425H163.605V34.2946H163.148V32.0215ZM163.97 33.0798C164.248 33.0798 164.398 32.9902 164.398 32.7473C164.398 32.5235 164.245 32.4244 163.96 32.4244H163.602V33.0766H163.97V33.0798Z" fill="#171C1E"/>
</g></svg>
