<svg width="82" height="30" viewBox="0 0 82 30" fill="none" xmlns="http://www.w3.org/2000/svg">
<path d="M3.65277 7.8974H2.0514V1.78668H0V0.476562H5.70418V1.78595H3.65277V7.89666V7.8974Z" class="logo-accent"/>
<path d="M8.56749 2.11597C8.647 2.11597 8.7385 2.12039 8.84426 2.1285C8.94927 2.13734 9.03478 2.14766 9.10003 2.16166L8.98152 3.61325C8.92977 3.59631 8.85626 3.58378 8.76175 3.57494C8.66725 3.56683 8.58549 3.56241 8.51648 3.56241C8.31322 3.56241 8.11596 3.5882 7.92469 3.63831C7.73343 3.68915 7.56241 3.77094 7.4109 3.88442C7.25939 3.99789 7.13938 4.14673 7.05163 4.33095C6.96387 4.51516 6.91962 4.74137 6.91962 5.00885V7.89657H5.34375V2.22281H6.53709L6.76961 3.17704H6.84686C6.96087 2.98398 7.10263 2.80714 7.27289 2.6465C7.44316 2.48587 7.63817 2.35692 7.85644 2.26039C8.07545 2.16387 8.31172 2.11523 8.56674 2.11523L8.56749 2.11597Z" class="logo-accent"/>
<path d="M10.2284 0C10.4624 0 10.6642 0.0530533 10.833 0.159897C11.0017 0.26674 11.0865 0.464954 11.0865 0.75601C11.0865 1.04707 11.0017 1.24233 10.833 1.35212C10.6642 1.46191 10.4624 1.51718 10.2284 1.51718C9.99439 1.51718 9.78812 1.46191 9.62161 1.35212C9.45435 1.24233 9.37109 1.04338 9.37109 0.75601C9.37109 0.468638 9.45435 0.266004 9.62161 0.159897C9.78887 0.0530533 9.99139 0 10.2284 0ZM11.0137 2.22308V7.89758H9.43785V2.22308H11.0137Z" class="logo-accent"/>
<path d="M18.7239 2.11621C19.378 2.11621 19.8738 2.28127 20.209 2.61138C20.5451 2.94148 20.7131 3.46981 20.7131 4.19782V7.89755H19.132V4.58319C19.132 4.17719 19.0615 3.87066 18.9204 3.66434C18.7794 3.45802 18.5604 3.35486 18.2641 3.35486C17.8471 3.35486 17.5508 3.50149 17.3753 3.79402C17.1998 4.08655 17.1121 4.50508 17.1121 5.05035V7.89755H15.5362V4.58319C15.5362 4.31277 15.5054 4.08582 15.4432 3.90308C15.3809 3.72034 15.2864 3.58328 15.1589 3.49191C15.0314 3.40054 14.8679 3.35486 14.6684 3.35486C14.3759 3.35486 14.1456 3.42707 13.9783 3.57076C13.8111 3.71444 13.6926 3.92592 13.6221 4.20519C13.5515 4.48445 13.5163 4.82488 13.5163 5.22794V7.89755H11.9404V2.22305H13.1443L13.3558 2.94885H13.4435C13.5605 2.75285 13.7076 2.59369 13.8853 2.47211C14.0623 2.35053 14.2581 2.26063 14.4719 2.20316C14.6856 2.14569 14.9024 2.11695 15.1229 2.11695C15.5467 2.11695 15.906 2.18474 16.2 2.32032C16.4948 2.4559 16.7213 2.66517 16.8795 2.94959H17.0191C17.1916 2.65853 17.4346 2.44706 17.7504 2.31516C18.0654 2.18326 18.3902 2.11695 18.7239 2.11695V2.11621Z" class="logo-accent"/>
<path d="M23.1845 0V1.83771C23.1845 2.05066 23.1785 2.26213 23.1665 2.47214C23.1545 2.68214 23.1395 2.84425 23.1222 2.9592H23.1845C23.336 2.72561 23.543 2.52666 23.8048 2.36308C24.0666 2.19877 24.4056 2.11698 24.8226 2.11698C25.4699 2.11698 25.9957 2.36603 26.3985 2.86341C26.8013 3.36078 27.003 4.09026 27.003 5.05112C27.003 5.69734 26.91 6.23966 26.724 6.67809C26.538 7.11651 26.2777 7.44662 25.9439 7.66768C25.6102 7.88947 25.2224 8 24.7814 8C24.3403 8 24.0238 7.92558 23.7793 7.77673C23.5348 7.62789 23.3368 7.46062 23.1852 7.2742H23.0765L22.8132 7.89831H21.6094V0H23.1852H23.1845ZM24.3156 3.35489C24.0403 3.35489 23.8213 3.41089 23.6593 3.52215C23.4973 3.63415 23.3795 3.80142 23.3053 4.02468C23.231 4.24795 23.1905 4.5309 23.1837 4.87206V5.03933C23.1837 5.59123 23.2662 6.01345 23.432 6.30598C23.597 6.59851 23.8985 6.74514 24.3358 6.74514C24.6599 6.74514 24.9171 6.59777 25.1084 6.30377C25.2997 6.00903 25.3949 5.5846 25.3949 5.02975C25.3949 4.4749 25.2981 4.05711 25.1054 3.77563C24.9126 3.49489 24.6486 3.35415 24.3148 3.35415L24.3156 3.35489Z" class="logo-accent"/>
<path d="M29.2272 7.89758H27.6514V0H29.2272V7.89758Z" class="logo-accent"/>
<path d="M32.5881 2.11621C33.1222 2.11621 33.582 2.21716 33.9675 2.41832C34.353 2.61948 34.6508 2.91127 34.8616 3.2937C35.0716 3.67613 35.1766 4.14329 35.1766 4.69446V5.44531H31.4518C31.4691 5.88226 31.6026 6.22416 31.8523 6.47322C32.1021 6.72153 32.4494 6.84606 32.8934 6.84606C33.2617 6.84606 33.5992 6.80922 33.906 6.7348C34.2128 6.66038 34.5278 6.54837 34.8518 6.39953V7.59765C34.566 7.73618 34.2668 7.83786 33.9555 7.90197C33.6435 7.96608 33.2654 7.9985 32.8214 7.9985C32.2431 7.9985 31.7301 7.89387 31.2845 7.68386C30.8383 7.47386 30.4887 7.15407 30.236 6.72448C29.9825 6.2949 29.8564 5.75331 29.8564 5.10046C29.8564 4.44761 29.9712 3.88466 30.2 3.44328C30.4287 3.00191 30.7483 2.67032 31.1585 2.44853C31.5681 2.22674 32.0451 2.11621 32.5896 2.11621H32.5881ZM32.5986 3.2178C32.2919 3.2178 32.0384 3.31433 31.8366 3.50739C31.6348 3.69971 31.5186 4.00329 31.4878 4.41593H33.699C33.6952 4.18603 33.6532 3.98118 33.5722 3.80139C33.4912 3.62234 33.3705 3.48012 33.2107 3.37475C33.0502 3.27012 32.8462 3.2178 32.5986 3.2178Z" class="logo-accent"/>
<path d="M35.5782 7.23467C35.5737 6.85298 35.8849 6.53982 36.2735 6.53613C36.2787 6.53613 36.284 6.53613 36.2892 6.53613C36.6823 6.53613 37.0003 6.8493 37.0003 7.23467C37.0003 7.62078 36.6815 7.9332 36.2892 7.9332C35.8962 7.9332 35.5782 7.62004 35.5782 7.23467ZM36.8713 7.23467C36.8653 6.91782 36.5997 6.66508 36.2772 6.67098C35.9547 6.67687 35.6974 6.93772 35.7034 7.25456C35.7087 7.56846 35.9705 7.81973 36.29 7.81825C36.611 7.81825 36.872 7.56257 36.872 7.24646C36.872 7.24204 36.872 7.23835 36.872 7.23393L36.8713 7.23467ZM36.0132 6.83677H36.3042C36.488 6.83677 36.5952 6.91487 36.5952 7.07109C36.6042 7.16983 36.5405 7.2612 36.443 7.28772L36.611 7.60162H36.4482L36.2915 7.30909H36.1685V7.60162H36.0125V6.83677H36.0132ZM36.2952 7.19193C36.3905 7.19193 36.443 7.16172 36.443 7.07993C36.443 6.99814 36.3905 6.96793 36.2915 6.96793H36.1685V7.19119H36.2945L36.2952 7.19193Z" class="logo-accent"/>
<path d="M5.42285 12.1504C7.08105 12.1504 8.29102 12.4902 9.05273 13.1699C9.81445 13.8496 10.1953 14.8018 10.1953 16.0264C10.1953 16.583 10.1074 17.1133 9.93164 17.6172C9.76172 18.1152 9.48047 18.5576 9.08789 18.9443C8.69531 19.3252 8.17676 19.627 7.53223 19.8496C6.89355 20.0723 6.10547 20.1836 5.16797 20.1836H3.79688V25H1.6875V12.1504H5.42285ZM5.28223 13.8994H3.79688V18.4258H4.94824C5.61035 18.4258 6.17285 18.3496 6.63574 18.1973C7.09863 18.0391 7.4502 17.79 7.69043 17.4502C7.93066 17.1104 8.05078 16.6621 8.05078 16.1055C8.05078 15.3613 7.8252 14.8076 7.37402 14.4443C6.92871 14.0811 6.23145 13.8994 5.28223 13.8994ZM16.5814 15.0859C16.7455 15.0859 16.9242 15.0947 17.1176 15.1123C17.3109 15.1299 17.4779 15.1533 17.6186 15.1826L17.4252 17.1162C17.3021 17.0811 17.1498 17.0547 16.9682 17.0371C16.7924 17.0195 16.6342 17.0107 16.4936 17.0107C16.1244 17.0107 15.7729 17.0723 15.4389 17.1953C15.1049 17.3125 14.809 17.4941 14.5512 17.7402C14.2934 17.9805 14.0912 18.2822 13.9447 18.6455C13.7982 19.0088 13.725 19.4307 13.725 19.9111V25H11.6508V15.2705H13.268L13.5492 16.9844H13.6459C13.8393 16.6387 14.0795 16.3223 14.3666 16.0352C14.6537 15.748 14.9818 15.5195 15.351 15.3496C15.726 15.1738 16.1361 15.0859 16.5814 15.0859ZM27.1336 20.1133C27.1336 20.9219 27.0281 21.6396 26.8172 22.2666C26.6063 22.8936 26.2986 23.4238 25.8943 23.8574C25.49 24.2852 25.0037 24.6133 24.4354 24.8418C23.867 25.0645 23.2254 25.1758 22.5105 25.1758C21.8426 25.1758 21.2303 25.0645 20.6736 24.8418C20.117 24.6133 19.6336 24.2852 19.2234 23.8574C18.8191 23.4238 18.5057 22.8936 18.283 22.2666C18.0604 21.6396 17.949 20.9219 17.949 20.1133C17.949 19.041 18.1336 18.1328 18.5027 17.3887C18.8777 16.6387 19.4109 16.0674 20.1023 15.6748C20.7938 15.2822 21.617 15.0859 22.5721 15.0859C23.4686 15.0859 24.2596 15.2822 24.9451 15.6748C25.6307 16.0674 26.1668 16.6387 26.5535 17.3887C26.9402 18.1387 27.1336 19.0469 27.1336 20.1133ZM20.076 20.1133C20.076 20.8223 20.1609 21.4287 20.3309 21.9326C20.5066 22.4365 20.7762 22.8232 21.1395 23.0928C21.5027 23.3564 21.9715 23.4883 22.5457 23.4883C23.1199 23.4883 23.5887 23.3564 23.952 23.0928C24.3152 22.8232 24.5818 22.4365 24.7518 21.9326C24.9217 21.4287 25.0066 20.8223 25.0066 20.1133C25.0066 19.4043 24.9217 18.8037 24.7518 18.3115C24.5818 17.8135 24.3152 17.4355 23.952 17.1777C23.5887 16.9141 23.117 16.7822 22.5369 16.7822C21.6814 16.7822 21.0574 17.0693 20.6648 17.6436C20.2723 18.2178 20.076 19.041 20.076 20.1133ZM39.2502 18.4521C39.2502 19.8994 38.9807 21.1094 38.4416 22.082C37.9025 23.0488 37.1203 23.7783 36.0949 24.2705C35.0695 24.7568 33.8332 25 32.3859 25H28.8176V12.1504H32.7727C34.1027 12.1504 35.2512 12.3906 36.218 12.8711C37.1848 13.3457 37.9318 14.0518 38.4592 14.9893C38.9865 15.9209 39.2502 17.0752 39.2502 18.4521ZM37.0529 18.5137C37.0529 17.459 36.8859 16.5918 36.552 15.9121C36.2238 15.2324 35.7375 14.7285 35.093 14.4004C34.4543 14.0664 33.6662 13.8994 32.7287 13.8994H30.927V23.2334H32.4211C33.9738 23.2334 35.134 22.8379 35.9016 22.0469C36.6691 21.2559 37.0529 20.0781 37.0529 18.5137ZM44.7838 15.0859C45.651 15.0859 46.3951 15.2646 47.0162 15.6221C47.6373 15.9795 48.1148 16.4863 48.4488 17.1426C48.7828 17.7988 48.9498 18.584 48.9498 19.498V20.6055H42.4547C42.4781 21.5488 42.7301 22.2754 43.2105 22.7852C43.6969 23.2949 44.3766 23.5498 45.2496 23.5498C45.8707 23.5498 46.4273 23.4912 46.9195 23.374C47.4176 23.251 47.9303 23.0723 48.4576 22.8379V24.5166C47.9713 24.7451 47.4762 24.9121 46.9723 25.0176C46.4684 25.123 45.8648 25.1758 45.1617 25.1758C44.2066 25.1758 43.3658 24.9912 42.6393 24.6221C41.9186 24.2471 41.3531 23.6904 40.943 22.9521C40.5387 22.2139 40.3365 21.2969 40.3365 20.2012C40.3365 19.1113 40.5211 18.1855 40.8902 17.4238C41.2594 16.6621 41.7779 16.082 42.4459 15.6836C43.1139 15.2852 43.8932 15.0859 44.7838 15.0859ZM44.7838 16.6416C44.1334 16.6416 43.6061 16.8525 43.2018 17.2744C42.8033 17.6963 42.5689 18.3145 42.4986 19.1289H46.9283C46.9225 18.6426 46.8404 18.2119 46.6822 17.8369C46.5299 17.4619 46.2955 17.1689 45.9791 16.958C45.6686 16.7471 45.2701 16.6416 44.7838 16.6416ZM56.918 22.2227C56.918 22.8613 56.7627 23.4004 56.4521 23.8398C56.1416 24.2793 55.6875 24.6133 55.0898 24.8418C54.498 25.0645 53.7715 25.1758 52.9102 25.1758C52.2305 25.1758 51.6445 25.126 51.1523 25.0264C50.666 24.9326 50.2061 24.7861 49.7725 24.5869V22.8027C50.2354 23.0195 50.7539 23.207 51.3281 23.3652C51.9082 23.5234 52.4561 23.6025 52.9717 23.6025C53.6514 23.6025 54.1406 23.4971 54.4395 23.2861C54.7383 23.0693 54.8877 22.7822 54.8877 22.4248C54.8877 22.2139 54.8262 22.0264 54.7031 21.8623C54.5859 21.6924 54.3633 21.5195 54.0352 21.3438C53.7129 21.1621 53.2383 20.9453 52.6113 20.6934C51.9961 20.4473 51.4775 20.2012 51.0557 19.9551C50.6338 19.709 50.3145 19.4131 50.0977 19.0674C49.8809 18.7158 49.7725 18.2676 49.7725 17.7227C49.7725 16.8613 50.1123 16.208 50.792 15.7627C51.4775 15.3115 52.3828 15.0859 53.5078 15.0859C54.1055 15.0859 54.668 15.1475 55.1953 15.2705C55.7285 15.3877 56.25 15.5605 56.7598 15.7891L56.1094 17.3447C55.6699 17.1514 55.2275 16.9932 54.7822 16.8701C54.3428 16.7412 53.8945 16.6768 53.4375 16.6768C52.9043 16.6768 52.4971 16.7588 52.2158 16.9229C51.9404 17.0869 51.8027 17.3213 51.8027 17.626C51.8027 17.8545 51.8701 18.0479 52.0049 18.2061C52.1396 18.3643 52.3711 18.5225 52.6992 18.6807C53.0332 18.8389 53.4961 19.0352 54.0879 19.2695C54.668 19.4922 55.1689 19.7266 55.5908 19.9727C56.0186 20.2129 56.3467 20.5088 56.5752 20.8604C56.8037 21.2119 56.918 21.666 56.918 22.2227ZM60.3158 15.2705V25H58.2504V15.2705H60.3158ZM59.2963 11.5439C59.6127 11.5439 59.8852 11.6289 60.1137 11.7988C60.348 11.9688 60.4652 12.2617 60.4652 12.6777C60.4652 13.0879 60.348 13.3809 60.1137 13.5566C59.8852 13.7266 59.6127 13.8115 59.2963 13.8115C58.9682 13.8115 58.6898 13.7266 58.4613 13.5566C58.2387 13.3809 58.1273 13.0879 58.1273 12.6777C58.1273 12.2617 58.2387 11.9688 58.4613 11.7988C58.6898 11.6289 58.9682 11.5439 59.2963 11.5439ZM65.1551 29.3242C63.8367 29.3242 62.826 29.0869 62.1229 28.6123C61.4197 28.1377 61.0682 27.4727 61.0682 26.6172C61.0682 26.0195 61.2557 25.5127 61.6307 25.0967C62.0057 24.6865 62.5418 24.4023 63.2391 24.2441C62.9754 24.127 62.7469 23.9453 62.5535 23.6992C62.366 23.4473 62.2723 23.1689 62.2723 22.8643C62.2723 22.501 62.3748 22.1904 62.5799 21.9326C62.785 21.6748 63.0926 21.4258 63.5027 21.1855C62.993 20.9688 62.5828 20.6172 62.2723 20.1309C61.9676 19.6387 61.8152 19.0615 61.8152 18.3994C61.8152 17.6963 61.9646 17.0986 62.2635 16.6064C62.5623 16.1084 62.9988 15.7305 63.573 15.4727C64.1473 15.209 64.8416 15.0771 65.6561 15.0771C65.8318 15.0771 66.0223 15.0889 66.2273 15.1123C66.4383 15.1299 66.6316 15.1533 66.8074 15.1826C66.9891 15.2061 67.1268 15.2324 67.2205 15.2617H70.5867V16.4131L68.9344 16.7207C69.0926 16.9434 69.2186 17.1982 69.3123 17.4854C69.4061 17.7666 69.4529 18.0742 69.4529 18.4082C69.4529 19.416 69.1043 20.21 68.407 20.79C67.7156 21.3643 66.7605 21.6514 65.5418 21.6514C65.2488 21.6396 64.9646 21.6162 64.6893 21.5811C64.4783 21.71 64.3172 21.8535 64.2059 22.0117C64.0945 22.1641 64.0389 22.3369 64.0389 22.5303C64.0389 22.6885 64.0945 22.8174 64.2059 22.917C64.3172 23.0107 64.4813 23.0811 64.698 23.1279C64.9207 23.1748 65.1902 23.1982 65.5066 23.1982H67.1854C68.2518 23.1982 69.0662 23.4238 69.6287 23.875C70.1912 24.3262 70.4725 24.9883 70.4725 25.8613C70.4725 26.9688 70.0154 27.8213 69.1014 28.4189C68.1873 29.0225 66.8719 29.3242 65.1551 29.3242ZM65.2342 27.874C65.9549 27.874 66.5613 27.8037 67.0535 27.6631C67.5457 27.5225 67.9178 27.3203 68.1697 27.0566C68.4217 26.7988 68.5477 26.4912 68.5477 26.1338C68.5477 25.8174 68.4686 25.5742 68.3104 25.4043C68.1521 25.2344 67.9148 25.1172 67.5984 25.0527C67.282 24.9883 66.8895 24.9561 66.4207 24.9561H64.8914C64.5105 24.9561 64.1736 25.0146 63.8807 25.1318C63.5877 25.2549 63.3592 25.4307 63.1951 25.6592C63.0369 25.8877 62.9578 26.1631 62.9578 26.4854C62.9578 26.9307 63.1541 27.2734 63.5467 27.5137C63.9451 27.7539 64.5076 27.874 65.2342 27.874ZM65.6385 20.2979C66.242 20.2979 66.6902 20.1338 66.9832 19.8057C67.2762 19.4717 67.4227 19.0029 67.4227 18.3994C67.4227 17.7432 67.2703 17.251 66.9656 16.9229C66.6668 16.5947 66.2215 16.4307 65.6297 16.4307C65.0496 16.4307 64.6072 16.5977 64.3025 16.9316C64.0037 17.2656 63.8543 17.7607 63.8543 18.417C63.8543 19.0088 64.0037 19.4717 64.3025 19.8057C64.6072 20.1338 65.0525 20.2979 65.6385 20.2979ZM76.5334 15.0859C77.6291 15.0859 78.4816 15.3701 79.091 15.9385C79.7063 16.501 80.0139 17.4062 80.0139 18.6543V25H77.9484V19.041C77.9484 18.2852 77.7932 17.7197 77.4826 17.3447C77.1721 16.9639 76.6916 16.7734 76.0412 16.7734C75.0979 16.7734 74.4416 17.0635 74.0725 17.6436C73.7092 18.2236 73.5275 19.0645 73.5275 20.166V25H71.4621V15.2705H73.0705L73.3605 16.5889H73.4748C73.6857 16.249 73.9465 15.9707 74.257 15.7539C74.5734 15.5312 74.925 15.3643 75.3117 15.2529C75.7043 15.1416 76.1115 15.0859 76.5334 15.0859Z" class="logo-text"/>
</svg>
