<svg width="99" height="30" viewBox="0 0 99 30" fill="none" xmlns="http://www.w3.org/2000/svg">
<path d="M3.65277 7.8974H2.0514V1.78668H0V0.476562H5.70418V1.78595H3.65277V7.89666V7.8974Z" class="logo-accent"/>
<path d="M8.56749 2.11597C8.647 2.11597 8.7385 2.12039 8.84426 2.1285C8.94927 2.13734 9.03478 2.14766 9.10003 2.16166L8.98152 3.61325C8.92977 3.59631 8.85626 3.58378 8.76175 3.57494C8.66725 3.56683 8.58549 3.56241 8.51648 3.56241C8.31322 3.56241 8.11596 3.5882 7.92469 3.63831C7.73343 3.68915 7.56241 3.77094 7.4109 3.88442C7.25939 3.99789 7.13938 4.14673 7.05163 4.33095C6.96387 4.51516 6.91962 4.74137 6.91962 5.00885V7.89657H5.34375V2.22281H6.53709L6.76961 3.17704H6.84686C6.96087 2.98398 7.10263 2.80714 7.27289 2.6465C7.44316 2.48587 7.63817 2.35692 7.85644 2.26039C8.07545 2.16387 8.31172 2.11523 8.56674 2.11523L8.56749 2.11597Z" class="logo-accent"/>
<path d="M10.2284 0C10.4624 0 10.6642 0.0530533 10.833 0.159897C11.0017 0.26674 11.0865 0.464954 11.0865 0.75601C11.0865 1.04707 11.0017 1.24233 10.833 1.35212C10.6642 1.46191 10.4624 1.51718 10.2284 1.51718C9.99439 1.51718 9.78812 1.46191 9.62161 1.35212C9.45435 1.24233 9.37109 1.04338 9.37109 0.75601C9.37109 0.468638 9.45435 0.266004 9.62161 0.159897C9.78887 0.0530533 9.99139 0 10.2284 0ZM11.0137 2.22308V7.89758H9.43785V2.22308H11.0137Z" class="logo-accent"/>
<path d="M18.7239 2.11621C19.378 2.11621 19.8738 2.28127 20.209 2.61138C20.5451 2.94148 20.7131 3.46981 20.7131 4.19782V7.89755H19.132V4.58319C19.132 4.17719 19.0615 3.87066 18.9204 3.66434C18.7794 3.45802 18.5604 3.35486 18.2641 3.35486C17.8471 3.35486 17.5508 3.50149 17.3753 3.79402C17.1998 4.08655 17.1121 4.50508 17.1121 5.05035V7.89755H15.5362V4.58319C15.5362 4.31277 15.5054 4.08582 15.4432 3.90308C15.3809 3.72034 15.2864 3.58328 15.1589 3.49191C15.0314 3.40054 14.8679 3.35486 14.6684 3.35486C14.3759 3.35486 14.1456 3.42707 13.9783 3.57076C13.8111 3.71444 13.6926 3.92592 13.6221 4.20519C13.5515 4.48445 13.5163 4.82488 13.5163 5.22794V7.89755H11.9404V2.22305H13.1443L13.3558 2.94885H13.4435C13.5605 2.75285 13.7076 2.59369 13.8853 2.47211C14.0623 2.35053 14.2581 2.26063 14.4719 2.20316C14.6856 2.14569 14.9024 2.11695 15.1229 2.11695C15.5467 2.11695 15.906 2.18474 16.2 2.32032C16.4948 2.4559 16.7213 2.66517 16.8795 2.94959H17.0191C17.1916 2.65853 17.4346 2.44706 17.7504 2.31516C18.0654 2.18326 18.3902 2.11695 18.7239 2.11695V2.11621Z" class="logo-accent"/>
<path d="M23.1845 0V1.83771C23.1845 2.05066 23.1785 2.26213 23.1665 2.47214C23.1545 2.68214 23.1395 2.84425 23.1222 2.9592H23.1845C23.336 2.72561 23.543 2.52666 23.8048 2.36308C24.0666 2.19877 24.4056 2.11698 24.8226 2.11698C25.4699 2.11698 25.9957 2.36603 26.3985 2.86341C26.8013 3.36078 27.003 4.09026 27.003 5.05112C27.003 5.69734 26.91 6.23966 26.724 6.67809C26.538 7.11651 26.2777 7.44662 25.9439 7.66768C25.6102 7.88947 25.2224 8 24.7814 8C24.3403 8 24.0238 7.92558 23.7793 7.77673C23.5348 7.62789 23.3368 7.46062 23.1852 7.2742H23.0765L22.8132 7.89831H21.6094V0H23.1852H23.1845ZM24.3156 3.35489C24.0403 3.35489 23.8213 3.41089 23.6593 3.52215C23.4973 3.63415 23.3795 3.80142 23.3053 4.02468C23.231 4.24795 23.1905 4.5309 23.1837 4.87206V5.03933C23.1837 5.59123 23.2662 6.01345 23.432 6.30598C23.597 6.59851 23.8985 6.74514 24.3358 6.74514C24.6599 6.74514 24.9171 6.59777 25.1084 6.30377C25.2997 6.00903 25.3949 5.5846 25.3949 5.02975C25.3949 4.4749 25.2981 4.05711 25.1054 3.77563C24.9126 3.49489 24.6486 3.35415 24.3148 3.35415L24.3156 3.35489Z" class="logo-accent"/>
<path d="M29.2272 7.89758H27.6514V0H29.2272V7.89758Z" class="logo-accent"/>
<path d="M32.5881 2.11621C33.1222 2.11621 33.582 2.21716 33.9675 2.41832C34.353 2.61948 34.6508 2.91127 34.8616 3.2937C35.0716 3.67613 35.1766 4.14329 35.1766 4.69446V5.44531H31.4518C31.4691 5.88226 31.6026 6.22416 31.8523 6.47322C32.1021 6.72153 32.4494 6.84606 32.8934 6.84606C33.2617 6.84606 33.5992 6.80922 33.906 6.7348C34.2128 6.66038 34.5278 6.54837 34.8518 6.39953V7.59765C34.566 7.73618 34.2668 7.83786 33.9555 7.90197C33.6435 7.96608 33.2654 7.9985 32.8214 7.9985C32.2431 7.9985 31.7301 7.89387 31.2845 7.68386C30.8383 7.47386 30.4887 7.15407 30.236 6.72448C29.9825 6.2949 29.8564 5.75331 29.8564 5.10046C29.8564 4.44761 29.9712 3.88466 30.2 3.44328C30.4287 3.00191 30.7483 2.67032 31.1585 2.44853C31.5681 2.22674 32.0451 2.11621 32.5896 2.11621H32.5881ZM32.5986 3.2178C32.2919 3.2178 32.0384 3.31433 31.8366 3.50739C31.6348 3.69971 31.5186 4.00329 31.4878 4.41593H33.699C33.6952 4.18603 33.6532 3.98118 33.5722 3.80139C33.4912 3.62234 33.3705 3.48012 33.2107 3.37475C33.0502 3.27012 32.8462 3.2178 32.5986 3.2178Z" class="logo-accent"/>
<path d="M35.5782 7.23467C35.5737 6.85298 35.8849 6.53982 36.2735 6.53613C36.2787 6.53613 36.284 6.53613 36.2892 6.53613C36.6823 6.53613 37.0003 6.8493 37.0003 7.23467C37.0003 7.62078 36.6815 7.9332 36.2892 7.9332C35.8962 7.9332 35.5782 7.62004 35.5782 7.23467ZM36.8713 7.23467C36.8653 6.91782 36.5997 6.66508 36.2772 6.67098C35.9547 6.67687 35.6974 6.93772 35.7034 7.25456C35.7087 7.56846 35.9705 7.81973 36.29 7.81825C36.611 7.81825 36.872 7.56257 36.872 7.24646C36.872 7.24204 36.872 7.23835 36.872 7.23393L36.8713 7.23467ZM36.0132 6.83677H36.3042C36.488 6.83677 36.5952 6.91487 36.5952 7.07109C36.6042 7.16983 36.5405 7.2612 36.443 7.28772L36.611 7.60162H36.4482L36.2915 7.30909H36.1685V7.60162H36.0125V6.83677H36.0132ZM36.2952 7.19193C36.3905 7.19193 36.443 7.16172 36.443 7.07993C36.443 6.99814 36.3905 6.96793 36.2915 6.96793H36.1685V7.19119H36.2945L36.2952 7.19193Z" class="logo-accent"/>
<path d="M5.42285 12.1504C7.08105 12.1504 8.29102 12.4902 9.05273 13.1699C9.81445 13.8496 10.1953 14.8018 10.1953 16.0264C10.1953 16.583 10.1074 17.1133 9.93164 17.6172C9.76172 18.1152 9.48047 18.5576 9.08789 18.9443C8.69531 19.3252 8.17676 19.627 7.53223 19.8496C6.89355 20.0723 6.10547 20.1836 5.16797 20.1836H3.79688V25H1.6875V12.1504H5.42285ZM5.28223 13.8994H3.79688V18.4258H4.94824C5.61035 18.4258 6.17285 18.3496 6.63574 18.1973C7.09863 18.0391 7.4502 17.79 7.69043 17.4502C7.93066 17.1104 8.05078 16.6621 8.05078 16.1055C8.05078 15.3613 7.8252 14.8076 7.37402 14.4443C6.92871 14.0811 6.23145 13.8994 5.28223 13.8994ZM16.5814 15.0859C16.7455 15.0859 16.9242 15.0947 17.1176 15.1123C17.3109 15.1299 17.4779 15.1533 17.6186 15.1826L17.4252 17.1162C17.3021 17.0811 17.1498 17.0547 16.9682 17.0371C16.7924 17.0195 16.6342 17.0107 16.4936 17.0107C16.1244 17.0107 15.7729 17.0723 15.4389 17.1953C15.1049 17.3125 14.809 17.4941 14.5512 17.7402C14.2934 17.9805 14.0912 18.2822 13.9447 18.6455C13.7982 19.0088 13.725 19.4307 13.725 19.9111V25H11.6508V15.2705H13.268L13.5492 16.9844H13.6459C13.8393 16.6387 14.0795 16.3223 14.3666 16.0352C14.6537 15.748 14.9818 15.5195 15.351 15.3496C15.726 15.1738 16.1361 15.0859 16.5814 15.0859ZM27.1336 20.1133C27.1336 20.9219 27.0281 21.6396 26.8172 22.2666C26.6063 22.8936 26.2986 23.4238 25.8943 23.8574C25.49 24.2852 25.0037 24.6133 24.4354 24.8418C23.867 25.0645 23.2254 25.1758 22.5105 25.1758C21.8426 25.1758 21.2303 25.0645 20.6736 24.8418C20.117 24.6133 19.6336 24.2852 19.2234 23.8574C18.8191 23.4238 18.5057 22.8936 18.283 22.2666C18.0604 21.6396 17.949 20.9219 17.949 20.1133C17.949 19.041 18.1336 18.1328 18.5027 17.3887C18.8777 16.6387 19.4109 16.0674 20.1023 15.6748C20.7938 15.2822 21.617 15.0859 22.5721 15.0859C23.4686 15.0859 24.2596 15.2822 24.9451 15.6748C25.6307 16.0674 26.1668 16.6387 26.5535 17.3887C26.9402 18.1387 27.1336 19.0469 27.1336 20.1133ZM20.076 20.1133C20.076 20.8223 20.1609 21.4287 20.3309 21.9326C20.5066 22.4365 20.7762 22.8232 21.1395 23.0928C21.5027 23.3564 21.9715 23.4883 22.5457 23.4883C23.1199 23.4883 23.5887 23.3564 23.952 23.0928C24.3152 22.8232 24.5818 22.4365 24.7518 21.9326C24.9217 21.4287 25.0066 20.8223 25.0066 20.1133C25.0066 19.4043 24.9217 18.8037 24.7518 18.3115C24.5818 17.8135 24.3152 17.4355 23.952 17.1777C23.5887 16.9141 23.117 16.7822 22.5369 16.7822C21.6814 16.7822 21.0574 17.0693 20.6648 17.6436C20.2723 18.2178 20.076 19.041 20.076 20.1133ZM27.6311 29.3242C27.3264 29.3242 27.0363 29.3008 26.7609 29.2539C26.4855 29.2129 26.2541 29.1631 26.0666 29.1045V27.4521C26.2658 27.5107 26.4592 27.5547 26.6467 27.584C26.8342 27.6133 27.048 27.6279 27.2883 27.6279C27.6691 27.6279 27.9826 27.5225 28.2287 27.3115C28.4807 27.1006 28.6066 26.6992 28.6066 26.1074V15.2705H30.6721V26.292C30.6721 26.8838 30.5666 27.4082 30.3557 27.8652C30.1506 28.3223 29.8225 28.6797 29.3713 28.9375C28.926 29.1953 28.3459 29.3242 27.6311 29.3242ZM28.4836 12.6777C28.4836 12.2617 28.5949 11.9688 28.8176 11.7988C29.0461 11.6289 29.3244 11.5439 29.6525 11.5439C29.9689 11.5439 30.2414 11.6289 30.4699 11.7988C30.7043 11.9688 30.8215 12.2617 30.8215 12.6777C30.8215 13.0879 30.7043 13.3809 30.4699 13.5566C30.2414 13.7266 29.9689 13.8115 29.6525 13.8115C29.3244 13.8115 29.0461 13.7266 28.8176 13.5566C28.5949 13.3809 28.4836 13.0879 28.4836 12.6777ZM36.61 15.0859C37.4771 15.0859 38.2213 15.2646 38.8424 15.6221C39.4635 15.9795 39.941 16.4863 40.275 17.1426C40.609 17.7988 40.776 18.584 40.776 19.498V20.6055H34.2809C34.3043 21.5488 34.5562 22.2754 35.0367 22.7852C35.523 23.2949 36.2027 23.5498 37.0758 23.5498C37.6969 23.5498 38.2535 23.4912 38.7457 23.374C39.2437 23.251 39.7564 23.0723 40.2838 22.8379V24.5166C39.7975 24.7451 39.3023 24.9121 38.7984 25.0176C38.2945 25.123 37.691 25.1758 36.9879 25.1758C36.0328 25.1758 35.192 24.9912 34.4654 24.6221C33.7447 24.2471 33.1793 23.6904 32.7691 22.9521C32.3648 22.2139 32.1627 21.2969 32.1627 20.2012C32.1627 19.1113 32.3473 18.1855 32.7164 17.4238C33.0855 16.6621 33.6041 16.082 34.2721 15.6836C34.94 15.2852 35.7193 15.0859 36.61 15.0859ZM36.61 16.6416C35.9596 16.6416 35.4322 16.8525 35.0279 17.2744C34.6295 17.6963 34.3951 18.3145 34.3248 19.1289H38.7545C38.7486 18.6426 38.6666 18.2119 38.5084 17.8369C38.3561 17.4619 38.1217 17.1689 37.8053 16.958C37.4947 16.7471 37.0963 16.6416 36.61 16.6416ZM46.125 25.1758C45.2051 25.1758 44.4082 24.9971 43.7344 24.6396C43.0605 24.2822 42.542 23.7344 42.1787 22.9961C41.8154 22.2578 41.6338 21.3203 41.6338 20.1836C41.6338 19 41.833 18.0332 42.2314 17.2832C42.6299 16.5332 43.1807 15.9795 43.8838 15.6221C44.5928 15.2646 45.4043 15.0859 46.3184 15.0859C46.8984 15.0859 47.4229 15.1445 47.8916 15.2617C48.3662 15.373 48.7676 15.5107 49.0957 15.6748L48.4805 17.3271C48.123 17.1807 47.7568 17.0576 47.3818 16.958C47.0068 16.8584 46.6465 16.8086 46.3008 16.8086C45.7324 16.8086 45.2578 16.9346 44.877 17.1865C44.502 17.4385 44.2207 17.8135 44.0332 18.3115C43.8516 18.8096 43.7607 19.4277 43.7607 20.166C43.7607 20.8809 43.8545 21.4844 44.042 21.9766C44.2295 22.4629 44.5078 22.832 44.877 23.084C45.2461 23.3301 45.7002 23.4531 46.2393 23.4531C46.7725 23.4531 47.25 23.3887 47.6719 23.2598C48.0938 23.1309 48.4922 22.9639 48.8672 22.7588V24.5518C48.498 24.7627 48.1025 24.918 47.6807 25.0176C47.2588 25.123 46.7402 25.1758 46.125 25.1758ZM53.8734 23.5059C54.143 23.5059 54.4096 23.4824 54.6732 23.4355C54.9369 23.3828 55.1771 23.3213 55.3939 23.251V24.8154C55.1654 24.915 54.8695 25 54.5062 25.0703C54.143 25.1406 53.765 25.1758 53.3725 25.1758C52.8217 25.1758 52.3266 25.085 51.8871 24.9033C51.4477 24.7158 51.099 24.3965 50.8412 23.9453C50.5834 23.4941 50.4545 22.8701 50.4545 22.0732V16.8438H49.1273V15.9209L50.5512 15.1914L51.2279 13.1084H52.5287V15.2705H55.3148V16.8438H52.5287V22.0469C52.5287 22.5391 52.6518 22.9053 52.8979 23.1455C53.1439 23.3857 53.4691 23.5059 53.8734 23.5059ZM67.8762 21.502C67.8762 22.2637 67.6887 22.9199 67.3137 23.4707C66.9445 24.0215 66.4113 24.4434 65.7141 24.7363C65.0227 25.0293 64.1965 25.1758 63.2355 25.1758C62.7668 25.1758 62.3186 25.1494 61.8908 25.0967C61.4631 25.0439 61.0588 24.9678 60.6779 24.8682C60.3029 24.7627 59.9602 24.6367 59.6496 24.4902V22.5039C60.1711 22.7324 60.7541 22.9404 61.3986 23.1279C62.0432 23.3096 62.6994 23.4004 63.3674 23.4004C63.9123 23.4004 64.3635 23.3301 64.7209 23.1895C65.0842 23.043 65.3537 22.8379 65.5295 22.5742C65.7053 22.3047 65.7932 21.9912 65.7932 21.6338C65.7932 21.2529 65.6906 20.9307 65.4855 20.667C65.2805 20.4033 64.9699 20.1631 64.5539 19.9463C64.1437 19.7236 63.6281 19.4863 63.007 19.2344C62.5852 19.0645 62.1809 18.8711 61.7941 18.6543C61.4133 18.4375 61.0734 18.1826 60.7746 17.8896C60.4758 17.5967 60.2385 17.251 60.0627 16.8525C59.8928 16.4482 59.8078 15.9736 59.8078 15.4287C59.8078 14.7021 59.9807 14.0811 60.3264 13.5654C60.6779 13.0498 61.1701 12.6543 61.8029 12.3789C62.4416 12.1035 63.1857 11.9658 64.0354 11.9658C64.7092 11.9658 65.342 12.0361 65.9338 12.1768C66.5314 12.3174 67.1174 12.5166 67.6916 12.7744L67.0236 14.4707C66.4963 14.2539 65.9836 14.0811 65.4855 13.9521C64.9934 13.8232 64.4895 13.7588 63.9738 13.7588C63.5285 13.7588 63.1506 13.8262 62.84 13.9609C62.5295 14.0957 62.2922 14.2861 62.1281 14.5322C61.9699 14.7725 61.8908 15.0596 61.8908 15.3936C61.8908 15.7686 61.9816 16.085 62.1633 16.3428C62.3508 16.5947 62.6379 16.8262 63.0246 17.0371C63.4172 17.248 63.9211 17.4824 64.5363 17.7402C65.2453 18.0332 65.8459 18.3408 66.3381 18.6631C66.8361 18.9854 67.217 19.3721 67.4807 19.8232C67.7443 20.2686 67.8762 20.8281 67.8762 21.502ZM71.3092 15.2705V25H69.2438V15.2705H71.3092ZM70.2896 11.5439C70.6061 11.5439 70.8785 11.6289 71.107 11.7988C71.3414 11.9688 71.4586 12.2617 71.4586 12.6777C71.4586 13.0879 71.3414 13.3809 71.107 13.5566C70.8785 13.7266 70.6061 13.8115 70.2896 13.8115C69.9615 13.8115 69.6832 13.7266 69.4547 13.5566C69.232 13.3809 69.1207 13.0879 69.1207 12.6777C69.1207 12.2617 69.232 11.9688 69.4547 11.7988C69.6832 11.6289 69.9615 11.5439 70.2896 11.5439ZM76.1484 29.3242C74.8301 29.3242 73.8193 29.0869 73.1162 28.6123C72.4131 28.1377 72.0615 27.4727 72.0615 26.6172C72.0615 26.0195 72.249 25.5127 72.624 25.0967C72.999 24.6865 73.5352 24.4023 74.2324 24.2441C73.9688 24.127 73.7402 23.9453 73.5469 23.6992C73.3594 23.4473 73.2656 23.1689 73.2656 22.8643C73.2656 22.501 73.3682 22.1904 73.5732 21.9326C73.7783 21.6748 74.0859 21.4258 74.4961 21.1855C73.9863 20.9688 73.5762 20.6172 73.2656 20.1309C72.9609 19.6387 72.8086 19.0615 72.8086 18.3994C72.8086 17.6963 72.958 17.0986 73.2568 16.6064C73.5557 16.1084 73.9922 15.7305 74.5664 15.4727C75.1406 15.209 75.835 15.0771 76.6494 15.0771C76.8252 15.0771 77.0156 15.0889 77.2207 15.1123C77.4316 15.1299 77.625 15.1533 77.8008 15.1826C77.9824 15.2061 78.1201 15.2324 78.2139 15.2617H81.5801V16.4131L79.9277 16.7207C80.0859 16.9434 80.2119 17.1982 80.3057 17.4854C80.3994 17.7666 80.4463 18.0742 80.4463 18.4082C80.4463 19.416 80.0977 20.21 79.4004 20.79C78.709 21.3643 77.7539 21.6514 76.5352 21.6514C76.2422 21.6396 75.958 21.6162 75.6826 21.5811C75.4717 21.71 75.3105 21.8535 75.1992 22.0117C75.0879 22.1641 75.0322 22.3369 75.0322 22.5303C75.0322 22.6885 75.0879 22.8174 75.1992 22.917C75.3105 23.0107 75.4746 23.0811 75.6914 23.1279C75.9141 23.1748 76.1836 23.1982 76.5 23.1982H78.1787C79.2451 23.1982 80.0596 23.4238 80.6221 23.875C81.1846 24.3262 81.4658 24.9883 81.4658 25.8613C81.4658 26.9688 81.0088 27.8213 80.0947 28.4189C79.1807 29.0225 77.8652 29.3242 76.1484 29.3242ZM76.2275 27.874C76.9482 27.874 77.5547 27.8037 78.0469 27.6631C78.5391 27.5225 78.9111 27.3203 79.1631 27.0566C79.415 26.7988 79.541 26.4912 79.541 26.1338C79.541 25.8174 79.4619 25.5742 79.3037 25.4043C79.1455 25.2344 78.9082 25.1172 78.5918 25.0527C78.2754 24.9883 77.8828 24.9561 77.4141 24.9561H75.8848C75.5039 24.9561 75.167 25.0146 74.874 25.1318C74.5811 25.2549 74.3525 25.4307 74.1885 25.6592C74.0303 25.8877 73.9512 26.1631 73.9512 26.4854C73.9512 26.9307 74.1475 27.2734 74.54 27.5137C74.9385 27.7539 75.501 27.874 76.2275 27.874ZM76.6318 20.2979C77.2354 20.2979 77.6836 20.1338 77.9766 19.8057C78.2695 19.4717 78.416 19.0029 78.416 18.3994C78.416 17.7432 78.2637 17.251 77.959 16.9229C77.6602 16.5947 77.2148 16.4307 76.623 16.4307C76.043 16.4307 75.6006 16.5977 75.2959 16.9316C74.9971 17.2656 74.8477 17.7607 74.8477 18.417C74.8477 19.0088 74.9971 19.4717 75.2959 19.8057C75.6006 20.1338 76.0459 20.2979 76.6318 20.2979ZM84.5209 11.3242V14.7607C84.5209 15.1182 84.5092 15.4668 84.4857 15.8066C84.4682 16.1465 84.4477 16.4102 84.4242 16.5977H84.5385C84.7436 16.2578 84.9955 15.9795 85.2943 15.7627C85.5932 15.54 85.9271 15.373 86.2963 15.2617C86.6713 15.1504 87.0697 15.0947 87.4916 15.0947C88.2357 15.0947 88.8686 15.2207 89.39 15.4727C89.9115 15.7188 90.31 16.1025 90.5854 16.624C90.8666 17.1455 91.0072 17.8223 91.0072 18.6543V25H88.9418V19.041C88.9418 18.2852 88.7865 17.7197 88.476 17.3447C88.1654 16.9639 87.685 16.7734 87.0346 16.7734C86.4076 16.7734 85.9096 16.9053 85.5404 17.1689C85.1771 17.4268 84.9164 17.8105 84.7582 18.3203C84.6 18.8242 84.5209 19.4395 84.5209 20.166V25H82.4555V11.3242H84.5209ZM96.6199 23.5059C96.8895 23.5059 97.1561 23.4824 97.4197 23.4355C97.6834 23.3828 97.9236 23.3213 98.1404 23.251V24.8154C97.9119 24.915 97.616 25 97.2527 25.0703C96.8895 25.1406 96.5115 25.1758 96.1189 25.1758C95.5682 25.1758 95.073 25.085 94.6336 24.9033C94.1941 24.7158 93.8455 24.3965 93.5877 23.9453C93.3299 23.4941 93.201 22.8701 93.201 22.0732V16.8438H91.8738V15.9209L93.2977 15.1914L93.9744 13.1084H95.2752V15.2705H98.0613V16.8438H95.2752V22.0469C95.2752 22.5391 95.3982 22.9053 95.6443 23.1455C95.8904 23.3857 96.2156 23.5059 96.6199 23.5059Z" class="logo-text"/>
</svg>
