<svg width="56" height="30" viewBox="0 0 56 30" fill="none" xmlns="http://www.w3.org/2000/svg">
<path d="M3.65277 7.8974H2.0514V1.78668H0V0.476562H5.70418V1.78595H3.65277V7.89666V7.8974Z" class="logo-accent"/>
<path d="M8.56749 2.11597C8.647 2.11597 8.7385 2.12039 8.84426 2.1285C8.94927 2.13734 9.03478 2.14766 9.10003 2.16166L8.98152 3.61325C8.92977 3.59631 8.85626 3.58378 8.76175 3.57494C8.66725 3.56683 8.58549 3.56241 8.51648 3.56241C8.31322 3.56241 8.11596 3.5882 7.92469 3.63831C7.73343 3.68915 7.56241 3.77094 7.4109 3.88442C7.25939 3.99789 7.13938 4.14673 7.05163 4.33095C6.96387 4.51516 6.91962 4.74137 6.91962 5.00885V7.89657H5.34375V2.22281H6.53709L6.76961 3.17704H6.84686C6.96087 2.98398 7.10263 2.80714 7.27289 2.6465C7.44316 2.48587 7.63817 2.35692 7.85644 2.26039C8.07545 2.16387 8.31172 2.11523 8.56674 2.11523L8.56749 2.11597Z" class="logo-accent"/>
<path d="M10.2284 0C10.4624 0 10.6642 0.0530533 10.833 0.159897C11.0017 0.26674 11.0865 0.464954 11.0865 0.75601C11.0865 1.04707 11.0017 1.24233 10.833 1.35212C10.6642 1.46191 10.4624 1.51718 10.2284 1.51718C9.99439 1.51718 9.78812 1.46191 9.62161 1.35212C9.45435 1.24233 9.37109 1.04338 9.37109 0.75601C9.37109 0.468638 9.45435 0.266004 9.62161 0.159897C9.78887 0.0530533 9.99139 0 10.2284 0ZM11.0137 2.22308V7.89758H9.43785V2.22308H11.0137Z" class="logo-accent"/>
<path d="M18.7239 2.11621C19.378 2.11621 19.8738 2.28127 20.209 2.61138C20.5451 2.94148 20.7131 3.46981 20.7131 4.19782V7.89755H19.132V4.58319C19.132 4.17719 19.0615 3.87066 18.9204 3.66434C18.7794 3.45802 18.5604 3.35486 18.2641 3.35486C17.8471 3.35486 17.5508 3.50149 17.3753 3.79402C17.1998 4.08655 17.1121 4.50508 17.1121 5.05035V7.89755H15.5362V4.58319C15.5362 4.31277 15.5054 4.08582 15.4432 3.90308C15.3809 3.72034 15.2864 3.58328 15.1589 3.49191C15.0314 3.40054 14.8679 3.35486 14.6684 3.35486C14.3759 3.35486 14.1456 3.42707 13.9783 3.57076C13.8111 3.71444 13.6926 3.92592 13.6221 4.20519C13.5515 4.48445 13.5163 4.82488 13.5163 5.22794V7.89755H11.9404V2.22305H13.1443L13.3558 2.94885H13.4435C13.5605 2.75285 13.7076 2.59369 13.8853 2.47211C14.0623 2.35053 14.2581 2.26063 14.4719 2.20316C14.6856 2.14569 14.9024 2.11695 15.1229 2.11695C15.5467 2.11695 15.906 2.18474 16.2 2.32032C16.4948 2.4559 16.7213 2.66517 16.8795 2.94959H17.0191C17.1916 2.65853 17.4346 2.44706 17.7504 2.31516C18.0654 2.18326 18.3902 2.11695 18.7239 2.11695V2.11621Z" class="logo-accent"/>
<path d="M23.1845 0V1.83771C23.1845 2.05066 23.1785 2.26213 23.1665 2.47214C23.1545 2.68214 23.1395 2.84425 23.1222 2.9592H23.1845C23.336 2.72561 23.543 2.52666 23.8048 2.36308C24.0666 2.19877 24.4056 2.11698 24.8226 2.11698C25.4699 2.11698 25.9957 2.36603 26.3985 2.86341C26.8013 3.36078 27.003 4.09026 27.003 5.05112C27.003 5.69734 26.91 6.23966 26.724 6.67809C26.538 7.11651 26.2777 7.44662 25.9439 7.66768C25.6102 7.88947 25.2224 8 24.7814 8C24.3403 8 24.0238 7.92558 23.7793 7.77673C23.5348 7.62789 23.3368 7.46062 23.1852 7.2742H23.0765L22.8132 7.89831H21.6094V0H23.1852H23.1845ZM24.3156 3.35489C24.0403 3.35489 23.8213 3.41089 23.6593 3.52215C23.4973 3.63415 23.3795 3.80142 23.3053 4.02468C23.231 4.24795 23.1905 4.5309 23.1837 4.87206V5.03933C23.1837 5.59123 23.2662 6.01345 23.432 6.30598C23.597 6.59851 23.8985 6.74514 24.3358 6.74514C24.6599 6.74514 24.9171 6.59777 25.1084 6.30377C25.2997 6.00903 25.3949 5.5846 25.3949 5.02975C25.3949 4.4749 25.2981 4.05711 25.1054 3.77563C24.9126 3.49489 24.6486 3.35415 24.3148 3.35415L24.3156 3.35489Z" class="logo-accent"/>
<path d="M29.2272 7.89758H27.6514V0H29.2272V7.89758Z" class="logo-accent"/>
<path d="M32.5881 2.11621C33.1222 2.11621 33.582 2.21716 33.9675 2.41832C34.353 2.61948 34.6508 2.91127 34.8616 3.2937C35.0716 3.67613 35.1766 4.14329 35.1766 4.69446V5.44531H31.4518C31.4691 5.88226 31.6026 6.22416 31.8523 6.47322C32.1021 6.72153 32.4494 6.84606 32.8934 6.84606C33.2617 6.84606 33.5992 6.80922 33.906 6.7348C34.2128 6.66038 34.5278 6.54837 34.8518 6.39953V7.59765C34.566 7.73618 34.2668 7.83786 33.9555 7.90197C33.6435 7.96608 33.2654 7.9985 32.8214 7.9985C32.2431 7.9985 31.7301 7.89387 31.2845 7.68386C30.8383 7.47386 30.4887 7.15407 30.236 6.72448C29.9825 6.2949 29.8564 5.75331 29.8564 5.10046C29.8564 4.44761 29.9712 3.88466 30.2 3.44328C30.4287 3.00191 30.7483 2.67032 31.1585 2.44853C31.5681 2.22674 32.0451 2.11621 32.5896 2.11621H32.5881ZM32.5986 3.2178C32.2919 3.2178 32.0384 3.31433 31.8366 3.50739C31.6348 3.69971 31.5186 4.00329 31.4878 4.41593H33.699C33.6952 4.18603 33.6532 3.98118 33.5722 3.80139C33.4912 3.62234 33.3705 3.48012 33.2107 3.37475C33.0502 3.27012 32.8462 3.2178 32.5986 3.2178Z" class="logo-accent"/>
<path d="M35.5782 7.23467C35.5737 6.85298 35.8849 6.53982 36.2735 6.53613C36.2787 6.53613 36.284 6.53613 36.2892 6.53613C36.6823 6.53613 37.0003 6.8493 37.0003 7.23467C37.0003 7.62078 36.6815 7.9332 36.2892 7.9332C35.8962 7.9332 35.5782 7.62004 35.5782 7.23467ZM36.8713 7.23467C36.8653 6.91782 36.5997 6.66508 36.2772 6.67098C35.9547 6.67687 35.6974 6.93772 35.7034 7.25456C35.7087 7.56846 35.9705 7.81973 36.29 7.81825C36.611 7.81825 36.872 7.56257 36.872 7.24646C36.872 7.24204 36.872 7.23835 36.872 7.23393L36.8713 7.23467ZM36.0132 6.83677H36.3042C36.488 6.83677 36.5952 6.91487 36.5952 7.07109C36.6042 7.16983 36.5405 7.2612 36.443 7.28772L36.611 7.60162H36.4482L36.2915 7.30909H36.1685V7.60162H36.0125V6.83677H36.0132ZM36.2952 7.19193C36.3905 7.19193 36.443 7.16172 36.443 7.07993C36.443 6.99814 36.3905 6.96793 36.2915 6.96793H36.1685V7.19119H36.2945L36.2952 7.19193Z" class="logo-accent"/>
<path d="M13.0957 18.5576C13.0957 19.5596 12.9668 20.4736 12.709 21.2998C12.4512 22.126 12.0645 22.832 11.5488 23.418C11.0332 24.0039 10.3828 24.4463 9.59766 24.7451L12.6562 28.0586H9.84375L7.42676 25.167C7.36816 25.167 7.30957 25.167 7.25098 25.167C7.19824 25.1729 7.14551 25.1758 7.09277 25.1758C6.06738 25.1758 5.17676 25.0176 4.4209 24.7012C3.6709 24.3848 3.04688 23.9336 2.54883 23.3477C2.05664 22.7617 1.6875 22.0615 1.44141 21.2471C1.19531 20.4326 1.07227 19.5303 1.07227 18.54C1.07227 17.2158 1.28906 16.0615 1.72266 15.0771C2.16211 14.0869 2.82715 13.3193 3.71777 12.7744C4.61426 12.2236 5.74512 11.9482 7.11035 11.9482C8.44629 11.9482 9.55664 12.2207 10.4414 12.7656C11.3262 13.3105 11.9883 14.0781 12.4277 15.0684C12.873 16.0527 13.0957 17.2158 13.0957 18.5576ZM3.28711 18.5576C3.28711 19.5479 3.42188 20.4062 3.69141 21.1328C3.96094 21.8535 4.37402 22.4102 4.93066 22.8027C5.49316 23.1895 6.21387 23.3828 7.09277 23.3828C7.97754 23.3828 8.69824 23.1895 9.25488 22.8027C9.81152 22.4102 10.2217 21.8535 10.4854 21.1328C10.749 20.4062 10.8809 19.5479 10.8809 18.5576C10.8809 17.0518 10.5791 15.874 9.97559 15.0244C9.37793 14.1689 8.42285 13.7412 7.11035 13.7412C6.23145 13.7412 5.50781 13.9346 4.93945 14.3213C4.37695 14.708 3.96094 15.2617 3.69141 15.9824C3.42188 16.6973 3.28711 17.5557 3.28711 18.5576ZM23.226 15.2705V25H21.6L21.3188 23.6904H21.2045C20.9994 24.0244 20.7387 24.3027 20.4223 24.5254C20.1059 24.7422 19.7543 24.9033 19.3676 25.0088C18.9809 25.1201 18.5736 25.1758 18.1459 25.1758C17.4135 25.1758 16.7865 25.0527 16.265 24.8066C15.7494 24.5547 15.3539 24.168 15.0785 23.6465C14.8031 23.125 14.6654 22.4512 14.6654 21.625V15.2705H16.7396V21.2383C16.7396 21.9941 16.892 22.5596 17.1967 22.9346C17.5072 23.3096 17.9877 23.4971 18.6381 23.4971C19.265 23.4971 19.7631 23.3682 20.1322 23.1104C20.5014 22.8525 20.7621 22.4717 20.9145 21.9678C21.0727 21.4639 21.1518 20.8457 21.1518 20.1133V15.2705H23.226ZM29.1023 15.0859C30.3328 15.0859 31.2615 15.3584 31.8885 15.9033C32.5213 16.4482 32.8377 17.2979 32.8377 18.4521V25H31.3699L30.9744 23.6201H30.9041C30.6287 23.9717 30.3445 24.2617 30.0516 24.4902C29.7586 24.7188 29.4188 24.8887 29.032 25C28.6512 25.1172 28.1854 25.1758 27.6346 25.1758C27.0545 25.1758 26.5359 25.0703 26.0789 24.8594C25.6219 24.6426 25.2615 24.3145 24.9979 23.875C24.7342 23.4355 24.6023 22.8789 24.6023 22.2051C24.6023 21.2031 24.9744 20.4502 25.7186 19.9463C26.4686 19.4424 27.5994 19.1641 29.1111 19.1113L30.7986 19.0498V18.54C30.7986 17.8662 30.6404 17.3857 30.324 17.0986C30.0135 16.8115 29.574 16.668 29.0057 16.668C28.5193 16.668 28.0477 16.7383 27.5906 16.8789C27.1336 17.0195 26.6883 17.1924 26.2547 17.3975L25.5867 15.9385C26.0613 15.6865 26.6004 15.4814 27.2039 15.3232C27.8133 15.165 28.4461 15.0859 29.1023 15.0859ZM30.7898 20.3506L29.533 20.3945C28.5018 20.4297 27.7781 20.6055 27.3621 20.9219C26.9461 21.2383 26.7381 21.6719 26.7381 22.2227C26.7381 22.7031 26.8816 23.0547 27.1688 23.2773C27.4559 23.4941 27.8338 23.6025 28.3025 23.6025C29.0174 23.6025 29.6092 23.4004 30.0779 22.9961C30.5525 22.5859 30.7898 21.9854 30.7898 21.1943V20.3506ZM38.0988 25.1758C36.9387 25.1758 36.007 24.7539 35.3039 23.9102C34.6066 23.0605 34.258 21.8096 34.258 20.1572C34.258 18.4873 34.6125 17.2246 35.3215 16.3691C36.0363 15.5137 36.9768 15.0859 38.1428 15.0859C38.635 15.0859 39.0656 15.1533 39.4348 15.2881C39.8039 15.417 40.1203 15.5928 40.384 15.8154C40.6535 16.0381 40.882 16.2871 41.0695 16.5625H41.1662C41.1369 16.3809 41.1018 16.1201 41.0607 15.7803C41.0256 15.4346 41.008 15.1152 41.008 14.8223V11.3242H43.0822V25H41.465L41.0959 23.6729H41.008C40.8322 23.9541 40.6096 24.209 40.34 24.4375C40.0764 24.6602 39.76 24.8389 39.3908 24.9736C39.0275 25.1084 38.5969 25.1758 38.0988 25.1758ZM38.6789 23.4971C39.5637 23.4971 40.1877 23.2422 40.551 22.7324C40.9143 22.2227 41.1018 21.458 41.1135 20.4385V20.166C41.1135 19.0762 40.9377 18.2412 40.5861 17.6611C40.2346 17.0752 39.593 16.7822 38.6613 16.7822C37.9172 16.7822 37.3488 17.084 36.9562 17.6875C36.5695 18.2852 36.3762 19.1201 36.3762 20.1924C36.3762 21.2646 36.5695 22.085 36.9562 22.6533C37.3488 23.2158 37.923 23.4971 38.6789 23.4971ZM50.0748 15.0859C50.2389 15.0859 50.4176 15.0947 50.6109 15.1123C50.8043 15.1299 50.9713 15.1533 51.1119 15.1826L50.9186 17.1162C50.7955 17.0811 50.6432 17.0547 50.4615 17.0371C50.2857 17.0195 50.1275 17.0107 49.9869 17.0107C49.6178 17.0107 49.2662 17.0723 48.9322 17.1953C48.5982 17.3125 48.3023 17.4941 48.0445 17.7402C47.7867 17.9805 47.5846 18.2822 47.4381 18.6455C47.2916 19.0088 47.2184 19.4307 47.2184 19.9111V25H45.1441V15.2705H46.7613L47.0426 16.9844H47.1393C47.3326 16.6387 47.5729 16.3223 47.86 16.0352C48.1471 15.748 48.4752 15.5195 48.8443 15.3496C49.2193 15.1738 49.6295 15.0859 50.0748 15.0859ZM54.0791 15.2705V25H52.0137V15.2705H54.0791ZM53.0596 11.5439C53.376 11.5439 53.6484 11.6289 53.877 11.7988C54.1113 11.9688 54.2285 12.2617 54.2285 12.6777C54.2285 13.0879 54.1113 13.3809 53.877 13.5566C53.6484 13.7266 53.376 13.8115 53.0596 13.8115C52.7314 13.8115 52.4531 13.7266 52.2246 13.5566C52.002 13.3809 51.8906 13.0879 51.8906 12.6777C51.8906 12.2617 52.002 11.9688 52.2246 11.7988C52.4531 11.6289 52.7314 11.5439 53.0596 11.5439Z" class="logo-text"/>
</svg>
