<svg width="77" height="30" viewBox="0 0 77 30" fill="none" xmlns="http://www.w3.org/2000/svg">
<path d="M3.65277 7.8974H2.0514V1.78668H0V0.476562H5.70418V1.78595H3.65277V7.89666V7.8974Z" class="logo-accent"/>
<path d="M8.56749 2.11597C8.647 2.11597 8.7385 2.12039 8.84426 2.1285C8.94927 2.13734 9.03478 2.14766 9.10003 2.16166L8.98152 3.61325C8.92977 3.59631 8.85626 3.58378 8.76175 3.57494C8.66725 3.56683 8.58549 3.56241 8.51648 3.56241C8.31322 3.56241 8.11596 3.5882 7.92469 3.63831C7.73343 3.68915 7.56241 3.77094 7.4109 3.88442C7.25939 3.99789 7.13938 4.14673 7.05163 4.33095C6.96387 4.51516 6.91962 4.74137 6.91962 5.00885V7.89657H5.34375V2.22281H6.53709L6.76961 3.17704H6.84686C6.96087 2.98398 7.10263 2.80714 7.27289 2.6465C7.44316 2.48587 7.63817 2.35692 7.85644 2.26039C8.07545 2.16387 8.31172 2.11523 8.56674 2.11523L8.56749 2.11597Z" class="logo-accent"/>
<path d="M10.2284 0C10.4624 0 10.6642 0.0530533 10.833 0.159897C11.0017 0.26674 11.0865 0.464954 11.0865 0.75601C11.0865 1.04707 11.0017 1.24233 10.833 1.35212C10.6642 1.46191 10.4624 1.51718 10.2284 1.51718C9.99439 1.51718 9.78812 1.46191 9.62161 1.35212C9.45435 1.24233 9.37109 1.04338 9.37109 0.75601C9.37109 0.468638 9.45435 0.266004 9.62161 0.159897C9.78887 0.0530533 9.99139 0 10.2284 0ZM11.0137 2.22308V7.89758H9.43785V2.22308H11.0137Z" class="logo-accent"/>
<path d="M18.7239 2.11621C19.378 2.11621 19.8738 2.28127 20.209 2.61138C20.5451 2.94148 20.7131 3.46981 20.7131 4.19782V7.89755H19.132V4.58319C19.132 4.17719 19.0615 3.87066 18.9204 3.66434C18.7794 3.45802 18.5604 3.35486 18.2641 3.35486C17.8471 3.35486 17.5508 3.50149 17.3753 3.79402C17.1998 4.08655 17.1121 4.50508 17.1121 5.05035V7.89755H15.5362V4.58319C15.5362 4.31277 15.5054 4.08582 15.4432 3.90308C15.3809 3.72034 15.2864 3.58328 15.1589 3.49191C15.0314 3.40054 14.8679 3.35486 14.6684 3.35486C14.3759 3.35486 14.1456 3.42707 13.9783 3.57076C13.8111 3.71444 13.6926 3.92592 13.6221 4.20519C13.5515 4.48445 13.5163 4.82488 13.5163 5.22794V7.89755H11.9404V2.22305H13.1443L13.3558 2.94885H13.4435C13.5605 2.75285 13.7076 2.59369 13.8853 2.47211C14.0623 2.35053 14.2581 2.26063 14.4719 2.20316C14.6856 2.14569 14.9024 2.11695 15.1229 2.11695C15.5467 2.11695 15.906 2.18474 16.2 2.32032C16.4948 2.4559 16.7213 2.66517 16.8795 2.94959H17.0191C17.1916 2.65853 17.4346 2.44706 17.7504 2.31516C18.0654 2.18326 18.3902 2.11695 18.7239 2.11695V2.11621Z" class="logo-accent"/>
<path d="M23.1845 0V1.83771C23.1845 2.05066 23.1785 2.26213 23.1665 2.47214C23.1545 2.68214 23.1395 2.84425 23.1222 2.9592H23.1845C23.336 2.72561 23.543 2.52666 23.8048 2.36308C24.0666 2.19877 24.4056 2.11698 24.8226 2.11698C25.4699 2.11698 25.9957 2.36603 26.3985 2.86341C26.8013 3.36078 27.003 4.09026 27.003 5.05112C27.003 5.69734 26.91 6.23966 26.724 6.67809C26.538 7.11651 26.2777 7.44662 25.9439 7.66768C25.6102 7.88947 25.2224 8 24.7814 8C24.3403 8 24.0238 7.92558 23.7793 7.77673C23.5348 7.62789 23.3368 7.46062 23.1852 7.2742H23.0765L22.8132 7.89831H21.6094V0H23.1852H23.1845ZM24.3156 3.35489C24.0403 3.35489 23.8213 3.41089 23.6593 3.52215C23.4973 3.63415 23.3795 3.80142 23.3053 4.02468C23.231 4.24795 23.1905 4.5309 23.1837 4.87206V5.03933C23.1837 5.59123 23.2662 6.01345 23.432 6.30598C23.597 6.59851 23.8985 6.74514 24.3358 6.74514C24.6599 6.74514 24.9171 6.59777 25.1084 6.30377C25.2997 6.00903 25.3949 5.5846 25.3949 5.02975C25.3949 4.4749 25.2981 4.05711 25.1054 3.77563C24.9126 3.49489 24.6486 3.35415 24.3148 3.35415L24.3156 3.35489Z" class="logo-accent"/>
<path d="M29.2272 7.89758H27.6514V0H29.2272V7.89758Z" class="logo-accent"/>
<path d="M32.5881 2.11621C33.1222 2.11621 33.582 2.21716 33.9675 2.41832C34.353 2.61948 34.6508 2.91127 34.8616 3.2937C35.0716 3.67613 35.1766 4.14329 35.1766 4.69446V5.44531H31.4518C31.4691 5.88226 31.6026 6.22416 31.8523 6.47322C32.1021 6.72153 32.4494 6.84606 32.8934 6.84606C33.2617 6.84606 33.5992 6.80922 33.906 6.7348C34.2128 6.66038 34.5278 6.54837 34.8518 6.39953V7.59765C34.566 7.73618 34.2668 7.83786 33.9555 7.90197C33.6435 7.96608 33.2654 7.9985 32.8214 7.9985C32.2431 7.9985 31.7301 7.89387 31.2845 7.68386C30.8383 7.47386 30.4887 7.15407 30.236 6.72448C29.9825 6.2949 29.8564 5.75331 29.8564 5.10046C29.8564 4.44761 29.9712 3.88466 30.2 3.44328C30.4287 3.00191 30.7483 2.67032 31.1585 2.44853C31.5681 2.22674 32.0451 2.11621 32.5896 2.11621H32.5881ZM32.5986 3.2178C32.2919 3.2178 32.0384 3.31433 31.8366 3.50739C31.6348 3.69971 31.5186 4.00329 31.4878 4.41593H33.699C33.6952 4.18603 33.6532 3.98118 33.5722 3.80139C33.4912 3.62234 33.3705 3.48012 33.2107 3.37475C33.0502 3.27012 32.8462 3.2178 32.5986 3.2178Z" class="logo-accent"/>
<path d="M35.5782 7.23467C35.5737 6.85298 35.8849 6.53982 36.2735 6.53613C36.2787 6.53613 36.284 6.53613 36.2892 6.53613C36.6823 6.53613 37.0003 6.8493 37.0003 7.23467C37.0003 7.62078 36.6815 7.9332 36.2892 7.9332C35.8962 7.9332 35.5782 7.62004 35.5782 7.23467ZM36.8713 7.23467C36.8653 6.91782 36.5997 6.66508 36.2772 6.67098C35.9547 6.67687 35.6974 6.93772 35.7034 7.25456C35.7087 7.56846 35.9705 7.81973 36.29 7.81825C36.611 7.81825 36.872 7.56257 36.872 7.24646C36.872 7.24204 36.872 7.23835 36.872 7.23393L36.8713 7.23467ZM36.0132 6.83677H36.3042C36.488 6.83677 36.5952 6.91487 36.5952 7.07109C36.6042 7.16983 36.5405 7.2612 36.443 7.28772L36.611 7.60162H36.4482L36.2915 7.30909H36.1685V7.60162H36.0125V6.83677H36.0132ZM36.2952 7.19193C36.3905 7.19193 36.443 7.16172 36.443 7.07993C36.443 6.99814 36.3905 6.96793 36.2915 6.96793H36.1685V7.19119H36.2945L36.2952 7.19193Z" class="logo-accent"/>
<path d="M9.10547 21.502C9.10547 22.2637 8.91797 22.9199 8.54297 23.4707C8.17383 24.0215 7.64062 24.4434 6.94336 24.7363C6.25195 25.0293 5.42578 25.1758 4.46484 25.1758C3.99609 25.1758 3.54785 25.1494 3.12012 25.0967C2.69238 25.0439 2.28809 24.9678 1.90723 24.8682C1.53223 24.7627 1.18945 24.6367 0.878906 24.4902V22.5039C1.40039 22.7324 1.9834 22.9404 2.62793 23.1279C3.27246 23.3096 3.92871 23.4004 4.59668 23.4004C5.1416 23.4004 5.59277 23.3301 5.9502 23.1895C6.31348 23.043 6.58301 22.8379 6.75879 22.5742C6.93457 22.3047 7.02246 21.9912 7.02246 21.6338C7.02246 21.2529 6.91992 20.9307 6.71484 20.667C6.50977 20.4033 6.19922 20.1631 5.7832 19.9463C5.37305 19.7236 4.85742 19.4863 4.23633 19.2344C3.81445 19.0645 3.41016 18.8711 3.02344 18.6543C2.64258 18.4375 2.30273 18.1826 2.00391 17.8896C1.70508 17.5967 1.46777 17.251 1.29199 16.8525C1.12207 16.4482 1.03711 15.9736 1.03711 15.4287C1.03711 14.7021 1.20996 14.0811 1.55566 13.5654C1.90723 13.0498 2.39941 12.6543 3.03223 12.3789C3.6709 12.1035 4.41504 11.9658 5.26465 11.9658C5.93848 11.9658 6.57129 12.0361 7.16309 12.1768C7.76074 12.3174 8.34668 12.5166 8.9209 12.7744L8.25293 14.4707C7.72559 14.2539 7.21289 14.0811 6.71484 13.9521C6.22266 13.8232 5.71875 13.7588 5.20312 13.7588C4.75781 13.7588 4.37988 13.8262 4.06934 13.9609C3.75879 14.0957 3.52148 14.2861 3.35742 14.5322C3.19922 14.7725 3.12012 15.0596 3.12012 15.3936C3.12012 15.7686 3.21094 16.085 3.39258 16.3428C3.58008 16.5947 3.86719 16.8262 4.25391 17.0371C4.64648 17.248 5.15039 17.4824 5.76562 17.7402C6.47461 18.0332 7.0752 18.3408 7.56738 18.6631C8.06543 18.9854 8.44629 19.3721 8.70996 19.8232C8.97363 20.2686 9.10547 20.8281 9.10547 21.502ZM12.5385 15.2705V25H10.473V15.2705H12.5385ZM11.5189 11.5439C11.8354 11.5439 12.1078 11.6289 12.3363 11.7988C12.5707 11.9688 12.6879 12.2617 12.6879 12.6777C12.6879 13.0879 12.5707 13.3809 12.3363 13.5566C12.1078 13.7266 11.8354 13.8115 11.5189 13.8115C11.1908 13.8115 10.9125 13.7266 10.684 13.5566C10.4613 13.3809 10.35 13.0879 10.35 12.6777C10.35 12.2617 10.4613 11.9688 10.684 11.7988C10.9125 11.6289 11.1908 11.5439 11.5189 11.5439ZM18.2215 23.5059C18.491 23.5059 18.7576 23.4824 19.0213 23.4355C19.285 23.3828 19.5252 23.3213 19.742 23.251V24.8154C19.5135 24.915 19.2176 25 18.8543 25.0703C18.491 25.1406 18.1131 25.1758 17.7205 25.1758C17.1697 25.1758 16.6746 25.085 16.2352 24.9033C15.7957 24.7158 15.4471 24.3965 15.1893 23.9453C14.9314 23.4941 14.8025 22.8701 14.8025 22.0732V16.8438H13.4754V15.9209L14.8992 15.1914L15.576 13.1084H16.8768V15.2705H19.6629V16.8438H16.8768V22.0469C16.8768 22.5391 16.9998 22.9053 17.2459 23.1455C17.492 23.3857 17.8172 23.5059 18.2215 23.5059ZM24.6955 15.0859C25.5627 15.0859 26.3068 15.2646 26.9279 15.6221C27.549 15.9795 28.0266 16.4863 28.3605 17.1426C28.6945 17.7988 28.8615 18.584 28.8615 19.498V20.6055H22.3664C22.3898 21.5488 22.6418 22.2754 23.1223 22.7852C23.6086 23.2949 24.2883 23.5498 25.1613 23.5498C25.7824 23.5498 26.3391 23.4912 26.8312 23.374C27.3293 23.251 27.842 23.0723 28.3693 22.8379V24.5166C27.883 24.7451 27.3879 24.9121 26.884 25.0176C26.3801 25.123 25.7766 25.1758 25.0734 25.1758C24.1184 25.1758 23.2775 24.9912 22.551 24.6221C21.8303 24.2471 21.2648 23.6904 20.8547 22.9521C20.4504 22.2139 20.2482 21.2969 20.2482 20.2012C20.2482 19.1113 20.4328 18.1855 20.802 17.4238C21.1711 16.6621 21.6896 16.082 22.3576 15.6836C23.0256 15.2852 23.8049 15.0859 24.6955 15.0859ZM24.6955 16.6416C24.0451 16.6416 23.5178 16.8525 23.1135 17.2744C22.715 17.6963 22.4807 18.3145 22.4104 19.1289H26.84C26.8342 18.6426 26.7521 18.2119 26.5939 17.8369C26.4416 17.4619 26.2072 17.1689 25.8908 16.958C25.5803 16.7471 25.1818 16.6416 24.6955 16.6416ZM40.0289 12.1504L35.5377 25H33.3053L28.8141 12.1504H30.9762L33.6832 20.2012C33.7652 20.4355 33.8531 20.7197 33.9469 21.0537C34.0465 21.3877 34.1373 21.7246 34.2193 22.0645C34.3072 22.4043 34.3746 22.7061 34.4215 22.9697C34.4684 22.7061 34.5328 22.4043 34.6148 22.0645C34.7027 21.7246 34.7936 21.3877 34.8873 21.0537C34.9811 20.7197 35.0689 20.4326 35.151 20.1924L37.8668 12.1504H40.0289ZM42.6709 15.2705V25H40.6055V15.2705H42.6709ZM41.6514 11.5439C41.9678 11.5439 42.2402 11.6289 42.4688 11.7988C42.7031 11.9688 42.8203 12.2617 42.8203 12.6777C42.8203 13.0879 42.7031 13.3809 42.4688 13.5566C42.2402 13.7266 41.9678 13.8115 41.6514 13.8115C41.3232 13.8115 41.0449 13.7266 40.8164 13.5566C40.5938 13.3809 40.4824 13.0879 40.4824 12.6777C40.4824 12.2617 40.5938 11.9688 40.8164 11.7988C41.0449 11.6289 41.3232 11.5439 41.6514 11.5439ZM51.2719 22.2227C51.2719 22.8613 51.1166 23.4004 50.8061 23.8398C50.4955 24.2793 50.0414 24.6133 49.4437 24.8418C48.852 25.0645 48.1254 25.1758 47.2641 25.1758C46.5844 25.1758 45.9984 25.126 45.5062 25.0264C45.0199 24.9326 44.56 24.7861 44.1264 24.5869V22.8027C44.5893 23.0195 45.1078 23.207 45.682 23.3652C46.2621 23.5234 46.81 23.6025 47.3256 23.6025C48.0053 23.6025 48.4945 23.4971 48.7934 23.2861C49.0922 23.0693 49.2416 22.7822 49.2416 22.4248C49.2416 22.2139 49.1801 22.0264 49.057 21.8623C48.9398 21.6924 48.7172 21.5195 48.3891 21.3438C48.0668 21.1621 47.5922 20.9453 46.9652 20.6934C46.35 20.4473 45.8314 20.2012 45.4096 19.9551C44.9877 19.709 44.6684 19.4131 44.4516 19.0674C44.2348 18.7158 44.1264 18.2676 44.1264 17.7227C44.1264 16.8613 44.4662 16.208 45.1459 15.7627C45.8314 15.3115 46.7367 15.0859 47.8617 15.0859C48.4594 15.0859 49.0219 15.1475 49.5492 15.2705C50.0824 15.3877 50.6039 15.5605 51.1137 15.7891L50.4633 17.3447C50.0238 17.1514 49.5814 16.9932 49.1361 16.8701C48.6967 16.7412 48.2484 16.6768 47.7914 16.6768C47.2582 16.6768 46.851 16.7588 46.5697 16.9229C46.2943 17.0869 46.1566 17.3213 46.1566 17.626C46.1566 17.8545 46.224 18.0479 46.3588 18.2061C46.4936 18.3643 46.725 18.5225 47.0531 18.6807C47.3871 18.8389 47.85 19.0352 48.4418 19.2695C49.0219 19.4922 49.5229 19.7266 49.9447 19.9727C50.3725 20.2129 50.7006 20.5088 50.9291 20.8604C51.1576 21.2119 51.2719 21.666 51.2719 22.2227ZM54.6697 15.2705V25H52.6043V15.2705H54.6697ZM53.6502 11.5439C53.9666 11.5439 54.2391 11.6289 54.4676 11.7988C54.702 11.9688 54.8191 12.2617 54.8191 12.6777C54.8191 13.0879 54.702 13.3809 54.4676 13.5566C54.2391 13.7266 53.9666 13.8115 53.6502 13.8115C53.3221 13.8115 53.0438 13.7266 52.8152 13.5566C52.5926 13.3809 52.4813 13.0879 52.4813 12.6777C52.4813 12.2617 52.5926 11.9688 52.8152 11.7988C53.0438 11.6289 53.3221 11.5439 53.6502 11.5439ZM65.3449 20.1133C65.3449 20.9219 65.2395 21.6396 65.0285 22.2666C64.8176 22.8936 64.51 23.4238 64.1057 23.8574C63.7014 24.2852 63.215 24.6133 62.6467 24.8418C62.0783 25.0645 61.4367 25.1758 60.7219 25.1758C60.0539 25.1758 59.4416 25.0645 58.885 24.8418C58.3283 24.6133 57.8449 24.2852 57.4348 23.8574C57.0305 23.4238 56.717 22.8936 56.4943 22.2666C56.2717 21.6396 56.1604 20.9219 56.1604 20.1133C56.1604 19.041 56.3449 18.1328 56.7141 17.3887C57.0891 16.6387 57.6223 16.0674 58.3137 15.6748C59.0051 15.2822 59.8283 15.0859 60.7834 15.0859C61.6799 15.0859 62.4709 15.2822 63.1564 15.6748C63.842 16.0674 64.3781 16.6387 64.7648 17.3887C65.1516 18.1387 65.3449 19.0469 65.3449 20.1133ZM58.2873 20.1133C58.2873 20.8223 58.3723 21.4287 58.5422 21.9326C58.718 22.4365 58.9875 22.8232 59.3508 23.0928C59.7141 23.3564 60.1828 23.4883 60.757 23.4883C61.3312 23.4883 61.8 23.3564 62.1633 23.0928C62.5266 22.8232 62.7932 22.4365 62.9631 21.9326C63.133 21.4287 63.218 20.8223 63.218 20.1133C63.218 19.4043 63.133 18.8037 62.9631 18.3115C62.7932 17.8135 62.5266 17.4355 62.1633 17.1777C61.8 16.9141 61.3283 16.7822 60.7482 16.7822C59.8928 16.7822 59.2687 17.0693 58.8762 17.6436C58.4836 18.2178 58.2873 19.041 58.2873 20.1133ZM71.8893 15.0859C72.985 15.0859 73.8375 15.3701 74.4469 15.9385C75.0621 16.501 75.3697 17.4062 75.3697 18.6543V25H73.3043V19.041C73.3043 18.2852 73.149 17.7197 72.8385 17.3447C72.5279 16.9639 72.0475 16.7734 71.3971 16.7734C70.4537 16.7734 69.7975 17.0635 69.4283 17.6436C69.065 18.2236 68.8834 19.0645 68.8834 20.166V25H66.818V15.2705H68.4264L68.7164 16.5889H68.8307C69.0416 16.249 69.3023 15.9707 69.6129 15.7539C69.9293 15.5312 70.2809 15.3643 70.6676 15.2529C71.0602 15.1416 71.4674 15.0859 71.8893 15.0859Z" class="logo-text"/>
</svg>
