<svg width="60" height="30" viewBox="0 0 60 30" fill="none" xmlns="http://www.w3.org/2000/svg">
<path d="M3.65277 7.8974H2.0514V1.78668H0V0.476562H5.70418V1.78595H3.65277V7.89666V7.8974Z" class="logo-accent"/>
<path d="M8.56749 2.11597C8.647 2.11597 8.7385 2.12039 8.84426 2.1285C8.94927 2.13734 9.03478 2.14766 9.10003 2.16166L8.98152 3.61325C8.92977 3.59631 8.85626 3.58378 8.76175 3.57494C8.66725 3.56683 8.58549 3.56241 8.51648 3.56241C8.31322 3.56241 8.11596 3.5882 7.92469 3.63831C7.73343 3.68915 7.56241 3.77094 7.4109 3.88442C7.25939 3.99789 7.13938 4.14673 7.05163 4.33095C6.96387 4.51516 6.91962 4.74137 6.91962 5.00885V7.89657H5.34375V2.22281H6.53709L6.76961 3.17704H6.84686C6.96087 2.98398 7.10263 2.80714 7.27289 2.6465C7.44316 2.48587 7.63817 2.35692 7.85644 2.26039C8.07545 2.16387 8.31172 2.11523 8.56674 2.11523L8.56749 2.11597Z" class="logo-accent"/>
<path d="M10.2284 0C10.4624 0 10.6642 0.0530533 10.833 0.159897C11.0017 0.26674 11.0865 0.464954 11.0865 0.75601C11.0865 1.04707 11.0017 1.24233 10.833 1.35212C10.6642 1.46191 10.4624 1.51718 10.2284 1.51718C9.99439 1.51718 9.78812 1.46191 9.62161 1.35212C9.45435 1.24233 9.37109 1.04338 9.37109 0.75601C9.37109 0.468638 9.45435 0.266004 9.62161 0.159897C9.78887 0.0530533 9.99139 0 10.2284 0ZM11.0137 2.22308V7.89758H9.43785V2.22308H11.0137Z" class="logo-accent"/>
<path d="M18.7239 2.11621C19.378 2.11621 19.8738 2.28127 20.209 2.61138C20.5451 2.94148 20.7131 3.46981 20.7131 4.19782V7.89755H19.132V4.58319C19.132 4.17719 19.0615 3.87066 18.9204 3.66434C18.7794 3.45802 18.5604 3.35486 18.2641 3.35486C17.8471 3.35486 17.5508 3.50149 17.3753 3.79402C17.1998 4.08655 17.1121 4.50508 17.1121 5.05035V7.89755H15.5362V4.58319C15.5362 4.31277 15.5054 4.08582 15.4432 3.90308C15.3809 3.72034 15.2864 3.58328 15.1589 3.49191C15.0314 3.40054 14.8679 3.35486 14.6684 3.35486C14.3759 3.35486 14.1456 3.42707 13.9783 3.57076C13.8111 3.71444 13.6926 3.92592 13.6221 4.20519C13.5515 4.48445 13.5163 4.82488 13.5163 5.22794V7.89755H11.9404V2.22305H13.1443L13.3558 2.94885H13.4435C13.5605 2.75285 13.7076 2.59369 13.8853 2.47211C14.0623 2.35053 14.2581 2.26063 14.4719 2.20316C14.6856 2.14569 14.9024 2.11695 15.1229 2.11695C15.5467 2.11695 15.906 2.18474 16.2 2.32032C16.4948 2.4559 16.7213 2.66517 16.8795 2.94959H17.0191C17.1916 2.65853 17.4346 2.44706 17.7504 2.31516C18.0654 2.18326 18.3902 2.11695 18.7239 2.11695V2.11621Z" class="logo-accent"/>
<path d="M23.1845 0V1.83771C23.1845 2.05066 23.1785 2.26213 23.1665 2.47214C23.1545 2.68214 23.1395 2.84425 23.1222 2.9592H23.1845C23.336 2.72561 23.543 2.52666 23.8048 2.36308C24.0666 2.19877 24.4056 2.11698 24.8226 2.11698C25.4699 2.11698 25.9957 2.36603 26.3985 2.86341C26.8013 3.36078 27.003 4.09026 27.003 5.05112C27.003 5.69734 26.91 6.23966 26.724 6.67809C26.538 7.11651 26.2777 7.44662 25.9439 7.66768C25.6102 7.88947 25.2224 8 24.7814 8C24.3403 8 24.0238 7.92558 23.7793 7.77673C23.5348 7.62789 23.3368 7.46062 23.1852 7.2742H23.0765L22.8132 7.89831H21.6094V0H23.1852H23.1845ZM24.3156 3.35489C24.0403 3.35489 23.8213 3.41089 23.6593 3.52215C23.4973 3.63415 23.3795 3.80142 23.3053 4.02468C23.231 4.24795 23.1905 4.5309 23.1837 4.87206V5.03933C23.1837 5.59123 23.2662 6.01345 23.432 6.30598C23.597 6.59851 23.8985 6.74514 24.3358 6.74514C24.6599 6.74514 24.9171 6.59777 25.1084 6.30377C25.2997 6.00903 25.3949 5.5846 25.3949 5.02975C25.3949 4.4749 25.2981 4.05711 25.1054 3.77563C24.9126 3.49489 24.6486 3.35415 24.3148 3.35415L24.3156 3.35489Z" class="logo-accent"/>
<path d="M29.2272 7.89758H27.6514V0H29.2272V7.89758Z" class="logo-accent"/>
<path d="M32.5881 2.11621C33.1222 2.11621 33.582 2.21716 33.9675 2.41832C34.353 2.61948 34.6508 2.91127 34.8616 3.2937C35.0716 3.67613 35.1766 4.14329 35.1766 4.69446V5.44531H31.4518C31.4691 5.88226 31.6026 6.22416 31.8523 6.47322C32.1021 6.72153 32.4494 6.84606 32.8934 6.84606C33.2617 6.84606 33.5992 6.80922 33.906 6.7348C34.2128 6.66038 34.5278 6.54837 34.8518 6.39953V7.59765C34.566 7.73618 34.2668 7.83786 33.9555 7.90197C33.6435 7.96608 33.2654 7.9985 32.8214 7.9985C32.2431 7.9985 31.7301 7.89387 31.2845 7.68386C30.8383 7.47386 30.4887 7.15407 30.236 6.72448C29.9825 6.2949 29.8564 5.75331 29.8564 5.10046C29.8564 4.44761 29.9712 3.88466 30.2 3.44328C30.4287 3.00191 30.7483 2.67032 31.1585 2.44853C31.5681 2.22674 32.0451 2.11621 32.5896 2.11621H32.5881ZM32.5986 3.2178C32.2919 3.2178 32.0384 3.31433 31.8366 3.50739C31.6348 3.69971 31.5186 4.00329 31.4878 4.41593H33.699C33.6952 4.18603 33.6532 3.98118 33.5722 3.80139C33.4912 3.62234 33.3705 3.48012 33.2107 3.37475C33.0502 3.27012 32.8462 3.2178 32.5986 3.2178Z" class="logo-accent"/>
<path d="M35.5782 7.23467C35.5737 6.85298 35.8849 6.53982 36.2735 6.53613C36.2787 6.53613 36.284 6.53613 36.2892 6.53613C36.6823 6.53613 37.0003 6.8493 37.0003 7.23467C37.0003 7.62078 36.6815 7.9332 36.2892 7.9332C35.8962 7.9332 35.5782 7.62004 35.5782 7.23467ZM36.8713 7.23467C36.8653 6.91782 36.5997 6.66508 36.2772 6.67098C35.9547 6.67687 35.6974 6.93772 35.7034 7.25456C35.7087 7.56846 35.9705 7.81973 36.29 7.81825C36.611 7.81825 36.872 7.56257 36.872 7.24646C36.872 7.24204 36.872 7.23835 36.872 7.23393L36.8713 7.23467ZM36.0132 6.83677H36.3042C36.488 6.83677 36.5952 6.91487 36.5952 7.07109C36.6042 7.16983 36.5405 7.2612 36.443 7.28772L36.611 7.60162H36.4482L36.2915 7.30909H36.1685V7.60162H36.0125V6.83677H36.0132ZM36.2952 7.19193C36.3905 7.19193 36.443 7.16172 36.443 7.07993C36.443 6.99814 36.3905 6.96793 36.2915 6.96793H36.1685V7.19119H36.2945L36.2952 7.19193Z" class="logo-accent"/>
<path d="M9.10547 21.502C9.10547 22.2637 8.91797 22.9199 8.54297 23.4707C8.17383 24.0215 7.64062 24.4434 6.94336 24.7363C6.25195 25.0293 5.42578 25.1758 4.46484 25.1758C3.99609 25.1758 3.54785 25.1494 3.12012 25.0967C2.69238 25.0439 2.28809 24.9678 1.90723 24.8682C1.53223 24.7627 1.18945 24.6367 0.878906 24.4902V22.5039C1.40039 22.7324 1.9834 22.9404 2.62793 23.1279C3.27246 23.3096 3.92871 23.4004 4.59668 23.4004C5.1416 23.4004 5.59277 23.3301 5.9502 23.1895C6.31348 23.043 6.58301 22.8379 6.75879 22.5742C6.93457 22.3047 7.02246 21.9912 7.02246 21.6338C7.02246 21.2529 6.91992 20.9307 6.71484 20.667C6.50977 20.4033 6.19922 20.1631 5.7832 19.9463C5.37305 19.7236 4.85742 19.4863 4.23633 19.2344C3.81445 19.0645 3.41016 18.8711 3.02344 18.6543C2.64258 18.4375 2.30273 18.1826 2.00391 17.8896C1.70508 17.5967 1.46777 17.251 1.29199 16.8525C1.12207 16.4482 1.03711 15.9736 1.03711 15.4287C1.03711 14.7021 1.20996 14.0811 1.55566 13.5654C1.90723 13.0498 2.39941 12.6543 3.03223 12.3789C3.6709 12.1035 4.41504 11.9658 5.26465 11.9658C5.93848 11.9658 6.57129 12.0361 7.16309 12.1768C7.76074 12.3174 8.34668 12.5166 8.9209 12.7744L8.25293 14.4707C7.72559 14.2539 7.21289 14.0811 6.71484 13.9521C6.22266 13.8232 5.71875 13.7588 5.20312 13.7588C4.75781 13.7588 4.37988 13.8262 4.06934 13.9609C3.75879 14.0957 3.52148 14.2861 3.35742 14.5322C3.19922 14.7725 3.12012 15.0596 3.12012 15.3936C3.12012 15.7686 3.21094 16.085 3.39258 16.3428C3.58008 16.5947 3.86719 16.8262 4.25391 17.0371C4.64648 17.248 5.15039 17.4824 5.76562 17.7402C6.47461 18.0332 7.0752 18.3408 7.56738 18.6631C8.06543 18.9854 8.44629 19.3721 8.70996 19.8232C8.97363 20.2686 9.10547 20.8281 9.10547 21.502ZM9.00527 15.2705H11.2553L13.2504 20.8252C13.3383 21.0771 13.4174 21.3262 13.4877 21.5723C13.5639 21.8125 13.6283 22.0498 13.6811 22.2842C13.7396 22.5186 13.7865 22.7529 13.8217 22.9873H13.8744C13.933 22.6826 14.015 22.3428 14.1205 21.9678C14.2318 21.5869 14.3549 21.2061 14.4896 20.8252L16.4057 15.2705H18.6293L14.4545 26.3359C14.2143 26.9688 13.9184 27.5078 13.5668 27.9531C13.2211 28.4043 12.8109 28.7441 12.3363 28.9727C11.8617 29.207 11.3197 29.3242 10.7104 29.3242C10.4174 29.3242 10.1625 29.3066 9.9457 29.2715C9.72891 29.2422 9.54434 29.21 9.39199 29.1748V27.5225C9.51504 27.5518 9.67031 27.5781 9.85781 27.6016C10.0453 27.625 10.2387 27.6367 10.4379 27.6367C10.807 27.6367 11.1264 27.5635 11.3959 27.417C11.6654 27.2705 11.8939 27.0625 12.0814 26.793C12.2689 26.5293 12.4242 26.2275 12.5473 25.8877L12.89 24.9736L9.00527 15.2705ZM25.7449 22.2227C25.7449 22.8613 25.5896 23.4004 25.2791 23.8398C24.9686 24.2793 24.5145 24.6133 23.9168 24.8418C23.325 25.0645 22.5984 25.1758 21.7371 25.1758C21.0574 25.1758 20.4715 25.126 19.9793 25.0264C19.493 24.9326 19.033 24.7861 18.5994 24.5869V22.8027C19.0623 23.0195 19.5809 23.207 20.1551 23.3652C20.7352 23.5234 21.283 23.6025 21.7986 23.6025C22.4783 23.6025 22.9676 23.4971 23.2664 23.2861C23.5652 23.0693 23.7146 22.7822 23.7146 22.4248C23.7146 22.2139 23.6531 22.0264 23.5301 21.8623C23.4129 21.6924 23.1902 21.5195 22.8621 21.3438C22.5398 21.1621 22.0652 20.9453 21.4383 20.6934C20.823 20.4473 20.3045 20.2012 19.8826 19.9551C19.4607 19.709 19.1414 19.4131 18.9246 19.0674C18.7078 18.7158 18.5994 18.2676 18.5994 17.7227C18.5994 16.8613 18.9393 16.208 19.6189 15.7627C20.3045 15.3115 21.2098 15.0859 22.3348 15.0859C22.9324 15.0859 23.4949 15.1475 24.0223 15.2705C24.5555 15.3877 25.077 15.5605 25.5867 15.7891L24.9363 17.3447C24.4969 17.1514 24.0545 16.9932 23.6092 16.8701C23.1697 16.7412 22.7215 16.6768 22.2645 16.6768C21.7313 16.6768 21.324 16.7588 21.0428 16.9229C20.7674 17.0869 20.6297 17.3213 20.6297 17.626C20.6297 17.8545 20.6971 18.0479 20.8318 18.2061C20.9666 18.3643 21.198 18.5225 21.5262 18.6807C21.8602 18.8389 22.323 19.0352 22.9148 19.2695C23.4949 19.4922 23.9959 19.7266 24.4178 19.9727C24.8455 20.2129 25.1736 20.5088 25.4021 20.8604C25.6307 21.2119 25.7449 21.666 25.7449 22.2227ZM38.6965 18.5576C38.6965 19.5596 38.5676 20.4736 38.3098 21.2998C38.052 22.126 37.6652 22.832 37.1496 23.418C36.634 24.0039 35.9836 24.4463 35.1984 24.7451L38.257 28.0586H35.4445L33.0275 25.167C32.9689 25.167 32.9104 25.167 32.8518 25.167C32.799 25.1729 32.7463 25.1758 32.6936 25.1758C31.6682 25.1758 30.7775 25.0176 30.0217 24.7012C29.2717 24.3848 28.6477 23.9336 28.1496 23.3477C27.6574 22.7617 27.2883 22.0615 27.0422 21.2471C26.7961 20.4326 26.673 19.5303 26.673 18.54C26.673 17.2158 26.8898 16.0615 27.3234 15.0771C27.7629 14.0869 28.4279 13.3193 29.3186 12.7744C30.215 12.2236 31.3459 11.9482 32.7111 11.9482C34.0471 11.9482 35.1574 12.2207 36.0422 12.7656C36.927 13.3105 37.5891 14.0781 38.0285 15.0684C38.4738 16.0527 38.6965 17.2158 38.6965 18.5576ZM28.8879 18.5576C28.8879 19.5479 29.0227 20.4062 29.2922 21.1328C29.5617 21.8535 29.9748 22.4102 30.5314 22.8027C31.0939 23.1895 31.8146 23.3828 32.6936 23.3828C33.5783 23.3828 34.299 23.1895 34.8557 22.8027C35.4123 22.4102 35.8225 21.8535 36.0861 21.1328C36.3498 20.4062 36.4816 19.5479 36.4816 18.5576C36.4816 17.0518 36.1799 15.874 35.5764 15.0244C34.9787 14.1689 34.0236 13.7412 32.7111 13.7412C31.8322 13.7412 31.1086 13.9346 30.5402 14.3213C29.9777 14.708 29.5617 15.2617 29.2922 15.9824C29.0227 16.6973 28.8879 17.5557 28.8879 18.5576ZM48.8268 15.2705V25H47.2008L46.9195 23.6904H46.8053C46.6002 24.0244 46.3395 24.3027 46.023 24.5254C45.7066 24.7422 45.3551 24.9033 44.9684 25.0088C44.5816 25.1201 44.1744 25.1758 43.7467 25.1758C43.0143 25.1758 42.3873 25.0527 41.8658 24.8066C41.3502 24.5547 40.9547 24.168 40.6793 23.6465C40.4039 23.125 40.2662 22.4512 40.2662 21.625V15.2705H42.3404V21.2383C42.3404 21.9941 42.4928 22.5596 42.7975 22.9346C43.108 23.3096 43.5885 23.4971 44.2389 23.4971C44.8658 23.4971 45.3639 23.3682 45.733 23.1104C46.1021 22.8525 46.3629 22.4717 46.5152 21.9678C46.6734 21.4639 46.7525 20.8457 46.7525 20.1133V15.2705H48.8268ZM54.7646 15.0859C55.6318 15.0859 56.376 15.2646 56.9971 15.6221C57.6182 15.9795 58.0957 16.4863 58.4297 17.1426C58.7637 17.7988 58.9307 18.584 58.9307 19.498V20.6055H52.4355C52.459 21.5488 52.7109 22.2754 53.1914 22.7852C53.6777 23.2949 54.3574 23.5498 55.2305 23.5498C55.8516 23.5498 56.4082 23.4912 56.9004 23.374C57.3984 23.251 57.9111 23.0723 58.4385 22.8379V24.5166C57.9521 24.7451 57.457 24.9121 56.9531 25.0176C56.4492 25.123 55.8457 25.1758 55.1426 25.1758C54.1875 25.1758 53.3467 24.9912 52.6201 24.6221C51.8994 24.2471 51.334 23.6904 50.9238 22.9521C50.5195 22.2139 50.3174 21.2969 50.3174 20.2012C50.3174 19.1113 50.502 18.1855 50.8711 17.4238C51.2402 16.6621 51.7588 16.082 52.4268 15.6836C53.0947 15.2852 53.874 15.0859 54.7646 15.0859ZM54.7646 16.6416C54.1143 16.6416 53.5869 16.8525 53.1826 17.2744C52.7842 17.6963 52.5498 18.3145 52.4795 19.1289H56.9092C56.9033 18.6426 56.8213 18.2119 56.6631 17.8369C56.5107 17.4619 56.2764 17.1689 55.96 16.958C55.6494 16.7471 55.251 16.6416 54.7646 16.6416Z" class="logo-text"/>
</svg>
