<svg width="123" height="30" viewBox="0 0 123 30" fill="none" xmlns="http://www.w3.org/2000/svg">
<path d="M3.65277 7.8974H2.0514V1.78668H0V0.476562H5.70418V1.78595H3.65277V7.89666V7.8974Z" class="logo-accent"/>
<path d="M8.56749 2.11597C8.647 2.11597 8.7385 2.12039 8.84426 2.1285C8.94927 2.13734 9.03478 2.14766 9.10003 2.16166L8.98152 3.61325C8.92977 3.59631 8.85626 3.58378 8.76175 3.57494C8.66725 3.56683 8.58549 3.56241 8.51648 3.56241C8.31322 3.56241 8.11596 3.5882 7.92469 3.63831C7.73343 3.68915 7.56241 3.77094 7.4109 3.88442C7.25939 3.99789 7.13938 4.14673 7.05163 4.33095C6.96387 4.51516 6.91962 4.74137 6.91962 5.00885V7.89657H5.34375V2.22281H6.53709L6.76961 3.17704H6.84686C6.96087 2.98398 7.10263 2.80714 7.27289 2.6465C7.44316 2.48587 7.63817 2.35692 7.85644 2.26039C8.07545 2.16387 8.31172 2.11523 8.56674 2.11523L8.56749 2.11597Z" class="logo-accent"/>
<path d="M10.2284 0C10.4624 0 10.6642 0.0530533 10.833 0.159897C11.0017 0.26674 11.0865 0.464954 11.0865 0.75601C11.0865 1.04707 11.0017 1.24233 10.833 1.35212C10.6642 1.46191 10.4624 1.51718 10.2284 1.51718C9.99439 1.51718 9.78812 1.46191 9.62161 1.35212C9.45435 1.24233 9.37109 1.04338 9.37109 0.75601C9.37109 0.468638 9.45435 0.266004 9.62161 0.159897C9.78887 0.0530533 9.99139 0 10.2284 0ZM11.0137 2.22308V7.89758H9.43785V2.22308H11.0137Z" class="logo-accent"/>
<path d="M18.7239 2.11621C19.378 2.11621 19.8738 2.28127 20.209 2.61138C20.5451 2.94148 20.7131 3.46981 20.7131 4.19782V7.89755H19.132V4.58319C19.132 4.17719 19.0615 3.87066 18.9204 3.66434C18.7794 3.45802 18.5604 3.35486 18.2641 3.35486C17.8471 3.35486 17.5508 3.50149 17.3753 3.79402C17.1998 4.08655 17.1121 4.50508 17.1121 5.05035V7.89755H15.5362V4.58319C15.5362 4.31277 15.5054 4.08582 15.4432 3.90308C15.3809 3.72034 15.2864 3.58328 15.1589 3.49191C15.0314 3.40054 14.8679 3.35486 14.6684 3.35486C14.3759 3.35486 14.1456 3.42707 13.9783 3.57076C13.8111 3.71444 13.6926 3.92592 13.6221 4.20519C13.5515 4.48445 13.5163 4.82488 13.5163 5.22794V7.89755H11.9404V2.22305H13.1443L13.3558 2.94885H13.4435C13.5605 2.75285 13.7076 2.59369 13.8853 2.47211C14.0623 2.35053 14.2581 2.26063 14.4719 2.20316C14.6856 2.14569 14.9024 2.11695 15.1229 2.11695C15.5467 2.11695 15.906 2.18474 16.2 2.32032C16.4948 2.4559 16.7213 2.66517 16.8795 2.94959H17.0191C17.1916 2.65853 17.4346 2.44706 17.7504 2.31516C18.0654 2.18326 18.3902 2.11695 18.7239 2.11695V2.11621Z" class="logo-accent"/>
<path d="M23.1845 0V1.83771C23.1845 2.05066 23.1785 2.26213 23.1665 2.47214C23.1545 2.68214 23.1395 2.84425 23.1222 2.9592H23.1845C23.336 2.72561 23.543 2.52666 23.8048 2.36308C24.0666 2.19877 24.4056 2.11698 24.8226 2.11698C25.4699 2.11698 25.9957 2.36603 26.3985 2.86341C26.8013 3.36078 27.003 4.09026 27.003 5.05112C27.003 5.69734 26.91 6.23966 26.724 6.67809C26.538 7.11651 26.2777 7.44662 25.9439 7.66768C25.6102 7.88947 25.2224 8 24.7814 8C24.3403 8 24.0238 7.92558 23.7793 7.77673C23.5348 7.62789 23.3368 7.46062 23.1852 7.2742H23.0765L22.8132 7.89831H21.6094V0H23.1852H23.1845ZM24.3156 3.35489C24.0403 3.35489 23.8213 3.41089 23.6593 3.52215C23.4973 3.63415 23.3795 3.80142 23.3053 4.02468C23.231 4.24795 23.1905 4.5309 23.1837 4.87206V5.03933C23.1837 5.59123 23.2662 6.01345 23.432 6.30598C23.597 6.59851 23.8985 6.74514 24.3358 6.74514C24.6599 6.74514 24.9171 6.59777 25.1084 6.30377C25.2997 6.00903 25.3949 5.5846 25.3949 5.02975C25.3949 4.4749 25.2981 4.05711 25.1054 3.77563C24.9126 3.49489 24.6486 3.35415 24.3148 3.35415L24.3156 3.35489Z" class="logo-accent"/>
<path d="M29.2272 7.89758H27.6514V0H29.2272V7.89758Z" class="logo-accent"/>
<path d="M32.5881 2.11621C33.1222 2.11621 33.582 2.21716 33.9675 2.41832C34.353 2.61948 34.6508 2.91127 34.8616 3.2937C35.0716 3.67613 35.1766 4.14329 35.1766 4.69446V5.44531H31.4518C31.4691 5.88226 31.6026 6.22416 31.8523 6.47322C32.1021 6.72153 32.4494 6.84606 32.8934 6.84606C33.2617 6.84606 33.5992 6.80922 33.906 6.7348C34.2128 6.66038 34.5278 6.54837 34.8518 6.39953V7.59765C34.566 7.73618 34.2668 7.83786 33.9555 7.90197C33.6435 7.96608 33.2654 7.9985 32.8214 7.9985C32.2431 7.9985 31.7301 7.89387 31.2845 7.68386C30.8383 7.47386 30.4887 7.15407 30.236 6.72448C29.9825 6.2949 29.8564 5.75331 29.8564 5.10046C29.8564 4.44761 29.9712 3.88466 30.2 3.44328C30.4287 3.00191 30.7483 2.67032 31.1585 2.44853C31.5681 2.22674 32.0451 2.11621 32.5896 2.11621H32.5881ZM32.5986 3.2178C32.2919 3.2178 32.0384 3.31433 31.8366 3.50739C31.6348 3.69971 31.5186 4.00329 31.4878 4.41593H33.699C33.6952 4.18603 33.6532 3.98118 33.5722 3.80139C33.4912 3.62234 33.3705 3.48012 33.2107 3.37475C33.0502 3.27012 32.8462 3.2178 32.5986 3.2178Z" class="logo-accent"/>
<path d="M35.5782 7.23467C35.5737 6.85298 35.8849 6.53982 36.2735 6.53613C36.2787 6.53613 36.284 6.53613 36.2892 6.53613C36.6823 6.53613 37.0003 6.8493 37.0003 7.23467C37.0003 7.62078 36.6815 7.9332 36.2892 7.9332C35.8962 7.9332 35.5782 7.62004 35.5782 7.23467ZM36.8713 7.23467C36.8653 6.91782 36.5997 6.66508 36.2772 6.67098C35.9547 6.67687 35.6974 6.93772 35.7034 7.25456C35.7087 7.56846 35.9705 7.81973 36.29 7.81825C36.611 7.81825 36.872 7.56257 36.872 7.24646C36.872 7.24204 36.872 7.23835 36.872 7.23393L36.8713 7.23467ZM36.0132 6.83677H36.3042C36.488 6.83677 36.5952 6.91487 36.5952 7.07109C36.6042 7.16983 36.5405 7.2612 36.443 7.28772L36.611 7.60162H36.4482L36.2915 7.30909H36.1685V7.60162H36.0125V6.83677H36.0132ZM36.2952 7.19193C36.3905 7.19193 36.443 7.16172 36.443 7.07993C36.443 6.99814 36.3905 6.96793 36.2915 6.96793H36.1685V7.19119H36.2945L36.2952 7.19193Z" class="logo-accent"/>
<path d="M6.14355 25H4.02539V13.9434H0.263672V12.1504H9.89648V13.9434H6.14355V25ZM14.6303 15.0859C15.4975 15.0859 16.2416 15.2646 16.8627 15.6221C17.4838 15.9795 17.9613 16.4863 18.2953 17.1426C18.6293 17.7988 18.7963 18.584 18.7963 19.498V20.6055H12.3012C12.3246 21.5488 12.5766 22.2754 13.057 22.7852C13.5434 23.2949 14.223 23.5498 15.0961 23.5498C15.7172 23.5498 16.2738 23.4912 16.766 23.374C17.2641 23.251 17.7768 23.0723 18.3041 22.8379V24.5166C17.8178 24.7451 17.3227 24.9121 16.8188 25.0176C16.3148 25.123 15.7113 25.1758 15.0082 25.1758C14.0531 25.1758 13.2123 24.9912 12.4857 24.6221C11.765 24.2471 11.1996 23.6904 10.7895 22.9521C10.3852 22.2139 10.183 21.2969 10.183 20.2012C10.183 19.1113 10.3676 18.1855 10.7367 17.4238C11.1059 16.6621 11.6244 16.082 12.2924 15.6836C12.9604 15.2852 13.7396 15.0859 14.6303 15.0859ZM14.6303 16.6416C13.9799 16.6416 13.4525 16.8525 13.0482 17.2744C12.6498 17.6963 12.4154 18.3145 12.3451 19.1289H16.7748C16.7689 18.6426 16.6869 18.2119 16.5287 17.8369C16.3764 17.4619 16.142 17.1689 15.8256 16.958C15.515 16.7471 15.1166 16.6416 14.6303 16.6416ZM22.2908 11.3242V17.9336C22.2908 18.2324 22.2791 18.5605 22.2557 18.918C22.2322 19.2695 22.2088 19.6006 22.1854 19.9111H22.2293C22.3816 19.7061 22.5633 19.4658 22.7742 19.1904C22.991 18.915 23.1961 18.6748 23.3895 18.4697L26.3602 15.2705H28.7332L24.8396 19.4541L28.9881 25H26.5623L23.451 20.7285L22.2908 21.7217V25H20.2254V11.3242H22.2908ZM31.718 25H29.6437V11.3242H31.718V25ZM37.5855 15.0859C38.816 15.0859 39.7447 15.3584 40.3717 15.9033C41.0045 16.4482 41.3209 17.2979 41.3209 18.4521V25H39.8531L39.4576 23.6201H39.3873C39.1119 23.9717 38.8277 24.2617 38.5348 24.4902C38.2418 24.7188 37.902 24.8887 37.5152 25C37.1344 25.1172 36.6686 25.1758 36.1178 25.1758C35.5377 25.1758 35.0191 25.0703 34.5621 24.8594C34.1051 24.6426 33.7447 24.3145 33.4811 23.875C33.2174 23.4355 33.0855 22.8789 33.0855 22.2051C33.0855 21.2031 33.4576 20.4502 34.2018 19.9463C34.9518 19.4424 36.0826 19.1641 37.5943 19.1113L39.2818 19.0498V18.54C39.2818 17.8662 39.1236 17.3857 38.8072 17.0986C38.4967 16.8115 38.0572 16.668 37.4889 16.668C37.0025 16.668 36.5309 16.7383 36.0738 16.8789C35.6168 17.0195 35.1715 17.1924 34.7379 17.3975L34.0699 15.9385C34.5445 15.6865 35.0836 15.4814 35.6871 15.3232C36.2965 15.165 36.9293 15.0859 37.5855 15.0859ZM39.273 20.3506L38.0162 20.3945C36.985 20.4297 36.2613 20.6055 35.8453 20.9219C35.4293 21.2383 35.2213 21.6719 35.2213 22.2227C35.2213 22.7031 35.3648 23.0547 35.652 23.2773C35.9391 23.4941 36.317 23.6025 36.7857 23.6025C37.5006 23.6025 38.0924 23.4004 38.5611 22.9961C39.0357 22.5859 39.273 21.9854 39.273 21.1943V20.3506Z" class="logo-text"/>
<path d="M55.8857 21.6865C55.8857 22.4541 55.6924 23.0986 55.3057 23.6201C54.9189 24.1357 54.3945 24.5254 53.7324 24.7891C53.0703 25.0469 52.3203 25.1758 51.4824 25.1758C50.9609 25.1758 50.4863 25.1494 50.0586 25.0967C49.6367 25.0498 49.2529 24.9854 48.9072 24.9033C48.5674 24.8213 48.2568 24.7275 47.9756 24.6221V23.7168C48.4326 23.8926 48.96 24.0479 49.5576 24.1826C50.1611 24.3115 50.8174 24.376 51.5264 24.376C52.1943 24.376 52.7861 24.2793 53.3018 24.0859C53.8232 23.8926 54.2334 23.5996 54.5322 23.207C54.8311 22.8145 54.9805 22.3193 54.9805 21.7217C54.9805 21.1943 54.8545 20.7637 54.6025 20.4297C54.3564 20.0898 53.9844 19.7998 53.4863 19.5596C52.9883 19.3135 52.3613 19.0645 51.6055 18.8125C51.0781 18.6309 50.5977 18.4404 50.1641 18.2412C49.7363 18.0361 49.3701 17.8018 49.0654 17.5381C48.7607 17.2686 48.5264 16.9463 48.3623 16.5713C48.2041 16.1904 48.125 15.7422 48.125 15.2266C48.125 14.5176 48.3037 13.9229 48.6611 13.4424C49.0244 12.9561 49.5137 12.5898 50.1289 12.3438C50.75 12.0918 51.4473 11.9658 52.2207 11.9658C52.8359 11.9658 53.4189 12.0244 53.9697 12.1416C54.5264 12.2529 55.0625 12.4229 55.5781 12.6514L55.2617 13.4336C54.7461 13.2109 54.2305 13.0469 53.7148 12.9414C53.1992 12.8359 52.6895 12.7832 52.1855 12.7832C51.582 12.7832 51.043 12.874 50.5684 13.0557C50.0996 13.2314 49.7275 13.498 49.4521 13.8555C49.1768 14.2129 49.0391 14.6641 49.0391 15.209C49.0391 15.7715 49.165 16.2256 49.417 16.5713C49.6748 16.917 50.0381 17.2041 50.5068 17.4326C50.9814 17.6611 51.541 17.8838 52.1855 18.1006C52.9473 18.3584 53.6035 18.6309 54.1543 18.918C54.7051 19.1992 55.1299 19.5566 55.4287 19.9902C55.7334 20.4238 55.8857 20.9893 55.8857 21.6865ZM60.0922 24.4111C60.3676 24.4111 60.6225 24.3906 60.8568 24.3496C61.0971 24.3086 61.308 24.2559 61.4896 24.1914V24.9297C61.3021 24.9941 61.0824 25.0498 60.8305 25.0967C60.5785 25.1494 60.3002 25.1758 59.9955 25.1758C59.4564 25.1758 59.0082 25.0762 58.6508 24.877C58.2934 24.6719 58.0238 24.3643 57.8422 23.9541C57.6605 23.5381 57.5697 23.0107 57.5697 22.3721V16.1846H56.1459V15.6572L57.5609 15.3848L57.8686 13.1348H58.4574V15.4463H61.4369V16.1846H58.4574V22.3193C58.4574 23.0049 58.5834 23.5264 58.8354 23.8838C59.0932 24.2354 59.5121 24.4111 60.0922 24.4111ZM66.4432 15.2793C66.6951 15.2793 66.9324 15.2939 67.1551 15.3232C67.3777 15.3525 67.5857 15.3936 67.7791 15.4463L67.6385 16.2637C67.4451 16.2109 67.2488 16.1729 67.0496 16.1494C66.8504 16.1201 66.6365 16.1055 66.408 16.1055C65.9568 16.1055 65.5525 16.1904 65.1951 16.3604C64.8436 16.5303 64.5447 16.7734 64.2986 17.0898C64.0525 17.4062 63.865 17.7871 63.7361 18.2324C63.6072 18.6777 63.5428 19.1758 63.5428 19.7266V25H62.6463V15.4463H63.4109L63.4988 17.248H63.5516C63.698 16.8789 63.9031 16.5479 64.1668 16.2549C64.4363 15.9561 64.7615 15.7188 65.1424 15.543C65.5232 15.3672 65.9568 15.2793 66.4432 15.2793ZM76.1779 15.4463V25H75.4572L75.3254 23.2773H75.2727C75.1086 23.6289 74.8771 23.9482 74.5783 24.2354C74.2795 24.5225 73.9133 24.751 73.4797 24.9209C73.0461 25.0908 72.5422 25.1758 71.968 25.1758C71.2355 25.1758 70.6203 25.0498 70.1223 24.7979C69.6301 24.54 69.258 24.1533 69.0061 23.6377C68.7541 23.1221 68.6281 22.4775 68.6281 21.7041V15.4463H69.5158V21.6162C69.5158 22.5713 69.7297 23.2744 70.1574 23.7256C70.591 24.1768 71.2238 24.4023 72.0559 24.4023C72.759 24.4023 73.3479 24.2676 73.8225 23.998C74.3029 23.7285 74.6662 23.3213 74.9123 22.7764C75.1643 22.2256 75.2902 21.54 75.2902 20.7197V15.4463H76.1779ZM82.318 25.1758C81.3687 25.1758 80.566 24.9795 79.9098 24.5869C79.2594 24.1885 78.7672 23.623 78.4332 22.8906C78.1051 22.1523 77.941 21.2793 77.941 20.2715C77.941 19.2227 78.1314 18.3262 78.5123 17.582C78.8932 16.832 79.4293 16.2578 80.1207 15.8594C80.8121 15.4609 81.6236 15.2617 82.5553 15.2617C83.0123 15.2617 83.4371 15.3027 83.8297 15.3848C84.2223 15.4668 84.5768 15.5811 84.8932 15.7275L84.6559 16.5098C84.3277 16.3633 83.9791 16.252 83.61 16.1758C83.2408 16.0996 82.8863 16.0615 82.5465 16.0615C81.7613 16.0615 81.0934 16.2344 80.5426 16.5801C79.9977 16.9199 79.5787 17.4062 79.2857 18.0391C78.9986 18.666 78.8551 19.4072 78.8551 20.2627C78.8551 21.0654 78.9781 21.7773 79.2242 22.3984C79.4703 23.0137 79.8482 23.5 80.358 23.8574C80.8678 24.209 81.5211 24.3848 82.318 24.3848C82.7809 24.3848 83.2203 24.3379 83.6363 24.2441C84.0582 24.1504 84.442 24.0303 84.7877 23.8838V24.6924C84.4771 24.833 84.1168 24.9473 83.7066 25.0352C83.3023 25.1289 82.8395 25.1758 82.318 25.1758ZM88.7305 24.4111C89.0059 24.4111 89.2607 24.3906 89.4951 24.3496C89.7354 24.3086 89.9463 24.2559 90.1279 24.1914V24.9297C89.9404 24.9941 89.7207 25.0498 89.4688 25.0967C89.2168 25.1494 88.9385 25.1758 88.6338 25.1758C88.0947 25.1758 87.6465 25.0762 87.2891 24.877C86.9316 24.6719 86.6621 24.3643 86.4805 23.9541C86.2988 23.5381 86.208 23.0107 86.208 22.3721V16.1846H84.7842V15.6572L86.1992 15.3848L86.5068 13.1348H87.0957V15.4463H90.0752V16.1846H87.0957V22.3193C87.0957 23.0049 87.2217 23.5264 87.4736 23.8838C87.7314 24.2354 88.1504 24.4111 88.7305 24.4111ZM98.7025 15.4463V25H97.9818L97.85 23.2773H97.7973C97.6332 23.6289 97.4018 23.9482 97.1029 24.2354C96.8041 24.5225 96.4379 24.751 96.0043 24.9209C95.5707 25.0908 95.0668 25.1758 94.4926 25.1758C93.7602 25.1758 93.1449 25.0498 92.6469 24.7979C92.1547 24.54 91.7826 24.1533 91.5307 23.6377C91.2787 23.1221 91.1527 22.4775 91.1527 21.7041V15.4463H92.0404V21.6162C92.0404 22.5713 92.2543 23.2744 92.682 23.7256C93.1156 24.1768 93.7484 24.4023 94.5805 24.4023C95.2836 24.4023 95.8725 24.2676 96.3471 23.998C96.8275 23.7285 97.1908 23.3213 97.4369 22.7764C97.6889 22.2256 97.8148 21.54 97.8148 20.7197V15.4463H98.7025ZM104.816 15.2793C105.068 15.2793 105.305 15.2939 105.528 15.3232C105.751 15.3525 105.959 15.3936 106.152 15.4463L106.012 16.2637C105.818 16.2109 105.622 16.1729 105.423 16.1494C105.223 16.1201 105.01 16.1055 104.781 16.1055C104.33 16.1055 103.926 16.1904 103.568 16.3604C103.217 16.5303 102.918 16.7734 102.672 17.0898C102.426 17.4062 102.238 17.7871 102.109 18.2324C101.98 18.6777 101.916 19.1758 101.916 19.7266V25H101.019V15.4463H101.784L101.872 17.248H101.925C102.071 16.8789 102.276 16.5479 102.54 16.2549C102.809 15.9561 103.135 15.7188 103.515 15.543C103.896 15.3672 104.33 15.2793 104.816 15.2793ZM110.745 15.2617C111.56 15.2617 112.237 15.4521 112.776 15.833C113.321 16.2139 113.725 16.7354 113.988 17.3975C114.258 18.0596 114.393 18.8184 114.393 19.6738V20.3154H107.493C107.493 21.6279 107.795 22.6357 108.399 23.3389C109.008 24.042 109.878 24.3936 111.009 24.3936C111.601 24.3936 112.113 24.3467 112.547 24.2529C112.987 24.1533 113.473 23.9863 114.006 23.752V24.5693C113.537 24.7803 113.069 24.9326 112.6 25.0264C112.131 25.126 111.592 25.1758 110.983 25.1758C110.016 25.1758 109.204 24.9766 108.548 24.5781C107.898 24.1738 107.405 23.6055 107.071 22.873C106.743 22.1406 106.579 21.2852 106.579 20.3066C106.579 19.3516 106.737 18.4932 107.054 17.7314C107.376 16.9697 107.845 16.3691 108.46 15.9297C109.081 15.4844 109.843 15.2617 110.745 15.2617ZM110.737 16.0264C109.822 16.0264 109.081 16.3311 108.513 16.9404C107.95 17.5439 107.619 18.417 107.52 19.5596H113.47C113.47 18.8623 113.37 18.2471 113.171 17.7139C112.972 17.1807 112.67 16.7676 112.266 16.4746C111.867 16.1758 111.358 16.0264 110.737 16.0264ZM122.097 22.4951C122.097 23.0635 121.954 23.5498 121.667 23.9541C121.385 24.3525 120.972 24.6572 120.427 24.8682C119.882 25.0732 119.212 25.1758 118.415 25.1758C117.753 25.1758 117.161 25.1172 116.639 25C116.118 24.8828 115.681 24.7393 115.33 24.5693V23.6904C115.769 23.9072 116.255 24.083 116.789 24.2178C117.322 24.3525 117.87 24.4199 118.432 24.4199C119.417 24.4199 120.126 24.2529 120.559 23.9189C120.993 23.585 121.21 23.1279 121.21 22.5479C121.21 22.167 121.101 21.8535 120.884 21.6074C120.673 21.3555 120.369 21.1387 119.97 20.957C119.572 20.7754 119.091 20.5908 118.529 20.4033C117.943 20.2041 117.421 20.0078 116.964 19.8145C116.513 19.6152 116.159 19.3545 115.901 19.0322C115.643 18.7041 115.514 18.2588 115.514 17.6963C115.514 16.9287 115.822 16.3311 116.437 15.9033C117.052 15.4756 117.879 15.2617 118.916 15.2617C119.49 15.2617 120.023 15.3174 120.515 15.4287C121.013 15.5342 121.464 15.6719 121.869 15.8418L121.552 16.5977C121.189 16.4277 120.77 16.29 120.296 16.1846C119.821 16.0791 119.346 16.0264 118.872 16.0264C118.092 16.0264 117.483 16.1641 117.044 16.4395C116.604 16.7148 116.384 17.1191 116.384 17.6523C116.384 18.0625 116.49 18.3848 116.701 18.6191C116.912 18.8477 117.213 19.041 117.606 19.1992C117.999 19.3516 118.464 19.5215 119.004 19.709C119.56 19.9023 120.073 20.1045 120.542 20.3154C121.016 20.5264 121.394 20.7988 121.675 21.1328C121.957 21.4668 122.097 21.9209 122.097 22.4951Z" class="logo-text"/>
</svg>
