<svg width="37" height="30" viewBox="0 0 37 30" fill="none" xmlns="http://www.w3.org/2000/svg">
<path d="M3.65277 7.8974H2.0514V1.78668H0V0.476562H5.70418V1.78595H3.65277V7.89666V7.8974Z" class="logo-accent"/>
<path d="M8.56749 2.11597C8.647 2.11597 8.7385 2.12039 8.84426 2.1285C8.94927 2.13734 9.03478 2.14766 9.10003 2.16166L8.98152 3.61325C8.92977 3.59631 8.85626 3.58378 8.76175 3.57494C8.66725 3.56683 8.58549 3.56241 8.51648 3.56241C8.31322 3.56241 8.11596 3.5882 7.92469 3.63831C7.73343 3.68915 7.56241 3.77094 7.4109 3.88442C7.25939 3.99789 7.13938 4.14673 7.05163 4.33095C6.96387 4.51516 6.91962 4.74137 6.91962 5.00885V7.89657H5.34375V2.22281H6.53709L6.76961 3.17704H6.84686C6.96087 2.98398 7.10263 2.80714 7.27289 2.6465C7.44316 2.48587 7.63817 2.35692 7.85644 2.26039C8.07545 2.16387 8.31172 2.11523 8.56674 2.11523L8.56749 2.11597Z" class="logo-accent"/>
<path d="M10.2284 0C10.4624 0 10.6642 0.0530533 10.833 0.159897C11.0017 0.26674 11.0865 0.464954 11.0865 0.75601C11.0865 1.04707 11.0017 1.24233 10.833 1.35212C10.6642 1.46191 10.4624 1.51718 10.2284 1.51718C9.99439 1.51718 9.78812 1.46191 9.62161 1.35212C9.45435 1.24233 9.37109 1.04338 9.37109 0.75601C9.37109 0.468638 9.45435 0.266004 9.62161 0.159897C9.78887 0.0530533 9.99139 0 10.2284 0ZM11.0137 2.22308V7.89758H9.43785V2.22308H11.0137Z" class="logo-accent"/>
<path d="M18.7239 2.11621C19.378 2.11621 19.8738 2.28127 20.209 2.61138C20.5451 2.94148 20.7131 3.46981 20.7131 4.19782V7.89755H19.132V4.58319C19.132 4.17719 19.0615 3.87066 18.9204 3.66434C18.7794 3.45802 18.5604 3.35486 18.2641 3.35486C17.8471 3.35486 17.5508 3.50149 17.3753 3.79402C17.1998 4.08655 17.1121 4.50508 17.1121 5.05035V7.89755H15.5362V4.58319C15.5362 4.31277 15.5054 4.08582 15.4432 3.90308C15.3809 3.72034 15.2864 3.58328 15.1589 3.49191C15.0314 3.40054 14.8679 3.35486 14.6684 3.35486C14.3759 3.35486 14.1456 3.42707 13.9783 3.57076C13.8111 3.71444 13.6926 3.92592 13.6221 4.20519C13.5515 4.48445 13.5163 4.82488 13.5163 5.22794V7.89755H11.9404V2.22305H13.1443L13.3558 2.94885H13.4435C13.5605 2.75285 13.7076 2.59369 13.8853 2.47211C14.0623 2.35053 14.2581 2.26063 14.4719 2.20316C14.6856 2.14569 14.9024 2.11695 15.1229 2.11695C15.5467 2.11695 15.906 2.18474 16.2 2.32032C16.4948 2.4559 16.7213 2.66517 16.8795 2.94959H17.0191C17.1916 2.65853 17.4346 2.44706 17.7504 2.31516C18.0654 2.18326 18.3902 2.11695 18.7239 2.11695V2.11621Z" class="logo-accent"/>
<path d="M23.1845 0V1.83771C23.1845 2.05066 23.1785 2.26213 23.1665 2.47214C23.1545 2.68214 23.1395 2.84425 23.1222 2.9592H23.1845C23.336 2.72561 23.543 2.52666 23.8048 2.36308C24.0666 2.19877 24.4056 2.11698 24.8226 2.11698C25.4699 2.11698 25.9957 2.36603 26.3985 2.86341C26.8013 3.36078 27.003 4.09026 27.003 5.05112C27.003 5.69734 26.91 6.23966 26.724 6.67809C26.538 7.11651 26.2777 7.44662 25.9439 7.66768C25.6102 7.88947 25.2224 8 24.7814 8C24.3403 8 24.0238 7.92558 23.7793 7.77673C23.5348 7.62789 23.3368 7.46062 23.1852 7.2742H23.0765L22.8132 7.89831H21.6094V0H23.1852H23.1845ZM24.3156 3.35489C24.0403 3.35489 23.8213 3.41089 23.6593 3.52215C23.4973 3.63415 23.3795 3.80142 23.3053 4.02468C23.231 4.24795 23.1905 4.5309 23.1837 4.87206V5.03933C23.1837 5.59123 23.2662 6.01345 23.432 6.30598C23.597 6.59851 23.8985 6.74514 24.3358 6.74514C24.6599 6.74514 24.9171 6.59777 25.1084 6.30377C25.2997 6.00903 25.3949 5.5846 25.3949 5.02975C25.3949 4.4749 25.2981 4.05711 25.1054 3.77563C24.9126 3.49489 24.6486 3.35415 24.3148 3.35415L24.3156 3.35489Z" class="logo-accent"/>
<path d="M29.2272 7.89758H27.6514V0H29.2272V7.89758Z" class="logo-accent"/>
<path d="M32.5881 2.11621C33.1222 2.11621 33.582 2.21716 33.9675 2.41832C34.353 2.61948 34.6508 2.91127 34.8616 3.2937C35.0716 3.67613 35.1766 4.14329 35.1766 4.69446V5.44531H31.4518C31.4691 5.88226 31.6026 6.22416 31.8523 6.47322C32.1021 6.72153 32.4494 6.84606 32.8934 6.84606C33.2617 6.84606 33.5992 6.80922 33.906 6.7348C34.2128 6.66038 34.5278 6.54837 34.8518 6.39953V7.59765C34.566 7.73618 34.2668 7.83786 33.9555 7.90197C33.6435 7.96608 33.2654 7.9985 32.8214 7.9985C32.2431 7.9985 31.7301 7.89387 31.2845 7.68386C30.8383 7.47386 30.4887 7.15407 30.236 6.72448C29.9825 6.2949 29.8564 5.75331 29.8564 5.10046C29.8564 4.44761 29.9712 3.88466 30.2 3.44328C30.4287 3.00191 30.7483 2.67032 31.1585 2.44853C31.5681 2.22674 32.0451 2.11621 32.5896 2.11621H32.5881ZM32.5986 3.2178C32.2919 3.2178 32.0384 3.31433 31.8366 3.50739C31.6348 3.69971 31.5186 4.00329 31.4878 4.41593H33.699C33.6952 4.18603 33.6532 3.98118 33.5722 3.80139C33.4912 3.62234 33.3705 3.48012 33.2107 3.37475C33.0502 3.27012 32.8462 3.2178 32.5986 3.2178Z" class="logo-accent"/>
<path d="M35.5782 7.23467C35.5737 6.85298 35.8849 6.53982 36.2735 6.53613C36.2787 6.53613 36.284 6.53613 36.2892 6.53613C36.6823 6.53613 37.0003 6.8493 37.0003 7.23467C37.0003 7.62078 36.6815 7.9332 36.2892 7.9332C35.8962 7.9332 35.5782 7.62004 35.5782 7.23467ZM36.8713 7.23467C36.8653 6.91782 36.5997 6.66508 36.2772 6.67098C35.9547 6.67687 35.6974 6.93772 35.7034 7.25456C35.7087 7.56846 35.9705 7.81973 36.29 7.81825C36.611 7.81825 36.872 7.56257 36.872 7.24646C36.872 7.24204 36.872 7.23835 36.872 7.23393L36.8713 7.23467ZM36.0132 6.83677H36.3042C36.488 6.83677 36.5952 6.91487 36.5952 7.07109C36.6042 7.16983 36.5405 7.2612 36.443 7.28772L36.611 7.60162H36.4482L36.2915 7.30909H36.1685V7.60162H36.0125V6.83677H36.0132ZM36.2952 7.19193C36.3905 7.19193 36.443 7.16172 36.443 7.07993C36.443 6.99814 36.3905 6.96793 36.2915 6.96793H36.1685V7.19119H36.2945L36.2952 7.19193Z" class="logo-accent"/>
<path d="M6.14355 25H4.02539V13.9434H0.263672V12.1504H9.89648V13.9434H6.14355V25ZM16.5111 25L12.8109 14.2686H12.7318C12.7494 14.5088 12.7699 14.8369 12.7934 15.2529C12.8168 15.6689 12.8373 16.1143 12.8549 16.5889C12.8725 17.0635 12.8813 17.5176 12.8813 17.9512V25H10.9652V12.1504H13.9271L17.4867 22.4072H17.5395L21.2221 12.1504H24.1752V25H22.1625V17.8457C22.1625 17.4531 22.1684 17.0283 22.1801 16.5713C22.1977 16.1143 22.2152 15.6807 22.2328 15.2705C22.2563 14.8604 22.2738 14.5322 22.2855 14.2861H22.2152L18.3744 25H16.5111ZM31.115 25H28.9969V13.9434H25.2352V12.1504H34.868V13.9434H31.115V25Z" class="logo-text"/>
</svg>
