<svg width="106" height="30" viewBox="0 0 106 30" fill="none" xmlns="http://www.w3.org/2000/svg">
<path d="M3.65277 7.8974H2.0514V1.78668H0V0.476562H5.70418V1.78595H3.65277V7.89666V7.8974Z" class="logo-accent"/>
<path d="M8.56749 2.11597C8.647 2.11597 8.7385 2.12039 8.84426 2.1285C8.94927 2.13734 9.03478 2.14766 9.10003 2.16166L8.98152 3.61325C8.92977 3.59631 8.85626 3.58378 8.76175 3.57494C8.66725 3.56683 8.58549 3.56241 8.51648 3.56241C8.31322 3.56241 8.11596 3.5882 7.92469 3.63831C7.73343 3.68915 7.56241 3.77094 7.4109 3.88442C7.25939 3.99789 7.13938 4.14673 7.05163 4.33095C6.96387 4.51516 6.91962 4.74137 6.91962 5.00885V7.89657H5.34375V2.22281H6.53709L6.76961 3.17704H6.84686C6.96087 2.98398 7.10263 2.80714 7.27289 2.6465C7.44316 2.48587 7.63817 2.35692 7.85644 2.26039C8.07545 2.16387 8.31172 2.11523 8.56674 2.11523L8.56749 2.11597Z" class="logo-accent"/>
<path d="M10.2284 0C10.4624 0 10.6642 0.0530533 10.833 0.159897C11.0017 0.26674 11.0865 0.464954 11.0865 0.75601C11.0865 1.04707 11.0017 1.24233 10.833 1.35212C10.6642 1.46191 10.4624 1.51718 10.2284 1.51718C9.99439 1.51718 9.78812 1.46191 9.62161 1.35212C9.45435 1.24233 9.37109 1.04338 9.37109 0.75601C9.37109 0.468638 9.45435 0.266004 9.62161 0.159897C9.78887 0.0530533 9.99139 0 10.2284 0ZM11.0137 2.22308V7.89758H9.43785V2.22308H11.0137Z" class="logo-accent"/>
<path d="M18.7239 2.11621C19.378 2.11621 19.8738 2.28127 20.209 2.61138C20.5451 2.94148 20.7131 3.46981 20.7131 4.19782V7.89755H19.132V4.58319C19.132 4.17719 19.0615 3.87066 18.9204 3.66434C18.7794 3.45802 18.5604 3.35486 18.2641 3.35486C17.8471 3.35486 17.5508 3.50149 17.3753 3.79402C17.1998 4.08655 17.1121 4.50508 17.1121 5.05035V7.89755H15.5362V4.58319C15.5362 4.31277 15.5054 4.08582 15.4432 3.90308C15.3809 3.72034 15.2864 3.58328 15.1589 3.49191C15.0314 3.40054 14.8679 3.35486 14.6684 3.35486C14.3759 3.35486 14.1456 3.42707 13.9783 3.57076C13.8111 3.71444 13.6926 3.92592 13.6221 4.20519C13.5515 4.48445 13.5163 4.82488 13.5163 5.22794V7.89755H11.9404V2.22305H13.1443L13.3558 2.94885H13.4435C13.5605 2.75285 13.7076 2.59369 13.8853 2.47211C14.0623 2.35053 14.2581 2.26063 14.4719 2.20316C14.6856 2.14569 14.9024 2.11695 15.1229 2.11695C15.5467 2.11695 15.906 2.18474 16.2 2.32032C16.4948 2.4559 16.7213 2.66517 16.8795 2.94959H17.0191C17.1916 2.65853 17.4346 2.44706 17.7504 2.31516C18.0654 2.18326 18.3902 2.11695 18.7239 2.11695V2.11621Z" class="logo-accent"/>
<path d="M23.1845 0V1.83771C23.1845 2.05066 23.1785 2.26213 23.1665 2.47214C23.1545 2.68214 23.1395 2.84425 23.1222 2.9592H23.1845C23.336 2.72561 23.543 2.52666 23.8048 2.36308C24.0666 2.19877 24.4056 2.11698 24.8226 2.11698C25.4699 2.11698 25.9957 2.36603 26.3985 2.86341C26.8013 3.36078 27.003 4.09026 27.003 5.05112C27.003 5.69734 26.91 6.23966 26.724 6.67809C26.538 7.11651 26.2777 7.44662 25.9439 7.66768C25.6102 7.88947 25.2224 8 24.7814 8C24.3403 8 24.0238 7.92558 23.7793 7.77673C23.5348 7.62789 23.3368 7.46062 23.1852 7.2742H23.0765L22.8132 7.89831H21.6094V0H23.1852H23.1845ZM24.3156 3.35489C24.0403 3.35489 23.8213 3.41089 23.6593 3.52215C23.4973 3.63415 23.3795 3.80142 23.3053 4.02468C23.231 4.24795 23.1905 4.5309 23.1837 4.87206V5.03933C23.1837 5.59123 23.2662 6.01345 23.432 6.30598C23.597 6.59851 23.8985 6.74514 24.3358 6.74514C24.6599 6.74514 24.9171 6.59777 25.1084 6.30377C25.2997 6.00903 25.3949 5.5846 25.3949 5.02975C25.3949 4.4749 25.2981 4.05711 25.1054 3.77563C24.9126 3.49489 24.6486 3.35415 24.3148 3.35415L24.3156 3.35489Z" class="logo-accent"/>
<path d="M29.2272 7.89758H27.6514V0H29.2272V7.89758Z" class="logo-accent"/>
<path d="M32.5881 2.11621C33.1222 2.11621 33.582 2.21716 33.9675 2.41832C34.353 2.61948 34.6508 2.91127 34.8616 3.2937C35.0716 3.67613 35.1766 4.14329 35.1766 4.69446V5.44531H31.4518C31.4691 5.88226 31.6026 6.22416 31.8523 6.47322C32.1021 6.72153 32.4494 6.84606 32.8934 6.84606C33.2617 6.84606 33.5992 6.80922 33.906 6.7348C34.2128 6.66038 34.5278 6.54837 34.8518 6.39953V7.59765C34.566 7.73618 34.2668 7.83786 33.9555 7.90197C33.6435 7.96608 33.2654 7.9985 32.8214 7.9985C32.2431 7.9985 31.7301 7.89387 31.2845 7.68386C30.8383 7.47386 30.4887 7.15407 30.236 6.72448C29.9825 6.2949 29.8564 5.75331 29.8564 5.10046C29.8564 4.44761 29.9712 3.88466 30.2 3.44328C30.4287 3.00191 30.7483 2.67032 31.1585 2.44853C31.5681 2.22674 32.0451 2.11621 32.5896 2.11621H32.5881ZM32.5986 3.2178C32.2919 3.2178 32.0384 3.31433 31.8366 3.50739C31.6348 3.69971 31.5186 4.00329 31.4878 4.41593H33.699C33.6952 4.18603 33.6532 3.98118 33.5722 3.80139C33.4912 3.62234 33.3705 3.48012 33.2107 3.37475C33.0502 3.27012 32.8462 3.2178 32.5986 3.2178Z" class="logo-accent"/>
<path d="M35.5782 7.23467C35.5737 6.85298 35.8849 6.53982 36.2735 6.53613C36.2787 6.53613 36.284 6.53613 36.2892 6.53613C36.6823 6.53613 37.0003 6.8493 37.0003 7.23467C37.0003 7.62078 36.6815 7.9332 36.2892 7.9332C35.8962 7.9332 35.5782 7.62004 35.5782 7.23467ZM36.8713 7.23467C36.8653 6.91782 36.5997 6.66508 36.2772 6.67098C35.9547 6.67687 35.6974 6.93772 35.7034 7.25456C35.7087 7.56846 35.9705 7.81973 36.29 7.81825C36.611 7.81825 36.872 7.56257 36.872 7.24646C36.872 7.24204 36.872 7.23835 36.872 7.23393L36.8713 7.23467ZM36.0132 6.83677H36.3042C36.488 6.83677 36.5952 6.91487 36.5952 7.07109C36.6042 7.16983 36.5405 7.2612 36.443 7.28772L36.611 7.60162H36.4482L36.2915 7.30909H36.1685V7.60162H36.0125V6.83677H36.0132ZM36.2952 7.19193C36.3905 7.19193 36.443 7.16172 36.443 7.07993C36.443 6.99814 36.3905 6.96793 36.2915 6.96793H36.1685V7.19119H36.2945L36.2952 7.19193Z" class="logo-accent"/>
<path d="M6.14355 25H4.02539V13.9434H0.263672V12.1504H9.89648V13.9434H6.14355V25ZM15.685 15.0859C15.849 15.0859 16.0277 15.0947 16.2211 15.1123C16.4145 15.1299 16.5814 15.1533 16.7221 15.1826L16.5287 17.1162C16.4057 17.0811 16.2533 17.0547 16.0717 17.0371C15.8959 17.0195 15.7377 17.0107 15.5971 17.0107C15.2279 17.0107 14.8764 17.0723 14.5424 17.1953C14.2084 17.3125 13.9125 17.4941 13.6547 17.7402C13.3969 17.9805 13.1947 18.2822 13.0482 18.6455C12.9018 19.0088 12.8285 19.4307 12.8285 19.9111V25H10.7543V15.2705H12.3715L12.6527 16.9844H12.7494C12.9428 16.6387 13.183 16.3223 13.4701 16.0352C13.7572 15.748 14.0854 15.5195 14.4545 15.3496C14.8295 15.1738 15.2396 15.0859 15.685 15.0859ZM21.4383 15.0859C22.6688 15.0859 23.5975 15.3584 24.2244 15.9033C24.8572 16.4482 25.1736 17.2979 25.1736 18.4521V25H23.7059L23.3104 23.6201H23.24C22.9646 23.9717 22.6805 24.2617 22.3875 24.4902C22.0945 24.7188 21.7547 24.8887 21.368 25C20.9871 25.1172 20.5213 25.1758 19.9705 25.1758C19.3904 25.1758 18.8719 25.0703 18.4148 24.8594C17.9578 24.6426 17.5975 24.3145 17.3338 23.875C17.0701 23.4355 16.9383 22.8789 16.9383 22.2051C16.9383 21.2031 17.3104 20.4502 18.0545 19.9463C18.8045 19.4424 19.9354 19.1641 21.4471 19.1113L23.1346 19.0498V18.54C23.1346 17.8662 22.9764 17.3857 22.66 17.0986C22.3494 16.8115 21.91 16.668 21.3416 16.668C20.8553 16.668 20.3836 16.7383 19.9266 16.8789C19.4695 17.0195 19.0242 17.1924 18.5906 17.3975L17.9227 15.9385C18.3973 15.6865 18.9363 15.4814 19.5398 15.3232C20.1492 15.165 20.782 15.0859 21.4383 15.0859ZM23.1258 20.3506L21.8689 20.3945C20.8377 20.4297 20.1141 20.6055 19.698 20.9219C19.282 21.2383 19.074 21.6719 19.074 22.2227C19.074 22.7031 19.2176 23.0547 19.5047 23.2773C19.7918 23.4941 20.1697 23.6025 20.6385 23.6025C21.3533 23.6025 21.9451 23.4004 22.4139 22.9961C22.8885 22.5859 23.1258 21.9854 23.1258 21.1943V20.3506ZM30.4348 25.1758C29.2746 25.1758 28.343 24.7539 27.6398 23.9102C26.9426 23.0605 26.5939 21.8096 26.5939 20.1572C26.5939 18.4873 26.9484 17.2246 27.6574 16.3691C28.3723 15.5137 29.3127 15.0859 30.4787 15.0859C30.9709 15.0859 31.4016 15.1533 31.7707 15.2881C32.1398 15.417 32.4562 15.5928 32.7199 15.8154C32.9895 16.0381 33.218 16.2871 33.4055 16.5625H33.5021C33.4729 16.3809 33.4377 16.1201 33.3967 15.7803C33.3615 15.4346 33.3439 15.1152 33.3439 14.8223V11.3242H35.4182V25H33.801L33.4318 23.6729H33.3439C33.1682 23.9541 32.9455 24.209 32.676 24.4375C32.4123 24.6602 32.0959 24.8389 31.7268 24.9736C31.3635 25.1084 30.9328 25.1758 30.4348 25.1758ZM31.0148 23.4971C31.8996 23.4971 32.5236 23.2422 32.8869 22.7324C33.2502 22.2227 33.4377 21.458 33.4494 20.4385V20.166C33.4494 19.0762 33.2736 18.2412 32.9221 17.6611C32.5705 17.0752 31.9289 16.7822 30.9973 16.7822C30.2531 16.7822 29.6848 17.084 29.2922 17.6875C28.9055 18.2852 28.7121 19.1201 28.7121 20.1924C28.7121 21.2646 28.9055 22.085 29.2922 22.6533C29.6848 23.2158 30.259 23.4971 31.0148 23.4971ZM41.3561 15.0859C42.2232 15.0859 42.9674 15.2646 43.5885 15.6221C44.2096 15.9795 44.6871 16.4863 45.0211 17.1426C45.3551 17.7988 45.5221 18.584 45.5221 19.498V20.6055H39.027C39.0504 21.5488 39.3023 22.2754 39.7828 22.7852C40.2691 23.2949 40.9488 23.5498 41.8219 23.5498C42.443 23.5498 42.9996 23.4912 43.4918 23.374C43.9898 23.251 44.5025 23.0723 45.0299 22.8379V24.5166C44.5436 24.7451 44.0484 24.9121 43.5445 25.0176C43.0406 25.123 42.4371 25.1758 41.734 25.1758C40.7789 25.1758 39.9381 24.9912 39.2115 24.6221C38.4908 24.2471 37.9254 23.6904 37.5152 22.9521C37.1109 22.2139 36.9088 21.2969 36.9088 20.2012C36.9088 19.1113 37.0934 18.1855 37.4625 17.4238C37.8316 16.6621 38.3502 16.082 39.0182 15.6836C39.6861 15.2852 40.4654 15.0859 41.3561 15.0859ZM41.3561 16.6416C40.7057 16.6416 40.1783 16.8525 39.774 17.2744C39.3756 17.6963 39.1412 18.3145 39.0709 19.1289H43.5006C43.4947 18.6426 43.4127 18.2119 43.2545 17.8369C43.1021 17.4619 42.8678 17.1689 42.5514 16.958C42.2408 16.7471 41.8424 16.6416 41.3561 16.6416ZM58.3559 21.502C58.3559 22.2637 58.1684 22.9199 57.7934 23.4707C57.4242 24.0215 56.891 24.4434 56.1937 24.7363C55.5023 25.0293 54.6762 25.1758 53.7152 25.1758C53.2465 25.1758 52.7982 25.1494 52.3705 25.0967C51.9428 25.0439 51.5385 24.9678 51.1576 24.8682C50.7826 24.7627 50.4398 24.6367 50.1293 24.4902V22.5039C50.6508 22.7324 51.2338 22.9404 51.8783 23.1279C52.5229 23.3096 53.1791 23.4004 53.8471 23.4004C54.392 23.4004 54.8432 23.3301 55.2006 23.1895C55.5639 23.043 55.8334 22.8379 56.0092 22.5742C56.185 22.3047 56.2729 21.9912 56.2729 21.6338C56.2729 21.2529 56.1703 20.9307 55.9652 20.667C55.7602 20.4033 55.4496 20.1631 55.0336 19.9463C54.6234 19.7236 54.1078 19.4863 53.4867 19.2344C53.0648 19.0645 52.6605 18.8711 52.2738 18.6543C51.893 18.4375 51.5531 18.1826 51.2543 17.8896C50.9555 17.5967 50.7182 17.251 50.5424 16.8525C50.3725 16.4482 50.2875 15.9736 50.2875 15.4287C50.2875 14.7021 50.4604 14.0811 50.8061 13.5654C51.1576 13.0498 51.6498 12.6543 52.2826 12.3789C52.9213 12.1035 53.6654 11.9658 54.515 11.9658C55.1889 11.9658 55.8217 12.0361 56.4135 12.1768C57.0111 12.3174 57.5971 12.5166 58.1713 12.7744L57.5033 14.4707C56.976 14.2539 56.4633 14.0811 55.9652 13.9521C55.473 13.8232 54.9691 13.7588 54.4535 13.7588C54.0082 13.7588 53.6303 13.8262 53.3197 13.9609C53.0092 14.0957 52.7719 14.2861 52.6078 14.5322C52.4496 14.7725 52.3705 15.0596 52.3705 15.3936C52.3705 15.7686 52.4613 16.085 52.643 16.3428C52.8305 16.5947 53.1176 16.8262 53.5043 17.0371C53.8969 17.248 54.4008 17.4824 55.016 17.7402C55.725 18.0332 56.3256 18.3408 56.8178 18.6631C57.3158 18.9854 57.6967 19.3721 57.9604 19.8232C58.224 20.2686 58.3559 20.8281 58.3559 21.502ZM63.5994 15.0859C64.4666 15.0859 65.2107 15.2646 65.8318 15.6221C66.4529 15.9795 66.9305 16.4863 67.2645 17.1426C67.5984 17.7988 67.7654 18.584 67.7654 19.498V20.6055H61.2703C61.2938 21.5488 61.5457 22.2754 62.0262 22.7852C62.5125 23.2949 63.1922 23.5498 64.0652 23.5498C64.6863 23.5498 65.243 23.4912 65.7352 23.374C66.2332 23.251 66.7459 23.0723 67.2732 22.8379V24.5166C66.7869 24.7451 66.2918 24.9121 65.7879 25.0176C65.284 25.123 64.6805 25.1758 63.9773 25.1758C63.0223 25.1758 62.1814 24.9912 61.4549 24.6221C60.7342 24.2471 60.1688 23.6904 59.7586 22.9521C59.3543 22.2139 59.1521 21.2969 59.1521 20.2012C59.1521 19.1113 59.3367 18.1855 59.7059 17.4238C60.075 16.6621 60.5936 16.082 61.2615 15.6836C61.9295 15.2852 62.7088 15.0859 63.5994 15.0859ZM63.5994 16.6416C62.949 16.6416 62.4217 16.8525 62.0174 17.2744C61.6189 17.6963 61.3846 18.3145 61.3143 19.1289H65.7439C65.7381 18.6426 65.6561 18.2119 65.4979 17.8369C65.3455 17.4619 65.1111 17.1689 64.7947 16.958C64.4842 16.7471 64.0857 16.6416 63.5994 16.6416ZM74.1252 15.0859C74.2893 15.0859 74.468 15.0947 74.6613 15.1123C74.8547 15.1299 75.0217 15.1533 75.1623 15.1826L74.9689 17.1162C74.8459 17.0811 74.6936 17.0547 74.5119 17.0371C74.3361 17.0195 74.1779 17.0107 74.0373 17.0107C73.6682 17.0107 73.3166 17.0723 72.9826 17.1953C72.6486 17.3125 72.3527 17.4941 72.0949 17.7402C71.8371 17.9805 71.635 18.2822 71.4885 18.6455C71.342 19.0088 71.2688 19.4307 71.2688 19.9111V25H69.1945V15.2705H70.8117L71.093 16.9844H71.1897C71.383 16.6387 71.6232 16.3223 71.9104 16.0352C72.1975 15.748 72.5256 15.5195 72.8947 15.3496C73.2697 15.1738 73.6799 15.0859 74.1252 15.0859ZM78.2877 25L74.5875 15.2705H76.776L78.7799 20.9834C78.9088 21.3467 79.026 21.7393 79.1314 22.1611C79.2369 22.583 79.3102 22.9375 79.3512 23.2246H79.4215C79.4625 22.9258 79.5416 22.5684 79.6588 22.1523C79.776 21.7305 79.8961 21.3408 80.0191 20.9834L82.023 15.2705H84.2027L80.5025 25H78.2877ZM86.8447 15.2705V25H84.7793V15.2705H86.8447ZM85.8252 11.5439C86.1416 11.5439 86.4141 11.6289 86.6426 11.7988C86.877 11.9688 86.9941 12.2617 86.9941 12.6777C86.9941 13.0879 86.877 13.3809 86.6426 13.5566C86.4141 13.7266 86.1416 13.8115 85.8252 13.8115C85.4971 13.8115 85.2188 13.7266 84.9902 13.5566C84.7676 13.3809 84.6562 13.0879 84.6562 12.6777C84.6562 12.2617 84.7676 11.9688 84.9902 11.7988C85.2188 11.6289 85.4971 11.5439 85.8252 11.5439ZM92.8266 25.1758C91.9066 25.1758 91.1098 24.9971 90.4359 24.6396C89.7621 24.2822 89.2436 23.7344 88.8803 22.9961C88.517 22.2578 88.3354 21.3203 88.3354 20.1836C88.3354 19 88.5346 18.0332 88.933 17.2832C89.3314 16.5332 89.8822 15.9795 90.5854 15.6221C91.2943 15.2646 92.1059 15.0859 93.0199 15.0859C93.6 15.0859 94.1244 15.1445 94.5932 15.2617C95.0678 15.373 95.4691 15.5107 95.7973 15.6748L95.182 17.3271C94.8246 17.1807 94.4584 17.0576 94.0834 16.958C93.7084 16.8584 93.348 16.8086 93.0023 16.8086C92.434 16.8086 91.9594 16.9346 91.5785 17.1865C91.2035 17.4385 90.9223 17.8135 90.7348 18.3115C90.5531 18.8096 90.4623 19.4277 90.4623 20.166C90.4623 20.8809 90.5561 21.4844 90.7436 21.9766C90.9311 22.4629 91.2094 22.832 91.5785 23.084C91.9477 23.3301 92.4018 23.4531 92.9408 23.4531C93.474 23.4531 93.9516 23.3887 94.3734 23.2598C94.7953 23.1309 95.1937 22.9639 95.5687 22.7588V24.5518C95.1996 24.7627 94.8041 24.918 94.3822 25.0176C93.9604 25.123 93.4418 25.1758 92.8266 25.1758ZM100.83 15.0859C101.697 15.0859 102.441 15.2646 103.062 15.6221C103.683 15.9795 104.161 16.4863 104.495 17.1426C104.829 17.7988 104.996 18.584 104.996 19.498V20.6055H98.5008C98.5242 21.5488 98.7762 22.2754 99.2566 22.7852C99.743 23.2949 100.423 23.5498 101.296 23.5498C101.917 23.5498 102.473 23.4912 102.966 23.374C103.464 23.251 103.976 23.0723 104.504 22.8379V24.5166C104.017 24.7451 103.522 24.9121 103.018 25.0176C102.514 25.123 101.911 25.1758 101.208 25.1758C100.253 25.1758 99.4119 24.9912 98.6853 24.6221C97.9646 24.2471 97.3992 23.6904 96.9891 22.9521C96.5848 22.2139 96.3826 21.2969 96.3826 20.2012C96.3826 19.1113 96.5672 18.1855 96.9363 17.4238C97.3055 16.6621 97.824 16.082 98.492 15.6836C99.16 15.2852 99.9393 15.0859 100.83 15.0859ZM100.83 16.6416C100.179 16.6416 99.6521 16.8525 99.2478 17.2744C98.8494 17.6963 98.615 18.3145 98.5447 19.1289H102.974C102.969 18.6426 102.887 18.2119 102.728 17.8369C102.576 17.4619 102.342 17.1689 102.025 16.958C101.715 16.7471 101.316 16.6416 100.83 16.6416Z" class="logo-text"/>
</svg>
