<svg width="106" height="32" viewBox="0 0 106 32" fill="none" xmlns="http://www.w3.org/2000/svg">
<path d="M27.4549 24.9271V10.0545H22.0273V6.70557H36.8767V10.0545H31.4245V24.9271H27.4549Z" class="logo-accent"/>
<path d="M33.6377 24.9273V11.8755H37.5582V13.9944H37.5828C38.2885 12.8859 39.5307 11.5317 41.966 11.5317H42.0875V15.0532C41.9415 15.0283 41.2603 14.98 41.0159 14.98C39.457 14.98 38.2885 15.8166 37.5582 16.7773V24.9273H33.6377Z" class="logo-accent"/>
<path d="M43.3252 10.005V6.82861H47.2703V10.005H43.3252ZM43.3498 24.9273V11.8023H47.2457V24.9259H43.3498V24.9273Z" class="logo-accent"/>
<path d="M48.7777 24.9273V11.8022H52.6982V13.8701C53.4777 12.8362 54.9138 11.5303 56.9587 11.5303C59.125 11.5303 60.1488 12.4414 60.5133 13.8701C61.2928 12.861 62.7534 11.5303 64.7983 11.5303C67.4274 11.5303 68.5973 13.2047 68.5973 15.5432V24.9245H64.6768V16.6019C64.6768 15.4203 64.4093 14.8046 63.264 14.8046C62.2907 14.8046 61.5112 15.3458 60.6594 16.1091V24.9245H56.7389V16.6019C56.7389 15.4203 56.4713 14.8046 55.326 14.8046C54.3527 14.8046 53.5733 15.3458 52.6969 16.1091V24.9245H48.7764L48.7777 24.9273Z" class="logo-accent"/>
<path d="M73.9996 23.3755V24.9271H70.0791V6.70557H73.9996V13.8216C74.8514 12.6151 76.0691 11.5315 77.9925 11.5315C80.9383 11.5315 82.9846 13.8216 82.9846 18.3522C82.9846 22.8827 80.9151 25.1231 77.9447 25.1231C76.1919 25.1231 74.9743 24.4826 73.9996 23.3755ZM79.0641 18.377C79.0641 16.1863 78.3092 14.8073 76.5564 14.8073C75.5585 14.8073 74.6576 15.4229 73.9996 16.0883V20.9391C74.8514 21.7521 75.5585 22.1456 76.6055 22.1456C78.2368 22.1456 79.0654 20.7665 79.0654 18.3784L79.0641 18.377Z" class="logo-accent"/>
<path d="M84.1973 24.9271V6.70557H88.0932V24.9257H84.1973V24.9271Z" class="logo-accent"/>
<path d="M89.3076 18.3772C89.3076 13.2807 93.1544 11.5317 95.8327 11.5317C98.511 11.5317 101.798 12.8859 101.798 18.8452V19.436H93.2036C93.3988 21.6033 94.5918 22.4398 96.2231 22.4398C97.7575 22.4398 99.1935 21.6764 100.07 20.8634L101.58 23.2267C100.07 24.5312 98.1957 25.1965 95.931 25.1965C92.547 25.1965 89.3076 23.4489 89.3076 18.3759V18.3772ZM98.2926 17.0962C98.0974 15.2492 97.2701 14.363 95.8095 14.363C94.5918 14.363 93.5448 15.176 93.2527 17.0962H98.2926Z" class="logo-accent"/>
<path d="M102.54 23.4462C102.54 22.6042 103.193 21.9443 104.025 21.9443C104.858 21.9443 105.498 22.5987 105.498 23.4393C105.498 24.28 104.851 24.9481 104.02 24.9481C103.188 24.9481 102.541 24.2938 102.541 23.4462H102.54ZM105.242 23.4462C105.242 22.7408 104.711 22.1901 104.018 22.1901C103.326 22.1901 102.802 22.7339 102.802 23.4393C102.802 24.1447 103.333 24.701 104.025 24.701C104.717 24.701 105.242 24.1571 105.242 23.4449V23.4462ZM103.449 22.5918H104.057C104.44 22.5918 104.664 22.7602 104.664 23.097C104.664 23.362 104.536 23.4987 104.345 23.5636L104.697 24.2372H104.357L104.031 23.6091H103.774V24.2372H103.448V22.5931L103.449 22.5918ZM104.038 23.3565C104.235 23.3565 104.345 23.2916 104.345 23.1177C104.345 22.9562 104.235 22.8844 104.031 22.8844H103.774V23.3565H104.036H104.038Z" class="logo-accent"/>
<path d="M1.4707 22.3374V27.9999L6.33858 25.1576C4.47115 24.7504 2.77162 23.7661 1.4707 22.3374Z" class="logo-accent"/>
<path d="M6.30308 6.81744L1.4707 4V9.62797C2.82623 8.1385 4.5708 7.19981 6.30308 6.81606V6.81744Z" class="logo-accent"/>
<path d="M22.0245 16C21.7938 15.8647 17.4406 13.3234 17.1566 13.1577C17.73 14.9951 17.7313 16.9911 17.1416 18.8492L22.0231 15.9986L22.0245 16Z" class="logo-accent"/>
<path d="M4.67578 8.30143C5.3747 8.14407 6.82305 8.29315 7.59023 8.51264C8.20315 8.01983 9.13004 7.73408 10.0515 7.68715C7.9315 7.30201 5.96988 7.75065 4.67578 8.30143Z" class="logo-accent"/>
<path d="M13.9528 18.6006C13.8422 17.575 13.591 16.4996 13.1924 15.4505C11.5243 16.2125 9.46165 15.7211 8.08155 14.5132C7.07685 15.5526 6.10355 16.8461 5.36914 17.996C7.70752 19.9231 11.5529 20.4297 13.9528 18.5992V18.6006Z" class="logo-accent"/>
<path d="M4.09023 18.1812C2.02896 16.047 1.31093 12.9328 1.97027 10.5405C-0.826782 13.877 -0.628846 18.8355 2.45623 21.9331C2.79341 20.6411 3.41861 19.3255 4.09023 18.1812Z" class="logo-accent"/>
<path d="M12.8059 14.5467C12.3704 13.6232 11.8149 12.7411 11.1364 11.957C10.3856 12.4623 9.58159 13.0835 8.78711 13.8234C10.0293 14.8711 11.6633 15.0768 12.8059 14.5453V14.5467Z" class="logo-accent"/>
<path d="M11.2683 10.6523C11.8034 10.2589 12.5447 9.83789 13.0757 9.63772C11.757 8.28767 9.63432 8.32356 8.71289 8.91024C9.64524 9.32713 10.497 9.90415 11.2683 10.6523Z" class="logo-accent"/>
<path d="M4.84138 18.8672C3.8162 20.6604 3.44217 21.9759 3.30566 22.6771C6.34843 25.0032 10.5815 24.9355 13.5533 22.488C13.8618 21.7357 14.0188 20.7984 14.0174 19.7686C11.189 21.4707 7.27805 20.8163 4.84138 18.8672Z" class="logo-accent"/>
<path d="M13.624 13.9486C14.5318 12.9836 14.3502 11.3451 13.6595 10.4009C13.2336 10.5458 12.349 11.0676 11.9668 11.4031C12.5893 12.143 13.1667 13.0126 13.624 13.9486Z" class="logo-accent"/>
<path d="M15.1939 11.8838C15.3345 13.122 14.869 14.1932 14.0459 14.9069C14.4076 15.8194 14.6738 16.7732 14.8322 17.7285C16.0785 16.0913 16.0403 13.7556 15.1953 11.8852L15.1939 11.8838Z" class="logo-accent"/>
<path d="M8.10746 13.0956C8.88283 12.3709 9.67321 11.7469 10.4308 11.2251C9.66229 10.5211 8.78864 9.98826 7.86311 9.64453C7.10276 10.6937 7.34029 12.0478 8.10746 13.0956Z" class="logo-accent"/>
<path d="M14.9823 19.0452C15.0246 19.7478 14.9604 20.5443 14.8799 21.1766C16.3037 19.3406 16.7855 17.0684 16.6176 15.2974C16.447 16.7882 15.9064 18.0361 14.9823 19.0452Z" class="logo-accent"/>
<path d="M6.90688 9.3479C5.85577 9.08838 4.63129 9.07733 3.60748 9.36998C1.97348 11.7139 2.73246 15.1484 4.63675 17.3005C5.36024 16.1865 6.40862 14.7992 7.40104 13.7901C6.43183 12.5753 6.04824 10.6952 6.90688 9.3479Z" class="logo-accent"/>
</svg>
