<svg width="86" height="30" viewBox="0 0 86 30" fill="none" xmlns="http://www.w3.org/2000/svg">
<path d="M3.65277 7.8974H2.0514V1.78668H0V0.476562H5.70418V1.78595H3.65277V7.89666V7.8974Z" class="logo-accent"/>
<path d="M8.56749 2.11597C8.647 2.11597 8.7385 2.12039 8.84426 2.1285C8.94927 2.13734 9.03478 2.14766 9.10003 2.16166L8.98152 3.61325C8.92977 3.59631 8.85626 3.58378 8.76175 3.57494C8.66725 3.56683 8.58549 3.56241 8.51648 3.56241C8.31322 3.56241 8.11596 3.5882 7.92469 3.63831C7.73343 3.68915 7.56241 3.77094 7.4109 3.88442C7.25939 3.99789 7.13938 4.14673 7.05163 4.33095C6.96387 4.51516 6.91962 4.74137 6.91962 5.00885V7.89657H5.34375V2.22281H6.53709L6.76961 3.17704H6.84686C6.96087 2.98398 7.10263 2.80714 7.27289 2.6465C7.44316 2.48587 7.63817 2.35692 7.85644 2.26039C8.07545 2.16387 8.31172 2.11523 8.56674 2.11523L8.56749 2.11597Z" class="logo-accent"/>
<path d="M10.2284 0C10.4624 0 10.6642 0.0530533 10.833 0.159897C11.0017 0.26674 11.0865 0.464954 11.0865 0.75601C11.0865 1.04707 11.0017 1.24233 10.833 1.35212C10.6642 1.46191 10.4624 1.51718 10.2284 1.51718C9.99439 1.51718 9.78812 1.46191 9.62161 1.35212C9.45435 1.24233 9.37109 1.04338 9.37109 0.75601C9.37109 0.468638 9.45435 0.266004 9.62161 0.159897C9.78887 0.0530533 9.99139 0 10.2284 0ZM11.0137 2.22308V7.89758H9.43785V2.22308H11.0137Z" class="logo-accent"/>
<path d="M18.7239 2.11621C19.378 2.11621 19.8738 2.28127 20.209 2.61138C20.5451 2.94148 20.7131 3.46981 20.7131 4.19782V7.89755H19.132V4.58319C19.132 4.17719 19.0615 3.87066 18.9204 3.66434C18.7794 3.45802 18.5604 3.35486 18.2641 3.35486C17.8471 3.35486 17.5508 3.50149 17.3753 3.79402C17.1998 4.08655 17.1121 4.50508 17.1121 5.05035V7.89755H15.5362V4.58319C15.5362 4.31277 15.5054 4.08582 15.4432 3.90308C15.3809 3.72034 15.2864 3.58328 15.1589 3.49191C15.0314 3.40054 14.8679 3.35486 14.6684 3.35486C14.3759 3.35486 14.1456 3.42707 13.9783 3.57076C13.8111 3.71444 13.6926 3.92592 13.6221 4.20519C13.5515 4.48445 13.5163 4.82488 13.5163 5.22794V7.89755H11.9404V2.22305H13.1443L13.3558 2.94885H13.4435C13.5605 2.75285 13.7076 2.59369 13.8853 2.47211C14.0623 2.35053 14.2581 2.26063 14.4719 2.20316C14.6856 2.14569 14.9024 2.11695 15.1229 2.11695C15.5467 2.11695 15.906 2.18474 16.2 2.32032C16.4948 2.4559 16.7213 2.66517 16.8795 2.94959H17.0191C17.1916 2.65853 17.4346 2.44706 17.7504 2.31516C18.0654 2.18326 18.3902 2.11695 18.7239 2.11695V2.11621Z" class="logo-accent"/>
<path d="M23.1845 0V1.83771C23.1845 2.05066 23.1785 2.26213 23.1665 2.47214C23.1545 2.68214 23.1395 2.84425 23.1222 2.9592H23.1845C23.336 2.72561 23.543 2.52666 23.8048 2.36308C24.0666 2.19877 24.4056 2.11698 24.8226 2.11698C25.4699 2.11698 25.9957 2.36603 26.3985 2.86341C26.8013 3.36078 27.003 4.09026 27.003 5.05112C27.003 5.69734 26.91 6.23966 26.724 6.67809C26.538 7.11651 26.2777 7.44662 25.9439 7.66768C25.6102 7.88947 25.2224 8 24.7814 8C24.3403 8 24.0238 7.92558 23.7793 7.77673C23.5348 7.62789 23.3368 7.46062 23.1852 7.2742H23.0765L22.8132 7.89831H21.6094V0H23.1852H23.1845ZM24.3156 3.35489C24.0403 3.35489 23.8213 3.41089 23.6593 3.52215C23.4973 3.63415 23.3795 3.80142 23.3053 4.02468C23.231 4.24795 23.1905 4.5309 23.1837 4.87206V5.03933C23.1837 5.59123 23.2662 6.01345 23.432 6.30598C23.597 6.59851 23.8985 6.74514 24.3358 6.74514C24.6599 6.74514 24.9171 6.59777 25.1084 6.30377C25.2997 6.00903 25.3949 5.5846 25.3949 5.02975C25.3949 4.4749 25.2981 4.05711 25.1054 3.77563C24.9126 3.49489 24.6486 3.35415 24.3148 3.35415L24.3156 3.35489Z" class="logo-accent"/>
<path d="M29.2272 7.89758H27.6514V0H29.2272V7.89758Z" class="logo-accent"/>
<path d="M32.5881 2.11621C33.1222 2.11621 33.582 2.21716 33.9675 2.41832C34.353 2.61948 34.6508 2.91127 34.8616 3.2937C35.0716 3.67613 35.1766 4.14329 35.1766 4.69446V5.44531H31.4518C31.4691 5.88226 31.6026 6.22416 31.8523 6.47322C32.1021 6.72153 32.4494 6.84606 32.8934 6.84606C33.2617 6.84606 33.5992 6.80922 33.906 6.7348C34.2128 6.66038 34.5278 6.54837 34.8518 6.39953V7.59765C34.566 7.73618 34.2668 7.83786 33.9555 7.90197C33.6435 7.96608 33.2654 7.9985 32.8214 7.9985C32.2431 7.9985 31.7301 7.89387 31.2845 7.68386C30.8383 7.47386 30.4887 7.15407 30.236 6.72448C29.9825 6.2949 29.8564 5.75331 29.8564 5.10046C29.8564 4.44761 29.9712 3.88466 30.2 3.44328C30.4287 3.00191 30.7483 2.67032 31.1585 2.44853C31.5681 2.22674 32.0451 2.11621 32.5896 2.11621H32.5881ZM32.5986 3.2178C32.2919 3.2178 32.0384 3.31433 31.8366 3.50739C31.6348 3.69971 31.5186 4.00329 31.4878 4.41593H33.699C33.6952 4.18603 33.6532 3.98118 33.5722 3.80139C33.4912 3.62234 33.3705 3.48012 33.2107 3.37475C33.0502 3.27012 32.8462 3.2178 32.5986 3.2178Z" class="logo-accent"/>
<path d="M35.5782 7.23467C35.5737 6.85298 35.8849 6.53982 36.2735 6.53613C36.2787 6.53613 36.284 6.53613 36.2892 6.53613C36.6823 6.53613 37.0003 6.8493 37.0003 7.23467C37.0003 7.62078 36.6815 7.9332 36.2892 7.9332C35.8962 7.9332 35.5782 7.62004 35.5782 7.23467ZM36.8713 7.23467C36.8653 6.91782 36.5997 6.66508 36.2772 6.67098C35.9547 6.67687 35.6974 6.93772 35.7034 7.25456C35.7087 7.56846 35.9705 7.81973 36.29 7.81825C36.611 7.81825 36.872 7.56257 36.872 7.24646C36.872 7.24204 36.872 7.23835 36.872 7.23393L36.8713 7.23467ZM36.0132 6.83677H36.3042C36.488 6.83677 36.5952 6.91487 36.5952 7.07109C36.6042 7.16983 36.5405 7.2612 36.443 7.28772L36.611 7.60162H36.4482L36.2915 7.30909H36.1685V7.60162H36.0125V6.83677H36.0132ZM36.2952 7.19193C36.3905 7.19193 36.443 7.16172 36.443 7.07993C36.443 6.99814 36.3905 6.96793 36.2915 6.96793H36.1685V7.19119H36.2945L36.2952 7.19193Z" class="logo-accent"/>
<path d="M6.14355 25H4.02539V13.9434H0.263672V12.1504H9.89648V13.9434H6.14355V25ZM15.685 15.0859C15.849 15.0859 16.0277 15.0947 16.2211 15.1123C16.4145 15.1299 16.5814 15.1533 16.7221 15.1826L16.5287 17.1162C16.4057 17.0811 16.2533 17.0547 16.0717 17.0371C15.8959 17.0195 15.7377 17.0107 15.5971 17.0107C15.2279 17.0107 14.8764 17.0723 14.5424 17.1953C14.2084 17.3125 13.9125 17.4941 13.6547 17.7402C13.3969 17.9805 13.1947 18.2822 13.0482 18.6455C12.9018 19.0088 12.8285 19.4307 12.8285 19.9111V25H10.7543V15.2705H12.3715L12.6527 16.9844H12.7494C12.9428 16.6387 13.183 16.3223 13.4701 16.0352C13.7572 15.748 14.0854 15.5195 14.4545 15.3496C14.8295 15.1738 15.2396 15.0859 15.685 15.0859ZM26.1053 15.2705V25H24.4793L24.198 23.6904H24.0838C23.8787 24.0244 23.618 24.3027 23.3016 24.5254C22.9852 24.7422 22.6336 24.9033 22.2469 25.0088C21.8602 25.1201 21.4529 25.1758 21.0252 25.1758C20.2928 25.1758 19.6658 25.0527 19.1443 24.8066C18.6287 24.5547 18.2332 24.168 17.9578 23.6465C17.6824 23.125 17.5447 22.4512 17.5447 21.625V15.2705H19.6189V21.2383C19.6189 21.9941 19.7713 22.5596 20.076 22.9346C20.3865 23.3096 20.867 23.4971 21.5174 23.4971C22.1443 23.4971 22.6424 23.3682 23.0115 23.1104C23.3807 22.8525 23.6414 22.4717 23.7938 21.9678C23.952 21.4639 24.0311 20.8457 24.0311 20.1133V15.2705H26.1053ZM32.0871 25.1758C31.1672 25.1758 30.3703 24.9971 29.6965 24.6396C29.0227 24.2822 28.5041 23.7344 28.1408 22.9961C27.7775 22.2578 27.5959 21.3203 27.5959 20.1836C27.5959 19 27.7951 18.0332 28.1936 17.2832C28.592 16.5332 29.1428 15.9795 29.8459 15.6221C30.5549 15.2646 31.3664 15.0859 32.2805 15.0859C32.8605 15.0859 33.385 15.1445 33.8537 15.2617C34.3283 15.373 34.7297 15.5107 35.0578 15.6748L34.4426 17.3271C34.0852 17.1807 33.7189 17.0576 33.3439 16.958C32.9689 16.8584 32.6086 16.8086 32.2629 16.8086C31.6945 16.8086 31.2199 16.9346 30.8391 17.1865C30.4641 17.4385 30.1828 17.8135 29.9953 18.3115C29.8137 18.8096 29.7229 19.4277 29.7229 20.166C29.7229 20.8809 29.8166 21.4844 30.0041 21.9766C30.1916 22.4629 30.4699 22.832 30.8391 23.084C31.2082 23.3301 31.6623 23.4531 32.2014 23.4531C32.7346 23.4531 33.2121 23.3887 33.634 23.2598C34.0559 23.1309 34.4543 22.9639 34.8293 22.7588V24.5518C34.4602 24.7627 34.0646 24.918 33.6428 25.0176C33.2209 25.123 32.7023 25.1758 32.0871 25.1758ZM38.2799 11.3242V17.9336C38.2799 18.2324 38.2682 18.5605 38.2447 18.918C38.2213 19.2695 38.1979 19.6006 38.1744 19.9111H38.2184C38.3707 19.7061 38.5523 19.4658 38.7633 19.1904C38.9801 18.915 39.1852 18.6748 39.3785 18.4697L42.3492 15.2705H44.7223L40.8287 19.4541L44.9771 25H42.5514L39.44 20.7285L38.2799 21.7217V25H36.2145V11.3242H38.2799ZM51.3896 25L47.6895 14.2686H47.6104C47.6279 14.5088 47.6484 14.8369 47.6719 15.2529C47.6953 15.6689 47.7158 16.1143 47.7334 16.5889C47.751 17.0635 47.7598 17.5176 47.7598 17.9512V25H45.8438V12.1504H48.8057L52.3652 22.4072H52.418L56.1006 12.1504H59.0537V25H57.041V17.8457C57.041 17.4531 57.0469 17.0283 57.0586 16.5713C57.0762 16.1143 57.0938 15.6807 57.1113 15.2705C57.1348 14.8604 57.1523 14.5322 57.1641 14.2861H57.0938L53.2529 25H51.3896ZM65.141 15.0859C66.3715 15.0859 67.3002 15.3584 67.9271 15.9033C68.56 16.4482 68.8764 17.2979 68.8764 18.4521V25H67.4086L67.0131 23.6201H66.9428C66.6674 23.9717 66.3832 24.2617 66.0902 24.4902C65.7973 24.7188 65.4574 24.8887 65.0707 25C64.6898 25.1172 64.224 25.1758 63.6732 25.1758C63.0932 25.1758 62.5746 25.0703 62.1176 24.8594C61.6605 24.6426 61.3002 24.3145 61.0365 23.875C60.7729 23.4355 60.641 22.8789 60.641 22.2051C60.641 21.2031 61.0131 20.4502 61.7572 19.9463C62.5072 19.4424 63.6381 19.1641 65.1498 19.1113L66.8373 19.0498V18.54C66.8373 17.8662 66.6791 17.3857 66.3627 17.0986C66.0521 16.8115 65.6127 16.668 65.0443 16.668C64.558 16.668 64.0863 16.7383 63.6293 16.8789C63.1723 17.0195 62.727 17.1924 62.2934 17.3975L61.6254 15.9385C62.1 15.6865 62.6391 15.4814 63.2426 15.3232C63.852 15.165 64.4848 15.0859 65.141 15.0859ZM66.8285 20.3506L65.5717 20.3945C64.5404 20.4297 63.8168 20.6055 63.4008 20.9219C62.9848 21.2383 62.7768 21.6719 62.7768 22.2227C62.7768 22.7031 62.9203 23.0547 63.2074 23.2773C63.4945 23.4941 63.8725 23.6025 64.3412 23.6025C65.0561 23.6025 65.6479 23.4004 66.1166 22.9961C66.5912 22.5859 66.8285 21.9854 66.8285 21.1943V20.3506ZM74.4891 23.5059C74.7586 23.5059 75.0252 23.4824 75.2889 23.4355C75.5525 23.3828 75.7928 23.3213 76.0096 23.251V24.8154C75.7811 24.915 75.4852 25 75.1219 25.0703C74.7586 25.1406 74.3807 25.1758 73.9881 25.1758C73.4373 25.1758 72.9422 25.085 72.5027 24.9033C72.0633 24.7158 71.7146 24.3965 71.4568 23.9453C71.199 23.4941 71.0701 22.8701 71.0701 22.0732V16.8438H69.743V15.9209L71.1668 15.1914L71.8436 13.1084H73.1443V15.2705H75.9305V16.8438H73.1443V22.0469C73.1443 22.5391 73.2674 22.9053 73.5135 23.1455C73.7596 23.3857 74.0848 23.5059 74.4891 23.5059ZM80.9631 15.0859C81.8303 15.0859 82.5744 15.2646 83.1955 15.6221C83.8166 15.9795 84.2941 16.4863 84.6281 17.1426C84.9621 17.7988 85.1291 18.584 85.1291 19.498V20.6055H78.634C78.6574 21.5488 78.9094 22.2754 79.3898 22.7852C79.8762 23.2949 80.5559 23.5498 81.4289 23.5498C82.05 23.5498 82.6066 23.4912 83.0988 23.374C83.5969 23.251 84.1096 23.0723 84.6369 22.8379V24.5166C84.1506 24.7451 83.6555 24.9121 83.1516 25.0176C82.6477 25.123 82.0441 25.1758 81.341 25.1758C80.3859 25.1758 79.5451 24.9912 78.8186 24.6221C78.0979 24.2471 77.5324 23.6904 77.1223 22.9521C76.718 22.2139 76.5158 21.2969 76.5158 20.2012C76.5158 19.1113 76.7004 18.1855 77.0695 17.4238C77.4387 16.6621 77.9572 16.082 78.6252 15.6836C79.2932 15.2852 80.0725 15.0859 80.9631 15.0859ZM80.9631 16.6416C80.3127 16.6416 79.7854 16.8525 79.3811 17.2744C78.9826 17.6963 78.7482 18.3145 78.6779 19.1289H83.1076C83.1018 18.6426 83.0197 18.2119 82.8615 17.8369C82.7092 17.4619 82.4748 17.1689 82.1584 16.958C81.8479 16.7471 81.4494 16.6416 80.9631 16.6416Z" class="logo-text"/>
</svg>
