<svg width="111" height="30" viewBox="0 0 111 30" fill="none" xmlns="http://www.w3.org/2000/svg">
<path d="M3.65277 7.8974H2.0514V1.78668H0V0.476562H5.70418V1.78595H3.65277V7.89666V7.8974Z" class="logo-accent"/>
<path d="M8.56749 2.11597C8.647 2.11597 8.7385 2.12039 8.84426 2.1285C8.94927 2.13734 9.03478 2.14766 9.10003 2.16166L8.98152 3.61325C8.92977 3.59631 8.85626 3.58378 8.76175 3.57494C8.66725 3.56683 8.58549 3.56241 8.51648 3.56241C8.31322 3.56241 8.11596 3.5882 7.92469 3.63831C7.73343 3.68915 7.56241 3.77094 7.4109 3.88442C7.25939 3.99789 7.13938 4.14673 7.05163 4.33095C6.96387 4.51516 6.91962 4.74137 6.91962 5.00885V7.89657H5.34375V2.22281H6.53709L6.76961 3.17704H6.84686C6.96087 2.98398 7.10263 2.80714 7.27289 2.6465C7.44316 2.48587 7.63817 2.35692 7.85644 2.26039C8.07545 2.16387 8.31172 2.11523 8.56674 2.11523L8.56749 2.11597Z" class="logo-accent"/>
<path d="M10.2284 0C10.4624 0 10.6642 0.0530533 10.833 0.159897C11.0017 0.26674 11.0865 0.464954 11.0865 0.75601C11.0865 1.04707 11.0017 1.24233 10.833 1.35212C10.6642 1.46191 10.4624 1.51718 10.2284 1.51718C9.99439 1.51718 9.78812 1.46191 9.62161 1.35212C9.45435 1.24233 9.37109 1.04338 9.37109 0.75601C9.37109 0.468638 9.45435 0.266004 9.62161 0.159897C9.78887 0.0530533 9.99139 0 10.2284 0ZM11.0137 2.22308V7.89758H9.43785V2.22308H11.0137Z" class="logo-accent"/>
<path d="M18.7239 2.11621C19.378 2.11621 19.8738 2.28127 20.209 2.61138C20.5451 2.94148 20.7131 3.46981 20.7131 4.19782V7.89755H19.132V4.58319C19.132 4.17719 19.0615 3.87066 18.9204 3.66434C18.7794 3.45802 18.5604 3.35486 18.2641 3.35486C17.8471 3.35486 17.5508 3.50149 17.3753 3.79402C17.1998 4.08655 17.1121 4.50508 17.1121 5.05035V7.89755H15.5362V4.58319C15.5362 4.31277 15.5054 4.08582 15.4432 3.90308C15.3809 3.72034 15.2864 3.58328 15.1589 3.49191C15.0314 3.40054 14.8679 3.35486 14.6684 3.35486C14.3759 3.35486 14.1456 3.42707 13.9783 3.57076C13.8111 3.71444 13.6926 3.92592 13.6221 4.20519C13.5515 4.48445 13.5163 4.82488 13.5163 5.22794V7.89755H11.9404V2.22305H13.1443L13.3558 2.94885H13.4435C13.5605 2.75285 13.7076 2.59369 13.8853 2.47211C14.0623 2.35053 14.2581 2.26063 14.4719 2.20316C14.6856 2.14569 14.9024 2.11695 15.1229 2.11695C15.5467 2.11695 15.906 2.18474 16.2 2.32032C16.4948 2.4559 16.7213 2.66517 16.8795 2.94959H17.0191C17.1916 2.65853 17.4346 2.44706 17.7504 2.31516C18.0654 2.18326 18.3902 2.11695 18.7239 2.11695V2.11621Z" class="logo-accent"/>
<path d="M23.1845 0V1.83771C23.1845 2.05066 23.1785 2.26213 23.1665 2.47214C23.1545 2.68214 23.1395 2.84425 23.1222 2.9592H23.1845C23.336 2.72561 23.543 2.52666 23.8048 2.36308C24.0666 2.19877 24.4056 2.11698 24.8226 2.11698C25.4699 2.11698 25.9957 2.36603 26.3985 2.86341C26.8013 3.36078 27.003 4.09026 27.003 5.05112C27.003 5.69734 26.91 6.23966 26.724 6.67809C26.538 7.11651 26.2777 7.44662 25.9439 7.66768C25.6102 7.88947 25.2224 8 24.7814 8C24.3403 8 24.0238 7.92558 23.7793 7.77673C23.5348 7.62789 23.3368 7.46062 23.1852 7.2742H23.0765L22.8132 7.89831H21.6094V0H23.1852H23.1845ZM24.3156 3.35489C24.0403 3.35489 23.8213 3.41089 23.6593 3.52215C23.4973 3.63415 23.3795 3.80142 23.3053 4.02468C23.231 4.24795 23.1905 4.5309 23.1837 4.87206V5.03933C23.1837 5.59123 23.2662 6.01345 23.432 6.30598C23.597 6.59851 23.8985 6.74514 24.3358 6.74514C24.6599 6.74514 24.9171 6.59777 25.1084 6.30377C25.2997 6.00903 25.3949 5.5846 25.3949 5.02975C25.3949 4.4749 25.2981 4.05711 25.1054 3.77563C24.9126 3.49489 24.6486 3.35415 24.3148 3.35415L24.3156 3.35489Z" class="logo-accent"/>
<path d="M29.2272 7.89758H27.6514V0H29.2272V7.89758Z" class="logo-accent"/>
<path d="M32.5881 2.11621C33.1222 2.11621 33.582 2.21716 33.9675 2.41832C34.353 2.61948 34.6508 2.91127 34.8616 3.2937C35.0716 3.67613 35.1766 4.14329 35.1766 4.69446V5.44531H31.4518C31.4691 5.88226 31.6026 6.22416 31.8523 6.47322C32.1021 6.72153 32.4494 6.84606 32.8934 6.84606C33.2617 6.84606 33.5992 6.80922 33.906 6.7348C34.2128 6.66038 34.5278 6.54837 34.8518 6.39953V7.59765C34.566 7.73618 34.2668 7.83786 33.9555 7.90197C33.6435 7.96608 33.2654 7.9985 32.8214 7.9985C32.2431 7.9985 31.7301 7.89387 31.2845 7.68386C30.8383 7.47386 30.4887 7.15407 30.236 6.72448C29.9825 6.2949 29.8564 5.75331 29.8564 5.10046C29.8564 4.44761 29.9712 3.88466 30.2 3.44328C30.4287 3.00191 30.7483 2.67032 31.1585 2.44853C31.5681 2.22674 32.0451 2.11621 32.5896 2.11621H32.5881ZM32.5986 3.2178C32.2919 3.2178 32.0384 3.31433 31.8366 3.50739C31.6348 3.69971 31.5186 4.00329 31.4878 4.41593H33.699C33.6952 4.18603 33.6532 3.98118 33.5722 3.80139C33.4912 3.62234 33.3705 3.48012 33.2107 3.37475C33.0502 3.27012 32.8462 3.2178 32.5986 3.2178Z" class="logo-accent"/>
<path d="M35.5782 7.23467C35.5737 6.85298 35.8849 6.53982 36.2735 6.53613C36.2787 6.53613 36.284 6.53613 36.2892 6.53613C36.6823 6.53613 37.0003 6.8493 37.0003 7.23467C37.0003 7.62078 36.6815 7.9332 36.2892 7.9332C35.8962 7.9332 35.5782 7.62004 35.5782 7.23467ZM36.8713 7.23467C36.8653 6.91782 36.5997 6.66508 36.2772 6.67098C35.9547 6.67687 35.6974 6.93772 35.7034 7.25456C35.7087 7.56846 35.9705 7.81973 36.29 7.81825C36.611 7.81825 36.872 7.56257 36.872 7.24646C36.872 7.24204 36.872 7.23835 36.872 7.23393L36.8713 7.23467ZM36.0132 6.83677H36.3042C36.488 6.83677 36.5952 6.91487 36.5952 7.07109C36.6042 7.16983 36.5405 7.2612 36.443 7.28772L36.611 7.60162H36.4482L36.2915 7.30909H36.1685V7.60162H36.0125V6.83677H36.0132ZM36.2952 7.19193C36.3905 7.19193 36.443 7.16172 36.443 7.07993C36.443 6.99814 36.3905 6.96793 36.2915 6.96793H36.1685V7.19119H36.2945L36.2952 7.19193Z" class="logo-accent"/>
<path d="M1.6875 25V12.1504H3.79688V25H1.6875ZM11.1498 15.0859C12.2455 15.0859 13.098 15.3701 13.7074 15.9385C14.3227 16.501 14.6303 17.4062 14.6303 18.6543V25H12.5648V19.041C12.5648 18.2852 12.4096 17.7197 12.099 17.3447C11.7885 16.9639 11.308 16.7734 10.6576 16.7734C9.71426 16.7734 9.05801 17.0635 8.68887 17.6436C8.32559 18.2236 8.14395 19.0645 8.14395 20.166V25H6.07852V15.2705H7.68691L7.97695 16.5889H8.09121C8.30215 16.249 8.56289 15.9707 8.87344 15.7539C9.18984 15.5312 9.54141 15.3643 9.92812 15.2529C10.3207 15.1416 10.7279 15.0859 11.1498 15.0859ZM21.4822 16.8438H19.118V25H17.0525V16.8438H15.4617V15.8506L17.0525 15.2441V14.5674C17.0525 13.7412 17.1814 13.085 17.4393 12.5986C17.7029 12.1123 18.0779 11.7637 18.5643 11.5527C19.0564 11.3359 19.6424 11.2275 20.3221 11.2275C20.7674 11.2275 21.1746 11.2656 21.5437 11.3418C21.9129 11.4121 22.2234 11.4941 22.4754 11.5879L21.9393 13.1523C21.74 13.0879 21.5174 13.0293 21.2713 12.9766C21.0252 12.918 20.7615 12.8887 20.4803 12.8887C20.0115 12.8887 19.6658 13.0352 19.4432 13.3281C19.2264 13.6211 19.118 14.0488 19.118 14.6113V15.2705H21.4822V16.8438ZM27.174 15.0859C27.3381 15.0859 27.5168 15.0947 27.7102 15.1123C27.9035 15.1299 28.0705 15.1533 28.2111 15.1826L28.0178 17.1162C27.8947 17.0811 27.7424 17.0547 27.5607 17.0371C27.385 17.0195 27.2268 17.0107 27.0861 17.0107C26.717 17.0107 26.3654 17.0723 26.0314 17.1953C25.6975 17.3125 25.4016 17.4941 25.1437 17.7402C24.8859 17.9805 24.6838 18.2822 24.5373 18.6455C24.3908 19.0088 24.3176 19.4307 24.3176 19.9111V25H22.2434V15.2705H23.8605L24.1418 16.9844H24.2385C24.4318 16.6387 24.6721 16.3223 24.9592 16.0352C25.2463 15.748 25.5744 15.5195 25.9436 15.3496C26.3186 15.1738 26.7287 15.0859 27.174 15.0859ZM32.9273 15.0859C34.1578 15.0859 35.0865 15.3584 35.7135 15.9033C36.3463 16.4482 36.6627 17.2979 36.6627 18.4521V25H35.1949L34.7994 23.6201H34.7291C34.4537 23.9717 34.1695 24.2617 33.8766 24.4902C33.5836 24.7188 33.2437 24.8887 32.857 25C32.4762 25.1172 32.0104 25.1758 31.4596 25.1758C30.8795 25.1758 30.3609 25.0703 29.9039 24.8594C29.4469 24.6426 29.0865 24.3145 28.8229 23.875C28.5592 23.4355 28.4273 22.8789 28.4273 22.2051C28.4273 21.2031 28.7994 20.4502 29.5436 19.9463C30.2936 19.4424 31.4244 19.1641 32.9361 19.1113L34.6236 19.0498V18.54C34.6236 17.8662 34.4654 17.3857 34.149 17.0986C33.8385 16.8115 33.399 16.668 32.8307 16.668C32.3443 16.668 31.8727 16.7383 31.4156 16.8789C30.9586 17.0195 30.5133 17.1924 30.0797 17.3975L29.4117 15.9385C29.8863 15.6865 30.4254 15.4814 31.0289 15.3232C31.6383 15.165 32.2711 15.0859 32.9273 15.0859ZM34.6148 20.3506L33.358 20.3945C32.3268 20.4297 31.6031 20.6055 31.1871 20.9219C30.7711 21.2383 30.5631 21.6719 30.5631 22.2227C30.5631 22.7031 30.7066 23.0547 30.9937 23.2773C31.2809 23.4941 31.6588 23.6025 32.1275 23.6025C32.8424 23.6025 33.4342 23.4004 33.9029 22.9961C34.3775 22.5859 34.6148 21.9854 34.6148 21.1943V20.3506ZM45.1934 22.2227C45.1934 22.8613 45.0381 23.4004 44.7275 23.8398C44.417 24.2793 43.9629 24.6133 43.3652 24.8418C42.7734 25.0645 42.0469 25.1758 41.1855 25.1758C40.5059 25.1758 39.9199 25.126 39.4277 25.0264C38.9414 24.9326 38.4814 24.7861 38.0479 24.5869V22.8027C38.5107 23.0195 39.0293 23.207 39.6035 23.3652C40.1836 23.5234 40.7314 23.6025 41.2471 23.6025C41.9268 23.6025 42.416 23.4971 42.7148 23.2861C43.0137 23.0693 43.1631 22.7822 43.1631 22.4248C43.1631 22.2139 43.1016 22.0264 42.9785 21.8623C42.8613 21.6924 42.6387 21.5195 42.3105 21.3438C41.9883 21.1621 41.5137 20.9453 40.8867 20.6934C40.2715 20.4473 39.7529 20.2012 39.3311 19.9551C38.9092 19.709 38.5898 19.4131 38.373 19.0674C38.1562 18.7158 38.0479 18.2676 38.0479 17.7227C38.0479 16.8613 38.3877 16.208 39.0674 15.7627C39.7529 15.3115 40.6582 15.0859 41.7832 15.0859C42.3809 15.0859 42.9434 15.1475 43.4707 15.2705C44.0039 15.3877 44.5254 15.5605 45.0352 15.7891L44.3848 17.3447C43.9453 17.1514 43.5029 16.9932 43.0576 16.8701C42.6182 16.7412 42.1699 16.6768 41.7129 16.6768C41.1797 16.6768 40.7725 16.7588 40.4912 16.9229C40.2158 17.0869 40.0781 17.3213 40.0781 17.626C40.0781 17.8545 40.1455 18.0479 40.2803 18.2061C40.415 18.3643 40.6465 18.5225 40.9746 18.6807C41.3086 18.8389 41.7715 19.0352 42.3633 19.2695C42.9434 19.4922 43.4443 19.7266 43.8662 19.9727C44.2939 20.2129 44.6221 20.5088 44.8506 20.8604C45.0791 21.2119 45.1934 21.666 45.1934 22.2227ZM50.1469 23.5059C50.4164 23.5059 50.683 23.4824 50.9467 23.4355C51.2104 23.3828 51.4506 23.3213 51.6674 23.251V24.8154C51.4389 24.915 51.143 25 50.7797 25.0703C50.4164 25.1406 50.0385 25.1758 49.6459 25.1758C49.0951 25.1758 48.6 25.085 48.1605 24.9033C47.7211 24.7158 47.3725 24.3965 47.1146 23.9453C46.8568 23.4941 46.7279 22.8701 46.7279 22.0732V16.8438H45.4008V15.9209L46.8246 15.1914L47.5014 13.1084H48.8021V15.2705H51.5883V16.8438H48.8021V22.0469C48.8021 22.5391 48.9252 22.9053 49.1713 23.1455C49.4174 23.3857 49.7426 23.5059 50.1469 23.5059ZM57.6756 15.0859C57.8396 15.0859 58.0184 15.0947 58.2117 15.1123C58.4051 15.1299 58.5721 15.1533 58.7127 15.1826L58.5193 17.1162C58.3963 17.0811 58.2439 17.0547 58.0623 17.0371C57.8865 17.0195 57.7283 17.0107 57.5877 17.0107C57.2186 17.0107 56.867 17.0723 56.533 17.1953C56.199 17.3125 55.9031 17.4941 55.6453 17.7402C55.3875 17.9805 55.1854 18.2822 55.0389 18.6455C54.8924 19.0088 54.8191 19.4307 54.8191 19.9111V25H52.7449V15.2705H54.3621L54.6434 16.9844H54.74C54.9334 16.6387 55.1736 16.3223 55.4607 16.0352C55.7479 15.748 56.076 15.5195 56.4451 15.3496C56.8201 15.1738 57.2303 15.0859 57.6756 15.0859ZM68.0959 15.2705V25H66.4699L66.1887 23.6904H66.0744C65.8693 24.0244 65.6086 24.3027 65.2922 24.5254C64.9758 24.7422 64.6242 24.9033 64.2375 25.0088C63.8508 25.1201 63.4436 25.1758 63.0158 25.1758C62.2834 25.1758 61.6564 25.0527 61.135 24.8066C60.6193 24.5547 60.2238 24.168 59.9484 23.6465C59.673 23.125 59.5354 22.4512 59.5354 21.625V15.2705H61.6096V21.2383C61.6096 21.9941 61.7619 22.5596 62.0666 22.9346C62.3771 23.3096 62.8576 23.4971 63.508 23.4971C64.135 23.4971 64.633 23.3682 65.0021 23.1104C65.3713 22.8525 65.632 22.4717 65.7844 21.9678C65.9426 21.4639 66.0217 20.8457 66.0217 20.1133V15.2705H68.0959ZM74.0777 25.1758C73.1578 25.1758 72.3609 24.9971 71.6871 24.6396C71.0133 24.2822 70.4947 23.7344 70.1314 22.9961C69.7682 22.2578 69.5865 21.3203 69.5865 20.1836C69.5865 19 69.7857 18.0332 70.1842 17.2832C70.5826 16.5332 71.1334 15.9795 71.8365 15.6221C72.5455 15.2646 73.357 15.0859 74.2711 15.0859C74.8512 15.0859 75.3756 15.1445 75.8443 15.2617C76.3189 15.373 76.7203 15.5107 77.0484 15.6748L76.4332 17.3271C76.0758 17.1807 75.7096 17.0576 75.3346 16.958C74.9596 16.8584 74.5992 16.8086 74.2535 16.8086C73.6852 16.8086 73.2105 16.9346 72.8297 17.1865C72.4547 17.4385 72.1734 17.8135 71.9859 18.3115C71.8043 18.8096 71.7135 19.4277 71.7135 20.166C71.7135 20.8809 71.8072 21.4844 71.9947 21.9766C72.1822 22.4629 72.4605 22.832 72.8297 23.084C73.1988 23.3301 73.6529 23.4531 74.192 23.4531C74.7252 23.4531 75.2027 23.3887 75.6246 23.2598C76.0465 23.1309 76.4449 22.9639 76.8199 22.7588V24.5518C76.4508 24.7627 76.0553 24.918 75.6334 25.0176C75.2115 25.123 74.693 25.1758 74.0777 25.1758ZM81.8262 23.5059C82.0957 23.5059 82.3623 23.4824 82.626 23.4355C82.8896 23.3828 83.1299 23.3213 83.3467 23.251V24.8154C83.1182 24.915 82.8223 25 82.459 25.0703C82.0957 25.1406 81.7178 25.1758 81.3252 25.1758C80.7744 25.1758 80.2793 25.085 79.8398 24.9033C79.4004 24.7158 79.0518 24.3965 78.7939 23.9453C78.5361 23.4941 78.4072 22.8701 78.4072 22.0732V16.8438H77.0801V15.9209L78.5039 15.1914L79.1807 13.1084H80.4814V15.2705H83.2676V16.8438H80.4814V22.0469C80.4814 22.5391 80.6045 22.9053 80.8506 23.1455C81.0967 23.3857 81.4219 23.5059 81.8262 23.5059ZM92.9057 15.2705V25H91.2797L90.9984 23.6904H90.8842C90.6791 24.0244 90.4184 24.3027 90.102 24.5254C89.7855 24.7422 89.434 24.9033 89.0473 25.0088C88.6605 25.1201 88.2533 25.1758 87.8256 25.1758C87.0932 25.1758 86.4662 25.0527 85.9447 24.8066C85.4291 24.5547 85.0336 24.168 84.7582 23.6465C84.4828 23.125 84.3451 22.4512 84.3451 21.625V15.2705H86.4193V21.2383C86.4193 21.9941 86.5717 22.5596 86.8764 22.9346C87.1869 23.3096 87.6674 23.4971 88.3178 23.4971C88.9447 23.4971 89.4428 23.3682 89.8119 23.1104C90.1811 22.8525 90.4418 22.4717 90.5941 21.9678C90.7523 21.4639 90.8314 20.8457 90.8314 20.1133V15.2705H92.9057ZM99.8982 15.0859C100.062 15.0859 100.241 15.0947 100.434 15.1123C100.628 15.1299 100.795 15.1533 100.935 15.1826L100.742 17.1162C100.619 17.0811 100.467 17.0547 100.285 17.0371C100.109 17.0195 99.951 17.0107 99.8103 17.0107C99.4412 17.0107 99.0896 17.0723 98.7557 17.1953C98.4217 17.3125 98.1258 17.4941 97.868 17.7402C97.6102 17.9805 97.408 18.2822 97.2615 18.6455C97.115 19.0088 97.0418 19.4307 97.0418 19.9111V25H94.9676V15.2705H96.5848L96.866 16.9844H96.9627C97.1561 16.6387 97.3963 16.3223 97.6834 16.0352C97.9705 15.748 98.2986 15.5195 98.6678 15.3496C99.0428 15.1738 99.4529 15.0859 99.8982 15.0859ZM105.713 15.0859C106.58 15.0859 107.324 15.2646 107.946 15.6221C108.567 15.9795 109.044 16.4863 109.378 17.1426C109.712 17.7988 109.879 18.584 109.879 19.498V20.6055H103.384C103.407 21.5488 103.659 22.2754 104.14 22.7852C104.626 23.2949 105.306 23.5498 106.179 23.5498C106.8 23.5498 107.357 23.4912 107.849 23.374C108.347 23.251 108.86 23.0723 109.387 22.8379V24.5166C108.901 24.7451 108.405 24.9121 107.902 25.0176C107.398 25.123 106.794 25.1758 106.091 25.1758C105.136 25.1758 104.295 24.9912 103.569 24.6221C102.848 24.2471 102.282 23.6904 101.872 22.9521C101.468 22.2139 101.266 21.2969 101.266 20.2012C101.266 19.1113 101.45 18.1855 101.82 17.4238C102.189 16.6621 102.707 16.082 103.375 15.6836C104.043 15.2852 104.822 15.0859 105.713 15.0859ZM105.713 16.6416C105.063 16.6416 104.535 16.8525 104.131 17.2744C103.733 17.6963 103.498 18.3145 103.428 19.1289H107.858C107.852 18.6426 107.77 18.2119 107.612 17.8369C107.459 17.4619 107.225 17.1689 106.908 16.958C106.598 16.7471 106.199 16.6416 105.713 16.6416Z" class="logo-text"/>
</svg>
