<svg width="259" height="48" viewBox="0 0 259 48" fill="none" xmlns="http://www.w3.org/2000/svg">
<path d="M22.6295 32.9885L25.0896 23.9862L21.016 8.82532H12L20.0507 39.1747H29.1302L27.4946 33.0574L22.6295 32.9885Z" fill="#0063A3"/>
<path d="M30.636 8.82532L26.5845 23.9862L28.6392 31.4385H33.6175L39.7348 8.82532H30.636Z" fill="#0063A3"/>
<path d="M56.4038 31.0785L49.7349 11.8164H53.0445L57.9841 26.7843H58.0366L63.0644 11.8274H66.1259L59.4625 31.0896L56.4038 31.0785Z" fill="#171C1E"/>
<path d="M68.001 14.8479V12.0898H71.2692V14.8479H68.001ZM68.0286 30.9989V17.2336H71.2472V30.9989H68.0286Z" fill="#171C1E"/>
<path d="M73.5229 24.1311C73.5229 18.8908 77.2325 16.974 80.0843 16.974C83.1678 16.974 86.1244 18.8164 86.1244 24.4207V25.1709H76.714C76.8436 27.6531 78.3688 28.7563 80.3932 28.7563C82.1832 28.7563 83.2202 28.1578 84.2545 27.1484L85.9396 28.8032C84.5137 30.3863 82.63 31.2854 80.1478 31.2854C76.714 31.2854 73.5229 29.1838 73.5229 24.1311ZM83.1926 22.7824C83.0134 20.6808 81.9763 19.5666 80.0567 19.5666C78.5012 19.5666 77.0753 20.4491 76.7636 22.7824H83.1926Z" fill="#171C1E"/>
<path d="M90.6972 30.9986L86.6016 17.2333H89.8423L91.3454 22.9369C91.7591 24.4924 92.0183 25.5543 92.3824 27.3194H92.4348C92.8485 25.4522 93.0829 24.4676 93.5215 22.8845L94.9667 17.2333H97.5592L99.1037 22.9893C99.545 24.5172 99.7794 25.5543 100.168 27.3194H100.207C100.621 25.5294 100.855 24.5448 101.294 23.0417L102.849 17.2333H105.753L101.658 30.9986H98.6818L96.1995 21.4338H96.1471L93.6649 30.9986H90.6972Z" fill="#171C1E"/>
<path d="M107.378 36.1837V17.2332H110.577V19.0618C111.103 18.4078 111.771 17.8815 112.529 17.5223C113.288 17.1631 114.118 16.9803 114.957 16.9878C118.096 16.9878 120.401 19.3486 120.401 24.1173C120.401 28.8859 118.043 31.1972 114.516 31.1972C113.774 31.2029 113.039 31.051 112.36 30.7515C111.681 30.4519 111.073 30.0116 110.577 29.4596V36.1727L107.378 36.1837ZM117.202 24.1311C117.202 21.2269 115.958 19.6962 113.909 19.6962C112.588 19.6962 111.316 20.5236 110.566 21.4337V26.9498C110.942 27.4613 111.429 27.8809 111.99 28.177C112.551 28.4732 113.173 28.6383 113.807 28.6598C116.228 28.6653 117.213 27.1897 117.213 24.1311H117.202Z" fill="#171C1E"/>
<path d="M121.996 24.1311C121.996 19.048 125.338 16.974 128.709 16.974C132.079 16.974 135.422 19.048 135.422 24.1311C135.422 29.159 132.054 31.2854 128.709 31.2854C125.363 31.2854 121.996 29.159 121.996 24.1311ZM132.2 24.1311C132.2 21.5634 131.111 19.6962 128.7 19.6962C126.392 19.6962 125.2 21.351 125.2 24.1311C125.2 26.7485 126.262 28.6157 128.7 28.6157C131.014 28.6157 132.2 26.9553 132.2 24.1311Z" fill="#171C1E"/>
<path d="M137.716 14.8479V12.0898H140.971V14.8479H137.716ZM137.741 30.9989V17.2336H140.957V30.9989H137.741Z" fill="#171C1E"/>
<path d="M143.941 30.9989V17.2335H147.129V19.44C148.166 18.2485 149.774 16.9771 152.055 16.9771C154.57 16.9771 156.126 18.2733 156.126 20.9955V31.0017H152.938V21.9001C152.938 20.397 152.314 19.6192 150.864 19.6192C149.462 19.6192 148.296 20.3198 147.129 21.4065V30.9989H143.941Z" fill="#171C1E"/>
<path d="M160.092 27.3966V19.7734H157.709V17.2332H160.092V12.4425H163.283V17.2332H166.833V19.7734H163.283V26.5912C163.283 28.0695 163.722 28.6653 165.305 28.6653C165.77 28.6667 166.234 28.6064 166.684 28.486V30.9986C165.912 31.1183 165.132 31.1791 164.35 31.1806C160.845 31.1806 160.092 29.8843 160.092 27.3966Z" fill="#171C1E"/>
<path d="M183.038 15.9713H176.833V14.2613H191.064V15.9713H184.878V33.4434H183.038V15.9713Z" fill="#171C1E"/>
<path d="M190.016 26.601C190.016 21.7524 193.127 19.5239 196.004 19.5239C199.192 19.5239 201.578 21.9592 201.578 26.6258V26.965H191.803C191.831 30.3326 193.748 32.2274 196.106 32.2274C198.155 32.2274 199.322 31.3448 200.359 29.7451L201.462 30.6277C200.271 32.5583 198.585 33.7388 195.993 33.7388C192.829 33.7305 190.016 31.2676 190.016 26.601ZM199.84 25.5391C199.658 22.9466 198.414 21.027 195.979 21.027C194.01 21.027 192.17 22.4529 191.842 25.5391H199.84Z" fill="#171C1E"/>
<path d="M203.585 30.2555C203.585 27.5609 205.891 25.5889 212.839 24.527V23.8265C212.839 21.9345 211.854 21.0271 210.064 21.0271C207.913 21.0271 206.385 21.9345 204.959 23.1783L203.999 22.0751C205.632 20.572 207.524 19.535 210.221 19.535C213.28 19.535 214.601 21.1677 214.601 23.8899V30.0845C214.601 31.7393 214.706 32.757 214.99 33.4548H213.15C212.942 32.8278 212.837 32.1711 212.839 31.5104C211.258 32.9363 209.496 33.6892 207.447 33.6892C205.003 33.6782 203.585 32.3819 203.585 30.2555ZM212.839 30.0486V25.7957C206.981 26.7831 205.348 28.2338 205.348 30.0238C205.348 31.4497 206.308 32.1999 207.83 32.1999C209.747 32.1999 211.432 31.3973 212.83 30.0569L212.839 30.0486Z" fill="#171C1E"/>
<path d="M217.969 19.7831H219.756V21.9344C221.135 20.5857 222.713 19.5239 224.759 19.5239C227.068 19.5239 228.105 20.5333 228.518 21.9868C229.944 20.6381 231.654 19.5239 233.679 19.5239C236.478 19.5239 237.617 21.1042 237.617 23.5671V33.4437H235.83V23.9036C235.83 21.973 235.182 21.0518 233.262 21.0518C231.607 21.0518 230.228 21.9592 228.7 23.4375V33.4437H226.91V23.9036C226.91 21.973 226.262 21.0518 224.318 21.0518C222.685 21.0518 221.284 21.9592 219.756 23.4375V33.4437H217.969V19.7831Z" fill="#171C1E"/>
<path d="M239.958 14.7026H238.72V14.2613H241.685V14.7026H240.455V18.2273H239.958V14.7026ZM242.388 14.2613H243.025L244.217 17.5709L245.425 14.2613H246.081V18.2273H245.576V15.1135L244.432 18.2273H244.01L242.857 15.1135V18.2273H242.388V14.2613Z" fill="#171C1E"/>
</svg>
