<svg width="32" height="32" viewBox="0 0 32 32" fill="none" xmlns="http://www.w3.org/2000/svg">
<path d="M8.87368 11.817L4.72433 9.43476L15.9993 3L27.3089 9.4553L23.1471 11.8293L15.9979 7.7494L8.87091 11.817H8.87368ZM15.3138 16.3022L15.329 9.7168L9.55093 13.015V19.5921L15.3138 16.3035V16.3022ZM16.0048 17.4878L10.2434 20.7764L16.0048 24.065L21.7649 20.7777L16.0048 17.4878ZM22.4602 19.5921V13.0136L16.7153 9.7346L16.7001 16.3022L22.4615 19.5921H22.4602ZM8.16042 12.9903L4 10.6026V23.5461L15.3068 30V25.2506L8.16042 21.1721V12.9917V12.9903ZM23.8396 13.015V21.1707L16.6932 25.2492V29.9986L28 23.5447V10.6423L23.8396 13.0163V13.015Z" class="logo-accent"/>
</svg>
