<svg width="27.27" height="28.01" viewBox="12 10 27.27 28.01" fill="none" xmlns="http://www.w3.org/2000/svg">
<g>
<path d="M12.6846 14.7798C12.5183 15.4064 12.2754 16.5062 12.1155 18.0216V18.0248C12.0963 18.239 12.0739 18.4564 12.0548 18.6834C11.9493 20.0805 11.994 21.4585 12.2082 22.7213C13.0299 27.1493 15.3094 32.1655 25.4153 37.8499C25.5049 37.901 25.5912 37.9522 25.6807 38.0034C25.7702 37.9522 25.8565 37.9042 25.9461 37.8531C36.052 32.1719 38.3315 27.1525 39.1564 22.7245C39.2011 22.456 39.2363 22.181 39.2683 21.9029L12.6846 14.7798Z" fill="#019AEB"/>
<path d="M38.9676 16.3907C38.7118 14.9457 38.4241 14.1624 38.4241 14.1624L38.4113 14.1688C37.9157 12.5159 36.5186 9.99658 36.5186 9.99658H14.7146C14.7146 9.99658 13.7458 11.6623 13.3462 12.7269C13.343 12.7397 13.343 12.7493 13.3398 12.7589C13.2407 13.0146 13.148 13.2352 13.0585 13.491C13.0105 13.6189 12.953 13.8171 12.9082 13.9865L38.9708 16.3907H38.9676Z" fill="#019AEB"/>
</g></svg>
