<svg width="321" height="48" viewBox="0 0 321 48" fill="none" xmlns="http://www.w3.org/2000/svg">
<path d="M22.8188 33.1486L25.3228 23.986L21.1766 8.55505H12L20.1941 39.4451H29.4353L27.7706 33.2188L22.8188 33.1486Z" class="logo-accent"/>
<path d="M30.968 8.55505L26.8442 23.986L28.9356 31.571H34.0025L40.2288 8.55505H30.968Z" class="logo-accent"/>
<path d="M57.0165 31.2046L50.2288 11.5994H53.5974L58.625 26.8338H58.6783L63.7958 11.6106H66.9117L60.1296 31.2158L57.0165 31.2046Z" class="logo-text"/>
<path d="M68.8206 14.6844V11.8772H72.147V14.6844H68.8206ZM68.8486 31.1231V17.1126H72.1246V31.1231H68.8486Z" class="logo-text"/>
<path d="M74.4409 24.1335C74.4409 18.7999 78.2166 16.8489 81.1192 16.8489C84.2576 16.8489 87.2668 18.7241 87.2668 24.4282V25.1918H77.6888C77.8207 27.7182 79.3731 28.8411 81.4336 28.8411C83.2554 28.8411 84.3109 28.2319 85.3636 27.2045L87.0787 28.8888C85.6274 30.5001 83.7102 31.4152 81.1837 31.4152C77.6888 31.4152 74.4409 29.2762 74.4409 24.1335ZM84.2828 22.7608C84.1004 20.6217 83.0449 19.4876 81.0911 19.4876C79.5078 19.4876 78.0565 20.3859 77.7393 22.7608H84.2828Z" class="logo-text"/>
<path d="M91.9208 31.1232L87.7522 17.1127H91.0506L92.5805 22.9179C93.0016 24.5011 93.2655 25.5819 93.636 27.3785H93.6893C94.1104 25.478 94.349 24.4759 94.7954 22.8645L96.2663 17.1127H98.905L100.477 22.9712C100.926 24.5264 101.165 25.5819 101.561 27.3785H101.6C102.021 25.5566 102.26 24.5545 102.706 23.0246L104.289 17.1127H107.245L103.076 31.1232H100.048L97.5211 21.388H97.4678L94.9413 31.1232H91.9208Z" class="logo-text"/>
<path d="M108.898 36.4007V17.1127H112.155V18.9739C112.69 18.3082 113.369 17.7725 114.141 17.4069C114.913 17.0413 115.758 16.8553 116.613 16.8629C119.807 16.8629 122.154 19.2658 122.154 24.1194C122.154 28.973 119.754 31.3254 116.163 31.3254C115.408 31.3313 114.66 31.1766 113.969 30.8718C113.278 30.5669 112.66 30.1187 112.155 29.5569V36.3895L108.898 36.4007ZM118.898 24.1334C118.898 21.1775 117.632 19.6195 115.546 19.6195C114.201 19.6195 112.907 20.4617 112.144 21.388V27.0024C112.526 27.5229 113.021 27.95 113.593 28.2515C114.164 28.5529 114.796 28.7209 115.442 28.7428C117.907 28.7484 118.909 27.2466 118.909 24.1334H118.898Z" class="logo-text"/>
<path d="M123.777 24.1335C123.777 18.9599 127.179 16.8489 130.609 16.8489C134.04 16.8489 137.442 18.9599 137.442 24.1335C137.442 29.2509 134.014 31.4152 130.609 31.4152C127.204 31.4152 123.777 29.2509 123.777 24.1335ZM134.163 24.1335C134.163 21.52 133.054 19.6195 130.601 19.6195C128.251 19.6195 127.039 21.3038 127.039 24.1335C127.039 26.7975 128.119 28.6979 130.601 28.6979C132.956 28.6979 134.163 27.008 134.163 24.1335Z" class="logo-text"/>
<path d="M139.777 14.6844V11.8772H143.09V14.6844H139.777ZM139.803 31.1231V17.1126H143.076V31.1231H139.803Z" class="logo-text"/>
<path d="M146.113 31.1232V17.1126H149.358V19.3584C150.413 18.1457 152.05 16.8516 154.371 16.8516C156.932 16.8516 158.515 18.1709 158.515 20.9416V31.126H155.27V21.8623C155.27 20.3324 154.635 19.5408 153.159 19.5408C151.733 19.5408 150.545 20.2538 149.358 21.3599V31.1232H146.113Z" class="logo-text"/>
<path d="M162.554 27.457V19.698H160.126V17.1126H162.554V12.2366H165.799V17.1126H169.412V19.698H165.799V26.6373C165.799 28.1419 166.246 28.7483 167.857 28.7483C168.331 28.7497 168.803 28.6884 169.261 28.5658V31.1231C168.475 31.245 167.681 31.3069 166.886 31.3084C163.318 31.3084 162.554 29.9891 162.554 27.457Z" class="logo-text"/>
<path d="M179.412 11.5741H191.073V13.3145H181.285V19.9366H188.583V21.6209H181.285V29.3771H191.626V31.0923H179.412V11.5741Z" class="logo-text"/>
<path d="M193.673 28.8831L194.835 27.8276C195.356 28.4685 196.017 28.9821 196.766 29.3294C197.516 29.6767 198.335 29.8486 199.161 29.8319C201.536 29.8319 202.776 28.9617 202.776 27.4037C202.776 25.8457 201.668 25.2674 198.95 24.633C195.759 23.8414 194.122 22.9993 194.122 20.5711C194.122 18.606 195.837 16.9218 198.844 16.9218C201.218 16.9218 202.751 17.7134 203.989 18.9261L202.962 20.1416C202.438 19.5928 201.806 19.1575 201.107 18.8625C200.408 18.5675 199.656 18.419 198.897 18.4264C196.733 18.4264 195.891 19.4285 195.891 20.484C195.891 21.8287 196.839 22.3845 199.259 22.9628C202.743 23.8049 204.537 24.6471 204.537 27.37C204.537 29.8965 202.266 31.3534 199.127 31.3534C196.654 31.3618 194.728 30.3063 193.673 28.8831Z" class="logo-text"/>
<path d="M208.489 27.8529V18.7493H206.061V17.1941H208.489V12.2114H210.311V17.1941H213.924V18.7493H210.311V27.4852C210.311 28.9618 210.785 29.7534 212.501 29.7534C212.991 29.7654 213.48 29.703 213.952 29.5681V31.1261C213.359 31.2268 212.759 31.2793 212.158 31.2833C209.503 31.2833 208.489 30.2559 208.489 27.8529Z" class="logo-text"/>
<path d="M216.335 12.0232H218.261V13.9882H216.335V12.0232ZM216.388 17.194H218.205V31.0979H216.385L216.388 17.194Z" class="logo-text"/>
<path d="M221.775 17.194H223.597V19.3836C225.001 18.0109 226.604 16.9302 228.689 16.9302C231.036 16.9302 232.092 17.9576 232.513 19.437C233.964 18.0643 235.707 16.9302 237.765 16.9302C240.614 16.9302 241.776 18.5387 241.776 21.0455V31.0979H239.955V21.3879C239.955 19.4229 239.295 18.4853 237.344 18.4853C235.66 18.4853 234.256 19.4089 232.698 20.9135V31.0979H230.879V21.3879C230.879 19.4229 230.219 18.4853 228.24 18.4853C226.578 18.4853 225.152 19.4089 223.597 20.9135V31.0979H221.775V17.194Z" class="logo-text"/>
<path d="M244.375 27.8528C244.375 25.1102 246.725 23.1031 253.796 22.0224V21.3093C253.796 19.3836 252.791 18.4601 250.972 18.4601C248.783 18.4601 247.225 19.3836 245.773 20.6497L244.797 19.5268C246.461 17.9969 248.387 16.9414 251.13 16.9414C254.243 16.9414 255.59 18.6032 255.59 21.3739V27.6788C255.59 29.3631 255.694 30.3989 255.986 31.1091H254.111C253.901 30.4705 253.795 29.8023 253.796 29.1301C252.185 30.5814 250.391 31.3478 248.308 31.3478C245.827 31.3365 244.375 30.0172 244.375 27.8528ZM253.796 27.6423V23.3137C247.831 24.3186 246.169 25.7952 246.169 27.617C246.169 29.0683 247.146 29.8319 248.696 29.8319C250.655 29.8319 252.37 29.015 253.796 27.6507V27.6423Z" class="logo-text"/>
<path d="M259.866 27.8529V18.7493H257.438V17.1941H259.866V12.2114H261.685V17.1941H265.3V18.7493H261.685V27.4852C261.685 28.9618 262.159 29.7534 263.874 29.7534C264.365 29.7654 264.854 29.703 265.326 29.5681V31.1261C264.733 31.227 264.133 31.2796 263.532 31.2833C260.873 31.2833 259.866 30.2559 259.866 27.8529Z" class="logo-text"/>
<path d="M267.709 12.0232H269.635V13.9882H267.709V12.0232ZM267.762 17.194H269.576V31.0979H267.754L267.762 17.194Z" class="logo-text"/>
<path d="M273.149 17.194H274.971V19.3836C276.315 18.0643 278.084 16.9302 280.274 16.9302C283.019 16.9302 284.417 18.4601 284.417 21.0455V31.0979H282.595V21.3879C282.595 19.4229 281.725 18.4853 279.827 18.4853C278.031 18.4853 276.529 19.4089 274.971 20.9135V31.0979H273.149V17.194Z" class="logo-text"/>
<path d="M286.351 32.9451C286.351 31.5219 287.302 30.4187 288.911 29.7786C288.069 29.4362 287.67 28.8551 287.67 28.0129C287.67 27.1708 288.358 26.455 289.354 25.9272C288.69 25.5004 288.147 24.9097 287.777 24.212C287.408 23.5143 287.224 22.7332 287.244 21.9439C287.244 18.9879 289.59 16.9303 292.732 16.9303C294.183 16.8894 295.597 17.3976 296.69 18.3535C297.647 17.6822 298.751 17.2483 299.909 17.0875V18.8026C299.044 18.7923 298.186 18.9536 297.383 19.2771C297.943 20.0514 298.231 20.9889 298.203 21.9439C298.203 24.9784 295.828 26.876 292.74 26.876C291.973 26.8847 291.212 26.7504 290.494 26.4802C289.835 26.7441 289.371 27.1399 289.371 27.6677C289.371 28.2487 289.874 28.566 291.429 28.7232L294.464 28.9618C297.683 29.2256 299.373 30.3345 299.373 32.496C299.373 35.0224 296.735 36.426 292.934 36.426C288.437 36.4288 286.351 35.0842 286.351 32.9451ZM297.697 32.6644C297.697 31.345 296.642 30.6854 293.896 30.4748L291.129 30.2643L290.416 30.1829C288.858 30.6854 288.094 31.6623 288.094 32.7093C288.094 34.1606 289.624 35.0028 293.147 35.0028C295.982 35.0028 297.697 34.054 297.697 32.656V32.6644ZM296.485 21.9775C296.485 19.7627 295.112 18.39 292.737 18.39C290.441 18.39 289.018 19.8132 289.018 21.9775C289.018 24.1419 290.494 25.4865 292.762 25.4865C295.031 25.4865 296.485 24.1082 296.485 21.9691V21.9775Z" class="logo-text"/>
<path d="M302.296 12.0232H301.039V11.5741H304.053V12.0232H302.804V15.6108H302.296V12.0232ZM304.769 11.5741H305.426L306.639 14.9427L307.871 11.5741H308.539V15.6108H308.034V12.4415L306.861 15.6108H306.431L305.258 12.4415V15.6108H304.781L304.769 11.5741Z" class="logo-text"/>
</svg>
