<svg width="389" height="48" viewBox="0 0 389 48" fill="none" xmlns="http://www.w3.org/2000/svg">
<path d="M22.8188 33.1457L25.3228 23.986L21.1766 8.55499H12L20.1941 39.445H29.4353L27.7706 33.2159L22.8188 33.1457Z" class="logo-accent"/>
<path d="M30.968 8.55499L26.8442 23.986L28.9356 31.5709H34.0025L40.2288 8.55499H30.968Z" class="logo-accent"/>
<path d="M57.0167 31.1904L50.229 11.5992H53.5976L58.6365 26.8253H58.6898L63.796 11.5992H66.912L60.1299 31.2045L57.0167 31.1904Z" class="logo-text"/>
<path d="M68.8208 14.6872V11.8491H72.1473V14.6872H68.8208ZM68.8489 31.1259V17.1013H72.1248V31.1119L68.8489 31.1259Z" class="logo-text"/>
<path d="M74.4434 24.1193C74.4434 18.7857 78.2162 16.8375 81.1188 16.8375C84.2572 16.8375 87.2665 18.7099 87.2665 24.4169V25.1804H77.6884C77.8204 27.7069 79.3727 28.8297 81.4332 28.8297C83.255 28.8297 84.3105 28.2234 85.3632 27.1959L87.0784 28.8802C85.6271 30.4887 83.7098 31.4067 81.1833 31.4067C77.6884 31.4011 74.4434 29.2648 74.4434 24.1193ZM84.2853 22.7466C84.1 20.6103 83.0445 19.4763 81.0907 19.4763C79.5075 19.4763 78.0562 20.3717 77.739 22.7466H84.2853Z" class="logo-text"/>
<path d="M91.9211 31.112L87.7524 17.1014H91.0509L92.5808 22.9066C93.0018 24.4899 93.2657 25.5706 93.6362 27.3644H93.6896C94.1107 25.4668 94.3493 24.4618 94.7984 22.8533L96.2666 17.1014H98.9053L100.477 22.96C100.926 24.5152 101.165 25.5706 101.561 27.3644H101.6C102.021 25.5454 102.26 24.5573 102.706 23.0105L104.295 17.1014H107.251L103.082 31.112H100.048L97.5214 21.3767H97.468L94.9416 31.112H91.9211Z" class="logo-text"/>
<path d="M108.899 36.3895V17.1015H112.155V18.9486C112.691 18.283 113.37 17.7472 114.142 17.3816C114.914 17.016 115.759 16.83 116.613 16.8376C119.808 16.8376 122.154 19.2377 122.154 24.0941C122.154 28.9505 119.754 31.3226 116.164 31.3226C115.409 31.3299 114.662 31.177 113.971 30.8741C113.28 30.5711 112.661 30.1251 112.155 29.5653V36.4007L108.899 36.3895ZM118.898 24.1194C118.898 21.1635 117.632 19.6083 115.546 19.6083C114.202 19.6083 112.908 20.4504 112.144 21.3768V26.9911C112.526 27.5117 113.022 27.9388 113.593 28.2402C114.165 28.5417 114.797 28.7097 115.442 28.7316C117.907 28.7372 118.909 27.2325 118.909 24.1194H118.898Z" class="logo-text"/>
<path d="M123.777 24.1193C123.777 18.9485 127.179 16.8375 130.609 16.8375C134.04 16.8375 137.442 18.9485 137.442 24.1193C137.442 29.2396 134.015 31.4011 130.609 31.4011C127.204 31.4011 123.777 29.2396 123.777 24.1193ZM134.163 24.1193C134.163 21.5086 133.055 19.6082 130.601 19.6082C128.251 19.6082 127.039 21.2925 127.039 24.1193C127.039 26.7861 128.122 28.6837 130.601 28.6837C132.956 28.6837 134.163 26.9966 134.163 24.1193Z" class="logo-text"/>
<path d="M139.777 14.6872V11.8491H143.09V14.6872H139.777ZM139.803 31.1259V17.1013H143.076V31.1119L139.803 31.1259Z" class="logo-text"/>
<path d="M146.113 31.1119V17.1014H149.358V19.3471C150.414 18.1344 152.05 16.8403 154.372 16.8403C156.932 16.8403 158.515 18.1597 158.515 20.9304V31.1147H155.27V21.8511C155.27 20.3212 154.636 19.5296 153.159 19.5296C151.733 19.5296 150.546 20.2398 149.358 21.3486V31.1119H146.113Z" class="logo-text"/>
<path d="M162.555 27.4431V19.6869H160.126V17.1015H162.555V12.2198H165.8V17.1015H169.413V19.6869H165.8V26.6262C165.8 28.1308 166.246 28.7372 167.857 28.7372C168.332 28.7392 168.804 28.6769 169.261 28.5519V31.112C168.475 31.2324 167.681 31.2944 166.886 31.2973C163.318 31.2973 162.555 29.9779 162.555 27.4431Z" class="logo-text"/>
<path d="M179.412 28.991L180.731 27.9889C181.574 29.2268 182.579 30.0185 184.162 30.0185C186.245 30.0185 187.643 28.991 187.643 26.0604V11.8H189.518V26.1165C189.518 29.8107 187.511 31.7112 184.24 31.7112C181.832 31.6831 180.428 30.5462 179.412 28.991Z" class="logo-text"/>
<path d="M192.558 24.3734C192.558 19.7304 195.433 17.1422 198.863 17.1422C202.293 17.1422 205.131 19.7304 205.131 24.3734C205.131 29.0164 202.257 31.6018 198.852 31.6018C195.447 31.6018 192.558 28.9912 192.558 24.3734ZM203.324 24.3453C203.324 21.3136 201.794 18.7001 198.863 18.7001C196.056 18.7001 194.372 21.075 194.372 24.3453C194.372 27.4332 195.876 30.0467 198.863 30.0467C201.662 30.0467 203.324 27.6971 203.324 24.3453Z" class="logo-text"/>
<path d="M209.766 29.4121V31.3126H207.938V11.8H209.758V19.4523C210.88 18.2115 212.318 17.1561 214.403 17.1561C217.595 17.1561 220.127 19.5056 220.127 24.3592C220.127 29.2128 217.57 31.5624 214.232 31.5624C212.458 31.5484 211.007 30.6782 209.766 29.4121ZM218.317 24.3592C218.317 20.5078 216.416 18.686 214.106 18.686C212.391 18.686 211.097 19.5842 209.777 20.9822V27.7362C211.15 29.1875 212.497 30.0044 214.106 30.0044C216.548 30.0185 218.325 28.3033 218.325 24.3733L218.317 24.3592Z" class="logo-text"/>
<path d="M223.038 17.4144H224.86V19.3795C225.983 18.192 227.42 17.1337 229.503 17.1337C232.698 17.1337 235.23 19.4833 235.23 24.3369C235.23 29.1905 232.67 31.5401 229.335 31.5401C227.541 31.5401 226.09 30.6699 224.843 29.4038V36.5817H223.021L223.038 17.4144ZM233.408 24.3818C233.408 20.5304 231.51 18.7085 229.197 18.7085C227.482 18.7085 226.188 19.6068 224.869 21.0048V27.7588C226.241 29.2101 227.586 30.027 229.197 30.027C231.642 30.0186 233.408 28.3034 233.408 24.3734V24.3818Z" class="logo-text"/>
<path d="M237.161 28.0817C237.161 25.3363 239.511 23.3319 246.582 22.2512V21.5382C246.582 19.6125 245.58 18.6889 243.758 18.6889C241.568 18.6889 240.01 19.6125 238.559 20.8785L237.585 19.7556C239.247 18.2229 241.173 17.1674 243.918 17.1674C247.031 17.1674 248.376 18.8321 248.376 21.6027V27.9076C248.376 29.5919 248.482 30.6249 248.772 31.338H246.899C246.688 30.7043 246.581 30.0408 246.582 29.373C244.971 30.8243 243.177 31.5878 241.094 31.5878C238.612 31.5485 237.161 30.2319 237.161 28.0817ZM246.582 27.8711V23.5284C240.62 24.5306 238.955 26.01 238.955 27.829C238.955 29.2803 239.932 30.0467 241.481 30.0467C243.441 30.0467 245.156 29.227 246.582 27.8571V27.8711Z" class="logo-text"/>
<path d="M250.997 24.3734C250.997 19.3851 254.085 17.1422 257.195 17.1422C260.179 17.1422 261.656 18.9107 262.529 20.943L260.971 21.6252C260.205 19.7528 259.096 18.6973 257.145 18.6973C255.087 18.6973 252.816 20.1739 252.816 24.3425C252.816 27.9918 254.663 30.0439 257.091 30.0439C259.017 30.0439 260.098 29.1456 261.075 27.0879L262.554 27.7223C261.445 30.0691 259.834 31.599 257.013 31.599C253.818 31.6018 250.997 28.9912 250.997 24.3734Z" class="logo-text"/>
<path d="M271.209 21.4707C271.209 15.5757 274.454 11.4183 279.35 11.4183C283.308 11.4183 285.497 13.7651 286.421 17.3807L284.627 17.8298C283.757 14.742 282.306 13.1334 279.324 13.1334C275.549 13.1334 273.095 16.4038 273.095 21.4174C273.095 26.8268 275.577 29.9933 279.375 29.9933C282.278 29.9933 284.099 28.309 284.944 25.033L286.738 25.4288C285.787 29.2802 283.255 31.6832 279.35 31.6832C274.401 31.6832 271.209 27.697 271.209 21.4707Z" class="logo-text"/>
<path d="M288.967 24.3734C288.967 19.7304 291.844 17.1422 295.275 17.1422C298.705 17.1422 301.554 19.7304 301.554 24.3734C301.554 29.0164 298.677 31.6018 295.275 31.6018C291.872 31.6018 288.967 28.9912 288.967 24.3734ZM299.732 24.3453C299.732 21.3136 298.202 18.7001 295.275 18.7001C292.45 18.7001 290.783 21.075 290.783 24.3453C290.783 27.4332 292.285 30.0467 295.275 30.0467C298.07 30.0467 299.732 27.6971 299.732 24.3453Z" class="logo-text"/>
<path d="M304.356 17.4146H306.189V19.607C307.534 18.2876 309.302 17.1507 311.492 17.1507C314.234 17.1507 315.635 18.6834 315.635 21.2688V31.3212H313.813V21.6029C313.813 19.6378 312.943 18.7002 311.043 18.7002C309.249 18.7002 307.744 19.6238 306.189 21.1284V31.3128H304.367L304.356 17.4146Z" class="logo-text"/>
<path d="M319.077 17.4146H320.899V19.607C322.244 18.2876 324.012 17.1507 326.202 17.1507C328.947 17.1507 330.345 18.6834 330.345 21.2688V31.3212H328.523V21.6029C328.523 19.6378 327.653 18.7002 325.753 18.7002C323.959 18.7002 322.454 19.6238 320.899 21.1284V31.3128H319.077V17.4146Z" class="logo-text"/>
<path d="M333.076 24.3453C333.076 19.4131 336.243 17.1422 339.171 17.1422C342.416 17.1422 344.844 19.6237 344.844 24.3734V24.7131H334.895C334.923 28.1434 336.86 30.0691 339.277 30.0691C341.36 30.0691 342.548 29.1736 343.603 27.5427L344.726 28.4382C343.513 30.4032 341.798 31.6046 339.159 31.6046C335.925 31.6018 333.076 29.095 333.076 24.3453ZM343.075 23.2646C342.89 20.6258 341.624 18.6749 339.145 18.6749C337.138 18.6749 335.266 20.1262 334.935 23.2646H343.075Z" class="logo-text"/>
<path d="M346.96 24.3734C346.96 19.3851 350.048 17.1422 353.161 17.1422C356.143 17.1422 357.619 18.9107 358.495 20.943L356.937 21.628C356.171 19.7556 355.065 18.7001 353.111 18.7001C351.053 18.7001 348.785 20.1767 348.785 24.3453C348.785 27.9946 350.632 30.0467 353.058 30.0467C354.983 30.0467 356.067 29.1484 357.044 27.0907L358.52 27.7251C357.397 30.0719 355.803 31.6018 352.979 31.6018C349.784 31.6018 346.96 28.9912 346.96 24.3734Z" class="logo-text"/>
<path d="M362.136 28.0817V18.9641H359.708V17.4145H362.136V12.4206H363.955V17.4145H367.57V18.9725H363.955V27.7056C363.955 29.185 364.432 29.9766 366.147 29.9766C366.637 29.9886 367.127 29.9262 367.598 29.7913V31.3465C367.005 31.4497 366.404 31.5033 365.802 31.5065C363.138 31.4981 362.136 30.4678 362.136 28.0817Z" class="logo-text"/>
<path d="M369.954 12.2351H368.693V11.8H371.708V12.2491H370.473V15.8227H369.968L369.954 12.2351ZM372.438 11.8H373.098L374.31 15.1686L375.526 11.8H376.194V15.8227H375.68V12.6562L374.507 15.8227H374.077L372.901 12.6562V15.8227H372.438V11.8Z" class="logo-text"/>
</svg>
