<svg width="329" height="48" viewBox="0 0 329 48" fill="none" xmlns="http://www.w3.org/2000/svg">
<path d="M22.8188 33.1486L25.3228 23.986L21.1766 8.55505H12L20.1941 39.4451H29.4353L27.7706 33.2188L22.8188 33.1486Z" class="logo-accent"/>
<path d="M30.968 8.55505L26.8442 23.986L28.9356 31.571H34.0025L40.2288 8.55505H30.968Z" class="logo-accent"/>
<path d="M57.0165 31.2046L50.2288 11.5994H53.5974L58.625 26.8338H58.6783L63.7958 11.6106H66.9117L60.1296 31.2158L57.0165 31.2046Z" class="logo-text"/>
<path d="M68.8206 14.6844V11.8772H72.147V14.6844H68.8206ZM68.8486 31.1231V17.1126H72.1246V31.1231H68.8486Z" class="logo-text"/>
<path d="M74.4434 24.1333C74.4434 18.7997 78.2162 16.8488 81.1188 16.8488C84.2572 16.8488 87.2665 18.7239 87.2665 24.4281V25.1916H77.6884C77.8204 27.7181 79.3727 28.8409 81.4332 28.8409C83.255 28.8409 84.3105 28.2318 85.3632 27.2044L87.0784 28.8887C85.6271 30.5 83.7098 31.4151 81.1833 31.4151C77.6884 31.4151 74.4434 29.2761 74.4434 24.1333ZM84.2853 22.7606C84.1 20.6216 83.0445 19.4875 81.0907 19.4875C79.5075 19.4875 78.0562 20.3858 77.739 22.7606H84.2853Z" class="logo-text"/>
<path d="M91.9208 31.1232L87.7522 17.1127H91.0506L92.5805 22.9179C93.0016 24.5011 93.2655 25.5819 93.636 27.3785H93.6893C94.1104 25.478 94.349 24.4759 94.7982 22.8645L96.2663 17.1127H98.905L100.477 22.9712C100.926 24.5264 101.165 25.5819 101.561 27.3785H101.6C102.021 25.5566 102.26 24.5545 102.706 23.0246L104.289 17.1127H107.245L103.076 31.1232H100.048L97.5211 21.388H97.4678L94.9413 31.1232H91.9208Z" class="logo-text"/>
<path d="M108.898 36.4006V17.1126H112.155V18.9738C112.69 18.3081 113.369 17.7724 114.141 17.4068C114.913 17.0412 115.758 16.8552 116.613 16.8628C119.807 16.8628 122.154 19.2657 122.154 24.1193C122.154 28.9729 119.754 31.3253 116.163 31.3253C115.408 31.3311 114.66 31.1765 113.969 30.8716C113.278 30.5668 112.66 30.1186 112.155 29.5568V36.3894L108.898 36.4006ZM118.898 24.1333C118.898 21.1774 117.632 19.6194 115.546 19.6194C114.201 19.6194 112.907 20.4616 112.144 21.3879V27.0022C112.526 27.5228 113.021 27.9499 113.593 28.2513C114.164 28.5528 114.796 28.7208 115.442 28.7427C117.907 28.7483 118.909 27.2465 118.909 24.1333H118.898Z" class="logo-text"/>
<path d="M123.777 24.1333C123.777 18.9597 127.179 16.8488 130.609 16.8488C134.04 16.8488 137.442 18.9597 137.442 24.1333C137.442 29.2508 134.014 31.4151 130.609 31.4151C127.204 31.4151 123.777 29.2508 123.777 24.1333ZM134.163 24.1333C134.163 21.5199 133.054 19.6194 130.601 19.6194C128.251 19.6194 127.039 21.3037 127.039 24.1333C127.039 26.7973 128.122 28.6978 130.601 28.6978C132.956 28.6978 134.163 27.0079 134.163 24.1333Z" class="logo-text"/>
<path d="M139.777 14.6844V11.8772H143.09V14.6844H139.777ZM139.803 31.1231V17.1126H143.076V31.1231H139.803Z" class="logo-text"/>
<path d="M146.113 31.1232V17.1126H149.358V19.3584C150.413 18.1457 152.05 16.8516 154.371 16.8516C156.932 16.8516 158.515 18.1709 158.515 20.9416V31.126H155.27V21.8623C155.27 20.3324 154.635 19.5408 153.159 19.5408C151.733 19.5408 150.545 20.2538 149.358 21.3599V31.1232H146.113Z" class="logo-text"/>
<path d="M162.554 27.457V19.698H160.126V17.1126H162.554V12.2366H165.799V17.1126H169.412V19.698H165.799V26.6373C165.799 28.1419 166.246 28.7483 167.857 28.7483C168.331 28.7497 168.803 28.6884 169.261 28.5658V31.1231C168.475 31.245 167.681 31.3069 166.886 31.3084C163.318 31.3084 162.554 29.9891 162.554 27.457Z" class="logo-text"/>
<path d="M179.412 24.1338C179.412 19.1989 182.576 16.9307 185.507 16.9307C188.752 16.9307 191.18 19.4094 191.18 24.1591V24.5044H181.231C181.259 27.9319 183.21 29.8604 185.611 29.8604C187.696 29.8604 188.884 28.9622 189.939 27.334L191.062 28.2323C189.849 30.1973 188.134 31.3988 185.495 31.3988C182.262 31.3903 179.412 28.8836 179.412 24.1338ZM189.411 23.0531C189.226 20.4144 187.96 18.4606 185.481 18.4606C183.477 18.4606 181.605 19.9119 181.271 23.0531H189.411Z" class="logo-text"/>
<path d="M194.363 11.5746H200.864C205.111 11.5746 207.697 13.315 207.697 16.9082C207.697 20.8382 204.794 22.4495 200.679 22.4495H196.238V31.104H194.363V11.5746ZM200.802 20.7821C204.022 20.7821 205.816 19.7799 205.816 16.9559C205.816 14.3172 204.047 13.2898 200.763 13.2898H196.238V20.7821H200.802Z" class="logo-text"/>
<path d="M209.379 27.8533C209.379 25.1107 211.728 23.1036 218.8 22.0229V21.3098C218.8 19.3841 217.795 18.4606 215.976 18.4606C213.786 18.4606 212.228 19.3841 210.777 20.6502L209.8 19.5273C211.462 17.9974 213.39 16.9419 216.133 16.9419C219.246 16.9419 220.593 18.6037 220.593 21.3744V27.6793C220.593 29.3636 220.697 30.3994 220.989 31.1096H219.111C218.901 30.471 218.795 29.8028 218.797 29.1306C217.185 30.5819 215.392 31.3482 213.306 31.3482C210.83 31.337 209.379 30.0176 209.379 27.8533ZM218.8 27.6428V23.3141C212.834 24.3191 211.172 25.7957 211.172 27.6175C211.172 29.0688 212.149 29.8324 213.699 29.8324C215.658 29.8324 217.373 29.0155 218.8 27.6512V27.6428Z" class="logo-text"/>
<path d="M221.792 36.14L222.213 34.6353C222.843 34.7883 223.49 34.8591 224.139 34.8459C225.643 34.8459 226.41 34.1862 226.988 32.7096L227.569 31.1797L222.199 17.1945H224.15L228.479 28.9368H228.532L232.833 17.1945H234.73L228.731 32.704C227.808 35.1827 226.766 36.4235 224.085 36.4235C223.311 36.4407 222.539 36.3452 221.792 36.14Z" class="logo-text"/>
<path d="M236.908 17.1945H238.727V19.3841C240.131 18.0114 241.737 16.9307 243.822 16.9307C246.169 16.9307 247.225 17.9581 247.646 19.4375C249.097 18.0648 250.84 16.9307 252.898 16.9307C255.747 16.9307 256.909 18.5392 256.909 21.046V31.0984H255.087V21.3884C255.087 19.4234 254.428 18.4858 252.477 18.4858C250.792 18.4858 249.389 19.4094 247.831 20.914V31.0984H246.012V21.3884C246.012 19.4234 245.352 18.4858 243.373 18.4858C241.711 18.4858 240.285 19.4094 238.727 20.914V31.0984H236.908V17.1945Z" class="logo-text"/>
<path d="M259.683 24.1338C259.683 19.1989 262.85 16.9307 265.777 16.9307C269.023 16.9307 271.451 19.4094 271.451 24.1591V24.5044H261.499C261.525 27.9319 263.464 29.8604 265.878 29.8604C267.961 29.8604 269.149 28.9622 270.204 27.334L271.341 28.2323C270.126 30.1973 268.411 31.3988 265.772 31.3988C262.532 31.3903 259.683 28.8836 259.683 24.1338ZM269.682 23.0531C269.5 20.4144 268.231 18.4606 265.752 18.4606C263.745 18.4606 261.873 19.9119 261.541 23.0531H269.682Z" class="logo-text"/>
<path d="M274.255 17.1945H276.074V19.3841C277.419 18.0648 279.187 16.9307 281.377 16.9307C284.122 16.9307 285.52 18.4606 285.52 21.046V31.0984H283.701V21.3884C283.701 19.4234 282.828 18.4858 280.93 18.4858C279.134 18.4858 277.632 19.4094 276.074 20.914V31.0984H274.255V17.1945Z" class="logo-text"/>
<path d="M289.851 27.8533V18.7497H287.423V17.1945H289.851V12.2118H291.673V17.1945H295.286V18.7497H291.673V27.4856C291.673 28.9621 292.148 29.7537 293.863 29.7537C294.353 29.7658 294.842 29.7033 295.314 29.5685V31.1264C294.721 31.2271 294.121 31.2797 293.52 31.2836C290.839 31.2836 289.851 30.2562 289.851 27.8533Z" class="logo-text"/>
<path d="M297.049 28.8836L298.211 27.8281C298.733 28.469 299.393 28.9826 300.143 29.3299C300.892 29.6772 301.711 29.849 302.537 29.8324C304.912 29.8324 306.153 28.9621 306.153 27.4042C306.153 25.8462 305.03 25.2679 302.327 24.6335C299.135 23.8419 297.498 22.9997 297.498 20.5715C297.498 18.6065 299.214 16.9222 302.22 16.9222C304.595 16.9222 306.125 17.7139 307.366 18.9266L306.338 20.1421C305.814 19.5933 305.183 19.158 304.484 18.863C303.784 18.5679 303.032 18.4195 302.273 18.4269C300.109 18.4269 299.267 19.429 299.267 20.4845C299.267 21.8292 300.216 22.385 302.636 22.9633C306.116 23.8054 307.913 24.6475 307.913 27.3705C307.913 29.8969 305.642 31.3539 302.504 31.3539C300.03 31.3623 298.105 30.3068 297.049 28.8836Z" class="logo-text"/>
<path d="M310.302 12.0237H309.044V11.5746H312.059V12.0237H310.81V15.6113H310.302V12.0237ZM312.775 11.5746H313.432L314.644 14.9432L315.877 11.5746H316.545V15.6113H316.028V12.442L314.855 15.6113H314.425L313.252 12.442V15.6113H312.775V11.5746Z" class="logo-text"/>
</svg>
