<svg width="174.76" height="30.89" viewBox="12 8.55 174.76 30.89" fill="none" xmlns="http://www.w3.org/2000/svg">
<g>
<path d="M22.8218 33.1477L25.3236 23.9869L21.1782 8.5542H12L20.1949 39.4167L29.4371 39.4458L27.7731 33.1477H22.8218Z" fill="#019AEB"/>
<path d="M30.9702 8.5542L26.8451 23.9869L28.9367 31.5709H34.0044L40.2298 8.5542H30.9702Z" fill="#019AEB"/>
<path d="M57.6423 33.7643L50.23 12.3301H53.8925L59.4023 28.973H59.4605L65.0576 12.3301H68.4613L61.046 33.7643H57.6423Z" fill="#F1F1F6"/>
<path d="M70.55 15.7047V12.6182H74.1806V15.7047H70.55ZM70.5791 33.6771V18.3578H74.1544V33.6771H70.5791Z" fill="#F1F1F6"/>
<path d="M76.694 26.032C76.694 20.2138 80.8191 18.0698 83.9929 18.0698C87.4256 18.0698 90.7129 20.1062 90.7129 26.3491V27.1869H80.2402C80.3827 29.9564 82.0845 31.1666 84.3362 31.1666C86.326 31.1666 87.4809 30.5033 88.6329 29.3775L90.5092 31.2247C88.9209 32.9847 86.8176 33.9942 84.0772 33.9942C80.2431 33.9942 76.694 31.6582 76.694 26.032ZM87.4576 24.5309C87.254 22.2036 86.102 20.9556 83.9667 20.9556C82.2358 20.9556 80.6503 21.936 80.3042 24.5309H87.4576Z" fill="#F1F1F6"/>
<path d="M95.8038 33.6771L91.2452 18.3578H94.8525L96.5252 24.7054C96.9849 26.4509 97.2729 27.6145 97.6889 29.5811H97.7471C98.2096 27.504 98.4685 26.4072 98.9601 24.6356L100.575 18.3462H103.458L105.162 24.7462C105.651 26.448 105.91 27.6 106.343 29.5636H106.402C106.864 27.5709 107.123 26.4771 107.612 24.8043L109.343 18.3403H112.575L108.005 33.6771H104.688L101.919 23.0327H101.861L99.0911 33.6771H95.8038Z" fill="#F1F1F6"/>
<path d="M114.375 39.4458V18.3578H117.925V20.3767C118.51 19.6491 119.253 19.0636 120.098 18.6641C120.942 18.2645 121.866 18.0614 122.8 18.0698C126.291 18.0698 128.857 20.688 128.857 26.0029C128.857 31.3178 126.233 33.9186 122.309 33.9186C121.483 33.9249 120.665 33.7561 119.909 33.4231C119.154 33.0901 118.477 32.6006 117.925 31.9869V39.4458H114.375ZM125.308 26.032C125.308 22.8 123.923 21.0866 121.645 21.0866C120.173 21.0866 118.759 22.0117 117.925 23.0211V29.1767C118.343 29.7456 118.884 30.2123 119.508 30.5418C120.133 30.8713 120.823 31.0551 121.529 31.0793C124.217 31.0793 125.308 29.4357 125.308 26.032Z" fill="#F1F1F6"/>
<path d="M130.617 26.032C130.617 20.3767 134.338 18.0698 138.087 18.0698C141.837 18.0698 145.561 20.3767 145.561 26.032C145.561 31.6291 141.811 33.9942 138.087 33.9942C134.364 33.9942 130.617 31.6291 130.617 26.032ZM141.983 26.032C141.983 23.1753 140.773 21.0866 138.087 21.0866C135.522 21.0866 134.195 22.9338 134.195 26.032C134.195 28.9411 135.376 31.0211 138.087 31.0211C140.665 31.0095 141.991 29.1767 141.991 26.032H141.983Z" fill="#F1F1F6"/>
<path d="M148.109 15.7047V12.6182H151.746V15.7047H148.109ZM148.138 33.6771V18.3578H151.717V33.6771H148.138Z" fill="#F1F1F6"/>
<path d="M155.053 33.6771V18.3578H158.602V20.8102C159.766 19.4836 161.544 18.0698 164.083 18.0698C166.882 18.0698 168.613 19.5244 168.613 22.5411V33.6771H165.061V23.5506C165.061 21.8778 164.368 21.0138 162.754 21.0138C161.194 21.0138 159.897 21.7906 158.6 23.0036V33.6771H155.053Z" fill="#F1F1F6"/>
<path d="M173.023 29.6654V21.1854H170.37V18.3577H173.023V13.0225H176.581V18.3577H180.534V21.1854H176.581V28.7723C176.581 30.4159 177.072 31.0792 178.832 31.0792C179.348 31.0812 179.862 31.0137 180.359 30.8785V33.677C179.501 33.8085 178.633 33.8756 177.765 33.8777C173.861 33.8777 173.023 32.4348 173.023 29.6654Z" fill="#F1F1F6"/>
<path d="M181.93 31.2772C181.933 30.7999 182.077 30.3342 182.344 29.9387C182.612 29.5432 182.99 29.2356 183.431 29.0547C183.873 28.8738 184.358 28.8276 184.826 28.9221C185.294 29.0165 185.723 29.2473 186.06 29.5854C186.397 29.9235 186.626 30.3537 186.719 30.8219C186.812 31.29 186.764 31.7752 186.581 32.2161C186.399 32.6571 186.09 33.0342 185.694 33.2999C185.297 33.5656 184.831 33.708 184.354 33.7092C184.035 33.7096 183.719 33.6469 183.424 33.5247C183.129 33.4025 182.861 33.2232 182.636 32.9972C182.411 32.7712 182.233 32.5028 182.111 32.2076C181.99 31.9125 181.929 31.5962 181.93 31.2772ZM186.439 31.2772C186.434 30.8652 186.306 30.4642 186.073 30.1245C185.84 29.7848 185.512 29.5216 185.129 29.368C184.747 29.2145 184.328 29.1774 183.925 29.2615C183.521 29.3456 183.152 29.5471 182.863 29.8406C182.574 30.1341 182.378 30.5066 182.3 30.9111C182.222 31.3157 182.265 31.7342 182.425 32.1142C182.584 32.4941 182.852 32.8184 183.195 33.0463C183.539 33.2742 183.942 33.3955 184.354 33.395C184.63 33.3931 184.903 33.3368 185.157 33.2293C185.411 33.1218 185.642 32.9652 185.836 32.7685C186.029 32.5718 186.182 32.3388 186.286 32.083C186.39 31.8271 186.442 31.5532 186.439 31.2772ZM183.455 29.8895H184.394C184.999 29.8895 185.343 30.163 185.343 30.643C185.358 30.8162 185.307 30.9889 185.198 31.1249C185.09 31.261 184.933 31.3499 184.761 31.3732L185.418 32.5834H185.017L184.38 31.4197H183.827V32.5834H183.452L183.455 29.8895ZM184.374 31.1114C184.749 31.1114 184.979 30.995 184.979 30.6517C184.979 30.3084 184.749 30.2241 184.362 30.2241H183.83V31.0968L184.374 31.1114Z" fill="#F1F1F6"/>
</g></svg>
