<svg width="228" height="48" viewBox="0 0 228 48" fill="none" xmlns="http://www.w3.org/2000/svg">
<g clip-path="url(#clip0_2337_63111)">
<path d="M34.115 14.9231L22.9909 34.1935H28.4834L34.118 24.4433L43.381 40.5H48.8735L45.1695 34.0785H45.1785L35.964 18.1217L34.118 14.9231H34.115ZM30.4261 8.60754L12 40.497H41.4624L38.6784 35.6763H20.2825L33.1769 13.3616L30.4292 8.60754H30.4261Z" fill="white"/>
<path d="M205.306 26.1107C205.675 22.7335 207.691 21.172 209.848 21.172C212.517 21.172 213.879 23.2722 214.079 26.1107H205.309H205.306ZM209.875 35.0801C212.714 35.0801 214.56 33.7729 215.864 31.6727L214.645 30.7074C213.51 32.4686 212.233 33.4339 209.99 33.4339C207.406 33.4339 205.306 31.361 205.279 27.6722H215.979V27.303C215.979 22.1949 213.368 19.5258 209.875 19.5258C206.725 19.5258 203.318 21.9679 203.318 27.2757C203.318 32.5836 206.383 35.0801 209.875 35.0801ZM194.945 38.9687C191.168 38.9687 189.522 38.0609 189.522 36.4994C189.522 35.3646 190.345 34.3145 192.018 33.7728C192.272 33.8001 192.53 33.8303 192.784 33.8576L195.765 34.0845C198.718 34.3115 199.853 35.0196 199.853 36.4389C199.853 37.9429 198.007 38.9657 194.941 38.9657M194.742 40.4999C198.83 40.4999 201.669 38.996 201.669 36.2694C201.669 33.9423 199.853 32.75 196.388 32.4656L193.123 32.2114C191.449 32.0419 190.908 31.6999 190.908 31.0766C190.908 30.5077 191.389 30.084 192.1 29.7995C192.838 30.084 193.634 30.2262 194.512 30.2262C197.831 30.2262 200.389 28.1836 200.389 24.9184C200.389 23.7563 200.077 22.8182 199.508 22.0526C200.358 21.6834 201.354 21.5412 202.234 21.5412V19.6953C201.042 19.8375 199.65 20.4064 198.773 21.057C197.723 20.0917 196.246 19.5228 194.515 19.5228C191.138 19.5228 188.611 21.7379 188.611 24.9154C188.611 26.7613 189.461 28.2925 190.88 29.2004C189.803 29.7693 189.065 30.5349 189.065 31.4427C189.065 32.3506 189.491 32.9739 190.399 33.3431C188.668 34.024 187.645 35.2163 187.645 36.7506C187.645 39.0504 189.888 40.4969 194.742 40.4969M194.542 28.7162C192.1 28.7162 190.511 27.2394 190.511 24.9426C190.511 22.6458 192.045 21.0812 194.515 21.0812C196.984 21.0812 198.546 22.558 198.546 24.9426C198.546 27.3272 196.984 28.7162 194.542 28.7162ZM173.368 34.7624H175.326V23.8048C177 22.1858 178.619 21.1932 180.549 21.1932C182.592 21.1932 183.53 22.216 183.53 24.3162V34.7624H185.488V23.947C185.488 21.166 183.984 19.5198 181.03 19.5198C178.673 19.5198 176.773 20.7393 175.326 22.1585V19.8042H173.368V34.7624ZM161.73 35.0166C163.972 35.0166 165.903 34.1935 167.634 32.632C167.634 33.4823 167.776 34.136 167.976 34.7594H169.991C169.679 33.9938 169.564 32.8862 169.564 31.0705V24.2859C169.564 21.3052 168.118 19.5167 164.768 19.5167C161.814 19.5167 159.745 20.6515 157.956 22.2977L159.006 23.5173C160.568 22.1555 162.241 21.1629 164.598 21.1629C166.556 21.1629 167.637 22.1555 167.637 24.2284V24.994C160.029 26.1591 157.505 28.3137 157.505 31.2672C157.505 33.5943 159.067 35.0136 161.736 35.0136M162.162 33.3946C160.489 33.3946 159.439 32.5715 159.439 31.01C159.439 29.0521 161.227 27.4634 167.643 26.383V31.0372C166.108 32.514 164.266 33.3916 162.165 33.3916M142.496 34.7533H144.453V23.7957C146.127 22.1767 147.746 21.1841 149.677 21.1841C151.719 21.1841 152.657 22.207 152.657 24.3071V34.7533H154.615V23.9379C154.615 21.1569 153.111 19.5107 150.158 19.5107C147.8 19.5107 145.9 20.7302 144.453 22.1495V13.7489H142.496V34.7533ZM133.611 35.065C136.649 35.065 138.38 33.4188 139.572 30.892L137.984 30.2111C136.934 32.4262 135.768 33.3916 133.699 33.3916C131.087 33.3916 129.102 31.1764 129.102 27.2606C129.102 22.7759 131.544 21.1872 133.756 21.1872C135.968 21.1872 137.049 22.322 137.872 24.3374L139.545 23.599C138.607 21.4141 137.018 19.5107 133.811 19.5107C130.603 19.5107 127.141 21.9225 127.141 27.2878C127.141 32.2537 130.179 35.065 133.614 35.065M109.771 34.7533H111.844L118.144 25.0727L124.445 34.7533H126.602L119.306 23.484L125.637 13.7489H123.479L118.256 21.8953L113.033 13.7489H110.706L117.091 23.484L109.768 34.7533H109.771ZM93.6023 40.4303V33.0799C94.7098 34.3297 96.2986 34.9803 97.9176 34.9803C101.779 34.9803 104.36 32.4262 104.36 27.2031C104.36 21.98 101.833 19.3987 98.3987 19.3987C96.1563 19.3987 94.5949 20.476 93.6023 21.6683V19.6801H90.1101V40.4273H93.6023V40.4303ZM97.1489 32.1993C95.8991 32.1993 94.5374 31.5456 93.6023 30.3261V24.2799C94.4254 23.2873 95.8174 22.3795 97.2639 22.3795C99.5063 22.3795 100.868 24.0529 100.868 27.2334C100.868 30.5833 99.7907 32.1993 97.1489 32.1993ZM76.8254 40.4303V33.0799C77.933 34.3297 79.5217 34.9803 81.1407 34.9803C85.002 34.9803 87.5833 32.4262 87.5833 27.2031C87.5833 21.98 85.0565 19.3987 81.6218 19.3987C79.3794 19.3987 77.818 20.476 76.8254 21.6683V19.6801H73.3332V40.4273H76.8254V40.4303ZM80.372 32.1993C79.1222 32.1993 77.7605 31.5456 76.8254 30.3261V24.2799C77.6485 23.2873 79.0405 22.3795 80.487 22.3795C82.7294 22.3795 84.0911 24.0529 84.0911 27.2334C84.0911 30.5833 83.0138 32.1993 80.372 32.1993ZM56.1902 34.7533L57.9211 29.7572H65.898L67.6017 34.7533H71.2361L63.8009 13.6642H60.3088L52.8735 34.7533H56.1932H56.1902ZM61.9247 18.1187H61.9822L64.848 26.6342H59.0015L61.9247 18.1187Z" fill="#F1F1F6"/>
</g>
<defs>
<clipPath id="clip0_2337_63111">
<rect width="203.979" height="33" fill="white" transform="translate(12 7.5)"/>
</clipPath>
</defs>
</svg>
