<svg width="64" height="30" viewBox="0 0 64 30" fill="none" xmlns="http://www.w3.org/2000/svg">
<path d="M3.65277 7.8974H2.0514V1.78668H0V0.476562H5.70418V1.78595H3.65277V7.89666V7.8974Z" class="logo-accent"/>
<path d="M8.56749 2.11597C8.647 2.11597 8.7385 2.12039 8.84426 2.1285C8.94927 2.13734 9.03478 2.14766 9.10003 2.16166L8.98152 3.61325C8.92977 3.59631 8.85626 3.58378 8.76175 3.57494C8.66725 3.56683 8.58549 3.56241 8.51648 3.56241C8.31322 3.56241 8.11596 3.5882 7.92469 3.63831C7.73343 3.68915 7.56241 3.77094 7.4109 3.88442C7.25939 3.99789 7.13938 4.14673 7.05163 4.33095C6.96387 4.51516 6.91962 4.74137 6.91962 5.00885V7.89657H5.34375V2.22281H6.53709L6.76961 3.17704H6.84686C6.96087 2.98398 7.10263 2.80714 7.27289 2.6465C7.44316 2.48587 7.63817 2.35692 7.85644 2.26039C8.07545 2.16387 8.31172 2.11523 8.56674 2.11523L8.56749 2.11597Z" class="logo-accent"/>
<path d="M10.2284 0C10.4624 0 10.6642 0.0530533 10.833 0.159897C11.0017 0.26674 11.0865 0.464954 11.0865 0.75601C11.0865 1.04707 11.0017 1.24233 10.833 1.35212C10.6642 1.46191 10.4624 1.51718 10.2284 1.51718C9.99439 1.51718 9.78812 1.46191 9.62161 1.35212C9.45435 1.24233 9.37109 1.04338 9.37109 0.75601C9.37109 0.468638 9.45435 0.266004 9.62161 0.159897C9.78887 0.0530533 9.99139 0 10.2284 0ZM11.0137 2.22308V7.89758H9.43785V2.22308H11.0137Z" class="logo-accent"/>
<path d="M18.7239 2.11621C19.378 2.11621 19.8738 2.28127 20.209 2.61138C20.5451 2.94148 20.7131 3.46981 20.7131 4.19782V7.89755H19.132V4.58319C19.132 4.17719 19.0615 3.87066 18.9204 3.66434C18.7794 3.45802 18.5604 3.35486 18.2641 3.35486C17.8471 3.35486 17.5508 3.50149 17.3753 3.79402C17.1998 4.08655 17.1121 4.50508 17.1121 5.05035V7.89755H15.5362V4.58319C15.5362 4.31277 15.5054 4.08582 15.4432 3.90308C15.3809 3.72034 15.2864 3.58328 15.1589 3.49191C15.0314 3.40054 14.8679 3.35486 14.6684 3.35486C14.3759 3.35486 14.1456 3.42707 13.9783 3.57076C13.8111 3.71444 13.6926 3.92592 13.6221 4.20519C13.5515 4.48445 13.5163 4.82488 13.5163 5.22794V7.89755H11.9404V2.22305H13.1443L13.3558 2.94885H13.4435C13.5605 2.75285 13.7076 2.59369 13.8853 2.47211C14.0623 2.35053 14.2581 2.26063 14.4719 2.20316C14.6856 2.14569 14.9024 2.11695 15.1229 2.11695C15.5467 2.11695 15.906 2.18474 16.2 2.32032C16.4948 2.4559 16.7213 2.66517 16.8795 2.94959H17.0191C17.1916 2.65853 17.4346 2.44706 17.7504 2.31516C18.0654 2.18326 18.3902 2.11695 18.7239 2.11695V2.11621Z" class="logo-accent"/>
<path d="M23.1845 0V1.83771C23.1845 2.05066 23.1785 2.26213 23.1665 2.47214C23.1545 2.68214 23.1395 2.84425 23.1222 2.9592H23.1845C23.336 2.72561 23.543 2.52666 23.8048 2.36308C24.0666 2.19877 24.4056 2.11698 24.8226 2.11698C25.4699 2.11698 25.9957 2.36603 26.3985 2.86341C26.8013 3.36078 27.003 4.09026 27.003 5.05112C27.003 5.69734 26.91 6.23966 26.724 6.67809C26.538 7.11651 26.2777 7.44662 25.9439 7.66768C25.6102 7.88947 25.2224 8 24.7814 8C24.3403 8 24.0238 7.92558 23.7793 7.77673C23.5348 7.62789 23.3368 7.46062 23.1852 7.2742H23.0765L22.8132 7.89831H21.6094V0H23.1852H23.1845ZM24.3156 3.35489C24.0403 3.35489 23.8213 3.41089 23.6593 3.52215C23.4973 3.63415 23.3795 3.80142 23.3053 4.02468C23.231 4.24795 23.1905 4.5309 23.1837 4.87206V5.03933C23.1837 5.59123 23.2662 6.01345 23.432 6.30598C23.597 6.59851 23.8985 6.74514 24.3358 6.74514C24.6599 6.74514 24.9171 6.59777 25.1084 6.30377C25.2997 6.00903 25.3949 5.5846 25.3949 5.02975C25.3949 4.4749 25.2981 4.05711 25.1054 3.77563C24.9126 3.49489 24.6486 3.35415 24.3148 3.35415L24.3156 3.35489Z" class="logo-accent"/>
<path d="M29.2272 7.89758H27.6514V0H29.2272V7.89758Z" class="logo-accent"/>
<path d="M32.5881 2.11621C33.1222 2.11621 33.582 2.21716 33.9675 2.41832C34.353 2.61948 34.6508 2.91127 34.8616 3.2937C35.0716 3.67613 35.1766 4.14329 35.1766 4.69446V5.44531H31.4518C31.4691 5.88226 31.6026 6.22416 31.8523 6.47322C32.1021 6.72153 32.4494 6.84606 32.8934 6.84606C33.2617 6.84606 33.5992 6.80922 33.906 6.7348C34.2128 6.66038 34.5278 6.54837 34.8518 6.39953V7.59765C34.566 7.73618 34.2668 7.83786 33.9555 7.90197C33.6435 7.96608 33.2654 7.9985 32.8214 7.9985C32.2431 7.9985 31.7301 7.89387 31.2845 7.68386C30.8383 7.47386 30.4887 7.15407 30.236 6.72448C29.9825 6.2949 29.8564 5.75331 29.8564 5.10046C29.8564 4.44761 29.9712 3.88466 30.2 3.44328C30.4287 3.00191 30.7483 2.67032 31.1585 2.44853C31.5681 2.22674 32.0451 2.11621 32.5896 2.11621H32.5881ZM32.5986 3.2178C32.2919 3.2178 32.0384 3.31433 31.8366 3.50739C31.6348 3.69971 31.5186 4.00329 31.4878 4.41593H33.699C33.6952 4.18603 33.6532 3.98118 33.5722 3.80139C33.4912 3.62234 33.3705 3.48012 33.2107 3.37475C33.0502 3.27012 32.8462 3.2178 32.5986 3.2178Z" class="logo-accent"/>
<path d="M35.5782 7.23467C35.5737 6.85298 35.8849 6.53982 36.2735 6.53613C36.2787 6.53613 36.284 6.53613 36.2892 6.53613C36.6823 6.53613 37.0003 6.8493 37.0003 7.23467C37.0003 7.62078 36.6815 7.9332 36.2892 7.9332C35.8962 7.9332 35.5782 7.62004 35.5782 7.23467ZM36.8713 7.23467C36.8653 6.91782 36.5997 6.66508 36.2772 6.67098C35.9547 6.67687 35.6974 6.93772 35.7034 7.25456C35.7087 7.56846 35.9705 7.81973 36.29 7.81825C36.611 7.81825 36.872 7.56257 36.872 7.24646C36.872 7.24204 36.872 7.23835 36.872 7.23393L36.8713 7.23467ZM36.0132 6.83677H36.3042C36.488 6.83677 36.5952 6.91487 36.5952 7.07109C36.6042 7.16983 36.5405 7.2612 36.443 7.28772L36.611 7.60162H36.4482L36.2915 7.30909H36.1685V7.60162H36.0125V6.83677H36.0132ZM36.2952 7.19193C36.3905 7.19193 36.443 7.16172 36.443 7.07993C36.443 6.99814 36.3905 6.96793 36.2915 6.96793H36.1685V7.19119H36.2945L36.2952 7.19193Z" class="logo-accent"/>
<path d="M9.65039 25L8.39355 21.4316H3.48047L2.22363 25H0L4.78125 12.0977H7.11914L11.8916 25H9.65039ZM7.84863 19.6211L6.62695 16.1055C6.58008 15.9531 6.5127 15.7393 6.4248 15.4639C6.33691 15.1826 6.24902 14.8984 6.16113 14.6113C6.07324 14.3184 6 14.0723 5.94141 13.873C5.88281 14.1133 5.80957 14.3828 5.72168 14.6816C5.63965 14.9746 5.55762 15.25 5.47559 15.5078C5.39941 15.7656 5.34082 15.9648 5.2998 16.1055L4.06934 19.6211H7.84863ZM20.9584 15.2705V25H19.3324L19.0512 23.6904H18.9369C18.7318 24.0244 18.4711 24.3027 18.1547 24.5254C17.8383 24.7422 17.4867 24.9033 17.1 25.0088C16.7133 25.1201 16.3061 25.1758 15.8783 25.1758C15.1459 25.1758 14.5189 25.0527 13.9975 24.8066C13.4818 24.5547 13.0863 24.168 12.8109 23.6465C12.5355 23.125 12.3979 22.4512 12.3979 21.625V15.2705H14.4721V21.2383C14.4721 21.9941 14.6244 22.5596 14.9291 22.9346C15.2396 23.3096 15.7201 23.4971 16.3705 23.4971C16.9975 23.4971 17.4955 23.3682 17.8646 23.1104C18.2338 22.8525 18.4945 22.4717 18.6469 21.9678C18.8051 21.4639 18.8842 20.8457 18.8842 20.1133V15.2705H20.9584ZM26.6414 23.5059C26.9109 23.5059 27.1775 23.4824 27.4412 23.4355C27.7049 23.3828 27.9451 23.3213 28.1619 23.251V24.8154C27.9334 24.915 27.6375 25 27.2742 25.0703C26.9109 25.1406 26.533 25.1758 26.1404 25.1758C25.5896 25.1758 25.0945 25.085 24.6551 24.9033C24.2156 24.7158 23.867 24.3965 23.6092 23.9453C23.3514 23.4941 23.2225 22.8701 23.2225 22.0732V16.8438H21.8953V15.9209L23.3191 15.1914L23.9959 13.1084H25.2967V15.2705H28.0828V16.8438H25.2967V22.0469C25.2967 22.5391 25.4197 22.9053 25.6658 23.1455C25.9119 23.3857 26.2371 23.5059 26.6414 23.5059ZM37.8527 20.1133C37.8527 20.9219 37.7473 21.6396 37.5363 22.2666C37.3254 22.8936 37.0178 23.4238 36.6135 23.8574C36.2092 24.2852 35.7229 24.6133 35.1545 24.8418C34.5861 25.0645 33.9445 25.1758 33.2297 25.1758C32.5617 25.1758 31.9494 25.0645 31.3928 24.8418C30.8361 24.6133 30.3527 24.2852 29.9426 23.8574C29.5383 23.4238 29.2248 22.8936 29.0021 22.2666C28.7795 21.6396 28.6682 20.9219 28.6682 20.1133C28.6682 19.041 28.8527 18.1328 29.2219 17.3887C29.5969 16.6387 30.1301 16.0674 30.8215 15.6748C31.5129 15.2822 32.3361 15.0859 33.2912 15.0859C34.1877 15.0859 34.9787 15.2822 35.6643 15.6748C36.3498 16.0674 36.8859 16.6387 37.2727 17.3887C37.6594 18.1387 37.8527 19.0469 37.8527 20.1133ZM30.7951 20.1133C30.7951 20.8223 30.8801 21.4287 31.05 21.9326C31.2258 22.4365 31.4953 22.8232 31.8586 23.0928C32.2219 23.3564 32.6906 23.4883 33.2648 23.4883C33.8391 23.4883 34.3078 23.3564 34.6711 23.0928C35.0344 22.8232 35.301 22.4365 35.4709 21.9326C35.6408 21.4287 35.7258 20.8223 35.7258 20.1133C35.7258 19.4043 35.6408 18.8037 35.4709 18.3115C35.301 17.8135 35.0344 17.4355 34.6711 17.1777C34.3078 16.9141 33.8361 16.7822 33.2561 16.7822C32.4006 16.7822 31.7766 17.0693 31.384 17.6436C30.9914 18.2178 30.7951 19.041 30.7951 20.1133ZM41.3912 11.3242V14.6201C41.3912 15.001 41.3795 15.376 41.3561 15.7451C41.3385 16.1084 41.3209 16.3926 41.3033 16.5977H41.3912C41.6549 16.1758 42.0211 15.8213 42.4898 15.5342C42.9645 15.2412 43.5709 15.0947 44.3092 15.0947C45.4635 15.0947 46.3922 15.5195 47.0953 16.3691C47.7984 17.2129 48.15 18.4639 48.15 20.1221C48.15 21.2236 47.9889 22.1494 47.6666 22.8994C47.3443 23.6494 46.8902 24.2178 46.3043 24.6045C45.7242 24.9854 45.0416 25.1758 44.2564 25.1758C43.5182 25.1758 42.9205 25.041 42.4635 24.7715C42.0123 24.4961 41.6578 24.1768 41.4 23.8135H41.2506L40.8727 25H39.3258V11.3242H41.3912ZM43.7643 16.7734C43.1783 16.7734 42.7125 16.8906 42.3668 17.125C42.027 17.3594 41.7809 17.7109 41.6285 18.1797C41.4762 18.6426 41.3971 19.2314 41.3912 19.9463V20.1309C41.3912 21.2148 41.5611 22.0439 41.901 22.6182C42.2467 23.1924 42.8736 23.4795 43.7818 23.4795C44.5025 23.4795 45.0563 23.1895 45.443 22.6094C45.8297 22.0234 46.023 21.1855 46.023 20.0957C46.023 18.9941 45.8297 18.165 45.443 17.6084C45.0621 17.0518 44.5025 16.7734 43.7643 16.7734ZM51.7061 15.2705V25H49.6406V15.2705H51.7061ZM50.6865 11.5439C51.0029 11.5439 51.2754 11.6289 51.5039 11.7988C51.7383 11.9688 51.8555 12.2617 51.8555 12.6777C51.8555 13.0879 51.7383 13.3809 51.5039 13.5566C51.2754 13.7266 51.0029 13.8115 50.6865 13.8115C50.3584 13.8115 50.0801 13.7266 49.8516 13.5566C49.6289 13.3809 49.5176 13.0879 49.5176 12.6777C49.5176 12.2617 49.6289 11.9688 49.8516 11.7988C50.0801 11.6289 50.3584 11.5439 50.6865 11.5439ZM57.0375 25.1758C55.8773 25.1758 54.9457 24.7539 54.2426 23.9102C53.5453 23.0605 53.1967 21.8096 53.1967 20.1572C53.1967 18.4873 53.5512 17.2246 54.2602 16.3691C54.975 15.5137 55.9154 15.0859 57.0814 15.0859C57.5736 15.0859 58.0043 15.1533 58.3734 15.2881C58.7426 15.417 59.059 15.5928 59.3227 15.8154C59.5922 16.0381 59.8207 16.2871 60.0082 16.5625H60.1049C60.0756 16.3809 60.0404 16.1201 59.9994 15.7803C59.9643 15.4346 59.9467 15.1152 59.9467 14.8223V11.3242H62.0209V25H60.4037L60.0346 23.6729H59.9467C59.7709 23.9541 59.5482 24.209 59.2787 24.4375C59.015 24.6602 58.6986 24.8389 58.3295 24.9736C57.9662 25.1084 57.5355 25.1758 57.0375 25.1758ZM57.6176 23.4971C58.5023 23.4971 59.1264 23.2422 59.4896 22.7324C59.8529 22.2227 60.0404 21.458 60.0521 20.4385V20.166C60.0521 19.0762 59.8764 18.2412 59.5248 17.6611C59.1732 17.0752 58.5316 16.7822 57.6 16.7822C56.8559 16.7822 56.2875 17.084 55.8949 17.6875C55.5082 18.2852 55.3148 19.1201 55.3148 20.1924C55.3148 21.2646 55.5082 22.085 55.8949 22.6533C56.2875 23.2158 56.8617 23.4971 57.6176 23.4971Z" class="logo-text"/>
</svg>
