<svg width="128" height="30" viewBox="0 0 128 30" fill="none" xmlns="http://www.w3.org/2000/svg">
<path d="M3.65277 7.8974H2.0514V1.78668H0V0.476562H5.70418V1.78595H3.65277V7.89666V7.8974Z" class="logo-accent"/>
<path d="M8.56749 2.11597C8.647 2.11597 8.7385 2.12039 8.84426 2.1285C8.94927 2.13734 9.03478 2.14766 9.10003 2.16166L8.98152 3.61325C8.92977 3.59631 8.85626 3.58378 8.76175 3.57494C8.66725 3.56683 8.58549 3.56241 8.51648 3.56241C8.31322 3.56241 8.11596 3.5882 7.92469 3.63831C7.73343 3.68915 7.56241 3.77094 7.4109 3.88442C7.25939 3.99789 7.13938 4.14673 7.05163 4.33095C6.96387 4.51516 6.91962 4.74137 6.91962 5.00885V7.89657H5.34375V2.22281H6.53709L6.76961 3.17704H6.84686C6.96087 2.98398 7.10263 2.80714 7.27289 2.6465C7.44316 2.48587 7.63817 2.35692 7.85644 2.26039C8.07545 2.16387 8.31172 2.11523 8.56674 2.11523L8.56749 2.11597Z" class="logo-accent"/>
<path d="M10.2284 0C10.4624 0 10.6642 0.0530533 10.833 0.159897C11.0017 0.26674 11.0865 0.464954 11.0865 0.75601C11.0865 1.04707 11.0017 1.24233 10.833 1.35212C10.6642 1.46191 10.4624 1.51718 10.2284 1.51718C9.99439 1.51718 9.78812 1.46191 9.62161 1.35212C9.45435 1.24233 9.37109 1.04338 9.37109 0.75601C9.37109 0.468638 9.45435 0.266004 9.62161 0.159897C9.78887 0.0530533 9.99139 0 10.2284 0ZM11.0137 2.22308V7.89758H9.43785V2.22308H11.0137Z" class="logo-accent"/>
<path d="M18.7239 2.11621C19.378 2.11621 19.8738 2.28127 20.209 2.61138C20.5451 2.94148 20.7131 3.46981 20.7131 4.19782V7.89755H19.132V4.58319C19.132 4.17719 19.0615 3.87066 18.9204 3.66434C18.7794 3.45802 18.5604 3.35486 18.2641 3.35486C17.8471 3.35486 17.5508 3.50149 17.3753 3.79402C17.1998 4.08655 17.1121 4.50508 17.1121 5.05035V7.89755H15.5362V4.58319C15.5362 4.31277 15.5054 4.08582 15.4432 3.90308C15.3809 3.72034 15.2864 3.58328 15.1589 3.49191C15.0314 3.40054 14.8679 3.35486 14.6684 3.35486C14.3759 3.35486 14.1456 3.42707 13.9783 3.57076C13.8111 3.71444 13.6926 3.92592 13.6221 4.20519C13.5515 4.48445 13.5163 4.82488 13.5163 5.22794V7.89755H11.9404V2.22305H13.1443L13.3558 2.94885H13.4435C13.5605 2.75285 13.7076 2.59369 13.8853 2.47211C14.0623 2.35053 14.2581 2.26063 14.4719 2.20316C14.6856 2.14569 14.9024 2.11695 15.1229 2.11695C15.5467 2.11695 15.906 2.18474 16.2 2.32032C16.4948 2.4559 16.7213 2.66517 16.8795 2.94959H17.0191C17.1916 2.65853 17.4346 2.44706 17.7504 2.31516C18.0654 2.18326 18.3902 2.11695 18.7239 2.11695V2.11621Z" class="logo-accent"/>
<path d="M23.1845 0V1.83771C23.1845 2.05066 23.1785 2.26213 23.1665 2.47214C23.1545 2.68214 23.1395 2.84425 23.1222 2.9592H23.1845C23.336 2.72561 23.543 2.52666 23.8048 2.36308C24.0666 2.19877 24.4056 2.11698 24.8226 2.11698C25.4699 2.11698 25.9957 2.36603 26.3985 2.86341C26.8013 3.36078 27.003 4.09026 27.003 5.05112C27.003 5.69734 26.91 6.23966 26.724 6.67809C26.538 7.11651 26.2777 7.44662 25.9439 7.66768C25.6102 7.88947 25.2224 8 24.7814 8C24.3403 8 24.0238 7.92558 23.7793 7.77673C23.5348 7.62789 23.3368 7.46062 23.1852 7.2742H23.0765L22.8132 7.89831H21.6094V0H23.1852H23.1845ZM24.3156 3.35489C24.0403 3.35489 23.8213 3.41089 23.6593 3.52215C23.4973 3.63415 23.3795 3.80142 23.3053 4.02468C23.231 4.24795 23.1905 4.5309 23.1837 4.87206V5.03933C23.1837 5.59123 23.2662 6.01345 23.432 6.30598C23.597 6.59851 23.8985 6.74514 24.3358 6.74514C24.6599 6.74514 24.9171 6.59777 25.1084 6.30377C25.2997 6.00903 25.3949 5.5846 25.3949 5.02975C25.3949 4.4749 25.2981 4.05711 25.1054 3.77563C24.9126 3.49489 24.6486 3.35415 24.3148 3.35415L24.3156 3.35489Z" class="logo-accent"/>
<path d="M29.2272 7.89758H27.6514V0H29.2272V7.89758Z" class="logo-accent"/>
<path d="M32.5881 2.11621C33.1222 2.11621 33.582 2.21716 33.9675 2.41832C34.353 2.61948 34.6508 2.91127 34.8616 3.2937C35.0716 3.67613 35.1766 4.14329 35.1766 4.69446V5.44531H31.4518C31.4691 5.88226 31.6026 6.22416 31.8523 6.47322C32.1021 6.72153 32.4494 6.84606 32.8934 6.84606C33.2617 6.84606 33.5992 6.80922 33.906 6.7348C34.2128 6.66038 34.5278 6.54837 34.8518 6.39953V7.59765C34.566 7.73618 34.2668 7.83786 33.9555 7.90197C33.6435 7.96608 33.2654 7.9985 32.8214 7.9985C32.2431 7.9985 31.7301 7.89387 31.2845 7.68386C30.8383 7.47386 30.4887 7.15407 30.236 6.72448C29.9825 6.2949 29.8564 5.75331 29.8564 5.10046C29.8564 4.44761 29.9712 3.88466 30.2 3.44328C30.4287 3.00191 30.7483 2.67032 31.1585 2.44853C31.5681 2.22674 32.0451 2.11621 32.5896 2.11621H32.5881ZM32.5986 3.2178C32.2919 3.2178 32.0384 3.31433 31.8366 3.50739C31.6348 3.69971 31.5186 4.00329 31.4878 4.41593H33.699C33.6952 4.18603 33.6532 3.98118 33.5722 3.80139C33.4912 3.62234 33.3705 3.48012 33.2107 3.37475C33.0502 3.27012 32.8462 3.2178 32.5986 3.2178Z" class="logo-accent"/>
<path d="M35.5782 7.23467C35.5737 6.85298 35.8849 6.53982 36.2735 6.53613C36.2787 6.53613 36.284 6.53613 36.2892 6.53613C36.6823 6.53613 37.0003 6.8493 37.0003 7.23467C37.0003 7.62078 36.6815 7.9332 36.2892 7.9332C35.8962 7.9332 35.5782 7.62004 35.5782 7.23467ZM36.8713 7.23467C36.8653 6.91782 36.5997 6.66508 36.2772 6.67098C35.9547 6.67687 35.6974 6.93772 35.7034 7.25456C35.7087 7.56846 35.9705 7.81973 36.29 7.81825C36.611 7.81825 36.872 7.56257 36.872 7.24646C36.872 7.24204 36.872 7.23835 36.872 7.23393L36.8713 7.23467ZM36.0132 6.83677H36.3042C36.488 6.83677 36.5952 6.91487 36.5952 7.07109C36.6042 7.16983 36.5405 7.2612 36.443 7.28772L36.611 7.60162H36.4482L36.2915 7.30909H36.1685V7.60162H36.0125V6.83677H36.0132ZM36.2952 7.19193C36.3905 7.19193 36.443 7.16172 36.443 7.07993C36.443 6.99814 36.3905 6.96793 36.2915 6.96793H36.1685V7.19119H36.2945L36.2952 7.19193Z" class="logo-accent"/>
<path d="M1.6875 12.1504H5.51074C7.16895 12.1504 8.41992 12.3906 9.26367 12.8711C10.1074 13.3516 10.5293 14.1807 10.5293 15.3584C10.5293 15.8506 10.4414 16.2959 10.2656 16.6943C10.0957 17.0869 9.84668 17.4121 9.51855 17.6699C9.19043 17.9219 8.78613 18.0918 8.30566 18.1797V18.2676C8.80371 18.3555 9.24609 18.5107 9.63281 18.7334C10.0254 18.9561 10.333 19.2754 10.5557 19.6914C10.7842 20.1074 10.8984 20.6465 10.8984 21.3086C10.8984 22.0938 10.7109 22.7617 10.3359 23.3125C9.9668 23.8633 9.43652 24.2822 8.74512 24.5693C8.05957 24.8564 7.24512 25 6.30176 25H1.6875V12.1504ZM3.79688 17.4502H5.81836C6.77344 17.4502 7.43555 17.2949 7.80469 16.9844C8.17383 16.6738 8.3584 16.2197 8.3584 15.6221C8.3584 15.0127 8.13867 14.5732 7.69922 14.3037C7.26562 14.0342 6.57422 13.8994 5.625 13.8994H3.79688V17.4502ZM3.79688 19.1553V23.2334H6.02051C7.00488 23.2334 7.69629 23.043 8.09473 22.6621C8.49316 22.2812 8.69238 21.7656 8.69238 21.1152C8.69238 20.7168 8.60156 20.3711 8.41992 20.0781C8.24414 19.7852 7.9541 19.5596 7.5498 19.4014C7.14551 19.2373 6.60059 19.1553 5.91504 19.1553H3.79688ZM20.9232 15.2705V25H19.2973L19.016 23.6904H18.9018C18.6967 24.0244 18.4359 24.3027 18.1195 24.5254C17.8031 24.7422 17.4516 24.9033 17.0648 25.0088C16.6781 25.1201 16.2709 25.1758 15.8432 25.1758C15.1107 25.1758 14.4838 25.0527 13.9623 24.8066C13.4467 24.5547 13.0512 24.168 12.7758 23.6465C12.5004 23.125 12.3627 22.4512 12.3627 21.625V15.2705H14.4369V21.2383C14.4369 21.9941 14.5893 22.5596 14.8939 22.9346C15.2045 23.3096 15.685 23.4971 16.3354 23.4971C16.9623 23.4971 17.4604 23.3682 17.8295 23.1104C18.1986 22.8525 18.4594 22.4717 18.6117 21.9678C18.7699 21.4639 18.849 20.8457 18.849 20.1133V15.2705H20.9232ZM29.5242 22.2227C29.5242 22.8613 29.3689 23.4004 29.0584 23.8398C28.7479 24.2793 28.2938 24.6133 27.6961 24.8418C27.1043 25.0645 26.3777 25.1758 25.5164 25.1758C24.8367 25.1758 24.2508 25.126 23.7586 25.0264C23.2723 24.9326 22.8123 24.7861 22.3787 24.5869V22.8027C22.8416 23.0195 23.3602 23.207 23.9344 23.3652C24.5145 23.5234 25.0623 23.6025 25.5779 23.6025C26.2576 23.6025 26.7469 23.4971 27.0457 23.2861C27.3445 23.0693 27.4939 22.7822 27.4939 22.4248C27.4939 22.2139 27.4324 22.0264 27.3094 21.8623C27.1922 21.6924 26.9695 21.5195 26.6414 21.3438C26.3191 21.1621 25.8445 20.9453 25.2176 20.6934C24.6023 20.4473 24.0838 20.2012 23.6619 19.9551C23.24 19.709 22.9207 19.4131 22.7039 19.0674C22.4871 18.7158 22.3787 18.2676 22.3787 17.7227C22.3787 16.8613 22.7186 16.208 23.3982 15.7627C24.0838 15.3115 24.9891 15.0859 26.1141 15.0859C26.7117 15.0859 27.2742 15.1475 27.8016 15.2705C28.3348 15.3877 28.8563 15.5605 29.366 15.7891L28.7156 17.3447C28.2762 17.1514 27.8338 16.9932 27.3885 16.8701C26.949 16.7412 26.5008 16.6768 26.0438 16.6768C25.5105 16.6768 25.1033 16.7588 24.8221 16.9229C24.5467 17.0869 24.409 17.3213 24.409 17.626C24.409 17.8545 24.4764 18.0479 24.6111 18.2061C24.7459 18.3643 24.9773 18.5225 25.3055 18.6807C25.6395 18.8389 26.1023 19.0352 26.6941 19.2695C27.2742 19.4922 27.7752 19.7266 28.1971 19.9727C28.6248 20.2129 28.9529 20.5088 29.1814 20.8604C29.41 21.2119 29.5242 21.666 29.5242 22.2227ZM32.9221 15.2705V25H30.8566V15.2705H32.9221ZM31.9025 11.5439C32.2189 11.5439 32.4914 11.6289 32.7199 11.7988C32.9543 11.9688 33.0715 12.2617 33.0715 12.6777C33.0715 13.0879 32.9543 13.3809 32.7199 13.5566C32.4914 13.7266 32.2189 13.8115 31.9025 13.8115C31.5744 13.8115 31.2961 13.7266 31.0676 13.5566C30.8449 13.3809 30.7336 13.0879 30.7336 12.6777C30.7336 12.2617 30.8449 11.9688 31.0676 11.7988C31.2961 11.6289 31.5744 11.5439 31.9025 11.5439ZM40.0553 15.0859C41.151 15.0859 42.0035 15.3701 42.6129 15.9385C43.2281 16.501 43.5357 17.4062 43.5357 18.6543V25H41.4703V19.041C41.4703 18.2852 41.315 17.7197 41.0045 17.3447C40.6939 16.9639 40.2135 16.7734 39.5631 16.7734C38.6197 16.7734 37.9635 17.0635 37.5943 17.6436C37.2311 18.2236 37.0494 19.0645 37.0494 20.166V25H34.984V15.2705H36.5924L36.8824 16.5889H36.9967C37.2076 16.249 37.4684 15.9707 37.7789 15.7539C38.0953 15.5312 38.4469 15.3643 38.8336 15.2529C39.2262 15.1416 39.6334 15.0859 40.0553 15.0859ZM49.4033 15.0859C50.2705 15.0859 51.0146 15.2646 51.6357 15.6221C52.2568 15.9795 52.7344 16.4863 53.0684 17.1426C53.4023 17.7988 53.5693 18.584 53.5693 19.498V20.6055H47.0742C47.0977 21.5488 47.3496 22.2754 47.8301 22.7852C48.3164 23.2949 48.9961 23.5498 49.8691 23.5498C50.4902 23.5498 51.0469 23.4912 51.5391 23.374C52.0371 23.251 52.5498 23.0723 53.0771 22.8379V24.5166C52.5908 24.7451 52.0957 24.9121 51.5918 25.0176C51.0879 25.123 50.4844 25.1758 49.7812 25.1758C48.8262 25.1758 47.9854 24.9912 47.2588 24.6221C46.5381 24.2471 45.9727 23.6904 45.5625 22.9521C45.1582 22.2139 44.9561 21.2969 44.9561 20.2012C44.9561 19.1113 45.1406 18.1855 45.5098 17.4238C45.8789 16.6621 46.3975 16.082 47.0654 15.6836C47.7334 15.2852 48.5127 15.0859 49.4033 15.0859ZM49.4033 16.6416C48.7529 16.6416 48.2256 16.8525 47.8213 17.2744C47.4229 17.6963 47.1885 18.3145 47.1182 19.1289H51.5479C51.542 18.6426 51.46 18.2119 51.3018 17.8369C51.1494 17.4619 50.915 17.1689 50.5986 16.958C50.2881 16.7471 49.8896 16.6416 49.4033 16.6416ZM61.5375 22.2227C61.5375 22.8613 61.3822 23.4004 61.0717 23.8398C60.7611 24.2793 60.307 24.6133 59.7094 24.8418C59.1176 25.0645 58.391 25.1758 57.5297 25.1758C56.85 25.1758 56.2641 25.126 55.7719 25.0264C55.2855 24.9326 54.8256 24.7861 54.392 24.5869V22.8027C54.8549 23.0195 55.3734 23.207 55.9477 23.3652C56.5277 23.5234 57.0756 23.6025 57.5912 23.6025C58.2709 23.6025 58.7602 23.4971 59.059 23.2861C59.3578 23.0693 59.5072 22.7822 59.5072 22.4248C59.5072 22.2139 59.4457 22.0264 59.3227 21.8623C59.2055 21.6924 58.9828 21.5195 58.6547 21.3438C58.3324 21.1621 57.8578 20.9453 57.2309 20.6934C56.6156 20.4473 56.0971 20.2012 55.6752 19.9551C55.2533 19.709 54.934 19.4131 54.7172 19.0674C54.5004 18.7158 54.392 18.2676 54.392 17.7227C54.392 16.8613 54.7318 16.208 55.4115 15.7627C56.0971 15.3115 57.0023 15.0859 58.1273 15.0859C58.725 15.0859 59.2875 15.1475 59.8148 15.2705C60.348 15.3877 60.8695 15.5605 61.3793 15.7891L60.7289 17.3447C60.2895 17.1514 59.8471 16.9932 59.4018 16.8701C58.9623 16.7412 58.5141 16.6768 58.057 16.6768C57.5238 16.6768 57.1166 16.7588 56.8354 16.9229C56.56 17.0869 56.4223 17.3213 56.4223 17.626C56.4223 17.8545 56.4896 18.0479 56.6244 18.2061C56.7592 18.3643 56.9906 18.5225 57.3187 18.6807C57.6527 18.8389 58.1156 19.0352 58.7074 19.2695C59.2875 19.4922 59.7885 19.7266 60.2104 19.9727C60.6381 20.2129 60.9662 20.5088 61.1947 20.8604C61.4232 21.2119 61.5375 21.666 61.5375 22.2227ZM69.409 22.2227C69.409 22.8613 69.2537 23.4004 68.9432 23.8398C68.6326 24.2793 68.1785 24.6133 67.5809 24.8418C66.9891 25.0645 66.2625 25.1758 65.4012 25.1758C64.7215 25.1758 64.1355 25.126 63.6434 25.0264C63.157 24.9326 62.6971 24.7861 62.2635 24.5869V22.8027C62.7264 23.0195 63.2449 23.207 63.8191 23.3652C64.3992 23.5234 64.9471 23.6025 65.4627 23.6025C66.1424 23.6025 66.6316 23.4971 66.9305 23.2861C67.2293 23.0693 67.3787 22.7822 67.3787 22.4248C67.3787 22.2139 67.3172 22.0264 67.1941 21.8623C67.077 21.6924 66.8543 21.5195 66.5262 21.3438C66.2039 21.1621 65.7293 20.9453 65.1023 20.6934C64.4871 20.4473 63.9686 20.2012 63.5467 19.9551C63.1248 19.709 62.8055 19.4131 62.5887 19.0674C62.3719 18.7158 62.2635 18.2676 62.2635 17.7227C62.2635 16.8613 62.6033 16.208 63.283 15.7627C63.9686 15.3115 64.8738 15.0859 65.9988 15.0859C66.5965 15.0859 67.159 15.1475 67.6863 15.2705C68.2195 15.3877 68.741 15.5605 69.2508 15.7891L68.6004 17.3447C68.1609 17.1514 67.7186 16.9932 67.2732 16.8701C66.8338 16.7412 66.3855 16.6768 65.9285 16.6768C65.3953 16.6768 64.9881 16.7588 64.7068 16.9229C64.4314 17.0869 64.2938 17.3213 64.2938 17.626C64.2938 17.8545 64.3611 18.0479 64.4959 18.2061C64.6307 18.3643 64.8621 18.5225 65.1902 18.6807C65.5242 18.8389 65.9871 19.0352 66.5789 19.2695C67.159 19.4922 67.66 19.7266 68.0818 19.9727C68.5096 20.2129 68.8377 20.5088 69.0662 20.8604C69.2947 21.2119 69.409 21.666 69.409 22.2227ZM80.2037 13.7588C79.5885 13.7588 79.0377 13.8701 78.5514 14.0928C78.0709 14.3154 77.6637 14.6377 77.3297 15.0596C76.9957 15.4756 76.7408 15.9824 76.565 16.5801C76.3893 17.1719 76.3014 17.8398 76.3014 18.584C76.3014 19.5801 76.442 20.4385 76.7232 21.1592C77.0045 21.874 77.4322 22.4248 78.0064 22.8115C78.5807 23.1924 79.3072 23.3828 80.1861 23.3828C80.7311 23.3828 81.2613 23.3301 81.777 23.2246C82.2926 23.1191 82.8258 22.9756 83.3766 22.7939V24.5869C82.8551 24.792 82.3277 24.9414 81.7945 25.0352C81.2613 25.1289 80.6461 25.1758 79.9488 25.1758C78.6363 25.1758 77.5465 24.9033 76.6793 24.3584C75.818 23.8135 75.1734 23.0459 74.7457 22.0557C74.3238 21.0654 74.1129 19.9053 74.1129 18.5752C74.1129 17.6025 74.2477 16.7119 74.5172 15.9033C74.7867 15.0947 75.1793 14.3975 75.6949 13.8115C76.2105 13.2197 76.8463 12.7656 77.6021 12.4492C78.3639 12.127 79.234 11.9658 80.2125 11.9658C80.857 11.9658 81.4898 12.0391 82.1109 12.1855C82.7379 12.3262 83.318 12.5283 83.8512 12.792L83.1129 14.5322C82.6676 14.3213 82.2018 14.1396 81.7154 13.9873C81.2291 13.835 80.7252 13.7588 80.2037 13.7588ZM88.9014 15.0859C89.7686 15.0859 90.5127 15.2646 91.1338 15.6221C91.7549 15.9795 92.2324 16.4863 92.5664 17.1426C92.9004 17.7988 93.0674 18.584 93.0674 19.498V20.6055H86.5723C86.5957 21.5488 86.8477 22.2754 87.3281 22.7852C87.8145 23.2949 88.4941 23.5498 89.3672 23.5498C89.9883 23.5498 90.5449 23.4912 91.0371 23.374C91.5352 23.251 92.0479 23.0723 92.5752 22.8379V24.5166C92.0889 24.7451 91.5938 24.9121 91.0898 25.0176C90.5859 25.123 89.9824 25.1758 89.2793 25.1758C88.3242 25.1758 87.4834 24.9912 86.7568 24.6221C86.0361 24.2471 85.4707 23.6904 85.0605 22.9521C84.6562 22.2139 84.4541 21.2969 84.4541 20.2012C84.4541 19.1113 84.6387 18.1855 85.0078 17.4238C85.377 16.6621 85.8955 16.082 86.5635 15.6836C87.2314 15.2852 88.0107 15.0859 88.9014 15.0859ZM88.9014 16.6416C88.251 16.6416 87.7236 16.8525 87.3193 17.2744C86.9209 17.6963 86.6865 18.3145 86.6162 19.1289H91.0459C91.04 18.6426 90.958 18.2119 90.7998 17.8369C90.6475 17.4619 90.4131 17.1689 90.0967 16.958C89.7861 16.7471 89.3877 16.6416 88.9014 16.6416ZM99.5678 15.0859C100.663 15.0859 101.516 15.3701 102.125 15.9385C102.741 16.501 103.048 17.4062 103.048 18.6543V25H100.983V19.041C100.983 18.2852 100.828 17.7197 100.517 17.3447C100.206 16.9639 99.726 16.7734 99.0756 16.7734C98.1322 16.7734 97.476 17.0635 97.1068 17.6436C96.7436 18.2236 96.5619 19.0645 96.5619 20.166V25H94.4965V15.2705H96.1049L96.3949 16.5889H96.5092C96.7201 16.249 96.9809 15.9707 97.2914 15.7539C97.6078 15.5312 97.9594 15.3643 98.3461 15.2529C98.7387 15.1416 99.1459 15.0859 99.5678 15.0859ZM108.661 23.5059C108.93 23.5059 109.197 23.4824 109.461 23.4355C109.724 23.3828 109.965 23.3213 110.181 23.251V24.8154C109.953 24.915 109.657 25 109.294 25.0703C108.93 25.1406 108.553 25.1758 108.16 25.1758C107.609 25.1758 107.114 25.085 106.675 24.9033C106.235 24.7158 105.887 24.3965 105.629 23.9453C105.371 23.4941 105.242 22.8701 105.242 22.0732V16.8438H103.915V15.9209L105.339 15.1914L106.015 13.1084H107.316V15.2705H110.102V16.8438H107.316V22.0469C107.316 22.5391 107.439 22.9053 107.685 23.1455C107.931 23.3857 108.257 23.5059 108.661 23.5059ZM115.135 15.0859C116.002 15.0859 116.746 15.2646 117.367 15.6221C117.988 15.9795 118.466 16.4863 118.8 17.1426C119.134 17.7988 119.301 18.584 119.301 19.498V20.6055H112.806C112.829 21.5488 113.081 22.2754 113.562 22.7852C114.048 23.2949 114.728 23.5498 115.601 23.5498C116.222 23.5498 116.779 23.4912 117.271 23.374C117.769 23.251 118.281 23.0723 118.809 22.8379V24.5166C118.322 24.7451 117.827 24.9121 117.323 25.0176C116.82 25.123 116.216 25.1758 115.513 25.1758C114.558 25.1758 113.717 24.9912 112.99 24.6221C112.27 24.2471 111.704 23.6904 111.294 22.9521C110.89 22.2139 110.688 21.2969 110.688 20.2012C110.688 19.1113 110.872 18.1855 111.241 17.4238C111.611 16.6621 112.129 16.082 112.797 15.6836C113.465 15.2852 114.244 15.0859 115.135 15.0859ZM115.135 16.6416C114.485 16.6416 113.957 16.8525 113.553 17.2744C113.154 17.6963 112.92 18.3145 112.85 19.1289H117.279C117.274 18.6426 117.192 18.2119 117.033 17.8369C116.881 17.4619 116.647 17.1689 116.33 16.958C116.02 16.7471 115.621 16.6416 115.135 16.6416ZM125.661 15.0859C125.825 15.0859 126.004 15.0947 126.197 15.1123C126.39 15.1299 126.557 15.1533 126.698 15.1826L126.504 17.1162C126.381 17.0811 126.229 17.0547 126.047 17.0371C125.872 17.0195 125.713 17.0107 125.573 17.0107C125.204 17.0107 124.852 17.0723 124.518 17.1953C124.184 17.3125 123.888 17.4941 123.63 17.7402C123.373 17.9805 123.171 18.2822 123.024 18.6455C122.878 19.0088 122.804 19.4307 122.804 19.9111V25H120.73V15.2705H122.347L122.629 16.9844H122.725C122.919 16.6387 123.159 16.3223 123.446 16.0352C123.733 15.748 124.061 15.5195 124.43 15.3496C124.805 15.1738 125.215 15.0859 125.661 15.0859Z" class="logo-text"/>
</svg>
