<svg width="410" height="48" viewBox="0 0 410 48" fill="none" xmlns="http://www.w3.org/2000/svg">
<path d="M22.8188 33.1485L25.3228 23.986L21.1766 8.55499H12L20.1941 39.445H29.4353L27.7706 33.2187L22.8188 33.1485Z" class="logo-accent"/>
<path d="M30.968 8.55499L26.8442 23.986L28.9356 31.5709H34.0025L40.2288 8.55499H30.968Z" class="logo-accent"/>
<path d="M57.0165 31.2018L50.2288 11.5994H53.5974L58.625 26.8338H58.6783L63.7986 11.6106H66.9117L60.1296 31.213L57.0165 31.2018Z" class="logo-text"/>
<path d="M68.8208 14.687V11.863H72.1473V14.687H68.8208ZM68.8489 31.123V17.1124H72.1248V31.123H68.8489Z" class="logo-text"/>
<path d="M74.4434 24.133C74.4434 18.7994 78.2162 16.8484 81.1188 16.8484C84.2572 16.8484 87.2665 18.7236 87.2665 24.4277V25.1941H77.6884C77.8204 27.7205 79.3727 28.8434 81.4332 28.8434C83.255 28.8434 84.3105 28.2342 85.3632 27.2068L87.0784 28.8911C85.6271 30.5024 83.7098 31.4176 81.1833 31.4176C77.6884 31.4147 74.4434 29.2757 74.4434 24.133ZM84.2853 22.7603C84.1 20.6212 83.0445 19.4871 81.0907 19.4871C79.5075 19.4871 78.0562 20.3854 77.7418 22.7603H84.2853Z" class="logo-text"/>
<path d="M91.9206 31.1231L87.752 17.1125H91.0504L92.5803 22.9178C93.0013 24.501 93.2652 25.5818 93.6358 27.3783H93.6891C94.1102 25.4779 94.3488 24.4757 94.7951 22.8644L96.2661 17.1125H98.9048L100.477 22.9711C100.926 24.5263 101.165 25.5818 101.56 27.3783H101.6C102.021 25.5565 102.259 24.5543 102.706 23.0244L104.289 17.1125H107.245L103.076 31.1231H100.047L97.5209 21.3879H97.4675L94.9411 31.1231H91.9206Z" class="logo-text"/>
<path d="M108.898 36.4006V17.1126H112.155V18.9738C112.69 18.3081 113.369 17.7724 114.141 17.4068C114.913 17.0412 115.758 16.8552 116.613 16.8628C119.807 16.8628 122.154 19.2629 122.154 24.1193C122.154 28.9757 119.754 31.3253 116.163 31.3253C115.408 31.3311 114.66 31.1765 113.969 30.8716C113.278 30.5668 112.66 30.1186 112.155 29.5568V36.3894L108.898 36.4006ZM118.898 24.1333C118.898 21.1774 117.632 19.6194 115.546 19.6194C114.201 19.6194 112.907 20.4616 112.144 21.3879V27.0022C112.526 27.5228 113.021 27.9499 113.593 28.2513C114.164 28.5528 114.796 28.7208 115.442 28.7427C117.907 28.7483 118.909 27.2465 118.909 24.1333H118.898Z" class="logo-text"/>
<path d="M123.776 24.133C123.776 18.9594 127.179 16.8484 130.609 16.8484C134.039 16.8484 137.442 18.9594 137.442 24.133C137.442 29.2504 134.014 31.4147 130.609 31.4147C127.204 31.4147 123.776 29.2504 123.776 24.133ZM134.163 24.133C134.163 21.5195 133.054 19.6191 130.601 19.6191C128.254 19.6191 127.038 21.3034 127.038 24.133C127.038 26.797 128.122 28.6974 130.601 28.6974C132.956 28.6974 134.163 27.0075 134.163 24.133Z" class="logo-text"/>
<path d="M139.777 14.687V11.863H143.09V14.687H139.777ZM139.803 31.123V17.1124H143.076V31.123H139.803Z" class="logo-text"/>
<path d="M146.113 31.1232V17.1126H149.358V19.3584C150.413 18.1457 152.05 16.8516 154.371 16.8516C156.932 16.8516 158.515 18.1709 158.515 20.9416V31.126H155.27V21.8623C155.27 20.3324 154.635 19.5408 153.159 19.5408C151.733 19.5408 150.545 20.2538 149.358 21.3599V31.1232H146.113Z" class="logo-text"/>
<path d="M162.555 27.4568V19.6978H160.126V17.1124H162.555V12.2363H165.8V17.1124H169.413V19.6978H165.8V26.6371C165.8 28.1417 166.246 28.7481 167.857 28.7481C168.331 28.7495 168.803 28.6881 169.261 28.5656V31.1229C168.475 31.2433 167.681 31.3052 166.886 31.3082C163.318 31.3082 162.555 29.9888 162.555 27.4568Z" class="logo-text"/>
<path d="M179.413 14.2396H181.341L187.172 31.2846H187.225L193.081 14.2396H194.903L188.053 33.842H186.285L179.413 14.2396Z" class="logo-text"/>
<path d="M197.317 14.6859H199.243V16.6509H197.317V14.6859ZM197.367 19.8594H199.189V33.7633H197.367V19.8594Z" class="logo-text"/>
<path d="M201.688 31.5485L202.847 30.493C203.369 31.134 204.03 31.6476 204.78 31.9949C205.53 32.3422 206.349 32.514 207.175 32.4974C209.55 32.4974 210.791 31.6271 210.791 30.0692C210.791 28.5112 209.668 27.9329 206.965 27.2985C203.77 26.5069 202.137 25.6647 202.137 23.2365C202.137 21.2715 203.852 19.5872 206.858 19.5872C209.233 19.5872 210.763 20.3788 212.004 21.5915L210.974 22.8042C210.449 22.2566 209.818 21.8222 209.12 21.5277C208.421 21.2332 207.67 21.0849 206.912 21.0919C204.747 21.0919 203.902 22.094 203.902 23.1495C203.902 24.4941 204.854 25.05 207.271 25.6282C210.755 26.4704 212.548 27.3125 212.548 30.0355C212.548 32.5619 210.28 34.0188 207.139 34.0188C204.669 34.0273 202.743 32.9718 201.688 31.5485Z" class="logo-text"/>
<path d="M216.504 30.518V21.4144H214.076V19.8592H216.504V14.8765H218.323V19.8592H221.939V21.4144H218.323V30.1503C218.323 31.6269 218.8 32.4185 220.513 32.4185C221.003 32.4305 221.492 32.3681 221.964 32.2332V33.7912C221.371 33.8921 220.771 33.9447 220.17 33.9484C217.506 33.9484 216.504 32.9182 216.504 30.518Z" class="logo-text"/>
<path d="M223.819 30.5179C223.819 27.7753 226.169 25.7682 233.24 24.6875V23.9744C233.24 22.0487 232.238 21.1252 230.416 21.1252C228.227 21.1252 226.671 22.0487 225.22 23.3148L224.243 22.1919C225.905 20.662 227.831 19.6065 230.576 19.6065C233.689 19.6065 235.034 21.2683 235.034 24.039V30.3439C235.034 32.0282 235.141 33.0612 235.43 33.7742H233.557C233.345 33.1361 233.238 32.4677 233.24 31.7952C231.632 33.2465 229.835 34.0129 227.752 34.0129C225.271 34.0016 223.819 32.6823 223.819 30.5179ZM233.249 30.3158V25.9788C227.286 26.9837 225.624 28.4603 225.624 30.2821C225.624 31.7334 226.598 32.497 228.151 32.497C230.099 32.497 231.814 31.6801 233.249 30.3158Z" class="logo-text"/>
<path d="M245.457 14.2396H256.882V15.98H247.338V22.7172H254.409V24.4015H247.332V33.769H245.457V14.2396Z" class="logo-text"/>
<path d="M259.355 14.6859H261.281V16.6509H259.355V14.6859ZM259.408 19.8594H261.23V33.7633H259.408V19.8594Z" class="logo-text"/>
<path d="M264.04 26.7985C264.04 21.8635 267.207 19.5953 270.134 19.5953C273.379 19.5953 275.808 22.074 275.808 26.8237V27.1662H265.859C265.887 30.5965 267.838 32.5223 270.238 32.5223C272.324 32.5223 273.511 31.6268 274.567 29.9958L275.69 30.8941C274.477 32.8591 272.762 34.0606 270.123 34.0606C266.889 34.055 264.04 31.5482 264.04 26.7985ZM274.039 25.7149C273.854 23.079 272.588 21.1252 270.109 21.1252C268.105 21.1252 266.232 22.5765 265.898 25.7149H274.039Z" class="logo-text"/>
<path d="M278.725 14.2396H280.544V33.7634H278.725V14.2396Z" class="logo-text"/>
<path d="M283.452 26.8241C283.452 21.9705 286.012 19.5956 289.347 19.5956C291.14 19.5956 292.752 20.5444 293.838 21.7599V14.2396H295.657V30.333C295.657 32.0173 295.764 33.0503 296.081 33.7634H294.155C293.951 33.1059 293.844 32.4222 293.838 31.7338C292.715 32.9465 291.278 34.002 289.195 34.002C285.984 34.002 283.452 31.6805 283.452 26.8241ZM293.821 30.1758V23.4218C292.449 21.9424 291.104 21.1255 289.493 21.1255C287.039 21.1255 285.282 22.9193 285.282 26.8521C285.282 30.6783 287.18 32.444 289.493 32.444C291.208 32.444 292.502 31.5738 293.821 30.1758Z" class="logo-text"/>
<path d="M305.247 28.9631L306.908 28.3539C307.781 31.0712 309.76 32.472 312.503 32.472C315.431 32.472 317.331 31.1246 317.331 28.935C317.331 26.9026 316.355 25.8752 312.214 24.5558C308.003 23.2365 305.881 22.1024 305.881 18.8825C305.881 16.0754 308.388 13.869 311.95 13.869C315.616 13.869 317.727 15.7413 318.651 18.3604L317.068 19.0875C316.091 16.561 314.378 15.5533 311.922 15.5533C309.311 15.5533 307.728 16.9568 307.728 18.745C307.728 20.9346 309.019 21.6729 313.138 22.9922C317.199 24.2863 319.207 25.631 319.207 28.7974C319.207 32.0425 316.329 34.131 312.425 34.131C308.761 34.1339 306.17 32.1267 305.247 28.9631Z" class="logo-text"/>
<path d="M321.55 26.7985C321.55 21.8635 324.717 19.5953 327.647 19.5953C330.893 19.5953 333.321 22.074 333.321 26.8237V27.1662H323.372C323.397 30.5965 325.337 32.5223 327.751 32.5223C329.837 32.5223 331.024 31.6268 332.08 29.9958L333.203 30.8941C331.99 32.8591 330.275 34.0606 327.636 34.0606C324.402 34.055 321.55 31.5482 321.55 26.7985ZM331.552 25.7149C331.367 23.079 330.101 21.1252 327.622 21.1252C325.618 21.1252 323.745 22.5765 323.411 25.7149H331.552Z" class="logo-text"/>
<path d="M336.122 19.8591H337.955V22.6017H338.009C339.092 20.8866 340.779 19.5953 343.525 19.5953H343.842L343.657 21.2796L343.095 21.2543C340.827 21.2543 339.033 22.5203 337.95 24.7099V33.7602H336.131L336.122 19.8591Z" class="logo-text"/>
<path d="M345.324 19.8594H347.289L351.407 31.6018H351.458L355.548 19.8594H357.395L352.272 33.8166H350.45L345.324 19.8594Z" class="logo-text"/>
<path d="M359.587 14.6859H361.513V16.6509H359.587V14.6859ZM359.641 19.8594H361.463V33.7633H359.641V19.8594Z" class="logo-text"/>
<path d="M364.275 26.8237C364.275 21.8382 367.363 19.5953 370.476 19.5953C373.458 19.5953 374.937 21.361 375.81 23.3934L374.252 24.0811C373.489 22.2059 372.38 21.1504 370.429 21.1504C368.368 21.1504 366.1 22.6298 366.1 26.7985C366.1 30.4478 367.947 32.497 370.375 32.497C372.301 32.497 373.382 31.6015 374.359 29.541L375.835 30.1755C374.729 32.5223 373.118 34.055 370.297 34.055C367.099 34.055 364.275 31.4387 364.275 26.8237Z" class="logo-text"/>
<path d="M377.624 26.7985C377.624 21.8635 380.79 19.5953 383.718 19.5953C386.963 19.5953 389.391 22.074 389.391 26.8237V27.1662H379.443C379.471 30.5965 381.408 32.5223 383.825 32.5223C385.907 32.5223 387.095 31.6268 388.15 29.9958L389.273 30.8941C388.061 32.8591 386.345 34.0606 383.707 34.0606C380.473 34.055 377.624 31.5482 377.624 26.7985ZM387.623 25.7149C387.437 23.079 386.171 21.1252 383.693 21.1252C381.685 21.1252 379.813 22.5765 379.482 25.7149H387.623Z" class="logo-text"/>
<path d="M390.977 14.6465H389.717V14.1973H392.734V14.6465H391.483V18.2453H390.977V14.6465ZM393.45 14.1973H394.099L395.311 17.5659L396.544 14.1973H397.212V18.2453H396.695V15.0647L395.53 18.2453H395.101L393.928 15.076V18.2453H393.45V14.1973Z" class="logo-text"/>
</svg>
