<svg width="1280" height="59" viewBox="0 0 1280 59" fill="none" xmlns="http://www.w3.org/2000/svg">
<g clip-path="url(#clip0_5_7799)">
<g opacity="0.6">
<path opacity="0.2" d="M1290.49 1085.03L995.107 1249.7C962.476 1267.89 922.964 1268.78 889.549 1252.07L357.427 986.009L356.533 987.798L888.655 1253.86C922.661 1270.86 962.873 1269.96 996.081 1251.45L1291.47 1086.78L1290.49 1085.03ZM1290.49 1069.03L995.107 1233.7C962.476 1251.89 922.964 1252.78 889.549 1236.07L357.427 970.009L356.533 971.798L888.655 1237.86C922.661 1254.86 962.873 1253.96 996.081 1235.45L1291.47 1070.78L1290.49 1069.03ZM1290.49 1053.03L995.107 1217.7C962.476 1235.89 922.964 1236.78 889.549 1220.07L357.427 954.009L356.533 955.798L888.655 1221.86C922.661 1238.86 962.873 1237.96 996.081 1219.45L1291.47 1054.78L1290.49 1053.03ZM1290.49 1037.03L995.107 1201.7C962.476 1219.89 922.964 1220.78 889.549 1204.07L357.427 938.009L356.533 939.798L888.655 1205.86C922.661 1222.86 962.873 1221.96 996.081 1203.45L1291.47 1038.78L1290.49 1037.03ZM1290.49 1021.03L995.107 1185.7C962.476 1203.89 922.964 1204.78 889.549 1188.07L357.427 922.009L356.533 923.798L888.655 1189.86C922.661 1206.86 962.873 1205.96 996.081 1187.45L1291.47 1022.78L1290.49 1021.03ZM1290.49 1005.03L995.107 1169.7C962.476 1187.89 922.964 1188.78 889.549 1172.07L357.427 906.009L356.533 907.798L888.655 1173.86C922.661 1190.86 962.873 1189.96 996.081 1171.45L1291.47 1006.78L1290.49 1005.03ZM1290.49 989.03L995.107 1153.7C962.476 1171.89 922.964 1172.78 889.549 1156.07L357.427 890.009L356.533 891.798L888.655 1157.86C922.661 1174.86 962.873 1173.96 996.081 1155.45L1291.47 990.776L1290.49 989.03ZM1290.49 973.03L995.107 1137.7C962.476 1155.89 922.964 1156.78 889.549 1140.07L357.427 874.009L356.533 875.798L888.655 1141.86C922.661 1158.86 962.873 1157.96 996.081 1139.45L1291.47 974.776L1290.49 973.03ZM1290.49 957.03L995.107 1121.7C962.476 1139.89 922.964 1140.78 889.549 1124.07L357.427 858.009L356.533 859.798L888.655 1125.86C922.661 1142.86 962.873 1141.96 996.081 1123.45L1291.47 958.776L1290.49 957.03ZM1290.49 941.03L995.107 1105.7C962.476 1123.89 922.964 1124.78 889.549 1108.07L357.427 842.009L356.533 843.798L888.655 1109.86C922.661 1126.86 962.873 1125.96 996.081 1107.45L1291.47 942.776L1290.49 941.03ZM1290.49 925.03L995.107 1089.7C962.476 1107.89 922.964 1108.78 889.549 1092.07L357.427 826.009L356.533 827.798L888.655 1093.86C922.661 1110.86 962.873 1109.96 996.081 1091.45L1291.47 926.776L1290.49 925.03ZM1290.49 909.03L995.107 1073.7C962.476 1091.89 922.964 1092.78 889.549 1076.07L357.427 810.009L356.533 811.798L888.655 1077.86C922.661 1094.86 962.873 1093.96 996.081 1075.45L1291.47 910.776L1290.49 909.03ZM1290.49 893.03L995.107 1057.7C962.476 1075.89 922.964 1076.78 889.549 1060.07L357.427 794.009L356.533 795.798L888.655 1061.86C922.661 1078.86 962.873 1077.96 996.081 1059.45L1291.47 894.776L1290.49 893.03ZM1290.49 877.03L995.107 1041.7C962.476 1059.89 922.964 1060.78 889.549 1044.07L357.427 778.009L356.533 779.798L888.655 1045.86C922.661 1062.86 962.873 1061.96 996.081 1043.45L1291.47 878.776L1290.49 877.03ZM1290.49 861.03L995.107 1025.7C962.476 1043.89 922.964 1044.78 889.549 1028.07L357.427 762.009L356.533 763.798L888.655 1029.86C922.661 1046.86 962.873 1045.96 996.081 1027.45L1291.47 862.776L1290.49 861.03ZM1290.49 845.03L995.107 1009.7C962.476 1027.89 922.964 1028.78 889.549 1012.07L357.427 746.009L356.533 747.798L888.655 1013.86C922.661 1030.86 962.873 1029.96 996.081 1011.45L1291.47 846.776L1290.49 845.03ZM1290.49 829.03L995.107 993.699C962.476 1011.89 922.964 1012.78 889.549 996.07L357.427 730.009L356.533 731.798L888.655 997.859C922.661 1014.86 962.873 1013.96 996.081 995.446L1291.47 830.776L1290.49 829.03ZM1290.49 813.03L995.107 977.699C962.476 995.89 922.964 996.777 889.549 980.07L357.427 714.009L356.533 715.798L888.655 981.859C922.661 998.862 962.873 997.959 996.081 979.446L1291.47 814.776L1290.49 813.03ZM1290.49 797.03L995.107 961.699C962.476 979.89 922.964 980.777 889.549 964.07L357.427 698.009L356.533 699.798L888.655 965.859C922.661 982.862 962.873 981.959 996.081 963.446L1291.47 798.776L1290.49 797.03ZM1290.49 781.03L995.107 945.699C962.476 963.89 922.964 964.777 889.549 948.07L357.427 682.009L356.533 683.798L888.655 949.859C922.661 966.862 962.873 965.959 996.081 947.446L1291.47 782.776L1290.49 781.03ZM1290.49 765.03L995.107 929.699C962.476 947.89 922.964 948.777 889.549 932.07L357.427 666.009L356.533 667.798L888.655 933.859C922.661 950.862 962.873 949.959 996.081 931.446L1291.47 766.776L1290.49 765.03ZM1290.49 749.03L995.107 913.699C962.476 931.89 922.964 932.777 889.549 916.07L357.427 650.009L356.533 651.798L888.655 917.859C922.661 934.862 962.873 933.959 996.081 915.446L1291.47 750.776L1290.49 749.03ZM1290.49 733.03L995.107 897.699C962.476 915.89 922.964 916.777 889.549 900.07L357.427 634.009L356.533 635.798L888.655 901.859C922.661 918.862 962.873 917.959 996.081 899.446L1291.47 734.776L1290.49 733.03ZM1290.49 717.03L995.107 881.699C962.476 899.89 922.964 900.777 889.549 884.07L357.427 618.009L356.533 619.798L888.655 885.859C922.661 902.862 962.873 901.959 996.081 883.446L1291.47 718.776L1290.49 717.03ZM1290.49 701.03L995.107 865.699C962.476 883.89 922.964 884.777 889.549 868.07L357.427 602.009L356.533 603.798L888.655 869.859C922.661 886.862 962.873 885.959 996.081 867.446L1291.47 702.776L1290.49 701.03ZM1290.49 685.03L995.107 849.699C962.476 867.89 922.964 868.777 889.549 852.07L357.427 586.009L356.533 587.798L888.655 853.859C922.661 870.862 962.873 869.959 996.081 851.446L1291.47 686.776L1290.49 685.03ZM1290.49 669.03L995.107 833.699C962.476 851.89 922.964 852.777 889.549 836.07L357.427 570.009L356.533 571.798L888.655 837.859C922.661 854.862 962.873 853.959 996.081 835.446L1291.47 670.776L1290.49 669.03ZM1290.49 653.03L995.107 817.699C962.476 835.89 922.964 836.777 889.549 820.07L357.427 554.009L356.533 555.798L888.655 821.859C922.661 838.862 962.873 837.959 996.081 819.446L1291.47 654.776L1290.49 653.03ZM1290.49 637.03L995.107 801.699C962.476 819.89 922.964 820.777 889.549 804.07L357.427 538.009L356.533 539.798L888.655 805.859C922.661 822.862 962.873 821.959 996.081 803.446L1291.47 638.776L1290.49 637.03ZM1290.49 621.03L995.107 785.699C962.476 803.89 922.964 804.777 889.549 788.07L357.427 522.009L356.533 523.798L888.655 789.859C922.661 806.862 962.873 805.959 996.081 787.446L1291.47 622.776L1290.49 621.03ZM1290.49 605.03L995.107 769.699C962.476 787.89 922.964 788.777 889.549 772.07L357.427 506.009L356.533 507.798L888.655 773.859C922.661 790.862 962.873 789.959 996.081 771.446L1291.47 606.776L1290.49 605.03ZM1290.49 589.03L995.107 753.699C962.476 771.89 922.964 772.777 889.549 756.07L357.427 490.009L356.533 491.798L888.655 757.859C922.661 774.862 962.873 773.959 996.081 755.446L1291.47 590.776L1290.49 589.03ZM1290.49 573.03L995.107 737.699C962.476 755.89 922.964 756.777 889.549 740.07L357.427 474.009L356.533 475.798L888.655 741.859C922.661 758.862 962.873 757.959 996.081 739.446L1291.47 574.776L1290.49 573.03ZM1290.49 557.03L995.107 721.699C962.476 739.89 922.964 740.777 889.549 724.07L357.427 458.009L356.533 459.798L888.655 725.859C922.661 742.862 962.873 741.959 996.081 723.446L1291.47 558.776L1290.49 557.03ZM1290.49 541.03L995.107 705.699C962.476 723.89 922.964 724.777 889.549 708.07L357.427 442.009L356.533 443.798L888.655 709.859C922.661 726.862 962.873 725.959 996.081 707.446L1291.47 542.776L1290.49 541.03ZM1290.49 525.03L995.107 689.699C962.476 707.89 922.964 708.777 889.549 692.07L357.427 426.009L356.533 427.798L888.655 693.859C922.661 710.862 962.873 709.959 996.081 691.446L1291.47 526.776L1290.49 525.03ZM1290.49 509.03L995.107 673.699C962.476 691.89 922.964 692.777 889.549 676.07L357.427 410.009L356.533 411.798L888.655 677.859C922.661 694.862 962.873 693.959 996.081 675.446L1291.47 510.776L1290.49 509.03ZM1290.49 493.03L995.107 657.699C962.476 675.89 922.964 676.777 889.549 660.07L357.427 394.009L356.533 395.798L888.655 661.859C922.661 678.862 962.873 677.959 996.081 659.446L1291.47 494.776L1290.49 493.03ZM1290.49 477.03L995.107 641.699C962.476 659.89 922.964 660.777 889.549 644.07L357.427 378.009L356.533 379.798L888.655 645.859C922.661 662.862 962.873 661.959 996.081 643.446L1291.47 478.776L1290.49 477.03ZM1290.49 461.03L995.107 625.699C962.476 643.89 922.964 644.777 889.549 628.07L357.427 362.009L356.533 363.798L888.655 629.859C922.661 646.862 962.873 645.959 996.081 627.446L1291.47 462.776L1290.49 461.03ZM1290.49 445.03L995.107 609.699C962.476 627.89 922.964 628.777 889.549 612.07L357.427 346.009L356.533 347.798L888.655 613.859C922.661 630.862 962.873 629.959 996.081 611.446L1291.47 446.776L1290.49 445.03ZM1290.49 429.03L995.107 593.699C962.476 611.89 922.964 612.777 889.549 596.07L357.427 330.009L356.533 331.798L888.655 597.859C922.661 614.862 962.873 613.959 996.081 595.446L1291.47 430.776L1290.49 429.03ZM1290.49 413.03L995.107 577.699C962.476 595.89 922.964 596.777 889.549 580.07L357.427 314.009L356.533 315.798L888.655 581.859C922.661 598.862 962.873 597.959 996.081 579.446L1291.47 414.776L1290.49 413.03ZM1290.49 397.03L995.107 561.699C962.476 579.89 922.964 580.777 889.549 564.07L357.427 298.009L356.533 299.798L888.655 565.859C922.661 582.862 962.873 581.959 996.081 563.446L1291.47 398.776L1290.49 397.03ZM1290.49 381.03L995.107 545.699C962.476 563.89 922.964 564.777 889.549 548.07L357.427 282.009L356.533 283.798L888.655 549.859C922.661 566.862 962.873 565.959 996.081 547.446L1291.47 382.776L1290.49 381.03ZM1290.49 365.03L995.107 529.699C962.476 547.89 922.964 548.777 889.549 532.07L357.427 266.009L356.533 267.798L888.655 533.859C922.661 550.862 962.873 549.959 996.081 531.446L1291.47 366.776L1290.49 365.03ZM1290.49 349.03L995.107 513.699C962.476 531.89 922.964 532.777 889.549 516.07L357.427 250.009L356.533 251.798L888.655 517.859C922.661 534.862 962.873 533.959 996.081 515.446L1291.47 350.776L1290.49 349.03ZM1290.49 333.03L995.107 497.699C962.476 515.89 922.964 516.777 889.549 500.07L357.427 234.009L356.533 235.798L888.655 501.859C922.661 518.862 962.873 517.959 996.081 499.446L1291.47 334.776L1290.49 333.03ZM1290.49 317.03L995.107 481.699C962.476 499.89 922.964 500.777 889.549 484.07L357.427 218.009L356.533 219.798L888.655 485.859C922.661 502.862 962.873 501.959 996.081 483.446L1291.47 318.776L1290.49 317.03ZM1290.49 301.03L995.107 465.699C962.476 483.89 922.964 484.777 889.549 468.07L357.427 202.009L356.533 203.798L888.655 469.859C922.661 486.862 962.873 485.959 996.081 467.446L1291.47 302.776L1290.49 301.03ZM1290.49 285.03L995.107 449.699C962.476 467.89 922.964 468.777 889.549 452.07L357.427 186.009L356.533 187.798L888.655 453.859C922.661 470.862 962.873 469.959 996.081 451.446L1291.47 286.776L1290.49 285.03ZM1290.49 269.03L995.107 433.699C962.476 451.89 922.964 452.777 889.549 436.07L357.427 170.009L356.533 171.798L888.655 437.859C922.661 454.862 962.873 453.959 996.081 435.446L1291.47 270.776L1290.49 269.03ZM1290.49 253.03L995.107 417.699C962.476 435.89 922.964 436.777 889.549 420.07L357.427 154.009L356.533 155.798L888.655 421.859C922.661 438.862 962.873 437.959 996.081 419.446L1291.47 254.776L1290.49 253.03ZM1290.49 237.03L995.107 401.699C962.476 419.89 922.964 420.777 889.549 404.07L357.427 138.009L356.533 139.798L888.655 405.859C922.661 422.862 962.873 421.959 996.081 403.446L1291.47 238.776L1290.49 237.03ZM1290.49 221.03L995.107 385.699C962.476 403.89 922.964 404.777 889.549 388.07L357.427 122.009L356.533 123.798L888.655 389.859C922.661 406.862 962.873 405.959 996.081 387.446L1291.47 222.776L1290.49 221.03ZM1290.49 205.03L995.107 369.699C962.476 387.89 922.964 388.777 889.549 372.07L357.427 106.009L356.533 107.798L888.655 373.859C922.661 390.862 962.873 389.959 996.081 371.446L1291.47 206.776L1290.49 205.03ZM1290.49 189.03L995.107 353.699C962.476 371.89 922.964 372.777 889.549 356.07L357.427 90.0088L356.533 91.7979L888.655 357.859C922.661 374.862 962.873 373.959 996.081 355.446L1291.47 190.776L1290.49 189.03ZM1290.49 173.03L995.107 337.699C962.476 355.89 922.964 356.777 889.549 340.07L357.427 74.0088L356.533 75.7979L888.655 341.859C922.661 358.862 962.873 357.959 996.081 339.446L1291.47 174.776L1290.49 173.03ZM1290.49 157.03L995.107 321.699C962.476 339.89 922.964 340.777 889.549 324.07L357.427 58.0088L356.533 59.7979L888.655 325.859C922.661 342.862 962.873 341.959 996.081 323.446L1291.47 158.776L1290.49 157.03ZM1290.49 141.03L995.107 305.699C962.476 323.89 922.964 324.777 889.549 308.07L357.427 42.0088L356.533 43.7979L888.655 309.859C922.661 326.862 962.873 325.959 996.081 307.446L1291.47 142.776L1290.49 141.03ZM1290.49 125.03L995.107 289.699C962.476 307.89 922.964 308.777 889.549 292.07L357.427 26.0088L356.533 27.7979L888.655 293.859C922.661 310.862 962.873 309.959 996.081 291.446L1291.47 126.776L1290.49 125.03ZM1290.49 109.03L995.107 273.699C962.476 291.89 922.964 292.777 889.549 276.07L357.427 10.0088L356.533 11.7979L888.655 277.859C922.661 294.862 962.873 293.959 996.081 275.446L1291.47 110.776L1290.49 109.03ZM1290.49 93.0303L995.107 257.699C962.476 275.89 922.964 276.777 889.549 260.07L357.427 -5.99121L356.533 -4.20215L888.655 261.859C922.661 278.862 962.873 277.959 996.081 259.446L1291.47 94.7764L1290.49 93.0303ZM1290.49 77.0303L995.107 241.699C962.476 259.89 922.964 260.777 889.549 244.07L357.427 -21.9912L356.533 -20.2021L888.655 245.859C922.661 262.862 962.873 261.959 996.081 243.446L1291.47 78.7764L1290.49 77.0303ZM1290.49 61.0303L995.107 225.699C962.476 243.89 922.964 244.777 889.549 228.07L357.427 -37.9912L356.533 -36.2021L888.655 229.859C922.661 246.862 962.873 245.959 996.081 227.446L1291.47 62.7764L1290.49 61.0303ZM1290.49 45.0303L995.107 209.699C962.476 227.89 922.964 228.777 889.549 212.07L357.427 -53.9912L356.533 -52.2021L888.655 213.859C922.661 230.862 962.873 229.959 996.081 211.446L1291.47 46.7764L1290.49 45.0303ZM1290.49 29.0303L995.107 193.699C962.476 211.89 922.964 212.777 889.549 196.07L357.427 -69.9912L356.533 -68.2021L888.655 197.859C922.661 214.862 962.873 213.959 996.081 195.446L1291.47 30.7764L1290.49 29.0303ZM1290.49 13.0303L995.107 177.699C962.476 195.89 922.964 196.777 889.549 180.07L357.427 -85.9912L356.533 -84.2021L888.655 181.859C922.661 198.862 962.873 197.959 996.081 179.446L1291.47 14.7764L1290.49 13.0303ZM1290.49 -2.96973L995.107 161.699C962.476 179.89 922.964 180.777 889.549 164.07L357.427 -101.991L356.533 -100.202L888.655 165.859C922.661 182.862 962.873 181.959 996.081 163.446L1291.47 -1.22363L1290.49 -2.96973ZM1290.49 -18.9697L995.107 145.699C962.476 163.89 922.964 164.777 889.549 148.07L357.427 -117.991L356.533 -116.202L888.655 149.859C922.661 166.862 962.873 165.959 996.081 147.446L1291.47 -17.2236L1290.49 -18.9697ZM1290.49 -34.9697L995.107 129.699C962.476 147.89 922.964 148.777 889.549 132.07L357.427 -133.991L356.533 -132.202L888.655 133.859C922.661 150.862 962.873 149.959 996.081 131.446L1291.47 -33.2236L1290.49 -34.9697ZM1290.49 -50.9697L995.107 113.699C962.476 131.89 922.964 132.777 889.549 116.07L357.427 -149.991L356.533 -148.202L888.655 117.859C922.661 134.862 962.873 133.959 996.081 115.446L1291.47 -49.2236L1290.49 -50.9697ZM1290.49 -66.9697L995.107 97.6992C962.476 115.89 922.964 116.777 889.549 100.07L357.427 -165.991L356.533 -164.202L888.655 101.859C922.661 118.862 962.873 117.959 996.081 99.4463L1291.47 -65.2236L1290.49 -66.9697ZM1290.49 -82.9697L995.107 81.6992C962.476 99.8898 922.964 100.777 889.549 84.0703L357.427 -181.991L356.533 -180.202L888.655 85.8594C922.661 102.862 962.873 101.959 996.081 83.4463L1291.47 -81.2236L1290.49 -82.9697ZM1290.49 -98.9697L995.107 65.6992C962.476 83.8898 922.964 84.7775 889.549 68.0703L357.427 -197.991L356.533 -196.202L888.655 69.8594C922.661 86.8622 962.873 85.9587 996.081 67.4463L1291.47 -97.2236L1290.49 -98.9697ZM1290.49 -114.97L995.107 49.6992C962.476 67.8898 922.964 68.7775 889.549 52.0703L357.427 -213.991L356.533 -212.202L888.655 53.8594C922.661 70.8622 962.873 69.9587 996.081 51.4463L1291.47 -113.224L1290.49 -114.97ZM1290.49 -130.97L995.107 33.6992C962.476 51.8898 922.964 52.7775 889.549 36.0703L357.427 -229.991L356.533 -228.202L888.655 37.8594C922.661 54.8622 962.873 53.9587 996.081 35.4463L1291.47 -129.224L1290.49 -130.97ZM1290.49 -146.97L995.107 17.6992C962.476 35.8898 922.964 36.7775 889.549 20.0703L357.427 -245.991L356.533 -244.202L888.655 21.8594C922.661 38.8622 962.873 37.9587 996.081 19.4463L1291.47 -145.224L1290.49 -146.97ZM1290.49 -162.97L995.107 1.69922C962.476 19.8898 922.964 20.7775 889.549 4.07031L357.427 -261.991L356.533 -260.202L888.655 5.85938C922.661 22.8622 962.873 21.9587 996.081 3.44629L1291.47 -161.224L1290.49 -162.97ZM1290.49 -178.97L995.107 -14.3008C962.476 3.88978 922.964 4.77748 889.549 -11.9297L357.427 -277.991L356.533 -276.202L888.655 -10.1406C922.661 6.86222 962.873 5.95873 996.081 -12.5537L1291.47 -177.224L1290.49 -178.97ZM1290.49 -194.97L995.107 -30.3008C962.476 -12.1102 922.964 -11.2225 889.549 -27.9297L357.427 -293.991L356.533 -292.202L888.655 -26.1406C922.661 -9.13778 962.873 -10.0413 996.081 -28.5537L1291.47 -193.224L1290.49 -194.97ZM1290.49 -210.97L995.107 -46.3008C962.476 -28.1102 922.964 -27.2225 889.549 -43.9297L357.427 -309.991L356.533 -308.202L888.655 -42.1406C922.661 -25.1378 962.873 -26.0413 996.081 -44.5537L1291.47 -209.224L1290.49 -210.97ZM1290.49 -226.97L995.107 -62.3008C962.476 -44.1102 922.964 -43.2225 889.549 -59.9297L357.427 -325.991L356.533 -324.202L888.655 -58.1406C922.661 -41.1378 962.873 -42.0413 996.081 -60.5537L1291.47 -225.224L1290.49 -226.97Z" fill="url(#paint0_radial_5_7799)" fill-opacity="0.5"/>
</g>
<g opacity="0.5">
<path opacity="0.2" d="M689.493 -692.03L394.107 -856.699C361.476 -874.89 321.964 -875.777 288.549 -859.07L-243.573 -593.009L-244.467 -594.798L287.655 -860.859C321.661 -877.862 361.873 -876.959 395.081 -858.446L690.467 -693.776L689.493 -692.03ZM689.493 -676.03L394.107 -840.699C361.476 -858.89 321.964 -859.777 288.549 -843.07L-243.573 -577.009L-244.467 -578.798L287.655 -844.859C321.661 -861.862 361.873 -860.959 395.081 -842.446L690.467 -677.776L689.493 -676.03ZM689.493 -660.03L394.107 -824.699C361.476 -842.89 321.964 -843.777 288.549 -827.07L-243.573 -561.009L-244.467 -562.798L287.655 -828.859C321.661 -845.862 361.873 -844.959 395.081 -826.446L690.467 -661.776L689.493 -660.03ZM689.493 -644.03L394.107 -808.699C361.476 -826.89 321.964 -827.777 288.549 -811.07L-243.573 -545.009L-244.467 -546.798L287.655 -812.859C321.661 -829.862 361.873 -828.959 395.081 -810.446L690.467 -645.776L689.493 -644.03ZM689.493 -628.03L394.107 -792.699C361.476 -810.89 321.964 -811.777 288.549 -795.07L-243.573 -529.009L-244.467 -530.798L287.655 -796.859C321.661 -813.862 361.873 -812.959 395.081 -794.446L690.467 -629.776L689.493 -628.03ZM689.493 -612.03L394.107 -776.699C361.476 -794.89 321.964 -795.777 288.549 -779.07L-243.573 -513.009L-244.467 -514.798L287.655 -780.859C321.661 -797.862 361.873 -796.959 395.081 -778.446L690.467 -613.776L689.493 -612.03ZM689.493 -596.03L394.107 -760.699C361.476 -778.89 321.964 -779.777 288.549 -763.07L-243.573 -497.009L-244.467 -498.798L287.655 -764.859C321.661 -781.862 361.873 -780.959 395.081 -762.446L690.467 -597.776L689.493 -596.03ZM689.493 -580.03L394.107 -744.699C361.476 -762.89 321.964 -763.777 288.549 -747.07L-243.573 -481.009L-244.467 -482.798L287.655 -748.859C321.661 -765.862 361.873 -764.959 395.081 -746.446L690.467 -581.776L689.493 -580.03ZM689.493 -564.03L394.107 -728.699C361.476 -746.89 321.964 -747.777 288.549 -731.07L-243.573 -465.009L-244.467 -466.798L287.655 -732.859C321.661 -749.862 361.873 -748.959 395.081 -730.446L690.467 -565.776L689.493 -564.03ZM689.493 -548.03L394.107 -712.699C361.476 -730.89 321.964 -731.777 288.549 -715.07L-243.573 -449.009L-244.467 -450.798L287.655 -716.859C321.661 -733.862 361.873 -732.959 395.081 -714.446L690.467 -549.776L689.493 -548.03ZM689.493 -532.03L394.107 -696.699C361.476 -714.89 321.964 -715.777 288.549 -699.07L-243.573 -433.009L-244.467 -434.798L287.655 -700.859C321.661 -717.862 361.873 -716.959 395.081 -698.446L690.467 -533.776L689.493 -532.03ZM689.493 -516.03L394.107 -680.699C361.476 -698.89 321.964 -699.777 288.549 -683.07L-243.573 -417.009L-244.467 -418.798L287.655 -684.859C321.661 -701.862 361.873 -700.959 395.081 -682.446L690.467 -517.776L689.493 -516.03ZM689.493 -500.03L394.107 -664.699C361.476 -682.89 321.964 -683.777 288.549 -667.07L-243.573 -401.009L-244.467 -402.798L287.655 -668.859C321.661 -685.862 361.873 -684.959 395.081 -666.446L690.467 -501.776L689.493 -500.03ZM689.493 -484.03L394.107 -648.699C361.476 -666.89 321.964 -667.777 288.549 -651.07L-243.573 -385.009L-244.467 -386.798L287.655 -652.859C321.661 -669.862 361.873 -668.959 395.081 -650.446L690.467 -485.776L689.493 -484.03ZM689.493 -468.03L394.107 -632.699C361.476 -650.89 321.964 -651.777 288.549 -635.07L-243.573 -369.009L-244.467 -370.798L287.655 -636.859C321.661 -653.862 361.873 -652.959 395.081 -634.446L690.467 -469.776L689.493 -468.03ZM689.493 -452.03L394.107 -616.699C361.476 -634.89 321.964 -635.777 288.549 -619.07L-243.573 -353.009L-244.467 -354.798L287.655 -620.859C321.661 -637.862 361.873 -636.959 395.081 -618.446L690.467 -453.776L689.493 -452.03ZM689.493 -436.03L394.107 -600.699C361.476 -618.89 321.964 -619.777 288.549 -603.07L-243.573 -337.009L-244.467 -338.798L287.655 -604.859C321.661 -621.862 361.873 -620.959 395.081 -602.446L690.467 -437.776L689.493 -436.03ZM689.493 -420.03L394.107 -584.699C361.476 -602.89 321.964 -603.777 288.549 -587.07L-243.573 -321.009L-244.467 -322.798L287.655 -588.859C321.661 -605.862 361.873 -604.959 395.081 -586.446L690.467 -421.776L689.493 -420.03ZM689.493 -404.03L394.107 -568.699C361.476 -586.89 321.964 -587.777 288.549 -571.07L-243.573 -305.009L-244.467 -306.798L287.655 -572.859C321.661 -589.862 361.873 -588.959 395.081 -570.446L690.467 -405.776L689.493 -404.03ZM689.493 -388.03L394.107 -552.699C361.476 -570.89 321.964 -571.777 288.549 -555.07L-243.573 -289.009L-244.467 -290.798L287.655 -556.859C321.661 -573.862 361.873 -572.959 395.081 -554.446L690.467 -389.776L689.493 -388.03ZM689.493 -372.03L394.107 -536.699C361.476 -554.89 321.964 -555.777 288.549 -539.07L-243.573 -273.009L-244.467 -274.798L287.655 -540.859C321.661 -557.862 361.873 -556.959 395.081 -538.446L690.467 -373.776L689.493 -372.03ZM689.493 -356.03L394.107 -520.699C361.476 -538.89 321.964 -539.777 288.549 -523.07L-243.573 -257.009L-244.467 -258.798L287.655 -524.859C321.661 -541.862 361.873 -540.959 395.081 -522.446L690.467 -357.776L689.493 -356.03ZM689.493 -340.03L394.107 -504.699C361.476 -522.89 321.964 -523.777 288.549 -507.07L-243.573 -241.009L-244.467 -242.798L287.655 -508.859C321.661 -525.862 361.873 -524.959 395.081 -506.446L690.467 -341.776L689.493 -340.03ZM689.493 -324.03L394.107 -488.699C361.476 -506.89 321.964 -507.777 288.549 -491.07L-243.573 -225.009L-244.467 -226.798L287.655 -492.859C321.661 -509.862 361.873 -508.959 395.081 -490.446L690.467 -325.776L689.493 -324.03ZM689.493 -308.03L394.107 -472.699C361.476 -490.89 321.964 -491.777 288.549 -475.07L-243.573 -209.009L-244.467 -210.798L287.655 -476.859C321.661 -493.862 361.873 -492.959 395.081 -474.446L690.467 -309.776L689.493 -308.03ZM689.493 -292.03L394.107 -456.699C361.476 -474.89 321.964 -475.777 288.549 -459.07L-243.573 -193.009L-244.467 -194.798L287.655 -460.859C321.661 -477.862 361.873 -476.959 395.081 -458.446L690.467 -293.776L689.493 -292.03ZM689.493 -276.03L394.107 -440.699C361.476 -458.89 321.964 -459.777 288.549 -443.07L-243.573 -177.009L-244.467 -178.798L287.655 -444.859C321.661 -461.862 361.873 -460.959 395.081 -442.446L690.467 -277.776L689.493 -276.03ZM689.493 -260.03L394.107 -424.699C361.476 -442.89 321.964 -443.777 288.549 -427.07L-243.573 -161.009L-244.467 -162.798L287.655 -428.859C321.661 -445.862 361.873 -444.959 395.081 -426.446L690.467 -261.776L689.493 -260.03ZM689.493 -244.03L394.107 -408.699C361.476 -426.89 321.964 -427.777 288.549 -411.07L-243.573 -145.009L-244.467 -146.798L287.655 -412.859C321.661 -429.862 361.873 -428.959 395.081 -410.446L690.467 -245.776L689.493 -244.03ZM689.493 -228.03L394.107 -392.699C361.476 -410.89 321.964 -411.777 288.549 -395.07L-243.573 -129.009L-244.467 -130.798L287.655 -396.859C321.661 -413.862 361.873 -412.959 395.081 -394.446L690.467 -229.776L689.493 -228.03ZM689.493 -212.03L394.107 -376.699C361.476 -394.89 321.964 -395.777 288.549 -379.07L-243.573 -113.009L-244.467 -114.798L287.655 -380.859C321.661 -397.862 361.873 -396.959 395.081 -378.446L690.467 -213.776L689.493 -212.03ZM689.493 -196.03L394.107 -360.699C361.476 -378.89 321.964 -379.777 288.549 -363.07L-243.573 -97.0088L-244.467 -98.7979L287.655 -364.859C321.661 -381.862 361.873 -380.959 395.081 -362.446L690.467 -197.776L689.493 -196.03ZM689.493 -180.03L394.107 -344.699C361.476 -362.89 321.964 -363.777 288.549 -347.07L-243.573 -81.0088L-244.467 -82.7979L287.655 -348.859C321.661 -365.862 361.873 -364.959 395.081 -346.446L690.467 -181.776L689.493 -180.03ZM689.493 -164.03L394.107 -328.699C361.476 -346.89 321.964 -347.777 288.549 -331.07L-243.573 -65.0088L-244.467 -66.7979L287.655 -332.859C321.661 -349.862 361.873 -348.959 395.081 -330.446L690.467 -165.776L689.493 -164.03ZM689.493 -148.03L394.107 -312.699C361.476 -330.89 321.964 -331.777 288.549 -315.07L-243.573 -49.0088L-244.467 -50.7979L287.655 -316.859C321.661 -333.862 361.873 -332.959 395.081 -314.446L690.467 -149.776L689.493 -148.03ZM689.493 -132.03L394.107 -296.699C361.476 -314.89 321.964 -315.777 288.549 -299.07L-243.573 -33.0088L-244.467 -34.7979L287.655 -300.859C321.661 -317.862 361.873 -316.959 395.081 -298.446L690.467 -133.776L689.493 -132.03ZM689.493 -116.03L394.107 -280.699C361.476 -298.89 321.964 -299.777 288.549 -283.07L-243.573 -17.0088L-244.467 -18.7979L287.655 -284.859C321.661 -301.862 361.873 -300.959 395.081 -282.446L690.467 -117.776L689.493 -116.03ZM689.493 -100.03L394.107 -264.699C361.476 -282.89 321.964 -283.777 288.549 -267.07L-243.573 -1.00879L-244.467 -2.79785L287.655 -268.859C321.661 -285.862 361.873 -284.959 395.081 -266.446L690.467 -101.776L689.493 -100.03ZM689.493 -84.0303L394.107 -248.699C361.476 -266.89 321.964 -267.777 288.549 -251.07L-243.573 14.9912L-244.467 13.2021L287.655 -252.859C321.661 -269.862 361.873 -268.959 395.081 -250.446L690.467 -85.7764L689.493 -84.0303ZM689.493 -68.0303L394.107 -232.699C361.476 -250.89 321.964 -251.777 288.549 -235.07L-243.573 30.9912L-244.467 29.2021L287.655 -236.859C321.661 -253.862 361.873 -252.959 395.081 -234.446L690.467 -69.7764L689.493 -68.0303ZM689.493 -52.0303L394.107 -216.699C361.476 -234.89 321.964 -235.777 288.549 -219.07L-243.573 46.9912L-244.467 45.2021L287.655 -220.859C321.661 -237.862 361.873 -236.959 395.081 -218.446L690.467 -53.7764L689.493 -52.0303ZM689.493 -36.0303L394.107 -200.699C361.476 -218.89 321.964 -219.777 288.549 -203.07L-243.573 62.9912L-244.467 61.2021L287.655 -204.859C321.661 -221.862 361.873 -220.959 395.081 -202.446L690.467 -37.7764L689.493 -36.0303ZM689.493 -20.0303L394.107 -184.699C361.476 -202.89 321.964 -203.777 288.549 -187.07L-243.573 78.9912L-244.467 77.2021L287.655 -188.859C321.661 -205.862 361.873 -204.959 395.081 -186.446L690.467 -21.7764L689.493 -20.0303ZM689.493 -4.03027L394.107 -168.699C361.476 -186.89 321.964 -187.777 288.549 -171.07L-243.573 94.9912L-244.467 93.2021L287.655 -172.859C321.661 -189.862 361.873 -188.959 395.081 -170.446L690.467 -5.77637L689.493 -4.03027ZM689.493 11.9697L394.107 -152.699C361.476 -170.89 321.964 -171.777 288.549 -155.07L-243.573 110.991L-244.467 109.202L287.655 -156.859C321.661 -173.862 361.873 -172.959 395.081 -154.446L690.467 10.2236L689.493 11.9697ZM689.493 27.9697L394.107 -136.699C361.476 -154.89 321.964 -155.777 288.549 -139.07L-243.573 126.991L-244.467 125.202L287.655 -140.859C321.661 -157.862 361.873 -156.959 395.081 -138.446L690.467 26.2236L689.493 27.9697ZM689.493 43.9697L394.107 -120.699C361.476 -138.89 321.964 -139.777 288.549 -123.07L-243.573 142.991L-244.467 141.202L287.655 -124.859C321.661 -141.862 361.873 -140.959 395.081 -122.446L690.467 42.2236L689.493 43.9697ZM689.493 59.9697L394.107 -104.699C361.476 -122.89 321.964 -123.777 288.549 -107.07L-243.573 158.991L-244.467 157.202L287.655 -108.859C321.661 -125.862 361.873 -124.959 395.081 -106.446L690.467 58.2236L689.493 59.9697ZM689.493 75.9697L394.107 -88.6992C361.476 -106.89 321.964 -107.777 288.549 -91.0703L-243.573 174.991L-244.467 173.202L287.655 -92.8594C321.661 -109.862 361.873 -108.959 395.081 -90.4463L690.467 74.2236L689.493 75.9697ZM689.493 91.9697L394.107 -72.6992C361.476 -90.8898 321.964 -91.7775 288.549 -75.0703L-243.573 190.991L-244.467 189.202L287.655 -76.8594C321.661 -93.8622 361.873 -92.9587 395.081 -74.4463L690.467 90.2236L689.493 91.9697ZM689.493 107.97L394.107 -56.6992C361.476 -74.8898 321.964 -75.7775 288.549 -59.0703L-243.573 206.991L-244.467 205.202L287.655 -60.8594C321.661 -77.8622 361.873 -76.9587 395.081 -58.4463L690.467 106.224L689.493 107.97ZM689.493 123.97L394.107 -40.6992C361.476 -58.8898 321.964 -59.7775 288.549 -43.0703L-243.573 222.991L-244.467 221.202L287.655 -44.8594C321.661 -61.8622 361.873 -60.9587 395.081 -42.4463L690.467 122.224L689.493 123.97ZM689.493 139.97L394.107 -24.6992C361.476 -42.8898 321.964 -43.7775 288.549 -27.0703L-243.573 238.991L-244.467 237.202L287.655 -28.8594C321.661 -45.8622 361.873 -44.9587 395.081 -26.4463L690.467 138.224L689.493 139.97ZM689.493 155.97L394.107 -8.69922C361.476 -26.8898 321.964 -27.7775 288.549 -11.0703L-243.573 254.991L-244.467 253.202L287.655 -12.8594C321.661 -29.8622 361.873 -28.9587 395.081 -10.4463L690.467 154.224L689.493 155.97ZM689.493 171.97L394.107 7.30078C361.476 -10.8898 321.964 -11.7775 288.549 4.92969L-243.573 270.991L-244.467 269.202L287.655 3.14062C321.661 -13.8622 361.873 -12.9587 395.081 5.55371L690.467 170.224L689.493 171.97ZM689.493 187.97L394.107 23.3008C361.476 5.11022 321.964 4.22252 288.549 20.9297L-243.573 286.991L-244.467 285.202L287.655 19.1406C321.661 2.13778 361.873 3.04127 395.081 21.5537L690.467 186.224L689.493 187.97ZM689.493 203.97L394.107 39.3008C361.476 21.1102 321.964 20.2225 288.549 36.9297L-243.573 302.991L-244.467 301.202L287.655 35.1406C321.661 18.1378 361.873 19.0413 395.081 37.5537L690.467 202.224L689.493 203.97ZM689.493 219.97L394.107 55.3008C361.476 37.1102 321.964 36.2225 288.549 52.9297L-243.573 318.991L-244.467 317.202L287.655 51.1406C321.661 34.1378 361.873 35.0413 395.081 53.5537L690.467 218.224L689.493 219.97ZM689.493 235.97L394.107 71.3008C361.476 53.1102 321.964 52.2225 288.549 68.9297L-243.573 334.991L-244.467 333.202L287.655 67.1406C321.661 50.1378 361.873 51.0413 395.081 69.5537L690.467 234.224L689.493 235.97ZM689.493 251.97L394.107 87.3008C361.476 69.1102 321.964 68.2225 288.549 84.9297L-243.573 350.991L-244.467 349.202L287.655 83.1406C321.661 66.1378 361.873 67.0413 395.081 85.5537L690.467 250.224L689.493 251.97ZM689.493 267.97L394.107 103.301C361.476 85.1102 321.964 84.2225 288.549 100.93L-243.573 366.991L-244.467 365.202L287.655 99.1406C321.661 82.1378 361.873 83.0413 395.081 101.554L690.467 266.224L689.493 267.97ZM689.493 283.97L394.107 119.301C361.476 101.11 321.964 100.223 288.549 116.93L-243.573 382.991L-244.467 381.202L287.655 115.141C321.661 98.1378 361.873 99.0413 395.081 117.554L690.467 282.224L689.493 283.97ZM689.493 299.97L394.107 135.301C361.476 117.11 321.964 116.223 288.549 132.93L-243.573 398.991L-244.467 397.202L287.655 131.141C321.661 114.138 361.873 115.041 395.081 133.554L690.467 298.224L689.493 299.97ZM689.493 315.97L394.107 151.301C361.476 133.11 321.964 132.223 288.549 148.93L-243.573 414.991L-244.467 413.202L287.655 147.141C321.661 130.138 361.873 131.041 395.081 149.554L690.467 314.224L689.493 315.97ZM689.493 331.97L394.107 167.301C361.476 149.11 321.964 148.223 288.549 164.93L-243.573 430.991L-244.467 429.202L287.655 163.141C321.661 146.138 361.873 147.041 395.081 165.554L690.467 330.224L689.493 331.97ZM689.493 347.97L394.107 183.301C361.476 165.11 321.964 164.223 288.549 180.93L-243.573 446.991L-244.467 445.202L287.655 179.141C321.661 162.138 361.873 163.041 395.081 181.554L690.467 346.224L689.493 347.97ZM689.493 363.97L394.107 199.301C361.476 181.11 321.964 180.223 288.549 196.93L-243.573 462.991L-244.467 461.202L287.655 195.141C321.661 178.138 361.873 179.041 395.081 197.554L690.467 362.224L689.493 363.97ZM689.493 379.97L394.107 215.301C361.476 197.11 321.964 196.223 288.549 212.93L-243.573 478.991L-244.467 477.202L287.655 211.141C321.661 194.138 361.873 195.041 395.081 213.554L690.467 378.224L689.493 379.97ZM689.493 395.97L394.107 231.301C361.476 213.11 321.964 212.223 288.549 228.93L-243.573 494.991L-244.467 493.202L287.655 227.141C321.661 210.138 361.873 211.041 395.081 229.554L690.467 394.224L689.493 395.97ZM689.493 411.97L394.107 247.301C361.476 229.11 321.964 228.223 288.549 244.93L-243.573 510.991L-244.467 509.202L287.655 243.141C321.661 226.138 361.873 227.041 395.081 245.554L690.467 410.224L689.493 411.97ZM689.493 427.97L394.107 263.301C361.476 245.11 321.964 244.223 288.549 260.93L-243.573 526.991L-244.467 525.202L287.655 259.141C321.661 242.138 361.873 243.041 395.081 261.554L690.467 426.224L689.493 427.97ZM689.493 443.97L394.107 279.301C361.476 261.11 321.964 260.223 288.549 276.93L-243.573 542.991L-244.467 541.202L287.655 275.141C321.661 258.138 361.873 259.041 395.081 277.554L690.467 442.224L689.493 443.97ZM689.493 459.97L394.107 295.301C361.476 277.11 321.964 276.223 288.549 292.93L-243.573 558.991L-244.467 557.202L287.655 291.141C321.661 274.138 361.873 275.041 395.081 293.554L690.467 458.224L689.493 459.97ZM689.493 475.97L394.107 311.301C361.476 293.11 321.964 292.223 288.549 308.93L-243.573 574.991L-244.467 573.202L287.655 307.141C321.661 290.138 361.873 291.041 395.081 309.554L690.467 474.224L689.493 475.97ZM689.493 491.97L394.107 327.301C361.476 309.11 321.964 308.223 288.549 324.93L-243.573 590.991L-244.467 589.202L287.655 323.141C321.661 306.138 361.873 307.041 395.081 325.554L690.467 490.224L689.493 491.97ZM689.493 507.97L394.107 343.301C361.476 325.11 321.964 324.223 288.549 340.93L-243.573 606.991L-244.467 605.202L287.655 339.141C321.661 322.138 361.873 323.041 395.081 341.554L690.467 506.224L689.493 507.97ZM689.493 523.97L394.107 359.301C361.476 341.11 321.964 340.223 288.549 356.93L-243.573 622.991L-244.467 621.202L287.655 355.141C321.661 338.138 361.873 339.041 395.081 357.554L690.467 522.224L689.493 523.97ZM689.493 539.97L394.107 375.301C361.476 357.11 321.964 356.223 288.549 372.93L-243.573 638.991L-244.467 637.202L287.655 371.141C321.661 354.138 361.873 355.041 395.081 373.554L690.467 538.224L689.493 539.97ZM689.493 555.97L394.107 391.301C361.476 373.11 321.964 372.223 288.549 388.93L-243.573 654.991L-244.467 653.202L287.655 387.141C321.661 370.138 361.873 371.041 395.081 389.554L690.467 554.224L689.493 555.97ZM689.493 571.97L394.107 407.301C361.476 389.11 321.964 388.223 288.549 404.93L-243.573 670.991L-244.467 669.202L287.655 403.141C321.661 386.138 361.873 387.041 395.081 405.554L690.467 570.224L689.493 571.97ZM689.493 587.97L394.107 423.301C361.476 405.11 321.964 404.223 288.549 420.93L-243.573 686.991L-244.467 685.202L287.655 419.141C321.661 402.138 361.873 403.041 395.081 421.554L690.467 586.224L689.493 587.97ZM689.493 603.97L394.107 439.301C361.476 421.11 321.964 420.223 288.549 436.93L-243.573 702.991L-244.467 701.202L287.655 435.141C321.661 418.138 361.873 419.041 395.081 437.554L690.467 602.224L689.493 603.97ZM689.493 619.97L394.107 455.301C361.476 437.11 321.964 436.223 288.549 452.93L-243.573 718.991L-244.467 717.202L287.655 451.141C321.661 434.138 361.873 435.041 395.081 453.554L690.467 618.224L689.493 619.97Z" fill="url(#paint1_radial_5_7799)" fill-opacity="0.5"/>
</g>
</g>
<defs>
<radialGradient id="paint0_radial_5_7799" cx="0" cy="0" r="1" gradientUnits="userSpaceOnUse" gradientTransform="translate(1038 205) rotate(-163.487) scale(485.525 221.522)">
<stop offset="0.257699" stop-opacity="0"/>
<stop offset="0.485164" stop-color="#F1F1F6"/>
<stop offset="1" stop-opacity="0"/>
</radialGradient>
<radialGradient id="paint1_radial_5_7799" cx="0" cy="0" r="1" gradientUnits="userSpaceOnUse" gradientTransform="translate(141.5 178) rotate(16.2746) scale(717.24 327.243)">
<stop offset="0.435" stop-opacity="0"/>
<stop offset="0.685" stop-color="#F1F1F6"/>
<stop offset="1" stop-opacity="0"/>
</radialGradient>
<clipPath id="clip0_5_7799">
<rect width="1280" height="59" fill="white"/>
</clipPath>
</defs>
</svg>
