<svg width="32" height="32" viewBox="0 0 32 32" fill="none" xmlns="http://www.w3.org/2000/svg">
<path d="M5.60095 22.7632V28.869L10.9065 25.8093C8.86902 25.3723 7.01981 24.3098 5.60095 22.7699V22.7632Z" class="logo-accent"/>
<path d="M10.8662 6.03271L5.60095 3V9.06543C7.08033 7.45829 8.98334 6.44963 10.8662 6.03271Z" class="logo-accent"/>
<path d="M28 15.9311C27.7512 15.7831 23.0038 13.0463 22.6945 12.8715C23.3198 14.8552 23.3199 17.0003 22.681 19.0041L28 15.9311Z" class="logo-accent"/>
<path d="M9.09766 7.63303C9.85752 7.46492 11.4378 7.6263 12.2716 7.86166C12.9373 7.33043 13.946 7.0211 14.9546 6.97403C12.6414 6.55712 10.5098 7.04128 9.09766 7.63303Z" class="logo-accent"/>
<path d="M19.2044 18.7352C19.0833 17.6324 18.8076 16.4691 18.3773 15.3394C16.5617 16.1597 14.309 15.6285 12.8095 14.3307C11.7134 15.4537 10.6509 16.8456 9.85071 18.0829C12.3993 20.1608 16.5886 20.7054 19.2044 18.7352Z" class="logo-accent"/>
<path d="M8.45887 18.2846C6.21292 15.9849 5.42616 12.6294 6.14567 10.054C3.09951 13.6515 3.31469 18.9907 6.6769 22.3327C7.04675 20.9408 7.72591 19.5219 8.45887 18.2914V18.2846Z" class="logo-accent"/>
<path d="M17.9537 14.3642C17.4762 13.369 16.871 12.4209 16.1313 11.5736C15.311 12.1183 14.4368 12.784 13.5693 13.5842C14.9209 14.7139 16.7029 14.9358 17.9469 14.3642H17.9537Z" class="logo-accent"/>
<path d="M16.2793 10.1683C16.8643 9.7447 17.6712 9.29416 18.2495 9.07898C16.8105 7.62651 14.4973 7.66013 13.4954 8.29223C14.5107 8.74276 15.4387 9.36141 16.2793 10.1683Z" class="logo-accent"/>
<path d="M9.27912 19.0243C8.16286 20.9542 7.75267 22.3731 7.60474 23.1262C10.9199 25.6344 15.5328 25.5604 18.774 22.9245C19.1102 22.1108 19.2783 21.1021 19.2783 19.9926C16.1985 21.8284 11.9353 21.1223 9.27912 19.0243Z" class="logo-accent"/>
<path d="M18.848 13.7187C19.8365 12.6764 19.6415 10.9146 18.8884 9.89246C18.4244 10.0471 17.4628 10.612 17.0459 10.9751C17.7251 11.7753 18.3504 12.71 18.8548 13.7187H18.848Z" class="logo-accent"/>
<path d="M20.5562 11.4929C20.7108 12.8244 20.1998 13.981 19.3054 14.7476C19.7022 15.7293 19.9913 16.7582 20.1594 17.787C21.5178 16.0252 21.4774 13.5035 20.5562 11.4862V11.4929Z" class="logo-accent"/>
<path d="M12.8364 12.8043C13.6836 12.0243 14.5444 11.3518 15.3648 10.787C14.5242 10.0271 13.5761 9.45554 12.5674 9.08569C11.7403 10.2154 11.9958 11.6746 12.8364 12.8043Z" class="logo-accent"/>
<path d="M20.3274 19.2126C20.3745 19.9725 20.3073 20.8265 20.2131 21.5057C21.7665 19.5287 22.291 17.081 22.1094 15.1713C21.9211 16.7784 21.3361 18.1233 20.3274 19.2126Z" class="logo-accent"/>
<path d="M11.5251 8.7628C10.3819 8.48037 9.04378 8.47365 7.92752 8.7897C6.14555 11.3181 6.97265 15.0165 9.0505 17.3364C9.83726 16.1328 10.9804 14.6399 12.063 13.5506C11.0073 12.2393 10.5904 10.2153 11.5251 8.7628Z" class="logo-accent"/>
</svg>
