<svg width="392" height="48" viewBox="0 0 392 48" fill="none" xmlns="http://www.w3.org/2000/svg">
<path d="M22.8188 33.1485L25.3228 23.986L21.1766 8.55499H12L20.1941 39.445H29.4353L27.7706 33.2187L22.8188 33.1485Z" fill="#019AEB"/>
<path d="M30.968 8.55499L26.8442 23.986L28.9356 31.5709H34.0025L40.2288 8.55499H30.968Z" fill="#019AEB"/>
<path d="M57.0167 31.2045L50.229 11.5993H53.5976L58.6252 26.8338H58.6786L63.796 11.6105H66.912L60.1299 31.2157L57.0167 31.2045Z" fill="#F1F1F6"/>
<path d="M68.8208 14.6844V11.8773H72.1473V14.6844H68.8208ZM68.8489 31.1231V17.1126H72.1248V31.1231H68.8489Z" fill="#F1F1F6"/>
<path d="M74.4434 24.1333C74.4434 18.7997 78.2162 16.8487 81.1188 16.8487C84.2572 16.8487 87.2665 18.7239 87.2665 24.428V25.1916H77.6884C77.8204 27.718 79.3727 28.8409 81.4332 28.8409C83.255 28.8409 84.3105 28.2317 85.3632 27.2043L87.0784 28.8886C85.6271 30.4999 83.7098 31.4151 81.1833 31.4151C77.6884 31.4151 74.4434 29.276 74.4434 24.1333ZM84.2853 22.7606C84.1 20.6215 83.0445 19.4874 81.0907 19.4874C79.5075 19.4874 78.0562 20.3857 77.739 22.7606H84.2853Z" fill="#F1F1F6"/>
<path d="M91.9211 31.1231L87.7524 17.1126H91.0509L92.5808 22.9178C93.0018 24.5011 93.2657 25.5818 93.6362 27.3784H93.6896C94.1107 25.4779 94.3493 24.4758 94.7984 22.8645L96.2666 17.1126H98.9053L100.477 22.9712C100.926 24.5263 101.165 25.5818 101.561 27.3784H101.6C102.021 25.5565 102.26 24.5544 102.706 23.0245L104.289 17.1126H107.245L103.077 31.1231H100.048L97.5214 21.3879H97.468L94.9416 31.1231H91.9211Z" fill="#F1F1F6"/>
<path d="M108.898 36.4007V17.1127H112.155V18.9738C112.69 18.3082 113.369 17.7725 114.141 17.4068C114.913 17.0412 115.758 16.8552 116.613 16.8628C119.807 16.8628 122.154 19.2658 122.154 24.1193C122.154 28.9729 119.754 31.3253 116.163 31.3253C115.408 31.3312 114.66 31.1766 113.969 30.8717C113.278 30.5668 112.66 30.1186 112.155 29.5568V36.3894L108.898 36.4007ZM118.898 24.1334C118.898 21.1774 117.632 19.6195 115.546 19.6195C114.201 19.6195 112.907 20.4616 112.144 21.388V27.0023C112.526 27.5229 113.021 27.9499 113.593 28.2514C114.164 28.5529 114.796 28.7209 115.442 28.7427C117.907 28.7484 118.909 27.2465 118.909 24.1334H118.898Z" fill="#F1F1F6"/>
<path d="M123.776 24.1333C123.776 18.9597 127.179 16.8487 130.609 16.8487C134.039 16.8487 137.442 18.9597 137.442 24.1333C137.442 29.2507 134.014 31.4151 130.609 31.4151C127.204 31.4151 123.776 29.2507 123.776 24.1333ZM134.163 24.1333C134.163 21.5198 133.054 19.6194 130.601 19.6194C128.251 19.6194 127.038 21.3037 127.038 24.1333C127.038 26.7973 128.122 28.6977 130.601 28.6977C132.956 28.6977 134.163 27.0078 134.163 24.1333Z" fill="#F1F1F6"/>
<path d="M139.777 14.6844V11.8773H143.09V14.6844H139.777ZM139.803 31.1231V17.1126H143.076V31.1231H139.803Z" fill="#F1F1F6"/>
<path d="M146.113 31.1231V17.1126H149.358V19.3583C150.414 18.1456 152.05 16.8515 154.372 16.8515C156.932 16.8515 158.515 18.1709 158.515 20.9415V31.1259H155.27V21.8623C155.27 20.3324 154.636 19.5408 153.159 19.5408C151.733 19.5408 150.546 20.2538 149.358 21.3598V31.1231H146.113Z" fill="#F1F1F6"/>
<path d="M162.555 27.4571V19.6981H160.127V17.1127H162.555V12.2366H165.8V17.1127H169.413V19.6981H165.8V26.6374C165.8 28.142 166.247 28.7484 167.858 28.7484C168.332 28.7498 168.804 28.6884 169.261 28.5659V31.1232C168.476 31.245 167.682 31.307 166.887 31.3085C163.319 31.3085 162.555 29.9891 162.555 27.4571Z" fill="#F1F1F6"/>
<path d="M179.413 11.5741H181.285V19.9366H191.866V11.5741H193.741V31.0979H191.866V21.6518H181.285V31.0979H179.413V11.5741Z" fill="#F1F1F6"/>
<path d="M198.036 11.5741H204.579C208.933 11.5741 211.361 13.4212 211.361 16.8516C211.361 20.018 209.514 21.5985 206.69 22.1262L211.625 31.1091H209.514L204.742 22.3508H199.886V31.1091H198.038L198.036 11.5741ZM204.461 20.6749C207.678 20.6749 209.5 19.7514 209.5 16.9302C209.5 14.2381 207.706 13.2808 204.447 13.2808H199.883V20.6665L204.461 20.6749Z" fill="#F1F1F6"/>
<path d="M220.386 11.5741H222.814L229.358 28.6725H229.411L235.901 11.5741H238.38V31.0979H236.508V14.7378H236.463C236.199 15.608 235.725 16.8993 235.25 18.1681L230.197 31.0951H228.482L223.429 18.1822C222.952 16.9133 222.638 16.0964 222.214 14.6985H222.16V31.1091H220.42L220.386 11.5741Z" fill="#F1F1F6"/>
<path d="M241.46 27.8528C241.46 25.1102 243.807 23.1031 250.878 22.0224V21.3093C250.878 19.3836 249.876 18.4601 248.057 18.4601C245.867 18.4601 244.309 19.3836 242.858 20.6497L241.881 19.5268C243.543 17.9969 245.471 16.9414 248.214 16.9414C251.327 16.9414 252.675 18.6032 252.675 21.3739V27.6788C252.675 29.3631 252.778 30.3961 253.07 31.1091H251.195C250.983 30.471 250.876 29.8026 250.878 29.1301C249.269 30.5814 247.476 31.3478 245.39 31.3478C242.92 31.3365 241.46 30.0172 241.46 27.8528ZM250.878 27.6423V23.3137C244.916 24.3186 243.254 25.7952 243.254 27.617C243.254 29.0683 244.231 29.8319 245.78 29.8319C247.74 29.8319 249.455 29.015 250.878 27.6507V27.6423Z" fill="#F1F1F6"/>
<path d="M256.113 17.194H257.932V19.3836C259.28 18.0643 261.045 16.9302 263.238 16.9302C265.98 16.9302 267.378 18.4601 267.378 21.0455V31.0979H265.559V21.3879C265.559 19.4229 264.689 18.4853 262.789 18.4853C260.995 18.4853 259.49 19.4089 257.932 20.9135V31.0979H256.113V17.194Z" fill="#F1F1F6"/>
<path d="M269.93 27.8528C269.93 25.1102 272.279 23.1031 279.351 22.0224V21.3093C279.351 19.3836 278.348 18.4601 276.527 18.4601C274.337 18.4601 272.782 19.3836 271.33 20.6497L270.354 19.5268C272.015 17.9969 273.941 16.9414 276.687 16.9414C279.8 16.9414 281.144 18.6032 281.144 21.3739V27.6788C281.144 29.3631 281.251 30.3961 281.54 31.1091H279.668C279.455 30.471 279.348 29.8026 279.351 29.1301C277.742 30.5814 275.945 31.3478 273.863 31.3478C271.381 31.3365 269.93 30.0172 269.93 27.8528ZM279.351 27.6423V23.3137C273.388 24.3186 271.726 25.7952 271.726 27.617C271.726 29.0683 272.7 29.8319 274.253 29.8319C276.209 29.8319 277.924 29.015 279.351 27.6507V27.6423Z" fill="#F1F1F6"/>
<path d="M283.188 32.945C283.188 31.5218 284.137 30.4186 285.749 29.7786C284.906 29.4361 284.508 28.855 284.508 28.0129C284.508 27.1707 285.193 26.4549 286.192 25.9271C285.528 25.5003 284.985 24.9096 284.615 24.2119C284.245 23.5142 284.061 22.7331 284.081 21.9438C284.081 18.9878 286.431 16.9302 289.572 16.9302C291.023 16.8889 292.435 17.3972 293.527 18.3534C294.485 17.6825 295.589 17.2486 296.747 17.0874V18.8026C295.882 18.7922 295.023 18.9534 294.221 19.277C294.779 20.0515 295.067 20.9891 295.038 21.9438C295.038 24.9783 292.663 26.876 289.578 26.876C288.811 26.8851 288.049 26.7509 287.332 26.4802C286.672 26.744 286.209 27.1398 286.209 27.6676C286.209 28.2487 286.709 28.5659 288.267 28.7231L291.301 28.9617C294.521 29.2256 296.208 30.3344 296.208 32.4959C296.208 35.0223 293.569 36.4259 289.771 36.4259C285.274 36.4287 283.188 35.0841 283.188 32.945ZM294.535 32.6643C294.535 31.345 293.48 30.6853 290.734 30.4747L287.963 30.2614L287.25 30.1828C285.695 30.6853 284.929 31.6622 284.929 32.7092C284.929 34.1605 286.459 35.0027 289.982 35.0027C292.82 35.0027 294.535 34.0539 294.535 32.6559V32.6643ZM293.32 21.9775C293.32 19.7598 291.95 18.3899 289.575 18.3899C287.278 18.3899 285.852 19.8131 285.852 21.9775C285.852 24.1418 287.332 25.4864 289.6 25.4864C291.868 25.4864 293.32 24.1053 293.32 21.969V21.9775Z" fill="#F1F1F6"/>
<path d="M297.822 24.1334C297.822 19.1984 300.988 16.9302 303.916 16.9302C307.161 16.9302 309.589 19.4089 309.589 24.1586V24.5011H299.644C299.669 27.9314 301.609 29.8572 304.023 29.8572C306.106 29.8572 307.293 28.9617 308.349 27.3307L309.486 28.229C308.27 30.194 306.555 31.3955 303.916 31.3955C300.671 31.3899 297.822 28.8831 297.822 24.1334ZM307.821 23.0498C307.638 20.4139 306.372 18.4601 303.891 18.4601C301.887 18.4601 300.011 19.9114 299.68 23.0498H307.821Z" fill="#F1F1F6"/>
<path d="M312.394 17.194H314.222V19.3836C315.625 18.0109 317.231 16.9302 319.314 16.9302C321.663 16.9302 322.719 17.9576 323.14 19.437C324.591 18.0643 326.334 16.9302 328.392 16.9302C331.241 16.9302 332.401 18.5387 332.401 21.0455V31.0979H330.582V21.3879C330.582 19.4229 329.922 18.4853 327.968 18.4853C326.284 18.4853 324.88 19.4089 323.325 20.9135V31.0979H321.503V21.3879C321.503 19.4229 320.844 18.4853 318.865 18.4853C317.203 18.4853 315.777 19.4089 314.222 20.9135V31.0979H312.402L312.394 17.194Z" fill="#F1F1F6"/>
<path d="M335.168 24.1334C335.168 19.1984 338.335 16.9302 341.263 16.9302C344.508 16.9302 346.936 19.4089 346.936 24.1586V24.5011H336.987C337.016 27.9314 338.967 29.8572 341.369 29.8572C343.452 29.8572 344.64 28.9617 345.695 27.3307L346.818 28.229C345.605 30.194 343.89 31.3955 341.252 31.3955C338.018 31.3899 335.168 28.8831 335.168 24.1334ZM345.168 23.0498C344.982 20.4139 343.716 18.4601 341.238 18.4601C339.23 18.4601 337.358 19.9114 337.027 23.0498H345.168Z" fill="#F1F1F6"/>
<path d="M349.737 17.194H351.556V19.3836C352.901 18.0643 354.669 16.9302 356.859 16.9302C359.604 16.9302 361.002 18.4601 361.002 21.0455V31.0979H359.18V21.3879C359.18 19.4229 358.31 18.4853 356.41 18.4853C354.616 18.4853 353.111 19.4089 351.556 20.9135V31.0979H349.734L349.737 17.194Z" fill="#F1F1F6"/>
<path d="M365.312 27.8529V18.7493H362.884V17.1941H365.312V12.2114H367.131V17.1941H370.747V18.7493H367.131V27.4852C367.131 28.9618 367.608 29.7534 369.323 29.7534C369.814 29.7654 370.303 29.703 370.775 29.5681V31.1261C370.181 31.2269 369.58 31.2795 368.978 31.2833C366.325 31.2833 365.312 30.2531 365.312 27.8529Z" fill="#F1F1F6"/>
<path d="M373.141 12.0232H371.88V11.5741H374.895V12.0232H373.646V15.6108H373.141V12.0232ZM375.611 11.5741H376.26L377.472 14.9427L378.702 11.5741H379.37V15.6108H378.856V12.4415L377.68 15.6108H377.253L376.077 12.4415V15.6108H375.6L375.611 11.5741Z" fill="#F1F1F6"/>
</svg>
