<svg width="321" height="48" viewBox="0 0 321 48" fill="none" xmlns="http://www.w3.org/2000/svg">
<path d="M30.8107 6L35.9451 8.91094L30.8141 11.8219L25.683 8.91094L30.8107 6Z" fill="white"/>
<path d="M32.5244 30.259V24.4338L37.6452 21.5295L37.6555 27.3481L32.5244 30.259Z" fill="white"/>
<path d="M29.1037 30.2589V24.4371L15.4209 16.6723V22.4942L29.1037 30.2589Z" fill="white"/>
<path d="M30.8141 21.526H30.8106L17.1312 13.7613L22.2623 10.8503L35.9451 18.6117L30.8141 21.526Z" fill="white"/>
<path d="M46.2073 14.7327L39.3658 10.8503V10.8537L34.2621 13.7478L34.2348 13.7613L41.0762 17.6436V35.1093L46.2073 32.1983V14.7327Z" fill="white"/>
<path d="M15.4209 26.3766L30.8141 35.1094L37.6555 31.2304V37.0523L30.8141 40.9312L15.4209 32.1985V26.3766Z" fill="white"/>
<path d="M56.4873 30.0685L59.6909 28.417C61.112 31.1796 63.3108 32.5101 66.2873 32.5101C69.1984 32.5101 71.1701 31.5915 71.1701 29.4707C71.1701 27.4444 69.6835 26.4853 65.7367 25.3438C61.112 23.9929 57.3923 22.7738 57.3923 18.2957C57.3923 14.2971 60.7232 11.663 65.575 11.663C70.2995 11.663 73.0798 13.9493 74.5216 16.7084L71.5899 18.7178C70.1687 16.3538 68.1317 15.29 65.544 15.29C62.891 15.29 61.3701 16.2424 61.3701 17.9546C61.3701 20.1464 63.0906 20.8758 66.9996 22.0072C71.5279 23.3108 75.1479 24.7697 75.1479 29.1836C75.1479 33.0235 71.817 36.0393 66.1256 36.0393C61.3701 36.0359 58.0082 33.6212 56.4873 30.0685Z" fill="#F1F1F6"/>
<path d="M77.9729 30.8281V18.7345H81.9851V29.9096C81.9851 31.7805 82.7937 32.6383 84.5383 32.6383C86.2829 32.6383 87.7419 31.7501 89.1974 30.4465V18.7345H93.2062V35.6035H89.1974V33.3036C88.3905 34.1386 87.4164 34.8009 86.3362 35.249C85.2565 35.6971 84.0934 35.9212 82.921 35.9074C79.9136 35.9074 77.9729 34.1614 77.9729 30.8281Z" fill="#F1F1F6"/>
<path fill-rule="evenodd" clip-rule="evenodd" d="M96.8915 18.7347V41.9391H100.869V33.7192C101.49 34.394 102.248 34.9322 103.096 35.2984C103.944 35.6646 104.861 35.8503 105.787 35.8434C110.188 35.8434 113.13 32.9897 113.13 27.1472C113.13 21.3047 110.249 18.4173 106.337 18.4173C105.29 18.4076 104.253 18.6312 103.306 19.071C102.359 19.5109 101.526 20.1556 100.869 20.9569V18.7347H96.8915ZM105.043 21.7505C107.6 21.7505 109.152 23.6249 109.152 27.1776C109.152 30.9229 107.923 32.733 104.926 32.733C104.132 32.7072 103.354 32.5047 102.652 32.1408C101.949 31.7769 101.339 31.2612 100.869 30.6325V23.8781C101.809 22.7637 103.395 21.7505 105.043 21.7505Z" fill="#F1F1F6"/>
<path fill-rule="evenodd" clip-rule="evenodd" d="M116.01 41.9391V18.7347H119.988V20.9569C120.644 20.1561 121.476 19.5115 122.423 19.0717C123.369 18.6318 124.405 18.4081 125.452 18.4172C129.368 18.4172 132.244 21.3047 132.244 27.1472C132.244 32.9897 129.302 35.8434 124.905 35.8434C123.978 35.8513 123.061 35.6661 122.214 35.2998C121.366 34.9336 120.607 34.3948 119.988 33.7191V41.9391H116.01ZM128.267 27.1776C128.267 23.6248 126.715 21.7505 124.158 21.7505C122.51 21.7505 120.923 22.7636 119.988 23.8781V30.6324C120.456 31.2587 121.064 31.7725 121.764 32.1351C122.464 32.4978 123.239 32.6999 124.031 32.7262C127.038 32.733 128.267 30.9228 128.267 27.1776Z" fill="#F1F1F6"/>
<path d="M135.231 12.102V35.6036H139.243V12.102H135.231Z" fill="#F1F1F6"/>
<path d="M143.004 15.8135V12.4364H147.079V15.8135H143.004Z" fill="#F1F1F6"/>
<path d="M143.035 35.6037V18.7348H147.048V35.6037H143.035Z" fill="#F1F1F6"/>
<path fill-rule="evenodd" clip-rule="evenodd" d="M158.076 18.4173C154.518 18.4173 149.893 20.7611 149.893 27.1776C149.893 33.368 153.871 35.9414 158.159 35.9447C161.255 35.9447 163.606 34.8438 165.385 32.9053L163.282 30.879C161.988 32.1151 160.695 32.8445 158.465 32.8445C155.936 32.8445 154.033 31.4937 153.871 28.4542H165.612V27.5356C165.612 20.6699 161.923 18.4173 158.076 18.4173ZM158.042 21.5918C160.436 21.5918 161.73 22.9562 161.957 25.5296H153.936C154.325 22.6725 156.104 21.5918 158.042 21.5918Z" fill="#F1F1F6"/>
<path d="M168.457 35.6037V18.7348H172.439V21.4973H172.501C173.567 19.8087 175.412 18.4173 178.694 18.4173H178.953L178.822 22.0038C178.629 21.9735 177.982 21.9397 177.755 21.9397C175.198 21.9397 173.581 23.1149 172.452 24.9251V35.6037H168.457Z" fill="#F1F1F6"/>
<path d="M188.567 12.0986L195.844 22.9866L187.51 35.6037H189.86L197.042 24.7968L204.22 35.6037H206.68L198.353 22.9866L205.579 12.0986H203.122L197.169 21.217L191.22 12.0986H188.567Z" fill="#F1F1F6"/>
<path d="M207.52 27.2417C207.52 21.2439 211.305 18.5456 215.117 18.5456C218.775 18.5456 220.585 20.6698 221.655 23.1149L219.746 23.9389C218.823 21.6863 217.447 20.4064 215.055 20.4064C212.53 20.4064 209.749 22.1828 209.749 27.2012C209.749 31.5915 212.014 34.0569 214.99 34.0569C217.351 34.0569 218.675 32.9762 219.873 30.5007L221.683 31.2639C220.327 34.0974 218.352 35.9413 214.894 35.9413C210.978 35.9413 207.52 32.7972 207.52 27.2417Z" fill="#F1F1F6"/>
<path d="M226.996 12.0986H224.763V35.6037H226.996V23.3378C228.906 21.5277 230.746 20.4166 232.949 20.4166C235.275 20.4166 236.342 21.5614 236.342 23.9086V35.6037H238.575V23.4965C238.575 20.3862 236.861 18.5456 233.496 18.5456C230.812 18.5456 228.644 19.91 226.996 21.4973V12.0986Z" fill="#F1F1F6"/>
<path fill-rule="evenodd" clip-rule="evenodd" d="M241.709 31.6861C241.709 28.3833 244.59 25.972 253.257 24.6718V23.814C253.257 21.4972 252.029 20.3862 249.796 20.3862C247.112 20.3862 245.202 21.4972 243.423 23.0203L242.229 21.6695C244.266 19.8289 246.627 18.5591 249.989 18.5591C253.805 18.5591 255.456 20.5584 255.456 23.8916V31.4632C255.456 33.4895 255.584 34.7323 255.941 35.5901H253.646C253.388 34.8278 253.256 34.0295 253.257 33.2261C251.282 34.9721 249.084 35.8941 246.53 35.8941C243.488 35.8772 241.709 34.2899 241.709 31.6861ZM253.257 31.4328V26.2253C245.945 27.4309 243.908 29.2107 243.908 31.3991C243.908 33.1451 245.106 34.067 247.005 34.067C249.407 34.067 251.513 33.0809 253.257 31.4328Z" fill="#F1F1F6"/>
<path d="M261.898 18.863H259.665V35.6036H261.898V23.3378C263.804 21.5276 265.649 20.4165 267.847 20.4165C270.177 20.4165 271.244 21.5614 271.244 23.9085V35.6036H273.477V23.4965C273.477 20.3861 271.76 18.5456 268.398 18.5456C265.714 18.5456 263.546 19.9099 261.898 21.4972V18.863Z" fill="#F1F1F6"/>
<path fill-rule="evenodd" clip-rule="evenodd" d="M275.848 37.8121C275.848 36.0966 277.011 34.7727 278.986 34.0027C277.954 33.5907 277.465 32.8916 277.465 31.8751C277.465 30.8586 278.305 30.0042 279.53 29.3693C278.715 28.855 278.05 28.1437 277.596 27.3038C277.143 26.4639 276.918 25.5238 276.942 24.5737C276.942 21.0209 279.822 18.5455 283.669 18.5455C285.448 18.4952 287.181 19.1068 288.521 20.2577C289.693 19.4516 291.043 18.9296 292.461 18.7346V20.798C291.4 20.7855 290.348 20.9795 289.364 21.3688C290.048 22.2996 290.4 23.4263 290.365 24.5737C290.365 28.2244 287.454 30.5107 283.669 30.5107C282.729 30.5211 281.796 30.3596 280.916 30.0346C280.111 30.352 279.561 30.8282 279.561 31.4631C279.561 32.1622 280.173 32.5438 282.083 32.7329L285.803 33.02C289.749 33.3374 291.817 34.668 291.817 37.2718C291.817 40.3113 288.583 41.9999 283.927 41.9999C278.401 42.0201 275.848 40.3822 275.848 37.8121ZM289.756 37.4688C289.753 35.8853 288.458 35.0932 285.097 34.8369L281.701 34.5903L280.827 34.4958C278.921 35.1003 277.981 36.2722 277.981 37.5352C277.981 39.2812 279.856 40.2978 284.175 40.2978C287.64 40.2876 289.752 39.1481 289.756 37.4688ZM288.266 24.6124C288.264 21.9475 286.582 20.3016 283.673 20.3016C280.861 20.3016 279.113 22.0138 279.113 24.6176C279.113 27.2214 280.923 28.839 283.707 28.839C286.489 28.839 288.264 27.1796 288.266 24.6124Z" fill="#F1F1F6"/>
<path fill-rule="evenodd" clip-rule="evenodd" d="M301.256 18.5456C297.667 18.5456 293.786 21.2743 293.786 27.2114C293.786 32.9221 297.278 35.9413 301.256 35.9413C304.504 35.9413 306.593 34.479 308.066 32.1386L306.689 31.0579C305.396 33.0201 303.94 34.0974 301.387 34.0974C298.428 34.0974 296.05 31.7806 296.019 27.6538H308.21V27.2417C308.21 21.5276 305.234 18.5456 301.256 18.5456ZM301.225 20.3861C304.263 20.3861 305.819 22.7332 306.042 25.9078H296.064C296.47 22.1321 298.768 20.3861 301.225 20.3861Z" fill="#F1F1F6"/>
</svg>
