<svg width="32" height="32" viewBox="0 0 32 32" fill="none" xmlns="http://www.w3.org/2000/svg">
<path d="M23.2349 11.0032L16.8734 7.3298C16.5885 7.1647 16.2676 7.08215 15.9481 7.08215C15.6286 7.08215 15.3077 7.1647 15.0228 7.3298L8.66129 11.0032C8.09012 11.3333 7.73596 11.9471 7.73596 12.6062V19.9529C7.73596 20.6119 8.09012 21.2271 8.66129 21.5559L15.0228 25.2293C15.5939 25.5595 16.3036 25.5595 16.8748 25.2293L20.375 23.2082V20.2711L16.7376 22.3721C16.2503 22.653 15.6485 22.653 15.1612 22.3721L10.9287 19.9276C10.4414 19.6467 10.1405 19.1261 10.1405 18.5629V13.6753C10.1405 13.1121 10.4414 12.5915 10.9287 12.3106L15.1612 9.86613C15.6485 9.5852 16.2503 9.5852 16.7376 9.86613L20.9702 12.3106C21.4575 12.5915 21.7584 13.1121 21.7584 13.6753V22.4107H21.7597V26.8137L24.1629 25.4263V12.6062C24.1629 11.9471 23.8087 11.332 23.2376 11.0032H23.2349Z" class="logo-accent"/>
<path d="M26.1374 8.27505L17.8653 3.49928C16.711 2.83357 15.2904 2.83357 14.136 3.49928L5.86397 8.27505C4.71097 8.94075 4 10.1723 4 11.505V21.0566C4 22.3893 4.71097 23.6196 5.86397 24.2866L14.136 29.0624C15.2904 29.7281 16.711 29.7281 17.8653 29.0624L20.375 27.6138V24.8058L17.5644 26.4288C17.0651 26.7164 16.5059 26.8602 15.9467 26.8602C15.3876 26.8602 14.8284 26.7164 14.3291 26.4288L7.9676 22.7555C6.97038 22.179 6.34994 21.1058 6.34994 19.9542V12.6075C6.34994 11.4558 6.96904 10.3827 7.9676 9.80617L14.3291 6.13281C15.3263 5.55631 16.5659 5.55631 17.5631 6.13281L23.9246 9.80617C24.9218 10.3827 25.5422 11.4558 25.5422 12.6075V24.6288L26.136 24.2866C27.2904 23.6209 28 22.3893 28 21.0566V11.505C28 10.1723 27.289 8.94208 26.136 8.27505H26.1374Z" class="logo-accent"/>
</svg>
