<svg width="32" height="32" viewBox="0 0 32 32" fill="none" xmlns="http://www.w3.org/2000/svg">
<path d="M26.3024 20.6512L23.6048 19.1528V11.0488L16.7 7.1472V4L26.3024 9.5504V20.6512Z" class="logo-accent"/>
<path d="M13.5527 10.1497L10.8503 11.6489L15.6511 14.5017L20.4519 11.6489L17.7495 10.1497L15.6511 11.3489L13.5527 10.1497Z" class="logo-accent"/>
<path d="M14.6024 4V7.1472L7.6976 11.0488V19.1528L5 20.6512V9.5504L14.6024 4Z" class="logo-accent"/>
<path d="M11.8992 20.3512L14.6024 21.8504V16.3L9.80078 13.6024V16.5992L11.8992 17.7984V20.3512Z" class="logo-accent"/>
<path d="M6.04883 22.4496L8.75203 20.9512L15.6512 24.8528L22.5504 20.9512L25.2536 22.4496L15.6512 28L6.04883 22.4496Z" class="logo-accent"/>
<path d="M21.5016 16.5992V13.6024L16.7 16.3V21.8504L19.4032 20.3512V17.7984L21.5016 16.5992Z" class="logo-accent"/>
</svg>
