<svg width="57" height="48" viewBox="0 0 57 48" fill="none" xmlns="http://www.w3.org/2000/svg">
<g clip-path="url(#clip0_2337_63097)">
<path d="M28.6275 28.2367C29.9804 27.0099 31.3206 25.7928 32.662 24.5771C33.7029 23.6337 34.7471 22.694 35.7841 21.7463C35.8814 21.6575 35.937 21.5231 36.0121 21.4099C35.8728 21.3785 35.7332 21.3188 35.5943 21.3201C34.6026 21.3294 33.6112 21.3585 32.6196 21.3672C31.1544 21.3801 29.6891 21.3823 28.2238 21.3854C28.1018 21.3857 27.9798 21.358 27.81 21.3376C27.8907 21.1738 27.9372 21.0484 28.0085 20.9393C29.3463 18.8919 30.6871 16.8467 32.027 14.8008C32.2512 14.4584 32.474 14.115 32.6974 13.772C32.6818 13.7569 32.6661 13.7417 32.6504 13.7266C28.9056 17.0691 25.1608 20.4116 21.416 23.7541C21.4211 23.7736 21.4262 23.7931 21.4313 23.8127C23.7165 23.8127 26.0017 23.8127 28.2869 23.8127C28.2959 23.8337 28.305 23.8547 28.314 23.8757C28.2136 23.9882 28.1187 24.1061 28.0122 24.2125C24.6552 27.5605 21.2996 30.9099 17.9382 34.2536C16.4307 35.7533 14.9129 37.2427 13.3961 38.7329C13.064 39.0593 12.7209 39.3748 12.3711 39.6819C12.3115 39.7342 12.1868 39.7449 12.1017 39.7277C11.9761 39.7024 11.9893 39.5999 12.0233 39.4943C12.2687 38.7334 12.5095 37.9709 12.7524 37.2092C13.8137 33.8812 14.8807 30.555 15.9355 27.2249C17.4684 22.3851 18.9972 17.5439 20.5172 12.7001C20.9268 11.3948 21.2989 10.0777 21.6874 8.76585C21.8114 8.34747 21.8964 8.27405 22.3381 8.27163C22.6457 8.26994 22.9535 8.30263 23.2611 8.30173C26.4696 8.29227 29.6784 8.24117 32.8863 8.27786C35.9862 8.31332 38.7168 9.37675 40.9574 11.5446C42.722 13.2521 43.7836 15.3583 44.2356 17.7711C44.4354 18.8377 44.5154 19.9123 44.4031 20.9937C44.1736 23.2027 43.3908 25.1919 41.9896 26.923C40.2271 29.1003 37.9566 30.4462 35.2206 31.0194C34.305 31.2112 33.3768 31.246 32.446 31.2424C30.2971 31.234 28.1481 31.2219 25.9992 31.2112C25.9691 31.2111 25.9358 31.2191 25.9096 31.209C25.8228 31.1758 25.7386 31.1361 25.6534 31.0989C25.6912 31.0245 25.7121 30.9322 25.7693 30.8785C26.3664 30.3183 26.969 29.7641 27.5706 29.2087C27.9183 28.8876 28.267 28.5675 28.6275 28.2367Z" fill="#019AEB"/>
</g>
<defs>
<clipPath id="clip0_2337_63097">
<rect width="32.4543" height="31.4705" fill="white" transform="translate(12 8.26477)"/>
</clipPath>
</defs>
</svg>
