<svg width="197" height="48" viewBox="0 0 197 48" fill="none" xmlns="http://www.w3.org/2000/svg">
<g clip-path="url(#clip0_2337_63113)">
<path d="M43.985 14.18L32.6604 7.65252C32.6604 7.65252 30.8662 6.60352 28.0038 6.60352C25.0231 6.60352 23.2961 7.6845 23.2961 7.6845L12.806 13.6875L28.765 22.8599V41.3966L39.2678 35.4001C39.2678 35.4001 41.1451 34.3637 42.5715 31.9012C43.8284 29.7328 43.985 27.6348 43.985 27.6348V14.18ZM26.91 17.1959C26.91 17.1959 29.2511 16.7641 31.2308 17.9059C33.2104 19.0477 34.3778 19.7193 34.3778 19.7193C34.3778 19.7193 34.381 21.3088 34.381 23.685C34.381 25.5879 32.7691 27.5612 32.7691 27.5612L32.7723 20.5796L26.91 17.1959ZM36.188 32.5088L32.7691 34.4694V32.6304L35.43 31.108C37.9629 29.2819 38.3819 26.589 38.3819 25.6551L38.3723 17.3846L31.1188 13.211C31.1188 13.211 30.0155 12.4882 28.0326 12.4882C26.0497 12.4882 24.9687 13.1566 24.9687 13.1566L22.4198 14.6214L20.8111 13.6907L24.3323 11.679C24.3323 11.679 25.7107 10.9147 28.0198 10.9147C30.1402 10.9147 31.7905 11.743 31.7905 11.743L39.9906 16.4731L39.981 25.4984C40.029 26.8864 39.3829 30.2797 36.188 32.5088Z" fill="#0063A3"/>
<path d="M12 19.6904L23.1873 26.1092L23.1777 28.0217L16.8165 24.3726L12.8091 26.6465L23.1713 32.6175L23.1777 34.4595L12.0768 28.0729C12.1055 28.8212 12.7836 31.1272 14.082 32.9117C15.3997 34.7186 16.9028 35.4864 16.9028 35.4864L27.1626 41.3934V23.7809L12.0128 15.0754L12 19.6904Z" fill="#0063A3"/>
<path d="M54.9849 30.1549L57.9624 28.591C59.2863 31.2071 61.33 32.4672 64.0933 32.4672C66.7988 32.4672 68.6315 31.594 68.6315 29.5824C68.6315 27.6571 67.2499 26.7552 63.5815 25.6742C59.2832 24.4109 55.826 23.2404 55.826 18.9996C55.826 15.213 58.9219 12.7184 63.4312 12.7184C67.8191 12.7184 70.4065 14.8835 71.7593 17.4965L69.025 19.3898C67.7008 17.1638 65.8074 16.1436 63.4024 16.1436C60.9368 16.1436 59.523 17.0455 59.523 18.6702C59.523 20.7458 61.1158 21.4366 64.752 22.5176C68.9608 23.7489 72.3287 25.1337 72.3287 29.3106C72.3287 32.9469 69.2328 35.8028 63.9431 35.8028C59.5261 35.806 56.3983 33.5226 54.9849 30.1549Z" fill="#171C1E"/>
<path d="M73.8956 13.1406H77.5928V26.397L83.6343 19.4218H87.6928L82.4925 25.2553L88.1436 35.3871H84.2641L80.1449 27.993L77.5897 30.7882V35.3871H73.8956V13.1406Z" fill="#171C1E"/>
<path d="M87.9357 27.4204C87.9357 21.347 92.2341 19.1243 95.5409 19.1243C99.1198 19.1243 102.545 21.2575 102.545 27.753V28.6261H91.6327C91.7832 31.5109 93.558 32.7742 95.9025 32.7742C97.9781 32.7742 99.1806 32.0834 100.383 30.9096L102.337 32.8349C100.684 34.6674 98.4897 35.7196 95.6336 35.7196C91.6327 35.7164 87.9357 33.2795 87.9357 27.4204ZM99.1486 25.8565C98.9376 23.4227 97.7348 22.1274 95.5121 22.1274C93.7086 22.1274 92.055 23.1508 91.6937 25.8565H99.1486Z" fill="#171C1E"/>
<path d="M106.543 31.2071V22.3673H103.776V19.4218H106.543V13.8601H110.24V19.4218H114.359V22.3673H110.24V30.2732C110.24 31.9875 110.752 32.6782 112.584 32.6782C113.125 32.6782 113.815 32.5887 114.177 32.4672V35.384C113.787 35.4735 112.402 35.595 111.471 35.595C107.416 35.595 106.543 34.092 106.543 31.2071Z" fill="#171C1E"/>
<path d="M115.802 27.4204C115.802 21.3183 119.921 19.1243 123.468 19.1243C127.437 19.1243 129.119 21.3183 130.081 23.7841L126.954 24.897C126.324 23.0932 125.179 22.2201 123.407 22.2201C121.303 22.2201 119.528 23.6018 119.528 27.4204C119.528 30.8169 120.909 32.6814 123.346 32.6814C125.028 32.6814 126.202 32.1697 127.075 29.915L130.142 31.028C129 33.5833 127.107 35.7164 123.26 35.7164C119.56 35.7164 115.802 33.2507 115.802 27.4204Z" fill="#171C1E"/>
<path d="M132.365 13.1406H136.094V21.587C137.118 20.506 139.04 19.1212 141.925 19.1212C144.72 19.1212 146.523 20.7747 146.523 23.9312V35.384H142.797V24.8619C142.797 23.0901 142.046 22.2778 140.421 22.2778C138.797 22.2778 137.444 23.1189 136.091 24.3534V35.3871H132.365V13.1406Z" fill="#171C1E"/>
<path d="M149.35 27.267V13.1406H153.108V26.9375C153.108 30.334 154.583 32.3489 158.008 32.3489C161.404 32.3489 162.879 30.3948 162.879 26.9663V13.1406H166.576V27.2382C166.576 32.2881 163.72 35.7452 157.979 35.7452C151.845 35.7452 149.35 32.3201 149.35 27.267Z" fill="#171C1E"/>
<path d="M169.01 41.3966V19.4218H172.707V21.5262C173.759 20.2629 175.413 19.1212 177.789 19.1212C181.425 19.1212 184.102 21.8556 184.102 27.3885C184.102 32.9213 181.367 35.6238 177.277 35.6238C175.563 35.6238 173.881 34.9328 172.707 33.6089V41.3934H169.01V41.3966ZM180.405 27.4204C180.405 24.0527 178.962 22.2809 176.586 22.2809C175.054 22.2809 173.58 23.2436 172.707 24.2958V30.6986C173.698 31.9906 175.141 32.6815 176.465 32.6815C179.263 32.6783 180.405 30.9672 180.405 27.4204Z" fill="#171C1E"/>
</g>
<defs>
<clipPath id="clip0_2337_63113">
<rect width="172.102" height="36.7931" fill="white" transform="translate(12 5.60352)"/>
</clipPath>
</defs>
</svg>
