<svg width="290.42" height="30.89" viewBox="12 8.55 290.42 30.89" fill="none" xmlns="http://www.w3.org/2000/svg">
<path d="M22.8188 33.1485L25.3228 23.986L21.1766 8.55499H12L20.1941 39.445H29.4353L27.7706 33.2187L22.8188 33.1485Z" fill="#0063A3"/>
<path d="M30.968 8.55499L26.8442 23.986L28.9356 31.5709H34.0025L40.2288 8.55499H30.968Z" fill="#0063A3"/>
<path d="M57.0167 31.2046L50.229 11.5994H53.5976L58.6252 26.8339H58.6786L63.796 11.6107H66.912L60.1299 31.2159L57.0167 31.2046Z" fill="#171C1E"/>
<path d="M68.8208 14.6871V11.8631H72.1473V14.6871H68.8208ZM68.8489 31.123V17.1125H72.1248V31.123H68.8489Z" fill="#171C1E"/>
<path d="M74.4409 24.1332C74.4409 18.7996 78.2165 16.8486 81.1192 16.8486C84.2576 16.8486 87.2668 18.7238 87.2668 24.428V25.1943H77.6888C77.8207 27.7208 79.3731 28.8436 81.4336 28.8436C83.2554 28.8436 84.3109 28.2345 85.3636 27.2071L87.0787 28.8914C85.6274 30.5027 83.7102 31.4178 81.1837 31.4178C77.6888 31.415 74.4409 29.2759 74.4409 24.1332ZM84.2828 22.7605C84.1004 20.6215 83.0449 19.4874 81.0911 19.4874C79.5078 19.4874 78.0565 20.3857 77.7393 22.7605H84.2828Z" fill="#171C1E"/>
<path d="M91.9211 31.1231L87.7524 17.1126H91.0509L92.5808 22.9178C93.0018 24.5011 93.2657 25.5818 93.6363 27.3784H93.6896C94.1107 25.4779 94.3493 24.4758 94.7956 22.8645L96.2666 17.1126H98.9053L100.477 22.9712C100.926 24.5263 101.165 25.5818 101.561 27.3784H101.6C102.021 25.5565 102.26 24.5544 102.706 23.0245L104.289 17.1126H107.245L103.077 31.1231H100.048L97.5214 21.3879H97.468L94.9416 31.1231H91.9211Z" fill="#171C1E"/>
<path d="M108.899 36.4005V17.1125H112.155V18.9737C112.691 18.3081 113.37 17.7723 114.142 17.4067C114.914 17.0411 115.759 16.8551 116.613 16.8627C119.808 16.8627 122.154 19.2656 122.154 24.1192C122.154 28.9728 119.754 31.3252 116.164 31.3252C115.409 31.3311 114.661 31.1764 113.97 30.8716C113.279 30.5667 112.66 30.1185 112.155 29.5567V36.3893L108.899 36.4005ZM118.898 24.1333C118.898 21.1773 117.632 19.6193 115.546 19.6193C114.202 19.6193 112.908 20.4615 112.144 21.3879V27.0022C112.526 27.5228 113.022 27.9498 113.593 28.2513C114.165 28.5527 114.797 28.7207 115.442 28.7426C117.907 28.7482 118.909 27.2464 118.909 24.1333H118.898Z" fill="#171C1E"/>
<path d="M123.777 24.1332C123.777 18.9596 127.179 16.8486 130.609 16.8486C134.04 16.8486 137.442 18.9596 137.442 24.1332C137.442 29.2507 134.015 31.415 130.609 31.415C127.204 31.415 123.777 29.2507 123.777 24.1332ZM134.163 24.1332C134.163 21.5197 133.055 19.6193 130.601 19.6193C128.251 19.6193 127.039 21.3036 127.039 24.1332C127.039 26.7972 128.12 28.6977 130.601 28.6977C132.956 28.6977 134.163 27.0077 134.163 24.1332Z" fill="#171C1E"/>
<path d="M139.777 14.6871V11.8631H143.09V14.6871H139.777ZM139.803 31.123V17.1125H143.076V31.123H139.803Z" fill="#171C1E"/>
<path d="M146.113 31.123V17.1125H149.358V19.3582C150.413 18.1455 152.05 16.8514 154.371 16.8514C156.932 16.8514 158.515 18.1708 158.515 20.9415V31.1258H155.27V21.8622C155.27 20.3323 154.635 19.5407 153.159 19.5407C151.733 19.5407 150.545 20.2537 149.358 21.3625V31.123H146.113Z" fill="#171C1E"/>
<path d="M162.555 27.4571V19.6981H160.126V17.1127H162.555V12.2366H165.8V17.1127H169.413V19.6981H165.8V26.6374C165.8 28.142 166.246 28.7484 167.857 28.7484C168.331 28.7498 168.803 28.6884 169.261 28.5659V31.1232C168.475 31.245 167.681 31.307 166.886 31.3085C163.318 31.3085 162.555 29.9891 162.555 27.4571Z" fill="#171C1E"/>
<path d="M179.413 14.088H190.835V15.8284H181.291V22.5656H188.362V24.2499H181.285V33.6146H179.413V14.088Z" fill="#171C1E"/>
<path d="M193.303 14.537H195.231V16.502H193.303V14.537ZM193.356 19.7078H195.186V33.6116H193.365L193.356 19.7078Z" fill="#171C1E"/>
<path d="M197.994 26.6471C197.994 21.7122 201.16 19.444 204.088 19.444C207.333 19.444 209.761 21.9227 209.761 26.6724V27.0177H199.813C199.841 30.4452 201.778 32.3738 204.195 32.3738C206.278 32.3738 207.465 31.4755 208.521 29.8473L209.643 30.7456C208.431 32.7106 206.715 33.9121 204.077 33.9121C200.843 33.9037 197.994 31.3969 197.994 26.6471ZM207.993 25.5664C207.807 22.9277 206.541 20.9739 204.063 20.9739C202.056 20.9739 200.183 22.4252 199.852 25.5664H207.993Z" fill="#171C1E"/>
<path d="M212.667 14.088H214.488V33.6118H212.667V14.088Z" fill="#171C1E"/>
<path d="M217.405 26.6725C217.405 21.8189 219.965 19.444 223.3 19.444C225.094 19.444 226.705 20.3928 227.791 21.6083V14.088H229.613V30.1814C229.613 31.8657 229.717 32.9015 230.034 33.6118H228.108C227.906 32.954 227.799 32.2704 227.791 31.5822C226.668 32.7949 225.231 33.8504 223.148 33.8504C219.94 33.8504 217.405 31.5288 217.405 26.6725ZM227.774 30.0242V23.2702C226.402 21.7908 225.057 20.9739 223.449 20.9739C220.995 20.9739 219.238 22.7677 219.238 26.7005C219.238 30.5267 221.138 32.2924 223.449 32.2924C225.164 32.2924 226.455 31.4222 227.774 30.0242Z" fill="#171C1E"/>
<path d="M243.158 15.8284H236.853V14.088H251.33V15.8284H245.033V33.6118H243.158V15.8284Z" fill="#171C1E"/>
<path d="M253.786 14.537H255.711V16.502H253.786V14.537ZM253.839 19.7078H255.658V33.6116H253.839V19.7078Z" fill="#171C1E"/>
<path d="M259.226 19.7078H261.048V21.8974C262.451 20.5247 264.054 19.444 266.14 19.444C268.487 19.444 269.542 20.4714 269.963 21.9508C271.415 20.5781 273.158 19.444 275.216 19.444C278.065 19.444 279.227 21.0525 279.227 23.5593V33.6117H277.405V23.9017C277.405 21.9367 276.746 20.9991 274.795 20.9991C273.11 20.9991 271.707 21.9227 270.149 23.4273V33.6117H268.33V23.9017C268.33 21.9367 267.67 20.9991 265.691 20.9991C264.029 20.9991 262.603 21.9227 261.048 23.4273V33.6117H259.226V19.7078Z" fill="#171C1E"/>
<path d="M282 26.6471C282 21.7122 285.167 19.444 288.095 19.444C291.34 19.444 293.768 21.9227 293.768 26.6724V27.0177H283.822C283.848 30.4452 285.787 32.3738 288.201 32.3738C290.284 32.3738 291.472 31.4755 292.527 29.8473L293.65 30.7456C292.435 32.7106 290.72 33.9121 288.081 33.9121C284.85 33.9037 282 31.3969 282 26.6471ZM292 25.5664C291.817 22.9277 290.548 20.9739 288.07 20.9739C286.065 20.9739 284.19 22.4252 283.859 25.5664H292Z" fill="#171C1E"/>
<path d="M296.162 14.5371H294.902V14.088H297.928V14.5371H296.676V18.1246H296.171L296.162 14.5371ZM298.635 14.088H299.292L300.505 17.4565L301.737 14.088H302.419V18.1246H301.903V14.9554L300.73 18.1246H300.3L299.127 14.9554V18.1246H298.649L298.635 14.088Z" fill="#171C1E"/>
</svg>
