<svg width="197.04" height="26.03" viewBox="12 10.98 197.04 26.03" fill="none" xmlns="http://www.w3.org/2000/svg">
<path fill-rule="evenodd" clip-rule="evenodd" d="M23.2715 10.9843L34.5441 17.4921V21.8307L29.5343 24.7235V20.3849L18.2617 13.877L23.2715 10.9843Z" fill="white"/>
<path fill-rule="evenodd" clip-rule="evenodd" d="M34.5436 30.5079L23.271 37.0158L19.5142 34.8476V29.0621L23.271 31.2314L34.5436 24.7235V30.5079Z" fill="white"/>
<path fill-rule="evenodd" clip-rule="evenodd" d="M12 30.5078V17.4921L15.7556 15.3217L20.7666 18.2144L17.0086 20.3837L17.0098 33.4006L12 30.5078Z" fill="white"/>
<path fill-rule="evenodd" clip-rule="evenodd" d="M126.692 23.932C126.692 18.8828 129.465 15.3431 133.635 15.3431C137.017 15.3431 138.887 17.3498 139.677 20.4377L138.144 20.8209C137.4 18.1837 136.16 16.8087 133.613 16.8087C130.389 16.8087 128.292 19.6039 128.292 23.8868C128.292 28.5075 130.411 31.2133 133.658 31.2133C136.137 31.2133 137.694 29.771 138.415 26.9758L139.948 27.3137C139.136 30.6048 136.971 32.6568 133.635 32.6568C129.419 32.6568 126.692 29.2531 126.692 23.932Z" fill="#F1F1F6"/>
<path fill-rule="evenodd" clip-rule="evenodd" d="M151.062 26.3896C151.062 23.7976 149.754 21.5644 147.251 21.5644C144.839 21.5644 143.419 23.5932 143.419 26.3896C143.419 29.0269 144.704 31.2589 147.251 31.2589C149.641 31.2589 151.062 29.2522 151.062 26.3896ZM141.864 26.4116C141.864 22.4447 144.322 20.2347 147.251 20.2347C150.161 20.2347 152.617 22.4447 152.617 26.4116C152.617 30.3565 150.161 32.5885 147.251 32.5885C144.344 32.5885 141.864 30.3565 141.864 26.4116Z" fill="#F1F1F6"/>
<path fill-rule="evenodd" clip-rule="evenodd" d="M155.012 20.4605H156.567V22.3314C157.717 21.2037 159.227 20.2352 161.098 20.2352C163.443 20.2352 164.638 21.5428 164.638 23.7516V32.3405H163.083V24.0443C163.083 22.3766 162.338 21.5649 160.715 21.5649C159.182 21.5649 157.897 22.3534 156.567 23.639V32.3405H155.012V20.4605Z" fill="#F1F1F6"/>
<path fill-rule="evenodd" clip-rule="evenodd" d="M167.589 20.4605H169.144V22.3314C170.295 21.2037 171.804 20.2352 173.675 20.2352C176.02 20.2352 177.215 21.5428 177.215 23.7516V32.3405H175.66V24.0443C175.66 22.3766 174.916 21.5649 173.292 21.5649C171.759 21.5649 170.475 22.3534 169.144 23.639V32.3405H167.589V20.4605Z" fill="#F1F1F6"/>
<path fill-rule="evenodd" clip-rule="evenodd" d="M188.093 25.4648C187.935 23.2107 186.852 21.5431 184.733 21.5431C183.02 21.5431 181.42 22.7822 181.126 25.4648H188.093ZM179.549 26.3892C179.549 22.1737 182.254 20.2355 184.756 20.2355C187.529 20.2355 189.603 22.3537 189.603 26.4112V26.705H181.104C181.126 29.635 182.795 31.2817 184.847 31.2817C186.627 31.2817 187.642 30.5152 188.543 29.117L189.513 29.8835C188.476 31.5522 187.01 32.5893 184.756 32.5893C181.983 32.5893 179.549 30.4479 179.549 26.3892Z" fill="#F1F1F6"/>
<path fill-rule="evenodd" clip-rule="evenodd" d="M191.411 26.4116C191.411 22.1509 194.049 20.2347 196.709 20.2347C199.256 20.2347 200.518 21.7456 201.263 23.4817L199.933 24.067C199.279 22.4667 198.332 21.5644 196.664 21.5644C194.906 21.5644 192.966 22.8279 192.966 26.3896C192.966 29.5007 194.545 31.2589 196.619 31.2589C198.264 31.2589 199.189 30.4924 200.024 28.7342L201.285 29.2742C200.338 31.2809 198.963 32.5885 196.551 32.5885C193.823 32.5885 191.411 30.3565 191.411 26.4116Z" fill="#F1F1F6"/>
<path fill-rule="evenodd" clip-rule="evenodd" d="M204.376 29.5679V21.7907H202.302V20.461H204.376V16.1991H205.931V20.461H209.02V21.7907H205.931V29.2532C205.931 30.5143 206.337 31.1914 207.803 31.1914C208.254 31.1914 208.705 31.1461 209.043 31.0334V32.3631C208.682 32.4305 208.052 32.4978 207.509 32.4978C205.233 32.4978 204.376 31.6199 204.376 29.5679Z" fill="#F1F1F6"/>
<path fill-rule="evenodd" clip-rule="evenodd" d="M48.6838 32.3405V18.2738H43.5439V15.6586H56.6421V18.2738H51.5011V32.3405H48.6838Z" fill="#F1F1F6"/>
<path fill-rule="evenodd" clip-rule="evenodd" d="M56.2247 32.3405V20.3699H58.9979V22.3314H59.0432C59.7864 21.1364 61.072 20.1447 63.3481 20.1447H63.5292L63.4387 22.6914C63.3028 22.6693 62.8522 22.6472 62.6943 22.6472C60.914 22.6472 59.7864 23.481 58.9979 24.7666V32.3405H56.2247Z" fill="#F1F1F6"/>
<path fill-rule="evenodd" clip-rule="evenodd" d="M65.03 32.3403H67.8252V20.3697H65.03V32.3403ZM65.0079 18.2957H67.8484V15.8837H65.0079V18.2957Z" fill="#F1F1F6"/>
<path fill-rule="evenodd" clip-rule="evenodd" d="M70.4205 32.3405V20.3699H73.1937V22.0155C74.1181 21.0005 75.4698 20.1447 77.2965 20.1447C79.3021 20.1447 80.0918 20.9332 80.5644 22.1061C81.512 21.069 82.9323 20.1447 84.7578 20.1447C87.1931 20.1447 88.2521 21.6102 88.2521 23.7516V32.3405H85.479V24.4507C85.479 23.121 85.0958 22.5114 83.7881 22.5114C82.6617 22.5114 81.7594 23.1431 80.7235 24.0675V32.3405H77.9503V24.4507C77.9503 23.121 77.5671 22.5114 76.2595 22.5114C75.1551 22.5114 74.2307 23.1431 73.1937 24.0675V32.3405H70.4205Z" fill="#F1F1F6"/>
<path fill-rule="evenodd" clip-rule="evenodd" d="M99.3468 26.3668C99.3468 23.8422 98.2645 22.5113 96.4843 22.5113C95.3334 22.5113 94.229 23.2337 93.5752 24.0222V28.8241C94.3196 29.7938 95.4019 30.3117 96.3937 30.3117C98.4898 30.3117 99.3468 29.0273 99.3468 26.3668ZM93.5752 31.0108V32.3405H90.8032V15.6586H93.5752V21.9481C94.3637 21.0005 95.604 20.1446 97.3854 20.1446C100.113 20.1446 102.12 22.1966 102.12 26.3436C102.12 30.4917 100.068 32.5205 97.0022 32.5205C95.7178 32.5205 94.4555 32.0026 93.5752 31.0108Z" fill="#F1F1F6"/>
<path fill-rule="evenodd" clip-rule="evenodd" d="M104.2 32.3403H106.996V15.6583H104.2V32.3403Z" fill="#F1F1F6"/>
<path fill-rule="evenodd" clip-rule="evenodd" d="M117.402 25.1942C117.244 23.3686 116.343 22.399 114.674 22.399C113.322 22.399 112.082 23.1654 111.811 25.1942H117.402ZM108.993 26.3671C108.993 21.8125 112.217 20.1449 114.696 20.1449C117.38 20.1449 119.95 21.7452 119.95 26.6144V27.2683H111.766C111.879 29.4329 113.209 30.3793 114.968 30.3793C116.523 30.3793 117.425 29.8614 118.326 28.9823L119.792 30.4246C118.551 31.7996 116.906 32.5893 114.764 32.5893C111.766 32.5893 108.993 30.7626 108.993 26.3671Z" fill="#F1F1F6"/>
</svg>
