<svg width="25.99" height="28" viewBox="12 10 25.99 28" fill="none" xmlns="http://www.w3.org/2000/svg">
<path d="M13.7383 31.3945C15.268 33.0579 17.2755 34.2072 19.4844 34.6846L13.7383 38V31.3945ZM17.7178 27.3604C20.5906 29.6197 25.2051 30.3812 28.5537 28.3877C28.5734 29.4712 28.3827 30.5483 27.9932 31.5596C26.2955 32.9466 24.182 33.7244 21.9902 33.7686C19.7986 33.8127 17.6554 33.1211 15.9033 31.8037C16.0657 31.0001 16.5082 29.4519 17.7178 27.3604ZM14.3291 17.6299C13.5507 20.4215 14.3997 24.0529 16.8301 26.5449C15.9886 27.9094 15.3359 29.3822 14.8896 30.9219C13.1414 29.1832 12.1127 26.8492 12.0088 24.3857C11.905 21.9222 12.7332 19.5095 14.3291 17.6299ZM31.6055 23.1797C31.8024 25.6415 31.0723 28.0886 29.5586 30.04C29.6733 29.2165 29.7134 28.3835 29.6787 27.5527C30.7799 26.3436 31.4567 24.8083 31.6055 23.1797ZM21.5391 22.2666C23.1658 23.675 25.6074 24.2487 27.5674 23.3584C28.0225 24.5405 28.3251 25.7764 28.4668 27.0352C25.6333 29.1687 21.0969 28.5783 18.3389 26.3301C19.2725 24.876 20.3441 23.5148 21.5391 22.2666ZM37.9893 24L32.2295 27.3262C32.9195 25.167 32.9252 22.8472 32.2461 20.6846L37.9893 24ZM29.9258 19.1982C30.9279 21.3792 30.9725 24.1062 29.5029 26.0156C29.3103 24.8882 28.9973 23.7847 28.5703 22.7236C29.0728 22.2961 29.4596 21.7486 29.6963 21.1328C29.9329 20.5172 30.0124 19.8521 29.9258 19.1982ZM16.2617 16.2637C17.5369 15.9333 18.874 15.9244 20.1533 16.2383C19.1398 17.809 19.5932 20.0013 20.7354 21.4209C19.5241 22.6779 18.4324 24.0452 17.4736 25.5039C15.228 23.0063 14.3325 18.9993 16.2617 16.2637ZM25.165 19.2852C25.9529 20.197 26.6125 21.2121 27.125 22.3027C25.7642 22.9243 23.838 22.6835 22.3652 21.46C23.24 20.6627 24.1764 19.9358 25.165 19.2852ZM28.1191 17.4678C28.9339 18.571 29.1495 20.4865 28.0771 21.6064C27.5476 20.542 26.8916 19.5447 26.123 18.6377C26.7304 18.1562 27.4024 17.7626 28.1191 17.4678ZM21.2959 16.5859C22.4148 17.0006 23.4434 17.6268 24.3252 18.4307C23.3532 19.0873 22.4324 19.8169 21.5703 20.6123C20.6631 19.3887 20.3832 17.8095 21.2959 16.5859ZM22.2812 15.7373C23.3705 15.0457 25.8739 15.0035 27.4307 16.5771C26.6745 16.8849 25.958 17.2827 25.2969 17.7617C24.4181 16.9154 23.3973 16.2301 22.2812 15.7373ZM19.4424 13.2871C17.2515 13.7734 15.261 14.9178 13.7383 16.5664V10L19.4424 13.2871ZM17.5215 15.0176C19.5256 14.1858 21.724 13.9373 23.8633 14.3008C22.8209 14.3261 21.8098 14.6625 20.96 15.2666C20.0556 15.0174 18.3448 14.8356 17.5215 15.0176Z" fill="#004F83"/>
</svg>
