<svg width="57" height="30" viewBox="0 0 57 30" fill="none" xmlns="http://www.w3.org/2000/svg">
<path d="M3.65277 7.8974H2.0514V1.78668H0V0.476562H5.70418V1.78595H3.65277V7.89666V7.8974Z" class="logo-accent"/>
<path d="M8.56749 2.11597C8.647 2.11597 8.7385 2.12039 8.84426 2.1285C8.94927 2.13734 9.03478 2.14766 9.10003 2.16166L8.98152 3.61325C8.92977 3.59631 8.85626 3.58378 8.76175 3.57494C8.66725 3.56683 8.58549 3.56241 8.51648 3.56241C8.31322 3.56241 8.11596 3.5882 7.92469 3.63831C7.73343 3.68915 7.56241 3.77094 7.4109 3.88442C7.25939 3.99789 7.13938 4.14673 7.05163 4.33095C6.96387 4.51516 6.91962 4.74137 6.91962 5.00885V7.89657H5.34375V2.22281H6.53709L6.76961 3.17704H6.84686C6.96087 2.98398 7.10263 2.80714 7.27289 2.6465C7.44316 2.48587 7.63817 2.35692 7.85644 2.26039C8.07545 2.16387 8.31172 2.11523 8.56674 2.11523L8.56749 2.11597Z" class="logo-accent"/>
<path d="M10.2284 0C10.4624 0 10.6642 0.0530533 10.833 0.159897C11.0017 0.26674 11.0865 0.464954 11.0865 0.75601C11.0865 1.04707 11.0017 1.24233 10.833 1.35212C10.6642 1.46191 10.4624 1.51718 10.2284 1.51718C9.99439 1.51718 9.78812 1.46191 9.62161 1.35212C9.45435 1.24233 9.37109 1.04338 9.37109 0.75601C9.37109 0.468638 9.45435 0.266004 9.62161 0.159897C9.78887 0.0530533 9.99139 0 10.2284 0ZM11.0137 2.22308V7.89758H9.43785V2.22308H11.0137Z" class="logo-accent"/>
<path d="M18.7239 2.11621C19.378 2.11621 19.8738 2.28127 20.209 2.61138C20.5451 2.94148 20.7131 3.46981 20.7131 4.19782V7.89755H19.132V4.58319C19.132 4.17719 19.0615 3.87066 18.9204 3.66434C18.7794 3.45802 18.5604 3.35486 18.2641 3.35486C17.8471 3.35486 17.5508 3.50149 17.3753 3.79402C17.1998 4.08655 17.1121 4.50508 17.1121 5.05035V7.89755H15.5362V4.58319C15.5362 4.31277 15.5054 4.08582 15.4432 3.90308C15.3809 3.72034 15.2864 3.58328 15.1589 3.49191C15.0314 3.40054 14.8679 3.35486 14.6684 3.35486C14.3759 3.35486 14.1456 3.42707 13.9783 3.57076C13.8111 3.71444 13.6926 3.92592 13.6221 4.20519C13.5515 4.48445 13.5163 4.82488 13.5163 5.22794V7.89755H11.9404V2.22305H13.1443L13.3558 2.94885H13.4435C13.5605 2.75285 13.7076 2.59369 13.8853 2.47211C14.0623 2.35053 14.2581 2.26063 14.4719 2.20316C14.6856 2.14569 14.9024 2.11695 15.1229 2.11695C15.5467 2.11695 15.906 2.18474 16.2 2.32032C16.4948 2.4559 16.7213 2.66517 16.8795 2.94959H17.0191C17.1916 2.65853 17.4346 2.44706 17.7504 2.31516C18.0654 2.18326 18.3902 2.11695 18.7239 2.11695V2.11621Z" class="logo-accent"/>
<path d="M23.1845 0V1.83771C23.1845 2.05066 23.1785 2.26213 23.1665 2.47214C23.1545 2.68214 23.1395 2.84425 23.1222 2.9592H23.1845C23.336 2.72561 23.543 2.52666 23.8048 2.36308C24.0666 2.19877 24.4056 2.11698 24.8226 2.11698C25.4699 2.11698 25.9957 2.36603 26.3985 2.86341C26.8013 3.36078 27.003 4.09026 27.003 5.05112C27.003 5.69734 26.91 6.23966 26.724 6.67809C26.538 7.11651 26.2777 7.44662 25.9439 7.66768C25.6102 7.88947 25.2224 8 24.7814 8C24.3403 8 24.0238 7.92558 23.7793 7.77673C23.5348 7.62789 23.3368 7.46062 23.1852 7.2742H23.0765L22.8132 7.89831H21.6094V0H23.1852H23.1845ZM24.3156 3.35489C24.0403 3.35489 23.8213 3.41089 23.6593 3.52215C23.4973 3.63415 23.3795 3.80142 23.3053 4.02468C23.231 4.24795 23.1905 4.5309 23.1837 4.87206V5.03933C23.1837 5.59123 23.2662 6.01345 23.432 6.30598C23.597 6.59851 23.8985 6.74514 24.3358 6.74514C24.6599 6.74514 24.9171 6.59777 25.1084 6.30377C25.2997 6.00903 25.3949 5.5846 25.3949 5.02975C25.3949 4.4749 25.2981 4.05711 25.1054 3.77563C24.9126 3.49489 24.6486 3.35415 24.3148 3.35415L24.3156 3.35489Z" class="logo-accent"/>
<path d="M29.2272 7.89758H27.6514V0H29.2272V7.89758Z" class="logo-accent"/>
<path d="M32.5881 2.11621C33.1222 2.11621 33.582 2.21716 33.9675 2.41832C34.353 2.61948 34.6508 2.91127 34.8616 3.2937C35.0716 3.67613 35.1766 4.14329 35.1766 4.69446V5.44531H31.4518C31.4691 5.88226 31.6026 6.22416 31.8523 6.47322C32.1021 6.72153 32.4494 6.84606 32.8934 6.84606C33.2617 6.84606 33.5992 6.80922 33.906 6.7348C34.2128 6.66038 34.5278 6.54837 34.8518 6.39953V7.59765C34.566 7.73618 34.2668 7.83786 33.9555 7.90197C33.6435 7.96608 33.2654 7.9985 32.8214 7.9985C32.2431 7.9985 31.7301 7.89387 31.2845 7.68386C30.8383 7.47386 30.4887 7.15407 30.236 6.72448C29.9825 6.2949 29.8564 5.75331 29.8564 5.10046C29.8564 4.44761 29.9712 3.88466 30.2 3.44328C30.4287 3.00191 30.7483 2.67032 31.1585 2.44853C31.5681 2.22674 32.0451 2.11621 32.5896 2.11621H32.5881ZM32.5986 3.2178C32.2919 3.2178 32.0384 3.31433 31.8366 3.50739C31.6348 3.69971 31.5186 4.00329 31.4878 4.41593H33.699C33.6952 4.18603 33.6532 3.98118 33.5722 3.80139C33.4912 3.62234 33.3705 3.48012 33.2107 3.37475C33.0502 3.27012 32.8462 3.2178 32.5986 3.2178Z" class="logo-accent"/>
<path d="M35.5782 7.23467C35.5737 6.85298 35.8849 6.53982 36.2735 6.53613C36.2787 6.53613 36.284 6.53613 36.2892 6.53613C36.6823 6.53613 37.0003 6.8493 37.0003 7.23467C37.0003 7.62078 36.6815 7.9332 36.2892 7.9332C35.8962 7.9332 35.5782 7.62004 35.5782 7.23467ZM36.8713 7.23467C36.8653 6.91782 36.5997 6.66508 36.2772 6.67098C35.9547 6.67687 35.6974 6.93772 35.7034 7.25456C35.7087 7.56846 35.9705 7.81973 36.29 7.81825C36.611 7.81825 36.872 7.56257 36.872 7.24646C36.872 7.24204 36.872 7.23835 36.872 7.23393L36.8713 7.23467ZM36.0132 6.83677H36.3042C36.488 6.83677 36.5952 6.91487 36.5952 7.07109C36.6042 7.16983 36.5405 7.2612 36.443 7.28772L36.611 7.60162H36.4482L36.2915 7.30909H36.1685V7.60162H36.0125V6.83677H36.0132ZM36.2952 7.19193C36.3905 7.19193 36.443 7.16172 36.443 7.07993C36.443 6.99814 36.3905 6.96793 36.2915 6.96793H36.1685V7.19119H36.2945L36.2952 7.19193Z" class="logo-accent"/>
<path d="M9.65039 25L8.39355 21.4316H3.48047L2.22363 25H0L4.78125 12.0977H7.11914L11.8916 25H9.65039ZM7.84863 19.6211L6.62695 16.1055C6.58008 15.9531 6.5127 15.7393 6.4248 15.4639C6.33691 15.1826 6.24902 14.8984 6.16113 14.6113C6.07324 14.3184 6 14.0723 5.94141 13.873C5.88281 14.1133 5.80957 14.3828 5.72168 14.6816C5.63965 14.9746 5.55762 15.25 5.47559 15.5078C5.39941 15.7656 5.34082 15.9648 5.2998 16.1055L4.06934 19.6211H7.84863ZM17.4691 15.0859C18.6234 15.0859 19.5492 15.5078 20.2465 16.3516C20.9496 17.1953 21.3012 18.4492 21.3012 20.1133C21.3012 21.2148 21.1371 22.1436 20.809 22.8994C20.4867 23.6494 20.0326 24.2178 19.4467 24.6045C18.8666 24.9854 18.1898 25.1758 17.4164 25.1758C16.9242 25.1758 16.4965 25.1113 16.1332 24.9824C15.7699 24.8535 15.4594 24.6865 15.2016 24.4814C14.9438 24.2705 14.727 24.042 14.5512 23.7959H14.4281C14.4574 24.0303 14.4838 24.291 14.5072 24.5781C14.5365 24.8594 14.5512 25.1172 14.5512 25.3516V29.3154H12.477V15.2705H14.1645L14.4545 16.6152H14.5512C14.7328 16.3398 14.9525 16.085 15.2104 15.8506C15.474 15.6162 15.7904 15.4316 16.1596 15.2969C16.5346 15.1562 16.9711 15.0859 17.4691 15.0859ZM16.9154 16.7734C16.3471 16.7734 15.89 16.8877 15.5443 17.1162C15.2045 17.3389 14.9555 17.6758 14.7973 18.127C14.6449 18.5781 14.5629 19.1436 14.5512 19.8232V20.1133C14.5512 20.834 14.6244 21.4463 14.7709 21.9502C14.9232 22.4482 15.1723 22.8291 15.518 23.0928C15.8695 23.3506 16.3441 23.4795 16.9418 23.4795C17.4457 23.4795 17.8617 23.3418 18.1898 23.0664C18.5238 22.791 18.7729 22.3984 18.9369 21.8887C19.101 21.3789 19.183 20.7783 19.183 20.0869C19.183 19.0381 18.9955 18.2236 18.6205 17.6436C18.2514 17.0635 17.683 16.7734 16.9154 16.7734ZM27.784 15.0859C28.9383 15.0859 29.8641 15.5078 30.5613 16.3516C31.2645 17.1953 31.616 18.4492 31.616 20.1133C31.616 21.2148 31.452 22.1436 31.1238 22.8994C30.8016 23.6494 30.3475 24.2178 29.7615 24.6045C29.1814 24.9854 28.5047 25.1758 27.7313 25.1758C27.2391 25.1758 26.8113 25.1113 26.448 24.9824C26.0848 24.8535 25.7742 24.6865 25.5164 24.4814C25.2586 24.2705 25.0418 24.042 24.866 23.7959H24.743C24.7723 24.0303 24.7986 24.291 24.8221 24.5781C24.8514 24.8594 24.866 25.1172 24.866 25.3516V29.3154H22.7918V15.2705H24.4793L24.7693 16.6152H24.866C25.0477 16.3398 25.2674 16.085 25.5252 15.8506C25.7889 15.6162 26.1053 15.4316 26.4744 15.2969C26.8494 15.1562 27.2859 15.0859 27.784 15.0859ZM27.2303 16.7734C26.6619 16.7734 26.2049 16.8877 25.8592 17.1162C25.5193 17.3389 25.2703 17.6758 25.1121 18.127C24.9598 18.5781 24.8777 19.1436 24.866 19.8232V20.1133C24.866 20.834 24.9393 21.4463 25.0857 21.9502C25.2381 22.4482 25.4871 22.8291 25.8328 23.0928C26.1844 23.3506 26.659 23.4795 27.2566 23.4795C27.7605 23.4795 28.1766 23.3418 28.5047 23.0664C28.8387 22.791 29.0877 22.3984 29.2518 21.8887C29.4158 21.3789 29.4979 20.7783 29.4979 20.0869C29.4979 19.0381 29.3104 18.2236 28.9354 17.6436C28.5662 17.0635 27.9979 16.7734 27.2303 16.7734ZM35.1721 15.2705V25H33.1066V15.2705H35.1721ZM34.1525 11.5439C34.4689 11.5439 34.7414 11.6289 34.9699 11.7988C35.2043 11.9688 35.3215 12.2617 35.3215 12.6777C35.3215 13.0879 35.2043 13.3809 34.9699 13.5566C34.7414 13.7266 34.4689 13.8115 34.1525 13.8115C33.8244 13.8115 33.5461 13.7266 33.3176 13.5566C33.0949 13.3809 32.9836 13.0879 32.9836 12.6777C32.9836 12.2617 33.0949 11.9688 33.3176 11.7988C33.5461 11.6289 33.8244 11.5439 34.1525 11.5439ZM41.0484 15.0859C42.2789 15.0859 43.2076 15.3584 43.8346 15.9033C44.4674 16.4482 44.7838 17.2979 44.7838 18.4521V25H43.316L42.9205 23.6201H42.8502C42.5748 23.9717 42.2906 24.2617 41.9977 24.4902C41.7047 24.7188 41.3648 24.8887 40.9781 25C40.5973 25.1172 40.1314 25.1758 39.5807 25.1758C39.0006 25.1758 38.482 25.0703 38.025 24.8594C37.568 24.6426 37.2076 24.3145 36.9439 23.875C36.6803 23.4355 36.5484 22.8789 36.5484 22.2051C36.5484 21.2031 36.9205 20.4502 37.6646 19.9463C38.4146 19.4424 39.5455 19.1641 41.0572 19.1113L42.7447 19.0498V18.54C42.7447 17.8662 42.5865 17.3857 42.2701 17.0986C41.9596 16.8115 41.5201 16.668 40.9518 16.668C40.4654 16.668 39.9938 16.7383 39.5367 16.8789C39.0797 17.0195 38.6344 17.1924 38.2008 17.3975L37.5328 15.9385C38.0074 15.6865 38.5465 15.4814 39.15 15.3232C39.7594 15.165 40.3922 15.0859 41.0484 15.0859ZM42.7359 20.3506L41.4791 20.3945C40.4479 20.4297 39.7242 20.6055 39.3082 20.9219C38.8922 21.2383 38.6842 21.6719 38.6842 22.2227C38.6842 22.7031 38.8277 23.0547 39.1148 23.2773C39.402 23.4941 39.7799 23.6025 40.2486 23.6025C40.9635 23.6025 41.5553 23.4004 42.024 22.9961C42.4986 22.5859 42.7359 21.9854 42.7359 21.1943V20.3506ZM51.8467 15.0859C52.9424 15.0859 53.7949 15.3701 54.4043 15.9385C55.0195 16.501 55.3271 17.4062 55.3271 18.6543V25H53.2617V19.041C53.2617 18.2852 53.1064 17.7197 52.7959 17.3447C52.4854 16.9639 52.0049 16.7734 51.3545 16.7734C50.4111 16.7734 49.7549 17.0635 49.3857 17.6436C49.0225 18.2236 48.8408 19.0645 48.8408 20.166V25H46.7754V15.2705H48.3838L48.6738 16.5889H48.7881C48.999 16.249 49.2598 15.9707 49.5703 15.7539C49.8867 15.5312 50.2383 15.3643 50.625 15.2529C51.0176 15.1416 51.4248 15.0859 51.8467 15.0859Z" class="logo-text"/>
</svg>
