<svg width="71" height="30" viewBox="0 0 71 30" fill="none" xmlns="http://www.w3.org/2000/svg">
<path d="M3.65277 7.8974H2.0514V1.78668H0V0.476562H5.70418V1.78595H3.65277V7.89666V7.8974Z" class="logo-accent"/>
<path d="M8.56749 2.11597C8.647 2.11597 8.7385 2.12039 8.84426 2.1285C8.94927 2.13734 9.03478 2.14766 9.10003 2.16166L8.98152 3.61325C8.92977 3.59631 8.85626 3.58378 8.76175 3.57494C8.66725 3.56683 8.58549 3.56241 8.51648 3.56241C8.31322 3.56241 8.11596 3.5882 7.92469 3.63831C7.73343 3.68915 7.56241 3.77094 7.4109 3.88442C7.25939 3.99789 7.13938 4.14673 7.05163 4.33095C6.96387 4.51516 6.91962 4.74137 6.91962 5.00885V7.89657H5.34375V2.22281H6.53709L6.76961 3.17704H6.84686C6.96087 2.98398 7.10263 2.80714 7.27289 2.6465C7.44316 2.48587 7.63817 2.35692 7.85644 2.26039C8.07545 2.16387 8.31172 2.11523 8.56674 2.11523L8.56749 2.11597Z" class="logo-accent"/>
<path d="M10.2284 0C10.4624 0 10.6642 0.0530533 10.833 0.159897C11.0017 0.26674 11.0865 0.464954 11.0865 0.75601C11.0865 1.04707 11.0017 1.24233 10.833 1.35212C10.6642 1.46191 10.4624 1.51718 10.2284 1.51718C9.99439 1.51718 9.78812 1.46191 9.62161 1.35212C9.45435 1.24233 9.37109 1.04338 9.37109 0.75601C9.37109 0.468638 9.45435 0.266004 9.62161 0.159897C9.78887 0.0530533 9.99139 0 10.2284 0ZM11.0137 2.22308V7.89758H9.43785V2.22308H11.0137Z" class="logo-accent"/>
<path d="M18.7239 2.11621C19.378 2.11621 19.8738 2.28127 20.209 2.61138C20.5451 2.94148 20.7131 3.46981 20.7131 4.19782V7.89755H19.132V4.58319C19.132 4.17719 19.0615 3.87066 18.9204 3.66434C18.7794 3.45802 18.5604 3.35486 18.2641 3.35486C17.8471 3.35486 17.5508 3.50149 17.3753 3.79402C17.1998 4.08655 17.1121 4.50508 17.1121 5.05035V7.89755H15.5362V4.58319C15.5362 4.31277 15.5054 4.08582 15.4432 3.90308C15.3809 3.72034 15.2864 3.58328 15.1589 3.49191C15.0314 3.40054 14.8679 3.35486 14.6684 3.35486C14.3759 3.35486 14.1456 3.42707 13.9783 3.57076C13.8111 3.71444 13.6926 3.92592 13.6221 4.20519C13.5515 4.48445 13.5163 4.82488 13.5163 5.22794V7.89755H11.9404V2.22305H13.1443L13.3558 2.94885H13.4435C13.5605 2.75285 13.7076 2.59369 13.8853 2.47211C14.0623 2.35053 14.2581 2.26063 14.4719 2.20316C14.6856 2.14569 14.9024 2.11695 15.1229 2.11695C15.5467 2.11695 15.906 2.18474 16.2 2.32032C16.4948 2.4559 16.7213 2.66517 16.8795 2.94959H17.0191C17.1916 2.65853 17.4346 2.44706 17.7504 2.31516C18.0654 2.18326 18.3902 2.11695 18.7239 2.11695V2.11621Z" class="logo-accent"/>
<path d="M23.1845 0V1.83771C23.1845 2.05066 23.1785 2.26213 23.1665 2.47214C23.1545 2.68214 23.1395 2.84425 23.1222 2.9592H23.1845C23.336 2.72561 23.543 2.52666 23.8048 2.36308C24.0666 2.19877 24.4056 2.11698 24.8226 2.11698C25.4699 2.11698 25.9957 2.36603 26.3985 2.86341C26.8013 3.36078 27.003 4.09026 27.003 5.05112C27.003 5.69734 26.91 6.23966 26.724 6.67809C26.538 7.11651 26.2777 7.44662 25.9439 7.66768C25.6102 7.88947 25.2224 8 24.7814 8C24.3403 8 24.0238 7.92558 23.7793 7.77673C23.5348 7.62789 23.3368 7.46062 23.1852 7.2742H23.0765L22.8132 7.89831H21.6094V0H23.1852H23.1845ZM24.3156 3.35489C24.0403 3.35489 23.8213 3.41089 23.6593 3.52215C23.4973 3.63415 23.3795 3.80142 23.3053 4.02468C23.231 4.24795 23.1905 4.5309 23.1837 4.87206V5.03933C23.1837 5.59123 23.2662 6.01345 23.432 6.30598C23.597 6.59851 23.8985 6.74514 24.3358 6.74514C24.6599 6.74514 24.9171 6.59777 25.1084 6.30377C25.2997 6.00903 25.3949 5.5846 25.3949 5.02975C25.3949 4.4749 25.2981 4.05711 25.1054 3.77563C24.9126 3.49489 24.6486 3.35415 24.3148 3.35415L24.3156 3.35489Z" class="logo-accent"/>
<path d="M29.2272 7.89758H27.6514V0H29.2272V7.89758Z" class="logo-accent"/>
<path d="M32.5881 2.11621C33.1222 2.11621 33.582 2.21716 33.9675 2.41832C34.353 2.61948 34.6508 2.91127 34.8616 3.2937C35.0716 3.67613 35.1766 4.14329 35.1766 4.69446V5.44531H31.4518C31.4691 5.88226 31.6026 6.22416 31.8523 6.47322C32.1021 6.72153 32.4494 6.84606 32.8934 6.84606C33.2617 6.84606 33.5992 6.80922 33.906 6.7348C34.2128 6.66038 34.5278 6.54837 34.8518 6.39953V7.59765C34.566 7.73618 34.2668 7.83786 33.9555 7.90197C33.6435 7.96608 33.2654 7.9985 32.8214 7.9985C32.2431 7.9985 31.7301 7.89387 31.2845 7.68386C30.8383 7.47386 30.4887 7.15407 30.236 6.72448C29.9825 6.2949 29.8564 5.75331 29.8564 5.10046C29.8564 4.44761 29.9712 3.88466 30.2 3.44328C30.4287 3.00191 30.7483 2.67032 31.1585 2.44853C31.5681 2.22674 32.0451 2.11621 32.5896 2.11621H32.5881ZM32.5986 3.2178C32.2919 3.2178 32.0384 3.31433 31.8366 3.50739C31.6348 3.69971 31.5186 4.00329 31.4878 4.41593H33.699C33.6952 4.18603 33.6532 3.98118 33.5722 3.80139C33.4912 3.62234 33.3705 3.48012 33.2107 3.37475C33.0502 3.27012 32.8462 3.2178 32.5986 3.2178Z" class="logo-accent"/>
<path d="M35.5782 7.23467C35.5737 6.85298 35.8849 6.53982 36.2735 6.53613C36.2787 6.53613 36.284 6.53613 36.2892 6.53613C36.6823 6.53613 37.0003 6.8493 37.0003 7.23467C37.0003 7.62078 36.6815 7.9332 36.2892 7.9332C35.8962 7.9332 35.5782 7.62004 35.5782 7.23467ZM36.8713 7.23467C36.8653 6.91782 36.5997 6.66508 36.2772 6.67098C35.9547 6.67687 35.6974 6.93772 35.7034 7.25456C35.7087 7.56846 35.9705 7.81973 36.29 7.81825C36.611 7.81825 36.872 7.56257 36.872 7.24646C36.872 7.24204 36.872 7.23835 36.872 7.23393L36.8713 7.23467ZM36.0132 6.83677H36.3042C36.488 6.83677 36.5952 6.91487 36.5952 7.07109C36.6042 7.16983 36.5405 7.2612 36.443 7.28772L36.611 7.60162H36.4482L36.2915 7.30909H36.1685V7.60162H36.0125V6.83677H36.0132ZM36.2952 7.19193C36.3905 7.19193 36.443 7.16172 36.443 7.07993C36.443 6.99814 36.3905 6.96793 36.2915 6.96793H36.1685V7.19119H36.2945L36.2952 7.19193Z" class="logo-accent"/>
<path d="M6.87305 18.0215H11.6719V24.4727C10.998 24.6953 10.3008 24.8682 9.58008 24.9912C8.85938 25.1143 8.05078 25.1758 7.1543 25.1758C5.84766 25.1758 4.74023 24.918 3.83203 24.4023C2.92969 23.8809 2.24414 23.1279 1.77539 22.1436C1.30664 21.1533 1.07227 19.9609 1.07227 18.5664C1.07227 17.2246 1.33301 16.0615 1.85449 15.0771C2.37598 14.0869 3.13477 13.3223 4.13086 12.7832C5.12695 12.2383 6.33398 11.9658 7.75195 11.9658C8.44922 11.9658 9.12305 12.0361 9.77344 12.1768C10.4297 12.3115 11.0303 12.499 11.5752 12.7393L10.8369 14.4795C10.4033 14.2744 9.91699 14.1016 9.37793 13.9609C8.83887 13.8203 8.2793 13.75 7.69922 13.75C6.7793 13.75 5.98535 13.9492 5.31738 14.3477C4.65527 14.7461 4.14551 15.3086 3.78809 16.0352C3.43066 16.7559 3.25195 17.6084 3.25195 18.5928C3.25195 19.5479 3.39551 20.3857 3.68262 21.1064C3.96973 21.8271 4.41797 22.3896 5.02734 22.7939C5.64258 23.1924 6.43652 23.3916 7.40918 23.3916C7.89551 23.3916 8.30859 23.3652 8.64844 23.3125C8.98828 23.2598 9.30176 23.2012 9.58887 23.1367V19.8232H6.87305V18.0215ZM17.5131 15.0859C18.3803 15.0859 19.1244 15.2646 19.7455 15.6221C20.3666 15.9795 20.8441 16.4863 21.1781 17.1426C21.5121 17.7988 21.6791 18.584 21.6791 19.498V20.6055H15.184C15.2074 21.5488 15.4594 22.2754 15.9398 22.7852C16.4262 23.2949 17.1059 23.5498 17.9789 23.5498C18.6 23.5498 19.1566 23.4912 19.6488 23.374C20.1469 23.251 20.6596 23.0723 21.1869 22.8379V24.5166C20.7006 24.7451 20.2055 24.9121 19.7016 25.0176C19.1977 25.123 18.5941 25.1758 17.891 25.1758C16.9359 25.1758 16.0951 24.9912 15.3686 24.6221C14.6479 24.2471 14.0824 23.6904 13.6723 22.9521C13.268 22.2139 13.0658 21.2969 13.0658 20.2012C13.0658 19.1113 13.2504 18.1855 13.6195 17.4238C13.9887 16.6621 14.5072 16.082 15.1752 15.6836C15.8432 15.2852 16.6225 15.0859 17.5131 15.0859ZM17.5131 16.6416C16.8627 16.6416 16.3354 16.8525 15.9311 17.2744C15.5326 17.6963 15.2982 18.3145 15.2279 19.1289H19.6576C19.6518 18.6426 19.5697 18.2119 19.4115 17.8369C19.2592 17.4619 19.0248 17.1689 18.7084 16.958C18.3979 16.7471 17.9994 16.6416 17.5131 16.6416ZM31.7215 20.1133C31.7215 20.9219 31.616 21.6396 31.4051 22.2666C31.1941 22.8936 30.8865 23.4238 30.4822 23.8574C30.0779 24.2852 29.5916 24.6133 29.0232 24.8418C28.4549 25.0645 27.8133 25.1758 27.0984 25.1758C26.4305 25.1758 25.8182 25.0645 25.2615 24.8418C24.7049 24.6133 24.2215 24.2852 23.8113 23.8574C23.407 23.4238 23.0936 22.8936 22.8709 22.2666C22.6482 21.6396 22.5369 20.9219 22.5369 20.1133C22.5369 19.041 22.7215 18.1328 23.0906 17.3887C23.4656 16.6387 23.9988 16.0674 24.6902 15.6748C25.3816 15.2822 26.2049 15.0859 27.16 15.0859C28.0564 15.0859 28.8475 15.2822 29.533 15.6748C30.2186 16.0674 30.7547 16.6387 31.1414 17.3887C31.5281 18.1387 31.7215 19.0469 31.7215 20.1133ZM24.6639 20.1133C24.6639 20.8223 24.7488 21.4287 24.9188 21.9326C25.0945 22.4365 25.3641 22.8232 25.7273 23.0928C26.0906 23.3564 26.5594 23.4883 27.1336 23.4883C27.7078 23.4883 28.1766 23.3564 28.5398 23.0928C28.9031 22.8232 29.1697 22.4365 29.3396 21.9326C29.5096 21.4287 29.5945 20.8223 29.5945 20.1133C29.5945 19.4043 29.5096 18.8037 29.3396 18.3115C29.1697 17.8135 28.9031 17.4355 28.5398 17.1777C28.1766 16.9141 27.7049 16.7822 27.1248 16.7822C26.2693 16.7822 25.6453 17.0693 25.2527 17.6436C24.8602 18.2178 24.6639 19.041 24.6639 20.1133ZM39.7336 22.2227C39.7336 22.8613 39.5783 23.4004 39.2678 23.8398C38.9572 24.2793 38.5031 24.6133 37.9055 24.8418C37.3137 25.0645 36.5871 25.1758 35.7258 25.1758C35.0461 25.1758 34.4602 25.126 33.968 25.0264C33.4816 24.9326 33.0217 24.7861 32.5881 24.5869V22.8027C33.051 23.0195 33.5695 23.207 34.1437 23.3652C34.7238 23.5234 35.2717 23.6025 35.7873 23.6025C36.467 23.6025 36.9562 23.4971 37.2551 23.2861C37.5539 23.0693 37.7033 22.7822 37.7033 22.4248C37.7033 22.2139 37.6418 22.0264 37.5187 21.8623C37.4016 21.6924 37.1789 21.5195 36.8508 21.3438C36.5285 21.1621 36.0539 20.9453 35.427 20.6934C34.8117 20.4473 34.2932 20.2012 33.8713 19.9551C33.4494 19.709 33.1301 19.4131 32.9133 19.0674C32.6965 18.7158 32.5881 18.2676 32.5881 17.7227C32.5881 16.8613 32.9279 16.208 33.6076 15.7627C34.2932 15.3115 35.1984 15.0859 36.3234 15.0859C36.9211 15.0859 37.4836 15.1475 38.0109 15.2705C38.5441 15.3877 39.0656 15.5605 39.5754 15.7891L38.925 17.3447C38.4855 17.1514 38.0432 16.9932 37.5979 16.8701C37.1584 16.7412 36.7102 16.6768 36.2531 16.6768C35.7199 16.6768 35.3127 16.7588 35.0314 16.9229C34.7561 17.0869 34.6184 17.3213 34.6184 17.626C34.6184 17.8545 34.6857 18.0479 34.8205 18.2061C34.9553 18.3643 35.1867 18.5225 35.5148 18.6807C35.8488 18.8389 36.3117 19.0352 36.9035 19.2695C37.4836 19.4922 37.9846 19.7266 38.4064 19.9727C38.8342 20.2129 39.1623 20.5088 39.3908 20.8604C39.6193 21.2119 39.7336 21.666 39.7336 22.2227ZM49.5475 15.2705V25H47.9215L47.6402 23.6904H47.526C47.3209 24.0244 47.0602 24.3027 46.7438 24.5254C46.4273 24.7422 46.0758 24.9033 45.6891 25.0088C45.3023 25.1201 44.8951 25.1758 44.4674 25.1758C43.735 25.1758 43.108 25.0527 42.5865 24.8066C42.0709 24.5547 41.6754 24.168 41.4 23.6465C41.1246 23.125 40.9869 22.4512 40.9869 21.625V15.2705H43.0611V21.2383C43.0611 21.9941 43.2135 22.5596 43.5182 22.9346C43.8287 23.3096 44.3092 23.4971 44.9596 23.4971C45.5865 23.4971 46.0846 23.3682 46.4537 23.1104C46.8229 22.8525 47.0836 22.4717 47.2359 21.9678C47.3941 21.4639 47.4732 20.8457 47.4732 20.1133V15.2705H49.5475ZM53.6748 15.2705V25H51.6094V15.2705H53.6748ZM52.6553 11.5439C52.9717 11.5439 53.2441 11.6289 53.4727 11.7988C53.707 11.9688 53.8242 12.2617 53.8242 12.6777C53.8242 13.0879 53.707 13.3809 53.4727 13.5566C53.2441 13.7266 52.9717 13.8115 52.6553 13.8115C52.3271 13.8115 52.0488 13.7266 51.8203 13.5566C51.5977 13.3809 51.4863 13.0879 51.4863 12.6777C51.4863 12.2617 51.5977 11.9688 51.8203 11.7988C52.0488 11.6289 52.3271 11.5439 52.6553 11.5439ZM59.3578 23.5059C59.6273 23.5059 59.8939 23.4824 60.1576 23.4355C60.4213 23.3828 60.6615 23.3213 60.8783 23.251V24.8154C60.6498 24.915 60.3539 25 59.9906 25.0703C59.6273 25.1406 59.2494 25.1758 58.8568 25.1758C58.3061 25.1758 57.8109 25.085 57.3715 24.9033C56.932 24.7158 56.5834 24.3965 56.3256 23.9453C56.0678 23.4941 55.9389 22.8701 55.9389 22.0732V16.8438H54.6117V15.9209L56.0355 15.1914L56.7123 13.1084H58.0131V15.2705H60.7992V16.8438H58.0131V22.0469C58.0131 22.5391 58.1361 22.9053 58.3822 23.1455C58.6283 23.3857 58.9535 23.5059 59.3578 23.5059ZM65.8318 15.0859C66.699 15.0859 67.4432 15.2646 68.0643 15.6221C68.6854 15.9795 69.1629 16.4863 69.4969 17.1426C69.8309 17.7988 69.9979 18.584 69.9979 19.498V20.6055H63.5027C63.5262 21.5488 63.7781 22.2754 64.2586 22.7852C64.7449 23.2949 65.4246 23.5498 66.2977 23.5498C66.9188 23.5498 67.4754 23.4912 67.9676 23.374C68.4656 23.251 68.9783 23.0723 69.5057 22.8379V24.5166C69.0193 24.7451 68.5242 24.9121 68.0203 25.0176C67.5164 25.123 66.9129 25.1758 66.2098 25.1758C65.2547 25.1758 64.4139 24.9912 63.6873 24.6221C62.9666 24.2471 62.4012 23.6904 61.991 22.9521C61.5867 22.2139 61.3846 21.2969 61.3846 20.2012C61.3846 19.1113 61.5691 18.1855 61.9383 17.4238C62.3074 16.6621 62.826 16.082 63.4939 15.6836C64.1619 15.2852 64.9412 15.0859 65.8318 15.0859ZM65.8318 16.6416C65.1814 16.6416 64.6541 16.8525 64.2498 17.2744C63.8514 17.6963 63.617 18.3145 63.5467 19.1289H67.9764C67.9705 18.6426 67.8885 18.2119 67.7303 17.8369C67.5779 17.4619 67.3436 17.1689 67.0271 16.958C66.7166 16.7471 66.3182 16.6416 65.8318 16.6416Z" class="logo-text"/>
</svg>
