<svg width="81" height="30" viewBox="0 0 81 30" fill="none" xmlns="http://www.w3.org/2000/svg">
<path d="M3.65277 7.8974H2.0514V1.78668H0V0.476562H5.70418V1.78595H3.65277V7.89666V7.8974Z" class="logo-accent"/>
<path d="M8.56749 2.11597C8.647 2.11597 8.7385 2.12039 8.84426 2.1285C8.94927 2.13734 9.03478 2.14766 9.10003 2.16166L8.98152 3.61325C8.92977 3.59631 8.85626 3.58378 8.76175 3.57494C8.66725 3.56683 8.58549 3.56241 8.51648 3.56241C8.31322 3.56241 8.11596 3.5882 7.92469 3.63831C7.73343 3.68915 7.56241 3.77094 7.4109 3.88442C7.25939 3.99789 7.13938 4.14673 7.05163 4.33095C6.96387 4.51516 6.91962 4.74137 6.91962 5.00885V7.89657H5.34375V2.22281H6.53709L6.76961 3.17704H6.84686C6.96087 2.98398 7.10263 2.80714 7.27289 2.6465C7.44316 2.48587 7.63817 2.35692 7.85644 2.26039C8.07545 2.16387 8.31172 2.11523 8.56674 2.11523L8.56749 2.11597Z" class="logo-accent"/>
<path d="M10.2284 0C10.4624 0 10.6642 0.0530533 10.833 0.159897C11.0017 0.26674 11.0865 0.464954 11.0865 0.75601C11.0865 1.04707 11.0017 1.24233 10.833 1.35212C10.6642 1.46191 10.4624 1.51718 10.2284 1.51718C9.99439 1.51718 9.78812 1.46191 9.62161 1.35212C9.45435 1.24233 9.37109 1.04338 9.37109 0.75601C9.37109 0.468638 9.45435 0.266004 9.62161 0.159897C9.78887 0.0530533 9.99139 0 10.2284 0ZM11.0137 2.22308V7.89758H9.43785V2.22308H11.0137Z" class="logo-accent"/>
<path d="M18.7239 2.11621C19.378 2.11621 19.8738 2.28127 20.209 2.61138C20.5451 2.94148 20.7131 3.46981 20.7131 4.19782V7.89755H19.132V4.58319C19.132 4.17719 19.0615 3.87066 18.9204 3.66434C18.7794 3.45802 18.5604 3.35486 18.2641 3.35486C17.8471 3.35486 17.5508 3.50149 17.3753 3.79402C17.1998 4.08655 17.1121 4.50508 17.1121 5.05035V7.89755H15.5362V4.58319C15.5362 4.31277 15.5054 4.08582 15.4432 3.90308C15.3809 3.72034 15.2864 3.58328 15.1589 3.49191C15.0314 3.40054 14.8679 3.35486 14.6684 3.35486C14.3759 3.35486 14.1456 3.42707 13.9783 3.57076C13.8111 3.71444 13.6926 3.92592 13.6221 4.20519C13.5515 4.48445 13.5163 4.82488 13.5163 5.22794V7.89755H11.9404V2.22305H13.1443L13.3558 2.94885H13.4435C13.5605 2.75285 13.7076 2.59369 13.8853 2.47211C14.0623 2.35053 14.2581 2.26063 14.4719 2.20316C14.6856 2.14569 14.9024 2.11695 15.1229 2.11695C15.5467 2.11695 15.906 2.18474 16.2 2.32032C16.4948 2.4559 16.7213 2.66517 16.8795 2.94959H17.0191C17.1916 2.65853 17.4346 2.44706 17.7504 2.31516C18.0654 2.18326 18.3902 2.11695 18.7239 2.11695V2.11621Z" class="logo-accent"/>
<path d="M23.1845 0V1.83771C23.1845 2.05066 23.1785 2.26213 23.1665 2.47214C23.1545 2.68214 23.1395 2.84425 23.1222 2.9592H23.1845C23.336 2.72561 23.543 2.52666 23.8048 2.36308C24.0666 2.19877 24.4056 2.11698 24.8226 2.11698C25.4699 2.11698 25.9957 2.36603 26.3985 2.86341C26.8013 3.36078 27.003 4.09026 27.003 5.05112C27.003 5.69734 26.91 6.23966 26.724 6.67809C26.538 7.11651 26.2777 7.44662 25.9439 7.66768C25.6102 7.88947 25.2224 8 24.7814 8C24.3403 8 24.0238 7.92558 23.7793 7.77673C23.5348 7.62789 23.3368 7.46062 23.1852 7.2742H23.0765L22.8132 7.89831H21.6094V0H23.1852H23.1845ZM24.3156 3.35489C24.0403 3.35489 23.8213 3.41089 23.6593 3.52215C23.4973 3.63415 23.3795 3.80142 23.3053 4.02468C23.231 4.24795 23.1905 4.5309 23.1837 4.87206V5.03933C23.1837 5.59123 23.2662 6.01345 23.432 6.30598C23.597 6.59851 23.8985 6.74514 24.3358 6.74514C24.6599 6.74514 24.9171 6.59777 25.1084 6.30377C25.2997 6.00903 25.3949 5.5846 25.3949 5.02975C25.3949 4.4749 25.2981 4.05711 25.1054 3.77563C24.9126 3.49489 24.6486 3.35415 24.3148 3.35415L24.3156 3.35489Z" class="logo-accent"/>
<path d="M29.2272 7.89758H27.6514V0H29.2272V7.89758Z" class="logo-accent"/>
<path d="M32.5881 2.11621C33.1222 2.11621 33.582 2.21716 33.9675 2.41832C34.353 2.61948 34.6508 2.91127 34.8616 3.2937C35.0716 3.67613 35.1766 4.14329 35.1766 4.69446V5.44531H31.4518C31.4691 5.88226 31.6026 6.22416 31.8523 6.47322C32.1021 6.72153 32.4494 6.84606 32.8934 6.84606C33.2617 6.84606 33.5992 6.80922 33.906 6.7348C34.2128 6.66038 34.5278 6.54837 34.8518 6.39953V7.59765C34.566 7.73618 34.2668 7.83786 33.9555 7.90197C33.6435 7.96608 33.2654 7.9985 32.8214 7.9985C32.2431 7.9985 31.7301 7.89387 31.2845 7.68386C30.8383 7.47386 30.4887 7.15407 30.236 6.72448C29.9825 6.2949 29.8564 5.75331 29.8564 5.10046C29.8564 4.44761 29.9712 3.88466 30.2 3.44328C30.4287 3.00191 30.7483 2.67032 31.1585 2.44853C31.5681 2.22674 32.0451 2.11621 32.5896 2.11621H32.5881ZM32.5986 3.2178C32.2919 3.2178 32.0384 3.31433 31.8366 3.50739C31.6348 3.69971 31.5186 4.00329 31.4878 4.41593H33.699C33.6952 4.18603 33.6532 3.98118 33.5722 3.80139C33.4912 3.62234 33.3705 3.48012 33.2107 3.37475C33.0502 3.27012 32.8462 3.2178 32.5986 3.2178Z" class="logo-accent"/>
<path d="M35.5782 7.23467C35.5737 6.85298 35.8849 6.53982 36.2735 6.53613C36.2787 6.53613 36.284 6.53613 36.2892 6.53613C36.6823 6.53613 37.0003 6.8493 37.0003 7.23467C37.0003 7.62078 36.6815 7.9332 36.2892 7.9332C35.8962 7.9332 35.5782 7.62004 35.5782 7.23467ZM36.8713 7.23467C36.8653 6.91782 36.5997 6.66508 36.2772 6.67098C35.9547 6.67687 35.6974 6.93772 35.7034 7.25456C35.7087 7.56846 35.9705 7.81973 36.29 7.81825C36.611 7.81825 36.872 7.56257 36.872 7.24646C36.872 7.24204 36.872 7.23835 36.872 7.23393L36.8713 7.23467ZM36.0132 6.83677H36.3042C36.488 6.83677 36.5952 6.91487 36.5952 7.07109C36.6042 7.16983 36.5405 7.2612 36.443 7.28772L36.611 7.60162H36.4482L36.2915 7.30909H36.1685V7.60162H36.0125V6.83677H36.0132ZM36.2952 7.19193C36.3905 7.19193 36.443 7.16172 36.443 7.07993C36.443 6.99814 36.3905 6.96793 36.2915 6.96793H36.1685V7.19119H36.2945L36.2952 7.19193Z" class="logo-accent"/>
<path d="M1.6875 25V12.1504H3.79688V23.207H9.25488V25H1.6875ZM12.433 15.2705V25H10.3676V15.2705H12.433ZM11.4135 11.5439C11.7299 11.5439 12.0023 11.6289 12.2309 11.7988C12.4652 11.9688 12.5824 12.2617 12.5824 12.6777C12.5824 13.0879 12.4652 13.3809 12.2309 13.5566C12.0023 13.7266 11.7299 13.8115 11.4135 13.8115C11.0854 13.8115 10.807 13.7266 10.5785 13.5566C10.3559 13.3809 10.2445 13.0879 10.2445 12.6777C10.2445 12.2617 10.3559 11.9688 10.5785 11.7988C10.807 11.6289 11.0854 11.5439 11.4135 11.5439ZM16.7186 25L13.0184 15.2705H15.2068L17.2107 20.9834C17.3396 21.3467 17.4568 21.7393 17.5623 22.1611C17.6678 22.583 17.741 22.9375 17.782 23.2246H17.8523C17.8934 22.9258 17.9725 22.5684 18.0896 22.1523C18.2068 21.7305 18.327 21.3408 18.45 20.9834L20.4539 15.2705H22.6336L18.9334 25H16.7186ZM27.0861 15.0859C27.9533 15.0859 28.6975 15.2646 29.3186 15.6221C29.9396 15.9795 30.4172 16.4863 30.7512 17.1426C31.0852 17.7988 31.2521 18.584 31.2521 19.498V20.6055H24.757C24.7805 21.5488 25.0324 22.2754 25.5129 22.7852C25.9992 23.2949 26.6789 23.5498 27.552 23.5498C28.173 23.5498 28.7297 23.4912 29.2219 23.374C29.7199 23.251 30.2326 23.0723 30.76 22.8379V24.5166C30.2736 24.7451 29.7785 24.9121 29.2746 25.0176C28.7707 25.123 28.1672 25.1758 27.4641 25.1758C26.509 25.1758 25.6682 24.9912 24.9416 24.6221C24.2209 24.2471 23.6555 23.6904 23.2453 22.9521C22.841 22.2139 22.6389 21.2969 22.6389 20.2012C22.6389 19.1113 22.8234 18.1855 23.1926 17.4238C23.5617 16.6621 24.0803 16.082 24.7482 15.6836C25.4162 15.2852 26.1955 15.0859 27.0861 15.0859ZM27.0861 16.6416C26.4357 16.6416 25.9084 16.8525 25.5041 17.2744C25.1057 17.6963 24.8713 18.3145 24.801 19.1289H29.2307C29.2248 18.6426 29.1428 18.2119 28.9846 17.8369C28.8322 17.4619 28.5979 17.1689 28.2814 16.958C27.9709 16.7471 27.5725 16.6416 27.0861 16.6416ZM38.3678 13.7588C37.7525 13.7588 37.2018 13.8701 36.7154 14.0928C36.235 14.3154 35.8277 14.6377 35.4937 15.0596C35.1598 15.4756 34.9049 15.9824 34.7291 16.5801C34.5533 17.1719 34.4654 17.8398 34.4654 18.584C34.4654 19.5801 34.6061 20.4385 34.8873 21.1592C35.1686 21.874 35.5963 22.4248 36.1705 22.8115C36.7447 23.1924 37.4713 23.3828 38.3502 23.3828C38.8951 23.3828 39.4254 23.3301 39.941 23.2246C40.4566 23.1191 40.9898 22.9756 41.5406 22.7939V24.5869C41.0191 24.792 40.4918 24.9414 39.9586 25.0352C39.4254 25.1289 38.8102 25.1758 38.1129 25.1758C36.8004 25.1758 35.7105 24.9033 34.8434 24.3584C33.982 23.8135 33.3375 23.0459 32.9098 22.0557C32.4879 21.0654 32.277 19.9053 32.277 18.5752C32.277 17.6025 32.4117 16.7119 32.6812 15.9033C32.9508 15.0947 33.3434 14.3975 33.859 13.8115C34.3746 13.2197 35.0104 12.7656 35.7662 12.4492C36.5279 12.127 37.398 11.9658 38.3766 11.9658C39.0211 11.9658 39.6539 12.0391 40.275 12.1855C40.902 12.3262 41.482 12.5283 42.0152 12.792L41.277 14.5322C40.8316 14.3213 40.3658 14.1396 39.8795 13.9873C39.3932 13.835 38.8893 13.7588 38.3678 13.7588ZM51.8027 20.1133C51.8027 20.9219 51.6973 21.6396 51.4863 22.2666C51.2754 22.8936 50.9678 23.4238 50.5635 23.8574C50.1592 24.2852 49.6729 24.6133 49.1045 24.8418C48.5361 25.0645 47.8945 25.1758 47.1797 25.1758C46.5117 25.1758 45.8994 25.0645 45.3428 24.8418C44.7861 24.6133 44.3027 24.2852 43.8926 23.8574C43.4883 23.4238 43.1748 22.8936 42.9521 22.2666C42.7295 21.6396 42.6182 20.9219 42.6182 20.1133C42.6182 19.041 42.8027 18.1328 43.1719 17.3887C43.5469 16.6387 44.0801 16.0674 44.7715 15.6748C45.4629 15.2822 46.2861 15.0859 47.2412 15.0859C48.1377 15.0859 48.9287 15.2822 49.6143 15.6748C50.2998 16.0674 50.8359 16.6387 51.2227 17.3887C51.6094 18.1387 51.8027 19.0469 51.8027 20.1133ZM44.7451 20.1133C44.7451 20.8223 44.8301 21.4287 45 21.9326C45.1758 22.4365 45.4453 22.8232 45.8086 23.0928C46.1719 23.3564 46.6406 23.4883 47.2148 23.4883C47.7891 23.4883 48.2578 23.3564 48.6211 23.0928C48.9844 22.8232 49.251 22.4365 49.4209 21.9326C49.5908 21.4287 49.6758 20.8223 49.6758 20.1133C49.6758 19.4043 49.5908 18.8037 49.4209 18.3115C49.251 17.8135 48.9844 17.4355 48.6211 17.1777C48.2578 16.9141 47.7861 16.7822 47.2061 16.7822C46.3506 16.7822 45.7266 17.0693 45.334 17.6436C44.9414 18.2178 44.7451 19.041 44.7451 20.1133ZM61.7572 15.2705V25H60.1312L59.85 23.6904H59.7357C59.5307 24.0244 59.2699 24.3027 58.9535 24.5254C58.6371 24.7422 58.2855 24.9033 57.8988 25.0088C57.5121 25.1201 57.1049 25.1758 56.6771 25.1758C55.9447 25.1758 55.3178 25.0527 54.7963 24.8066C54.2807 24.5547 53.8852 24.168 53.6098 23.6465C53.3344 23.125 53.1967 22.4512 53.1967 21.625V15.2705H55.2709V21.2383C55.2709 21.9941 55.4232 22.5596 55.7279 22.9346C56.0385 23.3096 56.5189 23.4971 57.1693 23.4971C57.7963 23.4971 58.2943 23.3682 58.6635 23.1104C59.0326 22.8525 59.2934 22.4717 59.4457 21.9678C59.6039 21.4639 59.683 20.8457 59.683 20.1133V15.2705H61.7572ZM68.8904 15.0859C69.9861 15.0859 70.8387 15.3701 71.448 15.9385C72.0633 16.501 72.3709 17.4062 72.3709 18.6543V25H70.3055V19.041C70.3055 18.2852 70.1502 17.7197 69.8396 17.3447C69.5291 16.9639 69.0486 16.7734 68.3982 16.7734C67.4549 16.7734 66.7986 17.0635 66.4295 17.6436C66.0662 18.2236 65.8846 19.0645 65.8846 20.166V25H63.8191V15.2705H65.4275L65.7176 16.5889H65.8318C66.0428 16.249 66.3035 15.9707 66.6141 15.7539C66.9305 15.5312 67.282 15.3643 67.6688 15.2529C68.0613 15.1416 68.4686 15.0859 68.8904 15.0859ZM77.9836 23.5059C78.2531 23.5059 78.5197 23.4824 78.7834 23.4355C79.0471 23.3828 79.2873 23.3213 79.5041 23.251V24.8154C79.2756 24.915 78.9797 25 78.6164 25.0703C78.2531 25.1406 77.8752 25.1758 77.4826 25.1758C76.9318 25.1758 76.4367 25.085 75.9973 24.9033C75.5578 24.7158 75.2092 24.3965 74.9514 23.9453C74.6936 23.4941 74.5647 22.8701 74.5647 22.0732V16.8438H73.2375V15.9209L74.6613 15.1914L75.3381 13.1084H76.6389V15.2705H79.425V16.8438H76.6389V22.0469C76.6389 22.5391 76.7619 22.9053 77.008 23.1455C77.2541 23.3857 77.5793 23.5059 77.9836 23.5059Z" class="logo-text"/>
</svg>
