<svg width="121" height="30" viewBox="0 0 121 30" fill="none" xmlns="http://www.w3.org/2000/svg">
<path d="M3.65277 7.8974H2.0514V1.78668H0V0.476562H5.70418V1.78595H3.65277V7.89666V7.8974Z" class="logo-accent"/>
<path d="M8.56749 2.11597C8.647 2.11597 8.7385 2.12039 8.84426 2.1285C8.94927 2.13734 9.03478 2.14766 9.10003 2.16166L8.98152 3.61325C8.92977 3.59631 8.85626 3.58378 8.76175 3.57494C8.66725 3.56683 8.58549 3.56241 8.51648 3.56241C8.31322 3.56241 8.11596 3.5882 7.92469 3.63831C7.73343 3.68915 7.56241 3.77094 7.4109 3.88442C7.25939 3.99789 7.13938 4.14673 7.05163 4.33095C6.96387 4.51516 6.91962 4.74137 6.91962 5.00885V7.89657H5.34375V2.22281H6.53709L6.76961 3.17704H6.84686C6.96087 2.98398 7.10263 2.80714 7.27289 2.6465C7.44316 2.48587 7.63817 2.35692 7.85644 2.26039C8.07545 2.16387 8.31172 2.11523 8.56674 2.11523L8.56749 2.11597Z" class="logo-accent"/>
<path d="M10.2284 0C10.4624 0 10.6642 0.0530533 10.833 0.159897C11.0017 0.26674 11.0865 0.464954 11.0865 0.75601C11.0865 1.04707 11.0017 1.24233 10.833 1.35212C10.6642 1.46191 10.4624 1.51718 10.2284 1.51718C9.99439 1.51718 9.78812 1.46191 9.62161 1.35212C9.45435 1.24233 9.37109 1.04338 9.37109 0.75601C9.37109 0.468638 9.45435 0.266004 9.62161 0.159897C9.78887 0.0530533 9.99139 0 10.2284 0ZM11.0137 2.22308V7.89758H9.43785V2.22308H11.0137Z" class="logo-accent"/>
<path d="M18.7239 2.11621C19.378 2.11621 19.8738 2.28127 20.209 2.61138C20.5451 2.94148 20.7131 3.46981 20.7131 4.19782V7.89755H19.132V4.58319C19.132 4.17719 19.0615 3.87066 18.9204 3.66434C18.7794 3.45802 18.5604 3.35486 18.2641 3.35486C17.8471 3.35486 17.5508 3.50149 17.3753 3.79402C17.1998 4.08655 17.1121 4.50508 17.1121 5.05035V7.89755H15.5362V4.58319C15.5362 4.31277 15.5054 4.08582 15.4432 3.90308C15.3809 3.72034 15.2864 3.58328 15.1589 3.49191C15.0314 3.40054 14.8679 3.35486 14.6684 3.35486C14.3759 3.35486 14.1456 3.42707 13.9783 3.57076C13.8111 3.71444 13.6926 3.92592 13.6221 4.20519C13.5515 4.48445 13.5163 4.82488 13.5163 5.22794V7.89755H11.9404V2.22305H13.1443L13.3558 2.94885H13.4435C13.5605 2.75285 13.7076 2.59369 13.8853 2.47211C14.0623 2.35053 14.2581 2.26063 14.4719 2.20316C14.6856 2.14569 14.9024 2.11695 15.1229 2.11695C15.5467 2.11695 15.906 2.18474 16.2 2.32032C16.4948 2.4559 16.7213 2.66517 16.8795 2.94959H17.0191C17.1916 2.65853 17.4346 2.44706 17.7504 2.31516C18.0654 2.18326 18.3902 2.11695 18.7239 2.11695V2.11621Z" class="logo-accent"/>
<path d="M23.1845 0V1.83771C23.1845 2.05066 23.1785 2.26213 23.1665 2.47214C23.1545 2.68214 23.1395 2.84425 23.1222 2.9592H23.1845C23.336 2.72561 23.543 2.52666 23.8048 2.36308C24.0666 2.19877 24.4056 2.11698 24.8226 2.11698C25.4699 2.11698 25.9957 2.36603 26.3985 2.86341C26.8013 3.36078 27.003 4.09026 27.003 5.05112C27.003 5.69734 26.91 6.23966 26.724 6.67809C26.538 7.11651 26.2777 7.44662 25.9439 7.66768C25.6102 7.88947 25.2224 8 24.7814 8C24.3403 8 24.0238 7.92558 23.7793 7.77673C23.5348 7.62789 23.3368 7.46062 23.1852 7.2742H23.0765L22.8132 7.89831H21.6094V0H23.1852H23.1845ZM24.3156 3.35489C24.0403 3.35489 23.8213 3.41089 23.6593 3.52215C23.4973 3.63415 23.3795 3.80142 23.3053 4.02468C23.231 4.24795 23.1905 4.5309 23.1837 4.87206V5.03933C23.1837 5.59123 23.2662 6.01345 23.432 6.30598C23.597 6.59851 23.8985 6.74514 24.3358 6.74514C24.6599 6.74514 24.9171 6.59777 25.1084 6.30377C25.2997 6.00903 25.3949 5.5846 25.3949 5.02975C25.3949 4.4749 25.2981 4.05711 25.1054 3.77563C24.9126 3.49489 24.6486 3.35415 24.3148 3.35415L24.3156 3.35489Z" class="logo-accent"/>
<path d="M29.2272 7.89758H27.6514V0H29.2272V7.89758Z" class="logo-accent"/>
<path d="M32.5881 2.11621C33.1222 2.11621 33.582 2.21716 33.9675 2.41832C34.353 2.61948 34.6508 2.91127 34.8616 3.2937C35.0716 3.67613 35.1766 4.14329 35.1766 4.69446V5.44531H31.4518C31.4691 5.88226 31.6026 6.22416 31.8523 6.47322C32.1021 6.72153 32.4494 6.84606 32.8934 6.84606C33.2617 6.84606 33.5992 6.80922 33.906 6.7348C34.2128 6.66038 34.5278 6.54837 34.8518 6.39953V7.59765C34.566 7.73618 34.2668 7.83786 33.9555 7.90197C33.6435 7.96608 33.2654 7.9985 32.8214 7.9985C32.2431 7.9985 31.7301 7.89387 31.2845 7.68386C30.8383 7.47386 30.4887 7.15407 30.236 6.72448C29.9825 6.2949 29.8564 5.75331 29.8564 5.10046C29.8564 4.44761 29.9712 3.88466 30.2 3.44328C30.4287 3.00191 30.7483 2.67032 31.1585 2.44853C31.5681 2.22674 32.0451 2.11621 32.5896 2.11621H32.5881ZM32.5986 3.2178C32.2919 3.2178 32.0384 3.31433 31.8366 3.50739C31.6348 3.69971 31.5186 4.00329 31.4878 4.41593H33.699C33.6952 4.18603 33.6532 3.98118 33.5722 3.80139C33.4912 3.62234 33.3705 3.48012 33.2107 3.37475C33.0502 3.27012 32.8462 3.2178 32.5986 3.2178Z" class="logo-accent"/>
<path d="M35.5782 7.23467C35.5737 6.85298 35.8849 6.53982 36.2735 6.53613C36.2787 6.53613 36.284 6.53613 36.2892 6.53613C36.6823 6.53613 37.0003 6.8493 37.0003 7.23467C37.0003 7.62078 36.6815 7.9332 36.2892 7.9332C35.8962 7.9332 35.5782 7.62004 35.5782 7.23467ZM36.8713 7.23467C36.8653 6.91782 36.5997 6.66508 36.2772 6.67098C35.9547 6.67687 35.6974 6.93772 35.7034 7.25456C35.7087 7.56846 35.9705 7.81973 36.29 7.81825C36.611 7.81825 36.872 7.56257 36.872 7.24646C36.872 7.24204 36.872 7.23835 36.872 7.23393L36.8713 7.23467ZM36.0132 6.83677H36.3042C36.488 6.83677 36.5952 6.91487 36.5952 7.07109C36.6042 7.16983 36.5405 7.2612 36.443 7.28772L36.611 7.60162H36.4482L36.2915 7.30909H36.1685V7.60162H36.0125V6.83677H36.0132ZM36.2952 7.19193C36.3905 7.19193 36.443 7.16172 36.443 7.07993C36.443 6.99814 36.3905 6.96793 36.2915 6.96793H36.1685V7.19119H36.2945L36.2952 7.19193Z" class="logo-accent"/>
<path d="M5.2998 12.1504C6.40723 12.1504 7.32129 12.2852 8.04199 12.5547C8.76855 12.8242 9.30762 13.2344 9.65918 13.7852C10.0166 14.3359 10.1953 15.0361 10.1953 15.8857C10.1953 16.5186 10.0781 17.0576 9.84375 17.5029C9.60938 17.9482 9.30176 18.3174 8.9209 18.6104C8.54004 18.9033 8.13281 19.1377 7.69922 19.3135L11.3467 25H8.96484L5.8623 19.8496H3.79688V25H1.6875V12.1504H5.2998ZM5.15918 13.9082H3.79688V18.1094H5.25586C6.23438 18.1094 6.94336 17.9277 7.38281 17.5645C7.82812 17.2012 8.05078 16.665 8.05078 15.9561C8.05078 15.2119 7.81348 14.6846 7.33887 14.374C6.87012 14.0635 6.14355 13.9082 5.15918 13.9082ZM15.9486 15.0859C16.8158 15.0859 17.56 15.2646 18.1811 15.6221C18.8021 15.9795 19.2797 16.4863 19.6137 17.1426C19.9477 17.7988 20.1146 18.584 20.1146 19.498V20.6055H13.6195C13.643 21.5488 13.8949 22.2754 14.3754 22.7852C14.8617 23.2949 15.5414 23.5498 16.4145 23.5498C17.0355 23.5498 17.5922 23.4912 18.0844 23.374C18.5824 23.251 19.0951 23.0723 19.6225 22.8379V24.5166C19.1361 24.7451 18.641 24.9121 18.1371 25.0176C17.6332 25.123 17.0297 25.1758 16.3266 25.1758C15.3715 25.1758 14.5307 24.9912 13.8041 24.6221C13.0834 24.2471 12.518 23.6904 12.1078 22.9521C11.7035 22.2139 11.5014 21.2969 11.5014 20.2012C11.5014 19.1113 11.6859 18.1855 12.0551 17.4238C12.4242 16.6621 12.9428 16.082 13.6107 15.6836C14.2787 15.2852 15.058 15.0859 15.9486 15.0859ZM15.9486 16.6416C15.2982 16.6416 14.7709 16.8525 14.3666 17.2744C13.9682 17.6963 13.7338 18.3145 13.6635 19.1289H18.0932C18.0873 18.6426 18.0053 18.2119 17.8471 17.8369C17.6947 17.4619 17.4604 17.1689 17.1439 16.958C16.8334 16.7471 16.435 16.6416 15.9486 16.6416ZM25.3582 15.0859C26.5887 15.0859 27.5174 15.3584 28.1443 15.9033C28.7771 16.4482 29.0936 17.2979 29.0936 18.4521V25H27.6258L27.2303 23.6201H27.16C26.8846 23.9717 26.6004 24.2617 26.3074 24.4902C26.0145 24.7188 25.6746 24.8887 25.2879 25C24.907 25.1172 24.4412 25.1758 23.8904 25.1758C23.3104 25.1758 22.7918 25.0703 22.3348 24.8594C21.8777 24.6426 21.5174 24.3145 21.2537 23.875C20.99 23.4355 20.8582 22.8789 20.8582 22.2051C20.8582 21.2031 21.2303 20.4502 21.9744 19.9463C22.7244 19.4424 23.8553 19.1641 25.367 19.1113L27.0545 19.0498V18.54C27.0545 17.8662 26.8963 17.3857 26.5799 17.0986C26.2693 16.8115 25.8299 16.668 25.2615 16.668C24.7752 16.668 24.3035 16.7383 23.8465 16.8789C23.3895 17.0195 22.9441 17.1924 22.5105 17.3975L21.8426 15.9385C22.3172 15.6865 22.8563 15.4814 23.4598 15.3232C24.0691 15.165 24.702 15.0859 25.3582 15.0859ZM27.0457 20.3506L25.7889 20.3945C24.7576 20.4297 24.034 20.6055 23.618 20.9219C23.202 21.2383 22.9939 21.6719 22.9939 22.2227C22.9939 22.7031 23.1375 23.0547 23.4246 23.2773C23.7117 23.4941 24.0896 23.6025 24.5584 23.6025C25.2732 23.6025 25.865 23.4004 26.3338 22.9961C26.8084 22.5859 27.0457 21.9854 27.0457 21.1943V20.3506ZM33.1594 25H31.0852V11.3242H33.1594V25ZM37.2779 15.2705V25H35.2125V15.2705H37.2779ZM36.2584 11.5439C36.5748 11.5439 36.8473 11.6289 37.0758 11.7988C37.3102 11.9688 37.4273 12.2617 37.4273 12.6777C37.4273 13.0879 37.3102 13.3809 37.0758 13.5566C36.8473 13.7266 36.5748 13.8115 36.2584 13.8115C35.9303 13.8115 35.652 13.7266 35.4234 13.5566C35.2008 13.3809 35.0895 13.0879 35.0895 12.6777C35.0895 12.2617 35.2008 11.9688 35.4234 11.7988C35.652 11.6289 35.9303 11.5439 36.2584 11.5439ZM42.9609 23.5059C43.2305 23.5059 43.4971 23.4824 43.7607 23.4355C44.0244 23.3828 44.2646 23.3213 44.4814 23.251V24.8154C44.2529 24.915 43.957 25 43.5938 25.0703C43.2305 25.1406 42.8525 25.1758 42.46 25.1758C41.9092 25.1758 41.4141 25.085 40.9746 24.9033C40.5352 24.7158 40.1865 24.3965 39.9287 23.9453C39.6709 23.4941 39.542 22.8701 39.542 22.0732V16.8438H38.2148V15.9209L39.6387 15.1914L40.3154 13.1084H41.6162V15.2705H44.4023V16.8438H41.6162V22.0469C41.6162 22.5391 41.7393 22.9053 41.9854 23.1455C42.2314 23.3857 42.5566 23.5059 42.9609 23.5059ZM44.0912 15.2705H46.3412L48.3363 20.8252C48.4242 21.0771 48.5033 21.3262 48.5736 21.5723C48.6498 21.8125 48.7143 22.0498 48.767 22.2842C48.8256 22.5186 48.8725 22.7529 48.9076 22.9873H48.9604C49.0189 22.6826 49.101 22.3428 49.2064 21.9678C49.3178 21.5869 49.4408 21.2061 49.5756 20.8252L51.4916 15.2705H53.7152L49.5404 26.3359C49.3002 26.9688 49.0043 27.5078 48.6527 27.9531C48.307 28.4043 47.8969 28.7441 47.4223 28.9727C46.9477 29.207 46.4057 29.3242 45.7963 29.3242C45.5033 29.3242 45.2484 29.3066 45.0316 29.2715C44.8148 29.2422 44.6303 29.21 44.4779 29.1748V27.5225C44.601 27.5518 44.7562 27.5781 44.9437 27.6016C45.1312 27.625 45.3246 27.6367 45.5238 27.6367C45.893 27.6367 46.2123 27.5635 46.4818 27.417C46.7514 27.2705 46.9799 27.0625 47.1674 26.793C47.3549 26.5293 47.5102 26.2275 47.6332 25.8877L47.976 24.9736L44.0912 15.2705ZM63.7541 13.7588C63.1389 13.7588 62.5881 13.8701 62.1018 14.0928C61.6213 14.3154 61.2141 14.6377 60.8801 15.0596C60.5461 15.4756 60.2912 15.9824 60.1154 16.5801C59.9396 17.1719 59.8518 17.8398 59.8518 18.584C59.8518 19.5801 59.9924 20.4385 60.2736 21.1592C60.5549 21.874 60.9826 22.4248 61.5568 22.8115C62.1311 23.1924 62.8576 23.3828 63.7365 23.3828C64.2814 23.3828 64.8117 23.3301 65.3273 23.2246C65.843 23.1191 66.3762 22.9756 66.927 22.7939V24.5869C66.4055 24.792 65.8781 24.9414 65.3449 25.0352C64.8117 25.1289 64.1965 25.1758 63.4992 25.1758C62.1867 25.1758 61.0969 24.9033 60.2297 24.3584C59.3684 23.8135 58.7238 23.0459 58.2961 22.0557C57.8742 21.0654 57.6633 19.9053 57.6633 18.5752C57.6633 17.6025 57.798 16.7119 58.0676 15.9033C58.3371 15.0947 58.7297 14.3975 59.2453 13.8115C59.7609 13.2197 60.3967 12.7656 61.1525 12.4492C61.9143 12.127 62.7844 11.9658 63.7629 11.9658C64.4074 11.9658 65.0402 12.0391 65.6613 12.1855C66.2883 12.3262 66.8684 12.5283 67.4016 12.792L66.6633 14.5322C66.218 14.3213 65.7521 14.1396 65.2658 13.9873C64.7795 13.835 64.2756 13.7588 63.7541 13.7588ZM72.3902 15.0859C73.6207 15.0859 74.5494 15.3584 75.1764 15.9033C75.8092 16.4482 76.1256 17.2979 76.1256 18.4521V25H74.6578L74.2623 23.6201H74.192C73.9166 23.9717 73.6324 24.2617 73.3395 24.4902C73.0465 24.7188 72.7066 24.8887 72.3199 25C71.9391 25.1172 71.4732 25.1758 70.9225 25.1758C70.3424 25.1758 69.8238 25.0703 69.3668 24.8594C68.9098 24.6426 68.5494 24.3145 68.2857 23.875C68.0221 23.4355 67.8902 22.8789 67.8902 22.2051C67.8902 21.2031 68.2623 20.4502 69.0064 19.9463C69.7564 19.4424 70.8873 19.1641 72.399 19.1113L74.0865 19.0498V18.54C74.0865 17.8662 73.9283 17.3857 73.6119 17.0986C73.3014 16.8115 72.8619 16.668 72.2936 16.668C71.8072 16.668 71.3355 16.7383 70.8785 16.8789C70.4215 17.0195 69.9762 17.1924 69.5426 17.3975L68.8746 15.9385C69.3492 15.6865 69.8883 15.4814 70.4918 15.3232C71.1012 15.165 71.734 15.0859 72.3902 15.0859ZM74.0777 20.3506L72.8209 20.3945C71.7896 20.4297 71.066 20.6055 70.65 20.9219C70.234 21.2383 70.026 21.6719 70.026 22.2227C70.026 22.7031 70.1695 23.0547 70.4566 23.2773C70.7438 23.4941 71.1217 23.6025 71.5904 23.6025C72.3053 23.6025 72.8971 23.4004 73.3658 22.9961C73.8404 22.5859 74.0777 21.9854 74.0777 21.1943V20.3506ZM83.1094 15.0859C84.2637 15.0859 85.1895 15.5078 85.8867 16.3516C86.5898 17.1953 86.9414 18.4492 86.9414 20.1133C86.9414 21.2148 86.7773 22.1436 86.4492 22.8994C86.127 23.6494 85.6729 24.2178 85.0869 24.6045C84.5068 24.9854 83.8301 25.1758 83.0566 25.1758C82.5645 25.1758 82.1367 25.1113 81.7734 24.9824C81.4102 24.8535 81.0996 24.6865 80.8418 24.4814C80.584 24.2705 80.3672 24.042 80.1914 23.7959H80.0684C80.0977 24.0303 80.124 24.291 80.1475 24.5781C80.1768 24.8594 80.1914 25.1172 80.1914 25.3516V29.3154H78.1172V15.2705H79.8047L80.0947 16.6152H80.1914C80.373 16.3398 80.5928 16.085 80.8506 15.8506C81.1143 15.6162 81.4307 15.4316 81.7998 15.2969C82.1748 15.1562 82.6113 15.0859 83.1094 15.0859ZM82.5557 16.7734C81.9873 16.7734 81.5303 16.8877 81.1846 17.1162C80.8447 17.3389 80.5957 17.6758 80.4375 18.127C80.2852 18.5781 80.2031 19.1436 80.1914 19.8232V20.1133C80.1914 20.834 80.2646 21.4463 80.4111 21.9502C80.5635 22.4482 80.8125 22.8291 81.1582 23.0928C81.5098 23.3506 81.9844 23.4795 82.582 23.4795C83.0859 23.4795 83.502 23.3418 83.8301 23.0664C84.1641 22.791 84.4131 22.3984 84.5771 21.8887C84.7412 21.3789 84.8232 20.7783 84.8232 20.0869C84.8232 19.0381 84.6357 18.2236 84.2607 17.6436C83.8916 17.0635 83.3232 16.7734 82.5557 16.7734ZM92.0531 23.5059C92.3227 23.5059 92.5893 23.4824 92.8529 23.4355C93.1166 23.3828 93.3568 23.3213 93.5736 23.251V24.8154C93.3451 24.915 93.0492 25 92.6859 25.0703C92.3227 25.1406 91.9447 25.1758 91.5521 25.1758C91.0014 25.1758 90.5062 25.085 90.0668 24.9033C89.6273 24.7158 89.2787 24.3965 89.0209 23.9453C88.7631 23.4941 88.6342 22.8701 88.6342 22.0732V16.8438H87.307V15.9209L88.7309 15.1914L89.4076 13.1084H90.7084V15.2705H93.4945V16.8438H90.7084V22.0469C90.7084 22.5391 90.8314 22.9053 91.0775 23.1455C91.3236 23.3857 91.6488 23.5059 92.0531 23.5059ZM103.133 15.2705V25H101.507L101.225 23.6904H101.111C100.906 24.0244 100.645 24.3027 100.329 24.5254C100.012 24.7422 99.6609 24.9033 99.2742 25.0088C98.8875 25.1201 98.4803 25.1758 98.0525 25.1758C97.3201 25.1758 96.6932 25.0527 96.1717 24.8066C95.6561 24.5547 95.2605 24.168 94.9852 23.6465C94.7098 23.125 94.5721 22.4512 94.5721 21.625V15.2705H96.6463V21.2383C96.6463 21.9941 96.7986 22.5596 97.1033 22.9346C97.4139 23.3096 97.8943 23.4971 98.5447 23.4971C99.1717 23.4971 99.6697 23.3682 100.039 23.1104C100.408 22.8525 100.669 22.4717 100.821 21.9678C100.979 21.4639 101.058 20.8457 101.058 20.1133V15.2705H103.133ZM110.125 15.0859C110.289 15.0859 110.468 15.0947 110.661 15.1123C110.855 15.1299 111.022 15.1533 111.162 15.1826L110.969 17.1162C110.846 17.0811 110.694 17.0547 110.512 17.0371C110.336 17.0195 110.178 17.0107 110.037 17.0107C109.668 17.0107 109.317 17.0723 108.983 17.1953C108.649 17.3125 108.353 17.4941 108.095 17.7402C107.837 17.9805 107.635 18.2822 107.488 18.6455C107.342 19.0088 107.269 19.4307 107.269 19.9111V25H105.195V15.2705H106.812L107.093 16.9844H107.19C107.383 16.6387 107.623 16.3223 107.91 16.0352C108.197 15.748 108.526 15.5195 108.895 15.3496C109.27 15.1738 109.68 15.0859 110.125 15.0859ZM115.94 15.0859C116.807 15.0859 117.551 15.2646 118.172 15.6221C118.794 15.9795 119.271 16.4863 119.605 17.1426C119.939 17.7988 120.106 18.584 120.106 19.498V20.6055H113.611C113.634 21.5488 113.886 22.2754 114.367 22.7852C114.853 23.2949 115.533 23.5498 116.406 23.5498C117.027 23.5498 117.584 23.4912 118.076 23.374C118.574 23.251 119.087 23.0723 119.614 22.8379V24.5166C119.128 24.7451 118.632 24.9121 118.129 25.0176C117.625 25.123 117.021 25.1758 116.318 25.1758C115.363 25.1758 114.522 24.9912 113.796 24.6221C113.075 24.2471 112.509 23.6904 112.099 22.9521C111.695 22.2139 111.493 21.2969 111.493 20.2012C111.493 19.1113 111.677 18.1855 112.046 17.4238C112.416 16.6621 112.934 16.082 113.602 15.6836C114.27 15.2852 115.049 15.0859 115.94 15.0859ZM115.94 16.6416C115.29 16.6416 114.762 16.8525 114.358 17.2744C113.96 17.6963 113.725 18.3145 113.655 19.1289H118.085C118.079 18.6426 117.997 18.2119 117.838 17.8369C117.686 17.4619 117.452 17.1689 117.135 16.958C116.825 16.7471 116.426 16.6416 115.94 16.6416Z" class="logo-text"/>
</svg>
