<svg width="77" height="30" viewBox="0 0 77 30" fill="none" xmlns="http://www.w3.org/2000/svg">
<path d="M3.65277 7.8974H2.0514V1.78668H0V0.476562H5.70418V1.78595H3.65277V7.89666V7.8974Z" class="logo-accent"/>
<path d="M8.56749 2.11597C8.647 2.11597 8.7385 2.12039 8.84426 2.1285C8.94927 2.13734 9.03478 2.14766 9.10003 2.16166L8.98152 3.61325C8.92977 3.59631 8.85626 3.58378 8.76175 3.57494C8.66725 3.56683 8.58549 3.56241 8.51648 3.56241C8.31322 3.56241 8.11596 3.5882 7.92469 3.63831C7.73343 3.68915 7.56241 3.77094 7.4109 3.88442C7.25939 3.99789 7.13938 4.14673 7.05163 4.33095C6.96387 4.51516 6.91962 4.74137 6.91962 5.00885V7.89657H5.34375V2.22281H6.53709L6.76961 3.17704H6.84686C6.96087 2.98398 7.10263 2.80714 7.27289 2.6465C7.44316 2.48587 7.63817 2.35692 7.85644 2.26039C8.07545 2.16387 8.31172 2.11523 8.56674 2.11523L8.56749 2.11597Z" class="logo-accent"/>
<path d="M10.2284 0C10.4624 0 10.6642 0.0530533 10.833 0.159897C11.0017 0.26674 11.0865 0.464954 11.0865 0.75601C11.0865 1.04707 11.0017 1.24233 10.833 1.35212C10.6642 1.46191 10.4624 1.51718 10.2284 1.51718C9.99439 1.51718 9.78812 1.46191 9.62161 1.35212C9.45435 1.24233 9.37109 1.04338 9.37109 0.75601C9.37109 0.468638 9.45435 0.266004 9.62161 0.159897C9.78887 0.0530533 9.99139 0 10.2284 0ZM11.0137 2.22308V7.89758H9.43785V2.22308H11.0137Z" class="logo-accent"/>
<path d="M18.7239 2.11621C19.378 2.11621 19.8738 2.28127 20.209 2.61138C20.5451 2.94148 20.7131 3.46981 20.7131 4.19782V7.89755H19.132V4.58319C19.132 4.17719 19.0615 3.87066 18.9204 3.66434C18.7794 3.45802 18.5604 3.35486 18.2641 3.35486C17.8471 3.35486 17.5508 3.50149 17.3753 3.79402C17.1998 4.08655 17.1121 4.50508 17.1121 5.05035V7.89755H15.5362V4.58319C15.5362 4.31277 15.5054 4.08582 15.4432 3.90308C15.3809 3.72034 15.2864 3.58328 15.1589 3.49191C15.0314 3.40054 14.8679 3.35486 14.6684 3.35486C14.3759 3.35486 14.1456 3.42707 13.9783 3.57076C13.8111 3.71444 13.6926 3.92592 13.6221 4.20519C13.5515 4.48445 13.5163 4.82488 13.5163 5.22794V7.89755H11.9404V2.22305H13.1443L13.3558 2.94885H13.4435C13.5605 2.75285 13.7076 2.59369 13.8853 2.47211C14.0623 2.35053 14.2581 2.26063 14.4719 2.20316C14.6856 2.14569 14.9024 2.11695 15.1229 2.11695C15.5467 2.11695 15.906 2.18474 16.2 2.32032C16.4948 2.4559 16.7213 2.66517 16.8795 2.94959H17.0191C17.1916 2.65853 17.4346 2.44706 17.7504 2.31516C18.0654 2.18326 18.3902 2.11695 18.7239 2.11695V2.11621Z" class="logo-accent"/>
<path d="M23.1845 0V1.83771C23.1845 2.05066 23.1785 2.26213 23.1665 2.47214C23.1545 2.68214 23.1395 2.84425 23.1222 2.9592H23.1845C23.336 2.72561 23.543 2.52666 23.8048 2.36308C24.0666 2.19877 24.4056 2.11698 24.8226 2.11698C25.4699 2.11698 25.9957 2.36603 26.3985 2.86341C26.8013 3.36078 27.003 4.09026 27.003 5.05112C27.003 5.69734 26.91 6.23966 26.724 6.67809C26.538 7.11651 26.2777 7.44662 25.9439 7.66768C25.6102 7.88947 25.2224 8 24.7814 8C24.3403 8 24.0238 7.92558 23.7793 7.77673C23.5348 7.62789 23.3368 7.46062 23.1852 7.2742H23.0765L22.8132 7.89831H21.6094V0H23.1852H23.1845ZM24.3156 3.35489C24.0403 3.35489 23.8213 3.41089 23.6593 3.52215C23.4973 3.63415 23.3795 3.80142 23.3053 4.02468C23.231 4.24795 23.1905 4.5309 23.1837 4.87206V5.03933C23.1837 5.59123 23.2662 6.01345 23.432 6.30598C23.597 6.59851 23.8985 6.74514 24.3358 6.74514C24.6599 6.74514 24.9171 6.59777 25.1084 6.30377C25.2997 6.00903 25.3949 5.5846 25.3949 5.02975C25.3949 4.4749 25.2981 4.05711 25.1054 3.77563C24.9126 3.49489 24.6486 3.35415 24.3148 3.35415L24.3156 3.35489Z" class="logo-accent"/>
<path d="M29.2272 7.89758H27.6514V0H29.2272V7.89758Z" class="logo-accent"/>
<path d="M32.5881 2.11621C33.1222 2.11621 33.582 2.21716 33.9675 2.41832C34.353 2.61948 34.6508 2.91127 34.8616 3.2937C35.0716 3.67613 35.1766 4.14329 35.1766 4.69446V5.44531H31.4518C31.4691 5.88226 31.6026 6.22416 31.8523 6.47322C32.1021 6.72153 32.4494 6.84606 32.8934 6.84606C33.2617 6.84606 33.5992 6.80922 33.906 6.7348C34.2128 6.66038 34.5278 6.54837 34.8518 6.39953V7.59765C34.566 7.73618 34.2668 7.83786 33.9555 7.90197C33.6435 7.96608 33.2654 7.9985 32.8214 7.9985C32.2431 7.9985 31.7301 7.89387 31.2845 7.68386C30.8383 7.47386 30.4887 7.15407 30.236 6.72448C29.9825 6.2949 29.8564 5.75331 29.8564 5.10046C29.8564 4.44761 29.9712 3.88466 30.2 3.44328C30.4287 3.00191 30.7483 2.67032 31.1585 2.44853C31.5681 2.22674 32.0451 2.11621 32.5896 2.11621H32.5881ZM32.5986 3.2178C32.2919 3.2178 32.0384 3.31433 31.8366 3.50739C31.6348 3.69971 31.5186 4.00329 31.4878 4.41593H33.699C33.6952 4.18603 33.6532 3.98118 33.5722 3.80139C33.4912 3.62234 33.3705 3.48012 33.2107 3.37475C33.0502 3.27012 32.8462 3.2178 32.5986 3.2178Z" class="logo-accent"/>
<path d="M35.5782 7.23467C35.5737 6.85298 35.8849 6.53982 36.2735 6.53613C36.2787 6.53613 36.284 6.53613 36.2892 6.53613C36.6823 6.53613 37.0003 6.8493 37.0003 7.23467C37.0003 7.62078 36.6815 7.9332 36.2892 7.9332C35.8962 7.9332 35.5782 7.62004 35.5782 7.23467ZM36.8713 7.23467C36.8653 6.91782 36.5997 6.66508 36.2772 6.67098C35.9547 6.67687 35.6974 6.93772 35.7034 7.25456C35.7087 7.56846 35.9705 7.81973 36.29 7.81825C36.611 7.81825 36.872 7.56257 36.872 7.24646C36.872 7.24204 36.872 7.23835 36.872 7.23393L36.8713 7.23467ZM36.0132 6.83677H36.3042C36.488 6.83677 36.5952 6.91487 36.5952 7.07109C36.6042 7.16983 36.5405 7.2612 36.443 7.28772L36.611 7.60162H36.4482L36.2915 7.30909H36.1685V7.60162H36.0125V6.83677H36.0132ZM36.2952 7.19193C36.3905 7.19193 36.443 7.16172 36.443 7.07993C36.443 6.99814 36.3905 6.96793 36.2915 6.96793H36.1685V7.19119H36.2945L36.2952 7.19193Z" class="logo-accent"/>
<path d="M9.10547 21.502C9.10547 22.2637 8.91797 22.9199 8.54297 23.4707C8.17383 24.0215 7.64062 24.4434 6.94336 24.7363C6.25195 25.0293 5.42578 25.1758 4.46484 25.1758C3.99609 25.1758 3.54785 25.1494 3.12012 25.0967C2.69238 25.0439 2.28809 24.9678 1.90723 24.8682C1.53223 24.7627 1.18945 24.6367 0.878906 24.4902V22.5039C1.40039 22.7324 1.9834 22.9404 2.62793 23.1279C3.27246 23.3096 3.92871 23.4004 4.59668 23.4004C5.1416 23.4004 5.59277 23.3301 5.9502 23.1895C6.31348 23.043 6.58301 22.8379 6.75879 22.5742C6.93457 22.3047 7.02246 21.9912 7.02246 21.6338C7.02246 21.2529 6.91992 20.9307 6.71484 20.667C6.50977 20.4033 6.19922 20.1631 5.7832 19.9463C5.37305 19.7236 4.85742 19.4863 4.23633 19.2344C3.81445 19.0645 3.41016 18.8711 3.02344 18.6543C2.64258 18.4375 2.30273 18.1826 2.00391 17.8896C1.70508 17.5967 1.46777 17.251 1.29199 16.8525C1.12207 16.4482 1.03711 15.9736 1.03711 15.4287C1.03711 14.7021 1.20996 14.0811 1.55566 13.5654C1.90723 13.0498 2.39941 12.6543 3.03223 12.3789C3.6709 12.1035 4.41504 11.9658 5.26465 11.9658C5.93848 11.9658 6.57129 12.0361 7.16309 12.1768C7.76074 12.3174 8.34668 12.5166 8.9209 12.7744L8.25293 14.4707C7.72559 14.2539 7.21289 14.0811 6.71484 13.9521C6.22266 13.8232 5.71875 13.7588 5.20312 13.7588C4.75781 13.7588 4.37988 13.8262 4.06934 13.9609C3.75879 14.0957 3.52148 14.2861 3.35742 14.5322C3.19922 14.7725 3.12012 15.0596 3.12012 15.3936C3.12012 15.7686 3.21094 16.085 3.39258 16.3428C3.58008 16.5947 3.86719 16.8262 4.25391 17.0371C4.64648 17.248 5.15039 17.4824 5.76562 17.7402C6.47461 18.0332 7.0752 18.3408 7.56738 18.6631C8.06543 18.9854 8.44629 19.3721 8.70996 19.8232C8.97363 20.2686 9.10547 20.8281 9.10547 21.502ZM12.5385 11.3242V17.9336C12.5385 18.2324 12.5268 18.5605 12.5033 18.918C12.4799 19.2695 12.4564 19.6006 12.433 19.9111H12.477C12.6293 19.7061 12.8109 19.4658 13.0219 19.1904C13.2387 18.915 13.4438 18.6748 13.6371 18.4697L16.6078 15.2705H18.9809L15.0873 19.4541L19.2357 25H16.81L13.6986 20.7285L12.5385 21.7217V25H10.473V11.3242H12.5385ZM23.7674 15.0859C24.6346 15.0859 25.3787 15.2646 25.9998 15.6221C26.6209 15.9795 27.0984 16.4863 27.4324 17.1426C27.7664 17.7988 27.9334 18.584 27.9334 19.498V20.6055H21.4383C21.4617 21.5488 21.7137 22.2754 22.1941 22.7852C22.6805 23.2949 23.3602 23.5498 24.2332 23.5498C24.8543 23.5498 25.4109 23.4912 25.9031 23.374C26.4012 23.251 26.9139 23.0723 27.4412 22.8379V24.5166C26.9549 24.7451 26.4598 24.9121 25.9559 25.0176C25.452 25.123 24.8484 25.1758 24.1453 25.1758C23.1902 25.1758 22.3494 24.9912 21.6229 24.6221C20.9021 24.2471 20.3367 23.6904 19.9266 22.9521C19.5223 22.2139 19.3201 21.2969 19.3201 20.2012C19.3201 19.1113 19.5047 18.1855 19.8738 17.4238C20.243 16.6621 20.7615 16.082 21.4295 15.6836C22.0975 15.2852 22.8768 15.0859 23.7674 15.0859ZM23.7674 16.6416C23.117 16.6416 22.5896 16.8525 22.1854 17.2744C21.7869 17.6963 21.5525 18.3145 21.4822 19.1289H25.9119C25.9061 18.6426 25.824 18.2119 25.6658 17.8369C25.5135 17.4619 25.2791 17.1689 24.9627 16.958C24.6521 16.7471 24.2537 16.6416 23.7674 16.6416ZM32.9836 23.5059C33.2531 23.5059 33.5197 23.4824 33.7834 23.4355C34.0471 23.3828 34.2873 23.3213 34.5041 23.251V24.8154C34.2756 24.915 33.9797 25 33.6164 25.0703C33.2531 25.1406 32.8752 25.1758 32.4826 25.1758C31.9318 25.1758 31.4367 25.085 30.9973 24.9033C30.5578 24.7158 30.2092 24.3965 29.9514 23.9453C29.6936 23.4941 29.5646 22.8701 29.5646 22.0732V16.8438H28.2375V15.9209L29.6613 15.1914L30.3381 13.1084H31.6389V15.2705H34.425V16.8438H31.6389V22.0469C31.6389 22.5391 31.7619 22.9053 32.008 23.1455C32.2541 23.3857 32.5793 23.5059 32.9836 23.5059ZM39.5016 25.1758C38.5816 25.1758 37.7848 24.9971 37.1109 24.6396C36.4371 24.2822 35.9186 23.7344 35.5553 22.9961C35.192 22.2578 35.0104 21.3203 35.0104 20.1836C35.0104 19 35.2096 18.0332 35.608 17.2832C36.0064 16.5332 36.5572 15.9795 37.2604 15.6221C37.9693 15.2646 38.7809 15.0859 39.6949 15.0859C40.275 15.0859 40.7994 15.1445 41.2682 15.2617C41.7428 15.373 42.1441 15.5107 42.4723 15.6748L41.857 17.3271C41.4996 17.1807 41.1334 17.0576 40.7584 16.958C40.3834 16.8584 40.023 16.8086 39.6773 16.8086C39.109 16.8086 38.6344 16.9346 38.2535 17.1865C37.8785 17.4385 37.5973 17.8135 37.4098 18.3115C37.2281 18.8096 37.1373 19.4277 37.1373 20.166C37.1373 20.8809 37.2311 21.4844 37.4186 21.9766C37.6061 22.4629 37.8844 22.832 38.2535 23.084C38.6227 23.3301 39.0768 23.4531 39.6158 23.4531C40.149 23.4531 40.6266 23.3887 41.0484 23.2598C41.4703 23.1309 41.8688 22.9639 42.2438 22.7588V24.5518C41.8746 24.7627 41.4791 24.918 41.0572 25.0176C40.6354 25.123 40.1168 25.1758 39.5016 25.1758ZM45.6943 11.3242V14.7607C45.6943 15.1182 45.6826 15.4668 45.6592 15.8066C45.6416 16.1465 45.6211 16.4102 45.5977 16.5977H45.7119C45.917 16.2578 46.1689 15.9795 46.4678 15.7627C46.7666 15.54 47.1006 15.373 47.4697 15.2617C47.8447 15.1504 48.2432 15.0947 48.665 15.0947C49.4092 15.0947 50.042 15.2207 50.5635 15.4727C51.085 15.7188 51.4834 16.1025 51.7588 16.624C52.04 17.1455 52.1807 17.8223 52.1807 18.6543V25H50.1152V19.041C50.1152 18.2852 49.96 17.7197 49.6494 17.3447C49.3389 16.9639 48.8584 16.7734 48.208 16.7734C47.5811 16.7734 47.083 16.9053 46.7139 17.1689C46.3506 17.4268 46.0898 17.8105 45.9316 18.3203C45.7734 18.8242 45.6943 19.4395 45.6943 20.166V25H43.6289V11.3242H45.6943ZM64.473 12.1504V20.4648C64.473 21.3613 64.2826 22.1641 63.9018 22.873C63.5268 23.582 62.9584 24.1445 62.1967 24.5605C61.435 24.9707 60.477 25.1758 59.3227 25.1758C57.6762 25.1758 56.4223 24.7451 55.5609 23.8838C54.7055 23.0166 54.2777 21.8652 54.2777 20.4297V12.1504H56.3871V20.2451C56.3871 21.3174 56.6391 22.1084 57.143 22.6182C57.6469 23.1279 58.3998 23.3828 59.4018 23.3828C60.0932 23.3828 60.6557 23.2627 61.0893 23.0225C61.5287 22.7764 61.851 22.4189 62.0561 21.9502C62.267 21.4756 62.3725 20.9043 62.3725 20.2363V12.1504H64.473ZM71.6414 15.0859C72.7957 15.0859 73.7215 15.5078 74.4187 16.3516C75.1219 17.1953 75.4734 18.4492 75.4734 20.1133C75.4734 21.2148 75.3094 22.1436 74.9812 22.8994C74.659 23.6494 74.2049 24.2178 73.6189 24.6045C73.0389 24.9854 72.3621 25.1758 71.5887 25.1758C71.0965 25.1758 70.6687 25.1113 70.3055 24.9824C69.9422 24.8535 69.6316 24.6865 69.3738 24.4814C69.116 24.2705 68.8992 24.042 68.7234 23.7959H68.6004C68.6297 24.0303 68.6561 24.291 68.6795 24.5781C68.7088 24.8594 68.7234 25.1172 68.7234 25.3516V29.3154H66.6492V15.2705H68.3367L68.6268 16.6152H68.7234C68.9051 16.3398 69.1248 16.085 69.3826 15.8506C69.6463 15.6162 69.9627 15.4316 70.3318 15.2969C70.7068 15.1562 71.1434 15.0859 71.6414 15.0859ZM71.0877 16.7734C70.5193 16.7734 70.0623 16.8877 69.7166 17.1162C69.3768 17.3389 69.1277 17.6758 68.9695 18.127C68.8172 18.5781 68.7352 19.1436 68.7234 19.8232V20.1133C68.7234 20.834 68.7967 21.4463 68.9432 21.9502C69.0955 22.4482 69.3445 22.8291 69.6902 23.0928C70.0418 23.3506 70.5164 23.4795 71.1141 23.4795C71.618 23.4795 72.034 23.3418 72.3621 23.0664C72.6961 22.791 72.9451 22.3984 73.1092 21.8887C73.2732 21.3789 73.3553 20.7783 73.3553 20.0869C73.3553 19.0381 73.1678 18.2236 72.7928 17.6436C72.4236 17.0635 71.8553 16.7734 71.0877 16.7734Z" class="logo-text"/>
</svg>
