<svg width="226" height="28" viewBox="0 0 226 28" fill="none" xmlns="http://www.w3.org/2000/svg">
<path d="M37.9434 22.8988H34.2306V8.47714H29.4752V5.3863H42.6988V8.47714H37.9434V22.8988Z" fill="#0063A3"/>
<path d="M49.335 9.25557C49.5183 9.25557 49.7316 9.26554 49.9758 9.28548C50.219 9.30541 50.4174 9.33133 50.5689 9.36322L50.2938 12.789C50.1742 12.7491 50.0037 12.7192 49.7845 12.6993C49.5652 12.6793 49.3748 12.6694 49.2153 12.6694C48.7439 12.6694 48.2874 12.7292 47.8438 12.8488C47.4003 12.9694 47.0036 13.1627 46.6518 13.4299C46.2999 13.697 46.0228 14.0488 45.8195 14.4844C45.6162 14.92 45.5145 15.4522 45.5145 16.0831V22.8987H41.8615V9.50675H44.6284L45.1676 11.7584H45.3471C45.6102 11.3028 45.9401 10.8862 46.3348 10.5065C46.7305 10.1267 47.181 9.82371 47.6884 9.59645C48.1957 9.3682 48.7439 9.25458 49.335 9.25458V9.25557Z" fill="#0063A3"/>
<path d="M53.1873 4.26099C53.7305 4.26099 54.197 4.38658 54.5887 4.63875C54.9794 4.88993 55.1758 5.35939 55.1758 6.04613C55.1758 6.73287 54.9804 7.19436 54.5887 7.4535C54.197 7.71265 53.7305 7.84322 53.1873 7.84322C52.6361 7.84322 52.1666 7.71365 51.7799 7.4535C51.3922 7.19436 51.1988 6.7249 51.1988 6.04613C51.1988 5.36736 51.3922 4.88993 51.7799 4.63875C52.1666 4.38658 52.6361 4.26099 53.1873 4.26099ZM55.0083 9.50775V22.8998H51.3553V9.50775H55.0083Z" fill="#0063A3"/>
<path d="M72.8826 9.25558C74.3996 9.25558 75.5478 9.6453 76.3263 10.4237C77.1047 11.2022 77.4944 12.4501 77.4944 14.1674V22.8997H73.8295V15.0784C73.8295 14.1206 73.666 13.397 73.3381 12.9106C73.0101 12.4232 72.5038 12.18 71.8171 12.18C70.8512 12.18 70.1645 12.5258 69.7568 13.2166C69.3492 13.9073 69.1458 14.895 69.1458 16.1808V22.9007H65.4929V15.0794C65.4929 14.4405 65.4211 13.9053 65.2776 13.4737C65.134 13.0421 64.9138 12.7192 64.6187 12.5039C64.3227 12.2886 63.9439 12.18 63.4805 12.18C62.8017 12.18 62.2684 12.3504 61.8817 12.6893C61.494 13.0282 61.2189 13.5275 61.0554 14.1864C60.892 14.8452 60.8102 15.6496 60.8102 16.6004V22.9007H57.1572V9.50874H59.9481L60.4395 11.2211H60.6428C60.9139 10.7576 61.2558 10.3829 61.6664 10.0958C62.0781 9.80876 62.5306 9.59646 63.026 9.4609C63.5213 9.32535 64.0237 9.25657 64.535 9.25657C65.5168 9.25657 66.35 9.41605 67.0328 9.736C67.7156 10.0559 68.2408 10.5503 68.6076 11.2211H68.9306C69.3302 10.5344 69.8944 10.036 70.625 9.72404C71.3556 9.41306 72.1081 9.25657 72.8826 9.25657V9.25558Z" fill="#0063A3"/>
<path d="M83.2266 4.26099V8.59675C83.2266 9.10009 83.2126 9.59945 83.1847 10.0938C83.1568 10.5882 83.1229 10.9719 83.0831 11.244H83.2266C83.5774 10.6929 84.0569 10.2234 84.6639 9.83667C85.2709 9.44994 86.0573 9.25558 87.0231 9.25558C88.5242 9.25558 89.7422 9.84265 90.6761 11.0168C91.61 12.1909 92.0775 13.9113 92.0775 16.1798C92.0775 17.7048 91.8622 18.9846 91.4306 20.0182C90.9991 21.0518 90.396 21.8313 89.6216 22.3535C88.8471 22.8768 87.9481 23.138 86.9264 23.138C85.9447 23.138 85.1692 22.9625 84.6031 22.6107C84.0359 22.2589 83.5764 21.8642 83.2256 21.4246H82.9744L82.3634 22.8978H79.5726V4.25999H83.2256L83.2266 4.26099ZM85.85 12.178C85.2111 12.178 84.7037 12.3095 84.329 12.5737C83.9532 12.8368 83.6801 13.2325 83.5087 13.7588C83.3372 14.2861 83.2435 14.9529 83.2276 15.7592V16.1539C83.2276 17.4556 83.419 18.4524 83.8027 19.1421C84.1864 19.8328 84.8841 20.1777 85.8988 20.1777C86.6493 20.1777 87.2464 19.8308 87.6899 19.1361C88.1335 18.4414 88.3547 17.4387 88.3547 16.13C88.3547 14.8203 88.1315 13.8345 87.6839 13.1707C87.2364 12.5079 86.6254 12.176 85.851 12.176L85.85 12.178Z" fill="#0063A3"/>
<path d="M97.2366 22.8988H93.5836V4.26099H97.2366V22.8988Z" fill="#0063A3"/>
<path d="M105.026 9.25558C106.264 9.25558 107.329 9.49379 108.224 9.96823C109.119 10.4437 109.809 11.1324 110.297 12.0344C110.784 12.9365 111.027 14.0389 111.027 15.3406V17.1138H102.391C102.43 18.1444 102.739 18.9527 103.319 19.5398C103.898 20.1269 104.702 20.4199 105.733 20.4199C106.587 20.4199 107.369 20.3322 108.08 20.1568C108.791 19.9803 109.521 19.7172 110.272 19.3654V22.1921C109.609 22.52 108.916 22.7592 108.194 22.9107C107.471 23.0632 106.595 23.139 105.564 23.139C104.223 23.139 103.035 22.8918 102.001 22.3964C100.966 21.901 100.156 21.1465 99.5689 20.1318C98.9818 19.1182 98.6888 17.8404 98.6888 16.2984C98.6888 14.7336 98.9539 13.4299 99.4852 12.3873C100.016 11.3457 100.757 10.5623 101.707 10.04C102.657 9.51772 103.763 9.25558 105.025 9.25558H105.026ZM105.05 11.855C104.339 11.855 103.75 12.0823 103.283 12.5378C102.815 12.9923 102.546 13.707 102.474 14.6817H107.601C107.593 14.1385 107.495 13.6551 107.307 13.2325C107.12 12.8099 106.84 12.474 106.469 12.2268C106.097 11.9796 105.625 11.856 105.05 11.856V11.855Z" fill="#0063A3"/>
<path d="M111.957 21.3339C111.947 20.4329 112.669 19.6953 113.569 19.6843C113.581 19.6843 113.594 19.6843 113.606 19.6843C114.517 19.6843 115.255 20.4229 115.255 21.3339C115.255 22.2449 114.517 22.9835 113.606 22.9835C112.695 22.9835 111.956 22.2449 111.956 21.3339H111.957ZM114.955 21.3339C114.942 20.5863 114.325 19.9903 113.578 20.0033C112.83 20.0162 112.234 20.6332 112.247 21.3807C112.26 22.1213 112.865 22.7144 113.607 22.7114C114.351 22.7114 114.956 22.1073 114.956 21.3628C114.956 21.3528 114.956 21.3429 114.956 21.3339H114.955ZM112.967 20.396H113.642C114.068 20.396 114.316 20.5804 114.316 20.9492C114.337 21.1824 114.189 21.3977 113.964 21.4605L114.353 22.201H113.977L113.613 21.5103H113.329V22.201H112.968V20.396H112.967ZM113.62 21.2332C113.841 21.2332 113.963 21.1625 113.963 20.9701C113.963 20.7777 113.841 20.707 113.612 20.707H113.328V21.2342H113.62V21.2332Z" fill="#0063A3"/>
<path d="M123.059 22.7004H120.231V5.18799H130.074V7.60804H123.059V13.0821H129.633V15.5141H123.059V22.7004Z" fill="#252A2E"/>
<path d="M131.385 5.94251C131.385 5.43916 131.523 5.05243 131.797 4.78033C132.071 4.50922 132.463 4.37267 132.972 4.37267C133.481 4.37267 133.849 4.50822 134.123 4.78033C134.397 5.05143 134.535 5.43916 134.535 5.94251C134.535 6.42193 134.397 6.79869 134.123 7.07479C133.849 7.34988 133.465 7.48843 132.972 7.48843C132.479 7.48843 132.071 7.35088 131.797 7.07479C131.523 6.79969 131.385 6.42193 131.385 5.94251ZM134.357 22.7004H131.553V9.45297H134.357V22.7004Z" fill="#252A2E"/>
<path d="M148.481 22.7004H145.665V14.5552C145.665 13.5336 145.46 12.7701 145.051 12.2677C144.642 11.7644 143.992 11.5132 143.101 11.5132C141.916 11.5132 141.049 11.865 140.5 12.5677C139.951 13.2704 139.677 14.4486 139.677 16.1011V22.7014H136.873V9.45397H139.068L139.462 11.1903H139.605C140.003 10.5593 140.567 10.0719 141.3 9.72907C142.031 9.38619 142.843 9.21376 143.734 9.21376C146.899 9.21376 148.482 10.8304 148.482 14.0648V22.7014L148.481 22.7004Z" fill="#252A2E"/>
<path d="M159.121 22.7005L158.56 20.8555H158.464C157.828 21.6619 157.188 22.2111 156.544 22.5021C155.9 22.7931 155.071 22.9397 154.062 22.9397C152.765 22.9397 151.753 22.5888 151.026 21.8861C150.298 21.1834 149.934 20.1897 149.934 18.9039C149.934 17.5384 150.44 16.5078 151.449 15.8131C152.459 15.1184 153.999 14.7396 156.067 14.6748L158.346 14.6031V13.8964C158.346 13.0502 158.149 12.4172 157.755 11.9976C157.361 11.578 156.75 11.3687 155.924 11.3687C155.248 11.3687 154.599 11.4684 153.979 11.6677C153.359 11.867 152.762 12.1033 152.19 12.3744L151.283 10.362C151.999 9.98623 152.782 9.70116 153.633 9.5058C154.484 9.31045 155.288 9.21277 156.043 9.21277C157.722 9.21277 158.989 9.58056 159.843 10.3151C160.698 11.0497 161.126 12.2039 161.126 13.7768V22.7005H159.121ZM154.945 20.7837C155.963 20.7837 156.78 20.4987 157.397 19.9276C158.013 19.3564 158.322 18.5561 158.322 17.5255V16.3752L156.627 16.447C155.307 16.4948 154.347 16.7171 153.746 17.1118C153.145 17.5075 152.845 18.1115 152.845 18.9269C152.845 19.5179 153.019 19.9754 153.37 20.2983C153.72 20.6213 154.245 20.7837 154.945 20.7837Z" fill="#252A2E"/>
<path d="M175.171 22.7004H172.356V14.5552C172.356 13.5336 172.15 12.7701 171.742 12.2677C171.332 11.7644 170.682 11.5132 169.791 11.5132C168.606 11.5132 167.739 11.865 167.191 12.5677C166.641 13.2704 166.367 14.4486 166.367 16.1011V22.7014H163.564V9.45397H165.758L166.152 11.1903H166.296C166.693 10.5593 167.257 10.0719 167.99 9.72907C168.722 9.38619 169.533 9.21376 170.424 9.21376C173.59 9.21376 175.172 10.8304 175.172 14.0648V22.7014L175.171 22.7004Z" fill="#252A2E"/>
<path d="M183.002 22.9397C181.005 22.9397 179.488 22.3546 178.45 21.1854C177.412 20.0153 176.893 18.3368 176.893 16.149C176.893 13.9213 177.436 12.2079 178.521 11.0109C179.607 9.81279 181.176 9.21376 183.228 9.21376C184.619 9.21376 185.872 9.47291 186.987 9.9922L186.139 12.2558C184.954 11.7923 183.976 11.561 183.204 11.561C180.922 11.561 179.78 13.082 179.78 16.1251C179.78 17.6102 180.064 18.7265 180.633 19.4731C181.202 20.2196 182.035 20.5934 183.133 20.5934C184.382 20.5934 185.563 20.2824 186.677 19.6594V22.1154C186.175 22.4104 185.641 22.6227 185.072 22.7503C184.503 22.8779 183.813 22.9417 183.002 22.9417V22.9397Z" fill="#252A2E"/>
<path d="M188.082 5.94251C188.082 5.43916 188.22 5.05243 188.494 4.78033C188.768 4.50922 189.159 4.37267 189.669 4.37267C190.178 4.37267 190.546 4.50822 190.82 4.78033C191.094 5.05143 191.232 5.43916 191.232 5.94251C191.232 6.44585 191.094 6.79869 190.82 7.07479C190.546 7.34988 190.162 7.48843 189.669 7.48843C189.175 7.48843 188.768 7.35088 188.494 7.07479C188.22 6.79969 188.082 6.42193 188.082 5.94251ZM191.052 22.7004H188.248V9.45297H191.052V22.7004Z" fill="#252A2E"/>
<path d="M201.722 22.7005L201.161 20.8555H201.065C200.429 21.6619 199.789 22.2111 199.145 22.5021C198.501 22.7931 197.674 22.9397 196.663 22.9397C195.366 22.9397 194.354 22.5888 193.627 21.8861C192.899 21.1834 192.535 20.1897 192.535 18.9039C192.535 17.5384 193.041 16.5078 194.05 15.8131C195.06 15.1184 196.6 14.7396 198.667 14.6748L200.946 14.6031V13.8964C200.946 13.0502 200.748 12.4172 200.355 11.9976C199.961 11.578 199.35 11.3687 198.524 11.3687C197.848 11.3687 197.199 11.4684 196.579 11.6677C195.959 11.867 195.362 12.1033 194.789 12.3744L193.882 10.362C194.598 9.98623 195.381 9.70116 196.232 9.5058C197.083 9.31045 197.887 9.21277 198.642 9.21277C200.321 9.21277 201.588 9.58056 202.442 10.3151C203.297 11.0497 203.725 12.2039 203.725 13.7768V22.7005H201.72H201.722ZM197.546 20.7837C198.564 20.7837 199.381 20.4987 199.998 19.9276C200.614 19.3564 200.923 18.5561 200.923 17.5255V16.3752L199.228 16.447C197.908 16.4948 196.948 16.7171 196.347 17.1118C195.746 17.5075 195.446 18.1115 195.446 18.9269C195.446 19.5179 195.62 19.9754 195.971 20.2983C196.321 20.6213 196.846 20.7837 197.546 20.7837Z" fill="#252A2E"/>
<path d="M208.963 22.7004H206.16V4.06268H208.963V22.7004Z" fill="#252A2E"/>
<path d="M220.585 18.9268C220.585 20.2206 220.116 21.2133 219.178 21.9031C218.239 22.5938 216.895 22.9387 215.145 22.9387C213.387 22.9387 211.975 22.6715 210.91 22.1363V19.7043C212.461 20.4229 213.905 20.7828 215.241 20.7828C216.967 20.7828 217.829 20.2595 217.829 19.2139C217.829 18.878 217.734 18.5989 217.543 18.3757C217.353 18.1524 217.038 17.9202 216.6 17.6809C216.163 17.4417 215.555 17.1706 214.775 16.8666C213.256 16.2756 212.228 15.6845 211.691 15.0934C211.154 14.5024 210.886 13.7359 210.886 12.794C210.886 11.6597 211.342 10.7796 212.253 10.1527C213.164 9.52574 214.402 9.21277 215.969 9.21277C217.52 9.21277 218.987 9.52873 220.372 10.1587L219.465 12.2787C218.042 11.6876 216.844 11.3926 215.874 11.3926C214.395 11.3926 213.654 11.8162 213.654 12.6624C213.654 13.0781 213.846 13.4289 214.233 13.716C214.619 14.004 215.46 14.3987 216.757 14.9021C217.846 15.3257 218.638 15.7124 219.131 16.0643C219.624 16.4161 219.99 16.8208 220.228 17.2803C220.467 17.7397 220.586 18.2889 220.586 18.9268H220.585Z" fill="#252A2E"/>
<path d="M222.468 22.6985H222V20.7917H221.352V20.3761H223.126V20.7917H222.468V22.6985ZM224.355 22.6985L223.762 20.9492H223.743L223.756 21.3319V22.6975H223.303V20.3751H223.999L224.57 22.0954L225.17 20.3751H225.844V22.6975H225.372V21.3638L225.385 20.9482H225.366L224.748 22.6975H224.356L224.355 22.6985Z" fill="#252A2E"/>
<path d="M0 10.8703L16.5227 6.44183L16.5367 6.43884L19.2767 5.70625V0L5.5089 3.68988C2.25958 4.56101 0 7.50534 0 10.8693V10.8703Z" fill="#0063A3"/>
<path d="M16.3054 12.2757L16.2147 12.3883L13.9621 15.2439L13.8874 15.3376L11.5132 18.3477V16.3543L0 19.4361V13.7329L11.5132 10.651V8.76421L16.2147 12.2069L16.3054 12.2757Z" fill="#0063A3"/>
<path d="M6.88438 20.4518V26.1551L0 28V22.2967L6.88438 20.4518Z" fill="#0063A3"/>
</svg>
