<svg width="280" height="954" viewBox="0 0 280 954" fill="none" xmlns="http://www.w3.org/2000/svg">
<g clip-path="url(#clip0_1938_21423)">
<g opacity="0.4">
<path opacity="0.2" d="M1146.03 439.507L1310.7 734.893C1328.89 767.524 1329.78 807.036 1313.07 840.451L1047.01 1372.57L1048.8 1373.47L1314.86 841.345C1331.86 807.34 1330.96 767.127 1312.45 733.919L1147.78 438.533L1146.03 439.507ZM1130.03 439.507L1294.7 734.893C1312.89 767.524 1313.78 807.036 1297.07 840.451L1031.01 1372.57L1032.8 1373.47L1298.86 841.345C1315.86 807.34 1314.96 767.127 1296.45 733.919L1131.78 438.533L1130.03 439.507ZM1114.03 439.507L1278.7 734.893C1296.89 767.524 1297.78 807.036 1281.07 840.451L1015.01 1372.57L1016.8 1373.47L1282.86 841.345C1299.86 807.34 1298.96 767.127 1280.45 733.919L1115.78 438.533L1114.03 439.507ZM1098.03 439.507L1262.7 734.893C1280.89 767.524 1281.78 807.036 1265.07 840.451L999.009 1372.57L1000.8 1373.47L1266.86 841.345C1283.86 807.34 1282.96 767.127 1264.45 733.919L1099.78 438.533L1098.03 439.507ZM1082.03 439.507L1246.7 734.893C1264.89 767.524 1265.78 807.036 1249.07 840.451L983.009 1372.57L984.798 1373.47L1250.86 841.345C1267.86 807.34 1266.96 767.127 1248.45 733.919L1083.78 438.533L1082.03 439.507ZM1066.03 439.507L1230.7 734.893C1248.89 767.524 1249.78 807.036 1233.07 840.451L967.009 1372.57L968.798 1373.47L1234.86 841.345C1251.86 807.34 1250.96 767.127 1232.45 733.919L1067.78 438.533L1066.03 439.507ZM1050.03 439.507L1214.7 734.893C1232.89 767.524 1233.78 807.036 1217.07 840.451L951.009 1372.57L952.798 1373.47L1218.86 841.345C1235.86 807.34 1234.96 767.127 1216.45 733.919L1051.78 438.533L1050.03 439.507ZM1034.03 439.507L1198.7 734.893C1216.89 767.524 1217.78 807.036 1201.07 840.451L935.009 1372.57L936.798 1373.47L1202.86 841.345C1219.86 807.34 1218.96 767.127 1200.45 733.919L1035.78 438.533L1034.03 439.507ZM1018.03 439.507L1182.7 734.893C1200.89 767.524 1201.78 807.036 1185.07 840.451L919.009 1372.57L920.798 1373.47L1186.86 841.345C1203.86 807.34 1202.96 767.127 1184.45 733.919L1019.78 438.533L1018.03 439.507ZM1002.03 439.507L1166.7 734.893C1184.89 767.524 1185.78 807.036 1169.07 840.451L903.009 1372.57L904.798 1373.47L1170.86 841.345C1187.86 807.34 1186.96 767.127 1168.45 733.919L1003.78 438.533L1002.03 439.507ZM986.03 439.507L1150.7 734.893C1168.89 767.524 1169.78 807.036 1153.07 840.451L887.009 1372.57L888.798 1373.47L1154.86 841.345C1171.86 807.34 1170.96 767.127 1152.45 733.919L987.776 438.533L986.03 439.507ZM970.03 439.507L1134.7 734.893C1152.89 767.524 1153.78 807.036 1137.07 840.451L871.009 1372.57L872.798 1373.47L1138.86 841.345C1155.86 807.34 1154.96 767.127 1136.45 733.919L971.776 438.533L970.03 439.507ZM954.03 439.507L1118.7 734.893C1136.89 767.524 1137.78 807.036 1121.07 840.451L855.009 1372.57L856.798 1373.47L1122.86 841.345C1139.86 807.34 1138.96 767.127 1120.45 733.919L955.776 438.533L954.03 439.507ZM938.03 439.507L1102.7 734.893C1120.89 767.524 1121.78 807.036 1105.07 840.451L839.009 1372.57L840.798 1373.47L1106.86 841.345C1123.86 807.34 1122.96 767.127 1104.45 733.919L939.776 438.533L938.03 439.507ZM922.03 439.507L1086.7 734.893C1104.89 767.524 1105.78 807.036 1089.07 840.451L823.009 1372.57L824.798 1373.47L1090.86 841.345C1107.86 807.34 1106.96 767.127 1088.45 733.919L923.776 438.533L922.03 439.507ZM906.03 439.507L1070.7 734.893C1088.89 767.524 1089.78 807.036 1073.07 840.451L807.009 1372.57L808.798 1373.47L1074.86 841.345C1091.86 807.34 1090.96 767.127 1072.45 733.919L907.776 438.533L906.03 439.507ZM890.03 439.507L1054.7 734.893C1072.89 767.524 1073.78 807.036 1057.07 840.451L791.009 1372.57L792.798 1373.47L1058.86 841.345C1075.86 807.34 1074.96 767.127 1056.45 733.919L891.776 438.533L890.03 439.507ZM874.03 439.507L1038.7 734.893C1056.89 767.524 1057.78 807.036 1041.07 840.451L775.009 1372.57L776.798 1373.47L1042.86 841.345C1059.86 807.34 1058.96 767.127 1040.45 733.919L875.776 438.533L874.03 439.507ZM858.03 439.507L1022.7 734.893C1040.89 767.524 1041.78 807.036 1025.07 840.451L759.009 1372.57L760.798 1373.47L1026.86 841.345C1043.86 807.34 1042.96 767.127 1024.45 733.919L859.776 438.533L858.03 439.507ZM842.03 439.507L1006.7 734.893C1024.89 767.524 1025.78 807.036 1009.07 840.451L743.009 1372.57L744.798 1373.47L1010.86 841.345C1027.86 807.34 1026.96 767.127 1008.45 733.919L843.776 438.533L842.03 439.507ZM826.03 439.507L990.699 734.893C1008.89 767.524 1009.78 807.036 993.07 840.451L727.009 1372.57L728.798 1373.47L994.859 841.345C1011.86 807.34 1010.96 767.127 992.446 733.919L827.776 438.533L826.03 439.507ZM810.03 439.507L974.699 734.893C992.89 767.524 993.777 807.036 977.07 840.451L711.009 1372.57L712.798 1373.47L978.859 841.345C995.862 807.34 994.959 767.127 976.446 733.919L811.776 438.533L810.03 439.507ZM794.03 439.507L958.699 734.893C976.89 767.524 977.777 807.036 961.07 840.451L695.009 1372.57L696.798 1373.47L962.859 841.345C979.862 807.34 978.959 767.127 960.446 733.919L795.776 438.533L794.03 439.507ZM778.03 439.507L942.699 734.893C960.89 767.524 961.777 807.036 945.07 840.451L679.009 1372.57L680.798 1373.47L946.859 841.345C963.862 807.34 962.959 767.127 944.446 733.919L779.776 438.533L778.03 439.507ZM762.03 439.507L926.699 734.893C944.89 767.524 945.777 807.036 929.07 840.451L663.009 1372.57L664.798 1373.47L930.859 841.345C947.862 807.34 946.959 767.127 928.446 733.919L763.776 438.533L762.03 439.507ZM746.03 439.507L910.699 734.893C928.89 767.524 929.777 807.036 913.07 840.451L647.009 1372.57L648.798 1373.47L914.859 841.345C931.862 807.34 930.959 767.127 912.446 733.919L747.776 438.533L746.03 439.507ZM730.03 439.507L894.699 734.893C912.89 767.524 913.777 807.036 897.07 840.451L631.009 1372.57L632.798 1373.47L898.859 841.345C915.862 807.34 914.959 767.127 896.446 733.919L731.776 438.533L730.03 439.507ZM714.03 439.507L878.699 734.893C896.89 767.524 897.777 807.036 881.07 840.451L615.009 1372.57L616.798 1373.47L882.859 841.345C899.862 807.34 898.959 767.127 880.446 733.919L715.776 438.533L714.03 439.507ZM698.03 439.507L862.699 734.893C880.89 767.524 881.777 807.036 865.07 840.451L599.009 1372.57L600.798 1373.47L866.859 841.345C883.862 807.34 882.959 767.127 864.446 733.919L699.776 438.533L698.03 439.507ZM682.03 439.507L846.699 734.893C864.89 767.524 865.777 807.036 849.07 840.451L583.009 1372.57L584.798 1373.47L850.859 841.345C867.862 807.34 866.959 767.127 848.446 733.919L683.776 438.533L682.03 439.507ZM666.03 439.507L830.699 734.893C848.89 767.524 849.777 807.036 833.07 840.451L567.009 1372.57L568.798 1373.47L834.859 841.345C851.862 807.34 850.959 767.127 832.446 733.919L667.776 438.533L666.03 439.507ZM650.03 439.507L814.699 734.893C832.89 767.524 833.777 807.036 817.07 840.451L551.009 1372.57L552.798 1373.47L818.859 841.345C835.862 807.34 834.959 767.127 816.446 733.919L651.776 438.533L650.03 439.507ZM634.03 439.507L798.699 734.893C816.89 767.524 817.777 807.036 801.07 840.451L535.009 1372.57L536.798 1373.47L802.859 841.345C819.862 807.34 818.959 767.127 800.446 733.919L635.776 438.533L634.03 439.507ZM618.03 439.507L782.699 734.893C800.89 767.524 801.777 807.036 785.07 840.451L519.009 1372.57L520.798 1373.47L786.859 841.345C803.862 807.34 802.959 767.127 784.446 733.919L619.776 438.533L618.03 439.507ZM602.03 439.507L766.699 734.893C784.89 767.524 785.777 807.036 769.07 840.451L503.009 1372.57L504.798 1373.47L770.859 841.345C787.862 807.34 786.959 767.127 768.446 733.919L603.776 438.533L602.03 439.507ZM586.03 439.507L750.699 734.893C768.89 767.524 769.777 807.036 753.07 840.451L487.009 1372.57L488.798 1373.47L754.859 841.345C771.862 807.34 770.959 767.127 752.446 733.919L587.776 438.533L586.03 439.507ZM570.03 439.507L734.699 734.893C752.89 767.524 753.777 807.036 737.07 840.451L471.009 1372.57L472.798 1373.47L738.859 841.345C755.862 807.34 754.959 767.127 736.446 733.919L571.776 438.533L570.03 439.507ZM554.03 439.507L718.699 734.893C736.89 767.524 737.777 807.036 721.07 840.451L455.009 1372.57L456.798 1373.47L722.859 841.345C739.862 807.34 738.959 767.127 720.446 733.919L555.776 438.533L554.03 439.507ZM538.03 439.507L702.699 734.893C720.89 767.524 721.777 807.036 705.07 840.451L439.009 1372.57L440.798 1373.47L706.859 841.345C723.862 807.34 722.959 767.127 704.446 733.919L539.776 438.533L538.03 439.507ZM522.03 439.507L686.699 734.893C704.89 767.524 705.777 807.036 689.07 840.451L423.009 1372.57L424.798 1373.47L690.859 841.345C707.862 807.34 706.959 767.127 688.446 733.919L523.776 438.533L522.03 439.507ZM506.03 439.507L670.699 734.893C688.89 767.524 689.777 807.036 673.07 840.451L407.009 1372.57L408.798 1373.47L674.859 841.345C691.862 807.34 690.959 767.127 672.446 733.919L507.776 438.533L506.03 439.507ZM490.03 439.507L654.699 734.893C672.89 767.524 673.777 807.036 657.07 840.451L391.009 1372.57L392.798 1373.47L658.859 841.345C675.862 807.34 674.959 767.127 656.446 733.919L491.776 438.533L490.03 439.507ZM474.03 439.507L638.699 734.893C656.89 767.524 657.777 807.036 641.07 840.451L375.009 1372.57L376.798 1373.47L642.859 841.345C659.862 807.34 658.959 767.127 640.446 733.919L475.776 438.533L474.03 439.507ZM458.03 439.507L622.699 734.893C640.89 767.524 641.777 807.036 625.07 840.451L359.009 1372.57L360.798 1373.47L626.859 841.345C643.862 807.34 642.959 767.127 624.446 733.919L459.776 438.533L458.03 439.507ZM442.03 439.507L606.699 734.893C624.89 767.524 625.777 807.036 609.07 840.451L343.009 1372.57L344.798 1373.47L610.859 841.345C627.862 807.34 626.959 767.127 608.446 733.919L443.776 438.533L442.03 439.507ZM426.03 439.507L590.699 734.893C608.89 767.524 609.777 807.036 593.07 840.451L327.009 1372.57L328.798 1373.47L594.859 841.345C611.862 807.34 610.959 767.127 592.446 733.919L427.776 438.533L426.03 439.507ZM410.03 439.507L574.699 734.893C592.89 767.524 593.777 807.036 577.07 840.451L311.009 1372.57L312.798 1373.47L578.859 841.345C595.862 807.34 594.959 767.127 576.446 733.919L411.776 438.533L410.03 439.507ZM394.03 439.507L558.699 734.893C576.89 767.524 577.777 807.036 561.07 840.451L295.009 1372.57L296.798 1373.47L562.859 841.345C579.862 807.34 578.959 767.127 560.446 733.919L395.776 438.533L394.03 439.507ZM378.03 439.507L542.699 734.893C560.89 767.524 561.777 807.036 545.07 840.451L279.009 1372.57L280.798 1373.47L546.859 841.345C563.862 807.34 562.959 767.127 544.446 733.919L379.776 438.533L378.03 439.507ZM362.03 439.507L526.699 734.893C544.89 767.524 545.777 807.036 529.07 840.451L263.009 1372.57L264.798 1373.47L530.859 841.345C547.862 807.34 546.959 767.127 528.446 733.919L363.776 438.533L362.03 439.507ZM346.03 439.507L510.699 734.893C528.89 767.524 529.777 807.036 513.07 840.451L247.009 1372.57L248.798 1373.47L514.859 841.345C531.862 807.34 530.959 767.127 512.446 733.919L347.776 438.533L346.03 439.507ZM330.03 439.507L494.699 734.893C512.89 767.524 513.777 807.036 497.07 840.451L231.009 1372.57L232.798 1373.47L498.859 841.345C515.862 807.34 514.959 767.127 496.446 733.919L331.776 438.533L330.03 439.507ZM314.03 439.507L478.699 734.893C496.89 767.524 497.777 807.036 481.07 840.451L215.009 1372.57L216.798 1373.47L482.859 841.345C499.862 807.34 498.959 767.127 480.446 733.919L315.776 438.533L314.03 439.507ZM298.03 439.507L462.699 734.893C480.89 767.524 481.777 807.036 465.07 840.451L199.009 1372.57L200.798 1373.47L466.859 841.345C483.862 807.34 482.959 767.127 464.446 733.919L299.776 438.533L298.03 439.507ZM282.03 439.507L446.699 734.893C464.89 767.524 465.777 807.036 449.07 840.451L183.009 1372.57L184.798 1373.47L450.859 841.345C467.862 807.34 466.959 767.127 448.446 733.919L283.776 438.533L282.03 439.507ZM266.03 439.507L430.699 734.893C448.89 767.524 449.777 807.036 433.07 840.451L167.009 1372.57L168.798 1373.47L434.859 841.345C451.862 807.34 450.959 767.127 432.446 733.919L267.776 438.533L266.03 439.507ZM250.03 439.507L414.699 734.893C432.89 767.524 433.777 807.036 417.07 840.451L151.009 1372.57L152.798 1373.47L418.859 841.345C435.862 807.34 434.959 767.127 416.446 733.919L251.776 438.533L250.03 439.507ZM234.03 439.507L398.699 734.893C416.89 767.524 417.777 807.036 401.07 840.451L135.009 1372.57L136.798 1373.47L402.859 841.345C419.862 807.34 418.959 767.127 400.446 733.919L235.776 438.533L234.03 439.507ZM218.03 439.507L382.699 734.893C400.89 767.524 401.777 807.036 385.07 840.451L119.009 1372.57L120.798 1373.47L386.859 841.345C403.862 807.34 402.959 767.127 384.446 733.919L219.776 438.533L218.03 439.507ZM202.03 439.507L366.699 734.893C384.89 767.524 385.777 807.036 369.07 840.451L103.009 1372.57L104.798 1373.47L370.859 841.345C387.862 807.34 386.959 767.127 368.446 733.919L203.776 438.533L202.03 439.507ZM186.03 439.507L350.699 734.893C368.89 767.524 369.777 807.036 353.07 840.451L87.0088 1372.57L88.7979 1373.47L354.859 841.345C371.862 807.34 370.959 767.127 352.446 733.919L187.776 438.533L186.03 439.507ZM170.03 439.507L334.699 734.893C352.89 767.524 353.777 807.036 337.07 840.451L71.0088 1372.57L72.7979 1373.47L338.859 841.345C355.862 807.34 354.959 767.127 336.446 733.919L171.776 438.533L170.03 439.507ZM154.03 439.507L318.699 734.893C336.89 767.524 337.777 807.036 321.07 840.451L55.0088 1372.57L56.7979 1373.47L322.859 841.345C339.862 807.34 338.959 767.127 320.446 733.919L155.776 438.533L154.03 439.507ZM138.03 439.507L302.699 734.893C320.89 767.524 321.777 807.036 305.07 840.451L39.0088 1372.57L40.7979 1373.47L306.859 841.345C323.862 807.34 322.959 767.127 304.446 733.919L139.776 438.533L138.03 439.507ZM122.03 439.507L286.699 734.893C304.89 767.524 305.777 807.036 289.07 840.451L23.0088 1372.57L24.7979 1373.47L290.859 841.345C307.862 807.34 306.959 767.127 288.446 733.919L123.776 438.533L122.03 439.507ZM106.03 439.507L270.699 734.893C288.89 767.524 289.777 807.036 273.07 840.451L7.00879 1372.57L8.79785 1373.47L274.859 841.345C291.862 807.34 290.959 767.127 272.446 733.919L107.776 438.533L106.03 439.507ZM90.0303 439.507L254.699 734.893C272.89 767.524 273.777 807.036 257.07 840.451L-8.99121 1372.57L-7.20215 1373.47L258.859 841.345C275.862 807.34 274.959 767.127 256.446 733.919L91.7764 438.533L90.0303 439.507ZM74.0303 439.507L238.699 734.893C256.89 767.524 257.777 807.036 241.07 840.451L-24.9912 1372.57L-23.2021 1373.47L242.859 841.345C259.862 807.34 258.959 767.127 240.446 733.919L75.7764 438.533L74.0303 439.507ZM58.0303 439.507L222.699 734.893C240.89 767.524 241.777 807.036 225.07 840.451L-40.9912 1372.57L-39.2021 1373.47L226.859 841.345C243.862 807.34 242.959 767.127 224.446 733.919L59.7764 438.533L58.0303 439.507ZM42.0303 439.507L206.699 734.893C224.89 767.524 225.777 807.036 209.07 840.451L-56.9912 1372.57L-55.2021 1373.47L210.859 841.345C227.862 807.34 226.959 767.127 208.446 733.919L43.7764 438.533L42.0303 439.507ZM26.0303 439.507L190.699 734.893C208.89 767.524 209.777 807.036 193.07 840.451L-72.9912 1372.57L-71.2021 1373.47L194.859 841.345C211.862 807.34 210.959 767.127 192.446 733.919L27.7764 438.533L26.0303 439.507ZM10.0303 439.507L174.699 734.893C192.89 767.524 193.777 807.036 177.07 840.451L-88.9912 1372.57L-87.2021 1373.47L178.859 841.345C195.862 807.34 194.959 767.127 176.446 733.919L11.7764 438.533L10.0303 439.507ZM-5.96973 439.507L158.699 734.893C176.89 767.524 177.777 807.036 161.07 840.451L-104.991 1372.57L-103.202 1373.47L162.859 841.345C179.862 807.34 178.959 767.127 160.446 733.919L-4.22363 438.533L-5.96973 439.507ZM-21.9697 439.507L142.699 734.893C160.89 767.524 161.777 807.036 145.07 840.451L-120.991 1372.57L-119.202 1373.47L146.859 841.345C163.862 807.34 162.959 767.127 144.446 733.919L-20.2236 438.533L-21.9697 439.507ZM-37.9697 439.507L126.699 734.893C144.89 767.524 145.777 807.036 129.07 840.451L-136.991 1372.57L-135.202 1373.47L130.859 841.345C147.862 807.34 146.959 767.127 128.446 733.919L-36.2236 438.533L-37.9697 439.507ZM-53.9697 439.507L110.699 734.893C128.89 767.524 129.777 807.036 113.07 840.451L-152.991 1372.57L-151.202 1373.47L114.859 841.345C131.862 807.34 130.959 767.127 112.446 733.919L-52.2236 438.533L-53.9697 439.507ZM-69.9697 439.507L94.6992 734.893C112.89 767.524 113.777 807.036 97.0703 840.451L-168.991 1372.57L-167.202 1373.47L98.8594 841.345C115.862 807.34 114.959 767.127 96.4463 733.919L-68.2236 438.533L-69.9697 439.507ZM-85.9697 439.507L78.6992 734.893C96.8896 767.524 97.7775 807.036 81.0703 840.451L-184.991 1372.57L-183.202 1373.47L82.8594 841.345C99.8622 807.34 98.9586 767.127 80.4463 733.919L-84.2236 438.533L-85.9697 439.507ZM-101.97 439.507L62.6992 734.893C80.8896 767.524 81.7775 807.036 65.0703 840.451L-200.991 1372.57L-199.202 1373.47L66.8594 841.345C83.8622 807.34 82.9586 767.127 64.4463 733.919L-100.224 438.533L-101.97 439.507ZM-117.97 439.507L46.6992 734.893C64.8896 767.524 65.7775 807.036 49.0703 840.451L-216.991 1372.57L-215.202 1373.47L50.8594 841.345C67.8622 807.34 66.9586 767.127 48.4463 733.919L-116.224 438.533L-117.97 439.507ZM-133.97 439.507L30.6992 734.893C48.8896 767.524 49.7775 807.036 33.0703 840.451L-232.991 1372.57L-231.202 1373.47L34.8594 841.345C51.8622 807.34 50.9586 767.127 32.4463 733.919L-132.224 438.533L-133.97 439.507ZM-149.97 439.507L14.6992 734.893C32.8896 767.524 33.7775 807.036 17.0703 840.451L-248.991 1372.57L-247.202 1373.47L18.8594 841.345C35.8622 807.34 34.9586 767.127 16.4463 733.919L-148.224 438.533L-149.97 439.507ZM-165.97 439.507L-1.30078 734.893C16.8896 767.524 17.7775 807.036 1.07031 840.451L-264.991 1372.57L-263.202 1373.47L2.85938 841.345C19.8622 807.34 18.9586 767.127 0.446289 733.919L-164.224 438.533L-165.97 439.507Z" fill="url(#paint0_radial_1938_21423)" fill-opacity="0.5"/>
</g>
<g opacity="0.4">
<path opacity="0.2" d="M-828.03 -98.9927L-992.699 196.393C-1010.89 229.024 -1011.78 268.536 -995.07 301.951L-729.009 834.073L-730.798 834.967L-996.859 302.845C-1013.86 268.84 -1012.96 228.627 -994.446 195.419L-829.776 -99.9673L-828.03 -98.9927ZM-812.03 -98.9927L-976.699 196.393C-994.89 229.024 -995.777 268.536 -979.07 301.951L-713.009 834.073L-714.798 834.967L-980.859 302.845C-997.862 268.84 -996.959 228.627 -978.446 195.419L-813.776 -99.9673L-812.03 -98.9927ZM-796.03 -98.9927L-960.699 196.393C-978.89 229.024 -979.777 268.536 -963.07 301.951L-697.009 834.073L-698.798 834.967L-964.859 302.845C-981.862 268.84 -980.959 228.627 -962.446 195.419L-797.776 -99.9673L-796.03 -98.9927ZM-780.03 -98.9927L-944.699 196.393C-962.89 229.024 -963.777 268.536 -947.07 301.951L-681.009 834.073L-682.798 834.967L-948.859 302.845C-965.862 268.84 -964.959 228.627 -946.446 195.419L-781.776 -99.9673L-780.03 -98.9927ZM-764.03 -98.9927L-928.699 196.393C-946.89 229.024 -947.777 268.536 -931.07 301.951L-665.009 834.073L-666.798 834.967L-932.859 302.845C-949.862 268.84 -948.959 228.627 -930.446 195.419L-765.776 -99.9673L-764.03 -98.9927ZM-748.03 -98.9927L-912.699 196.393C-930.89 229.024 -931.777 268.536 -915.07 301.951L-649.009 834.073L-650.798 834.967L-916.859 302.845C-933.862 268.84 -932.959 228.627 -914.446 195.419L-749.776 -99.9673L-748.03 -98.9927ZM-732.03 -98.9927L-896.699 196.393C-914.89 229.024 -915.777 268.536 -899.07 301.951L-633.009 834.073L-634.798 834.967L-900.859 302.845C-917.862 268.84 -916.959 228.627 -898.446 195.419L-733.776 -99.9673L-732.03 -98.9927ZM-716.03 -98.9927L-880.699 196.393C-898.89 229.024 -899.777 268.536 -883.07 301.951L-617.009 834.073L-618.798 834.967L-884.859 302.845C-901.862 268.84 -900.959 228.627 -882.446 195.419L-717.776 -99.9673L-716.03 -98.9927ZM-700.03 -98.9927L-864.699 196.393C-882.89 229.024 -883.777 268.536 -867.07 301.951L-601.009 834.073L-602.798 834.967L-868.859 302.845C-885.862 268.84 -884.959 228.627 -866.446 195.419L-701.776 -99.9673L-700.03 -98.9927ZM-684.03 -98.9927L-848.699 196.393C-866.89 229.024 -867.777 268.536 -851.07 301.951L-585.009 834.073L-586.798 834.967L-852.859 302.845C-869.862 268.84 -868.959 228.627 -850.446 195.419L-685.776 -99.9673L-684.03 -98.9927ZM-668.03 -98.9927L-832.699 196.393C-850.89 229.024 -851.777 268.536 -835.07 301.951L-569.009 834.073L-570.798 834.967L-836.859 302.845C-853.862 268.84 -852.959 228.627 -834.446 195.419L-669.776 -99.9673L-668.03 -98.9927ZM-652.03 -98.9927L-816.699 196.393C-834.89 229.024 -835.777 268.536 -819.07 301.951L-553.009 834.073L-554.798 834.967L-820.859 302.845C-837.862 268.84 -836.959 228.627 -818.446 195.419L-653.776 -99.9673L-652.03 -98.9927ZM-636.03 -98.9927L-800.699 196.393C-818.89 229.024 -819.777 268.536 -803.07 301.951L-537.009 834.073L-538.798 834.967L-804.859 302.845C-821.862 268.84 -820.959 228.627 -802.446 195.419L-637.776 -99.9673L-636.03 -98.9927ZM-620.03 -98.9927L-784.699 196.393C-802.89 229.024 -803.777 268.536 -787.07 301.951L-521.009 834.073L-522.798 834.967L-788.859 302.845C-805.862 268.84 -804.959 228.627 -786.446 195.419L-621.776 -99.9673L-620.03 -98.9927ZM-604.03 -98.9927L-768.699 196.393C-786.89 229.024 -787.777 268.536 -771.07 301.951L-505.009 834.073L-506.798 834.967L-772.859 302.845C-789.862 268.84 -788.959 228.627 -770.446 195.419L-605.776 -99.9673L-604.03 -98.9927ZM-588.03 -98.9927L-752.699 196.393C-770.89 229.024 -771.777 268.536 -755.07 301.951L-489.009 834.073L-490.798 834.967L-756.859 302.845C-773.862 268.84 -772.959 228.627 -754.446 195.419L-589.776 -99.9673L-588.03 -98.9927ZM-572.03 -98.9927L-736.699 196.393C-754.89 229.024 -755.777 268.536 -739.07 301.951L-473.009 834.073L-474.798 834.967L-740.859 302.845C-757.862 268.84 -756.959 228.627 -738.446 195.419L-573.776 -99.9673L-572.03 -98.9927ZM-556.03 -98.9927L-720.699 196.393C-738.89 229.024 -739.777 268.536 -723.07 301.951L-457.009 834.073L-458.798 834.967L-724.859 302.845C-741.862 268.84 -740.959 228.627 -722.446 195.419L-557.776 -99.9673L-556.03 -98.9927ZM-540.03 -98.9927L-704.699 196.393C-722.89 229.024 -723.777 268.536 -707.07 301.951L-441.009 834.073L-442.798 834.967L-708.859 302.845C-725.862 268.84 -724.959 228.627 -706.446 195.419L-541.776 -99.9673L-540.03 -98.9927ZM-524.03 -98.9927L-688.699 196.393C-706.89 229.024 -707.777 268.536 -691.07 301.951L-425.009 834.073L-426.798 834.967L-692.859 302.845C-709.862 268.84 -708.959 228.627 -690.446 195.419L-525.776 -99.9673L-524.03 -98.9927ZM-508.03 -98.9927L-672.699 196.393C-690.89 229.024 -691.777 268.536 -675.07 301.951L-409.009 834.073L-410.798 834.967L-676.859 302.845C-693.862 268.84 -692.959 228.627 -674.446 195.419L-509.776 -99.9673L-508.03 -98.9927ZM-492.03 -98.9927L-656.699 196.393C-674.89 229.024 -675.777 268.536 -659.07 301.951L-393.009 834.073L-394.798 834.967L-660.859 302.845C-677.862 268.84 -676.959 228.627 -658.446 195.419L-493.776 -99.9673L-492.03 -98.9927ZM-476.03 -98.9927L-640.699 196.393C-658.89 229.024 -659.777 268.536 -643.07 301.951L-377.009 834.073L-378.798 834.967L-644.859 302.845C-661.862 268.84 -660.959 228.627 -642.446 195.419L-477.776 -99.9673L-476.03 -98.9927ZM-460.03 -98.9927L-624.699 196.393C-642.89 229.024 -643.777 268.536 -627.07 301.951L-361.009 834.073L-362.798 834.967L-628.859 302.845C-645.862 268.84 -644.959 228.627 -626.446 195.419L-461.776 -99.9673L-460.03 -98.9927ZM-444.03 -98.9927L-608.699 196.393C-626.89 229.024 -627.777 268.536 -611.07 301.951L-345.009 834.073L-346.798 834.967L-612.859 302.845C-629.862 268.84 -628.959 228.627 -610.446 195.419L-445.776 -99.9673L-444.03 -98.9927ZM-428.03 -98.9927L-592.699 196.393C-610.89 229.024 -611.777 268.536 -595.07 301.951L-329.009 834.073L-330.798 834.967L-596.859 302.845C-613.862 268.84 -612.959 228.627 -594.446 195.419L-429.776 -99.9673L-428.03 -98.9927ZM-412.03 -98.9927L-576.699 196.393C-594.89 229.024 -595.777 268.536 -579.07 301.951L-313.009 834.073L-314.798 834.967L-580.859 302.845C-597.862 268.84 -596.959 228.627 -578.446 195.419L-413.776 -99.9673L-412.03 -98.9927ZM-396.03 -98.9927L-560.699 196.393C-578.89 229.024 -579.777 268.536 -563.07 301.951L-297.009 834.073L-298.798 834.967L-564.859 302.845C-581.862 268.84 -580.959 228.627 -562.446 195.419L-397.776 -99.9673L-396.03 -98.9927ZM-380.03 -98.9927L-544.699 196.393C-562.89 229.024 -563.777 268.536 -547.07 301.951L-281.009 834.073L-282.798 834.967L-548.859 302.845C-565.862 268.84 -564.959 228.627 -546.446 195.419L-381.776 -99.9673L-380.03 -98.9927ZM-364.03 -98.9927L-528.699 196.393C-546.89 229.024 -547.777 268.536 -531.07 301.951L-265.009 834.073L-266.798 834.967L-532.859 302.845C-549.862 268.84 -548.959 228.627 -530.446 195.419L-365.776 -99.9673L-364.03 -98.9927ZM-348.03 -98.9927L-512.699 196.393C-530.89 229.024 -531.777 268.536 -515.07 301.951L-249.009 834.073L-250.798 834.967L-516.859 302.845C-533.862 268.84 -532.959 228.627 -514.446 195.419L-349.776 -99.9673L-348.03 -98.9927ZM-332.03 -98.9927L-496.699 196.393C-514.89 229.024 -515.777 268.536 -499.07 301.951L-233.009 834.073L-234.798 834.967L-500.859 302.845C-517.862 268.84 -516.959 228.627 -498.446 195.419L-333.776 -99.9673L-332.03 -98.9927ZM-316.03 -98.9927L-480.699 196.393C-498.89 229.024 -499.777 268.536 -483.07 301.951L-217.009 834.073L-218.798 834.967L-484.859 302.845C-501.862 268.84 -500.959 228.627 -482.446 195.419L-317.776 -99.9673L-316.03 -98.9927ZM-300.03 -98.9927L-464.699 196.393C-482.89 229.024 -483.777 268.536 -467.07 301.951L-201.009 834.073L-202.798 834.967L-468.859 302.845C-485.862 268.84 -484.959 228.627 -466.446 195.419L-301.776 -99.9673L-300.03 -98.9927ZM-284.03 -98.9927L-448.699 196.393C-466.89 229.024 -467.777 268.536 -451.07 301.951L-185.009 834.073L-186.798 834.967L-452.859 302.845C-469.862 268.84 -468.959 228.627 -450.446 195.419L-285.776 -99.9673L-284.03 -98.9927ZM-268.03 -98.9927L-432.699 196.393C-450.89 229.024 -451.777 268.536 -435.07 301.951L-169.009 834.073L-170.798 834.967L-436.859 302.845C-453.862 268.84 -452.959 228.627 -434.446 195.419L-269.776 -99.9673L-268.03 -98.9927ZM-252.03 -98.9927L-416.699 196.393C-434.89 229.024 -435.777 268.536 -419.07 301.951L-153.009 834.073L-154.798 834.967L-420.859 302.845C-437.862 268.84 -436.959 228.627 -418.446 195.419L-253.776 -99.9673L-252.03 -98.9927ZM-236.03 -98.9927L-400.699 196.393C-418.89 229.024 -419.777 268.536 -403.07 301.951L-137.009 834.073L-138.798 834.967L-404.859 302.845C-421.862 268.84 -420.959 228.627 -402.446 195.419L-237.776 -99.9673L-236.03 -98.9927ZM-220.03 -98.9927L-384.699 196.393C-402.89 229.024 -403.777 268.536 -387.07 301.951L-121.009 834.073L-122.798 834.967L-388.859 302.845C-405.862 268.84 -404.959 228.627 -386.446 195.419L-221.776 -99.9673L-220.03 -98.9927ZM-204.03 -98.9927L-368.699 196.393C-386.89 229.024 -387.777 268.536 -371.07 301.951L-105.009 834.073L-106.798 834.967L-372.859 302.845C-389.862 268.84 -388.959 228.627 -370.446 195.419L-205.776 -99.9673L-204.03 -98.9927ZM-188.03 -98.9927L-352.699 196.393C-370.89 229.024 -371.777 268.536 -355.07 301.951L-89.0088 834.073L-90.7979 834.967L-356.859 302.845C-373.862 268.84 -372.959 228.627 -354.446 195.419L-189.776 -99.9673L-188.03 -98.9927ZM-172.03 -98.9927L-336.699 196.393C-354.89 229.024 -355.777 268.536 -339.07 301.951L-73.0088 834.073L-74.7979 834.967L-340.859 302.845C-357.862 268.84 -356.959 228.627 -338.446 195.419L-173.776 -99.9673L-172.03 -98.9927ZM-156.03 -98.9927L-320.699 196.393C-338.89 229.024 -339.777 268.536 -323.07 301.951L-57.0088 834.073L-58.7979 834.967L-324.859 302.845C-341.862 268.84 -340.959 228.627 -322.446 195.419L-157.776 -99.9673L-156.03 -98.9927ZM-140.03 -98.9927L-304.699 196.393C-322.89 229.024 -323.777 268.536 -307.07 301.951L-41.0088 834.073L-42.7979 834.967L-308.859 302.845C-325.862 268.84 -324.959 228.627 -306.446 195.419L-141.776 -99.9673L-140.03 -98.9927ZM-124.03 -98.9927L-288.699 196.393C-306.89 229.024 -307.777 268.536 -291.07 301.951L-25.0088 834.073L-26.7979 834.967L-292.859 302.845C-309.862 268.84 -308.959 228.627 -290.446 195.419L-125.776 -99.9673L-124.03 -98.9927ZM-108.03 -98.9927L-272.699 196.393C-290.89 229.024 -291.777 268.536 -275.07 301.951L-9.00879 834.073L-10.7979 834.967L-276.859 302.845C-293.862 268.84 -292.959 228.627 -274.446 195.419L-109.776 -99.9673L-108.03 -98.9927ZM-92.0303 -98.9927L-256.699 196.393C-274.89 229.024 -275.777 268.536 -259.07 301.951L6.99121 834.073L5.20215 834.967L-260.859 302.845C-277.862 268.84 -276.959 228.627 -258.446 195.419L-93.7764 -99.9673L-92.0303 -98.9927ZM-76.0303 -98.9927L-240.699 196.393C-258.89 229.024 -259.777 268.536 -243.07 301.951L22.9912 834.073L21.2021 834.967L-244.859 302.845C-261.862 268.84 -260.959 228.627 -242.446 195.419L-77.7764 -99.9673L-76.0303 -98.9927ZM-60.0303 -98.9927L-224.699 196.393C-242.89 229.024 -243.777 268.536 -227.07 301.951L38.9912 834.073L37.2021 834.967L-228.859 302.845C-245.862 268.84 -244.959 228.627 -226.446 195.419L-61.7764 -99.9673L-60.0303 -98.9927ZM-44.0303 -98.9927L-208.699 196.393C-226.89 229.024 -227.777 268.536 -211.07 301.951L54.9912 834.073L53.2021 834.967L-212.859 302.845C-229.862 268.84 -228.959 228.627 -210.446 195.419L-45.7764 -99.9673L-44.0303 -98.9927ZM-28.0303 -98.9927L-192.699 196.393C-210.89 229.024 -211.777 268.536 -195.07 301.951L70.9912 834.073L69.2021 834.967L-196.859 302.845C-213.862 268.84 -212.959 228.627 -194.446 195.419L-29.7764 -99.9673L-28.0303 -98.9927ZM-12.0303 -98.9927L-176.699 196.393C-194.89 229.024 -195.777 268.536 -179.07 301.951L86.9912 834.073L85.2021 834.967L-180.859 302.845C-197.862 268.84 -196.959 228.627 -178.446 195.419L-13.7764 -99.9673L-12.0303 -98.9927ZM3.96973 -98.9927L-160.699 196.393C-178.89 229.024 -179.777 268.536 -163.07 301.951L102.991 834.073L101.202 834.967L-164.859 302.845C-181.862 268.84 -180.959 228.627 -162.446 195.419L2.22363 -99.9673L3.96973 -98.9927ZM19.9697 -98.9927L-144.699 196.393C-162.89 229.024 -163.777 268.536 -147.07 301.951L118.991 834.073L117.202 834.967L-148.859 302.845C-165.862 268.84 -164.959 228.627 -146.446 195.419L18.2236 -99.9673L19.9697 -98.9927ZM35.9697 -98.9927L-128.699 196.393C-146.89 229.024 -147.777 268.536 -131.07 301.951L134.991 834.073L133.202 834.967L-132.859 302.845C-149.862 268.84 -148.959 228.627 -130.446 195.419L34.2236 -99.9673L35.9697 -98.9927ZM51.9697 -98.9927L-112.699 196.393C-130.89 229.024 -131.777 268.536 -115.07 301.951L150.991 834.073L149.202 834.967L-116.859 302.845C-133.862 268.84 -132.959 228.627 -114.446 195.419L50.2236 -99.9673L51.9697 -98.9927ZM67.9697 -98.9927L-96.6992 196.393C-114.89 229.024 -115.777 268.536 -99.0703 301.951L166.991 834.073L165.202 834.967L-100.859 302.845C-117.862 268.84 -116.959 228.627 -98.4463 195.419L66.2236 -99.9673L67.9697 -98.9927ZM83.9697 -98.9927L-80.6992 196.393C-98.8897 229.024 -99.7775 268.536 -83.0703 301.951L182.991 834.073L181.202 834.967L-84.8594 302.845C-101.862 268.84 -100.959 228.627 -82.4463 195.419L82.2236 -99.9673L83.9697 -98.9927ZM99.9697 -98.9927L-64.6992 196.393C-82.8897 229.024 -83.7775 268.536 -67.0703 301.951L198.991 834.073L197.202 834.967L-68.8594 302.845C-85.8622 268.84 -84.9586 228.627 -66.4463 195.419L98.2236 -99.9673L99.9697 -98.9927ZM115.97 -98.9927L-48.6992 196.393C-66.8897 229.024 -67.7775 268.536 -51.0703 301.951L214.991 834.073L213.202 834.967L-52.8594 302.845C-69.8622 268.84 -68.9586 228.627 -50.4463 195.419L114.224 -99.9673L115.97 -98.9927ZM131.97 -98.9927L-32.6992 196.393C-50.8897 229.024 -51.7775 268.536 -35.0703 301.951L230.991 834.073L229.202 834.967L-36.8594 302.845C-53.8622 268.84 -52.9586 228.627 -34.4463 195.419L130.224 -99.9673L131.97 -98.9927ZM147.97 -98.9927L-16.6992 196.393C-34.8897 229.024 -35.7775 268.536 -19.0703 301.951L246.991 834.073L245.202 834.967L-20.8594 302.845C-37.8622 268.84 -36.9586 228.627 -18.4463 195.419L146.224 -99.9673L147.97 -98.9927ZM163.97 -98.9927L-0.699219 196.393C-18.8897 229.024 -19.7775 268.536 -3.07031 301.951L262.991 834.073L261.202 834.967L-4.85938 302.845C-21.8622 268.84 -20.9586 228.627 -2.44629 195.419L162.224 -99.9673L163.97 -98.9927ZM179.97 -98.9927L15.3008 196.393C-2.88971 229.024 -3.77747 268.536 12.9297 301.951L278.991 834.073L277.202 834.967L11.1406 302.845C-5.86218 268.84 -4.95862 228.627 13.5537 195.419L178.224 -99.9673L179.97 -98.9927ZM195.97 -98.9927L31.3008 196.393C13.1103 229.024 12.2225 268.536 28.9297 301.951L294.991 834.073L293.202 834.967L27.1406 302.845C10.1378 268.84 11.0414 228.627 29.5537 195.419L194.224 -99.9673L195.97 -98.9927ZM211.97 -98.9927L47.3008 196.393C29.1104 229.024 28.2225 268.536 44.9297 301.951L310.991 834.073L309.202 834.967L43.1406 302.845C26.1378 268.84 27.0414 228.627 45.5537 195.419L210.224 -99.9673L211.97 -98.9927ZM227.97 -98.9927L63.3008 196.393C45.1104 229.024 44.2225 268.536 60.9297 301.951L326.991 834.073L325.202 834.967L59.1406 302.845C42.1378 268.84 43.0414 228.627 61.5537 195.419L226.224 -99.9673L227.97 -98.9927ZM243.97 -98.9927L79.3008 196.393C61.1104 229.024 60.2225 268.536 76.9297 301.951L342.991 834.073L341.202 834.967L75.1406 302.845C58.1378 268.84 59.0414 228.627 77.5537 195.419L242.224 -99.9673L243.97 -98.9927ZM259.97 -98.9927L95.3008 196.393C77.1104 229.024 76.2225 268.536 92.9297 301.951L358.991 834.073L357.202 834.967L91.1406 302.845C74.1378 268.84 75.0414 228.627 93.5537 195.419L258.224 -99.9673L259.97 -98.9927ZM275.97 -98.9927L111.301 196.393C93.1104 229.024 92.2225 268.536 108.93 301.951L374.991 834.073L373.202 834.967L107.141 302.845C90.1378 268.84 91.0414 228.627 109.554 195.419L274.224 -99.9673L275.97 -98.9927ZM291.97 -98.9927L127.301 196.393C109.11 229.024 108.223 268.536 124.93 301.951L390.991 834.073L389.202 834.967L123.141 302.845C106.138 268.84 107.041 228.627 125.554 195.419L290.224 -99.9673L291.97 -98.9927ZM307.97 -98.9927L143.301 196.393C125.11 229.024 124.223 268.536 140.93 301.951L406.991 834.073L405.202 834.967L139.141 302.845C122.138 268.84 123.041 228.627 141.554 195.419L306.224 -99.9673L307.97 -98.9927ZM323.97 -98.9927L159.301 196.393C141.11 229.024 140.223 268.536 156.93 301.951L422.991 834.073L421.202 834.967L155.141 302.845C138.138 268.84 139.041 228.627 157.554 195.419L322.224 -99.9673L323.97 -98.9927ZM339.97 -98.9927L175.301 196.393C157.11 229.024 156.223 268.536 172.93 301.951L438.991 834.073L437.202 834.967L171.141 302.845C154.138 268.84 155.041 228.627 173.554 195.419L338.224 -99.9673L339.97 -98.9927ZM355.97 -98.9927L191.301 196.393C173.11 229.024 172.223 268.536 188.93 301.951L454.991 834.073L453.202 834.967L187.141 302.845C170.138 268.84 171.041 228.627 189.554 195.419L354.224 -99.9673L355.97 -98.9927ZM371.97 -98.9927L207.301 196.393C189.11 229.024 188.223 268.536 204.93 301.951L470.991 834.073L469.202 834.967L203.141 302.845C186.138 268.84 187.041 228.627 205.554 195.419L370.224 -99.9673L371.97 -98.9927ZM387.97 -98.9927L223.301 196.393C205.11 229.024 204.223 268.536 220.93 301.951L486.991 834.073L485.202 834.967L219.141 302.845C202.138 268.84 203.041 228.627 221.554 195.419L386.224 -99.9673L387.97 -98.9927ZM403.97 -98.9927L239.301 196.393C221.11 229.024 220.223 268.536 236.93 301.951L502.991 834.073L501.202 834.967L235.141 302.845C218.138 268.84 219.041 228.627 237.554 195.419L402.224 -99.9673L403.97 -98.9927ZM419.97 -98.9927L255.301 196.393C237.11 229.024 236.223 268.536 252.93 301.951L518.991 834.073L517.202 834.967L251.141 302.845C234.138 268.84 235.041 228.627 253.554 195.419L418.224 -99.9673L419.97 -98.9927ZM435.97 -98.9927L271.301 196.393C253.11 229.024 252.223 268.536 268.93 301.951L534.991 834.073L533.202 834.967L267.141 302.845C250.138 268.84 251.041 228.627 269.554 195.419L434.224 -99.9673L435.97 -98.9927ZM451.97 -98.9927L287.301 196.393C269.11 229.024 268.223 268.536 284.93 301.951L550.991 834.073L549.202 834.967L283.141 302.845C266.138 268.84 267.041 228.627 285.554 195.419L450.224 -99.9673L451.97 -98.9927ZM467.97 -98.9927L303.301 196.393C285.11 229.024 284.223 268.536 300.93 301.951L566.991 834.073L565.202 834.967L299.141 302.845C282.138 268.84 283.041 228.627 301.554 195.419L466.224 -99.9673L467.97 -98.9927ZM483.97 -98.9927L319.301 196.393C301.11 229.024 300.223 268.536 316.93 301.951L582.991 834.073L581.202 834.967L315.141 302.845C298.138 268.84 299.041 228.627 317.554 195.419L482.224 -99.9673L483.97 -98.9927Z" fill="url(#paint1_radial_1938_21423)" fill-opacity="0.5"/>
</g>
</g>
<defs>
<radialGradient id="paint0_radial_1938_21423" cx="0" cy="0" r="1" gradientUnits="userSpaceOnUse" gradientTransform="translate(-40.5003 720.5) rotate(70.7079) scale(655.298 298.982)">
<stop stop-opacity="0"/>
<stop offset="0.456507" stop-color="#F1F1F6"/>
<stop offset="0.759596" stop-opacity="0"/>
</radialGradient>
<radialGradient id="paint1_radial_1938_21423" cx="0" cy="0" r="1" gradientUnits="userSpaceOnUse" gradientTransform="translate(193.5 -153.5) rotate(97.3058) scale(845.363 399.477)">
<stop offset="0.253944" stop-opacity="0"/>
<stop offset="0.495435" stop-color="#F1F1F6"/>
<stop offset="0.78478" stop-opacity="0"/>
</radialGradient>
<clipPath id="clip0_1938_21423">
<rect width="280" height="954" fill="white"/>
</clipPath>
</defs>
</svg>
