<svg width="81" height="30" viewBox="0 0 81 30" fill="none" xmlns="http://www.w3.org/2000/svg">
<path d="M3.65277 7.8974H2.0514V1.78668H0V0.476562H5.70418V1.78595H3.65277V7.89666V7.8974Z" class="logo-accent"/>
<path d="M8.56749 2.11597C8.647 2.11597 8.7385 2.12039 8.84426 2.1285C8.94927 2.13734 9.03478 2.14766 9.10003 2.16166L8.98152 3.61325C8.92977 3.59631 8.85626 3.58378 8.76175 3.57494C8.66725 3.56683 8.58549 3.56241 8.51648 3.56241C8.31322 3.56241 8.11596 3.5882 7.92469 3.63831C7.73343 3.68915 7.56241 3.77094 7.4109 3.88442C7.25939 3.99789 7.13938 4.14673 7.05163 4.33095C6.96387 4.51516 6.91962 4.74137 6.91962 5.00885V7.89657H5.34375V2.22281H6.53709L6.76961 3.17704H6.84686C6.96087 2.98398 7.10263 2.80714 7.27289 2.6465C7.44316 2.48587 7.63817 2.35692 7.85644 2.26039C8.07545 2.16387 8.31172 2.11523 8.56674 2.11523L8.56749 2.11597Z" class="logo-accent"/>
<path d="M10.2284 0C10.4624 0 10.6642 0.0530533 10.833 0.159897C11.0017 0.26674 11.0865 0.464954 11.0865 0.75601C11.0865 1.04707 11.0017 1.24233 10.833 1.35212C10.6642 1.46191 10.4624 1.51718 10.2284 1.51718C9.99439 1.51718 9.78812 1.46191 9.62161 1.35212C9.45435 1.24233 9.37109 1.04338 9.37109 0.75601C9.37109 0.468638 9.45435 0.266004 9.62161 0.159897C9.78887 0.0530533 9.99139 0 10.2284 0ZM11.0137 2.22308V7.89758H9.43785V2.22308H11.0137Z" class="logo-accent"/>
<path d="M18.7239 2.11621C19.378 2.11621 19.8738 2.28127 20.209 2.61138C20.5451 2.94148 20.7131 3.46981 20.7131 4.19782V7.89755H19.132V4.58319C19.132 4.17719 19.0615 3.87066 18.9204 3.66434C18.7794 3.45802 18.5604 3.35486 18.2641 3.35486C17.8471 3.35486 17.5508 3.50149 17.3753 3.79402C17.1998 4.08655 17.1121 4.50508 17.1121 5.05035V7.89755H15.5362V4.58319C15.5362 4.31277 15.5054 4.08582 15.4432 3.90308C15.3809 3.72034 15.2864 3.58328 15.1589 3.49191C15.0314 3.40054 14.8679 3.35486 14.6684 3.35486C14.3759 3.35486 14.1456 3.42707 13.9783 3.57076C13.8111 3.71444 13.6926 3.92592 13.6221 4.20519C13.5515 4.48445 13.5163 4.82488 13.5163 5.22794V7.89755H11.9404V2.22305H13.1443L13.3558 2.94885H13.4435C13.5605 2.75285 13.7076 2.59369 13.8853 2.47211C14.0623 2.35053 14.2581 2.26063 14.4719 2.20316C14.6856 2.14569 14.9024 2.11695 15.1229 2.11695C15.5467 2.11695 15.906 2.18474 16.2 2.32032C16.4948 2.4559 16.7213 2.66517 16.8795 2.94959H17.0191C17.1916 2.65853 17.4346 2.44706 17.7504 2.31516C18.0654 2.18326 18.3902 2.11695 18.7239 2.11695V2.11621Z" class="logo-accent"/>
<path d="M23.1845 0V1.83771C23.1845 2.05066 23.1785 2.26213 23.1665 2.47214C23.1545 2.68214 23.1395 2.84425 23.1222 2.9592H23.1845C23.336 2.72561 23.543 2.52666 23.8048 2.36308C24.0666 2.19877 24.4056 2.11698 24.8226 2.11698C25.4699 2.11698 25.9957 2.36603 26.3985 2.86341C26.8013 3.36078 27.003 4.09026 27.003 5.05112C27.003 5.69734 26.91 6.23966 26.724 6.67809C26.538 7.11651 26.2777 7.44662 25.9439 7.66768C25.6102 7.88947 25.2224 8 24.7814 8C24.3403 8 24.0238 7.92558 23.7793 7.77673C23.5348 7.62789 23.3368 7.46062 23.1852 7.2742H23.0765L22.8132 7.89831H21.6094V0H23.1852H23.1845ZM24.3156 3.35489C24.0403 3.35489 23.8213 3.41089 23.6593 3.52215C23.4973 3.63415 23.3795 3.80142 23.3053 4.02468C23.231 4.24795 23.1905 4.5309 23.1837 4.87206V5.03933C23.1837 5.59123 23.2662 6.01345 23.432 6.30598C23.597 6.59851 23.8985 6.74514 24.3358 6.74514C24.6599 6.74514 24.9171 6.59777 25.1084 6.30377C25.2997 6.00903 25.3949 5.5846 25.3949 5.02975C25.3949 4.4749 25.2981 4.05711 25.1054 3.77563C24.9126 3.49489 24.6486 3.35415 24.3148 3.35415L24.3156 3.35489Z" class="logo-accent"/>
<path d="M29.2272 7.89758H27.6514V0H29.2272V7.89758Z" class="logo-accent"/>
<path d="M32.5881 2.11621C33.1222 2.11621 33.582 2.21716 33.9675 2.41832C34.353 2.61948 34.6508 2.91127 34.8616 3.2937C35.0716 3.67613 35.1766 4.14329 35.1766 4.69446V5.44531H31.4518C31.4691 5.88226 31.6026 6.22416 31.8523 6.47322C32.1021 6.72153 32.4494 6.84606 32.8934 6.84606C33.2617 6.84606 33.5992 6.80922 33.906 6.7348C34.2128 6.66038 34.5278 6.54837 34.8518 6.39953V7.59765C34.566 7.73618 34.2668 7.83786 33.9555 7.90197C33.6435 7.96608 33.2654 7.9985 32.8214 7.9985C32.2431 7.9985 31.7301 7.89387 31.2845 7.68386C30.8383 7.47386 30.4887 7.15407 30.236 6.72448C29.9825 6.2949 29.8564 5.75331 29.8564 5.10046C29.8564 4.44761 29.9712 3.88466 30.2 3.44328C30.4287 3.00191 30.7483 2.67032 31.1585 2.44853C31.5681 2.22674 32.0451 2.11621 32.5896 2.11621H32.5881ZM32.5986 3.2178C32.2919 3.2178 32.0384 3.31433 31.8366 3.50739C31.6348 3.69971 31.5186 4.00329 31.4878 4.41593H33.699C33.6952 4.18603 33.6532 3.98118 33.5722 3.80139C33.4912 3.62234 33.3705 3.48012 33.2107 3.37475C33.0502 3.27012 32.8462 3.2178 32.5986 3.2178Z" class="logo-accent"/>
<path d="M35.5782 7.23467C35.5737 6.85298 35.8849 6.53982 36.2735 6.53613C36.2787 6.53613 36.284 6.53613 36.2892 6.53613C36.6823 6.53613 37.0003 6.8493 37.0003 7.23467C37.0003 7.62078 36.6815 7.9332 36.2892 7.9332C35.8962 7.9332 35.5782 7.62004 35.5782 7.23467ZM36.8713 7.23467C36.8653 6.91782 36.5997 6.66508 36.2772 6.67098C35.9547 6.67687 35.6974 6.93772 35.7034 7.25456C35.7087 7.56846 35.9705 7.81973 36.29 7.81825C36.611 7.81825 36.872 7.56257 36.872 7.24646C36.872 7.24204 36.872 7.23835 36.872 7.23393L36.8713 7.23467ZM36.0132 6.83677H36.3042C36.488 6.83677 36.5952 6.91487 36.5952 7.07109C36.6042 7.16983 36.5405 7.2612 36.443 7.28772L36.611 7.60162H36.4482L36.2915 7.30909H36.1685V7.60162H36.0125V6.83677H36.0132ZM36.2952 7.19193C36.3905 7.19193 36.443 7.16172 36.443 7.07993C36.443 6.99814 36.3905 6.96793 36.2915 6.96793H36.1685V7.19119H36.2945L36.2952 7.19193Z" class="logo-accent"/>
<path d="M6.14355 25H4.02539V13.9434H0.263672V12.1504H9.89648V13.9434H6.14355V25ZM15.685 15.0859C15.849 15.0859 16.0277 15.0947 16.2211 15.1123C16.4145 15.1299 16.5814 15.1533 16.7221 15.1826L16.5287 17.1162C16.4057 17.0811 16.2533 17.0547 16.0717 17.0371C15.8959 17.0195 15.7377 17.0107 15.5971 17.0107C15.2279 17.0107 14.8764 17.0723 14.5424 17.1953C14.2084 17.3125 13.9125 17.4941 13.6547 17.7402C13.3969 17.9805 13.1947 18.2822 13.0482 18.6455C12.9018 19.0088 12.8285 19.4307 12.8285 19.9111V25H10.7543V15.2705H12.3715L12.6527 16.9844H12.7494C12.9428 16.6387 13.183 16.3223 13.4701 16.0352C13.7572 15.748 14.0854 15.5195 14.4545 15.3496C14.8295 15.1738 15.2396 15.0859 15.685 15.0859ZM21.4383 15.0859C22.6688 15.0859 23.5975 15.3584 24.2244 15.9033C24.8572 16.4482 25.1736 17.2979 25.1736 18.4521V25H23.7059L23.3104 23.6201H23.24C22.9646 23.9717 22.6805 24.2617 22.3875 24.4902C22.0945 24.7188 21.7547 24.8887 21.368 25C20.9871 25.1172 20.5213 25.1758 19.9705 25.1758C19.3904 25.1758 18.8719 25.0703 18.4148 24.8594C17.9578 24.6426 17.5975 24.3145 17.3338 23.875C17.0701 23.4355 16.9383 22.8789 16.9383 22.2051C16.9383 21.2031 17.3104 20.4502 18.0545 19.9463C18.8045 19.4424 19.9354 19.1641 21.4471 19.1113L23.1346 19.0498V18.54C23.1346 17.8662 22.9764 17.3857 22.66 17.0986C22.3494 16.8115 21.91 16.668 21.3416 16.668C20.8553 16.668 20.3836 16.7383 19.9266 16.8789C19.4695 17.0195 19.0242 17.1924 18.5906 17.3975L17.9227 15.9385C18.3973 15.6865 18.9363 15.4814 19.5398 15.3232C20.1492 15.165 20.782 15.0859 21.4383 15.0859ZM23.1258 20.3506L21.8689 20.3945C20.8377 20.4297 20.1141 20.6055 19.698 20.9219C19.282 21.2383 19.074 21.6719 19.074 22.2227C19.074 22.7031 19.2176 23.0547 19.5047 23.2773C19.7918 23.4941 20.1697 23.6025 20.6385 23.6025C21.3533 23.6025 21.9451 23.4004 22.4139 22.9961C22.8885 22.5859 23.1258 21.9854 23.1258 21.1943V20.3506ZM33.3439 29.3154V25.1846C33.3439 24.9502 33.3498 24.6953 33.3615 24.4199C33.3791 24.1445 33.4055 23.8926 33.4406 23.6641H33.3352C33.0715 24.0918 32.7053 24.4521 32.2365 24.7451C31.7678 25.0322 31.1555 25.1758 30.3996 25.1758C29.257 25.1758 28.3371 24.7539 27.6398 23.9102C26.9426 23.0605 26.5939 21.8066 26.5939 20.1484C26.5939 19.0469 26.7551 18.1211 27.0773 17.3711C27.3996 16.6211 27.8508 16.0527 28.4309 15.666C29.0168 15.2793 29.6965 15.0859 30.4699 15.0859C31.2141 15.0859 31.8176 15.2324 32.2805 15.5254C32.7492 15.8125 33.1242 16.167 33.4055 16.5889H33.4758L33.7043 15.2705H35.4182V29.3154H33.3439ZM31.0148 23.5146C31.6008 23.5146 32.0695 23.4033 32.4211 23.1807C32.7727 22.958 33.0275 22.6211 33.1857 22.1699C33.3439 21.7129 33.4289 21.1475 33.4406 20.4736V20.1572C33.4406 19.0557 33.2619 18.2178 32.9045 17.6436C32.5471 17.0693 31.9113 16.7822 30.9973 16.7822C30.2238 16.7822 29.6496 17.084 29.2746 17.6875C28.8996 18.2852 28.7121 19.1172 28.7121 20.1836C28.7121 21.2617 28.8996 22.0879 29.2746 22.6621C29.6555 23.2305 30.2355 23.5146 31.0148 23.5146ZM44.0191 22.2227C44.0191 22.8613 43.8639 23.4004 43.5533 23.8398C43.2428 24.2793 42.7887 24.6133 42.191 24.8418C41.5992 25.0645 40.8727 25.1758 40.0113 25.1758C39.3316 25.1758 38.7457 25.126 38.2535 25.0264C37.7672 24.9326 37.3072 24.7861 36.8736 24.5869V22.8027C37.3365 23.0195 37.8551 23.207 38.4293 23.3652C39.0094 23.5234 39.5572 23.6025 40.0729 23.6025C40.7525 23.6025 41.2418 23.4971 41.5406 23.2861C41.8395 23.0693 41.9889 22.7822 41.9889 22.4248C41.9889 22.2139 41.9273 22.0264 41.8043 21.8623C41.6871 21.6924 41.4645 21.5195 41.1363 21.3438C40.8141 21.1621 40.3395 20.9453 39.7125 20.6934C39.0973 20.4473 38.5787 20.2012 38.1568 19.9551C37.735 19.709 37.4156 19.4131 37.1988 19.0674C36.982 18.7158 36.8736 18.2676 36.8736 17.7227C36.8736 16.8613 37.2135 16.208 37.8932 15.7627C38.5787 15.3115 39.484 15.0859 40.609 15.0859C41.2066 15.0859 41.7691 15.1475 42.2965 15.2705C42.8297 15.3877 43.3512 15.5605 43.8609 15.7891L43.2105 17.3447C42.7711 17.1514 42.3287 16.9932 41.8834 16.8701C41.4439 16.7412 40.9957 16.6768 40.5387 16.6768C40.0055 16.6768 39.5982 16.7588 39.317 16.9229C39.0416 17.0869 38.9039 17.3213 38.9039 17.626C38.9039 17.8545 38.9713 18.0479 39.1061 18.2061C39.2408 18.3643 39.4723 18.5225 39.8004 18.6807C40.1344 18.8389 40.5973 19.0352 41.1891 19.2695C41.7691 19.4922 42.2701 19.7266 42.692 19.9727C43.1197 20.2129 43.4479 20.5088 43.6764 20.8604C43.9049 21.2119 44.0191 21.666 44.0191 22.2227ZM50.3438 15.0859C51.498 15.0859 52.4238 15.5078 53.1211 16.3516C53.8242 17.1953 54.1758 18.4492 54.1758 20.1133C54.1758 21.2148 54.0117 22.1436 53.6836 22.8994C53.3613 23.6494 52.9072 24.2178 52.3213 24.6045C51.7412 24.9854 51.0645 25.1758 50.291 25.1758C49.7988 25.1758 49.3711 25.1113 49.0078 24.9824C48.6445 24.8535 48.334 24.6865 48.0762 24.4814C47.8184 24.2705 47.6016 24.042 47.4258 23.7959H47.3027C47.332 24.0303 47.3584 24.291 47.3818 24.5781C47.4111 24.8594 47.4258 25.1172 47.4258 25.3516V29.3154H45.3516V15.2705H47.0391L47.3291 16.6152H47.4258C47.6074 16.3398 47.8271 16.085 48.085 15.8506C48.3486 15.6162 48.665 15.4316 49.0342 15.2969C49.4092 15.1562 49.8457 15.0859 50.3438 15.0859ZM49.79 16.7734C49.2217 16.7734 48.7646 16.8877 48.4189 17.1162C48.0791 17.3389 47.8301 17.6758 47.6719 18.127C47.5195 18.5781 47.4375 19.1436 47.4258 19.8232V20.1133C47.4258 20.834 47.499 21.4463 47.6455 21.9502C47.7979 22.4482 48.0469 22.8291 48.3926 23.0928C48.7441 23.3506 49.2188 23.4795 49.8164 23.4795C50.3203 23.4795 50.7363 23.3418 51.0645 23.0664C51.3984 22.791 51.6475 22.3984 51.8115 21.8887C51.9756 21.3789 52.0576 20.7783 52.0576 20.0869C52.0576 19.0381 51.8701 18.2236 51.4951 17.6436C51.126 17.0635 50.5576 16.7734 49.79 16.7734ZM59.5424 15.0859C60.4096 15.0859 61.1537 15.2646 61.7748 15.6221C62.3959 15.9795 62.8734 16.4863 63.2074 17.1426C63.5414 17.7988 63.7084 18.584 63.7084 19.498V20.6055H57.2133C57.2367 21.5488 57.4887 22.2754 57.9691 22.7852C58.4555 23.2949 59.1352 23.5498 60.0082 23.5498C60.6293 23.5498 61.1859 23.4912 61.6781 23.374C62.1762 23.251 62.6889 23.0723 63.2162 22.8379V24.5166C62.7299 24.7451 62.2348 24.9121 61.7309 25.0176C61.227 25.123 60.6234 25.1758 59.9203 25.1758C58.9652 25.1758 58.1244 24.9912 57.3979 24.6221C56.6771 24.2471 56.1117 23.6904 55.7016 22.9521C55.2973 22.2139 55.0951 21.2969 55.0951 20.2012C55.0951 19.1113 55.2797 18.1855 55.6488 17.4238C56.018 16.6621 56.5365 16.082 57.2045 15.6836C57.8725 15.2852 58.6518 15.0859 59.5424 15.0859ZM59.5424 16.6416C58.892 16.6416 58.3646 16.8525 57.9604 17.2744C57.5619 17.6963 57.3275 18.3145 57.2572 19.1289H61.6869C61.6811 18.6426 61.599 18.2119 61.4408 17.8369C61.2885 17.4619 61.0541 17.1689 60.7377 16.958C60.4271 16.7471 60.0287 16.6416 59.5424 16.6416ZM70.0682 15.0859C70.2322 15.0859 70.4109 15.0947 70.6043 15.1123C70.7977 15.1299 70.9646 15.1533 71.1053 15.1826L70.9119 17.1162C70.7889 17.0811 70.6365 17.0547 70.4549 17.0371C70.2791 17.0195 70.1209 17.0107 69.9803 17.0107C69.6111 17.0107 69.2596 17.0723 68.9256 17.1953C68.5916 17.3125 68.2957 17.4941 68.0379 17.7402C67.7801 17.9805 67.5779 18.2822 67.4314 18.6455C67.285 19.0088 67.2117 19.4307 67.2117 19.9111V25H65.1375V15.2705H66.7547L67.0359 16.9844H67.1326C67.326 16.6387 67.5662 16.3223 67.8533 16.0352C68.1404 15.748 68.4686 15.5195 68.8377 15.3496C69.2127 15.1738 69.6229 15.0859 70.0682 15.0859ZM75.8215 15.0859C77.052 15.0859 77.9807 15.3584 78.6076 15.9033C79.2404 16.4482 79.5568 17.2979 79.5568 18.4521V25H78.0891L77.6936 23.6201H77.6232C77.3479 23.9717 77.0637 24.2617 76.7707 24.4902C76.4777 24.7188 76.1379 24.8887 75.7512 25C75.3703 25.1172 74.9045 25.1758 74.3537 25.1758C73.7736 25.1758 73.2551 25.0703 72.798 24.8594C72.341 24.6426 71.9807 24.3145 71.717 23.875C71.4533 23.4355 71.3215 22.8789 71.3215 22.2051C71.3215 21.2031 71.6936 20.4502 72.4377 19.9463C73.1877 19.4424 74.3186 19.1641 75.8303 19.1113L77.5178 19.0498V18.54C77.5178 17.8662 77.3596 17.3857 77.0432 17.0986C76.7326 16.8115 76.2932 16.668 75.7248 16.668C75.2385 16.668 74.7668 16.7383 74.3098 16.8789C73.8527 17.0195 73.4074 17.1924 72.9738 17.3975L72.3059 15.9385C72.7805 15.6865 73.3195 15.4814 73.923 15.3232C74.5324 15.165 75.1652 15.0859 75.8215 15.0859ZM77.509 20.3506L76.2522 20.3945C75.2209 20.4297 74.4973 20.6055 74.0813 20.9219C73.6652 21.2383 73.4572 21.6719 73.4572 22.2227C73.4572 22.7031 73.6008 23.0547 73.8879 23.2773C74.175 23.4941 74.5529 23.6025 75.0217 23.6025C75.7365 23.6025 76.3283 23.4004 76.7971 22.9961C77.2717 22.5859 77.509 21.9854 77.509 21.1943V20.3506Z" class="logo-text"/>
</svg>
