<svg width="377.19" height="30.89" viewBox="12 8.55 377.19 30.89" fill="none" xmlns="http://www.w3.org/2000/svg">
<path d="M22.8188 33.1485L25.3228 23.986L21.1766 8.55499H12L20.1941 39.445H29.4353L27.7706 33.2187L22.8188 33.1485Z" fill="#019AEB"/>
<path d="M30.968 8.55499L26.8442 23.986L28.9356 31.5709H34.0025L40.2288 8.55499H30.968Z" fill="#019AEB"/>
<path d="M57.0167 31.2046L50.229 11.5994H53.5976L58.6252 26.8339H58.6786L63.796 11.6107H66.912L60.1299 31.2159L57.0167 31.2046Z" fill="#F1F1F6"/>
<path d="M68.8208 14.6844V11.8772H72.1473V14.6844H68.8208ZM68.8489 31.1231V17.1126H72.1248V31.1231H68.8489Z" fill="#F1F1F6"/>
<path d="M74.4434 24.1332C74.4434 18.7996 78.2162 16.8486 81.1188 16.8486C84.2572 16.8486 87.2665 18.7238 87.2665 24.428V25.1915H77.6884C77.8204 27.718 79.3727 28.8408 81.4332 28.8408C83.255 28.8408 84.3105 28.2317 85.3632 27.2042L87.0784 28.8885C85.6271 30.4999 83.7098 31.415 81.1833 31.415C77.6884 31.415 74.4434 29.2759 74.4434 24.1332ZM84.2853 22.7605C84.1 20.6215 83.0445 19.4874 81.0907 19.4874C79.5075 19.4874 78.0562 20.3857 77.739 22.7605H84.2853Z" fill="#F1F1F6"/>
<path d="M91.9211 31.1231L87.7524 17.1126H91.0509L92.5808 22.9178C93.0018 24.5011 93.2657 25.5818 93.6363 27.3784H93.6896C94.1107 25.4779 94.3493 24.4758 94.7984 22.8645L96.2666 17.1126H98.9053L100.477 22.9712C100.926 24.5263 101.165 25.5818 101.561 27.3784H101.6C102.021 25.5565 102.26 24.5544 102.706 23.0245L104.289 17.1126H107.245L103.077 31.1231H100.048L97.5214 21.3879H97.468L94.9416 31.1231H91.9211Z" fill="#F1F1F6"/>
<path d="M108.899 36.4005V17.1125H112.155V18.9737C112.691 18.3081 113.37 17.7723 114.142 17.4067C114.914 17.0411 115.759 16.8551 116.613 16.8627C119.808 16.8627 122.154 19.2656 122.154 24.1192C122.154 28.9728 119.754 31.3252 116.164 31.3252C115.409 31.3311 114.661 31.1764 113.97 30.8716C113.279 30.5667 112.66 30.1185 112.155 29.5567V36.3893L108.899 36.4005ZM118.898 24.1333C118.898 21.1773 117.632 19.6193 115.546 19.6193C114.202 19.6193 112.908 20.4615 112.144 21.3879V27.0022C112.526 27.5228 113.022 27.9498 113.593 28.2513C114.165 28.5527 114.797 28.7207 115.442 28.7426C117.907 28.7482 118.909 27.2464 118.909 24.1333H118.898Z" fill="#F1F1F6"/>
<path d="M123.777 24.1332C123.777 18.9596 127.179 16.8486 130.609 16.8486C134.04 16.8486 137.442 18.9596 137.442 24.1332C137.442 29.2507 134.015 31.415 130.609 31.415C127.204 31.415 123.777 29.2507 123.777 24.1332ZM134.163 24.1332C134.163 21.5197 133.055 19.6193 130.601 19.6193C128.251 19.6193 127.039 21.3036 127.039 24.1332C127.039 26.7972 128.122 28.6977 130.601 28.6977C132.956 28.6977 134.163 27.0077 134.163 24.1332Z" fill="#F1F1F6"/>
<path d="M139.777 14.6844V11.8772H143.09V14.6844H139.777ZM139.803 31.1231V17.1126H143.076V31.1231H139.803Z" fill="#F1F1F6"/>
<path d="M146.113 31.123V17.1125H149.358V19.3582C150.414 18.1455 152.05 16.8514 154.372 16.8514C156.932 16.8514 158.515 18.1708 158.515 20.9415V31.1258H155.27V21.8622C155.27 20.3323 154.636 19.5407 153.159 19.5407C151.733 19.5407 150.546 20.2537 149.358 21.3597V31.123H146.113Z" fill="#F1F1F6"/>
<path d="M162.555 27.4571V19.6981H160.126V17.1127H162.555V12.2366H165.8V17.1127H169.413V19.6981H165.8V26.6374C165.8 28.142 166.246 28.7484 167.857 28.7484C168.331 28.7498 168.803 28.6884 169.261 28.5659V31.1232C168.475 31.245 167.681 31.307 166.886 31.3085C163.318 31.3085 162.555 29.9891 162.555 27.4571Z" fill="#F1F1F6"/>
<path d="M179.412 14.2383H190.837V15.9788H181.293V22.716H188.364V24.4003H181.284V33.765H179.412V14.2383Z" fill="#F1F1F6"/>
<path d="M193.305 14.6874H195.23V16.6524H193.305V14.6874ZM193.358 19.8582H195.177V33.762H193.358V19.8582Z" fill="#F1F1F6"/>
<path d="M198.745 19.8582H200.567V22.0478C201.912 20.7285 203.68 19.5944 205.87 19.5944C208.612 19.5944 210.013 21.1243 210.013 23.7097V33.7621H208.191V24.0521C208.191 22.0871 207.321 21.1495 205.421 21.1495C203.627 21.1495 202.122 22.0731 200.567 23.5777V33.7621H198.745V19.8582Z" fill="#F1F1F6"/>
<path d="M212.57 30.5171C212.57 27.7745 214.917 25.7674 221.988 24.6866V23.9736C221.988 22.0479 220.986 21.1243 219.167 21.1243C216.975 21.1243 215.42 22.0479 213.968 23.3139L212.991 22.191C214.653 20.6611 216.579 19.6057 219.324 19.6057C222.438 19.6057 223.782 21.2675 223.782 24.0382V30.343C223.782 32.0273 223.889 33.0632 224.181 33.7734H222.306C222.093 33.1353 221.986 32.4669 221.988 31.7943C220.38 33.2456 218.586 34.012 216.5 34.012C214.022 34.0008 212.57 32.6814 212.57 30.5171ZM221.988 30.3065V25.9779C216.026 26.9829 214.364 28.4594 214.364 30.2813C214.364 31.7326 215.341 32.4961 216.891 32.4961C218.85 32.4961 220.565 31.6792 221.988 30.315V30.3065Z" fill="#F1F1F6"/>
<path d="M227.218 19.8582H229.037V22.0478C230.385 20.7285 232.15 19.5944 234.343 19.5944C237.085 19.5944 238.483 21.1243 238.483 23.7097V33.7621H236.664V24.0521C236.664 22.0871 235.794 21.1495 233.894 21.1495C232.1 21.1495 230.595 22.0731 229.037 23.5777V33.7621H227.218V19.8582Z" fill="#F1F1F6"/>
<path d="M241.215 26.8228C241.215 21.8373 244.303 19.5944 247.416 19.5944C250.397 19.5944 251.876 21.3629 252.749 23.3924L251.191 24.0802C250.428 22.205 249.319 21.1495 247.365 21.1495C245.308 21.1495 243.039 22.6289 243.039 26.7975C243.039 30.4468 244.887 32.4961 247.315 32.4961C249.24 32.4961 250.321 31.6006 251.298 29.5401L252.775 30.1745C251.669 32.5241 250.057 34.054 247.233 34.054C244.042 34.054 241.215 31.4378 241.215 26.8228Z" fill="#F1F1F6"/>
<path d="M255.27 14.6874H257.196V16.6524H255.27V14.6874ZM255.321 19.8582H257.142V33.762H255.326L255.321 19.8582Z" fill="#F1F1F6"/>
<path d="M259.837 30.5171C259.837 27.7745 262.184 25.7674 269.255 24.6866V23.9736C269.255 22.0479 268.253 21.1243 266.434 21.1243C264.241 21.1243 262.686 22.0479 261.235 23.3139L260.258 22.191C261.92 20.6611 263.846 19.6057 266.591 19.6057C269.704 19.6057 271.049 21.2675 271.049 24.0382V30.343C271.049 32.0273 271.155 33.0632 271.444 33.7734H269.586C269.374 33.1353 269.267 32.4669 269.269 31.7943C267.66 33.2456 265.867 34.012 263.781 34.012C261.288 34.0008 259.837 32.6814 259.837 30.5171ZM269.255 30.3065V25.9779C263.293 26.9829 261.631 28.4594 261.631 30.2813C261.631 31.7326 262.608 32.4961 264.157 32.4961C266.116 32.4961 267.832 31.6792 269.255 30.315V30.3065Z" fill="#F1F1F6"/>
<path d="M274.578 14.2383H276.397V33.7621H274.578V14.2383Z" fill="#F1F1F6"/>
<path d="M284.84 23.92C284.84 18.025 288.085 13.8676 292.967 13.8676C296.925 13.8676 299.115 16.2171 300.038 19.83L298.245 20.2791C297.374 17.1912 295.923 15.5827 292.942 15.5827C289.166 15.5827 286.713 18.8559 286.713 23.8695C286.713 29.2761 289.194 32.4425 292.992 32.4425C295.895 32.4425 297.717 30.7582 298.562 27.4823L300.356 27.8781C299.404 31.7323 296.872 34.1324 292.967 34.1324C288.032 34.1324 284.84 30.1491 284.84 23.92Z" fill="#F1F1F6"/>
<path d="M302.599 26.8228C302.599 22.1798 305.476 19.5944 308.906 19.5944C312.337 19.5944 315.186 22.1798 315.186 26.8228C315.186 31.4658 312.309 34.054 308.906 34.054C305.504 34.054 302.599 31.4378 302.599 26.8228ZM313.364 26.7975C313.364 23.763 311.834 21.1495 308.906 21.1495C306.082 21.1495 304.415 23.5244 304.415 26.7975C304.415 29.8854 305.917 32.4961 308.906 32.4961C311.694 32.4961 313.378 30.1493 313.378 26.7975H313.364Z" fill="#F1F1F6"/>
<path d="M317.988 19.8582H319.81V22.0478C321.154 20.7285 322.923 19.5944 325.112 19.5944C327.858 19.5944 329.256 21.1243 329.256 23.7097V33.7621H327.434V24.0521C327.434 22.0871 326.564 21.1495 324.663 21.1495C322.869 21.1495 321.365 22.0731 319.81 23.5777V33.7621H317.988V19.8582Z" fill="#F1F1F6"/>
<path d="M333.573 30.517V21.4134H331.145V19.8583H333.573V14.8755H335.392V19.8583H339.007V21.4134H335.392V30.1493C335.392 31.6259 335.866 32.4175 337.581 32.4175C338.072 32.4296 338.561 32.3671 339.033 32.2322V33.7902C338.44 33.8911 337.84 33.9437 337.239 33.9474C334.575 33.9474 333.573 32.92 333.573 30.517Z" fill="#F1F1F6"/>
<path d="M341.399 19.8582H343.218V22.6008H343.272C344.352 20.8857 346.042 19.5944 348.785 19.5944H349.102L348.92 21.2787L348.358 21.2534C346.09 21.2534 344.296 22.5194 343.213 24.709V33.7593H341.394L341.399 19.8582Z" fill="#F1F1F6"/>
<path d="M349.871 26.8228C349.871 22.1798 352.748 19.5944 356.176 19.5944C359.604 19.5944 362.458 22.1798 362.458 26.8228C362.458 31.4658 359.581 34.054 356.176 34.054C352.771 34.054 349.871 31.4378 349.871 26.8228ZM360.637 26.7975C360.637 23.763 359.107 21.1495 356.176 21.1495C353.369 21.1495 351.685 23.5244 351.685 26.7975C351.685 29.8854 353.186 32.4961 356.176 32.4961C358.972 32.4961 360.634 30.1493 360.634 26.7975H360.637Z" fill="#F1F1F6"/>
<path d="M365.361 14.2383H367.18V33.7621H365.361V14.2383Z" fill="#F1F1F6"/>
<path d="M369.709 31.5472L370.869 30.4917C371.391 31.1327 372.052 31.6463 372.802 31.9936C373.552 32.3409 374.371 32.5127 375.197 32.496C377.572 32.496 378.813 31.6258 378.813 30.0678C378.813 28.5098 377.704 27.9316 374.987 27.2972C371.792 26.5055 370.159 25.6634 370.159 23.2352C370.159 21.2702 371.874 19.5859 374.88 19.5859C377.255 19.5859 378.785 20.3775 380.026 21.5902L378.996 22.8057C378.472 22.2572 377.841 21.8219 377.142 21.5269C376.444 21.2319 375.692 21.0834 374.934 21.0905C372.769 21.0905 371.924 22.0927 371.924 23.1482C371.924 24.4928 372.876 25.0486 375.293 25.6269C378.777 26.469 380.57 27.3112 380.57 30.0341C380.57 32.5606 378.302 34.0175 375.161 34.0175C372.691 34.0259 370.765 32.9704 369.709 31.5472Z" fill="#F1F1F6"/>
<path d="M382.962 14.6875H381.702V14.2383H384.719V14.6875H383.467V18.275H382.962V14.6875ZM385.435 14.2383H386.084L387.296 17.6069L388.526 14.2383H389.194V18.275H388.68V15.1058L387.507 18.275H387.077L385.904 15.1058V18.275H385.427L385.435 14.2383Z" fill="#F1F1F6"/>
</svg>
