<svg width="266" height="48" viewBox="0 0 266 48" fill="none" xmlns="http://www.w3.org/2000/svg">
<g clip-path="url(#clip0_2337_62187)">
<path d="M27.9142 42.4615L20.2975 37.9999V19.5383L28.0014 15.102L35.7025 19.5383V28.4139L28.6063 32.5021V26.6674L30.6378 25.4966V22.4557L28.0014 20.9366L25.3622 22.4557V35.1134L28.0014 36.6325L38.9354 30.2755V17.6767L28.0014 11.3759L17.0646 17.6767V36.1383L12 33.2181V14.7566L28.0014 5.53845L44 14.7566V33.1957L27.9142 42.4615Z" fill="#0063A3"/>
</g>
<path d="M59.08 32.5H54.016V14.74H59.08C64.648 14.74 68.296 17.332 68.296 23.548C68.296 29.884 64.576 32.5 59.08 32.5ZM57.016 17.524V29.812H59.344C63.4 29.812 65.296 28.036 65.296 23.548C65.296 19.276 63.376 17.524 59.296 17.524H57.016ZM76.3066 32.764C73.1146 32.764 70.1626 30.82 70.1626 26.14C70.1626 21.292 73.5946 19.516 76.2346 19.516C79.0906 19.516 81.8266 21.22 81.8266 26.404V27.1H73.1146C73.2346 29.404 74.6506 30.412 76.5226 30.412C78.1786 30.412 79.1386 29.86 80.0986 28.924L81.6586 30.46C80.3386 31.924 78.5866 32.764 76.3066 32.764ZM73.1626 24.892H79.1146C78.9466 22.948 77.9866 21.916 76.2106 21.916C74.7706 21.916 73.4506 22.732 73.1626 24.892ZM87.3814 32.5H84.4294V19.756H87.3814V21.508C88.3654 20.428 89.8054 19.516 91.7494 19.516C93.8854 19.516 94.7254 20.356 95.2294 21.604C96.2374 20.5 97.7494 19.516 99.6934 19.516C102.285 19.516 103.413 21.076 103.413 23.356V32.5H100.461V24.1C100.461 22.684 100.053 22.036 98.6614 22.036C97.4614 22.036 96.5014 22.708 95.3974 23.692V32.5H92.4454V24.1C92.4454 22.684 92.0374 22.036 90.6454 22.036C89.4694 22.036 88.4854 22.708 87.3814 23.692V32.5ZM110.465 30.412C111.977 30.412 113.153 29.836 114.089 28.948V26.14C110.561 26.62 108.689 27.484 108.689 28.876C108.689 29.884 109.385 30.412 110.465 30.412ZM109.385 32.692C107.321 32.692 105.785 31.54 105.785 29.428C105.785 26.668 108.137 24.82 114.089 24.148V23.764C114.089 22.492 113.417 21.94 112.001 21.94C110.225 21.94 108.785 22.804 107.705 23.668L106.265 21.82C107.633 20.572 109.769 19.516 112.409 19.516C115.817 19.516 116.993 21.148 116.993 24.124V29.38C116.993 30.916 117.089 31.852 117.353 32.5H114.377C114.209 31.972 114.089 31.588 114.089 30.868C112.793 32.188 111.281 32.692 109.385 32.692ZM123.148 32.5H120.196V19.756H123.148V21.796C124.108 20.692 125.596 19.516 127.708 19.516C130.036 19.516 131.476 20.716 131.476 23.236V32.5H128.524V24.076C128.524 22.684 127.948 21.964 126.604 21.964C125.308 21.964 124.228 22.612 123.148 23.62V32.5ZM139.937 30.268C141.161 30.268 142.337 29.5 143.033 28.66V23.548C142.241 22.516 141.089 21.964 140.033 21.964C137.801 21.964 136.889 23.404 136.889 26.236C136.889 28.924 138.041 30.268 139.937 30.268ZM138.977 32.692C136.073 32.692 133.937 30.58 133.937 26.164C133.937 21.748 136.121 19.516 139.385 19.516C140.753 19.516 142.097 20.068 143.033 21.124V14.74H145.985V29.38C145.985 30.916 146.081 31.852 146.369 32.5H143.321C143.153 32.14 143.033 31.42 143.033 30.772C142.097 31.852 140.873 32.692 138.977 32.692ZM158.664 32.5H155.688V14.74H161.904C165.744 14.74 168.744 16.084 168.744 20.188C168.744 24.484 165.456 25.756 161.808 25.756H158.664V32.5ZM158.664 17.476V23.14H161.952C164.592 23.14 165.792 22.324 165.792 20.284C165.792 18.316 164.592 17.476 161.928 17.476H158.664ZM174.338 32.5H171.362V14.74H174.338V32.5ZM181.645 30.412C183.157 30.412 184.333 29.836 185.269 28.948V26.14C181.741 26.62 179.869 27.484 179.869 28.876C179.869 29.884 180.565 30.412 181.645 30.412ZM180.565 32.692C178.501 32.692 176.965 31.54 176.965 29.428C176.965 26.668 179.317 24.82 185.269 24.148V23.764C185.269 22.492 184.597 21.94 183.181 21.94C181.405 21.94 179.965 22.804 178.885 23.668L177.445 21.82C178.813 20.572 180.949 19.516 183.589 19.516C186.997 19.516 188.173 21.148 188.173 24.124V29.38C188.173 30.916 188.269 31.852 188.533 32.5H185.557C185.389 31.972 185.269 31.588 185.269 30.868C183.973 32.188 182.461 32.692 180.565 32.692ZM194.327 32.5H191.375V19.756H194.327V21.796C195.287 20.692 196.775 19.516 198.887 19.516C201.215 19.516 202.655 20.716 202.655 23.236V32.5H199.703V24.076C199.703 22.684 199.127 21.964 197.783 21.964C196.487 21.964 195.407 22.612 194.327 23.62V32.5ZM208.788 32.5H205.836V19.756H208.788V21.796C209.748 20.692 211.236 19.516 213.348 19.516C215.676 19.516 217.116 20.716 217.116 23.236V32.5H214.164V24.076C214.164 22.684 213.588 21.964 212.244 21.964C210.948 21.964 209.868 22.612 208.788 23.62V32.5ZM223.393 17.548H220.369V14.98H223.393V17.548ZM223.369 32.5H220.393V19.756H223.369V32.5ZM229.788 32.5H226.836V19.756H229.788V21.796C230.748 20.692 232.236 19.516 234.348 19.516C236.676 19.516 238.116 20.716 238.116 23.236V32.5H235.164V24.076C235.164 22.684 234.588 21.964 233.244 21.964C231.948 21.964 230.868 22.612 229.788 23.62V32.5ZM246.145 26.572C247.753 26.572 248.713 25.732 248.713 24.172C248.713 22.588 247.801 21.724 246.121 21.724C244.489 21.724 243.529 22.612 243.529 24.172C243.529 25.732 244.513 26.572 246.145 26.572ZM246.073 37.444C241.681 37.444 239.929 36.172 239.929 34.324C239.929 33.052 240.721 32.14 242.017 31.636C241.369 31.3 241.033 30.772 241.033 30.076C241.033 29.116 241.801 28.324 242.761 27.748C241.465 26.932 240.745 25.636 240.745 24.076C240.745 21.46 242.761 19.516 246.097 19.516C247.849 19.516 249.145 20.092 250.009 20.86C250.825 20.212 252.121 19.708 253.177 19.612V22.012C252.601 22.012 251.785 22.084 250.945 22.348C251.233 22.804 251.401 23.404 251.401 24.076C251.401 26.74 249.409 28.612 246.097 28.612C245.377 28.612 244.945 28.516 244.321 28.348C243.937 28.564 243.673 28.828 243.673 29.164C243.673 29.668 244.009 29.836 245.137 29.932L247.393 30.076C251.161 30.316 252.649 31.324 252.649 33.556C252.649 36.172 250.009 37.444 246.073 37.444ZM246.529 35.308C248.689 35.308 250.033 34.732 250.033 33.82C250.033 32.908 249.385 32.572 246.793 32.404L244.585 32.26C244.321 32.26 244.081 32.236 243.817 32.188C242.977 32.572 242.641 33.172 242.641 33.82C242.641 34.948 243.937 35.308 246.529 35.308Z" fill="#171C1E"/>
<defs>
<clipPath id="clip0_2337_62187">
<rect width="32" height="36.9231" fill="white" transform="translate(12 5.53845)"/>
</clipPath>
</defs>
</svg>
