<svg width="64" height="48" viewBox="0 0 64 48" fill="none" xmlns="http://www.w3.org/2000/svg">
<path d="M29.8643 17.36H28.3793V19.1166C27.7192 19.4112 27.114 19.7698 26.617 20.1508L29.931 14V17.2362L29.8643 17.36Z" fill="#004F83"/>
<path d="M34.1357 17.36L34.069 17.2362V14L37.383 20.1508C36.886 19.7698 36.2808 19.4112 35.6207 19.1166V17.36H34.1357Z" fill="#004F83"/>
<path d="M38.9274 23.12H38.9828L47 38H34.4731L34.9064 36.5527H44.4766L38.3244 25.1344L38.9274 23.12Z" fill="#004F83"/>
<path d="M25.0172 23.12H25.0734L25.6761 25.1333L19.5234 36.5527H29.0945L29.5277 38H17L25.0172 23.12Z" fill="#004F83"/>
<path opacity="0.8" fill-rule="evenodd" clip-rule="evenodd" d="M32.856 37L32 40L31.142 37H32.856ZM36.999 22.5L33.142 36H30.857L27.001 22.5H36.999ZM32.5143 8L32.514 18.5H34.0571L34.0581 19.8362C35.3502 20.2554 36.3653 20.98 36.8435 21.5009H27.1565C27.6346 20.98 28.6498 20.2554 29.9419 19.8362L29.9428 18.5H31.485L31.4857 8H32.5143Z" fill="#004F83"/>
<path fill-rule="evenodd" clip-rule="evenodd" d="M32.857 37L32 40V37H32.857ZM36.999 22.5L33.143 36H32V22.5H36.999ZM32.5 8L32.499 18.5H34.0571L34.0581 19.8362C35.3502 20.2554 36.3654 20.98 36.8435 21.5009L32 21.5V8H32.5Z" fill="#004F83"/>
</svg>
