<svg width="32" height="32" viewBox="0 0 32 32" fill="none" xmlns="http://www.w3.org/2000/svg">
<path fill-rule="evenodd" clip-rule="evenodd" d="M24.8778 16.2898H24.5834C24.4042 13.3876 22.2299 11.1344 19.6073 11.1334C19.1571 11.1353 18.7093 11.2041 18.2758 11.3377C17.3388 9.1651 15.3541 7.9249 13.3143 8.00353V17.4652H17.9251C18.1888 16.5837 19.0092 15.9407 19.9815 15.9407C21.1669 15.9407 22.1279 16.8958 22.1279 18.0738C22.1279 19.2521 21.1669 20.2072 19.9815 20.2072C19.0092 20.2072 18.1888 19.5638 17.9251 18.6826H13.3143V23.3532H24.8778C26.596 23.3484 27.9893 21.8082 28 19.9024V19.7469C27.9925 17.8386 26.5982 16.2949 24.8778 16.2898Z" class="logo-accent"/>
<path d="M11.2869 8.47504C9.90562 9.21208 8.87823 10.5802 8.46987 12.2264C5.97501 12.4134 4 14.8255 4 17.7681C4 20.7107 5.9722 23.1254 8.46169 23.3188C8.56946 23.3311 8.67765 23.3374 8.78616 23.3372L12.5846 23.3372V16.5113H10.9656C10.7017 17.3974 9.88148 18.0443 8.90922 18.0443C7.72399 18.0443 6.76297 17.0839 6.76297 15.899C6.76297 14.7142 7.72399 13.7537 8.90922 13.7537C9.88148 13.7537 10.7017 14.4006 10.9656 15.287H12.5846V8C12.1453 8.09303 11.7094 8.2498 11.2869 8.47504Z" class="logo-accent"/>
</svg>
